<svg width="301" height="216" viewBox="0 0 301 216" fill="none" xmlns="http://www.w3.org/2000/svg">
<g clip-path="url(#clip0)">
<path d="M93.8018 79.6519L87.4847 74.679C87.2833 74.5335 87.2368 74.2444 87.373 73.9852C87.5185 73.7838 87.8075 73.7373 87.9996 73.825L89.247 74.573L87.733 73.2748C87.5895 73.12 87.5522 72.8887 87.6492 72.7545C87.7947 72.5531 88.026 72.5159 88.2273 72.6613L89.8775 73.7004L88.4791 72.3835C88.2778 72.238 88.2797 71.8819 88.4252 71.6805C88.5707 71.4791 88.8598 71.4325 89.0611 71.578L90.9798 72.8111L89.9264 71.7945C89.7157 71.5912 89.6598 71.2444 89.8631 71.0337C89.8631 71.0337 89.8631 71.0337 89.9209 71.0244C90.1243 70.8137 90.4226 70.8249 90.624 70.9704L96.9317 75.8856L93.8018 79.6519Z" fill="#00A8FF"/>
<path d="M97.6685 74.9366L95.1868 72.7859L93.4268 70.6969C93.2162 70.4936 92.8507 70.4339 92.5802 70.5961C92.3191 70.816 92.2015 71.1909 92.4215 71.452L93.3741 73.3151L93.3236 73.7385C93.165 74.5944 93.5452 75.4821 94.2836 76.0156L95.8852 77.1218L97.6685 74.9366Z" fill="#00A8FF"/>
<path d="M94.2834 76.0156C93.5451 75.4821 93.1741 74.6522 93.3235 73.7384L93.3739 73.3151L93.1167 72.8227" stroke="#008AD1" stroke-width="0.5" stroke-linecap="round" stroke-linejoin="round"/>
<path d="M90.9219 72.8206L92.0537 73.5872" stroke="#008AD1" stroke-width="0.5" stroke-linecap="round" stroke-linejoin="round"/>
<path d="M89.8774 73.7004L91.1528 74.6219" stroke="#008AD1" stroke-width="0.5" stroke-linecap="round" stroke-linejoin="round"/>
<path d="M89.2468 74.5732L90.4457 75.3884" stroke="#008AD1" stroke-width="0.5" stroke-linecap="round" stroke-linejoin="round"/>
<path d="M93.0828 75.5567L91.2029 76.0374" stroke="#008AD1" stroke-width="0.5" stroke-linecap="round" stroke-linejoin="round"/>
<path d="M107.173 104.485L97.1028 104.565C96.8622 104.545 96.6515 104.341 96.6143 104.11C96.577 103.879 96.7803 103.668 97.0694 103.622L98.4382 103.282L96.4746 103.243C96.2918 103.213 96.0905 103.068 96.111 102.827C96.0738 102.596 96.2864 102.443 96.4598 102.415L98.3862 102.223L96.4711 102.117C96.2305 102.096 96.0198 101.893 96.0311 101.594C96.0516 101.354 96.1971 101.152 96.4862 101.106L98.7595 100.858L97.3068 100.677C97.0085 100.666 96.7885 100.405 96.7997 100.106C96.8203 99.8658 97.0814 99.6458 97.322 99.6663L105.322 99.6232L107.173 104.485Z" fill="#00A8FF"/>
<path d="M105.205 99.9978L100.655 97.5278C100.338 97.4009 100 97.5146 99.8643 97.7738C99.6703 98.0423 99.6776 98.4563 99.9555 98.7081L100.942 99.6761L101.123 100.062C101.542 100.825 102.387 101.282 103.272 101.258L105.218 101.182L105.205 99.9978Z" fill="#00A8FF"/>
<path d="M98.6926 100.81L100.869 100.696" stroke="#008AD1" stroke-width="0.5" stroke-linecap="round" stroke-linejoin="round"/>
<path d="M98.3772 102.165L100.91 102.054" stroke="#008AD1" stroke-width="0.5" stroke-linecap="round" stroke-linejoin="round"/>
<path d="M98.4291 103.225L100.663 103.102" stroke="#008AD1" stroke-width="0.5" stroke-linecap="round" stroke-linejoin="round"/>
<path d="M168.538 158.835L162.162 155.71L158.672 162.026L167.697 166.503L168.538 158.835Z" fill="#FD88D0"/>
<path d="M165.341 162.529L163.868 165.911L168.216 167.806L169.689 164.424L165.341 162.529Z" fill="#FCCA57"/>
<path d="M173.128 160.824L167.318 174.097C164.764 172.966 163.577 170.014 164.707 167.46L166.608 163.061L167.309 163.363L168.413 158.796L173.128 160.824Z" fill="#FCCA57"/>
<path d="M173.141 160.882L167.362 174.14L168.275 174.538L174.053 161.279L173.141 160.882Z" fill="#333333"/>
<path d="M164.877 166.305L166.008 163.751" stroke="white" stroke-width="0.5" stroke-linecap="round" stroke-linejoin="round"/>
<path d="M165.895 166.734L167.026 164.18" stroke="white" stroke-width="0.5" stroke-linecap="round" stroke-linejoin="round"/>
<path d="M129.349 170.723L126.303 164.334L119.645 167.186L123.947 176.22L129.349 170.723Z" fill="#FD88D0"/>
<path d="M124.582 171.677L121.329 173.416L123.564 177.6L126.818 175.861L124.582 171.677Z" fill="#FCCA57"/>
<path d="M131.731 175.203L118.948 182.007C117.604 179.555 118.536 176.498 120.988 175.154L125.246 172.867L125.598 173.581L129.291 170.733L131.731 175.203Z" fill="#FCCA57"/>
<path d="M131.718 175.231L118.962 182.048L119.431 182.926L132.187 176.109L131.718 175.231Z" fill="#333333"/>
<path d="M121.869 174.36L124.33 173.074" stroke="white" stroke-width="0.5" stroke-linecap="round" stroke-linejoin="round"/>
<path d="M122.383 175.345L124.835 174.001" stroke="white" stroke-width="0.5" stroke-linecap="round" stroke-linejoin="round"/>
<path d="M123.851 146.164C128.069 137.003 132.87 127.036 134.202 124.627C135.621 122.026 138.323 117.439 138.456 114.215C138.486 114.032 138.458 113.859 138.43 113.685C138.097 107.57 123.936 103.979 123.608 104.151C118.541 106.569 117.186 113.252 114.896 118.188C112.139 124.266 109.467 130.509 107.161 136.812C106.741 137.888 105.931 139.857 104.849 142.345C103.416 145.6 103.723 149.347 105.574 152.37L116.938 174.68C116.938 174.68 128.303 171.959 132.09 166.011C132.09 166.011 128.855 153.662 123.851 146.164Z" fill="#353852"/>
<path d="M139.305 73.0933C130.601 68.0303 119.395 78.7322 113.665 84.4001C107.935 90.0681 110.381 95.3088 113.79 95.1155C124.479 94.4613 144.603 76.1546 139.305 73.0933Z" fill="#FD88D0"/>
<path d="M97.4337 73.8475C106.021 73.7691 115.991 81.5344 118.541 85.2162C121.092 88.8979 114.241 95.3395 112.818 94.9756C111.395 94.6116 93.6286 86.6787 93.5424 79.5158C93.4846 79.5251 95.9604 73.9068 97.4337 73.8475Z" fill="#FD88D0"/>
<path d="M155.336 143.524C154.251 143.047 152.955 142.366 151.476 141.655C151.338 131.594 151.447 120.485 151.606 117.791C151.785 114.855 152.238 109.563 150.983 106.562C150.898 106.398 150.812 106.234 150.726 106.07C147.781 100.672 133.469 103.512 133.275 103.78C129.709 108.15 131.367 114.764 131.415 120.213C131.484 126.904 131.804 133.673 132.403 140.338C132.531 141.504 132.577 143.632 132.717 146.337C132.813 149.881 134.701 153.135 137.685 155.086L158.866 168.756C158.866 168.756 168.013 161.47 168.841 154.457C168.841 154.457 160.512 145.834 155.336 143.524Z" fill="#3F4261"/>
<path d="M117.685 106.41C122.289 107.744 126.962 108.771 131.704 109.49L132.185 109.531C134.859 109.931 137.697 110.244 140.566 110.376C143.741 110.576 146.928 110.478 150.078 110.148C151.07 110.048 152.053 109.889 153.036 109.731C153.036 109.731 152.952 107.372 152.634 103.924C152.381 100.88 151.97 96.8541 151.251 92.7588C151.242 92.701 151.232 92.6431 151.223 92.5853C151.214 92.5275 151.204 92.4697 151.204 92.4697C149.871 84.5588 147.528 76.2765 143.51 73.4244C143.376 73.3274 143.309 73.2789 143.175 73.1819C137.745 69.6674 128.944 71.7374 126.631 75.7874C122.072 83.9358 117.685 106.41 117.685 106.41Z" fill="#FD88D0"/>
<path d="M134.206 67.2126C134.206 67.2126 133.983 70.9851 133.989 71.7553C134.026 71.9865 137.491 72.1401 138.022 71.758C137.741 70.3798 137.691 68.9644 137.882 67.5695C138.016 65.8278 134.206 67.2126 134.206 67.2126Z" fill="#00A8FF"/>
<path d="M132.57 60.0027C132.889 59.7733 133.946 60.0775 134.763 60.3612C134.53 60.7546 134.759 61.0735 134.593 61.5155C134.593 61.5155 134.533 61.881 134.543 61.9388C134.705 62.2092 134.809 62.4889 134.798 62.7873C134.384 62.7947 133.961 62.7443 133.528 62.636C133.095 62.5278 132.702 62.2946 132.357 61.9943C131.898 61.3564 131.999 60.5098 132.57 60.0027Z" fill="#FFD357"/>
<path d="M132.626 60.3497C133.437 59.8631 133.939 61.5024 134.024 61.6666L135.059 62.5675C134.587 62.5842 134.048 62.5524 133.558 62.4534C131.885 62.0111 132.24 60.5305 132.626 60.3497Z" fill="#B78D37"/>
<path d="M138.628 64.8394C138.628 64.8394 137.4 69.367 134.465 69.1873C131.53 69.0077 134.06 62.2538 134.513 62.1215C136.324 61.9484 138.05 63.0938 138.628 64.8394Z" fill="#00A8FF"/>
<path d="M138.552 61.0557C138.591 60.9308 139.673 62.1208 139.673 62.1208C140.993 63.6875 140.836 66.026 139.269 67.346C139.163 67.4224 139.056 67.4989 138.95 67.5753C138.892 67.5846 138.892 67.5846 138.844 67.6517L138.592 67.9296C138.543 67.9967 138.486 68.006 138.428 68.0153C138.282 68.2167 137.993 68.2632 137.792 68.1177C137.725 68.0692 137.648 67.9629 137.63 67.8473C137.404 66.816 137.805 65.6244 137.531 64.6603C137.351 64.2742 137.179 63.946 136.892 63.6363C136.064 63.6511 134.916 62.4126 134.791 62.3734C135.182 61.1241 138.179 60.582 138.552 61.0557Z" fill="black"/>
<path d="M137.016 65.5142C137.298 65.0537 137.8 64.8543 138.339 64.8861C139.137 65.0541 139.155 67.0084 137.74 67.0585C136.324 67.1085 137.016 65.5142 137.016 65.5142Z" fill="#00A8FF"/>
<path d="M132.801 59.9656C133.562 59.9023 135.522 60.6543 135.522 60.6543C135.809 60.9639 136.048 61.3406 136.122 61.8031C136.273 62.3719 136.309 62.9594 136.286 63.5561C134.584 63.2965 134.002 62.2633 133.927 61.8008C133.778 60.8758 133.484 60.1522 132.801 59.9656Z" fill="#FFD357"/>
<path d="M135.522 60.6541C135.522 60.6541 137.561 59.3175 139.576 60.4163C141.333 61.3789 141.051 63.6782 140.776 64.5527C139.206 64.7464 137.658 64.3432 136.344 63.5467C136.277 63.4982 136.279 61.3033 135.522 60.6541Z" fill="#FFC32E"/>
<path d="M138.866 60.0561C138.887 59.8156 139.157 59.6534 139.398 59.674C139.638 59.6945 139.8 59.965 139.78 60.2055C139.759 60.4461 139.547 60.5989 139.306 60.5784C139.065 60.5578 138.845 60.2967 138.866 60.0561Z" fill="#FFD357"/>
<path d="M144.8 75.1737C138.338 70.4021 127.129 85.1376 123.864 92.4844C120.599 99.8312 130.486 103.399 132.476 102.129C134.466 100.86 149.767 78.7627 144.8 75.1737Z" fill="#FD88D0"/>
<path d="M104.489 97.0291C106.61 92.8914 125.203 90.4896 129.599 91.2644C133.994 92.0392 133.789 101.444 132.485 102.187C131.181 102.931 108.807 112.051 105.299 105.736C105.299 105.736 103.808 98.325 104.489 97.0291Z" fill="#FD88D0"/>
<path d="M139.831 110.968C139.831 110.968 139.36 116.145 139.833 117.611C140.306 119.077 142.731 119.398 142.731 119.398" stroke="#2A2B3B" stroke-width="0.5" stroke-linecap="round" stroke-linejoin="round"/>
<path d="M122.294 108.514C122.294 108.514 120.324 113.221 119.375 114.323C118.425 115.425 116.59 114.712 116.59 114.712" stroke="#2A2B3B" stroke-width="0.5" stroke-linecap="round" stroke-linejoin="round"/>
<path d="M114.5 169.853C114.5 169.853 125.113 167.254 130.766 161.48" stroke="#2A2B3B" stroke-width="0.5" stroke-linecap="round" stroke-linejoin="round"/>
<path d="M155.019 166.232C155.019 166.232 162.252 162.161 164.752 150.43" stroke="#2A2B3B" stroke-width="0.5" stroke-linecap="round" stroke-linejoin="round"/>
<path d="M118.992 106.792C123.61 105.633 128.114 104.137 132.485 102.187C132.649 102.101 132.746 101.967 132.834 101.775C134.983 99.6496 142.784 88.4286 145.096 81.0574" stroke="white" stroke-width="0.4" stroke-linecap="round" stroke-linejoin="round"/>
<path d="M135.567 77.1357C131.1 80.7022 126.696 86.8683 124.439 91.2652C119.392 91.6035 112.349 92.7974 108.065 94.5551" stroke="white" stroke-width="0.4" stroke-linecap="round" stroke-linejoin="round"/>
<path d="M126.698 75.8359C124.939 78.907 123.217 84.048 121.793 89.2002" stroke="white" stroke-width="0.4" stroke-linecap="round" stroke-linejoin="round"/>
<path d="M131.244 116.207C131.343 117.555 131.441 118.904 131.472 120.203C131.52 123.814 131.635 127.473 131.808 131.122" stroke="white" stroke-width="0.4" stroke-linecap="round" stroke-linejoin="round"/>
<path d="M109.395 53.4747C109.634 52.0127 110.958 51.0284 112.411 51.2095C113.143 47.6516 114.182 44.1627 115.539 40.8007C104.65 39.1145 93.8961 37.5253 83.2668 35.9753C81.4871 39.2868 79.9665 42.7346 78.7537 46.2515C80.0907 46.4513 80.8438 47.8128 80.4221 49.2449C80.0581 50.6677 78.7339 51.652 77.2327 51.538C75.6575 57.9602 75.3708 64.6493 76.3559 71.1335C88.5741 72.6055 100.831 73.9526 113.195 75.2232C111.389 69.1677 110.837 62.7917 111.545 56.5092C110.15 56.3187 109.108 55.0038 109.356 53.5996C109.347 53.5418 109.347 53.5418 109.395 53.4747Z" fill="#FFD357"/>
<path d="M82.4903 49.5642L107.27 53.1647" stroke="white" stroke-width="0.5" stroke-linecap="round" stroke-linejoin="round" stroke-dasharray="2 2"/>
<path d="M87.1888 44.1218L85.7939 43.9313L85.2511 44.6119L84.5108 44.4345C85.3539 43.4091 86.2549 42.3743 87.1558 41.3395L87.829 41.4683C87.8418 42.6524 87.8453 43.7788 87.9159 44.9537L87.1849 44.8342C87.2055 44.5936 87.1682 44.3624 87.1888 44.1218ZM87.1535 43.5344C87.1368 43.0626 87.1872 42.6393 87.1799 42.2253L86.1819 43.3943L87.1535 43.5344Z" fill="white"/>
<path d="M90.2696 44.0998C90.152 44.4747 89.9766 44.8588 89.8684 45.2914L89.1374 45.1719C89.2549 44.7971 89.421 44.3552 89.5386 43.9803C89.4175 43.2288 89.2871 42.4194 89.1661 41.6679L89.8971 41.7874C89.9809 42.3077 90.0647 42.828 90.1578 43.4061L91.5418 42.0562L92.215 42.1851C91.5957 42.7593 90.928 43.4007 90.2696 44.0998Z" fill="white"/>
<path d="M97.3617 42.8391C96.6435 43.9037 95.9253 44.9684 95.2071 46.0331L94.4762 45.9136C94.4707 45.1434 94.5231 44.3639 94.5755 43.5844C94.0998 44.3135 93.557 44.994 93.0813 45.7231L92.3503 45.6036C92.4046 44.4679 92.4496 43.2744 92.5617 42.1294L93.2927 42.2489C93.2404 43.0284 93.1395 43.875 93.0871 44.6545C93.6206 43.9162 94.1541 43.1778 94.6876 42.4394L95.3515 42.5104C95.3084 43.3477 95.1982 44.1365 95.213 44.9645C95.6886 44.2355 96.2221 43.4971 96.7463 42.7009L97.3617 42.8391Z" fill="white"/>
<path d="M99.4629 45.9405L98.9725 45.8416C98.8941 46.0914 98.8157 46.3413 98.728 46.5334L98.0548 46.4046C98.1332 46.1547 98.2116 45.9048 98.2993 45.7128L96.6545 45.4439L96.8113 44.9441C97.5368 44.2935 98.2717 43.7006 98.9973 43.0499L99.7283 43.1694L97.7064 44.9779L98.4952 45.0881L98.6911 44.4634L99.3643 44.5922L99.1684 45.2169L99.6588 45.3158L99.4629 45.9405Z" fill="white"/>
<path d="M102.81 46.469L102.32 46.3701C102.241 46.62 102.163 46.8698 102.133 47.0526L101.402 46.9331C101.48 46.6832 101.559 46.4333 101.589 46.2506L99.944 45.9817L100.101 45.482C100.826 44.8313 101.561 44.2384 102.287 43.5877L103.018 43.7073C102.341 44.2908 101.673 44.9322 100.996 45.5157L101.842 45.6166C101.93 45.4245 101.951 45.184 102.038 44.9919L102.702 45.0629C102.615 45.255 102.594 45.4955 102.506 45.6876L102.997 45.7865C102.976 46.0271 102.888 46.2192 102.81 46.469Z" fill="white"/>
<path d="M105.326 44.0471C104.916 45.1809 104.611 46.2382 104.259 47.3626L103.528 47.2431C103.793 46.3107 104.067 45.4362 104.399 44.5523L103.793 44.472C103.881 44.2799 103.901 44.0394 103.989 43.8473L105.326 44.0471Z" fill="white"/>
<path d="M108.149 47.2105L107.659 47.1116C107.58 47.3615 107.56 47.602 107.472 47.7941L106.799 47.6653C106.877 47.4154 106.898 47.1748 106.985 46.9828L105.341 46.7139C105.37 46.5312 105.467 46.3969 105.497 46.2142L107.626 44.3292L108.357 44.4487L106.392 46.2479L107.181 46.3581L107.377 45.7334L108.041 45.8044C107.953 45.9965 107.933 46.237 107.845 46.4291L108.336 46.528C108.267 46.8357 108.179 47.0278 108.149 47.2105Z" fill="white"/>
<path d="M94.2315 66.1188L90.3243 67.6378C90.457 66.2523 90.5897 64.8667 90.838 63.4626C89.6988 62.2819 88.6175 61.0919 87.6032 59.9504L92.1087 59.9364C92.8568 58.689 93.6048 57.4416 94.4107 56.1848C94.884 57.6507 95.473 59.0979 96.1105 60.4781L100.58 61.7154C99.478 62.6047 98.4335 63.4847 97.389 64.3646C97.7468 65.8491 98.0952 67.2758 98.5592 68.6839C97.0526 67.7996 95.6131 66.9639 94.2315 66.1188Z" fill="white"/>
<path d="M137.636 17.0752C136.995 16.4075 137.001 15.3389 137.669 14.6976C137.766 14.5633 137.93 14.4776 138.094 14.3918C136.14 12.5713 133.983 10.9615 131.65 9.73585C123.507 14.7842 115.993 19.316 108.991 23.3501C111.072 24.8536 112.91 26.6927 114.478 28.694C115.463 28.1795 116.703 28.5136 117.382 29.4126C117.984 30.2052 117.881 31.408 117.031 32.0195C116.982 32.0867 116.924 32.096 116.866 32.1053C119.899 37.3107 121.938 42.9728 122.782 48.946C130.712 44.0506 139.137 38.5417 147.998 32.4287C146.815 26.9253 144.446 21.7909 140.956 17.4302C139.825 18.1461 138.488 17.9463 137.636 17.0752Z" fill="#00A8FF"/>
<path d="M118.734 28.6015C124.268 25.397 130.053 21.9146 136.081 18.0967" stroke="white" stroke-width="0.5" stroke-linecap="round" stroke-linejoin="round" stroke-dasharray="2 2"/>
<path d="M116.891 22.3147C117.514 22.8668 118.136 23.4189 118.711 24.0382L118.334 24.2768C117.651 24.0902 116.92 23.9707 116.238 23.7841C116.592 24.1422 116.946 24.5003 117.301 24.8584L116.76 25.1828C116.186 24.5635 115.621 24.0021 114.998 23.45L115.375 23.2114C116.106 23.3309 116.788 23.5175 117.519 23.637C117.165 23.2789 116.811 22.9208 116.408 22.6298L116.891 22.3147Z" fill="white"/>
<path d="M117.596 21.9046L118.513 21.3416C118.726 21.1887 118.957 21.1515 119.246 21.1049C119.478 21.0677 119.718 21.0882 119.968 21.1666C120.218 21.245 120.41 21.3327 120.621 21.536C120.764 21.6908 120.908 21.8456 120.945 22.0768C120.973 22.2503 120.943 22.433 120.855 22.6251C120.71 22.8265 120.555 22.97 120.333 23.0651L119.358 23.6374C118.783 23.0181 118.219 22.4567 117.596 21.9046ZM119.979 22.707C120.143 22.6212 120.298 22.4776 120.328 22.2949C120.358 22.1122 120.262 21.8902 120.128 21.7932C119.927 21.6477 119.735 21.56 119.494 21.5395C119.254 21.5189 119.022 21.5562 118.868 21.6997L118.375 21.957C118.787 22.3058 119.142 22.6639 119.496 23.022L119.979 22.707Z" fill="white"/>
<path d="M124.6 20.8356C124.619 20.9513 124.58 21.0762 124.531 21.1433C124.492 21.2683 124.386 21.3447 124.28 21.4211C124.115 21.5069 123.951 21.5926 123.769 21.5628C123.537 21.6 123.297 21.5794 123.047 21.5011C122.825 21.5961 122.594 21.6334 122.362 21.6706C122.131 21.7079 121.881 21.6295 121.689 21.5418C121.497 21.4541 121.305 21.3664 121.104 21.2209C120.96 21.0661 120.817 20.9113 120.779 20.6801C120.752 20.5066 120.781 20.3239 120.811 20.1411C120.899 19.9491 121.112 19.7962 121.276 19.7105C121.488 19.5576 121.72 19.5203 122.009 19.4738C122.24 19.4365 122.538 19.4478 122.788 19.5261C123.038 19.6045 123.23 19.6922 123.441 19.8955C123.642 20.041 123.795 20.2536 123.842 20.5427C123.879 20.7739 123.8 21.0238 123.588 21.1767C123.646 21.1674 123.771 21.2066 123.828 21.1973C123.886 21.1879 123.944 21.1786 123.992 21.1115C124.099 21.0351 124.196 20.9008 124.235 20.7759L124.6 20.8356ZM121.932 21.2062C122.057 21.2454 122.239 21.2753 122.355 21.2566C122.529 21.2287 122.644 21.2101 122.75 21.1336C122.857 21.0572 122.963 20.9808 123.002 20.8558C123.041 20.7309 123.081 20.6059 123.004 20.4996C122.986 20.384 122.909 20.2777 122.775 20.1807C122.641 20.0837 122.506 19.9867 122.381 19.9475C122.257 19.9083 122.074 19.8785 121.9 19.9064C121.727 19.9343 121.611 19.953 121.505 20.0294C121.399 20.1058 121.292 20.1823 121.253 20.3072C121.214 20.4321 121.166 20.4993 121.242 20.6056C121.261 20.7212 121.337 20.8275 121.471 20.9245C121.673 21.07 121.798 21.1092 121.932 21.2062Z" fill="white"/>
<path d="M126.363 18.891L125.986 19.1297C126.121 19.2267 126.264 19.3815 126.398 19.4785L125.915 19.7935L125.552 19.3776L124.364 20.1028L124.086 19.851C124.002 19.3307 123.967 18.7432 123.883 18.2229L124.424 17.8985C124.508 18.4188 124.591 18.9392 124.675 19.4595L125.216 19.1351L124.853 18.7192L125.336 18.4041C125.47 18.5011 125.546 18.6074 125.681 18.7044L126.057 18.4658L126.363 18.891Z" fill="white"/>
<path d="M128.788 17.3737L128.411 17.6123L128.823 17.9612L128.34 18.2762L127.928 17.9274L126.74 18.6526L126.462 18.4008C126.369 17.8226 126.343 17.293 126.259 16.7727L126.8 16.4483C126.884 16.9687 126.967 17.489 127.051 18.0093L127.65 17.6756L127.305 17.3753L127.788 17.0602L128.133 17.3605L128.51 17.1219C128.519 17.1797 128.653 17.2767 128.788 17.3737Z" fill="white"/>
<path d="M128.356 15.4264C129.027 15.9114 129.707 16.4542 130.33 17.0064L129.847 17.3214C129.359 16.8663 128.812 16.4205 128.266 15.9747L127.831 16.2226L127.486 15.9223L128.356 15.4264Z" fill="white"/>
<path d="M130.732 13.9762L131.009 14.228C131.285 14.836 131.561 15.444 131.846 16.1098L131.305 16.4342C131.03 15.8262 130.754 15.2182 130.487 14.668L129.734 15.1452C129.868 15.2422 129.935 15.2907 130.069 15.3877L129.692 15.6263C129.482 15.423 129.213 15.229 129.012 15.0835L130.732 13.9762Z" fill="white"/>
<path d="M133.351 35.0253L131.088 38.6519C130.913 37.1973 130.632 35.8192 130.36 34.4988C129.284 34.079 128.159 33.7263 127.084 33.3065L129.907 30.9536C129.876 29.6538 129.787 28.3634 129.649 27.14C130.704 27.8004 131.711 28.5279 132.718 29.2554L136.153 27.753C135.762 29.0024 135.388 30.3674 134.948 31.6838C135.597 32.7656 136.255 33.9051 136.797 35.0633L133.351 35.0253Z" fill="white"/>
<path d="M125.139 148.27C125.139 148.27 123.499 145.45 122.253 144.345" stroke="white" stroke-width="0.5" stroke-linecap="round" stroke-linejoin="round"/>
</g>
<g clip-path="url(#clip1)">
<path d="M226.235 75.1304H172.027C165.539 75.1304 160.278 80.2028 160.278 86.46V198.895C160.278 205.152 165.539 210.225 172.027 210.225H226.235C232.724 210.225 237.984 205.152 237.984 198.895V86.46C237.984 80.2028 232.724 75.1304 226.235 75.1304Z" fill="#2A2B3C"/>
<path d="M226.581 80.4119H171.682C168.03 80.4119 165.07 83.2664 165.07 86.7875V191.397C165.07 194.919 168.03 197.773 171.682 197.773H226.581C230.232 197.773 233.192 194.919 233.192 191.397V86.7875C233.192 83.2664 230.232 80.4119 226.581 80.4119Z" fill="#F2F2F3"/>
<path d="M208.45 76.0244H189.818C188.358 76.0244 187.175 77.1657 187.175 78.5736V81.8503C187.175 83.2581 188.358 84.3994 189.818 84.3994H208.45C209.91 84.3994 211.094 83.2581 211.094 81.8503V78.5736C211.094 77.1657 209.91 76.0244 208.45 76.0244Z" fill="#2A2B3C"/>
<path d="M226.414 101.316H171.849C170.608 101.316 169.603 102.286 169.603 103.482V112.64C169.603 113.836 170.608 114.806 171.849 114.806H226.414C227.654 114.806 228.66 113.836 228.66 112.64V103.482C228.66 102.286 227.654 101.316 226.414 101.316Z" fill="white"/>
<path d="M180.816 103.188H172.293C171.857 103.188 171.504 103.528 171.504 103.949V112.168C171.504 112.588 171.857 112.929 172.293 112.929H180.816C181.252 112.929 181.606 112.588 181.606 112.168V103.949C181.606 103.528 181.252 103.188 180.816 103.188Z" fill="#00A8FF"/>
<path d="M216.853 107.686H184.992C184.737 107.686 184.484 107.638 184.248 107.543C184.012 107.449 183.798 107.311 183.617 107.136C183.437 106.962 183.294 106.755 183.197 106.527C183.1 106.299 183.05 106.055 183.051 105.809C183.051 105.313 183.256 104.837 183.62 104.486C183.984 104.135 184.477 103.938 184.992 103.938H216.853C217.108 103.938 217.36 103.986 217.596 104.08C217.831 104.174 218.045 104.312 218.226 104.486C218.406 104.659 218.549 104.866 218.646 105.093C218.744 105.32 218.794 105.563 218.794 105.809C218.795 106.055 218.745 106.299 218.648 106.527C218.551 106.755 218.408 106.962 218.228 107.136C218.047 107.311 217.833 107.449 217.597 107.543C217.361 107.638 217.108 107.686 216.853 107.686Z" fill="#CACACE"/>
<path d="M206.169 111.429H184.214C183.909 111.429 183.616 111.312 183.4 111.104C183.184 110.896 183.063 110.613 183.063 110.319C183.063 110.024 183.184 109.742 183.4 109.533C183.616 109.325 183.909 109.208 184.214 109.208H206.169C206.475 109.208 206.768 109.325 206.984 109.533C207.2 109.742 207.321 110.024 207.321 110.319C207.321 110.613 207.2 110.896 206.984 111.104C206.768 111.312 206.475 111.429 206.169 111.429Z" fill="#CACACE"/>
<path d="M226.414 117.044H171.849C170.608 117.044 169.603 118.014 169.603 119.21V128.368C169.603 129.565 170.608 130.534 171.849 130.534H226.414C227.654 130.534 228.66 129.565 228.66 128.368V119.21C228.66 118.014 227.654 117.044 226.414 117.044Z" fill="white"/>
<path d="M180.816 118.921H172.293C171.857 118.921 171.504 119.262 171.504 119.682V127.902C171.504 128.322 171.857 128.663 172.293 128.663H180.816C181.252 128.663 181.606 128.322 181.606 127.902V119.682C181.606 119.262 181.252 118.921 180.816 118.921Z" fill="#EA3E72"/>
<path d="M204.799 119.66H184.618C183.752 119.66 183.051 120.336 183.051 121.171V121.898C183.051 122.733 183.752 123.409 184.618 123.409H204.799C205.664 123.409 206.365 122.733 206.365 121.898V121.171C206.365 120.336 205.664 119.66 204.799 119.66Z" fill="#CACACE"/>
<path d="M197.657 124.914H183.984C183.469 124.914 183.051 125.317 183.051 125.814V126.264C183.051 126.761 183.469 127.163 183.984 127.163H197.657C198.172 127.163 198.59 126.761 198.59 126.264V125.814C198.59 125.317 198.172 124.914 197.657 124.914Z" fill="#CACACE"/>
<path d="M226.414 132.778H171.849C170.608 132.778 169.603 133.748 169.603 134.944V144.102C169.603 145.298 170.608 146.268 171.849 146.268H226.414C227.654 146.268 228.66 145.298 228.66 144.102V134.944C228.66 133.748 227.654 132.778 226.414 132.778Z" fill="white"/>
<path d="M180.816 134.655H172.293C171.857 134.655 171.504 134.996 171.504 135.416V143.635C171.504 144.056 171.857 144.396 172.293 144.396H180.816C181.252 144.396 181.606 144.056 181.606 143.635V135.416C181.606 134.996 181.252 134.655 180.816 134.655Z" fill="#00A8FF"/>
<path d="M216.853 139.148H184.992C184.477 139.148 183.984 138.951 183.62 138.6C183.256 138.249 183.051 137.773 183.051 137.277C183.05 137.03 183.1 136.786 183.197 136.559C183.294 136.331 183.437 136.124 183.617 135.95C183.798 135.775 184.012 135.637 184.248 135.542C184.484 135.448 184.737 135.399 184.992 135.399H216.853C217.108 135.399 217.361 135.448 217.597 135.542C217.833 135.637 218.047 135.775 218.228 135.95C218.408 136.124 218.551 136.331 218.648 136.559C218.745 136.786 218.795 137.03 218.794 137.277C218.794 137.522 218.744 137.766 218.646 137.993C218.549 138.22 218.406 138.426 218.226 138.6C218.045 138.774 217.831 138.912 217.596 139.006C217.36 139.1 217.108 139.148 216.853 139.148Z" fill="#CACACE"/>
<path d="M206.169 142.886H184.214C183.909 142.886 183.616 142.769 183.4 142.56C183.184 142.352 183.063 142.07 183.063 141.775C183.063 141.48 183.184 141.198 183.4 140.99C183.616 140.781 183.909 140.664 184.214 140.664H206.169C206.475 140.664 206.768 140.781 206.984 140.99C207.2 141.198 207.321 141.48 207.321 141.775C207.321 142.07 207.2 142.352 206.984 142.56C206.768 142.769 206.475 142.886 206.169 142.886Z" fill="#CACACE"/>
<path d="M226.414 148.512H171.849C170.608 148.512 169.603 149.481 169.603 150.678V159.836C169.603 161.032 170.608 162.002 171.849 162.002H226.414C227.654 162.002 228.66 161.032 228.66 159.836V150.678C228.66 149.481 227.654 148.512 226.414 148.512Z" fill="white"/>
<path d="M180.816 150.383H172.293C171.857 150.383 171.504 150.724 171.504 151.144V159.364C171.504 159.784 171.857 160.125 172.293 160.125H180.816C181.252 160.125 181.606 159.784 181.606 159.364V151.144C181.606 150.724 181.252 150.383 180.816 150.383Z" fill="#FFC32E"/>
<path d="M219.957 154.882H184.992C184.477 154.882 183.984 154.685 183.62 154.334C183.256 153.983 183.051 153.507 183.051 153.01C183.05 152.764 183.1 152.52 183.197 152.292C183.294 152.065 183.437 151.858 183.617 151.683C183.798 151.509 184.012 151.37 184.248 151.276C184.484 151.182 184.737 151.133 184.992 151.133H219.957C220.474 151.133 220.969 151.331 221.334 151.683C221.699 152.035 221.904 152.512 221.904 153.01C221.904 153.256 221.854 153.5 221.756 153.728C221.658 153.955 221.514 154.162 221.334 154.336C221.153 154.509 220.938 154.647 220.702 154.741C220.466 154.835 220.213 154.883 219.957 154.882Z" fill="#CACACE"/>
<path d="M206.169 158.625H184.214C183.909 158.625 183.616 158.508 183.4 158.3C183.184 158.091 183.063 157.809 183.063 157.514C183.063 157.22 183.184 156.937 183.4 156.729C183.616 156.521 183.909 156.404 184.214 156.404H206.169C206.475 156.404 206.768 156.521 206.984 156.729C207.2 156.937 207.321 157.22 207.321 157.514C207.321 157.809 207.2 158.091 206.984 158.3C206.768 158.508 206.475 158.625 206.169 158.625Z" fill="#CACACE"/>
<path d="M226.414 164.245H171.849C170.608 164.245 169.603 165.215 169.603 166.411V175.569C169.603 176.766 170.608 177.735 171.849 177.735H226.414C227.654 177.735 228.66 176.766 228.66 175.569V166.411C228.66 165.215 227.654 164.245 226.414 164.245Z" fill="white"/>
<path d="M180.816 166.117H172.293C171.857 166.117 171.504 166.458 171.504 166.878V175.097C171.504 175.518 171.857 175.858 172.293 175.858H180.816C181.252 175.858 181.606 175.518 181.606 175.097V166.878C181.606 166.458 181.252 166.117 180.816 166.117Z" fill="#EA3E72"/>
<path d="M216.853 170.615H184.992C184.737 170.615 184.484 170.567 184.248 170.472C184.012 170.378 183.798 170.24 183.617 170.065C183.437 169.891 183.294 169.684 183.197 169.456C183.1 169.229 183.05 168.985 183.051 168.738C183.051 168.242 183.256 167.766 183.62 167.415C183.984 167.064 184.477 166.867 184.992 166.867H216.853C217.108 166.867 217.36 166.915 217.596 167.009C217.831 167.103 218.045 167.241 218.226 167.415C218.406 167.589 218.549 167.795 218.646 168.022C218.744 168.249 218.794 168.493 218.794 168.738C218.795 168.985 218.745 169.229 218.648 169.456C218.551 169.684 218.408 169.891 218.228 170.065C218.047 170.24 217.833 170.378 217.597 170.472C217.361 170.567 217.108 170.615 216.853 170.615Z" fill="#CACACE"/>
<path d="M206.169 174.359H184.214C183.909 174.359 183.616 174.242 183.4 174.033C183.184 173.825 183.063 173.543 183.063 173.248C183.063 172.953 183.184 172.671 183.4 172.463C183.616 172.254 183.909 172.137 184.214 172.137H206.169C206.475 172.137 206.768 172.254 206.984 172.463C207.2 172.671 207.321 172.953 207.321 173.248C207.321 173.543 207.2 173.825 206.984 174.033C206.768 174.242 206.475 174.359 206.169 174.359Z" fill="#CACACE"/>
<path d="M226.414 179.979H171.849C170.608 179.979 169.603 180.949 169.603 182.145V191.303C169.603 192.499 170.608 193.469 171.849 193.469H226.414C227.654 193.469 228.66 192.499 228.66 191.303V182.145C228.66 180.949 227.654 179.979 226.414 179.979Z" fill="white"/>
<path d="M180.816 181.851H172.293C171.857 181.851 171.504 182.191 171.504 182.611V190.831C171.504 191.251 171.857 191.592 172.293 191.592H180.816C181.252 191.592 181.606 191.251 181.606 190.831V182.611C181.606 182.191 181.252 181.851 180.816 181.851Z" fill="#48DB84"/>
<path d="M213.081 182.6H184.883C183.871 182.6 183.051 183.391 183.051 184.366V184.583C183.051 185.558 183.871 186.349 184.883 186.349H213.081C214.092 186.349 214.912 185.558 214.912 184.583V184.366C214.912 183.391 214.092 182.6 213.081 182.6Z" fill="#CACACE"/>
<path d="M206.169 190.092H184.214C183.909 190.092 183.616 189.975 183.4 189.767C183.184 189.559 183.063 189.276 183.063 188.982C183.063 188.687 183.184 188.404 183.4 188.196C183.616 187.988 183.909 187.871 184.214 187.871H206.169C206.475 187.871 206.768 187.988 206.984 188.196C207.2 188.404 207.321 188.687 207.321 188.982C207.321 189.276 207.2 189.559 206.984 189.767C206.768 189.975 206.475 190.092 206.169 190.092Z" fill="#CACACE"/>
<path d="M225.101 96.7898C225.693 96.7869 226.267 96.5912 226.73 96.2344L228.188 97.6451L228.66 97.1897L227.197 95.779C227.566 95.3341 227.769 94.7825 227.773 94.2129C227.771 93.7064 227.613 93.2118 227.32 92.7916C227.026 92.3714 226.611 92.0442 226.125 91.8514C225.639 91.6586 225.105 91.6087 224.59 91.7081C224.075 91.8074 223.602 92.0515 223.231 92.4097C222.859 92.7679 222.606 93.224 222.503 93.7207C222.4 94.2174 222.452 94.7324 222.652 95.2008C222.852 95.6692 223.191 96.07 223.627 96.3528C224.062 96.6356 224.575 96.7876 225.101 96.7898ZM225.101 92.308C225.495 92.308 225.88 92.4207 226.208 92.6318C226.535 92.843 226.791 93.1431 226.942 93.4942C227.092 93.8453 227.132 94.2317 227.055 94.6044C226.978 94.9772 226.788 95.3196 226.51 95.5883C226.231 95.8571 225.876 96.0401 225.489 96.1142C225.103 96.1884 224.702 96.1503 224.338 96.0049C223.974 95.8594 223.663 95.6131 223.444 95.2971C223.225 94.9811 223.108 94.6096 223.108 94.2296C223.107 93.9767 223.158 93.7263 223.258 93.4925C223.358 93.2587 223.504 93.0462 223.689 92.8672C223.875 92.6882 224.094 92.5461 224.337 92.4492C224.579 92.3523 224.838 92.3024 225.101 92.3024V92.308Z" fill="#48DB84"/>
<path d="M185.729 94.2074C185.715 94.6568 185.568 95.093 185.306 95.4649C185.044 95.8369 184.677 96.1294 184.249 96.3082C183.822 96.4871 183.35 96.545 182.889 96.4752C182.429 96.4054 181.998 96.2107 181.648 95.9139C181.298 95.617 181.042 95.2303 180.911 94.7988C180.78 94.3672 180.779 93.9086 180.908 93.4765C181.037 93.0444 181.291 92.6566 181.639 92.3582C181.988 92.0599 182.418 91.8634 182.878 91.7915C183.265 91.7343 183.66 91.7686 184.03 91.8915C184.105 91.9193 184.14 91.8915 184.168 91.836C184.301 91.5083 184.445 91.1806 184.583 90.8529C184.62 90.756 184.683 90.6698 184.765 90.6027C184.846 90.5356 184.944 90.4899 185.05 90.4697C185.134 90.4531 185.222 90.455 185.306 90.4753C185.389 90.4956 185.467 90.5339 185.534 90.5872C185.6 90.6406 185.653 90.7076 185.689 90.7834C185.725 90.8592 185.743 90.9418 185.741 91.0251V91.6305L185.729 94.2074Z" fill="#48DB84"/>
<path d="M172.125 96.5567C172.079 96.7899 172.033 97.0121 171.999 97.2398C171.99 97.3415 171.959 97.4404 171.907 97.5295C171.856 97.6186 171.785 97.696 171.699 97.7563C171.621 97.8087 171.53 97.8416 171.436 97.8519C171.341 97.8623 171.245 97.8499 171.157 97.8158C171.068 97.7817 170.99 97.7269 170.929 97.6564C170.868 97.5859 170.826 97.5019 170.807 97.4119C170.582 96.5622 170.363 95.7069 170.121 94.8572C169.978 94.3942 169.984 93.9001 170.14 93.4409C170.296 92.9817 170.594 92.5793 170.993 92.2877C171.393 91.9961 171.875 91.8291 172.376 91.8092C172.877 91.7892 173.372 91.9172 173.795 92.176C174.218 92.4348 174.549 92.812 174.744 93.2572C174.938 93.7025 174.987 94.1944 174.884 94.6672C174.781 95.1401 174.53 95.5712 174.166 95.9029C173.802 96.2346 173.341 96.4511 172.845 96.5233C172.729 96.5427 172.612 96.5538 172.494 96.5567C172.373 96.5789 172.258 96.5678 172.125 96.5567Z" fill="#48DB84"/>
<path d="M180.338 94.2074C180.338 94.5181 180.275 94.8258 180.152 95.1128C180.028 95.3999 179.848 95.6607 179.62 95.8804C179.392 96.1001 179.121 96.2743 178.824 96.3932C178.526 96.5121 178.207 96.5733 177.885 96.5733C177.563 96.5733 177.244 96.5121 176.946 96.3932C176.648 96.2743 176.378 96.1001 176.15 95.8804C175.922 95.6607 175.741 95.3999 175.618 95.1128C175.495 94.8258 175.431 94.5181 175.431 94.2074C175.431 93.8967 175.495 93.5891 175.618 93.3021C175.741 93.015 175.922 92.7542 176.15 92.5345C176.378 92.3148 176.648 92.1405 176.946 92.0216C177.244 91.9027 177.563 91.8416 177.885 91.8416C178.207 91.8416 178.526 91.9027 178.824 92.0216C179.121 92.1405 179.392 92.3148 179.62 92.5345C179.848 92.7542 180.028 93.015 180.152 93.3021C180.275 93.5891 180.338 93.8967 180.338 94.2074Z" fill="#48DB84"/>
<path d="M186.294 94.4239V93.2799C186.285 93.0943 186.335 92.9106 186.438 92.7534C186.541 92.5963 186.691 92.4732 186.868 92.4006C187.046 92.3281 187.242 92.3096 187.431 92.3477C187.619 92.3857 187.791 92.4784 187.923 92.6134C188.017 92.6967 188.091 92.7983 188.14 92.9112C188.19 93.0242 188.214 93.1461 188.211 93.2687V95.6013C188.221 95.7926 188.168 95.9819 188.059 96.1426C187.951 96.3033 187.794 96.4273 187.609 96.4972C187.424 96.5671 187.221 96.5793 187.028 96.5322C186.836 96.485 186.663 96.3809 186.535 96.2344C186.377 96.0702 186.29 95.8534 186.294 95.6291V94.4239Z" fill="#48DB84"/>
<path d="M187.244 90.3365C187.493 90.335 187.733 90.4288 187.912 90.5974C188.09 90.7659 188.191 90.9956 188.194 91.2362C188.197 91.3565 188.174 91.4761 188.129 91.5881C188.083 91.7002 188.015 91.8024 187.928 91.889C187.753 92.064 187.513 92.1648 187.261 92.1692C187.136 92.1714 187.012 92.1499 186.896 92.1058C186.78 92.0618 186.674 91.9962 186.584 91.9126C186.403 91.7439 186.298 91.5126 186.294 91.2695C186.29 91.1474 186.312 91.0258 186.358 90.912C186.404 90.7982 186.473 90.6945 186.562 90.6074C186.651 90.5202 186.757 90.4512 186.874 90.4047C186.992 90.3581 187.117 90.3349 187.244 90.3365Z" fill="#48DB84"/>
<path d="M171.037 98.5893C171.035 98.5378 171.044 98.4865 171.064 98.4384C171.083 98.3903 171.112 98.3464 171.149 98.3092C171.186 98.272 171.23 98.2422 171.279 98.2217C171.328 98.2011 171.381 98.1902 171.434 98.1895C171.541 98.1906 171.644 98.2307 171.722 98.3017C171.8 98.3728 171.847 98.4695 171.855 98.5727C171.855 98.6256 171.845 98.6782 171.825 98.7274C171.804 98.7765 171.774 98.8213 171.735 98.859C171.697 98.8967 171.651 98.9267 171.6 98.9471C171.549 98.9676 171.495 98.9781 171.44 98.9781C171.333 98.9781 171.231 98.9371 171.155 98.8642C171.079 98.7913 171.037 98.6924 171.037 98.5893Z" fill="#48DB84"/>
<path d="M208.508 108.23L200.018 101.838C199.91 101.75 199.838 101.627 199.818 101.492C199.798 101.356 199.83 101.219 199.909 101.105C199.992 101 200.112 100.927 200.246 100.9C200.38 100.873 200.52 100.892 200.64 100.955L202.483 102.066L200.323 100.344C200.235 100.274 200.177 100.175 200.162 100.065C200.147 99.9558 200.176 99.845 200.243 99.7555C200.31 99.6621 200.413 99.5973 200.529 99.5746C200.644 99.5519 200.765 99.5729 200.865 99.6333L203.169 101.122L201.066 99.3889C200.96 99.2927 200.896 99.1612 200.886 99.0211C200.877 98.8809 200.923 98.7425 201.015 98.6336C201.105 98.5369 201.228 98.4739 201.361 98.4556C201.495 98.4374 201.631 98.465 201.746 98.5336L204.401 100.2L202.742 98.7447C202.683 98.6897 202.636 98.6238 202.603 98.5508C202.571 98.4777 202.555 98.3992 202.555 98.3198C202.555 98.2404 202.571 98.1619 202.603 98.0889C202.636 98.0159 202.683 97.9499 202.742 97.895C202.84 97.7926 202.975 97.7295 203.119 97.7181C203.263 97.7068 203.406 97.7481 203.52 97.8339L211.906 104.043L208.508 108.23Z" fill="#FD88D0"/>
<path d="M204.395 100.194L205.674 101.038" stroke="#B74190" stroke-width="0.5" stroke-linecap="round" stroke-linejoin="round"/>
<path d="M203.186 101.122L204.678 102.144" stroke="#B74190" stroke-width="0.5" stroke-linecap="round" stroke-linejoin="round"/>
<path d="M202.478 102.094L203.86 102.993" stroke="#B74190" stroke-width="0.5" stroke-linecap="round" stroke-linejoin="round"/>
<path d="M206.878 103.16L204.741 103.677" stroke="#B74190" stroke-width="0.5" stroke-linecap="round" stroke-linejoin="round"/>
<path d="M212.81 102.966L209.982 100.616L207.955 98.3448C207.841 98.217 207.681 98.1347 207.507 98.1142C207.334 98.0936 207.159 98.1363 207.016 98.2338C206.94 98.2848 206.876 98.3497 206.826 98.4248C206.776 98.4998 206.743 98.5836 206.726 98.6713C206.71 98.759 206.712 98.8488 206.732 98.9358C206.752 99.0227 206.79 99.105 206.843 99.1779L207.937 101.233L207.857 101.71C207.772 102.182 207.829 102.666 208.02 103.108C208.21 103.55 208.527 103.93 208.934 104.204L210.736 105.426L212.81 102.966Z" fill="#FD88D0"/>
<path d="M208.934 104.21C208.528 103.935 208.211 103.555 208.02 103.114C207.829 102.672 207.773 102.187 207.857 101.716L207.938 101.238L207.644 100.683" stroke="#B74190" stroke-width="0.5" stroke-linecap="round" stroke-linejoin="round"/>
<path d="M212.81 101.633L207.125 108.23L223.43 120.238C224.062 120.709 224.838 120.964 225.636 120.964C226.434 120.964 227.21 120.709 227.842 120.238L246.767 105.903C246.767 105.903 246.047 101.399 245.466 96.3955C238.105 96.501 225.308 108.969 225.308 108.969L212.81 101.633Z" fill="#FFD357"/>
<path d="M266.77 209.289L276.338 207.798L277.167 212.746L262.479 215.035C262.26 213.725 262.588 212.384 263.393 211.307C264.197 210.229 265.412 209.504 266.77 209.289Z" fill="#FFD357"/>
<path d="M277.16 212.732L262.472 215.021L262.636 216L277.324 213.711L277.16 212.732Z" fill="#EBAF07"/>
<path d="M276.06 206.139L267.19 207.514L267.965 212.164L276.835 210.789L276.06 206.139Z" fill="#FFD357"/>
<path d="M267.363 208.559L270.197 208.12" stroke="white" stroke-width="0.5" stroke-linecap="round" stroke-linejoin="round"/>
<path d="M267.542 209.625L270.375 209.186" stroke="white" stroke-width="0.5" stroke-linecap="round" stroke-linejoin="round"/>
<path d="M230.731 207.211L240.262 208.755L239.402 213.685L224.771 211.314C224.999 210.008 225.754 208.843 226.871 208.074C227.989 207.305 229.377 206.994 230.731 207.211Z" fill="#FFD357"/>
<path d="M239.407 213.675L224.776 211.304L224.606 212.279L239.237 214.65L239.407 213.675Z" fill="#EBAF07"/>
<path d="M240.501 207.375L232.089 206.012L231.28 210.656L239.691 212.019L240.501 207.375Z" fill="#FFD357"/>
<path d="M231.902 207.059L234.73 207.52" stroke="white" stroke-width="0.5" stroke-linecap="round" stroke-linejoin="round"/>
<path d="M231.718 208.125L234.546 208.586" stroke="white" stroke-width="0.5" stroke-linecap="round" stroke-linejoin="round"/>
<path d="M245.005 208.22L249.267 169.083L254.45 133.033L233.325 126.313L230.583 165.967L227.583 205.954L245.005 208.22Z" fill="#009EF0"/>
<path d="M261.391 208.653L280.725 205.643L269.534 162.529L267.277 129.113L241.544 129.501L249.929 165.278L261.391 208.653Z" fill="#00A8FF"/>
<path d="M269.166 132.939C269.166 132.939 264.742 102.86 255.343 97.6175C249.296 94.2464 240.76 96.3679 238.215 101.166C233.728 109.608 231.781 134.044 231.781 134.044C231.781 134.044 253.512 137.293 269.166 132.939Z" fill="white"/>
<path d="M245.235 91.736C245.235 91.736 245.345 95.5903 245.466 96.3678C245.5 96.6066 249.186 96.4345 249.664 95.9735C249.231 94.6014 249.036 93.1695 249.088 91.736C249.106 89.9866 245.235 91.736 245.235 91.736Z" fill="#FD88D0"/>
<path d="M249.595 89.3257C249.595 89.3257 248.754 94.0297 245.679 94.1186C242.603 94.2075 244.527 87.7152 244.988 87.5374C245.448 87.3597 248.455 86.7266 249.595 89.3257Z" fill="#FD88D0"/>
<path d="M245.84 85.2438C246.25 85.0342 246.72 84.9638 247.176 85.0439C247.752 85.1494 248.092 85.5604 248.639 85.5993C249.86 85.7214 250.454 86.4823 250.321 87.482C250.354 87.5095 250.383 87.5413 250.407 87.5764C250.857 88.3095 251.145 89.0759 250.695 89.7979C251.185 90.642 250.442 91.7472 249.878 92.4359C249.837 92.4891 249.781 92.5297 249.716 92.5525C249.671 92.6259 249.605 92.6854 249.526 92.7243C249.447 92.7631 249.358 92.7797 249.27 92.7722C249.181 92.7646 249.097 92.7333 249.026 92.6817C248.955 92.63 248.901 92.5603 248.87 92.4803C248.507 91.4473 248.824 90.2089 248.42 89.2592C248.16 88.8161 247.847 88.4042 247.487 88.0318C247.264 88.1038 247.026 88.1253 246.792 88.0944C246.558 88.0636 246.335 87.9814 246.14 87.8541C245.126 88.3706 243.456 88.1484 243.174 86.9322C242.793 85.3216 244.602 84.8273 245.84 85.2438Z" fill="black"/>
<path d="M248.006 90.1809C248.13 89.9479 248.32 89.7539 248.555 89.622C248.79 89.4902 249.059 89.4259 249.33 89.4367C250.183 89.5645 250.379 91.5194 248.933 91.6915C247.487 91.8637 248.006 90.1809 248.006 90.1809Z" fill="#FD88D0"/>
<path d="M243.968 91.9082C244.245 91.836 244.59 91.8026 244.74 91.6194C244.988 91.3084 245.414 91.3583 245.414 91.7027C245.731 92.1414 246.48 92.3636 246.727 92.0748C246.862 91.9744 246.984 91.8588 247.09 91.7304C247.309 91.4745 247.489 91.1904 247.626 90.8863C247.887 90.315 248.08 89.7169 248.202 89.1035C248.323 88.5482 249.192 88.787 249.071 89.3368C248.917 90.1568 248.634 90.9491 248.23 91.686C248.248 91.7535 248.248 91.824 248.23 91.8915C247.908 93.1911 247.32 94.0408 245.881 94.2574C245.348 94.3293 244.806 94.2193 244.349 93.9464C243.888 93.6298 243.865 92.1359 243.968 91.9082Z" fill="black"/>
<path d="M275.242 149.917H275.818V146.312C275.818 145.143 276.3 144.021 277.157 143.194C278.015 142.367 279.178 141.903 280.391 141.903C281.604 141.903 282.767 142.367 283.624 143.194C284.482 144.021 284.964 145.143 284.964 146.312V149.917H285.54V146.312C285.54 144.996 284.997 143.733 284.032 142.802C283.066 141.871 281.756 141.347 280.391 141.347C279.025 141.347 277.716 141.871 276.75 142.802C275.784 143.733 275.242 144.996 275.242 146.312V149.917Z" fill="black"/>
<path d="M269.027 171.76H293.419L289.934 147.867H272.506L269.027 171.76Z" fill="#FD88D0"/>
<path d="M266.701 171.76H291.098L287.613 147.867H270.185L266.701 171.76Z" fill="#FD88D0"/>
<path d="M282.954 149.917C282.954 149.751 283.005 149.589 283.1 149.451C283.196 149.313 283.332 149.205 283.491 149.142C283.65 149.078 283.824 149.062 283.993 149.094C284.162 149.127 284.317 149.206 284.438 149.324C284.56 149.441 284.643 149.59 284.676 149.753C284.71 149.916 284.693 150.084 284.627 150.238C284.561 150.391 284.45 150.522 284.307 150.614C284.164 150.706 283.995 150.755 283.823 150.755C283.593 150.754 283.373 150.665 283.21 150.508C283.047 150.351 282.955 150.139 282.954 149.917Z" fill="black"/>
<path d="M273.526 149.917C273.526 149.751 273.577 149.589 273.672 149.451C273.768 149.313 273.903 149.205 274.062 149.142C274.221 149.078 274.396 149.062 274.565 149.094C274.734 149.127 274.889 149.206 275.01 149.324C275.132 149.441 275.215 149.59 275.248 149.753C275.282 149.916 275.265 150.084 275.199 150.238C275.133 150.391 275.021 150.522 274.878 150.614C274.735 150.706 274.567 150.755 274.395 150.755C274.165 150.755 273.943 150.667 273.78 150.51C273.617 150.352 273.526 150.139 273.526 149.917Z" fill="black"/>
<path d="M273.814 149.917H274.389V146.312C274.432 145.171 274.931 144.089 275.784 143.296C276.636 142.502 277.775 142.059 278.96 142.059C280.144 142.059 281.283 142.502 282.135 143.296C282.988 144.089 283.488 145.171 283.53 146.312V149.917H284.106V146.312C284.061 145.023 283.499 143.802 282.537 142.905C281.576 142.009 280.291 141.508 278.954 141.508C277.617 141.508 276.332 142.009 275.37 142.905C274.409 143.802 273.847 145.023 273.802 146.312L273.814 149.917Z" fill="black"/>
<path d="M276.964 138.726V144.935C276.966 145.13 277.045 145.316 277.185 145.457C277.324 145.597 277.514 145.681 277.716 145.692C277.917 145.703 278.115 145.639 278.27 145.514C278.424 145.389 278.524 145.212 278.548 145.018C278.574 145.244 278.688 145.452 278.867 145.6C279.047 145.748 279.277 145.824 279.513 145.813C279.748 145.803 279.971 145.706 280.135 145.543C280.299 145.38 280.393 145.162 280.397 144.935C280.397 145.138 280.48 145.333 280.629 145.477C280.779 145.621 280.981 145.702 281.191 145.702C281.402 145.702 281.604 145.621 281.753 145.477C281.903 145.333 281.986 145.138 281.986 144.935C281.986 145.105 282.056 145.267 282.18 145.387C282.305 145.507 282.473 145.574 282.649 145.574C282.824 145.574 282.993 145.507 283.117 145.387C283.241 145.267 283.311 145.105 283.311 144.935V138.726H276.964Z" fill="#FD88D0"/>
<path d="M277.154 139.276L275.357 141.903L274.781 143.269C274.746 143.354 274.729 143.445 274.731 143.537C274.733 143.629 274.754 143.719 274.792 143.803C274.831 143.887 274.886 143.962 274.956 144.025C275.025 144.088 275.107 144.137 275.196 144.169C275.341 144.219 275.499 144.221 275.646 144.176C275.792 144.131 275.92 144.041 276.008 143.919L276.584 143.114L277.597 141.925L277.154 139.276Z" fill="#FD88D0"/>
<path d="M278.548 145.041V144.474" stroke="#B74190" stroke-width="0.5" stroke-linecap="round" stroke-linejoin="round"/>
<path d="M280.397 144.935V144.296" stroke="#B74190" stroke-width="0.5" stroke-linecap="round" stroke-linejoin="round"/>
<path d="M282.004 144.935V144.474" stroke="#B74190" stroke-width="0.5" stroke-linecap="round" stroke-linejoin="round"/>
<path d="M288.189 147.867L290.706 165.151" stroke="white" stroke-width="0.4" stroke-linecap="round" stroke-linejoin="round"/>
<path d="M275.207 139.826L284.958 138.532L279.665 115.867C279.084 113.368 277.648 111.13 275.587 109.514L268.273 103.777C262.874 99.5433 256.418 96.7511 249.549 95.6792L245.552 105.92C242.286 114.266 240.911 123.189 241.52 132.089L247.372 132.284C253.406 132.492 259.442 131.932 265.324 130.618L270.358 129.507L266.251 116.622L267.305 117.294L275.207 139.826Z" fill="#FFD357"/>
<path d="M255.89 109.997L267.3 117.294L270.064 117.755" stroke="white" stroke-width="0.4" stroke-linecap="round" stroke-linejoin="round"/>
<path d="M245.477 96.3179C245.477 96.3179 236.21 105.831 237.362 131.578L231.027 130.962C231.027 130.962 228.239 112.524 239.971 98.1117C241.695 97.2331 243.554 96.6274 245.477 96.3179Z" fill="#FFD357"/>
<path d="M230.894 121.87C231.378 115.939 233.071 107.986 238.071 100.65" stroke="white" stroke-width="0.4" stroke-linecap="round" stroke-linejoin="round"/>
<path d="M227.928 201.611L245.489 203.771" stroke="white" stroke-width="0.4" stroke-linecap="round" stroke-linejoin="round"/>
<path d="M260.319 204.599L279.677 201.611" stroke="white" stroke-width="0.4" stroke-linecap="round" stroke-linejoin="round"/>
</g>
<g clip-path="url(#clip2)">
<path d="M107.374 133.534L95.2574 124.906L100.396 119.45L111.181 129.918L107.374 133.534Z" fill="#FD88D0"/>
<path d="M24.5889 190.114L29.7242 196.404L45.5476 183.486L40.4122 177.195L24.5889 190.114Z" fill="#FD88D0"/>
<path d="M23.3157 191.138L32.2608 202.113C34.3543 200.4 34.6715 197.292 32.9587 195.198L27.1221 188.029L23.3157 191.138Z" fill="#FCCA57"/>
<path d="M22.5391 191.762L31.4858 202.72L32.223 202.118L23.2763 191.16L22.5391 191.762Z" fill="#333333"/>
<path d="M24.6087 190.092L29.744 196.382L33.3313 193.453L28.196 187.163L24.6087 190.092Z" fill="#FCCA57"/>
<path d="M32.5148 194.119L30.8019 191.962" stroke="black" stroke-width="0.5" stroke-miterlimit="10" stroke-linecap="round" stroke-linejoin="round"/>
<path d="M31.6898 194.754L29.977 192.66" stroke="black" stroke-width="0.5" stroke-miterlimit="10" stroke-linecap="round" stroke-linejoin="round"/>
<path d="M71.916 210.66L80.0363 210.66L80.0364 190.232L71.916 190.232L71.916 210.66Z" fill="#FD88D0"/>
<path d="M71.8476 212.327H85.9948C85.9948 209.599 83.7744 207.378 81.0465 207.378H71.8476V212.327Z" fill="#FCCA57"/>
<path d="M71.907 213.34L86.0542 213.34L86.0542 212.388L71.907 212.388L71.907 213.34Z" fill="#333333"/>
<path d="M71.9172 210.668L80.0376 210.668L80.0376 206.037L71.9172 206.037L71.9172 210.668Z" fill="#FCCA57"/>
<path d="M80.0315 207.061H77.3035" stroke="black" stroke-width="0.5" stroke-miterlimit="10" stroke-linecap="round" stroke-linejoin="round"/>
<path d="M80.0315 208.14H77.3035" stroke="black" stroke-width="0.5" stroke-miterlimit="10" stroke-linecap="round" stroke-linejoin="round"/>
<path d="M65.7575 93.1857C66.3919 90.7116 67.3435 87.032 68.8026 84.1138C70.5155 84.3041 71.2133 83.9234 72.9262 84.3675C72.7359 90.7116 75.0197 96.9922 75.9714 103.273C76.0348 103.463 75.9079 103.78 75.6541 103.844C73.8778 104.097 72.038 104.351 70.2617 104.605C70.008 104.668 69.6908 104.478 69.6908 104.161C69.6908 101.243 69.7542 98.3244 69.8811 95.3427C69.3101 98.1975 69.1198 101.116 68.9929 104.034C68.9929 104.351 68.7392 104.542 68.422 104.478C66.5822 104.097 64.679 104.415 64.3618 102.321C63.9177 99.276 65.0596 96.0406 65.7575 93.1857Z" fill="black"/>
<path d="M117.144 140.005H116.383V135.247C116.383 132.075 113.782 129.474 110.61 129.474C107.438 129.474 104.837 132.075 104.837 135.247V140.005H104.075V135.247C104.075 131.631 106.994 128.712 110.61 128.712C114.226 128.712 117.144 131.631 117.144 135.247V140.005Z" fill="#17171D"/>
<path d="M125.011 168.743H94.0519L98.4927 137.34H120.57L125.011 168.743Z" fill="#FD88D0"/>
<path d="M127.929 168.743H97.0337L101.411 137.34H123.552L127.929 168.743Z" fill="#FD88D0"/>
<path d="M107.311 140.005C107.311 139.37 106.803 138.926 106.232 138.926C105.598 138.926 105.154 139.434 105.154 140.005C105.154 140.639 105.661 141.083 106.232 141.083C106.867 141.147 107.311 140.639 107.311 140.005Z" fill="#17171D"/>
<path d="M119.301 140.005C119.301 139.37 118.794 138.926 118.223 138.926C117.588 138.926 117.144 139.434 117.144 140.005C117.144 140.639 117.652 141.083 118.223 141.083C118.794 141.147 119.301 140.639 119.301 140.005Z" fill="#17171D"/>
<path d="M118.921 140.005H118.159V135.247C118.159 132.075 115.558 129.474 112.386 129.474C109.214 129.474 106.613 132.075 106.613 135.247V140.005H105.852V135.247C105.852 131.631 108.77 128.712 112.386 128.712C116.002 128.712 118.921 131.631 118.921 135.247V140.005Z" fill="#17171D"/>
<path d="M61.6339 136.135C61.507 139.434 61.9511 143.811 62.6489 148.76C64.7424 163.731 61.507 201.732 71.4671 205.158C71.6574 205.221 80.4757 205.221 80.7929 205.095C93.2906 199.512 84.5993 174.009 84.2821 164.683C83.9014 153.073 84.6627 126.111 84.409 126.048C73.1166 128.332 62.2048 124.525 61.6339 136.135Z" fill="black"/>
<path d="M70.1982 94.4547C72.6724 92.488 86.4389 104.669 91.0701 111.837C99.698 125.35 88.2787 124.589 86.1217 123.383C83.9013 122.178 65.1864 98.5148 70.1982 94.4547Z" fill="#00A8FF"/>
<path d="M110.863 122.622C104.583 118.435 95.0668 115.834 91.0066 111.837C87.6443 108.538 82.8228 119.577 83.5841 120.973C84.3454 122.368 95.0034 131.631 102.68 133.47C102.743 133.47 112.132 123.447 110.863 122.622Z" fill="#00A8FF"/>
<path d="M64.4886 168.109C57.8908 167.919 51.9909 166.206 45.9641 163.541C47.8038 156.563 48.4382 148.569 49.5801 142.987C50.5952 138.102 51.6102 133.788 52.879 130.743C57.2564 119.958 62.4585 126.619 73.8144 128.332C74.9563 134.105 64.679 167.475 64.4886 168.109Z" fill="#212121"/>
<path d="M48.9457 159.862C53.0059 165 58.7155 164.873 64.4251 168.109C58.9693 176.102 44.378 195.832 34.735 192.851C34.4178 192.787 29.0254 185.936 28.962 185.682C27.4394 178.83 40.9522 168.426 48.9457 159.862Z" fill="#212121"/>
<path d="M60.1111 174.199C61.8875 171.915 63.3466 169.758 64.4885 168.109C64.6788 167.474 74.9562 134.105 73.8143 128.268" stroke="white" stroke-width="0.5" stroke-miterlimit="10" stroke-linecap="round" stroke-linejoin="round"/>
<path d="M50.0242 132.773C50.0242 132.773 55.3532 97.5632 63.2832 94.2643C69.7541 91.5364 75.7175 93.4396 76.9229 100.291C78.0014 106.572 81.3003 115.834 82.5691 119.006C83.7745 122.178 87.2637 127.888 87.2637 127.888C87.2637 127.888 66.0746 135.945 50.0242 132.773Z" fill="#00A8FF"/>
<path d="M63.9176 94.0105C66.8993 94.9621 66.0746 113.36 62.0779 120.846C58.0811 128.332 47.8038 127.697 47.6135 125.16C47.3597 122.686 57.7639 92.1073 63.9176 94.0105Z" fill="#00A8FF"/>
<path d="M81.4272 139.941H80.6659V135.183C80.6659 132.011 78.0648 129.41 74.8928 129.41C71.7208 129.41 69.1197 132.011 69.1197 135.183V139.941H68.3585V135.183C68.3585 131.567 71.2767 128.649 74.8928 128.649C78.5089 128.649 81.4272 131.567 81.4272 135.183V139.941Z" fill="#17171D"/>
<path d="M89.2939 163.097H58.335L62.7758 137.213H84.8531L89.2939 163.097Z" fill="#FFD357"/>
<path d="M92.2123 163.097H61.3168L65.6942 137.213H87.8349L92.2123 163.097Z" fill="#FFD357"/>
<path d="M71.594 139.941C71.594 139.307 71.0865 138.863 70.5156 138.863C69.8812 138.863 69.4371 139.37 69.4371 139.941C69.4371 140.576 69.9446 141.02 70.5156 141.02C71.15 141.02 71.594 140.512 71.594 139.941Z" fill="#17171D"/>
<path d="M83.5842 139.941C83.5842 139.307 83.0767 138.863 82.5057 138.863C81.8713 138.863 81.4272 139.37 81.4272 139.941C81.4272 140.576 81.9348 141.02 82.5057 141.02C83.0767 141.02 83.5842 140.512 83.5842 139.941Z" fill="#17171D"/>
<path d="M83.2037 139.941H82.4424V135.183C82.4424 132.011 79.8414 129.41 76.6693 129.41C73.4973 129.41 70.8963 132.011 70.8963 135.183V139.941H70.135V135.183C70.135 131.567 73.0532 128.649 76.6693 128.649C80.2854 128.649 83.2037 131.567 83.2037 135.183V139.941Z" fill="#17171D"/>
<path d="M69.3735 130.362L72.7358 126.428L76.5423 128.649L78.2551 130.362L73.3068 133.914L69.3735 130.362Z" fill="#FD88D0"/>
<path d="M73.3068 133.914C73.3068 133.914 73.8778 134.168 74.2584 133.978C74.6391 133.724 74.5756 133.217 74.5756 133.217C74.5756 133.217 75.0832 133.47 75.4004 133.217C75.7176 132.963 75.781 132.328 75.781 132.328C75.781 132.328 76.2885 132.646 76.7326 132.328C77.1767 132.011 76.9864 131.504 76.9864 131.504C76.9864 131.504 77.5573 131.694 77.938 131.377C78.2552 131.123 78.509 130.552 78.2552 130.298L74.5122 130.742L73.3068 133.914Z" fill="#FD88D0"/>
<path d="M72.7356 126.428L79.1431 127.444C79.5237 127.507 79.7775 127.824 79.6506 128.205C79.5872 128.522 79.27 128.776 78.9528 128.712L75.7808 128.395L72.7356 126.428Z" fill="#FD88D0"/>
<path d="M75.1468 125.984C68.6759 122.114 60.1749 120.846 55.734 119.387C51.2298 117.927 47.0427 124.335 47.9309 125.731C48.7556 127.063 59.8577 135.818 67.5974 137.277C67.5974 137.277 76.479 126.809 75.1468 125.984Z" fill="#00A8FF"/>
<path d="M72.9261 89.4426C72.9261 89.4426 71.7208 93.2491 71.5939 94.0738C71.5305 94.3276 67.9778 94.0104 67.4703 93.5663C67.8509 92.5512 68.6756 91.2824 68.9928 89.5061C69.3735 87.6663 72.9261 89.4426 72.9261 89.4426Z" fill="#FD88D0"/>
<path d="M67.724 86.4609C67.724 86.4609 69.2466 91.219 72.2917 90.9018C75.4003 90.5846 72.5455 84.1136 72.0379 83.9868C71.5939 83.8599 68.4853 83.6061 67.724 86.4609Z" fill="#FD88D0"/>
<path d="M70.1347 82.4009C72.0379 82.0202 74.3852 82.4009 74.7024 84.5579C74.7659 84.8116 74.639 85.0654 74.3852 85.1288C72.8627 85.5095 71.2766 85.5729 69.7541 85.3191C69.7541 85.5729 69.6906 85.8267 69.6906 86.1439C69.5638 86.7783 69.5003 87.7933 68.9928 88.2374C67.9777 89.1256 66.9627 87.603 66.7724 86.7148C66.2014 84.431 68.0412 82.5278 70.1347 82.4009Z" fill="black"/>
<path d="M59.5403 105.747C59.794 107.84 61.6973 107.587 63.6005 107.904C63.9177 107.967 64.1714 107.777 64.1714 107.46C64.2983 104.542 64.4886 101.623 65.0596 98.7685C64.9962 101.687 64.8693 104.605 64.8693 107.587C64.8693 107.904 65.1865 108.031 65.4402 108.031C67.2166 107.777 69.0563 107.523 70.8327 107.27C71.0864 107.206 71.1499 106.952 71.1499 106.699C70.1983 100.418 68.9295 94.7083 69.1832 88.3008C69.1832 88.1105 68.866 87.2223 68.7391 87.1589C68.8026 85.8267 69.3101 84.7482 68.9295 83.4794C68.866 83.1622 70.3886 82.4009 70.0714 82.4009C64.5521 82.5278 62.2048 91.7901 60.936 96.675C60.3016 99.5298 59.1596 102.765 59.5403 105.747Z" fill="black"/>
<path d="M69.4369 87.0955C69.4369 87.0955 68.866 86.2708 68.0412 86.5246C67.2165 86.7783 67.28 88.8084 68.7391 88.8084C70.1982 88.745 69.4369 87.0955 69.4369 87.0955Z" fill="#FD88D0"/>
<path d="M69.0562 88.3643C68.9294 88.2374 68.6756 88.4278 68.8025 88.6181C69.0562 88.8084 69.3734 89.4428 68.9928 89.6331C68.6122 89.8235 67.9143 89.3159 68.295 88.9353C68.4218 88.8084 68.1681 88.5546 68.0412 88.6815C67.5337 89.3159 68.2315 90.0772 68.9294 89.9503C69.8175 89.8869 69.5638 88.8084 69.0562 88.3643Z" fill="#FFD357"/>
<path d="M58.5887 106.254H58.3349C58.8425 97.8803 62.4586 87.5396 65.0596 84.6847C66.4553 83.1622 67.851 82.6547 68.8026 82.4643C69.8176 82.274 70.5155 82.5278 70.5155 82.5278L70.452 82.7181C70.452 82.7181 67.851 81.9568 65.2499 84.8116C62.6489 87.6664 59.0962 97.9438 58.5887 106.254Z" fill="black"/>
<path d="M71.5938 132.329C73.7508 129.474 75.8443 126.429 75.2099 125.984C71.0863 123.51 66.2014 122.115 62.0143 121.036C62.0778 120.973 62.0778 120.909 62.1412 120.782C63.6638 117.928 64.7423 113.487 65.3132 109.046" stroke="white" stroke-width="0.5" stroke-miterlimit="10" stroke-linecap="round" stroke-linejoin="round"/>
<path d="M49.7705 127.507C52.0543 129.347 55.9876 132.201 60.1113 134.422" stroke="white" stroke-width="0.5" stroke-miterlimit="10" stroke-linecap="round" stroke-linejoin="round"/>
<path d="M76.9228 100.291C78.0013 106.572 81.3002 115.834 82.569 119.006" stroke="white" stroke-width="0.5" stroke-miterlimit="10" stroke-linecap="round" stroke-linejoin="round"/>
<path d="M65.567 138.292L62.6488 155.23" stroke="white" stroke-width="0.5" stroke-miterlimit="10" stroke-linecap="round" stroke-linejoin="round"/>
<path d="M97.0336 168.743L100.332 145.143" stroke="white" stroke-width="0.5" stroke-miterlimit="10" stroke-linecap="round" stroke-linejoin="round"/>
<path d="M109.785 134.486C109.976 134.232 109.912 133.851 109.658 133.661L107.374 132.012C107.121 131.821 106.74 131.885 106.55 132.138C106.359 132.392 106.423 132.773 106.677 132.963L108.96 134.613C109.214 134.803 109.595 134.739 109.785 134.486Z" fill="#FD88D0"/>
<path d="M110.61 133.534C110.8 133.217 110.737 132.836 110.483 132.582L108.136 130.933C107.819 130.743 107.438 130.806 107.184 131.06C106.994 131.377 107.057 131.758 107.311 132.011L109.658 133.661C109.975 133.915 110.42 133.851 110.61 133.534Z" fill="#FD88D0"/>
<path d="M112.132 131.377C112.323 131.06 112.259 130.679 112.005 130.489L109.785 128.903C109.468 128.713 109.087 128.776 108.897 129.03C108.707 129.347 108.77 129.728 109.024 129.918L111.244 131.504C111.561 131.758 111.942 131.694 112.132 131.377Z" fill="#FD88D0"/>
<path d="M111.371 132.456C111.562 132.138 111.498 131.758 111.244 131.504L108.77 129.728C108.453 129.537 108.072 129.601 107.819 129.854C107.628 130.172 107.692 130.552 107.945 130.806L110.42 132.582C110.737 132.836 111.181 132.773 111.371 132.456Z" fill="#FD88D0"/>
<path d="M108.072 127.634L113.147 128.015C113.528 128.015 113.782 128.332 113.718 128.713C113.718 129.03 113.465 129.283 113.147 129.283L109.531 129.664L108.072 127.634Z" fill="#FD88D0"/>
<path d="M109.151 133.344L107.311 132.012C107.057 131.821 106.677 131.885 106.486 132.138C106.296 132.392 106.359 132.773 106.613 132.963" stroke="#B74190" stroke-width="0.5" stroke-miterlimit="10" stroke-linecap="round" stroke-linejoin="round"/>
<path d="M108.136 130.933C107.819 130.743 107.438 130.806 107.184 131.06C106.994 131.377 107.057 131.758 107.311 132.011" stroke="#B74190" stroke-width="0.5" stroke-miterlimit="10" stroke-linecap="round" stroke-linejoin="round"/>
<path d="M112.005 130.489L109.785 128.903C109.468 128.713 109.087 128.776 108.897 129.03C108.707 129.347 108.77 129.728 109.024 129.918" stroke="#B74190" stroke-width="0.5" stroke-miterlimit="10" stroke-linecap="round" stroke-linejoin="round"/>
<path d="M110.546 130.996L108.77 129.728C108.453 129.537 108.072 129.601 107.819 129.854C107.628 130.172 107.692 130.552 107.945 130.806L109.976 132.265" stroke="#B74190" stroke-width="0.5" stroke-miterlimit="10" stroke-linecap="round" stroke-linejoin="round"/>
<path d="M30.8654 184.35L48.5018 163.668L54.9093 134.866" stroke="#4C4C4C" stroke-width="0.5" stroke-miterlimit="10"/>
<path d="M70.8962 202.24L66.9629 165.635" stroke="#333333" stroke-width="0.5" stroke-miterlimit="10"/>
</g>
<defs>
<clipPath id="clip0">
<rect width="169.043" height="169.043" fill="white" transform="translate(25.1994 26.8828) rotate(-9.15054)"/>
</clipPath>
<clipPath id="clip1">
<rect width="146.087" height="140.87" fill="white" transform="translate(154.017 75.1304)"/>
</clipPath>
<clipPath id="clip2">
<rect width="157.774" height="157.774" fill="white" transform="translate(0 55.5657)"/>
</clipPath>
</defs>
</svg>
