<svg width="224" height="216" viewBox="0 0 224 216" fill="none" xmlns="http://www.w3.org/2000/svg">
<path d="M95.9641 0L81.5707 0.0771076C80.4512 1.54215 78.692 2.46744 76.613 2.46744C74.6139 2.46744 72.7747 1.54215 71.6552 0.0771076L57.2618 0.154215C56.5422 0.154215 55.9824 0.693968 55.9824 1.38794L56.0624 23.8262L97.1636 23.672V1.23372C97.1636 0.539753 96.6038 0 95.9641 0Z" fill="#FCCA57"/>
<path d="M56.2219 23.8263L56.3819 55.2091C56.3819 55.9031 56.9416 56.4428 57.6613 56.4428L72.0547 56.3657C73.1742 54.9007 74.9334 53.9754 77.0124 53.9754C79.0115 53.9754 80.8507 54.9007 81.9701 56.3657L96.3636 56.2886C97.0832 56.2886 97.643 55.7489 97.643 55.0549L97.4831 23.6721L56.2219 23.8263Z" fill="#FDDD92"/>
<path d="M72.5352 16.7323V8.79019C72.5352 8.09622 73.2548 7.71068 73.8945 8.01911L81.571 11.9516C82.2107 12.26 82.2107 13.1853 81.571 13.4937L73.8945 17.5033C73.2548 17.8889 72.5352 17.4262 72.5352 16.7323Z" fill="white"/>
<path d="M90.8466 32.3851L62.1397 32.4622C61.1002 32.4622 60.3005 31.6911 60.3005 30.6887C60.3005 29.6863 61.1002 28.9152 62.1397 28.9152L90.8466 28.8381C91.8861 28.8381 92.6857 29.6092 92.6857 30.6116C92.6857 31.5369 91.8861 32.308 90.8466 32.3851Z" fill="#FCCA57"/>
<path d="M78.4523 38.9393L62.2198 39.0164C61.1802 39.0164 60.3806 38.2453 60.3806 37.2429C60.3806 36.2405 61.1802 35.4694 62.2198 35.4694L78.3724 35.3923C79.4119 35.3923 80.2115 36.1634 80.2115 37.1658C80.2915 38.1682 79.4119 38.9393 78.4523 38.9393Z" fill="#FCCA57"/>
<path d="M71.2556 49.0404H61.74C60.9404 49.0404 60.3806 48.4235 60.3806 47.7295C60.3806 46.9585 61.0203 46.4187 61.74 46.4187H71.2556C72.0553 46.4187 72.615 47.0356 72.615 47.7295C72.615 48.4235 71.9753 49.0404 71.2556 49.0404Z" fill="#FCCA57"/>
<path d="M91.4063 48.9632H81.8906C81.091 48.9632 80.5312 48.3463 80.5312 47.6524C80.5312 46.8813 81.171 46.3416 81.8906 46.3416H91.4063C92.2059 46.3416 92.7657 46.9584 92.7657 47.6524C92.7657 48.3463 92.126 48.9632 91.4063 48.9632Z" fill="#FCCA57"/>
<path d="M56.7021 4.93474L42.7884 10.4865C42.3086 12.3371 40.9493 13.9563 39.0301 14.7274C37.0311 15.4985 34.952 15.2672 33.2728 14.3419L19.1992 19.9707C18.5595 20.2792 18.2397 20.9731 18.4795 21.6671L27.8353 43.4885L67.737 27.5273L58.3813 5.62871C58.1414 4.93474 57.3418 4.62631 56.7021 4.93474Z" fill="#6A87FC"/>
<path d="M27.915 43.4115L41.029 73.869C41.3489 74.4858 42.0686 74.7942 42.7882 74.5629L56.7019 69.0112C57.1817 67.1606 58.541 65.5413 60.4601 64.7703C62.3793 63.9992 64.5383 64.2305 66.2175 65.1558L80.1311 59.6041C80.7709 59.2956 81.0907 58.6017 80.8508 57.9077L67.8168 27.4502L27.915 43.4115Z" fill="#8FA5FD"/>
<path d="M40.8693 30.226L37.5108 22.5152C37.191 21.8212 37.7507 21.1273 38.4704 21.2044L47.5862 22.0526C48.3859 22.1297 48.7057 22.9778 48.2259 23.5947L42.4686 30.4573C41.9888 30.997 41.1092 30.9199 40.8693 30.226Z" fill="white"/>
<path d="M65.1783 38.3223L37.271 49.5029C36.3115 49.8884 35.112 49.4257 34.7122 48.5005C34.3124 47.5752 34.7922 46.4186 35.7517 46.033L63.659 34.8524C64.6185 34.4669 65.818 34.9295 66.2178 35.8548C66.6176 36.8572 66.1378 37.9367 65.1783 38.3223Z" fill="#7993FC"/>
<path d="M55.8223 49.5801L39.9895 55.9029C39.03 56.2884 37.8305 55.8258 37.4307 54.9005C37.0309 53.9752 37.5107 52.8186 38.4702 52.433L54.223 46.1102C55.1826 45.7247 56.382 46.1873 56.7819 47.1126C57.2616 48.115 56.7819 49.1945 55.8223 49.5801Z" fill="#7993FC"/>
<path d="M53.0237 62.1486L43.828 65.8497C43.1083 66.1582 42.2287 65.7726 41.9088 65.0787C41.589 64.3847 41.9888 63.5365 42.7085 63.2281L51.9043 59.5269C52.6239 59.2185 53.5035 59.604 53.8234 60.298C54.0633 60.992 53.7434 61.8402 53.0237 62.1486Z" fill="#7993FC"/>
<path d="M72.5345 54.2836L63.3387 57.9847C62.619 58.2932 61.7394 57.9076 61.4196 57.2137C61.0997 56.5197 61.4995 55.6715 62.2192 55.3631L71.415 51.6619C72.1347 51.3535 73.0143 51.739 73.3341 52.433C73.654 53.2041 73.3341 53.9752 72.5345 54.2836Z" fill="#7993FC"/>
<path d="M55.1826 198.089L56.462 188.451L46.3867 186.754L44.4675 200.402L55.1826 198.089Z" fill="#FCCA57"/>
<path d="M48.8269 195.62L43.5688 195.184L42.986 201.714L48.2441 202.15L48.8269 195.62Z" fill="#FD88D0"/>
<path d="M54.5425 205.029L33.9919 203.333C34.3118 199.554 37.8302 196.701 41.7484 197.01L48.5453 197.55L48.4653 198.629L55.1023 198.089L54.5425 205.029Z" fill="#FD88D0"/>
<path d="M54.5625 205.033L34.0083 203.327L33.8849 204.71L54.4391 206.416L54.5625 205.033Z" fill="#FDA0D9"/>
<path d="M43.4282 196.624L47.3464 197.01" stroke="white" stroke-width="0.5" stroke-miterlimit="10" stroke-linecap="round" stroke-linejoin="round"/>
<path d="M43.2681 198.166L47.2662 198.475" stroke="white" stroke-width="0.5" stroke-miterlimit="10" stroke-linecap="round" stroke-linejoin="round"/>
<path d="M70.2957 76.0282L58.9409 66.6211C58.621 66.3897 58.621 65.9271 58.8609 65.6187C59.1008 65.3102 59.5806 65.2331 59.9005 65.4645L62.3793 67.1608L59.5006 64.6163C59.2608 64.3849 59.2608 64.0765 59.4207 63.7681C59.6606 63.5368 59.9804 63.4597 60.3003 63.6139L63.4189 65.85L60.6201 63.3054C60.3003 62.997 60.3003 62.5344 60.6201 62.2259C60.86 61.9946 61.3398 61.9175 61.5797 62.1488L65.178 64.6163L62.9391 62.5344C62.6192 62.2259 62.6192 61.6862 63.019 61.3777C63.3389 61.1464 63.8187 61.0693 64.1385 61.3777L75.4134 70.4764L70.2957 76.0282Z" fill="#FCCA57"/>
<path d="M65.0981 64.6162L66.8573 65.8499" stroke="white" stroke-width="0.5" stroke-miterlimit="10" stroke-linecap="round" stroke-linejoin="round"/>
<path d="M63.4194 65.8501L65.4185 67.3923" stroke="white" stroke-width="0.5" stroke-miterlimit="10" stroke-linecap="round" stroke-linejoin="round"/>
<path d="M62.3796 67.1609L64.2188 68.4717" stroke="white" stroke-width="0.5" stroke-miterlimit="10" stroke-linecap="round" stroke-linejoin="round"/>
<path d="M68.3771 68.8572L65.4185 69.474" stroke="white" stroke-width="0.5" stroke-miterlimit="10" stroke-linecap="round" stroke-linejoin="round"/>
<path d="M67.0969 73.3294L60.3 72.2499C59.5004 72.0957 58.9407 71.4017 59.1006 70.6306L61.5795 56.5971C61.7394 55.826 62.4591 55.2862 63.2587 55.4404L70.0556 56.5199C70.8552 56.6742 71.415 57.3681 71.255 58.1392L68.7762 72.0957C68.6162 72.9439 67.8966 73.4065 67.0969 73.3294Z" fill="#2A2B3C"/>
<path d="M67.3363 71.7874L60.4595 70.7079C59.9797 70.6308 59.6598 70.2452 59.7398 69.7826L62.0587 56.6743C62.1387 56.2116 62.5385 55.9032 63.0183 55.9803L69.8951 57.0598C70.3749 57.1369 70.6948 57.5225 70.6148 57.9851L68.2959 71.0934C68.2959 71.556 67.8161 71.8645 67.3363 71.7874Z" fill="#F2F2F3"/>
<path d="M67.5767 57.2139L65.2577 56.8283C65.0978 56.8283 64.9379 56.597 65.0179 56.4428L65.0978 56.0572C65.0978 55.903 65.3377 55.7488 65.4976 55.8259L67.8166 56.2115C67.9765 56.2115 68.1364 56.4428 68.0565 56.597L67.9765 56.9825C67.8965 57.1368 67.7366 57.2139 67.5767 57.2139Z" fill="#2A2B3C"/>
<path d="M64.458 63.8451L61.8192 63.3825C61.6593 63.3825 61.5793 63.2283 61.5793 63.0741L62.2191 59.2958C62.2191 59.1416 62.379 59.0645 62.5389 59.0645L65.1777 59.5271C65.3376 59.5271 65.4176 59.6813 65.4176 59.8355L64.7779 63.6138C64.7779 63.768 64.6979 63.8451 64.458 63.8451Z" fill="#4093F5"/>
<path d="M68.2158 64.4621L65.577 63.9994C65.4171 63.9994 65.3372 63.8452 65.3372 63.691L65.9769 59.9127C65.9769 59.7585 66.1368 59.6814 66.2967 59.6814L68.9355 60.144C69.0954 60.144 69.1754 60.2983 69.1754 60.4525L68.5357 64.2307C68.5357 64.385 68.3758 64.4621 68.2158 64.4621Z" fill="#48DB84"/>
<path d="M69.4958 64.6161H69.3358C69.1759 64.6161 69.0959 64.4619 69.0959 64.3077L69.7356 60.5294C69.7356 60.3752 69.8956 60.2981 70.0555 60.2981H70.2154L69.4958 64.6161Z" fill="#EA3E72"/>
<path d="M63.0982 67.5464L61.1791 67.238C61.0192 67.238 60.9392 67.0838 60.9392 66.9296L61.419 64.1537C61.419 63.9995 61.5789 63.9224 61.7388 63.9224L63.658 64.2308C63.8179 64.2308 63.8979 64.385 63.8979 64.5392L63.4181 67.3151C63.4181 67.4693 63.2581 67.5464 63.0982 67.5464Z" fill="#48DB84"/>
<path d="M62.7787 71.0162L60.5397 70.6307C60.3798 70.6307 60.2199 70.4765 60.2998 70.2452L60.6997 67.7777C60.6997 67.6235 60.8596 67.5464 61.0195 67.5464L62.9386 67.8548C63.0986 67.8548 63.1785 68.009 63.1785 68.1633L62.7787 71.0162Z" fill="#EA3E72"/>
<path d="M69.4154 59.1415C69.4954 59.1415 69.5753 59.1415 69.6553 59.1415L69.8152 59.3728L69.8952 59.2957L69.7352 59.0644C69.8152 58.9873 69.8152 58.9873 69.8152 58.9102C69.8152 58.756 69.7352 58.6018 69.5753 58.5247C69.4154 58.5247 69.2555 58.6018 69.1755 58.756C69.0955 58.9102 69.1755 59.0644 69.4154 59.1415ZM69.4954 58.5247C69.6553 58.5247 69.7352 58.6789 69.7352 58.8331C69.7352 58.9873 69.5753 59.0644 69.4154 59.0644C69.2555 59.0644 69.1755 58.9102 69.1755 58.756C69.2555 58.6018 69.3354 58.5247 69.4954 58.5247Z" fill="#48DB84"/>
<path d="M64.5374 57.9851C64.5374 58.1393 64.3775 58.2164 64.2176 58.2164C64.0576 58.2164 63.8977 58.0622 63.8977 57.908C63.8977 57.7538 64.0576 57.5996 64.2176 57.5996C64.2975 57.5996 64.2975 57.5996 64.3775 57.5996L64.4574 57.5225C64.4574 57.5225 64.4574 57.5225 64.5374 57.5225C64.6174 57.5225 64.6174 57.5996 64.6174 57.5996V57.6767L64.5374 57.9851Z" fill="#48DB84"/>
<path d="M62.7783 57.9851V58.0622C62.7783 58.0622 62.7783 58.1393 62.6984 58.1393C62.6184 58.1393 62.6184 58.1393 62.6184 58.0622C62.6184 57.9851 62.6184 57.8308 62.6184 57.7537C62.6184 57.5995 62.7783 57.4453 62.9383 57.4453C63.0982 57.4453 63.2581 57.5995 63.2581 57.7537C63.2581 57.908 63.0982 58.0622 62.9383 58.0622C62.8583 57.9851 62.8583 57.9851 62.7783 57.9851Z" fill="#48DB84"/>
<path d="M63.8178 57.908C63.8178 58.0623 63.6579 58.2165 63.498 58.1394C63.3381 58.1394 63.1781 57.9851 63.2581 57.8309C63.2581 57.6767 63.418 57.5225 63.5779 57.5996C63.7379 57.5225 63.8978 57.6767 63.8178 57.908Z" fill="#48DB84"/>
<path d="M64.6173 58.0621C64.6173 57.985 64.6173 57.985 64.6173 57.9079C64.6173 57.8308 64.6173 57.8308 64.6973 57.8308C64.7772 57.8308 64.7772 57.8308 64.8572 57.9079V57.985C64.8572 58.0621 64.8572 58.0621 64.8572 58.1392C64.8572 58.2163 64.8572 58.2163 64.8572 58.2935C64.8572 58.3706 64.7772 58.3706 64.7772 58.3706C64.6973 58.3706 64.6973 58.3706 64.6173 58.2935V58.2163C64.5374 58.1392 64.6173 58.0621 64.6173 58.0621Z" fill="#48DB84"/>
<path d="M64.7771 57.5225C64.8571 57.5225 64.8571 57.5996 64.8571 57.6767C64.8571 57.7538 64.7771 57.7538 64.6972 57.7538C64.6172 57.7538 64.6172 57.6767 64.6172 57.5996C64.6971 57.5996 64.7771 57.5225 64.7771 57.5225Z" fill="#48DB84"/>
<path d="M62.6182 58.2163C62.6981 58.2163 62.6981 58.2163 62.6981 58.2163C62.6981 58.2934 62.6981 58.2934 62.6182 58.2163C62.6182 58.2934 62.6182 58.2934 62.6182 58.2163Z" fill="#48DB84"/>
<path d="M68.1359 66.2355L64.5375 65.6186C64.2976 65.5415 64.1377 65.3102 64.1377 65.0789C64.2177 64.8476 64.4575 64.6934 64.6974 64.6934L68.2958 65.3102C68.5357 65.3873 68.6956 65.6186 68.6956 65.85C68.6156 66.1584 68.3758 66.3126 68.1359 66.2355Z" fill="#CCCCD0"/>
<path d="M66.297 66.6981L64.2179 66.3125C64.058 66.3125 63.978 66.1583 64.058 66.0812C64.058 65.927 64.2179 65.8499 64.2979 65.927L66.3769 66.2354C66.5369 66.2354 66.6168 66.3896 66.5369 66.4667C66.5369 66.6209 66.4569 66.6981 66.297 66.6981Z" fill="#CCCCD0"/>
<path d="M66.7768 69.8596L63.8981 69.397C63.6582 69.3199 63.4983 69.0885 63.4983 68.8572C63.5783 68.6259 63.8181 68.4717 64.058 68.4717L66.9367 68.9343C67.1766 69.0114 67.3365 69.2428 67.3365 69.4741C67.2566 69.7825 67.0167 69.9367 66.7768 69.8596Z" fill="#CCCCD0"/>
<path d="M64.8578 70.2452L63.4984 70.0139C63.3385 70.0139 63.2585 69.8597 63.3385 69.7826C63.3385 69.6284 63.4984 69.5513 63.5784 69.6284L64.9378 69.8597C65.0977 69.8597 65.1777 70.0139 65.0977 70.091C65.1777 70.2452 65.0177 70.3224 64.8578 70.2452Z" fill="#CCCCD0"/>
<path d="M76.6127 69.0115L72.8544 65.5416L70.2156 62.3031C69.8958 61.9176 69.336 61.8404 68.9362 62.0718C68.4564 62.3802 68.3765 62.9199 68.6163 63.3826L69.9757 66.3127L69.8158 67.0067C69.4959 68.3175 70.0557 69.7054 71.1752 70.5536L73.5741 72.3271L76.6127 69.0115Z" fill="#FCCA57"/>
<path d="M71.1752 70.4766C70.0557 69.6284 69.5759 68.3176 69.8158 66.9297L69.9757 66.2357L69.5759 65.5417" stroke="#CC9B3A" stroke-width="0.5" stroke-miterlimit="10" stroke-linecap="round" stroke-linejoin="round"/>
<path d="M116.115 63.3053C118.354 64.9246 129.309 68.086 131.068 66.8523C132.107 66.0812 132.107 59.8355 131.788 57.5994C131.228 53.8982 130.188 48.732 126.83 46.6501C125.79 46.0332 125.79 46.7272 124.591 47.4983C123.072 48.5007 123.871 50.891 124.191 52.5103C123.072 56.9054 120.033 59.9126 116.035 62.0716C115.635 62.3801 115.715 62.9969 116.115 63.3053Z" fill="#2A2B3C"/>
<path d="M129.468 66.0811C113.716 60.3752 98.2827 80.2689 90.3663 90.7556C82.45 101.242 87.8875 108.876 93.4849 107.719C110.837 103.864 138.984 69.551 129.468 66.0811Z" fill="#FD88D0"/>
<path d="M79.0919 66.1583C88.5276 73.6378 98.0433 87.2087 103.721 94.9965C107.959 100.934 91.5662 108.259 89.4872 106.948C87.4081 105.637 69.4163 90.987 64.5386 76.2594C64.5386 76.2594 77.2528 64.6933 79.0919 66.1583Z" fill="#FD88D0"/>
<path d="M193.279 118.9C189.201 106.177 184.483 91.6808 173.209 83.1219C172.569 82.5821 171.849 82.1195 171.129 81.734C160.015 74.6401 146.901 75.9509 137.065 85.1267C130.428 91.2953 126.51 99.4687 121.152 106.563C115.555 113.965 108.358 119.671 99.962 123.835C84.609 130.466 65.9776 147.275 68.6963 175.728C68.9362 177.964 69.416 180.277 70.1357 182.591C73.1743 192.229 80.7708 201.405 92.6853 204.412C109.398 208.73 119.393 207.342 136.585 207.265C151.299 207.188 167.051 206.648 179.206 197.704C189.441 190.147 195.838 178.504 198.317 166.398C201.596 150.591 198.237 134.167 193.279 118.9Z" fill="#3F4261"/>
<path d="M176.247 91.9121C183.204 105.869 187.842 120.982 187.522 136.635C187.202 153.058 180.885 178.658 162.174 184.056C152.338 186.909 141.223 187.911 131.068 188.991C121.632 189.993 112.037 190.995 102.521 190.61" stroke="#575C82" stroke-width="0.5" stroke-miterlimit="10" stroke-linecap="round" stroke-linejoin="round"/>
<path d="M176.087 120.596C176.087 120.596 157.536 129.001 149.619 142.109" stroke="white" stroke-width="0.5" stroke-miterlimit="10" stroke-linecap="round" stroke-linejoin="round"/>
<path d="M80.0513 147.044C80.851 147.044 110.757 151.902 121.952 151.362C130.988 150.977 143.622 151.748 146.901 144.654C151.938 133.628 148.82 127.844 139.464 124.375C134.506 122.524 127.949 119.285 122.752 119.825C115.475 120.519 59.9005 124.143 54.623 134.63C49.9851 143.96 70.2158 146.736 80.0513 147.044Z" fill="#009EF0"/>
<path d="M56.3824 132.394C50.3052 137.714 39.1104 173.723 39.1104 191.458C46.9468 194.311 57.9817 195.005 61.0203 194.465C61.1003 195.314 66.058 173.184 71.0158 162.774C74.3742 155.68 78.6123 160.152 84.1297 154.524C85.8889 152.673 87.7281 150.822 89.4073 148.895C94.3651 143.343 63.4992 126.225 56.3824 132.394Z" fill="#009EF0"/>
<path d="M155.936 127.844C155.217 125.3 153.857 123.295 151.938 121.676C150.339 120.288 148.42 119.208 146.021 118.283C140.983 116.355 137.065 119.748 131.947 120.673C125.31 121.753 78.2919 125.839 70.3755 139.487C70.3755 139.565 70.2955 139.565 70.2955 139.565C70.1356 139.796 70.0556 140.027 69.8957 140.336C69.8957 140.413 69.8157 140.413 69.8157 140.49C69.4159 141.492 69.176 142.495 69.176 143.497C69.176 147.43 73.654 150.591 83.0897 152.287C86.3682 152.904 90.2064 153.29 94.6844 153.444C103.88 153.829 115.635 153.213 130.108 151.439C139.064 150.36 151.778 150.822 154.577 142.186C156.576 136.172 156.976 131.468 155.936 127.844Z" fill="#00A8FF"/>
<path d="M93.4053 138.408C85.5688 136.326 69.4162 141.647 69.4162 141.724C66.6975 155.372 66.0578 183.593 67.4971 194.62C69.896 194.311 72.6947 194.003 75.6534 193.771C82.1304 193.309 89.647 193.154 96.7637 194.157C96.6838 189.993 93.4852 177.502 94.7646 167.555C95.1645 164.162 97.2435 152.673 97.7233 145.81C97.8032 144.114 97.9632 142.88 98.0431 142.418C98.5229 140.49 96.4439 139.256 93.4053 138.408Z" fill="#00A8FF"/>
<path d="M96.7638 194.234C97.2436 193.077 68.5367 192.923 67.4173 194.62C66.0579 196.933 95.3245 197.55 96.7638 194.234Z" fill="black"/>
<path d="M155.857 123.603C155.857 123.603 155.857 73.1751 140.904 64.9246C131.308 59.6042 116.515 64.3078 113.236 71.3245C106.759 84.9726 95.8843 121.599 95.8843 121.599C95.8843 121.599 131.068 130.543 155.857 123.603Z" fill="#FD88D0"/>
<path d="M171.929 139.179C147.7 138.794 131.068 146.967 119.953 161.617C118.913 161.694 121.472 179.198 138.265 179.121C156.016 179.044 169.05 180.894 173.768 162.774C175.448 156.143 178.086 139.256 171.929 139.179Z" fill="#3F4261"/>
<path d="M171.13 139.95C171.13 139.95 140.983 134.553 119.153 162.389" stroke="white" stroke-width="0.5" stroke-miterlimit="10" stroke-linecap="round" stroke-linejoin="round"/>
<path d="M139.304 65.8499C127.949 77.8787 137.945 99.1604 145.061 110.11C152.258 121.059 166.332 111.035 166.412 107.18C166.492 103.401 146.181 58.6018 139.304 65.8499Z" fill="#FD88D0"/>
<path d="M116.115 126.765L113.796 127.999L113.956 134.553C113.956 135.015 114.356 135.324 114.756 135.324C115.156 135.324 115.475 135.015 115.555 134.63L116.435 129.541L124.031 126.688L121.393 119.902L116.115 126.765Z" fill="#FCCA57"/>
<path d="M114.596 130.697L112.357 132.008L110.917 136.172C110.758 136.558 110.278 136.789 109.878 136.635C109.478 136.48 109.318 136.095 109.398 135.709L111.637 127.228L115.076 128.461L114.596 130.697Z" fill="#FCCA57"/>
<path d="M111.237 131.237L108.039 134.784C107.719 135.093 107.239 135.17 106.839 134.861C106.52 134.63 106.44 134.244 106.68 133.859L110.998 125.994L111.237 131.237Z" fill="#FCCA57"/>
<path d="M121.473 119.979L110.758 123.526L105.48 132.471C105.32 132.779 105.4 133.242 105.64 133.473C105.96 133.782 106.519 133.705 106.759 133.396L110.678 129.078L114.516 129.001L116.915 126.996L121.473 119.979Z" fill="#FCCA57"/>
<path d="M110.358 131.931L111.397 127.922L111.637 127.228" stroke="#B78829" stroke-width="0.5" stroke-miterlimit="10" stroke-linecap="round" stroke-linejoin="round"/>
<path d="M113.876 130.543L113.796 127.999L116.115 126.765" stroke="#B78829" stroke-width="0.5" stroke-miterlimit="10" stroke-linecap="round" stroke-linejoin="round"/>
<path d="M107.24 132.933L110.278 127.15" stroke="#B78829" stroke-width="0.5" stroke-miterlimit="10" stroke-linecap="round" stroke-linejoin="round"/>
<path d="M135.386 72.2498C132.027 81.6569 136.026 93.6086 140.823 102.861" stroke="white" stroke-width="0.5" stroke-miterlimit="10" stroke-linecap="round" stroke-linejoin="round"/>
<path d="M166.412 107.18C165.852 105.406 164.173 105.021 162.413 105.329C160.734 101.705 158.095 98.5435 154.577 98.8519C147.14 99.4687 124.911 108.722 115.475 116.201C113.636 117.666 122.991 133.782 122.991 133.782C138.984 132.085 162.094 116.355 163.933 114.659C163.933 114.659 167.771 111.575 166.412 107.18Z" fill="#FD88D0"/>
<path d="M122.992 133.782C122.992 133.782 113.556 117.666 115.475 116.201C121.712 111.266 133.467 105.637 142.903 102.09" stroke="white" stroke-width="0.5" stroke-miterlimit="10" stroke-linecap="round" stroke-linejoin="round"/>
<path d="M155.856 120.134L145.141 126.071" stroke="white" stroke-width="0.5" stroke-miterlimit="10" stroke-linecap="round" stroke-linejoin="round"/>
<path d="M113.236 71.3245C109.398 79.4979 103.96 95.9218 100.202 107.796" stroke="white" stroke-width="0.5" stroke-miterlimit="10" stroke-linecap="round" stroke-linejoin="round"/>
<path d="M99.9625 125.685C86.9285 128.538 74.1344 132.856 70.2961 139.41C70.2961 139.488 70.2161 139.488 70.2161 139.488C70.0562 139.719 69.9763 139.95 69.8163 140.259C69.8163 140.336 69.7364 140.336 69.7364 140.413C69.5764 140.798 69.4165 141.261 69.3365 141.647V141.724C69.3365 141.878 69.2566 142.032 69.2566 142.186C67.5773 151.131 66.6978 165.935 66.6978 178.118" stroke="white" stroke-width="0.5" stroke-miterlimit="10" stroke-linecap="round" stroke-linejoin="round"/>
<path d="M123.871 57.4451C123.871 57.4451 125.31 62.6884 125.39 63.9992C125.39 64.3847 131.468 65.1558 132.267 64.4619C131.787 62.8426 130.588 60.6836 130.188 57.9077C129.868 55.0547 123.871 57.4451 123.871 57.4451Z" fill="#FCCA57"/>
<path d="M132.667 53.2812C132.667 53.2812 129.708 60.6065 124.751 59.7583C119.793 58.9101 125.07 49.1174 125.87 48.9632C126.67 48.809 131.707 48.7319 132.667 53.2812Z" fill="#FCCA57"/>
<path d="M128.989 46.4958C129.069 46.4958 129.069 46.573 129.149 46.573C132.987 45.9561 135.466 50.197 134.426 53.744C134.027 55.1319 132.267 57.4451 130.668 55.903C129.869 55.1319 129.869 53.5126 129.709 52.5102C129.629 51.9705 129.629 51.5078 129.629 51.0452C129.309 51.1223 129.069 51.1223 128.749 51.1223C126.59 51.4307 124.511 51.5849 122.352 51.6621C121.952 51.6621 121.632 51.3536 121.632 50.9681C121.472 47.5753 125.95 45.3392 128.989 46.4958Z" fill="#2A2B3C"/>
<path d="M125.071 65.4644C127.629 66.4668 139.064 66.9294 140.503 65.3102C141.303 64.3849 139.704 58.2934 138.824 56.1344C137.385 52.6645 134.986 47.8838 131.228 46.7272C130.028 46.3417 130.268 47.0357 129.309 48.1152C128.109 49.426 129.469 51.585 130.188 53.0501C130.268 57.5994 128.029 61.2235 124.751 64.3078C124.351 64.6933 124.591 65.3102 125.071 65.4644Z" fill="#2A2B3C"/>
<path d="M129.868 54.1295C129.868 54.1295 130.908 52.8958 132.267 53.3584C133.627 53.8211 133.227 57.0596 130.828 56.8283C128.429 56.6741 129.868 54.1295 129.868 54.1295Z" fill="#FFC32E"/>
<path d="M131.148 58.9101C130.908 58.9101 130.588 58.833 130.348 58.6788C130.028 58.4475 129.789 58.139 129.709 57.7535C129.629 57.368 129.709 56.9824 129.869 56.674C130.108 56.3656 130.428 56.1342 130.828 56.0571C130.988 56.0571 131.148 56.1342 131.148 56.2885C131.148 56.4427 131.068 56.5969 130.908 56.5969C130.668 56.674 130.508 56.7511 130.348 56.9824C130.188 57.1366 130.188 57.368 130.268 57.5993C130.348 57.8306 130.428 57.9848 130.668 58.139C130.908 58.2933 131.068 58.2932 131.308 58.2161C131.548 58.139 131.708 58.0619 131.868 57.8306C132.028 57.6764 132.028 57.4451 131.948 57.2137C131.948 57.0595 132.028 56.9053 132.187 56.9053C132.347 56.9053 132.507 56.9824 132.507 57.1366C132.587 57.5222 132.507 57.9077 132.347 58.2161C132.108 58.5246 131.788 58.7559 131.388 58.833C131.308 58.9101 131.228 58.9101 131.148 58.9101Z" fill="#EA3E72"/>
<path d="M96.2842 157.685L97.4037 149.435" stroke="white" stroke-width="0.5" stroke-miterlimit="10" stroke-linecap="round" stroke-linejoin="round"/>
<path d="M93.5649 81.3484L97.4832 86.4375" stroke="white" stroke-width="0.5" stroke-miterlimit="10" stroke-linecap="round" stroke-linejoin="round"/>
<path d="M86.129 193.386C82.6906 193.309 78.9323 193.386 75.6538 193.54L76.9332 203.255L86.7687 198.552L86.129 193.386Z" fill="#FCCA57"/>
<path d="M79.8849 197.572L74.6743 198.38L75.753 204.851L80.9635 204.043L79.8849 197.572Z" fill="#FD88D0"/>
<path d="M87.8882 205.337L67.5775 208.499C66.9378 204.721 69.5766 201.174 73.4948 200.557L80.2917 199.477L80.4516 200.557L86.7687 198.475L87.8882 205.337Z" fill="#FD88D0"/>
<path d="M87.8869 205.301L67.5183 208.458L67.7467 209.829L88.1153 206.671L87.8869 205.301Z" fill="#FDA0D9"/>
<path d="M74.9336 199.786L78.8518 199.169" stroke="white" stroke-width="0.5" stroke-miterlimit="10" stroke-linecap="round" stroke-linejoin="round"/>
<path d="M75.1738 201.328L79.092 200.711" stroke="white" stroke-width="0.5" stroke-miterlimit="10" stroke-linecap="round" stroke-linejoin="round"/>
</svg>
