<svg width="216" height="216" viewBox="0 0 216 216" fill="none" xmlns="http://www.w3.org/2000/svg">
<path d="M147.001 106.742L130.412 94.9303L137.447 87.4609L152.212 101.792L147.001 106.742Z" fill="#FD88D0"/>
<path d="M128.588 0H175.923C180.96 0 184.955 4.08209 184.955 9.0327V43.5133C184.955 48.4639 180.873 52.546 175.923 52.546H147.609L138.055 65.4002C137.013 66.7899 134.841 66.0082 134.841 64.358V52.546H128.501C123.55 52.546 119.468 48.4639 119.468 43.5133V9.0327C119.468 4.08209 123.55 0 128.588 0Z" fill="#00A8FF"/>
<path d="M132.844 17.3707C132.757 14.2439 133.452 11.9858 134.754 10.5093C136.057 9.03277 137.881 8.2511 140.226 8.16424C142.658 8.16424 144.482 8.85907 145.872 10.3356C147.261 11.8121 147.956 14.0702 148.043 17.1969C148.13 20.3237 147.435 22.5818 146.132 24.0583C144.829 25.5348 143.005 26.3165 140.66 26.4034C138.229 26.4034 136.405 25.7085 135.015 24.232C133.625 22.7555 132.931 20.4105 132.844 17.3707ZM137.968 17.1969C137.968 19.4551 138.315 20.9316 138.837 21.7133C139.271 22.2344 139.792 22.5818 140.487 22.495C141.182 22.495 141.703 22.2344 142.137 21.6264C142.658 20.8448 142.832 19.3683 142.832 17.1101C142.832 14.8519 142.484 13.3754 142.05 12.5937C141.616 11.9858 141.095 11.7252 140.4 11.7252C139.705 11.7252 139.184 11.9858 138.75 12.5937C138.229 13.4623 137.968 14.9388 137.968 17.1969ZM145.872 44.3819L141.008 44.4688L158.726 7.81683L163.503 7.72998L145.872 44.3819ZM156.381 35.1755C156.294 32.0488 156.989 29.7906 158.292 28.3141C159.594 26.8376 161.505 26.0559 163.85 25.9691C166.195 25.9691 168.106 26.6639 169.496 28.1404C170.885 29.6169 171.58 31.8751 171.667 35.0018C171.754 38.1285 171.059 40.3867 169.756 41.95C168.453 43.4265 166.629 44.2082 164.284 44.295C161.853 44.295 160.029 43.6002 158.639 42.1237C157.163 40.5604 156.468 38.3022 156.381 35.1755ZM161.505 35.0886C161.505 37.3468 161.853 38.8233 162.374 39.605C162.808 40.213 163.329 40.4735 164.024 40.4735C164.719 40.4735 165.24 40.213 165.587 39.605C166.108 38.8233 166.369 37.3468 166.282 35.0886C166.282 32.8305 165.935 31.354 165.5 30.5723C165.066 30.0512 164.545 29.7038 163.85 29.7906C163.155 29.7906 162.634 30.0512 162.2 30.6591C161.766 31.354 161.505 32.8305 161.505 35.0886Z" fill="white"/>
<path d="M33.6633 184.203L40.6938 192.815L62.3567 175.129L55.3262 166.517L33.6633 184.203Z" fill="#FD88D0"/>
<path d="M31.9203 185.605L44.1665 200.63C47.0327 198.285 47.467 194.03 45.1219 191.164L37.1315 181.349L31.9203 185.605Z" fill="#FCCA57"/>
<path d="M30.8571 186.459L43.1056 201.462L44.1147 200.638L31.8663 185.635L30.8571 186.459Z" fill="#333333"/>
<path d="M33.6904 184.173L40.7209 192.784L45.6321 188.775L38.6016 180.163L33.6904 184.173Z" fill="#FCCA57"/>
<path d="M44.5142 189.687L42.1692 186.734" stroke="black" stroke-width="0.5" stroke-miterlimit="10" stroke-linecap="round" stroke-linejoin="round"/>
<path d="M43.3849 190.556L41.0399 187.689" stroke="black" stroke-width="0.5" stroke-miterlimit="10" stroke-linecap="round" stroke-linejoin="round"/>
<path d="M98.4563 212.332L109.573 212.332L109.574 184.365L98.4564 184.365L98.4563 212.332Z" fill="#FD88D0"/>
<path d="M98.3628 214.614H117.731C117.731 210.879 114.691 207.839 110.956 207.839H98.3628V214.614Z" fill="#FCCA57"/>
<path d="M98.444 216L117.812 216L117.812 214.697L98.444 214.697L98.444 216Z" fill="#333333"/>
<path d="M98.458 212.343L109.575 212.343L109.575 206.002L98.458 206.002L98.458 212.343Z" fill="#FCCA57"/>
<path d="M109.567 207.405H105.832" stroke="black" stroke-width="0.5" stroke-miterlimit="10" stroke-linecap="round" stroke-linejoin="round"/>
<path d="M109.567 208.881H105.832" stroke="black" stroke-width="0.5" stroke-miterlimit="10" stroke-linecap="round" stroke-linejoin="round"/>
<path d="M90.025 51.5039C90.8936 48.1167 92.1964 43.0792 94.194 39.084C96.539 39.3445 97.4944 38.8234 99.8394 39.4314C99.5789 48.1167 102.706 56.7151 104.008 65.3135C104.095 65.5741 103.922 66.0084 103.574 66.0952C101.142 66.4426 98.6235 66.79 96.1916 67.1375C95.8442 67.2243 95.4099 66.9638 95.4099 66.5295C95.4099 62.5343 95.4968 58.539 95.6705 54.4569C94.8888 58.3653 94.6282 62.3606 94.4545 66.3558C94.4545 66.79 94.1071 67.0506 93.6729 66.9638C91.1541 66.4426 88.5485 66.8769 88.1143 64.0108C87.5063 59.8418 89.0697 55.4123 90.025 51.5039Z" fill="black"/>
<path d="M160.376 115.601H159.333V109.087C159.333 104.745 155.773 101.184 151.43 101.184C147.087 101.184 143.526 104.745 143.526 109.087V115.601H142.484V109.087C142.484 104.137 146.479 100.141 151.43 100.141C156.38 100.141 160.376 104.137 160.376 109.087V115.601Z" fill="#17171D"/>
<path d="M171.146 154.946H128.761L134.841 111.953H165.066L171.146 154.946Z" fill="#FD88D0"/>
<path d="M175.141 154.946H132.844L138.837 111.953H169.148L175.141 154.946Z" fill="#FD88D0"/>
<path d="M146.914 115.601C146.914 114.733 146.219 114.125 145.437 114.125C144.569 114.125 143.961 114.82 143.961 115.601C143.961 116.47 144.656 117.078 145.437 117.078C146.306 117.165 146.914 116.47 146.914 115.601Z" fill="#17171D"/>
<path d="M163.329 115.601C163.329 114.733 162.634 114.125 161.852 114.125C160.984 114.125 160.376 114.82 160.376 115.601C160.376 116.47 161.071 117.078 161.852 117.078C162.634 117.165 163.329 116.47 163.329 115.601Z" fill="#17171D"/>
<path d="M162.808 115.601H161.766V109.087C161.766 104.745 158.205 101.184 153.862 101.184C149.519 101.184 145.958 104.745 145.958 109.087V115.601H144.916V109.087C144.916 104.137 148.911 100.141 153.862 100.141C158.813 100.141 162.808 104.137 162.808 109.087V115.601Z" fill="#17171D"/>
<path d="M84.3797 110.303C84.206 114.82 84.8139 120.812 85.7693 127.587C88.6355 148.084 84.206 200.109 97.8419 204.799C98.1024 204.886 110.175 204.886 110.609 204.712C127.719 197.069 115.82 162.154 115.386 149.387C114.865 133.493 115.907 96.5805 115.56 96.4937C100.1 99.6204 85.1613 94.4092 84.3797 110.303Z" fill="black"/>
<path d="M96.1046 53.2409C99.4919 50.5485 118.339 67.2242 124.679 77.0386C136.491 95.5382 120.858 94.496 117.905 92.8458C114.865 91.1956 89.2433 58.7995 96.1046 53.2409Z" fill="#00A8FF"/>
<path d="M151.777 91.8036C143.179 86.0713 130.151 82.5103 124.592 77.0386C119.989 72.5222 113.388 87.6346 114.431 89.5454C115.473 91.4562 130.064 104.137 140.573 106.655C140.66 106.655 153.514 92.9326 151.777 91.8036Z" fill="#00A8FF"/>
<path d="M88.288 154.077C79.2553 153.817 71.178 151.472 62.9269 147.824C65.4457 138.27 66.3142 127.326 67.8776 119.683C69.2672 112.996 70.6568 107.09 72.3939 102.921C78.3868 88.1558 85.5087 97.2754 101.055 99.6204C102.619 107.524 88.5485 153.209 88.288 154.077Z" fill="#212121"/>
<path d="M67.0089 142.786C72.5675 149.821 80.3843 149.648 88.201 154.077C80.7317 165.02 60.7555 192.032 47.5539 187.95C47.1196 187.863 39.7371 178.483 39.6503 178.135C37.5658 168.755 56.0655 154.511 67.0089 142.786Z" fill="#212121"/>
<path d="M82.295 162.415C84.7269 159.288 86.7245 156.335 88.2878 154.077C88.5484 153.209 102.619 107.524 101.055 99.5334" stroke="white" stroke-width="0.5" stroke-miterlimit="10" stroke-linecap="round" stroke-linejoin="round"/>
<path d="M68.4855 105.7C68.4855 105.7 75.7811 57.4966 86.6377 52.9803C95.4967 49.2456 103.661 51.8512 105.311 61.2313C106.788 69.8297 111.304 82.5103 113.041 86.8529C114.691 91.1956 119.468 99.0123 119.468 99.0123C119.468 99.0123 90.4593 110.043 68.4855 105.7Z" fill="#00A8FF"/>
<path d="M87.5063 52.633C91.5884 53.9358 90.4593 79.1232 84.9875 89.3718C79.5158 99.6204 65.4456 98.7519 65.1851 95.2778C64.8377 91.8905 79.0815 50.0275 87.5063 52.633Z" fill="#00A8FF"/>
<path d="M111.478 115.515H110.435V109.001C110.435 104.658 106.874 101.097 102.532 101.097C98.1891 101.097 94.6282 104.658 94.6282 109.001V115.515H93.5859V109.001C93.5859 104.05 97.5812 100.055 102.532 100.055C107.482 100.055 111.478 104.05 111.478 109.001V115.515Z" fill="#17171D"/>
<path d="M122.248 147.216H79.8633L85.943 111.78H116.168L122.248 147.216Z" fill="#FFD357"/>
<path d="M126.243 147.216H83.9456L89.9385 111.78H120.25L126.243 147.216Z" fill="#FFD357"/>
<path d="M98.0156 115.515C98.0156 114.646 97.3208 114.038 96.5391 114.038C95.6706 114.038 95.0626 114.733 95.0626 115.515C95.0626 116.383 95.7574 116.991 96.5391 116.991C97.4076 116.991 98.0156 116.296 98.0156 115.515Z" fill="#17171D"/>
<path d="M114.431 115.515C114.431 114.646 113.736 114.038 112.954 114.038C112.086 114.038 111.478 114.733 111.478 115.515C111.478 116.383 112.173 116.991 112.954 116.991C113.736 116.991 114.431 116.296 114.431 115.515Z" fill="#17171D"/>
<path d="M113.91 115.515H112.868V109.001C112.868 104.658 109.307 101.097 104.964 101.097C100.621 101.097 97.0603 104.658 97.0603 109.001V115.515H96.0181V109.001C96.0181 104.05 100.013 100.055 104.964 100.055C109.915 100.055 113.91 104.05 113.91 109.001V115.515Z" fill="#17171D"/>
<path d="M94.9756 102.4L99.5788 97.0146L104.79 100.055L107.135 102.4L100.36 107.263L94.9756 102.4Z" fill="#FD88D0"/>
<path d="M100.361 107.263C100.361 107.263 101.142 107.611 101.663 107.35C102.184 107.003 102.098 106.308 102.098 106.308C102.098 106.308 102.792 106.655 103.227 106.308C103.661 105.961 103.748 105.092 103.748 105.092C103.748 105.092 104.443 105.526 105.051 105.092C105.659 104.658 105.398 103.963 105.398 103.963C105.398 103.963 106.18 104.224 106.701 103.789C107.135 103.442 107.482 102.66 107.135 102.313L102.011 102.921L100.361 107.263Z" fill="#FD88D0"/>
<path d="M99.5785 97.0146L108.351 98.4043C108.872 98.4912 109.219 98.9254 109.045 99.4465C108.959 99.8808 108.524 100.228 108.09 100.141L103.747 99.7071L99.5785 97.0146Z" fill="#FD88D0"/>
<path d="M102.88 96.4069C94.0205 91.1089 82.3822 89.3718 76.3025 87.3742C70.136 85.3766 64.4037 94.1487 65.6196 96.0595C66.7487 97.8834 81.948 109.869 92.544 111.867C92.544 111.867 104.703 97.536 102.88 96.4069Z" fill="#00A8FF"/>
<path d="M99.8393 46.3795C99.8393 46.3795 98.1891 51.5907 98.0154 52.7198C97.9286 53.0672 93.0648 52.6329 92.37 52.025C92.8911 50.6353 94.0202 48.8983 94.4545 46.4664C94.9756 43.9476 99.8393 46.3795 99.8393 46.3795Z" fill="#FD88D0"/>
<path d="M92.7173 42.2975C92.7173 42.2975 94.8018 48.8115 98.9708 48.3772C103.227 47.943 99.3182 39.084 98.6233 38.9103C98.0154 38.7366 93.7596 38.3891 92.7173 42.2975Z" fill="#FD88D0"/>
<path d="M96.0177 36.7389C98.6233 36.2177 101.837 36.7389 102.271 39.6919C102.358 40.0393 102.184 40.3867 101.837 40.4735C99.7524 40.9946 97.5811 41.0815 95.4966 40.7341C95.4966 41.0815 95.4098 41.4289 95.4098 41.8632C95.236 42.7317 95.1492 44.1213 94.4544 44.7293C93.0647 45.9453 91.6751 43.8608 91.4145 42.6448C90.6328 39.5181 93.1516 36.9126 96.0177 36.7389Z" fill="black"/>
<path d="M81.5134 68.7006C81.8609 71.5668 84.4664 71.2194 87.072 71.6536C87.5063 71.7405 87.8537 71.4799 87.8537 71.0457C88.0274 67.0504 88.288 63.0552 89.0696 59.1468C88.9828 63.142 88.8091 67.1373 88.8091 71.2194C88.8091 71.6536 89.2434 71.8273 89.5908 71.8273C92.0226 71.4799 94.5414 71.1325 96.9733 70.7851C97.3207 70.6982 97.4075 70.3508 97.4075 70.0034C96.1047 61.405 94.3677 53.5882 94.7151 44.8161C94.7151 44.5555 94.2808 43.3396 94.1071 43.2527C94.194 41.4288 94.8888 39.9523 94.3677 38.2153C94.2808 37.781 96.3653 36.7388 95.931 36.7388C88.3748 36.9125 85.1613 49.593 83.4242 56.2807C82.5557 60.189 80.9923 64.6185 81.5134 68.7006Z" fill="black"/>
<path d="M95.0624 43.1659C95.0624 43.1659 94.2807 42.0369 93.1516 42.3843C92.0225 42.7317 92.1094 45.511 94.107 45.511C96.1046 45.4241 95.0624 43.1659 95.0624 43.1659Z" fill="#FD88D0"/>
<path d="M94.5413 44.9029C94.3676 44.7292 94.0202 44.9898 94.1939 45.2503C94.5413 45.5109 94.9755 46.3794 94.4544 46.64C93.9333 46.9005 92.9779 46.2057 93.499 45.6846C93.6727 45.5109 93.3253 45.1635 93.1516 45.3372C92.4568 46.2057 93.4122 47.248 94.3676 47.0743C95.5835 46.9874 95.2361 45.5109 94.5413 44.9029Z" fill="#FFD357"/>
<path d="M80.2107 69.3955H79.8633C80.5581 57.9309 85.5087 43.7739 89.0697 39.8655C90.9805 37.781 92.8912 37.0862 94.194 36.8257C95.5837 36.5651 96.539 36.9125 96.539 36.9125L96.4522 37.1731C96.4522 37.1731 92.8912 36.1308 89.3303 40.0392C85.7693 43.9476 80.9055 58.0178 80.2107 69.3955Z" fill="black"/>
<path d="M98.0154 105.092C100.968 101.184 103.835 97.0147 102.966 96.4068C97.3205 93.0195 90.6329 91.1087 84.9006 89.6322C84.9874 89.5454 84.9874 89.4585 85.0743 89.2848C87.1588 85.3764 88.6353 79.2967 89.4169 73.217" stroke="white" stroke-width="0.5" stroke-miterlimit="10" stroke-linecap="round" stroke-linejoin="round"/>
<path d="M68.1381 98.4912C71.2648 101.01 76.6497 104.918 82.2952 107.958" stroke="white" stroke-width="0.5" stroke-miterlimit="10" stroke-linecap="round" stroke-linejoin="round"/>
<path d="M105.311 61.2314C106.788 69.8299 111.304 82.5104 113.041 86.853" stroke="white" stroke-width="0.5" stroke-miterlimit="10" stroke-linecap="round" stroke-linejoin="round"/>
<path d="M89.7643 113.256L85.7691 136.446" stroke="white" stroke-width="0.5" stroke-miterlimit="10" stroke-linecap="round" stroke-linejoin="round"/>
<path d="M132.844 154.946L137.36 122.636" stroke="white" stroke-width="0.5" stroke-miterlimit="10" stroke-linecap="round" stroke-linejoin="round"/>
<path d="M150.301 108.045C150.562 107.697 150.475 107.176 150.127 106.916L147.001 104.658C146.653 104.397 146.132 104.484 145.872 104.831C145.611 105.179 145.698 105.7 146.045 105.96L149.172 108.219C149.519 108.479 150.041 108.392 150.301 108.045Z" fill="#FD88D0"/>
<path d="M151.43 106.742C151.691 106.308 151.604 105.787 151.256 105.439L148.043 103.181C147.609 102.92 147.088 103.007 146.74 103.355C146.48 103.789 146.566 104.31 146.914 104.658L150.127 106.916C150.562 107.263 151.17 107.176 151.43 106.742Z" fill="#FD88D0"/>
<path d="M153.514 103.789C153.775 103.355 153.688 102.834 153.341 102.573L150.301 100.402C149.867 100.141 149.345 100.228 149.085 100.575C148.824 101.01 148.911 101.531 149.259 101.791L152.298 103.963C152.733 104.31 153.254 104.223 153.514 103.789Z" fill="#FD88D0"/>
<path d="M152.472 105.266C152.733 104.831 152.646 104.31 152.299 103.963L148.911 101.531C148.477 101.27 147.956 101.357 147.609 101.705C147.348 102.139 147.435 102.66 147.782 103.007L151.17 105.439C151.604 105.787 152.212 105.7 152.472 105.266Z" fill="#FD88D0"/>
<path d="M147.956 98.6648L154.904 99.1859C155.425 99.1859 155.773 99.6202 155.686 100.141C155.686 100.576 155.338 100.923 154.904 100.923L149.953 101.444L147.956 98.6648Z" fill="#FD88D0"/>
<path d="M149.432 106.482L146.914 104.658C146.566 104.397 146.045 104.484 145.785 104.831C145.524 105.179 145.611 105.7 145.958 105.96" stroke="#B74190" stroke-width="0.5" stroke-miterlimit="10" stroke-linecap="round" stroke-linejoin="round"/>
<path d="M148.043 103.181C147.609 102.92 147.088 103.007 146.74 103.355C146.48 103.789 146.566 104.31 146.914 104.658" stroke="#B74190" stroke-width="0.5" stroke-miterlimit="10" stroke-linecap="round" stroke-linejoin="round"/>
<path d="M153.341 102.573L150.301 100.402C149.867 100.141 149.345 100.228 149.085 100.575C148.824 101.01 148.911 101.531 149.259 101.791" stroke="#B74190" stroke-width="0.5" stroke-miterlimit="10" stroke-linecap="round" stroke-linejoin="round"/>
<path d="M151.343 103.268L148.911 101.531C148.477 101.27 147.956 101.357 147.609 101.705C147.348 102.139 147.435 102.66 147.782 103.007L150.562 105.005" stroke="#B74190" stroke-width="0.5" stroke-miterlimit="10" stroke-linecap="round" stroke-linejoin="round"/>
<path d="M42.2562 176.311L66.4013 147.997L75.1734 108.566" stroke="#4C4C4C" stroke-width="0.5" stroke-miterlimit="10"/>
<path d="M97.0602 200.804L91.6754 150.69" stroke="#333333" stroke-width="0.5" stroke-miterlimit="10"/>
</svg>
