<svg width="226" height="216" viewBox="0 0 226 216" fill="none" xmlns="http://www.w3.org/2000/svg">
<path d="M42.6501 103.778C42.3691 103.778 42.0995 103.885 41.9008 104.077C41.7021 104.268 41.5905 104.528 41.5905 104.799V108.91C41.6137 109.167 41.7358 109.406 41.9327 109.58C42.1296 109.754 42.387 109.85 42.6542 109.85C42.9213 109.85 43.1787 109.754 43.3756 109.58C43.5725 109.406 43.6946 109.167 43.7179 108.91V104.799C43.7157 104.528 43.6023 104.268 43.4023 104.076C43.2023 103.885 42.9319 103.778 42.6501 103.778Z" fill="#A3EDC1"/>
<path d="M41.5986 92.4364C41.5986 92.4364 41.5986 92.4364 41.5986 92.4988V96.6095C41.6219 96.8661 41.744 97.1049 41.9409 97.279C42.1378 97.453 42.3952 97.5495 42.6623 97.5495C42.9294 97.5495 43.1869 97.453 43.3838 97.279C43.5807 97.1049 43.7028 96.8661 43.726 96.6095V92.5066C43.7304 92.4599 43.7304 92.4129 43.726 92.3662L42.6583 93.6688L41.5986 92.4364Z" fill="#A3EDC1"/>
<path d="M65.8656 19.3105C59.7007 13.3666 51.3398 10.0273 42.6219 10.0273C33.904 10.0273 25.5431 13.3666 19.3782 19.3105C6.55718 31.6814 9.41259 49.5046 19.3782 64.1298C24.5228 71.6491 37.8373 87.8733 41.5986 92.4363L42.6178 93.6609L43.6856 92.3583C47.5359 87.6783 60.7533 71.4385 65.8656 64.1298C76.0011 49.6138 78.6947 31.6814 65.8656 19.3105ZM42.6178 55.8305C39.2079 55.8321 35.874 54.8583 33.0381 53.0325C30.2021 51.2066 27.9915 48.6107 26.6858 45.5731C25.3801 42.5355 25.0381 39.1927 25.703 35.9677C26.3678 32.7426 28.0097 29.7801 30.4209 27.455C32.8321 25.1299 35.9043 23.5467 39.2488 22.9056C42.5934 22.2644 46.0599 22.5943 49.21 23.8533C52.3601 25.1124 55.0522 27.244 56.9457 29.9787C58.8391 32.7134 59.849 35.9281 59.8474 39.2163C59.8474 43.6227 58.0321 47.8486 54.801 50.9643C51.5698 54.0801 47.1874 55.8305 42.6178 55.8305Z" fill="#FFD357"/>
<path d="M149.95 196.341C150.509 195.889 151.067 195.437 151.617 194.969H151.131C150.763 195.446 150.369 195.904 149.95 196.341Z" fill="#EDF1F4"/>
<path d="M27.6937 188.401H11.7018C12.8338 191.917 14.9068 195.084 17.7119 197.582C19.5166 199.162 21.8513 200.062 24.2882 200.117H40.2478C38.8321 200.073 37.4401 199.754 36.1547 199.181C34.8692 198.607 33.7166 197.79 32.7655 196.778C30.4508 194.384 28.7182 191.522 27.6937 188.401Z" fill="#363A54"/>
<path d="M132.947 194.961C131.444 192.958 130.266 190.746 129.453 188.401H113.501C114.318 190.771 115.51 193.005 117.036 195.023C119.52 198.206 122.699 200.117 126.08 200.117H142.039C138.593 200.117 135.439 198.182 132.947 194.961Z" fill="#363A54"/>
<path d="M191.423 80.0577C189.767 80.0005 188.149 79.9589 186.569 79.9329C188.187 80.0161 189.805 80.1097 191.423 80.2137C191.447 80.1591 191.431 80.1123 191.423 80.0577Z" fill="#8AA4F9"/>
<path d="M112.976 158.831C111.309 156.038 88.1264 163.784 80.5551 163.784H29.1092H28.1709C23.9808 163.589 18.4075 162.224 13.6593 160.859C8.75734 159.462 4.76139 158.113 4.05765 158.168C2.34279 158.285 1.05664 167.59 1.00001 170.344C0.927214 173.846 4.09 181.264 5.62691 184.641C6.62185 186.841 8.15067 188.401 10.6421 188.401H103.73C104.431 188.401 105.123 188.257 105.761 187.978C106.4 187.7 106.969 187.294 107.432 186.787C107.895 186.28 108.241 185.684 108.446 185.038C108.652 184.393 108.712 183.712 108.624 183.042C108.624 183.042 108.179 174.173 108.106 170.336C108.001 165.702 114.132 160.765 112.976 158.831ZM104.628 183.791H11.3944L11.4752 183.611L11.3944 183.791H5.23864C4.48636 182.09 3.5076 179.782 2.68252 177.465H14.1203L15.633 173.955C16.0147 173.071 16.6592 172.315 17.4855 171.783C18.3118 171.252 19.2827 170.968 20.276 170.968H80.814C81.5847 170.968 82.345 171.14 83.0364 171.468C83.7277 171.797 84.3317 172.274 84.8018 172.863L88.458 177.465H104.911C105.508 177.472 106.082 177.686 106.528 178.069C106.974 178.451 107.262 178.977 107.338 179.548L107.483 180.632C107.531 181.023 107.493 181.419 107.372 181.794C107.25 182.17 107.049 182.517 106.779 182.812C106.51 183.108 106.179 183.346 105.809 183.51C105.438 183.675 105.036 183.763 104.628 183.767V183.791Z" fill="#47C0FF"/>
<path d="M145.477 126.125C148.713 120.01 156.397 109.082 165.02 99.7763C169.666 94.9081 175.636 91.3949 182.25 89.6362C185.131 88.8067 188.094 88.2682 191.091 88.0294L192.863 87.928C192.485 85.3279 192.016 82.7513 191.455 80.1981C189.837 80.0941 188.219 80.0005 186.602 79.9173C164.497 78.8767 142.347 79.1215 120.272 80.6505C113.251 81.1029 88.6846 84.6129 77.1982 91.984C70.3064 96.391 58.1729 106.227 48.725 114.55C46.9454 116.11 45.2548 117.631 43.7179 119.042C42.9738 119.729 42.2619 120.384 41.5905 121.016L40.7816 121.796C39.9727 121.96 39.1638 122.155 38.2741 122.373C33.5257 123.566 29.0003 125.469 24.8625 128.013C24.8625 128.083 23.722 128.746 22.2821 129.682C21.0364 130.514 19.7746 131.45 18.4965 132.49C17.2427 133.652 16.4904 134.83 17.1214 135.672L22.1204 142.014L41.5905 145.134L42.3994 145.266H71.4631L93.4894 141.998L103.584 134.377C106.182 132.349 109.282 131.005 112.579 130.477L130.505 127.997C132.033 127.786 132.616 129.51 131.483 130.883L128.41 134.596C126.212 137.305 123.305 139.399 119.989 140.664L114.173 142.77L91.0546 151.14L67.5966 159.619H38.5653L32.5471 156.928L24.6603 153.378L19.6613 151.14L19.3458 150.999L9.67952 146.803C9.66431 146.747 9.6454 146.693 9.6229 146.639L6.93736 145.43C5.26647 149.49 4.28852 153.783 4.0415 158.144C4.72907 158.09 8.7412 159.439 13.6431 160.835C18.3914 162.185 23.9647 163.565 28.1547 163.76H29.0931H80.539C88.1103 163.76 111.277 156.015 112.96 158.807C114.116 160.742 107.985 165.679 108.066 170.312C108.139 174.15 108.583 183.019 108.583 183.019C108.672 183.689 108.611 184.369 108.406 185.015C108.2 185.661 107.855 186.257 107.392 186.764C106.929 187.271 106.359 187.677 105.721 187.955C105.083 188.233 104.39 188.377 103.69 188.377H129.154C128.164 185.002 127.62 181.519 127.536 178.011C127.536 177.585 127.536 177.156 127.536 176.724C127.536 166.709 130.941 158.004 135.989 153.324C138.163 151.168 141.122 149.912 144.24 149.822C153.461 149.822 160.935 161.849 160.935 176.693C160.946 180.418 160.451 184.129 159.463 187.73C160.83 186.357 162.157 184.961 163.459 183.534L163.136 124.947L164.041 124.885C153.113 125.649 145.477 126.125 145.477 126.125ZM138.246 121.507H45.902C47.091 120.127 48.8464 118.262 51.0142 116.11C58.6745 108.52 71.5117 97.3271 82.8929 90.9388H167.504C158.468 98.2475 145.057 112.21 138.246 121.507Z" fill="#00A8FF"/>
<path d="M164.47 182.41C177.209 168.045 186.221 150.963 190.759 132.576C190.602 132.454 190.472 132.303 190.377 132.131C190.283 131.959 190.226 131.771 190.209 131.577L190.153 130.743C190.131 130.375 190.26 130.013 190.513 129.737C190.766 129.461 191.122 129.292 191.504 129.268C191.948 127.201 192.312 125.119 192.676 123.028C182.541 123.73 172.405 124.393 164.139 124.932L164.47 182.41Z" fill="#00A8FF"/>
<path d="M177.542 114.908C178.006 115.033 178.415 115.299 178.707 115.668C178.999 116.037 179.158 116.488 179.16 116.952C179.158 116.488 178.999 116.037 178.707 115.668C178.415 115.299 178.006 115.033 177.542 114.908Z" fill="#00A8FF"/>
<path d="M178.683 117.459L156.365 119.019C156.298 119.022 156.231 119.012 156.168 118.99C156.104 118.967 156.047 118.933 155.998 118.889C155.948 118.844 155.909 118.791 155.882 118.731C155.855 118.672 155.84 118.608 155.839 118.543V121.117C155.839 121.409 155.902 121.699 156.024 121.966C156.145 122.234 156.323 122.475 156.545 122.673C156.768 122.872 157.031 123.024 157.317 123.12C157.603 123.216 157.907 123.254 158.209 123.231L177.138 121.811C177.691 121.77 178.208 121.528 178.585 121.135C178.961 120.741 179.17 120.225 179.168 119.69V116.944C179.172 117.074 179.124 117.2 179.034 117.296C178.943 117.393 178.817 117.451 178.683 117.459Z" fill="#00A8FF"/>
<path d="M144.215 149.876C141.101 149.968 138.145 151.224 135.973 153.378H142.039C150.064 153.378 156.6 163.846 156.6 176.779C156.623 180.74 155.967 184.677 154.658 188.432H158.848L159.479 187.816C160.467 184.214 160.962 180.504 160.951 176.779C160.919 161.904 153.445 149.876 144.215 149.876Z" fill="#2A2B3B"/>
<path d="M127.52 176.747C127.52 163.846 133.991 153.347 142.08 153.347H136.013C130.925 158.004 127.52 166.732 127.52 176.747Z" fill="#2A2B3B"/>
<path d="M129.17 188.401H129.453C128.284 185.056 127.641 181.562 127.544 178.034C127.631 181.542 128.177 185.025 129.17 188.401Z" fill="#2A2B3B"/>
<path d="M142.039 161.561C132.114 162.036 130.003 181.006 135.989 188.401C139.224 193.081 144.887 193.081 148.122 188.401C154.084 181.006 151.965 162.029 142.039 161.561ZM145.582 188.401C144.843 189.054 143.924 189.488 142.935 189.648C141.946 189.809 140.93 189.69 140.009 189.305C135.916 187.332 134.444 182.519 134.056 178.385C133.87 177.275 133.87 176.142 134.056 175.031C134.444 170.936 135.916 166.116 140.009 164.111C145.874 161.99 150.023 168.791 150.12 176.662C150.112 181.872 148.26 186.31 145.582 188.401Z" fill="#9DA5BF"/>
<path d="M138.246 121.507C145.057 112.186 158.468 98.2474 167.504 90.9387H82.8929C68.8666 99.1054 55.3903 111.149 45.902 121.507H138.246ZM82.9657 94.1134H140.397C141.481 98.9416 142.905 105.673 133.328 108.801C113.825 115.174 54.0071 117.053 54.0071 117.053C58.8282 111.43 69.8211 101.492 82.9657 94.1134Z" fill="#3F4261"/>
<path d="M192.709 105.47C189.862 105.104 184.992 103.91 182.824 102.35C181.134 101.118 181.206 98.4033 181.643 96.8433C182.08 95.2832 182.751 94.1132 187.969 94.1132H193.574C193.388 92.0462 193.138 89.987 192.838 87.9434C182.573 88.4582 172.672 91.703 164.996 99.7761C156.397 109.089 148.705 120.01 145.477 126.125C145.477 126.125 153.34 125.633 164.155 124.931C172.422 124.393 182.557 123.73 192.693 123.028C193.597 117.268 194.067 111.452 194.1 105.626L192.709 105.47ZM177.113 121.85L158.185 123.27C157.883 123.293 157.579 123.255 157.293 123.159C157.006 123.063 156.744 122.911 156.521 122.712C156.299 122.514 156.121 122.273 156 122.005C155.878 121.738 155.815 121.448 155.815 121.156V118.582C155.811 118.125 155.921 117.673 156.136 117.266C156.352 116.858 156.666 116.507 157.053 116.242L161.704 113.06C162.459 112.543 163.324 112.194 164.236 112.037C165.148 111.881 166.084 111.921 166.978 112.155L177.493 114.916C177.957 115.04 178.366 115.307 178.658 115.676C178.95 116.045 179.109 116.496 179.111 116.96V119.705C179.112 120.231 178.911 120.738 178.546 121.128C178.182 121.519 177.68 121.765 177.138 121.819L177.113 121.85Z" fill="#3F4261"/>
<path d="M88.4581 177.442L84.8018 172.84C84.3317 172.251 83.7277 171.773 83.0364 171.445C82.345 171.116 81.5847 170.945 80.814 170.944H20.2761C19.2828 170.944 18.3118 171.228 17.4855 171.76C16.6593 172.292 16.0147 173.047 15.633 173.932L14.1204 177.442L11.5157 183.588L11.4348 183.767H93.4894L88.4419 177.442H88.4581Z" fill="#3F4261"/>
<path d="M43.718 145.266H42.4075L41.5986 145.134L22.1285 142.014L19.7018 151.148L38.5895 159.626H67.6209L91.0789 151.148L93.5056 142.006L71.4793 145.274L43.718 145.266Z" fill="#3F4261"/>
<path d="M142.039 163.76C141.336 163.769 140.642 163.918 140.001 164.197C148.017 168.011 148.017 185.476 140.001 189.306C146.513 191.575 150.153 183.206 150.104 176.747C150.112 169.579 146.496 163.768 142.039 163.76Z" fill="#3F4261"/>
<path d="M142.039 165.578C141.454 165 140.763 164.532 140.001 164.197L139.896 164.252L139.451 164.47L139.208 164.618L138.788 164.883L138.553 165.063C138.292 165.265 138.046 165.484 137.817 165.718L137.59 165.936C137.493 166.038 137.396 166.163 137.291 166.28L137.008 166.623L136.741 166.989C136.644 167.122 136.555 167.255 136.466 167.387L136.223 167.777L135.956 168.245C135.892 168.378 135.819 168.503 135.754 168.635C135.69 168.768 135.568 169.025 135.479 169.22L135.334 169.563C135.196 169.875 135.075 170.203 134.962 170.538L134.889 170.78C134.8 171.046 134.719 171.319 134.646 171.56C134.606 171.693 134.581 171.818 134.549 171.95C134.517 172.083 134.436 172.426 134.379 172.676C134.323 172.925 134.331 172.964 134.298 173.105C134.266 173.245 134.217 173.596 134.185 173.885C134.153 174.173 134.185 174.173 134.128 174.322C134.072 174.47 134.072 174.829 134.047 175.102C134.509 172.34 136.07 170.304 137.938 170.304C140.163 170.304 141.983 173.214 141.983 176.794C141.983 180.374 140.171 183.292 137.938 183.292C136.07 183.292 134.509 181.256 134.047 178.487C134.047 178.744 134.096 179.009 134.128 179.267L134.177 179.68L134.298 180.46C134.298 180.601 134.355 180.741 134.379 180.881L134.549 181.622C134.549 181.747 134.606 181.872 134.646 181.997C134.719 182.278 134.8 182.558 134.889 182.831L134.962 183.05C135.075 183.393 135.204 183.721 135.334 184.033C135.374 184.142 135.423 184.235 135.471 184.345C135.52 184.454 135.657 184.766 135.762 184.969C135.868 185.171 135.884 185.203 135.948 185.32C136.036 185.496 136.133 185.668 136.24 185.834C136.304 185.951 136.377 186.068 136.45 186.178C136.523 186.287 136.66 186.497 136.773 186.646L136.992 186.95C137.113 187.114 137.251 187.262 137.38 187.418C137.51 187.574 137.501 187.566 137.574 187.636C137.768 187.847 137.971 188.05 138.173 188.229L138.367 188.377L138.496 188.487L138.828 188.736C138.917 188.8 139.008 188.86 139.103 188.916C139.233 189.001 139.37 189.079 139.508 189.157L139.815 189.306C139.875 189.34 139.937 189.371 140.001 189.399C140.753 189.051 141.439 188.584 142.031 188.019C144.409 185.756 146.003 181.607 146.003 176.849C146.003 172.091 144.418 167.84 142.039 165.578Z" fill="#5B607C"/>
<path d="M134.007 177.995C134.007 177.582 133.967 177.169 133.967 176.755C133.967 176.342 133.967 175.921 134.007 175.507C134.007 175.382 134.007 175.265 134.007 175.141V175.07C133.824 176.181 133.824 177.313 134.007 178.424V178.339V177.995Z" fill="#6E748E"/>
<path d="M134.007 175.507C134.007 175.382 134.007 175.265 134.007 175.141C134.031 175.265 134.015 175.39 134.007 175.507Z" fill="#6E748E"/>
<path d="M134.007 175.507C134.007 175.921 133.967 176.334 133.967 176.755C133.967 177.177 133.967 177.582 134.007 177.996C134.007 177.582 133.967 177.169 133.967 176.748C133.967 176.326 133.983 175.921 134.007 175.507Z" fill="#6E748E"/>
<path d="M134.031 178.339V178.44C134.031 178.44 134.039 178.378 134.031 178.339Z" fill="#6E748E"/>
<path d="M134.048 175.055V175.141C134.044 175.112 134.044 175.083 134.048 175.055Z" fill="#6E748E"/>
<path d="M134.007 175.507C134.007 175.921 133.967 176.334 133.967 176.747C133.967 177.161 133.967 177.582 134.007 177.996V178.339C134.007 178.378 134.007 178.409 134.007 178.44C134.468 181.209 136.029 183.245 137.898 183.245C140.122 183.245 141.942 180.336 141.942 176.747C141.942 173.159 140.13 170.258 137.898 170.258C136.029 170.258 134.468 172.294 134.007 175.055C134.003 175.083 134.003 175.112 134.007 175.141C134.031 175.265 134.015 175.39 134.007 175.507Z" fill="#6E748E"/>
<path d="M41.2751 112.147L30.7594 114.908C30.2963 115.034 29.888 115.301 29.5962 115.669C29.3044 116.038 29.1448 116.488 29.1416 116.952V119.698C29.1418 120.233 29.3508 120.748 29.727 121.141C30.1032 121.534 30.619 121.776 31.1719 121.819L38.3064 122.358C39.1638 122.139 39.997 121.944 40.814 121.78L41.6229 121C42.2943 120.369 43.0061 119.713 43.7503 119.027C45.2872 117.615 46.9859 116.102 48.7574 114.534L46.5814 113.044C45.8217 112.524 44.9512 112.173 44.0333 112.018C43.1153 111.863 42.1731 111.907 41.2751 112.147Z" fill="#0094E0"/>
<path d="M10.2457 136.14C8.49036 138.09 6.20118 141.156 6.95345 145.43L9.639 146.639C8.97374 144.9 8.89448 143.003 9.4125 141.218C9.99687 139.384 10.9545 137.68 12.2295 136.207C13.5045 134.734 15.0713 133.52 16.8382 132.638C17.2103 132.973 16.3043 133.504 16.0293 134.533C15.949 134.927 15.9535 135.332 16.0426 135.724C16.1317 136.116 16.3033 136.486 16.547 136.811L21.5945 143.831L19.6612 151.132L19.3458 150.991L19.6612 151.132L22.0879 141.998L17.0889 135.657C16.458 134.798 17.2103 133.636 18.4641 132.474C19.6408 131.436 20.9073 130.496 22.2497 129.666C23.6895 128.73 24.8544 128.106 24.8301 127.997C19.4186 129.666 11.7826 134.447 10.2457 136.14Z" fill="#0094E0"/>
<path d="M130.505 127.989L112.579 130.47C109.282 130.997 106.182 132.341 103.584 134.37L93.4894 141.99L91.0627 151.132L93.0122 143.831L101.101 137.739C103.174 136.115 105.649 135.04 108.284 134.619L122.602 132.638C123.823 132.466 124.284 133.839 123.411 134.939L120.984 137.903C119.233 140.065 116.915 141.738 114.27 142.747L120.086 140.641C123.402 139.376 126.309 137.281 128.507 134.572L131.58 130.86C132.616 129.502 132.042 127.81 130.505 127.989Z" fill="#0094E0"/>
<path d="M177.542 114.908L167.026 112.147C166.132 111.913 165.196 111.873 164.284 112.03C163.372 112.186 162.508 112.535 161.752 113.052L157.117 116.234C156.731 116.5 156.416 116.851 156.201 117.258C155.985 117.666 155.875 118.117 155.88 118.574C155.881 118.639 155.895 118.703 155.922 118.763C155.95 118.822 155.989 118.875 156.038 118.92C156.087 118.964 156.145 118.999 156.208 119.021C156.271 119.043 156.338 119.053 156.405 119.05L178.723 117.49C178.855 117.48 178.977 117.422 179.066 117.328C179.155 117.234 179.203 117.111 179.2 116.983C179.203 116.509 179.041 116.047 178.741 115.671C178.441 115.295 178.019 115.027 177.542 114.908Z" fill="#0094E0"/>
<path d="M122.561 132.654L108.244 134.635C105.609 135.055 103.133 136.131 101.061 137.755L92.9717 143.847L91.0222 151.148L114.141 142.778C116.786 141.769 119.104 140.096 120.854 137.934L123.281 134.97C124.244 133.855 123.783 132.49 122.561 132.654Z" fill="#E5ECF9"/>
<path d="M16.0455 134.533C16.3043 133.504 17.2103 132.973 16.8544 132.638C15.0875 133.521 13.5207 134.734 12.2457 136.207C10.9707 137.68 10.0131 139.384 9.42871 141.218C8.91068 143.003 8.98994 144.9 9.6552 146.639C9.6777 146.692 9.69662 146.747 9.71183 146.803L19.4186 150.999L19.7341 151.14L21.6673 143.839L16.6198 136.819C16.3653 136.497 16.1828 136.128 16.084 135.734C15.9851 135.341 15.972 134.932 16.0455 134.533Z" fill="#E5ECF9"/>
<path d="M107.37 179.524C107.294 178.953 107.007 178.428 106.561 178.045C106.115 177.663 105.54 177.448 104.943 177.442H88.4419L93.4894 183.768H104.628C105.041 183.767 105.449 183.682 105.826 183.518C106.202 183.354 106.538 183.115 106.811 182.816C107.084 182.518 107.288 182.166 107.41 181.786C107.531 181.405 107.567 181.004 107.516 180.608L107.37 179.524Z" fill="#E5ECF9"/>
<path d="M9.77653 177.442H2.6825C3.49139 179.782 4.48634 182.067 5.23861 183.768H11.3943L11.4752 183.588L14.1446 177.442H9.77653Z" fill="#E5ECF9"/>
<path d="M191.504 129.292C191.122 129.316 190.766 129.484 190.513 129.76C190.26 130.037 190.131 130.398 190.153 130.766L190.209 131.601C190.226 131.794 190.283 131.983 190.377 132.155C190.472 132.326 190.602 132.477 190.759 132.599C191.026 131.499 191.285 130.399 191.52 129.284L191.504 129.292Z" fill="#5C7DE5"/>
<path d="M164.155 124.931H164.025L163.119 124.994L163.443 183.58C163.791 183.198 164.13 182.8 164.47 182.426L164.155 124.924V124.931Z" fill="#0094E0"/>
<path d="M27.6936 188.401C28.7276 191.525 30.4714 194.387 32.7977 196.778C33.7489 197.79 34.9015 198.607 36.1869 199.181C37.4724 199.754 38.8644 200.073 40.2801 200.117C43.2568 200.117 46.0232 198.674 48.3205 196.217C50.3528 193.93 51.8976 191.279 52.8665 188.416H27.6936V188.401Z" fill="#4D506D"/>
<path d="M142.039 153.378C134.023 153.378 127.479 163.846 127.479 176.779C127.479 177.205 127.479 177.634 127.479 178.066C127.576 181.594 128.22 185.088 129.388 188.432C130.201 190.777 131.379 192.989 132.883 194.992C135.374 198.213 138.545 200.148 141.975 200.148C143.65 200.132 145.292 199.688 146.731 198.861C147.799 198.081 148.85 197.215 149.886 196.373C150.304 195.935 150.698 195.477 151.067 195C152.57 192.994 153.748 190.779 154.561 188.432C155.87 184.677 156.526 180.74 156.502 176.779C156.567 163.846 150.064 153.378 142.039 153.378ZM148.09 188.401C146.472 190.608 144.345 191.934 142.039 191.934C139.734 191.934 137.631 190.608 135.989 188.401C133.918 185.616 132.6 181.435 132.6 176.747C132.6 168.362 136.83 161.561 142.039 161.561C147.249 161.561 151.455 168.37 151.455 176.747C151.455 181.435 150.161 185.616 148.09 188.401Z" fill="#4D506D"/>
<path d="M140.381 94.1133H82.9495C69.8211 101.492 58.8282 111.429 53.991 117.053C53.991 117.053 113.849 115.174 133.311 108.801C142.889 105.673 141.465 98.9493 140.381 94.1133Z" fill="#4D506D"/>
<path d="M193.599 94.1133H187.993C182.776 94.1133 182.137 95.1741 181.667 96.8433C181.198 98.5125 181.158 101.118 182.848 102.35C185.016 103.91 189.886 105.104 192.733 105.47L194.1 105.626C194.1 105.384 194.1 105.143 194.1 104.893C194.108 101.289 193.93 97.6623 193.599 94.1133Z" fill="#4D506D"/>
<path d="M207.358 109.62C206.232 114.003 205.75 118.516 205.926 123.028C205.951 123.239 206.054 123.433 206.216 123.577C206.378 123.72 206.588 123.802 206.808 123.808C207.014 123.822 207.217 123.759 207.376 123.633C207.536 123.507 207.639 123.327 207.665 123.13C207.722 122.35 207.843 121.749 207.932 120.992C208.005 122.053 208.175 123.449 208.329 124.487C208.371 124.653 208.47 124.802 208.609 124.909C208.747 125.016 208.919 125.076 209.097 125.08C209.184 125.088 209.271 125.08 209.354 125.055C209.437 125.029 209.514 124.988 209.58 124.933C209.646 124.879 209.699 124.811 209.737 124.736C209.775 124.661 209.797 124.578 209.801 124.495C209.801 123.488 209.801 122.155 209.841 121.109C209.946 122.123 210.092 123.13 210.27 124.112C210.329 124.326 210.467 124.511 210.657 124.633C210.848 124.755 211.079 124.806 211.305 124.775C211.499 124.774 211.685 124.699 211.824 124.569C211.962 124.438 212.043 124.26 212.05 124.073C212.05 122.927 212.05 121.733 212.147 120.595C212.219 121 212.316 121.827 212.389 122.49C212.396 122.612 212.433 122.731 212.497 122.837C212.56 122.943 212.649 123.033 212.755 123.1C212.861 123.166 212.983 123.208 213.109 123.222C213.235 123.235 213.362 123.219 213.481 123.176C213.655 123.128 213.806 123.025 213.912 122.883C214.017 122.742 214.071 122.57 214.064 122.396C214.096 118.355 214.366 114.318 214.873 110.306C212.356 110.22 209.847 109.991 207.358 109.62Z" fill="#FCCA57"/>
<path d="M207.358 109.62C206.42 111.055 205.522 112.514 204.664 113.98C203.775 115.158 202.909 116.32 202.06 117.529C201.917 117.738 201.854 117.988 201.88 118.237C201.907 118.485 202.021 118.718 202.205 118.894C202.296 118.984 202.404 119.053 202.525 119.099C202.645 119.145 202.774 119.166 202.903 119.16C203.033 119.154 203.159 119.121 203.274 119.065C203.39 119.008 203.491 118.929 203.572 118.832L206.048 116.624L206.735 116.578C207.426 116.508 208.082 116.252 208.627 115.838C209.173 115.423 209.585 114.869 209.817 114.238C210.197 113.302 210.626 112.365 211.022 111.437C209.769 110.892 208.546 110.286 207.358 109.62Z" fill="#FCCA57"/>
<path d="M212.122 120.626C212.122 119.464 212.227 118.286 212.349 117.124" stroke="#B78829" stroke-width="0.5" stroke-linecap="round" stroke-linejoin="round"/>
<path d="M209.841 121.141C209.874 119.83 209.963 118.504 210.108 117.163" stroke="#B78829" stroke-width="0.5" stroke-linecap="round" stroke-linejoin="round"/>
<path d="M207.932 121.024C208.013 119.76 208.151 118.489 208.329 117.217" stroke="#B78829" stroke-width="0.5" stroke-linecap="round" stroke-linejoin="round"/>
<path d="M203.456 173.363L194.26 179.099L206.813 197.81L216.009 192.074L203.456 173.363Z" fill="#FCCA57"/>
<path d="M203.204 195.003L213.643 188.491L217.25 193.868L201.229 203.862C200.755 203.156 200.43 202.366 200.272 201.538C200.115 200.71 200.129 199.86 200.312 199.038C200.496 198.215 200.845 197.435 201.342 196.743C201.838 196.05 202.471 195.459 203.204 195.003Z" fill="#00A8FF"/>
<path d="M217.224 193.877L201.23 203.855L201.946 204.922L217.94 194.945L217.224 193.877Z" fill="#0094E0"/>
<path d="M212.608 187.001L203.412 192.737L206.817 197.813L216.013 192.076L212.608 187.001Z" fill="#00A8FF"/>
<path d="M203.694 193.713L207.576 194.555" stroke="white" stroke-width="0.5" stroke-linecap="round" stroke-linejoin="round"/>
<path d="M206.08 192.262L205.198 196.006" stroke="white" stroke-width="0.5" stroke-linecap="round" stroke-linejoin="round"/>
<path d="M215.043 182.41C215.043 182.41 210.772 189.352 195.629 192.551C195.629 192.551 155.483 153.371 163.872 103.723H190.282C190.282 103.723 184.693 141.998 215.043 182.41Z" fill="#323654"/>
<path d="M199.034 103.778C199.032 110.158 197.97 116.496 195.888 122.552L186.319 150.368L172.122 197.043C172.122 197.043 165.425 185.632 150.282 191.497L162.683 146.639L173.732 102.569L199.034 103.778Z" fill="#3F4261"/>
<path d="M137.138 93.4191L117.951 92.9589C117.776 92.9548 117.61 92.8846 117.489 92.7634C117.368 92.6422 117.301 92.4798 117.303 92.3115C117.303 92.1497 117.366 91.9937 117.48 91.875C117.594 91.7563 117.751 91.6837 117.918 91.6719L119.868 91.5003L117.158 91.2819C117.019 91.2685 116.89 91.2061 116.796 91.1068C116.702 91.0075 116.649 90.8782 116.648 90.7437C116.65 90.6067 116.705 90.4754 116.802 90.3757C116.9 90.276 117.032 90.2153 117.174 90.2055L119.86 90.0573L117.214 89.8155C117.038 89.7996 116.874 89.7169 116.761 89.5853C116.647 89.4537 116.592 89.2841 116.608 89.1135C116.621 88.9592 116.691 88.8145 116.805 88.7058C116.92 88.597 117.07 88.5313 117.231 88.5207L120.369 88.3257L118.363 88.0527C118.264 88.0394 118.169 88.0071 118.083 87.9576C117.997 87.9081 117.923 87.8425 117.864 87.7646C117.805 87.6867 117.763 87.5981 117.74 87.5042C117.718 87.4103 117.715 87.313 117.732 87.2181C117.761 87.0534 117.848 86.9037 117.98 86.7952C118.112 86.6868 118.279 86.6266 118.452 86.6252L137.574 86.9918L137.138 93.4191Z" fill="#FCCA57"/>
<path d="M137.704 86.0791L125.061 84.9091L121.396 84.0589C121.192 84.0007 120.971 84.023 120.783 84.1209C120.595 84.2188 120.455 84.3844 120.393 84.5815C120.318 84.7874 120.33 85.0137 120.427 85.2109C120.524 85.4082 120.698 85.5605 120.911 85.6345L123.508 86.9216L123.775 87.452C124.039 87.9717 124.45 88.4087 124.961 88.7124C125.472 89.0161 126.062 89.174 126.662 89.168H137.429L137.704 86.0791Z" fill="#FCCA57"/>
<path d="M126.662 89.168C126.062 89.1741 125.472 89.0161 124.961 88.7124C124.45 88.4088 124.039 87.9717 123.774 87.452L123.508 86.9216L122.812 86.5784" stroke="#CC9129" stroke-width="0.5" stroke-linecap="round" stroke-linejoin="round"/>
<path d="M120.369 88.3256L122.246 88.2788" stroke="#CC9129" stroke-width="0.5" stroke-linecap="round" stroke-linejoin="round"/>
<path d="M119.859 90.0574L122.076 90.0496" stroke="#CC9129" stroke-width="0.5" stroke-linecap="round" stroke-linejoin="round"/>
<path d="M119.868 91.5004L121.89 91.4458" stroke="#CC9129" stroke-width="0.5" stroke-linecap="round" stroke-linejoin="round"/>
<path d="M124.988 89.5503L123.257 91.5159" stroke="#CC9129" stroke-width="0.5" stroke-linecap="round" stroke-linejoin="round"/>
<path d="M150.314 191.498C150.412 194.22 170.925 199.766 172.155 197.043C173.028 195.054 169.202 191.583 162.885 190.07C155.273 188.253 150.266 190.21 150.314 191.498Z" fill="black"/>
<path d="M181.384 63.0066C168.717 60.2921 159.22 77.1247 154.383 85.931C149.546 94.7373 154.577 100.018 158.662 98.5047C171.516 93.7623 189.085 64.629 181.384 63.0066Z" fill="#FD88D0"/>
<path d="M129.364 82.9904C138.739 82.2104 151.916 83.0762 160.102 82.8032C165.845 82.616 160.037 98.4969 158.153 98.8323C156.268 99.1677 138.181 100.392 127.261 94.7763C127.237 94.7763 127.528 83.1386 129.364 82.9904Z" fill="#FD88D0"/>
<path d="M204.244 107.03C204.244 107.03 201.817 69.122 190.331 62.7337C182.954 58.6153 171.564 62.2345 169.024 67.64C164.066 78.1779 161.178 106.36 161.178 106.36C161.178 106.36 185.154 112.35 204.244 107.03Z" fill="#FD88D0"/>
<path d="M177.582 56.1347C177.582 56.1347 177.849 60.8147 177.995 61.7898C178.035 62.0784 182.411 61.8678 182.986 61.3061C182.467 59.6298 182.238 57.8828 182.306 56.1347C182.306 53.9975 177.582 56.1347 177.582 56.1347Z" fill="#FCCA57"/>
<path d="M182.905 52.7026C182.905 52.7026 181.878 58.4434 178.124 58.5527C174.371 58.6619 176.717 50.7526 177.315 50.5264C177.914 50.3002 181.514 49.5357 182.905 52.7026Z" fill="#FCCA57"/>
<path d="M178.319 47.7262C178.814 47.4716 179.384 47.3864 179.936 47.4844C180.624 47.6092 181.053 48.1162 181.724 48.1864C182.027 48.1739 182.33 48.2271 182.609 48.3421C182.888 48.4572 183.137 48.6311 183.337 48.8511C183.537 49.0711 183.684 49.3316 183.766 49.6135C183.848 49.8953 183.863 50.1913 183.811 50.4797C183.853 50.5148 183.891 50.554 183.924 50.5967C184.466 51.4937 184.814 52.4297 184.272 53.2877C184.871 54.3173 183.957 55.6277 183.269 56.5091C183.218 56.5713 183.151 56.6197 183.075 56.6495C183.019 56.7402 182.938 56.8138 182.841 56.8617C182.744 56.9096 182.635 56.9298 182.526 56.92C182.418 56.9102 182.314 56.8707 182.228 56.8062C182.142 56.7418 182.076 56.6549 182.039 56.5559C181.603 55.3001 181.983 53.7947 181.497 52.6559C181.176 52.1174 180.794 51.6151 180.357 51.1583C180.088 51.243 179.802 51.2673 179.522 51.2295C179.241 51.1916 178.974 51.0926 178.739 50.9399C177.502 51.5717 175.504 51.2987 175.115 49.8089C174.606 47.8198 176.806 47.2192 178.319 47.7262Z" fill="black"/>
<path d="M180.972 53.7478C181.122 53.4622 181.354 53.2246 181.641 53.064C181.929 52.9034 182.258 52.8266 182.59 52.843C183.625 52.999 183.868 55.3858 182.104 55.5886C180.341 55.7914 180.972 53.7478 180.972 53.7478Z" fill="#FCCA57"/>
<path d="M186.399 65.1127C185.016 77.5538 201.226 86.4693 210.836 90.1198C220.446 93.7702 224.474 81.3759 222.727 78.9657C220.98 76.5554 187.233 57.609 186.399 65.1127Z" fill="#FD88D0"/>
<path d="M201.833 112.092C201.89 103.029 207.139 85.7749 210.399 81.2119C213.659 76.6488 224.531 81.7969 224.709 83.6455C224.887 85.4941 223.172 106.469 216.369 116.406C216.369 116.437 201.825 113.871 201.833 112.092Z" fill="#FD88D0"/>
<path d="M191.722 63.6619C191.722 63.6619 215.738 70.8301 222.864 78.9266C229.991 87.0231 217.113 114.027 216.393 116.437C216.393 116.437 224.296 84.9483 220.13 81.1341C215.965 77.3198 191.722 63.6619 191.722 63.6619Z" fill="#FD88D0"/>
<path d="M168.636 68.5291C165.619 75.6427 163.411 89.1213 162.213 97.9276" stroke="white" stroke-width="0.5" stroke-linecap="round" stroke-linejoin="round"/>
<path d="M186.327 66.0251C185.938 74.9094 194.48 81.9295 202.739 86.4068" stroke="white" stroke-width="0.5" stroke-linecap="round" stroke-linejoin="round"/>
<path d="M162.852 190.07C160.831 189.57 158.751 189.324 156.664 189.337L153.34 200.093L163.855 203.112L167.398 191.661C165.947 190.975 164.423 190.441 162.852 190.07Z" fill="#FCCA57"/>
<path d="M202.043 108.7C202.442 105.353 203.061 102.033 203.896 98.7622" stroke="white" stroke-width="0.5" stroke-linecap="round" stroke-linejoin="round"/>
<path d="M153.226 195.608L165.109 199.024L163.207 205.176L144.952 199.928C145.199 199.119 145.61 198.366 146.16 197.711C146.711 197.056 147.39 196.512 148.158 196.111C148.927 195.71 149.77 195.459 150.64 195.372C151.509 195.286 152.388 195.366 153.226 195.608Z" fill="#00A8FF"/>
<path d="M163.216 205.167L144.961 199.919L144.584 201.138L162.84 206.386L163.216 205.167Z" fill="#0094E0"/>
<path d="M165.647 197.308L155.151 194.291L153.36 200.084L163.856 203.101L165.647 197.308Z" fill="#00A8FF"/>
<path d="M154.553 195.14L156.405 198.541" stroke="white" stroke-width="0.5" stroke-linecap="round" stroke-linejoin="round"/>
<path d="M157.239 195.943L153.712 197.73" stroke="white" stroke-width="0.5" stroke-linecap="round" stroke-linejoin="round"/>
<path d="M170.286 116.437L168.838 122.217" stroke="white" stroke-width="0.5" stroke-linecap="round" stroke-linejoin="round"/>
<path d="M167.9 125.961L162.715 146.639" stroke="white" stroke-width="0.5" stroke-linecap="round" stroke-linejoin="round"/>
<path d="M193.251 130.204L186.319 150.368L178.674 175.507" stroke="white" stroke-width="0.5" stroke-linecap="round" stroke-linejoin="round"/>
<path d="M163.524 129.284C162.56 122.344 162.457 115.319 163.216 108.356" stroke="white" stroke-width="0.5" stroke-linecap="round" stroke-linejoin="round"/>
<path d="M35.8796 123.02C35.8796 123.02 38.9211 122.1 40.7816 121.78L50.0839 113.348" stroke="white" stroke-width="0.75" stroke-linecap="round" stroke-linejoin="round"/>
<path d="M207.115 88.5752L208.361 85.073" stroke="white" stroke-width="0.5" stroke-linecap="round" stroke-linejoin="round"/>
</svg>
