<svg width="224" height="216" viewBox="0 0 224 216" fill="none" xmlns="http://www.w3.org/2000/svg">
<path d="M110.734 0H27.6154C17.6658 0 9.59998 7.77773 9.59998 17.372V189.773C9.59998 199.367 17.6658 207.145 27.6154 207.145H110.734C120.683 207.145 128.749 199.367 128.749 189.773V17.372C128.749 7.77773 120.683 0 110.734 0Z" fill="#2A2B3C"/>
<path d="M111.263 8.09839H27.0854C21.4862 8.09839 16.9473 12.4753 16.9473 17.8744V178.276C16.9473 183.675 21.4862 188.052 27.0854 188.052H111.263C116.863 188.052 121.402 183.675 121.402 178.276V17.8744C121.402 12.4753 116.863 8.09839 111.263 8.09839Z" fill="#F2F2F3"/>
<path d="M83.4635 1.37109H54.8949C52.6562 1.37109 50.8414 3.12108 50.8414 5.2798V10.3041C50.8414 12.4628 52.6562 14.2128 54.8949 14.2128H83.4635C85.7022 14.2128 87.517 12.4628 87.517 10.3041V5.2798C87.517 3.12108 85.7022 1.37109 83.4635 1.37109Z" fill="#2A2B3C"/>
<path d="M111.007 40.1516H27.3416C25.4395 40.1516 23.8975 41.6385 23.8975 43.4727V57.5151C23.8975 59.3493 25.4395 60.8363 27.3416 60.8363H111.007C112.91 60.8363 114.452 59.3493 114.452 57.5151V43.4727C114.452 41.6385 112.91 40.1516 111.007 40.1516Z" fill="white"/>
<path d="M41.0919 43.0215H28.0219C27.3537 43.0215 26.812 43.5438 26.812 44.1881V56.7914C26.812 57.4357 27.3537 57.958 28.0219 57.958H41.0919C41.7601 57.958 42.3018 57.4357 42.3018 56.7914V44.1881C42.3018 43.5438 41.7601 43.0215 41.0919 43.0215Z" fill="#00A8FF"/>
<path d="M96.3479 49.919H47.4943C47.1027 49.919 46.715 49.8445 46.3533 49.6997C45.9917 49.555 45.6632 49.3428 45.3867 49.0754C45.1103 48.8081 44.8912 48.4907 44.7422 48.1415C44.5932 47.7924 44.517 47.4183 44.5182 47.0407C44.5182 46.2796 44.8318 45.5496 45.3899 45.0114C45.948 44.4733 46.705 44.1709 47.4943 44.1709H96.3479C96.7388 44.1709 97.1258 44.2451 97.4868 44.3893C97.8479 44.5336 98.176 44.745 98.4523 45.0114C98.7287 45.2779 98.9479 45.5943 99.0975 45.9425C99.247 46.2906 99.324 46.6638 99.324 47.0407C99.3252 47.4183 99.2491 47.7924 99.1 48.1415C98.951 48.4907 98.7319 48.8081 98.4555 49.0754C98.179 49.3428 97.8505 49.555 97.4889 49.6997C97.1272 49.8445 96.7395 49.919 96.3479 49.919Z" fill="#CACACE"/>
<path d="M79.9663 55.6587H46.3021C45.8337 55.6587 45.3844 55.4793 45.0532 55.1599C44.722 54.8405 44.5359 54.4073 44.5359 53.9556C44.5359 53.5039 44.722 53.0707 45.0532 52.7513C45.3844 52.4319 45.8337 52.2524 46.3021 52.2524H79.9663C80.4347 52.2524 80.8839 52.4319 81.2152 52.7513C81.5464 53.0707 81.7325 53.5039 81.7325 53.9556C81.7325 54.4073 81.5464 54.8405 81.2152 55.1599C80.8839 55.4793 80.4347 55.6587 79.9663 55.6587Z" fill="#CACACE"/>
<path d="M111.007 64.2681H27.3416C25.4395 64.2681 23.8975 65.755 23.8975 67.5892V81.6316C23.8975 83.4658 25.4395 84.9527 27.3416 84.9527H111.007C112.91 84.9527 114.452 83.4658 114.452 81.6316V67.5892C114.452 65.755 112.91 64.2681 111.007 64.2681Z" fill="white"/>
<path d="M41.0919 67.1462H28.0219C27.3537 67.1462 26.812 67.6686 26.812 68.3129V80.9161C26.812 81.5605 27.3537 82.0828 28.0219 82.0828H41.0919C41.7601 82.0828 42.3018 81.5605 42.3018 80.9161V68.3129C42.3018 67.6686 41.7601 67.1462 41.0919 67.1462Z" fill="#EA3E72"/>
<path d="M77.8644 68.2788H46.9202C45.5936 68.2788 44.5182 69.3158 44.5182 70.5951V71.7106C44.5182 72.9899 45.5936 74.0269 46.9202 74.0269H77.8644C79.1911 74.0269 80.2665 72.9899 80.2665 71.7106V70.5951C80.2665 69.3158 79.1911 68.2788 77.8644 68.2788Z" fill="#CACACE"/>
<path d="M66.9139 76.3347H45.9488C45.1587 76.3347 44.5182 76.9524 44.5182 77.7143V78.404C44.5182 79.1659 45.1587 79.7836 45.9488 79.7836H66.9139C67.704 79.7836 68.3445 79.1659 68.3445 78.404V77.7143C68.3445 76.9524 67.704 76.3347 66.9139 76.3347Z" fill="#CACACE"/>
<path d="M111.007 88.3931H27.3416C25.4395 88.3931 23.8975 89.88 23.8975 91.7142V105.757C23.8975 107.591 25.4395 109.078 27.3416 109.078H111.007C112.91 109.078 114.452 107.591 114.452 105.757V91.7142C114.452 89.88 112.91 88.3931 111.007 88.3931Z" fill="white"/>
<path d="M41.0919 91.2712H28.0219C27.3537 91.2712 26.812 91.7936 26.812 92.4379V105.041C26.812 105.685 27.3537 106.208 28.0219 106.208H41.0919C41.7601 106.208 42.3018 105.685 42.3018 105.041V92.4379C42.3018 91.7936 41.7601 91.2712 41.0919 91.2712Z" fill="#00A8FF"/>
<path d="M96.3479 98.1604H47.4943C46.705 98.1604 45.948 97.8581 45.3899 97.3199C44.8318 96.7817 44.5182 96.0518 44.5182 95.2907C44.517 94.9131 44.5932 94.539 44.7422 94.1898C44.8912 93.8407 45.1103 93.5233 45.3867 93.2559C45.6632 92.9885 45.9917 92.7764 46.3533 92.6316C46.715 92.4869 47.1027 92.4124 47.4943 92.4124H96.3479C96.7395 92.4124 97.1272 92.4869 97.4889 92.6316C97.8505 92.7764 98.179 92.9885 98.4555 93.2559C98.7319 93.5233 98.951 93.8407 99.1 94.1898C99.2491 94.539 99.3252 94.9131 99.324 95.2907C99.324 95.6675 99.247 96.0407 99.0975 96.3889C98.9479 96.7371 98.7287 97.0534 98.4523 97.3199C98.176 97.5864 97.8479 97.7978 97.4868 97.942C97.1258 98.0862 96.7388 98.1604 96.3479 98.1604Z" fill="#CACACE"/>
<path d="M79.9663 103.892H46.3021C45.8337 103.892 45.3844 103.712 45.0532 103.393C44.722 103.073 44.5359 102.64 44.5359 102.188C44.5359 101.737 44.722 101.304 45.0532 100.984C45.3844 100.665 45.8337 100.485 46.3021 100.485H79.9663C80.4347 100.485 80.8839 100.665 81.2152 100.984C81.5464 101.304 81.7325 101.737 81.7325 102.188C81.7325 102.64 81.5464 103.073 81.2152 103.393C80.8839 103.712 80.4347 103.892 79.9663 103.892Z" fill="#CACACE"/>
<path d="M111.007 112.518H27.3416C25.4395 112.518 23.8975 114.005 23.8975 115.839V129.882C23.8975 131.716 25.4395 133.203 27.3416 133.203H111.007C112.91 133.203 114.452 131.716 114.452 129.882V115.839C114.452 114.005 112.91 112.518 111.007 112.518Z" fill="white"/>
<path d="M41.0919 115.388H28.0219C27.3537 115.388 26.812 115.91 26.812 116.555V129.158C26.812 129.802 27.3537 130.324 28.0219 130.324H41.0919C41.7601 130.324 42.3018 129.802 42.3018 129.158V116.555C42.3018 115.91 41.7601 115.388 41.0919 115.388Z" fill="#FFC32E"/>
<path d="M101.108 122.285H47.4943C46.705 122.285 45.948 121.983 45.3899 121.445C44.8318 120.907 44.5182 120.177 44.5182 119.416C44.517 119.038 44.5932 118.664 44.7422 118.315C44.8912 117.966 45.1103 117.648 45.3867 117.381C45.6632 117.114 45.9917 116.901 46.3533 116.757C46.715 116.612 47.1027 116.537 47.4943 116.537H101.108C101.9 116.537 102.659 116.841 103.219 117.38C103.778 117.92 104.093 118.652 104.093 119.416C104.093 119.793 104.016 120.167 103.865 120.516C103.715 120.865 103.495 121.181 103.218 121.448C102.941 121.715 102.612 121.926 102.25 122.069C101.887 122.213 101.499 122.287 101.108 122.285Z" fill="#CACACE"/>
<path d="M79.9663 128.025H46.3021C45.8337 128.025 45.3844 127.846 45.0532 127.526C44.722 127.207 44.5359 126.774 44.5359 126.322C44.5359 125.87 44.722 125.437 45.0532 125.118C45.3844 124.798 45.8337 124.619 46.3021 124.619H79.9663C80.4347 124.619 80.8839 124.798 81.2152 125.118C81.5464 125.437 81.7325 125.87 81.7325 126.322C81.7325 126.774 81.5464 127.207 81.2152 127.526C80.8839 127.846 80.4347 128.025 79.9663 128.025Z" fill="#CACACE"/>
<path d="M111.007 136.643H27.3416C25.4395 136.643 23.8975 138.13 23.8975 139.964V154.007C23.8975 155.841 25.4395 157.328 27.3416 157.328H111.007C112.91 157.328 114.452 155.841 114.452 154.007V139.964C114.452 138.13 112.91 136.643 111.007 136.643Z" fill="white"/>
<path d="M41.0919 139.513H28.0219C27.3537 139.513 26.812 140.035 26.812 140.679V153.283C26.812 153.927 27.3537 154.449 28.0219 154.449H41.0919C41.7601 154.449 42.3018 153.927 42.3018 153.283V140.679C42.3018 140.035 41.7601 139.513 41.0919 139.513Z" fill="#EA3E72"/>
<path d="M96.3479 146.41H47.4943C47.1027 146.41 46.715 146.336 46.3533 146.191C45.9917 146.046 45.6632 145.834 45.3867 145.567C45.1103 145.3 44.8912 144.982 44.7422 144.633C44.5932 144.284 44.517 143.91 44.5182 143.532C44.5182 142.771 44.8318 142.041 45.3899 141.503C45.948 140.965 46.705 140.662 47.4943 140.662H96.3479C96.7388 140.662 97.1258 140.737 97.4868 140.881C97.8479 141.025 98.176 141.236 98.4523 141.503C98.7287 141.769 98.9479 142.086 99.0975 142.434C99.247 142.782 99.324 143.155 99.324 143.532C99.3252 143.91 99.2491 144.284 99.1 144.633C98.951 144.982 98.7319 145.3 98.4555 145.567C98.179 145.834 97.8505 146.046 97.4889 146.191C97.1272 146.336 96.7395 146.41 96.3479 146.41Z" fill="#CACACE"/>
<path d="M79.9663 152.15H46.3021C45.8337 152.15 45.3844 151.971 45.0532 151.651C44.722 151.332 44.5359 150.899 44.5359 150.447C44.5359 149.995 44.722 149.562 45.0532 149.243C45.3844 148.923 45.8337 148.744 46.3021 148.744H79.9663C80.4347 148.744 80.8839 148.923 81.2152 149.243C81.5464 149.562 81.7325 149.995 81.7325 150.447C81.7325 150.899 81.5464 151.332 81.2152 151.651C80.8839 151.971 80.4347 152.15 79.9663 152.15Z" fill="#CACACE"/>
<path d="M111.007 160.768H27.3416C25.4395 160.768 23.8975 162.255 23.8975 164.089V178.132C23.8975 179.966 25.4395 181.453 27.3416 181.453H111.007C112.91 181.453 114.452 179.966 114.452 178.132V164.089C114.452 162.255 112.91 160.768 111.007 160.768Z" fill="white"/>
<path d="M41.0919 163.638H28.0219C27.3537 163.638 26.812 164.16 26.812 164.804V177.408C26.812 178.052 27.3537 178.574 28.0219 178.574H41.0919C41.7601 178.574 42.3018 178.052 42.3018 177.408V164.804C42.3018 164.16 41.7601 163.638 41.0919 163.638Z" fill="#48DB84"/>
<path d="M90.5636 164.787H47.3265C45.7755 164.787 44.5182 166 44.5182 167.495V167.827C44.5182 169.323 45.7755 170.535 47.3265 170.535H90.5636C92.1145 170.535 93.3718 169.323 93.3718 167.827V167.495C93.3718 166 92.1145 164.787 90.5636 164.787Z" fill="#CACACE"/>
<path d="M79.9663 176.275H46.3021C45.8337 176.275 45.3844 176.096 45.0532 175.776C44.722 175.457 44.5359 175.024 44.5359 174.572C44.5359 174.12 44.722 173.687 45.0532 173.368C45.3844 173.048 45.8337 172.869 46.3021 172.869H79.9663C80.4347 172.869 80.8839 173.048 81.2152 173.368C81.5464 173.687 81.7325 174.12 81.7325 174.572C81.7325 175.024 81.5464 175.457 81.2152 175.776C80.8839 176.096 80.4347 176.275 79.9663 176.275Z" fill="#CACACE"/>
<path d="M108.994 33.2112C109.903 33.2068 110.783 32.9068 111.493 32.3597L113.728 34.5227L114.452 33.8244L112.209 31.6614C112.774 30.9791 113.085 30.1333 113.092 29.26C113.088 28.4833 112.846 27.725 112.397 27.0806C111.947 26.4363 111.31 25.9347 110.565 25.639C109.82 25.3433 109.001 25.2669 108.212 25.4192C107.422 25.5716 106.696 25.9459 106.127 26.4951C105.557 27.0443 105.169 27.7437 105.011 28.5053C104.853 29.2669 104.932 30.0565 105.239 30.7747C105.546 31.4929 106.066 32.1075 106.734 32.5411C107.402 32.9747 108.189 33.2079 108.994 33.2112ZM108.994 26.3391C109.598 26.3391 110.189 26.5119 110.692 26.8356C111.194 27.1594 111.586 27.6196 111.817 28.158C112.048 28.6963 112.109 29.2888 111.991 29.8603C111.873 30.4319 111.582 30.9569 111.155 31.369C110.727 31.781 110.183 32.0616 109.59 32.1753C108.998 32.289 108.383 32.2307 107.825 32.0077C107.267 31.7847 106.789 31.407 106.454 30.9225C106.118 30.4379 105.939 29.8683 105.939 29.2855C105.937 28.8979 106.016 28.5138 106.169 28.1553C106.322 27.7969 106.547 27.4711 106.83 27.1966C107.114 26.9221 107.452 26.7043 107.823 26.5557C108.194 26.4071 108.592 26.3306 108.994 26.3306V26.3391Z" fill="#48DB84"/>
<path d="M48.6248 29.2515C48.6023 29.9406 48.377 30.6093 47.9752 31.1797C47.5735 31.75 47.0119 32.1985 46.3559 32.4728C45.6999 32.747 44.9766 32.8358 44.2702 32.7288C43.5639 32.6217 42.9037 32.3232 42.3666 31.8681C41.8295 31.4129 41.4377 30.8199 41.2368 30.1582C41.036 29.4965 41.0343 28.7934 41.2321 28.1308C41.4299 27.4683 41.8189 26.8736 42.3539 26.4161C42.8888 25.9587 43.5476 25.6573 44.2534 25.5472C44.8464 25.4594 45.4525 25.512 46.0197 25.7004C46.1345 25.743 46.1875 25.7004 46.2316 25.6153C46.4347 25.1129 46.6555 24.6104 46.8675 24.108C46.9247 23.9593 47.0205 23.8272 47.1457 23.7243C47.2709 23.6215 47.4214 23.5513 47.5828 23.5204C47.7126 23.4948 47.8467 23.4978 47.9751 23.5289C48.1036 23.5601 48.2232 23.6188 48.3249 23.7005C48.4267 23.7823 48.5081 23.8851 48.5631 24.0014C48.618 24.1176 48.6452 24.2443 48.6425 24.372V25.3002L48.6248 29.2515Z" fill="#48DB84"/>
<path d="M27.7657 32.8537C27.6951 33.2113 27.6244 33.5519 27.5714 33.9011C27.5584 34.0572 27.5106 34.2087 27.4313 34.3453C27.3521 34.482 27.2433 34.6006 27.1122 34.6931C26.9922 34.7734 26.8534 34.8238 26.7083 34.8398C26.5631 34.8557 26.4161 34.8366 26.2805 34.7843C26.1448 34.732 26.0247 34.648 25.931 34.54C25.8373 34.4319 25.7728 34.3031 25.7434 34.1651C25.399 32.8622 25.0634 31.5508 24.6925 30.2479C24.4726 29.538 24.4829 28.7802 24.7219 28.0761C24.9609 27.372 25.4173 26.7551 26.0299 26.3079C26.6425 25.8608 27.3822 25.6048 28.1498 25.5742C28.9175 25.5435 29.6765 25.7398 30.3254 26.1366C30.9742 26.5334 31.4818 27.1119 31.7803 27.7946C32.0788 28.4772 32.1539 29.2316 31.9956 29.9566C31.8373 30.6815 31.4531 31.3426 30.8944 31.8512C30.3358 32.3598 29.6293 32.6918 28.8696 32.8026C28.6916 32.8322 28.5115 32.8493 28.3309 32.8537C28.1455 32.8877 27.9688 32.8707 27.7657 32.8537Z" fill="#48DB84"/>
<path d="M40.3588 29.2515C40.3588 29.7279 40.2615 30.1996 40.0724 30.6397C39.8834 31.0799 39.6063 31.4798 39.2569 31.8166C38.9076 32.1535 38.4929 32.4207 38.0364 32.603C37.58 32.7853 37.0908 32.8792 36.5968 32.8792C36.1027 32.8792 35.6135 32.7853 35.1571 32.603C34.7007 32.4207 34.2859 32.1535 33.9366 31.8166C33.5873 31.4798 33.3101 31.0799 33.1211 30.6397C32.932 30.1996 32.8347 29.7279 32.8347 29.2515C32.8347 28.7751 32.932 28.3033 33.1211 27.8632C33.3101 27.4231 33.5873 27.0232 33.9366 26.6863C34.2859 26.3494 34.7007 26.0822 35.1571 25.8999C35.6135 25.7176 36.1027 25.6238 36.5968 25.6238C37.0908 25.6238 37.58 25.7176 38.0364 25.8999C38.4929 26.0822 38.9076 26.3494 39.2569 26.6863C39.6063 27.0232 39.8834 27.4231 40.0724 27.8632C40.2615 28.3033 40.3588 28.7751 40.3588 29.2515Z" fill="#48DB84"/>
<path d="M49.4901 29.5835V27.8293C49.4769 27.5447 49.5543 27.2631 49.7118 27.0221C49.8694 26.7811 50.0996 26.5924 50.3716 26.4812C50.6435 26.37 50.9443 26.3416 51.2334 26.3999C51.5226 26.4582 51.7863 26.6004 51.9893 26.8074C52.1325 26.9352 52.2459 27.0909 52.322 27.2641C52.3981 27.4373 52.4352 27.6242 52.4309 27.8123V31.3889C52.445 31.6822 52.3635 31.9725 52.1978 32.2189C52.032 32.4653 51.7904 32.6554 51.5068 32.7625C51.2232 32.8697 50.912 32.8884 50.6168 32.8162C50.3216 32.7439 50.0573 32.5842 49.861 32.3597C49.6182 32.1078 49.4853 31.7753 49.4901 31.4314V29.5835Z" fill="#48DB84"/>
<path d="M50.9474 23.316C51.33 23.3138 51.698 23.4576 51.971 23.716C52.2441 23.9745 52.3999 24.3267 52.4046 24.6956C52.4081 24.8801 52.3738 25.0635 52.3038 25.2352C52.2338 25.407 52.1294 25.5638 51.9965 25.6966C51.7282 25.9649 51.3604 26.1194 50.9739 26.1262C50.7826 26.1296 50.5924 26.0965 50.4143 26.029C50.2362 25.9615 50.0736 25.8608 49.9358 25.7327C49.6576 25.474 49.4973 25.1193 49.4903 24.7467C49.4843 24.5594 49.5177 24.3729 49.5885 24.1984C49.6593 24.0239 49.766 23.865 49.9021 23.7314C50.0383 23.5977 50.2011 23.492 50.3807 23.4206C50.5604 23.3492 50.7532 23.3136 50.9474 23.316Z" fill="#48DB84"/>
<path d="M26.0964 35.9703C26.0941 35.8913 26.1081 35.8127 26.1375 35.7389C26.167 35.6652 26.2114 35.5978 26.2681 35.5408C26.3248 35.4837 26.3927 35.4381 26.4678 35.4066C26.543 35.3751 26.6239 35.3583 26.7058 35.3572C26.8702 35.359 27.0279 35.4204 27.1474 35.5293C27.2668 35.6382 27.3394 35.7866 27.3505 35.9448C27.3516 36.026 27.3361 36.1066 27.3046 36.182C27.2732 36.2574 27.2265 36.326 27.1674 36.3838C27.1082 36.4417 27.0377 36.4876 26.96 36.5189C26.8823 36.5503 26.7989 36.5664 26.7146 36.5664C26.5507 36.5664 26.3934 36.5036 26.2775 36.3918C26.1616 36.28 26.0964 36.1284 26.0964 35.9703Z" fill="#48DB84"/>
<path d="M83.5516 50.7535L70.5346 40.9519C70.3681 40.8173 70.259 40.6282 70.228 40.4208C70.197 40.2134 70.2465 40.0023 70.3668 39.8278C70.4948 39.6671 70.678 39.5556 70.8836 39.5135C71.0892 39.4713 71.3036 39.5013 71.4884 39.5979L74.3143 41.3011L71.0026 38.6612C70.8667 38.5542 70.7782 38.4012 70.7552 38.2335C70.7322 38.0657 70.7765 37.8959 70.879 37.7585C70.9828 37.6153 71.1396 37.5161 71.3171 37.4812C71.4946 37.4463 71.6792 37.4785 71.8328 37.5712L75.3652 39.8534L72.1419 37.1965C71.9792 37.0489 71.8806 36.8474 71.8658 36.6325C71.8511 36.4176 71.9213 36.2053 72.0624 36.0383C72.201 35.8901 72.3893 35.7935 72.5943 35.7655C72.7993 35.7374 73.008 35.7798 73.1839 35.8851L77.2551 38.4398L74.7117 36.2087C74.6206 36.1244 74.5481 36.0233 74.4986 35.9113C74.4491 35.7994 74.4236 35.6789 74.4236 35.5572C74.4236 35.4355 74.4491 35.315 74.4986 35.2031C74.5481 35.0911 74.6206 34.99 74.7117 34.9058C74.862 34.7488 75.068 34.652 75.2889 34.6347C75.5097 34.6173 75.7292 34.6806 75.9039 34.8121L88.762 44.3326L83.5516 50.7535Z" fill="#FD88D0"/>
<path d="M77.2463 38.4314L79.2068 39.7258" stroke="#B74190" stroke-width="0.5" stroke-linecap="round" stroke-linejoin="round"/>
<path d="M75.3917 39.8535L77.679 41.4204" stroke="#B74190" stroke-width="0.5" stroke-linecap="round" stroke-linejoin="round"/>
<path d="M74.3054 41.3438L76.4249 42.7233" stroke="#B74190" stroke-width="0.5" stroke-linecap="round" stroke-linejoin="round"/>
<path d="M81.0526 42.9788L77.7762 43.7707" stroke="#B74190" stroke-width="0.5" stroke-linecap="round" stroke-linejoin="round"/>
<path d="M90.1483 42.6806L85.8122 39.0785L82.7037 35.5955C82.5288 35.3995 82.2843 35.2734 82.0181 35.2419C81.7519 35.2104 81.4831 35.2757 81.2642 35.4252C81.1482 35.5035 81.0493 35.603 80.9732 35.7181C80.897 35.8332 80.8452 35.9617 80.8206 36.0961C80.796 36.2306 80.7991 36.3684 80.8298 36.5017C80.8604 36.6349 80.918 36.7611 80.9993 36.8729L82.6772 40.0237L82.5536 40.7561C82.4244 41.4788 82.5111 42.2221 82.8035 42.8991C83.0959 43.5761 83.582 44.159 84.205 44.5796L86.9691 46.4531L90.1483 42.6806Z" fill="#FD88D0"/>
<path d="M84.2054 44.5881C83.5823 44.1675 83.0963 43.5846 82.8038 42.9076C82.5114 42.2306 82.4248 41.4873 82.5539 40.7646L82.6776 40.0322L82.2272 39.1807" stroke="#B74190" stroke-width="0.5" stroke-linecap="round" stroke-linejoin="round"/>
<path d="M90.1483 40.637L81.432 50.7537L106.433 69.1646C107.401 69.8869 108.591 70.2788 109.815 70.2788C111.039 70.2788 112.229 69.8869 113.197 69.1646L142.216 47.1856C142.216 47.1856 141.113 40.2793 140.221 32.6067C128.934 32.7685 109.312 51.8862 109.312 51.8862L90.1483 40.637Z" fill="#FFD357"/>
<path d="M172.888 205.71L187.558 203.423L188.83 211.011L166.309 214.521C165.972 212.511 166.475 210.455 167.709 208.803C168.942 207.151 170.805 206.039 172.888 205.71Z" fill="#FFD357"/>
<path d="M188.819 210.989L166.297 214.499L166.549 216L189.07 212.49L188.819 210.989Z" fill="#EBAF07"/>
<path d="M187.132 200.88L173.531 202.988L174.719 210.118L188.32 208.01L187.132 200.88Z" fill="#FFD357"/>
<path d="M173.797 204.59L178.142 203.917" stroke="white" stroke-width="0.5" stroke-linecap="round" stroke-linejoin="round"/>
<path d="M174.071 206.225L178.415 205.552" stroke="white" stroke-width="0.5" stroke-linecap="round" stroke-linejoin="round"/>
<path d="M117.627 202.523L132.241 204.892L130.924 212.45L108.489 208.814C108.838 206.812 109.996 205.026 111.709 203.847C113.422 202.667 115.551 202.191 117.627 202.523Z" fill="#FFD357"/>
<path d="M130.93 212.436L108.496 208.8L108.235 210.295L130.67 213.931L130.93 212.436Z" fill="#EBAF07"/>
<path d="M132.608 202.775L119.71 200.685L118.469 207.806L131.367 209.896L132.608 202.775Z" fill="#FFD357"/>
<path d="M119.423 202.291L123.76 202.997" stroke="white" stroke-width="0.5" stroke-linecap="round" stroke-linejoin="round"/>
<path d="M119.141 203.926L123.477 204.632" stroke="white" stroke-width="0.5" stroke-linecap="round" stroke-linejoin="round"/>
<path d="M139.514 204.07L146.049 144.06L153.997 88.7847L121.605 78.4807L117.401 139.283L112.8 200.596L139.514 204.07Z" fill="#009EF0"/>
<path d="M164.639 204.735L194.285 200.119L177.126 134.012L173.664 82.7727L134.207 83.3688L147.065 138.227L164.639 204.735Z" fill="#00A8FF"/>
<path d="M176.561 88.6401C176.561 88.6401 169.778 42.519 155.366 34.4802C146.093 29.3112 133.006 32.5642 129.102 39.9218C122.223 52.8656 119.238 90.3347 119.238 90.3347C119.238 90.3347 152.558 95.3164 176.561 88.6401Z" fill="white"/>
<path d="M139.867 25.462C139.867 25.462 140.035 31.3719 140.221 32.5641C140.274 32.9303 145.925 32.6663 146.658 31.9595C145.993 29.8556 145.695 27.66 145.775 25.462C145.802 22.7795 139.867 25.462 139.867 25.462Z" fill="#FD88D0"/>
<path d="M146.553 21.7662C146.553 21.7662 145.263 28.979 140.547 29.1153C135.832 29.2515 138.781 19.2967 139.488 19.0242C140.194 18.7517 144.804 17.7809 146.553 21.7662Z" fill="#FD88D0"/>
<path d="M140.795 15.507C141.423 15.1857 142.145 15.0777 142.844 15.2005C143.727 15.3623 144.248 15.9924 145.087 16.052C146.959 16.2394 147.869 17.406 147.666 18.9389C147.716 18.981 147.761 19.0297 147.798 19.0836C148.487 20.2077 148.929 21.3829 148.24 22.4899C148.99 23.7843 147.851 25.4789 146.986 26.5349C146.923 26.6165 146.837 26.6787 146.738 26.7137C146.669 26.8262 146.567 26.9174 146.446 26.977C146.325 27.0366 146.189 27.062 146.053 27.0505C145.918 27.0389 145.789 26.9908 145.68 26.9117C145.572 26.8326 145.489 26.7256 145.44 26.603C144.884 25.0191 145.37 23.1201 144.751 21.6639C144.353 20.9846 143.873 20.3529 143.321 19.7819C142.978 19.8923 142.613 19.9252 142.255 19.878C141.896 19.8307 141.554 19.7046 141.254 19.5094C139.7 20.3014 137.139 19.9607 136.706 18.0958C136.123 15.6262 138.896 14.8683 140.795 15.507Z" fill="black"/>
<path d="M144.115 23.0775C144.306 22.7201 144.598 22.4227 144.958 22.2205C145.318 22.0183 145.73 21.9197 146.147 21.9364C147.454 22.1322 147.754 25.1298 145.537 25.3938C143.321 25.6577 144.115 23.0775 144.115 23.0775Z" fill="#FD88D0"/>
<path d="M137.925 25.7259C138.349 25.6152 138.879 25.5641 139.108 25.2831C139.488 24.8062 140.142 24.8828 140.142 25.4108C140.627 26.0836 141.775 26.4242 142.155 25.9814C142.362 25.8275 142.549 25.6502 142.711 25.4534C143.046 25.061 143.323 24.6253 143.533 24.159C143.933 23.283 144.23 22.3659 144.416 21.4255C144.601 20.5739 145.935 20.9401 145.749 21.7831C145.513 23.0404 145.078 24.2553 144.46 25.3853C144.486 25.4887 144.486 25.5969 144.46 25.7004C143.965 27.693 143.065 28.9959 140.857 29.328C140.04 29.4384 139.209 29.2697 138.508 28.8512C137.801 28.3658 137.766 26.075 137.925 25.7259Z" fill="black"/>
<path d="M185.877 114.672H186.761V109.146C186.761 107.353 187.499 105.633 188.814 104.365C190.129 103.097 191.913 102.384 193.772 102.384C195.632 102.384 197.416 103.097 198.731 104.365C200.046 105.633 200.784 107.353 200.784 109.146V114.672H201.667V109.146C201.667 107.127 200.836 105.19 199.355 103.763C197.874 102.335 195.866 101.533 193.772 101.533C191.679 101.533 189.67 102.335 188.19 103.763C186.709 105.19 185.877 107.127 185.877 109.146V114.672Z" fill="black"/>
<path d="M176.349 148.165H213.748L208.406 111.53H181.683L176.349 148.165Z" fill="#FD88D0"/>
<path d="M172.781 148.165H210.189L204.846 111.53H178.124L172.781 148.165Z" fill="#FD88D0"/>
<path d="M197.702 114.673C197.702 114.418 197.781 114.17 197.927 113.958C198.074 113.747 198.282 113.582 198.526 113.485C198.769 113.387 199.037 113.362 199.296 113.411C199.555 113.461 199.792 113.584 199.979 113.763C200.165 113.943 200.292 114.172 200.344 114.422C200.395 114.671 200.369 114.93 200.268 115.165C200.167 115.4 199.996 115.6 199.777 115.742C199.557 115.883 199.3 115.958 199.036 115.958C198.683 115.956 198.345 115.82 198.096 115.579C197.846 115.339 197.705 115.013 197.702 114.673Z" fill="black"/>
<path d="M183.246 114.673C183.246 114.418 183.324 114.17 183.471 113.958C183.617 113.747 183.825 113.582 184.069 113.485C184.313 113.387 184.581 113.362 184.839 113.411C185.098 113.461 185.336 113.584 185.522 113.763C185.709 113.943 185.836 114.172 185.887 114.422C185.939 114.671 185.912 114.93 185.811 115.165C185.71 115.4 185.539 115.6 185.32 115.742C185.101 115.883 184.843 115.958 184.579 115.958C184.226 115.958 183.886 115.823 183.636 115.582C183.386 115.341 183.246 115.014 183.246 114.673Z" fill="black"/>
<path d="M183.687 114.673H184.57V109.146C184.635 107.395 185.401 105.737 186.709 104.521C188.016 103.304 189.761 102.624 191.578 102.624C193.395 102.624 195.14 103.304 196.447 104.521C197.754 105.737 198.521 107.395 198.585 109.146V114.673H199.469V109.146C199.4 107.17 198.538 105.297 197.064 103.922C195.59 102.547 193.62 101.779 191.569 101.779C189.519 101.779 187.548 102.547 186.074 103.922C184.6 105.297 183.738 107.17 183.67 109.146L183.687 114.673Z" fill="black"/>
<path d="M188.518 97.5134V107.034C188.521 107.332 188.642 107.618 188.856 107.834C189.07 108.049 189.361 108.178 189.67 108.195C189.979 108.211 190.283 108.113 190.52 107.921C190.757 107.73 190.91 107.458 190.947 107.162C190.986 107.508 191.161 107.827 191.436 108.053C191.711 108.28 192.065 108.397 192.426 108.38C192.787 108.364 193.128 108.216 193.38 107.966C193.632 107.716 193.775 107.382 193.781 107.034C193.781 107.346 193.91 107.645 194.138 107.865C194.367 108.085 194.677 108.209 195 108.209C195.323 108.209 195.633 108.085 195.862 107.865C196.09 107.645 196.219 107.346 196.219 107.034C196.219 107.294 196.326 107.543 196.516 107.726C196.707 107.91 196.965 108.013 197.234 108.013C197.504 108.013 197.762 107.91 197.952 107.726C198.143 107.543 198.25 107.294 198.25 107.034V97.5134H188.518Z" fill="#FD88D0"/>
<path d="M188.809 98.3564L186.054 102.384L185.171 104.479C185.117 104.61 185.091 104.75 185.094 104.89C185.097 105.031 185.129 105.169 185.188 105.298C185.247 105.426 185.332 105.542 185.439 105.639C185.545 105.735 185.67 105.81 185.807 105.859C186.029 105.935 186.271 105.939 186.496 105.87C186.721 105.801 186.917 105.662 187.052 105.476L187.935 104.241L189.489 102.418L188.809 98.3564Z" fill="#FD88D0"/>
<path d="M190.947 107.196V106.327" stroke="#B74190" stroke-width="0.5" stroke-linecap="round" stroke-linejoin="round"/>
<path d="M193.781 107.034V106.055" stroke="#B74190" stroke-width="0.5" stroke-linecap="round" stroke-linejoin="round"/>
<path d="M196.245 107.034V106.327" stroke="#B74190" stroke-width="0.5" stroke-linecap="round" stroke-linejoin="round"/>
<path d="M205.73 111.53L209.589 138.031" stroke="white" stroke-width="0.5" stroke-linecap="round" stroke-linejoin="round"/>
<path d="M185.824 99.1994L200.776 97.2152L192.66 62.4626C191.77 58.6303 189.567 55.1986 186.407 52.7207L175.192 43.924C166.914 37.433 157.014 33.1516 146.482 31.5081L140.353 47.211C135.345 60.0072 133.237 73.6895 134.171 87.337L143.144 87.6351C152.396 87.9539 161.651 87.095 170.67 85.0804L178.389 83.3772L172.092 63.6208L173.708 64.6512L185.824 99.1994Z" fill="#FFD357"/>
<path d="M156.205 53.4617L173.699 64.6513L177.938 65.3581" stroke="white" stroke-width="0.5" stroke-linecap="round" stroke-linejoin="round"/>
<path d="M140.239 32.4873C140.239 32.4873 126.029 47.0747 127.796 86.5535L118.081 85.6083C118.081 85.6083 113.807 57.3361 131.796 35.2379C134.439 33.8906 137.29 32.9619 140.239 32.4873Z" fill="#FFD357"/>
<path d="M117.878 71.6682C118.62 62.5734 121.216 50.3789 128.881 39.1296" stroke="white" stroke-width="0.5" stroke-linecap="round" stroke-linejoin="round"/>
<path d="M113.33 193.937L140.256 197.249" stroke="white" stroke-width="0.5" stroke-linecap="round" stroke-linejoin="round"/>
<path d="M162.996 198.518L192.678 193.937" stroke="white" stroke-width="0.5" stroke-linecap="round" stroke-linejoin="round"/>
</svg>
