<svg width="224" height="216" viewBox="0 0 224 216" fill="none" xmlns="http://www.w3.org/2000/svg">
<path d="M78.6282 80.5096L71.4119 72.9525C71.1791 72.728 71.1791 72.3539 71.4119 72.0546C71.6447 71.8301 72.0326 71.8301 72.2654 71.9798L73.7397 73.1769L72.0326 71.2315C71.8775 71.0071 71.8775 70.7078 72.0326 70.5581C72.2654 70.3337 72.5758 70.3337 72.8086 70.5581L74.7484 72.2042L73.1966 70.2588C72.9638 70.0344 73.0414 69.5854 73.2742 69.361C73.5069 69.1365 73.8949 69.1365 74.1277 69.361L76.3779 71.3064L75.214 69.8099C74.9812 69.5106 74.9812 69.0617 75.2916 68.8372C75.2916 68.8372 75.2916 68.8372 75.3692 68.8372C75.6796 68.6127 76.0676 68.6875 76.3003 68.912L83.5166 76.3943L78.6282 80.5096Z" fill="#FD88D0"/>
<path d="M84.6805 75.3469L81.8871 72.1295L80.0248 69.1366C79.792 68.8373 79.3265 68.6876 78.9385 68.8373C78.5505 69.0617 78.3177 69.5107 78.5505 69.8848L79.4041 72.4288L79.2489 72.9525C78.8609 74.0001 79.1713 75.1972 80.0248 76.0203L81.8871 77.7412L84.6805 75.3469Z" fill="#FD88D0"/>
<path d="M80.0246 76.0203C79.171 75.1972 78.8607 74.0749 79.2486 72.9525L79.4038 72.4288L79.171 71.7554" stroke="#B74190" stroke-width="0.5" stroke-linecap="round" stroke-linejoin="round"/>
<path d="M76.3003 71.3064L77.6194 72.5036" stroke="#B74190" stroke-width="0.5" stroke-linecap="round" stroke-linejoin="round"/>
<path d="M74.7484 72.2041L76.2227 73.6257" stroke="#B74190" stroke-width="0.5" stroke-linecap="round" stroke-linejoin="round"/>
<path d="M73.7394 73.177L75.1361 74.449" stroke="#B74190" stroke-width="0.5" stroke-linecap="round" stroke-linejoin="round"/>
<path d="M78.5506 75.1973L75.99 75.4217" stroke="#B74190" stroke-width="0.5" stroke-linecap="round" stroke-linejoin="round"/>
<path d="M90.8877 114.554L77.6967 112.609C77.3863 112.534 77.1536 112.235 77.1536 111.935C77.1536 111.636 77.4639 111.412 77.8519 111.412L79.7142 111.262L77.1536 110.813C76.9208 110.738 76.688 110.514 76.7656 110.214C76.7656 109.915 77.076 109.765 77.3087 109.765L79.8694 109.915L77.3863 109.391C77.076 109.317 76.8432 109.017 76.9208 108.643C76.9984 108.344 77.2312 108.119 77.6191 108.119L80.6453 108.269L78.783 107.745C78.3951 107.67 78.1623 107.296 78.2399 106.922C78.3175 106.623 78.7054 106.398 79.0158 106.473L89.491 108.045L90.8877 114.554Z" fill="#FD88D0"/>
<path d="M89.2584 108.493L83.8268 104.453C83.4389 104.229 82.9733 104.303 82.7405 104.603C82.4301 104.902 82.3525 105.426 82.6629 105.8L83.7492 107.221L83.9044 107.745C84.2924 108.793 85.3011 109.541 86.465 109.691L89.0256 109.99L89.2584 108.493Z" fill="#FD88D0"/>
<path d="M80.568 108.194L83.439 108.493" stroke="#B74190" stroke-width="0.5" stroke-linecap="round" stroke-linejoin="round"/>
<path d="M79.8696 109.84L83.2062 110.214" stroke="#B74190" stroke-width="0.5" stroke-linecap="round" stroke-linejoin="round"/>
<path d="M79.7144 111.187L82.6629 111.486" stroke="#B74190" stroke-width="0.5" stroke-linecap="round" stroke-linejoin="round"/>
<path d="M159.714 195.587L152.032 190.35L146.135 197.608L156.998 205.09L159.714 195.587Z" fill="#FD88D0"/>
<path d="M154.755 199.598L152.114 203.564L157.403 206.838L160.043 202.872L154.755 199.598Z" fill="#FCCA57"/>
<path d="M165.301 199.029L154.903 214.593C151.799 212.647 150.868 208.682 152.886 205.689L156.3 200.526L157.153 201.05L159.559 195.513L165.301 199.029Z" fill="#FCCA57"/>
<path d="M165.305 199.104L154.952 214.656L156.062 215.343L166.415 199.791L165.305 199.104Z" fill="#333333"/>
<path d="M153.351 204.267L155.369 201.274" stroke="white" stroke-width="0.5" stroke-linecap="round" stroke-linejoin="round"/>
<path d="M154.593 205.015L156.61 202.022" stroke="white" stroke-width="0.5" stroke-linecap="round" stroke-linejoin="round"/>
<path d="M105.941 202.621L103.303 193.941L93.9916 196.186L97.7161 208.457L105.941 202.621Z" fill="#FD88D0"/>
<path d="M99.5042 202.856L94.8812 204.388L96.9245 210.12L101.548 208.587L99.5042 202.856Z" fill="#FCCA57"/>
<path d="M108.114 208.756L89.9568 214.742C88.7153 211.375 90.5776 207.709 94.0693 206.512L100.122 204.491L100.432 205.464L105.864 202.621L108.114 208.756Z" fill="#FCCA57"/>
<path d="M108.091 208.789L89.9657 214.797L90.3945 216L108.52 209.992L108.091 208.789Z" fill="#333333"/>
<path d="M95.3885 205.689L98.8803 204.566" stroke="white" stroke-width="0.5" stroke-linecap="round" stroke-linejoin="round"/>
<path d="M95.8538 207.035L99.3455 205.838" stroke="white" stroke-width="0.5" stroke-linecap="round" stroke-linejoin="round"/>
<path d="M103.924 170.522C111.373 159.822 119.753 148.224 122.003 145.456C124.409 142.463 128.909 137.225 129.763 133.185C129.84 132.961 129.84 132.736 129.84 132.512C130.694 124.73 112.925 117.323 112.459 117.472C105.321 119.492 102.139 127.648 98.1044 133.41C93.2159 140.518 88.4051 147.85 84.0598 155.333C83.2839 156.605 81.8096 158.924 79.8697 161.842C77.3091 165.658 76.9211 170.447 78.7058 174.637L88.8707 205.09C88.8707 205.09 104.312 203.968 110.519 197.234C110.519 197.234 108.89 180.997 103.924 170.522Z" fill="#353852"/>
<path d="M139.54 81.4823C129.22 73.3266 112.304 84.5501 103.614 90.5359C94.923 96.5218 97.018 103.63 101.518 104.079C115.641 105.426 145.825 86.4207 139.54 81.4823Z" fill="#00A8FF"/>
<path d="M84.6028 73.9253C95.8539 75.5714 107.26 87.3934 109.821 92.5562C112.382 97.719 102.061 104.453 100.277 103.705C98.4921 102.957 76.9209 89.3388 78.3176 80.2852C78.24 80.2852 82.6629 73.7008 84.6028 73.9253Z" fill="#00A8FF"/>
<path d="M145.67 173.59C144.351 172.766 142.799 171.644 141.014 170.447C142.954 157.727 145.437 143.735 146.213 140.368C147.066 136.702 148.773 130.117 147.765 126.077C147.687 125.852 147.609 125.628 147.532 125.403C144.816 117.996 125.495 118.669 125.185 118.969C119.598 123.757 120.374 132.437 119.288 139.321C117.968 147.776 116.96 156.38 116.339 164.91C116.261 166.407 115.873 169.1 115.485 172.542C114.865 177.031 116.649 181.521 120.141 184.589L144.971 206.138C144.971 206.138 158.473 198.805 161.033 190.125C161.033 190.125 151.955 177.555 145.67 173.59Z" fill="#3F4261"/>
<path d="M104.234 119.118C109.976 121.737 115.873 123.982 121.926 125.852L122.546 126.002C125.961 127.05 129.608 128.022 133.332 128.771C137.445 129.668 141.635 130.192 145.825 130.417C147.144 130.491 148.463 130.491 149.782 130.491C149.782 130.491 150.17 127.499 150.48 123.084C150.791 119.193 151.101 114.03 151.024 108.718C151.024 108.643 151.024 108.568 151.024 108.494C151.024 108.419 151.024 108.344 151.024 108.344C150.946 98.0931 149.627 87.1689 144.971 82.7544C144.816 82.6047 144.738 82.5299 144.583 82.3803C138.221 76.8434 126.271 77.6664 122.391 82.3054C114.709 91.6583 104.234 119.118 104.234 119.118Z" fill="#00A8FF"/>
<path d="M134.108 73.0272C134.108 73.0272 133.022 77.741 132.866 78.7137C132.866 79.013 137.367 79.9109 138.143 79.5368C138.065 77.741 138.298 75.9453 138.841 74.2244C139.384 72.0545 134.108 73.0272 134.108 73.0272Z" fill="#FD88D0"/>
<path d="M133.487 63.5995C133.953 63.375 135.272 63.9736 136.28 64.4974C135.892 64.9463 136.125 65.3953 135.815 65.919C135.815 65.919 135.66 66.368 135.66 66.4428C135.815 66.8169 135.892 67.191 135.815 67.5651C135.272 67.4903 134.729 67.3407 134.185 67.1162C133.642 66.8917 133.177 66.5176 132.789 66.0687C132.323 65.1708 132.633 64.1233 133.487 63.5995Z" fill="#FFD357"/>
<path d="M133.487 64.0485C134.651 63.5996 134.961 65.7695 135.039 65.9939L136.203 67.3407C135.582 67.2659 134.884 67.1163 134.263 66.8918C132.168 65.9939 132.944 64.1982 133.487 64.0485Z" fill="#B78D37"/>
<path d="M140.393 70.9322C140.393 70.9322 137.832 76.3942 134.03 75.5712C130.228 74.7481 134.961 66.7421 135.582 66.6672C137.988 66.8169 140.005 68.6126 140.393 70.9322Z" fill="#FD88D0"/>
<path d="M141.091 66.1435C141.169 65.9938 142.333 67.7147 142.333 67.7147C143.73 69.9594 143.031 72.8775 140.703 74.2243C140.548 74.2992 140.393 74.374 140.238 74.4488C140.16 74.4488 140.16 74.4488 140.083 74.5236L139.695 74.8229C139.617 74.8978 139.54 74.8977 139.462 74.8977C139.229 75.1222 138.841 75.1222 138.608 74.8977C138.531 74.8229 138.453 74.6733 138.453 74.5236C138.376 73.1768 139.152 71.7552 138.996 70.4832C138.841 69.9594 138.686 69.5105 138.376 69.0616C137.289 68.9119 136.048 67.1162 135.893 67.0413C136.669 65.5449 140.703 65.4701 141.091 66.1435Z" fill="black"/>
<path d="M138.143 71.456C138.608 70.9322 139.307 70.7826 140.005 70.9322C141.014 71.3063 140.626 73.7755 138.763 73.551C136.901 73.3265 138.143 71.456 138.143 71.456Z" fill="#FD88D0"/>
<path d="M133.798 63.5996C134.806 63.6744 137.212 65.0212 137.212 65.0212C137.522 65.4702 137.755 65.9939 137.755 66.5925C137.833 67.3408 137.755 68.089 137.6 68.8372C135.427 68.1638 134.884 66.7422 134.884 66.1436C134.884 64.9464 134.651 63.9737 133.798 63.5996Z" fill="#FFD357"/>
<path d="M137.212 65.0211C137.212 65.0211 140.16 63.7491 142.566 65.5448C144.661 67.1161 143.807 69.9594 143.264 71.0069C141.169 70.9321 139.229 70.1091 137.677 68.8371C137.6 68.7622 138.065 65.9938 137.212 65.0211Z" fill="#FFC32E"/>
<path d="M141.712 64.9464C141.79 64.6471 142.178 64.4975 142.488 64.5723C142.799 64.6471 142.954 65.0212 142.876 65.3205C142.799 65.6198 142.488 65.7695 142.178 65.6946C141.867 65.6198 141.635 65.2457 141.712 64.9464Z" fill="#FFD357"/>
<path d="M146.29 85.2233C138.841 77.8907 121.072 94.2021 115.252 102.807C109.433 111.411 121.615 117.921 124.486 116.724C127.357 115.527 152.032 90.7602 146.29 85.2233Z" fill="#00A8FF"/>
<path d="M88.9479 104.603C92.5948 99.8139 117.425 100.562 123.012 102.433C128.599 104.303 126.348 116.125 124.486 116.799C122.624 117.472 91.4309 124.431 88.1719 115.751C88.1719 115.751 87.784 106.099 88.9479 104.603Z" fill="#00A8FF"/>
<path d="M132.246 129.369C132.246 129.369 130.539 135.804 130.849 137.749C131.159 139.694 134.263 140.592 134.263 140.592" stroke="#2A2B3B" stroke-width="0.5" stroke-linecap="round" stroke-linejoin="round"/>
<path d="M109.821 122.71C109.821 122.71 106.252 128.247 104.777 129.444C103.303 130.641 101.053 129.369 101.053 129.369" stroke="#2A2B3B" stroke-width="0.5" stroke-linecap="round" stroke-linejoin="round"/>
<path d="M86.6979 198.506C86.6979 198.506 101.13 197.383 109.743 191.248" stroke="#2A2B3B" stroke-width="0.5" stroke-linecap="round" stroke-linejoin="round"/>
<path d="M140.47 202.172C140.47 202.172 150.79 198.506 156.532 184.214" stroke="#2A2B3B" stroke-width="0.5" stroke-linecap="round" stroke-linejoin="round"/>
<path d="M105.864 119.867C112.149 119.343 118.356 118.37 124.486 116.799C124.719 116.724 124.874 116.574 125.03 116.35C128.289 114.105 140.859 101.535 145.437 92.7058" stroke="white" stroke-width="0.5" stroke-linecap="round" stroke-linejoin="round"/>
<path d="M133.798 85.822C127.202 89.4135 120.141 96.2972 116.261 101.385C109.588 100.787 100.122 100.861 94.147 102.208" stroke="white" stroke-width="0.5" stroke-linecap="round" stroke-linejoin="round"/>
<path d="M122.469 82.3801C119.52 85.8968 116.184 92.0323 113.235 98.2426" stroke="white" stroke-width="0.5" stroke-linecap="round" stroke-linejoin="round"/>
<path d="M119.908 134.232C119.753 135.953 119.598 137.674 119.365 139.32C118.667 143.885 118.046 148.524 117.503 153.163" stroke="white" stroke-width="0.5" stroke-linecap="round" stroke-linejoin="round"/>
<path d="M104.545 50.6552C105.165 48.8595 107.105 47.8868 108.967 48.4106C110.674 44.0708 112.77 39.8807 115.253 35.9151C101.363 31.5754 87.629 27.3853 74.05 23.27C71.0238 27.086 68.308 31.1264 65.9802 35.3165C67.6872 35.8403 68.3856 37.7109 67.532 39.4318C66.7561 41.1527 64.8162 42.1254 62.8764 41.6765C59.4622 49.4581 57.6776 57.8383 57.6 66.2184C73.274 70.5582 89.0257 74.7483 104.932 78.8635C103.846 70.8575 104.467 62.7018 106.717 54.9202C104.932 54.3964 103.846 52.5258 104.467 50.8049C104.467 50.7301 104.467 50.7301 104.545 50.6552Z" fill="#FFD357"/>
<path d="M70.1704 40.2549L101.829 49.8322" stroke="white" stroke-width="0.5" stroke-linecap="round" stroke-linejoin="round" stroke-dasharray="2 2"/>
<path d="M77.4641 34.3438L75.6794 33.8201L74.8259 34.5683L73.8948 34.1942C75.2139 33.0718 76.6106 31.9495 78.0073 30.8271L78.8608 31.1264C78.628 32.6229 78.3952 34.0445 78.2401 35.541L77.3089 35.2417C77.3865 34.9424 77.3865 34.6431 77.4641 34.3438ZM77.5417 33.5956C77.6193 32.997 77.7745 32.4733 77.8521 31.9495L76.3002 33.2215L77.5417 33.5956Z" fill="white"/>
<path d="M81.4991 34.9424C81.2663 35.3913 80.9559 35.8402 80.7231 36.364L79.792 36.0647C80.0248 35.6158 80.3352 35.092 80.5679 34.6431C80.5679 33.6704 80.5679 32.6228 80.5679 31.6501L81.4991 31.9494C81.4991 32.6228 81.4991 33.2963 81.4991 34.0445L83.5941 32.6228L84.4476 32.9221C83.5165 33.5207 82.5078 34.1941 81.4991 34.9424Z" fill="white"/>
<path d="M91.043 34.7927C89.8791 35.9899 88.7151 37.187 87.5512 38.3842L86.6201 38.0849C86.7753 37.1122 87.0081 36.1395 87.2409 35.1668C86.4649 35.9899 85.6114 36.7381 84.8354 37.5611L83.9043 37.2619C84.2147 35.8402 84.5251 34.3438 84.913 32.9221L85.8442 33.2214C85.6114 34.1941 85.301 35.2416 85.0682 36.2143C85.9217 35.3913 86.7753 34.5682 87.6288 33.7452L88.4824 33.9696C88.2496 35.0172 87.9392 35.9899 87.784 37.0374C88.56 36.2143 89.4135 35.3913 90.267 34.4934L91.043 34.7927Z" fill="white"/>
<path d="M93.1383 39.1325L92.5176 38.908C92.3624 39.2073 92.2072 39.5066 92.052 39.7311L91.1984 39.4318C91.3536 39.1325 91.5088 38.8332 91.664 38.6087L89.569 37.9353L89.8793 37.3368C90.9657 36.6634 92.052 36.0648 93.1383 35.3914L94.0694 35.6907L91.0433 37.5612L92.052 37.8605L92.44 37.1123L93.2935 37.4116L92.9055 38.1598L93.5263 38.3843L93.1383 39.1325Z" fill="white"/>
<path d="M97.406 40.4792L96.7852 40.2547C96.63 40.554 96.4748 40.8533 96.3972 41.0778L95.4661 40.7785C95.6213 40.4792 95.7765 40.1799 95.8541 39.9554L93.759 39.282L94.0694 38.6834C95.1557 38.01 96.242 37.4114 97.3284 36.738L98.2595 37.0373C97.2508 37.6359 96.242 38.3093 95.2333 38.9079L96.3196 39.2072C96.4748 38.9827 96.5524 38.6834 96.7076 38.459L97.5611 38.6834C97.406 38.9079 97.3284 39.2072 97.1732 39.4317L97.7939 39.6561C97.7163 39.9554 97.5611 40.1799 97.406 40.4792Z" fill="white"/>
<path d="M101.208 37.9354C100.432 39.2822 99.8111 40.5542 99.1128 41.901L98.1816 41.6017C98.7248 40.4794 99.268 39.4318 99.8887 38.3843L99.1128 38.1599C99.268 37.9354 99.3456 37.6361 99.5007 37.4116L101.208 37.9354Z" fill="white"/>
<path d="M104.234 42.4995L103.613 42.275C103.458 42.5743 103.381 42.8736 103.225 43.098L102.372 42.7987C102.527 42.4995 102.605 42.2002 102.76 41.9757L100.665 41.3023C100.742 41.0778 100.898 40.9282 100.975 40.7037L104.157 38.7583L105.088 39.0576L102.139 40.9282L103.148 41.2275L103.536 40.4792L104.389 40.7037C104.234 40.9282 104.157 41.2275 104.001 41.4519L104.622 41.6764C104.467 42.0505 104.312 42.275 104.234 42.4995Z" fill="white"/>
<path d="M82.0421 63.5247L76.6105 64.6471C77.0761 62.9262 77.5416 61.2052 78.1624 59.4843C76.9209 57.7634 75.757 56.0424 74.6707 54.3963L80.5678 55.2942C81.8093 53.8726 83.0508 52.4509 84.3699 51.0293C84.6803 52.9747 85.1459 54.9201 85.689 56.7907L91.2758 59.2598C89.6463 60.1577 88.0945 61.0556 86.5426 61.9535C86.6978 63.8989 86.853 65.7694 87.1633 67.64C85.3787 66.2184 83.6716 64.8716 82.0421 63.5247Z" fill="white"/>
<path d="M149.161 10.4752C148.463 9.50253 148.696 8.15571 149.704 7.4823C149.859 7.33266 150.092 7.25783 150.325 7.18301C148.152 4.48938 145.669 2.02022 142.876 0C131.159 4.71385 120.374 8.90394 110.364 12.5703C112.769 14.8898 114.787 17.5834 116.416 20.4267C117.813 19.9777 119.365 20.6512 120.063 21.9231C120.684 23.0455 120.296 24.542 119.055 25.1405C118.977 25.2154 118.899 25.2154 118.822 25.2154C121.693 32.3984 123.167 39.9555 123.012 47.6623C134.418 43.0981 146.601 37.8605 159.481 31.9494C159.093 24.7664 157.076 17.8079 153.429 11.5976C151.799 12.271 150.092 11.7472 149.161 10.4752Z" fill="#00A8FF"/>
<path d="M122.003 21.175C129.918 18.2569 138.22 15.0395 146.911 11.448" stroke="white" stroke-width="0.5" stroke-linecap="round" stroke-linejoin="round" stroke-dasharray="2 2"/>
<path d="M120.917 12.8696C121.615 13.6927 122.314 14.5157 122.934 15.4136L122.391 15.6381C121.538 15.264 120.607 14.9647 119.753 14.5906C120.141 15.1143 120.529 15.6381 120.917 16.1618L120.141 16.4611C119.52 15.5633 118.9 14.7402 118.201 13.9172L118.744 13.6927C119.675 13.992 120.529 14.3661 121.46 14.6654C121.072 14.1416 120.684 13.6179 120.219 13.1689L120.917 12.8696Z" fill="white"/>
<path d="M121.926 12.4954L123.245 11.9717C123.555 11.822 123.865 11.822 124.253 11.822C124.564 11.822 124.874 11.8968 125.184 12.0465C125.495 12.1961 125.728 12.3458 125.96 12.6451C126.116 12.8695 126.271 13.094 126.271 13.3933C126.271 13.6178 126.193 13.8422 126.038 14.0667C125.805 14.2912 125.572 14.4408 125.262 14.5157L123.865 15.0394C123.245 14.1415 122.624 13.3185 121.926 12.4954ZM124.874 13.9919C125.107 13.9171 125.34 13.7674 125.417 13.543C125.495 13.3185 125.417 13.0192 125.262 12.8695C125.029 12.6451 124.797 12.4954 124.486 12.4206C124.176 12.3458 123.865 12.3458 123.633 12.4954L122.934 12.7199C123.4 13.2437 123.788 13.7674 124.176 14.2912L124.874 13.9919Z" fill="white"/>
<path d="M131.315 12.5704C131.315 12.72 131.237 12.8697 131.159 12.9445C131.082 13.0941 130.927 13.169 130.772 13.2438C130.539 13.3186 130.306 13.3934 130.073 13.3186C129.763 13.3186 129.452 13.2438 129.142 13.0941C128.832 13.169 128.521 13.169 128.211 13.169C127.901 13.169 127.59 13.0193 127.357 12.8697C127.125 12.72 126.892 12.5704 126.659 12.3459C126.504 12.1214 126.349 11.897 126.349 11.5977C126.349 11.3732 126.426 11.1487 126.504 10.9243C126.659 10.6998 126.969 10.5502 127.202 10.4753C127.513 10.3257 127.823 10.3257 128.211 10.3257C128.521 10.3257 128.909 10.4005 129.22 10.5502C129.53 10.6998 129.763 10.8494 129.996 11.1487C130.228 11.3732 130.384 11.6725 130.384 12.0466C130.384 12.3459 130.228 12.6452 129.918 12.7948C129.996 12.7948 130.151 12.8697 130.228 12.8697C130.306 12.8697 130.384 12.8697 130.461 12.7948C130.616 12.72 130.772 12.5704 130.849 12.4207L131.315 12.5704ZM127.745 12.4956C127.901 12.5704 128.133 12.6452 128.288 12.6452C128.521 12.6452 128.676 12.6452 128.832 12.5704C128.987 12.4956 129.142 12.4207 129.22 12.2711C129.297 12.1214 129.375 11.9718 129.297 11.8221C129.297 11.6725 129.22 11.5229 129.064 11.3732C128.909 11.2236 128.754 11.0739 128.599 10.9991C128.444 10.9243 128.211 10.8494 127.978 10.8494C127.745 10.8494 127.59 10.8494 127.435 10.9243C127.28 10.9991 127.125 11.0739 127.047 11.2236C126.969 11.3732 126.892 11.448 126.969 11.5977C126.969 11.7473 127.047 11.897 127.202 12.0466C127.435 12.2711 127.59 12.3459 127.745 12.4956Z" fill="white"/>
<path d="M134.03 10.4752L133.487 10.6997C133.642 10.8493 133.797 11.0738 133.953 11.2234L133.254 11.5227L132.866 10.9241L131.159 11.5976L130.849 11.2234C130.849 10.55 130.926 9.8018 130.926 9.12839L131.702 8.8291C131.702 9.50251 131.702 10.1759 131.702 10.8493L132.478 10.55L132.09 9.95145L132.789 9.65215C132.944 9.8018 133.022 9.95145 133.177 10.1011L133.72 9.87662L134.03 10.4752Z" fill="white"/>
<path d="M137.522 9.05371L136.979 9.27817L137.444 9.80194L136.746 10.1012L136.28 9.57747L134.573 10.2509L134.263 9.87676C134.263 9.12853 134.341 8.45512 134.341 7.78171L135.116 7.48242C135.116 8.15583 135.116 8.82924 135.116 9.50264L135.97 9.20335L135.582 8.75441L136.28 8.45512L136.668 8.90406L137.212 8.67959C137.212 8.75441 137.367 8.90406 137.522 9.05371Z" fill="white"/>
<path d="M137.367 6.50952C138.143 7.25775 138.919 8.08081 139.617 8.90386L138.919 9.20315C138.376 8.52974 137.755 7.85634 137.134 7.18293L136.513 7.4074L136.125 6.95846L137.367 6.50952Z" fill="white"/>
<path d="M140.781 5.16284L141.091 5.53696C141.324 6.36001 141.557 7.18306 141.79 8.08094L141.014 8.38023C140.781 7.55718 140.548 6.73413 140.315 5.98589L139.229 6.43483C139.384 6.58448 139.462 6.6593 139.617 6.80895L139.074 7.03342C138.841 6.73412 138.531 6.43483 138.298 6.21036L140.781 5.16284Z" fill="white"/>
<path d="M139.772 32.2488L136.048 36.364C136.125 34.4935 136.048 32.6977 135.97 30.9768C134.651 30.2285 133.254 29.5551 131.935 28.8069L136.125 26.4126C136.358 24.7665 136.513 23.1204 136.591 21.5491C137.832 22.5966 138.996 23.7189 140.16 24.8413L144.971 23.6441C144.195 25.1406 143.419 26.7867 142.566 28.358C143.186 29.8544 143.807 31.4257 144.273 32.997L139.772 32.2488Z" fill="white"/>
<path d="M105.165 173.44C105.165 173.44 103.613 169.549 102.217 167.903" stroke="white" stroke-width="0.5" stroke-linecap="round" stroke-linejoin="round"/>
</svg>
