<svg width="27" height="23" viewBox="0 0 27 23" fill="none" xmlns="http://www.w3.org/2000/svg">
<path d="M22.9013 1.824L25.0293 8.20667C25.9907 8.60933 26.6667 9.55867 26.6667 10.6667V16C26.6667 16.9853 26.128 17.8347 25.3333 18.2973V21.3333C25.3333 22.0707 24.7373 22.6667 24 22.6667H22.6667C21.9293 22.6667 21.3333 22.0707 21.3333 21.3333V18.6667H5.33333V21.3333C5.33333 22.0707 4.73733 22.6667 4 22.6667H2.66667C1.92933 22.6667 1.33333 22.0707 1.33333 21.3333V18.2973C0.538667 17.8347 0 16.984 0 16V10.6667C0 9.55867 0.676 8.60933 1.636 8.20667L3.76533 1.82267C4.128 0.733333 5.144 0 6.29467 0H20.372C21.5227 0 22.5387 0.733333 22.9013 1.824ZM5.33329 14.6667L5.33333 12H2.66667L2.66663 14.6667L5.33329 14.6667ZM6.29466 2.66669L4.51596 8.00002L22.152 8L20.3733 2.66667L6.29466 2.66669ZM24 14.6667L24 12L21.3333 12V14.6667L24 14.6667Z" fill="#00A8FF"/>
</svg>
