<svg width="26" height="24" viewBox="0 0 26 24" fill="none" xmlns="http://www.w3.org/2000/svg">
<path d="M3 0C1.34315 0 0 1.34315 0 3V9C1.65685 9 3 10.3431 3 12C3 13.6569 1.65685 15 0 15V21C0 22.6569 1.34315 24 3 24H23C24.6569 24 26 22.6569 26 21V15C24.3431 15 23 13.6569 23 12C23 10.3431 24.3431 9 26 9V3C26 1.34315 24.6569 0 23 0H3ZM16.3368 5L18.6774 6.63895L9.66322 19.5126L7.32256 17.8736L16.3368 5ZM9.89874 9.2127C9.21987 10.1822 7.88357 10.4179 6.91404 9.73899C5.9445 9.06011 5.70888 7.72381 6.38775 6.75428C7.06663 5.78475 8.40293 5.54912 9.37246 6.228C10.342 6.90687 10.5776 8.24317 9.89874 9.2127ZM19.6122 17.7583C18.9334 18.7278 17.5971 18.9635 16.6275 18.2846C15.658 17.6057 15.4224 16.2694 16.1013 15.2999C16.7801 14.3303 18.1164 14.0947 19.086 14.7736C20.0555 15.4525 20.2911 16.7888 19.6122 17.7583Z" fill="white"/>
</svg>
