<svg width="24" height="27" viewBox="0 0 24 27" fill="none" xmlns="http://www.w3.org/2000/svg">
<path d="M21.3333 2.66667H18.6667V0H16V2.66667H8V0H5.33333V2.66667H2.66667C1.196 2.66667 0 3.86267 0 5.33333V24C0 25.4707 1.196 26.6667 2.66667 26.6667H21.3333C22.804 26.6667 24 25.4707 24 24V5.33333C24 3.86267 22.804 2.66667 21.3333 2.66667ZM15.216 22.6667L11.9507 20.9493L8.68533 22.6667L9.30933 19.0293L6.66667 16.456L10.3173 15.9253L11.9507 12.6187L13.584 15.9253L17.2347 16.456L14.5933 19.0307L15.216 22.6667ZM21.3333 9.33333H2.66667V6.66667H21.3333V9.33333Z" fill="white"/>
</svg>
