<svg width="22" height="24" viewBox="0 0 22 24" fill="none" xmlns="http://www.w3.org/2000/svg">
<path d="M8 24V13.3333H9.33333C11.5387 13.3333 13.3333 11.5387 13.3333 9.33333V0H10.6667V9.33333C10.6667 10.0693 10.0693 10.6667 9.33333 10.6667H8V0H5.33333V10.6667H4C3.264 10.6667 2.66667 10.0693 2.66667 9.33333V0H0V9.33333C0 11.5387 1.79467 13.3333 4 13.3333H5.33333V24H8ZM21.3333 24V1.33333C21.3333 0.596 20.7373 0 20 0H18.6667C17.1213 0 16 1.68267 16 4V13.3333H18.6667V24H21.3333Z" fill="white"/>
</svg>
