<svg width="26" height="24" viewBox="0 0 26 24" fill="none" xmlns="http://www.w3.org/2000/svg">
<path fill-rule="evenodd" clip-rule="evenodd" d="M2.6 0H23.4C24.8339 0 26 1.1661 26 2.6V20.8C26 22.2339 24.8339 23.4 23.4 23.4H2.6C1.1661 23.4 0 22.2339 0 20.8V2.6C0 1.1661 1.1661 0 2.6 0ZM22.7955 7.8H23.4013L23.4 2.6H19.3284L22.7955 7.8ZM12.8284 2.6L16.2955 7.8H19.6703L16.2032 2.6H12.8284ZM9.7955 7.8H13.1703L9.7045 2.6H6.3297L9.7955 7.8ZM3.2045 2.6H2.6V7.8H6.6716L3.2045 2.6ZM10.4 18.9801L16.9 15.0801L10.4 11.1801V18.9801Z" fill="#FF79D9"/>
</svg>
