<svg width="24" height="24" viewBox="0 0 24 24" fill="none" xmlns="http://www.w3.org/2000/svg">
<path d="M4.8 21.6H2.4C1.0752 21.6 0 20.5248 0 19.2V6C0 5.3364 0.5364 4.8 1.2 4.8H4.8612C5.1636 2.1072 7.428 0 10.2 0C12.972 0 15.2364 2.1072 15.5388 4.8H19.2C19.8636 4.8 20.4 5.3364 20.4 6V8.4H6C5.3364 8.4 4.8 8.9364 4.8 9.6V21.6ZM13.14 4.8C12.8616 3.432 11.6484 2.4 10.2 2.4C8.7516 2.4 7.5384 3.432 7.26 4.8H13.14Z" fill="#A23EF0"/>
<path d="M8.4 10.8H22.8C23.4636 10.8 24 11.3364 24 12V21.6C24 22.9248 22.9248 24 21.6 24H9.6C8.2752 24 7.2 22.9248 7.2 21.6V12C7.2 11.3364 7.7364 10.8 8.4 10.8ZM9.6 13.2C9.6 16.5084 12.2916 19.2 15.6 19.2C18.9084 19.2 21.6 16.5084 21.6 13.2H19.2C19.2 15.1848 17.5848 16.8 15.6 16.8C13.6152 16.8 12 15.1848 12 13.2H9.6Z" fill="#A23EF0"/>
</svg>
