<svg width="27" height="22" viewBox="0 0 27 22" fill="none" xmlns="http://www.w3.org/2000/svg">
<path d="M3.056 0C1.39915 0 0.0559998 1.34315 0.0559998 3V8C1.71285 8 3.056 9.34315 3.056 11C3.056 12.6569 1.71285 14 0.0559998 14V19C0.0559998 20.6569 1.39915 22 3.056 22H23.056C24.7129 22 26.056 20.6569 26.056 19V14C24.3991 14 23.056 12.6569 23.056 11C23.056 9.34315 24.3991 8 26.056 8V3C26.056 1.34315 24.7129 0 23.056 0H3.056ZM10.1286 15V19H7.42856V15H10.1286ZM7.42856 9H10.1286V13H7.42856V9ZM10.1286 3V7H7.42856V3H10.1286Z" fill="#FFAB00"/>
</svg>
