<svg width="24" height="24" viewBox="0 0 24 24" fill="none" xmlns="http://www.w3.org/2000/svg">
<path d="M15.7289 8.20801C15.2559 8.17101 14.7479 8.28401 13.9699 8.58101C14.0359 8.55601 13.2279 8.87101 13.0019 8.95101C12.4999 9.12601 12.0869 9.22201 11.6239 9.22201C11.1659 9.22201 10.7439 9.13001 10.2579 8.96701C10.1029 8.91401 9.94694 8.85701 9.75294 8.78101C9.67094 8.74901 9.37094 8.62901 9.30494 8.60401C8.65694 8.35001 8.29194 8.25401 7.98894 8.26201C6.83694 8.27701 5.74594 8.94201 5.11294 10.044C3.82094 12.288 4.53594 16.343 6.42494 19.075C7.43094 20.519 7.98094 21.035 8.20294 21.028C8.42494 21.018 8.58794 20.971 8.98594 20.803L9.15294 20.732C10.1579 20.303 10.8629 20.114 11.9239 20.114C12.9449 20.114 13.6269 20.3 14.5919 20.716L14.7599 20.788C15.1579 20.958 15.3019 20.996 15.5519 20.99C15.9099 20.985 16.3509 20.573 17.3299 19.136C17.5979 18.745 17.8349 18.333 18.0399 17.916C17.9052 17.805 17.7744 17.6893 17.6479 17.569C16.3589 16.341 15.5619 14.685 15.5399 12.639C15.5184 11.1252 16.016 9.64962 16.9499 8.45801C16.558 8.3133 16.1463 8.229 15.7289 8.20801ZM15.8839 6.21401C16.5919 6.26201 18.6199 6.47801 19.9399 8.41001C19.8319 8.47001 17.5159 9.814 17.5399 12.622C17.5759 15.982 20.4799 17.098 20.5159 17.11C20.4919 17.194 20.0479 18.706 18.9799 20.266C18.0559 21.622 17.0959 22.966 15.5839 22.99C14.0959 23.026 13.6159 22.114 11.9239 22.114C10.2199 22.114 9.69194 22.966 8.28794 23.026C6.82394 23.074 5.71994 21.562 4.78394 20.218C2.87594 17.458 1.42394 12.442 3.37994 9.04601C4.35194 7.35401 6.07994 6.28601 7.96394 6.26201C9.39194 6.22601 10.7479 7.22201 11.6239 7.22201C12.4879 7.22201 14.0359 6.07001 15.8839 6.21401ZM14.7439 4.39001C13.9639 5.32601 12.6919 6.05801 11.4559 5.96201C11.2879 4.69001 11.9119 3.35801 12.6319 2.53001C13.4359 1.59401 14.7799 0.898006 15.8959 0.850006C16.0399 2.14601 15.5239 3.45401 14.7439 4.39001Z" fill="#393C47"/>
</svg>
