<svg width="20" height="20" viewBox="0 0 20 20" fill="none" xmlns="http://www.w3.org/2000/svg">
<path d="M16.9108 9.41083C17.067 9.25455 17.279 9.16675 17.5 9.16675C17.721 9.16675 17.933 9.25455 18.0893 9.41083C18.2455 9.56711 18.3333 9.77907 18.3333 10.0001C18.3333 12.2102 17.4554 14.3298 15.8926 15.8926C14.3298 17.4554 12.2101 18.3334 10 18.3334C7.81138 18.3283 5.71392 17.4564 4.16667 15.9084C2.99935 14.7474 2.2021 13.2666 1.87554 11.6529C1.54897 10.0392 1.70773 8.36491 2.33177 6.84136C2.95582 5.3178 4.01718 4.01323 5.38192 3.09229C6.74666 2.17135 8.35362 1.6753 10 1.66675C10.6651 1.6695 11.3276 1.74778 11.975 1.90008C12.0871 1.91994 12.1939 1.96254 12.2888 2.02526C12.3838 2.08797 12.4649 2.16948 12.5272 2.26474C12.5894 2.36001 12.6315 2.46701 12.6508 2.57916C12.6701 2.69132 12.6663 2.80624 12.6395 2.91684C12.6127 3.02745 12.5635 3.13139 12.495 3.22227C12.4265 3.31314 12.3401 3.38902 12.2412 3.44523C12.1422 3.50144 12.0328 3.53678 11.9197 3.54908C11.8065 3.56138 11.6921 3.55038 11.5833 3.51675C11.0638 3.39823 10.5329 3.33675 10 3.33341C9.12122 3.33059 8.2507 3.50307 7.43939 3.84076C6.62807 4.17845 5.89226 4.67457 5.27501 5.30008C4.34681 6.23382 3.71587 7.42149 3.46175 8.71332C3.20763 10.0052 3.34171 11.3433 3.84707 12.5591C4.35244 13.7748 5.20648 14.8137 6.30148 15.5447C7.39648 16.2757 8.68341 16.6661 10 16.6667C11.7681 16.6667 13.4638 15.9644 14.7141 14.7141C15.9643 13.4639 16.6667 11.7682 16.6667 10.0001C16.6667 9.77907 16.7545 9.56711 16.9108 9.41083Z" fill="#48DB84"/>
<path d="M7.50032 9.16333C7.72224 9.16333 7.93506 9.25149 8.09198 9.40841L10.0003 11.2834L15.1836 5.28341C15.3324 5.12855 15.5352 5.03708 15.7497 5.02808C15.9642 5.01907 16.174 5.09323 16.3352 5.23508C16.4964 5.37694 16.5966 5.57554 16.6149 5.78948C16.6333 6.00342 16.5683 6.21618 16.4336 6.38341L10.6003 13.0501C10.525 13.1359 10.4329 13.2053 10.3297 13.254C10.2265 13.3028 10.1144 13.3298 10.0003 13.3334C9.89065 13.334 9.78193 13.313 9.6804 13.2716C9.57886 13.2301 9.48652 13.169 9.40865 13.0917L6.90865 10.5917C6.75173 10.4348 6.66357 10.222 6.66357 10.0001C6.66357 9.77816 6.75173 9.56533 6.90865 9.40841C7.06557 9.25149 7.2784 9.16333 7.50032 9.16333Z" fill="#48DB84"/>
</svg>
