<svg width="24" height="24" viewBox="0 0 24 24" fill="none" xmlns="http://www.w3.org/2000/svg">
<path fill-rule="evenodd" clip-rule="evenodd" d="M20.2072 13.6028C22.5612 11.2498 22.5622 7.55382 20.2052 5.18682C19.0682 4.05582 17.5742 3.43282 15.9962 3.43282C14.6305 3.43282 13.3276 3.90093 12.2678 4.76063C12.1768 4.83449 12.0876 4.91123 12.0002 4.99082C10.8962 3.98482 9.48822 3.43282 8.00422 3.43282C6.58573 3.43282 5.23511 3.93624 4.14776 4.86245C4.02551 4.96659 3.90654 5.0761 3.79122 5.19082C1.43822 7.55382 1.43922 11.2498 3.79322 13.6028L9.87891 19.6885C10.2241 20.0337 10.6326 20.2772 11.067 20.419C11.2604 20.4821 11.4589 20.5251 11.6593 20.5479C12.5363 20.6476 13.4489 20.3612 14.1215 19.6885L20.2072 13.6028ZM13.8111 17.388L18.9021 12.2971C20.5318 10.668 20.5386 8.14117 18.9001 6.49255C18.1028 5.70103 17.0755 5.27897 15.9962 5.27897C15.0607 5.27897 14.1664 5.59735 13.43 6.1951C14.951 8.79251 14.4156 12.2805 11.971 14.2516C11.9622 14.2588 11.9535 14.2659 11.9447 14.2731C12.0386 14.5484 12.1221 14.8865 12.1362 15.2654C13.0093 15.6296 13.6569 16.4264 13.8111 17.388ZM11.6027 17.0675C11.4511 16.961 11.2663 16.8985 11.067 16.8985C10.6972 16.8985 10.3777 17.1135 10.2266 17.4254C10.1671 17.5482 10.1338 17.6861 10.1338 17.8317C10.1338 17.9404 10.1524 18.0447 10.1865 18.1417C10.2888 18.4324 10.531 18.6571 10.8322 18.7352C10.9072 18.7546 10.9859 18.7649 11.067 18.7649C11.244 18.7649 11.4095 18.7157 11.5505 18.6301C11.8201 18.4665 12.0002 18.1701 12.0002 17.8317C12.0002 17.5157 11.8431 17.2363 11.6027 17.0675ZM9.25569 16.4544C9.63278 16.4456 9.99676 16.2362 10.1827 15.8471C10.293 15.6162 10.311 15.3911 10.2746 15.1669C10.251 15.0214 10.2044 14.8763 10.1454 14.7302C10.0323 14.4522 9.9279 14.1702 9.82209 13.8843C9.7768 13.762 9.73118 13.6387 9.68452 13.5148C9.75139 13.4803 9.81664 13.4481 9.88025 13.4168C10.0223 13.3468 10.1561 13.2809 10.2817 13.2012C10.4638 13.0848 10.6386 12.9575 10.8053 12.8199C12.4238 11.5203 12.8551 9.25898 12.0173 7.47289C11.8138 7.03906 11.5355 6.63327 11.181 6.27611C11.1195 6.21409 11.0567 6.1542 10.9927 6.09644C10.138 5.32445 9.07438 4.93237 8.00422 4.92929C6.98093 4.92634 5.95161 5.27907 5.09304 5.99545C5.00288 6.07067 4.91655 6.14868 4.83406 6.22923C4.83239 6.23087 4.83072 6.2325 4.82905 6.23413C3.07454 7.95284 3.06303 10.8252 4.82349 12.5721C4.85149 12.5999 4.88016 12.6276 4.90906 12.6548C5.97281 13.6547 7.00756 14.6854 8.04158 15.7154L8.45656 16.1286C8.53997 16.2117 8.63165 16.2785 8.7282 16.3294C8.89527 16.4177 9.07695 16.4586 9.25569 16.4544Z" fill="#393C47"/>
</svg>
