<svg width="143" height="113" viewBox="0 0 143 113" fill="none" xmlns="http://www.w3.org/2000/svg">
<path d="M70.0001 81C67.791 81 66.0001 79.2091 66.0001 77V72H48.0001L48.0001 77C48.0001 89.1503 57.8499 99 70.0001 99V81Z" fill="#A23EF0"/>
<path d="M136 69H76.0001C73.791 69 72.0001 70.7909 72.0001 73V106C72.0001 108.209 73.791 110 76.0001 110H136C138.209 110 140 108.209 140 106V73C140 70.7909 138.209 69 136 69Z" fill="#A23EF0"/>
<rect x="78.0001" y="77" width="20" height="26" rx="2" fill="#B565F3"/>
<rect x="114" y="77" width="20" height="26" rx="2" fill="#7C10D0"/>
<path d="M129.374 87.0011C129.713 86.9963 129.998 87.2796 130 87.622C130.001 87.9687 129.722 88.2555 129.377 88.261C129.042 88.2665 128.758 87.985 128.746 87.6466C128.733 87.276 129.057 86.98 129.374 87.0011Z" fill="white"/>
<path d="M128.372 89.6908C128.342 90.548 127.723 91.1627 126.977 91.2683C126.567 91.3278 126.151 91.2267 125.812 90.9856C125.474 90.7444 125.24 90.3815 125.157 89.971C124.972 89.0639 125.586 88.1644 126.491 88.0209C126.753 87.9776 127.021 88.0016 127.271 88.0907C127.321 88.1084 127.341 88.0986 127.36 88.0495C127.42 87.8995 127.481 87.7503 127.542 87.601L127.542 87.6008L127.542 87.6005C127.574 87.5235 127.605 87.4465 127.637 87.3694C127.694 87.228 127.794 87.1373 127.943 87.1049C128.181 87.0526 128.406 87.2429 128.402 87.489C128.4 87.582 128.401 87.6749 128.401 87.7679L128.401 87.7683C128.402 87.8146 128.402 87.861 128.402 87.9074L128.372 89.6908Z" fill="white"/>
<path d="M124.813 89.6867C124.826 90.5454 124.141 91.331 123.193 91.3328C122.294 91.3348 121.572 90.5977 121.569 89.6948C121.567 88.7919 122.296 88.0491 123.185 88.0477C123.398 88.0466 123.61 88.0881 123.807 88.17C124.004 88.2518 124.184 88.3723 124.335 88.5246C124.486 88.6769 124.606 88.858 124.688 89.0574C124.77 89.2568 124.813 89.4707 124.813 89.6867Z" fill="white"/>
<path d="M128.747 89.5741C128.747 89.6623 128.748 89.7504 128.748 89.8385L128.748 90.6547C128.745 90.8165 128.802 90.9565 128.908 91.075C129.085 91.2719 129.355 91.3385 129.592 91.2465C129.711 91.2012 129.813 91.1204 129.886 91.0147C129.958 90.909 129.997 90.7835 129.997 90.6549C129.998 90.4927 129.997 90.3306 129.997 90.1685V90.1684C129.997 90.0874 129.997 90.0064 129.997 89.9254C129.997 89.8267 129.997 89.728 129.997 89.6293C129.996 89.4319 129.996 89.2344 129.997 89.037C129.997 88.8591 129.935 88.7053 129.809 88.5844C129.61 88.3934 129.372 88.3469 129.123 88.4567C128.878 88.5649 128.749 88.7673 128.748 89.044C128.747 89.2205 128.747 89.3971 128.747 89.5736V89.5741Z" fill="white"/>
<path d="M119.359 91.4618L119.359 91.4619C119.338 91.5723 119.318 91.6811 119.301 91.7904C119.279 91.9361 119.232 92.0646 119.104 92.1504C118.876 92.3035 118.581 92.18 118.515 91.9116C118.497 91.8419 118.48 91.7721 118.463 91.7023L118.463 91.7021C118.334 91.1804 118.205 90.6586 118.061 90.1408C117.799 89.199 118.408 88.2226 119.362 88.0719C120.214 87.9373 120.999 88.4673 121.204 89.3162C121.426 90.2378 120.791 91.1837 119.864 91.3122C119.786 91.324 119.708 91.331 119.63 91.3332C119.576 91.3346 119.522 91.33 119.464 91.3251C119.439 91.323 119.412 91.3207 119.385 91.319C119.377 91.367 119.368 91.4145 119.359 91.4618Z" fill="white"/>
<path d="M118.666 92.7276C118.665 92.6557 118.693 92.5865 118.742 92.535C118.792 92.4835 118.859 92.4539 118.93 92.4527C119.075 92.4501 119.203 92.5732 119.206 92.7177C119.207 92.7544 119.2 92.7909 119.187 92.8251C119.173 92.8592 119.153 92.8904 119.128 92.9166C119.103 92.9429 119.072 92.9638 119.039 92.9781C119.006 92.9924 118.97 92.9999 118.933 93C118.862 92.9995 118.794 92.9706 118.744 92.9195C118.694 92.8685 118.666 92.7995 118.666 92.7276Z" fill="white"/>
<path d="M93.8251 88.0002L92.7554 86.1497L89.0387 88.2969V84.0024H86.9032V88.2969L83.1865 86.1497L82.1168 88.0002L85.8335 90.1475L82.1168 92.2947L83.1865 94.1452L86.9032 91.998V96.2885H89.0387V91.998L92.7554 94.1452L93.8251 92.2947L90.1085 90.1475L93.8251 88.0002Z" fill="white"/>
<path d="M87.9961 83C86.6118 83.0008 85.2588 83.412 84.1082 84.1816C82.9575 84.9513 82.0609 86.0448 81.5317 87.3239C81.0025 88.6031 80.8644 90.0104 81.135 91.368C81.4055 92.7256 82.0725 93.9725 83.0516 94.9511C84.0308 95.9297 85.278 96.596 86.6358 96.8658C87.9936 97.1356 89.4008 96.9967 90.6797 96.4668C91.9585 95.9368 93.0516 95.0396 93.8206 93.8886C94.5896 92.7375 95 91.3843 95 90C95.0005 89.0803 94.8197 88.1695 94.4678 87.3197C94.116 86.4699 93.6 85.6979 92.9495 85.0477C92.299 84.3976 91.5267 83.8821 90.6767 83.5307C89.8267 83.1793 88.9158 82.999 87.9961 83ZM87.9961 95.3525C86.9376 95.3517 85.9032 95.0371 85.0235 94.4485C84.1438 93.8599 83.4584 93.0237 83.0538 92.0456C82.6493 91.0675 82.5439 89.9914 82.7508 88.9534C82.9578 87.9154 83.4679 86.962 84.2166 86.2139C84.9653 85.4657 85.919 84.9563 86.9572 84.7501C87.9954 84.5439 89.0714 84.6501 90.0492 85.0553C91.027 85.4606 91.8627 86.1466 92.4507 87.0267C93.0387 87.9069 93.3525 88.9416 93.3525 90C93.3525 90.7032 93.2139 91.3996 92.9447 92.0492C92.6754 92.6989 92.2808 93.2891 91.7834 93.7862C91.286 94.2832 90.6954 94.6774 90.0456 94.9462C89.3958 95.2149 88.6993 95.353 87.9961 95.3525Z" fill="white"/>
<path d="M86.8916 90.101C86.8908 90.315 86.9536 90.5245 87.072 90.7028C87.1903 90.8812 87.3589 91.0204 87.5565 91.1029C87.754 91.1853 87.9716 91.2073 88.1816 91.166C88.3916 91.1247 88.5847 91.022 88.7363 90.8709C88.888 90.7198 88.9913 90.5272 89.0334 90.3173C89.0754 90.1074 89.0542 89.8898 88.9725 89.6919C88.8908 89.4941 88.7522 89.325 88.5743 89.206C88.3963 89.087 88.1871 89.0234 87.973 89.0234C87.8312 89.0229 87.6907 89.0504 87.5595 89.1043C87.4283 89.1583 87.3091 89.2376 87.2086 89.3377C87.1081 89.4378 87.0284 89.5567 86.974 89.6877C86.9196 89.8187 86.8916 89.9591 86.8916 90.101Z" fill="#A23EF0"/>
<path d="M113 68L111.979 54H100.017L99 68H113Z" fill="#48DB84"/>
<path d="M89.0001 69C89.0001 67.3431 90.3433 66 92.0001 66H119C120.657 66 122 67.3431 122 69H89.0001Z" fill="#48DB84"/>
<rect x="69.0001" y="7" width="74" height="53" rx="4" fill="#48DB84"/>
<path d="M138.067 10H73.9331C72.8655 10 72.0001 10.8068 72.0001 11.8021V55.1979C72.0001 56.1931 72.8655 57 73.9331 57H138.067C139.135 57 140 56.1931 140 55.1979V11.8021C140 10.8068 139.135 10 138.067 10Z" fill="#DAF8E6"/>
<path d="M134.424 18H109.576C108.153 18 107 19.1172 107 20.4954V44.5691C107 45.9472 108.153 47.0645 109.576 47.0645H134.424C135.847 47.0645 137 45.9472 137 44.5691V20.4954C137 19.1172 135.847 18 134.424 18Z" fill="white"/>
<path d="M116 31.5635H113V42.2204H116V31.5635Z" fill="#A23EF0"/>
<path fill-rule="evenodd" clip-rule="evenodd" d="M110 21.8755H111.044V42.2206H134V43.1894H110V21.8755Z" fill="#E6CBFB"/>
<path d="M121 23.813H118V42.2205H121V23.813Z" fill="#A23EF0"/>
<path d="M126 28.6572H123V42.2206H126V28.6572Z" fill="#A23EF0"/>
<path d="M131 26.7192H128V42.2203H131V26.7192Z" fill="#A23EF0"/>
<path d="M101.51 18H77.49C76.1149 18 75.0001 19.1172 75.0001 20.4954V44.5691C75.0001 45.9472 76.1149 47.0645 77.49 47.0645H101.51C102.885 47.0645 104 45.9472 104 44.5691V20.4954C104 19.1172 102.885 18 101.51 18Z" fill="white"/>
<path fill-rule="evenodd" clip-rule="evenodd" d="M77.9001 21.8755H78.9088V42.2206H101.1V43.1894H77.9001V21.8755Z" fill="#E6CBFB"/>
<path d="M85.6335 32.5324L85.9113 32.1167L85.4947 31.8383L85.2172 32.2555L85.6335 32.5324ZM88.5335 34.47L88.2557 34.8858L88.6377 35.141L88.9243 34.7819L88.5335 34.47ZM92.4002 29.6259L92.6779 29.2102L92.296 28.955L92.0094 29.314L92.4002 29.6259ZM95.3002 31.5636L95.0224 31.9793L95.4741 32.2811L95.7375 31.806L95.3002 31.5636ZM100.133 22.8442L95.1846 25.8178L100.234 28.6169L100.133 22.8442ZM80.2498 41.5287L86.0498 32.8093L85.2172 32.2555L79.4172 40.9748L80.2498 41.5287ZM85.3557 32.9481L88.2557 34.8858L88.8113 34.0543L85.9113 32.1167L85.3557 32.9481ZM88.9243 34.7819L92.7909 29.9379L92.0094 29.314L88.1427 34.1581L88.9243 34.7819ZM92.1224 30.0417L95.0224 31.9793L95.5779 31.1478L92.6779 29.2102L92.1224 30.0417ZM95.7375 31.806L98.3891 27.0224L97.5145 26.5376L94.8629 31.3212L95.7375 31.806Z" fill="#A23EF0"/>
<path d="M70 81C70 79.8954 70.8954 79 72 79V101C70.8954 101 70 100.105 70 99V81Z" fill="#7C10D0"/>
<path d="M110 81H102V83H110V81Z" fill="#7C10D0"/>
<path d="M110 86H102V88H110V86Z" fill="#7C10D0"/>
<path d="M102 91H110V93H102V91Z" fill="#7C10D0"/>
<path d="M110 96H102V98H110V96Z" fill="#7C10D0"/>
<path d="M43 59L48 72H66L71 59H43Z" fill="#A23EF0"/>
<path d="M57 62C64.732 62 71 60.6569 71 59C71 57.3431 64.732 56 57 56C49.268 56 43 57.3431 43 59C43 60.6569 49.268 62 57 62Z" fill="#5A0C98"/>
<path d="M47.094 42.0923L45.4272 28.171L38.9378 23.0684L25.1854 24.713L26.8567 38.6386L33.3462 43.7369L47.094 42.0923Z" fill="#48DB84"/>
<path opacity="0.5" d="M40.6668 36.9212L39 23L45.4895 28.1027L47.1563 42.0239L40.6668 36.9212Z" fill="black"/>
<path opacity="0.1" d="M47.0942 42.0924L40.6047 36.9897L26.8568 38.6388L33.3463 43.737L47.0942 42.0924Z" fill="black"/>
<path d="M40.6802 12.5159C40.578 12.7604 40.3647 12.9026 40.2047 12.8315C40.0446 12.7604 39.9913 12.4893 40.0935 12.2581C40.1958 12.027 40.4091 11.8714 40.5691 11.947C40.7291 12.0226 40.778 12.2848 40.6802 12.5159Z" fill="#263238"/>
<path d="M40.5693 11.9473C40.5693 11.9473 40.8804 12.2228 41.0893 12.1695C41.0539 12.204 41.0117 12.2307 40.9653 12.248C40.919 12.2652 40.8696 12.2726 40.8202 12.2697C40.7708 12.2668 40.7226 12.2536 40.6787 12.231C40.6347 12.2084 40.5959 12.1768 40.5648 12.1384L40.5693 11.9473Z" fill="#263238"/>
<path d="M40.0313 13.001L40.4225 15.4234C40.1365 15.4615 39.8456 15.4327 39.5725 15.3394C39.2995 15.2461 39.0519 15.0907 38.849 14.8856L40.0313 13.001Z" fill="#ED893E"/>
<path d="M33.084 16.7835L31.1549 19.0815L27.4879 17.068L31.1149 13.6499L33.084 16.7835Z" fill="#FFB573"/>
<path opacity="0.08" d="M32.1239 17.93C31.9239 17.6234 31.7919 17.2775 31.7367 16.9157C31.6815 16.5538 31.7044 16.1843 31.8039 15.832L32.5417 15.9832L33.084 16.7832L32.1239 17.93Z" fill="black"/>
<path d="M24.4209 30.4867L26.8256 29.1577L27.9723 29.9933L30.6748 31.4646L29.128 33.4025L27.5278 32.8114L25.5366 31.6068L24.7454 31.3801L24.4209 30.4867Z" fill="#CE7A63"/>
<path d="M27.0834 42.5327L34.7329 78.9049L39.3289 103.485L36.1731 104.218C36.1731 104.218 31.6838 94.8396 29.9058 86.7056C29.3147 83.9942 29.128 81.5229 28.848 79.4783C28.5235 77.0736 27.5634 75.3223 25.5143 70.433C24.9498 69.0773 24.3587 67.6594 23.7764 66.2459C21.9985 61.9256 20.5272 57.5918 19.0871 55.4717C17.567 53.2492 14.3089 51.3557 16.1446 45.0707L27.0834 42.5327Z" fill="#FFB573"/>
<path d="M23.1853 43.9766L12.5977 79.602L4.91705 103.404L1.80566 102.542C1.80566 102.542 2.32571 92.1587 4.63703 84.1624C5.41043 81.4955 6.41496 79.3575 7.13503 77.4285C7.91287 75.3705 7.95732 73.5259 8.44181 68.6632C8.61072 66.9342 8.80184 65.1074 8.99297 63.2494C9.48635 58.6046 10.2598 54.0975 10.0064 51.5417C9.73526 48.8748 7.78397 45.6478 12.371 40.9985L23.1853 43.9766Z" fill="#FFB573"/>
<path d="M39.5156 101.129L40.6357 106.765C40.6615 106.886 40.7185 106.999 40.8012 107.091C40.8839 107.183 40.9893 107.251 41.1069 107.29C41.7425 107.499 42.9648 107.894 43.4804 107.983C44.391 108.089 45.3063 108.148 46.2229 108.161C46.3731 108.165 46.5181 108.217 46.6371 108.309C46.7561 108.401 46.8429 108.528 46.8852 108.672C46.9092 108.752 46.9166 108.835 46.907 108.918C46.8973 109 46.8709 109.079 46.8292 109.151C46.7875 109.223 46.7315 109.285 46.6646 109.334C46.5978 109.383 46.5216 109.418 46.4407 109.437L38.0488 111.161C37.8781 111.194 37.7014 111.163 37.5517 111.075C37.402 110.986 37.2896 110.846 37.2354 110.681L34.6352 102.298C34.6097 102.218 34.6012 102.134 34.6101 102.051C34.6191 101.967 34.6453 101.886 34.6871 101.814C34.7289 101.741 34.7854 101.678 34.853 101.628C34.9206 101.578 34.9978 101.543 35.0797 101.525L38.6933 100.592C38.8733 100.558 39.0591 100.595 39.2123 100.696C39.3654 100.796 39.4741 100.951 39.5156 101.129Z" fill="#263238"/>
<path d="M6.14822 101.653L4.76588 107.231C4.73775 107.352 4.74183 107.478 4.77772 107.596C4.8136 107.715 4.88003 107.822 4.97034 107.907C5.45483 108.351 6.39713 109.24 6.82384 109.543C7.25054 109.845 8.54844 110.52 9.23294 110.876C9.36678 110.944 9.47581 111.052 9.54447 111.185C9.61312 111.319 9.63788 111.47 9.6152 111.618C9.60232 111.702 9.57216 111.781 9.52667 111.852C9.48118 111.923 9.42135 111.984 9.35104 112.03C9.28072 112.077 9.20146 112.108 9.11836 112.122C9.03525 112.136 8.95013 112.133 8.86847 112.112L0.538834 110.103C0.370252 110.061 0.222917 109.958 0.12465 109.815C0.0263829 109.672 -0.0160184 109.497 0.00545124 109.325L1.21 100.631C1.22 100.548 1.24704 100.468 1.28941 100.396C1.33179 100.324 1.38858 100.262 1.45622 100.213C1.52386 100.164 1.60088 100.13 1.68243 100.112C1.76398 100.095 1.84829 100.094 1.93007 100.111L5.59706 100.8C5.68975 100.819 5.77772 100.856 5.85583 100.909C5.93394 100.963 6.00061 101.031 6.05193 101.111C6.10326 101.19 6.13822 101.279 6.15475 101.372C6.17128 101.465 6.16906 101.561 6.14822 101.653Z" fill="#263238"/>
<path d="M12.38 36.2603C12.38 36.2603 8.53964 41.6563 8.15738 54.4174C7.77512 67.1786 8.06848 71.1567 6.67725 74.4992C6.67725 74.4992 19.6162 78.4596 34.2842 73.3747C34.2842 73.3747 30.1816 56.9021 29.6971 51.2527C29.4215 48.048 29.5682 45.2255 27.5147 38.5005L12.38 36.2603Z" fill="#48DB84"/>
<path d="M40.1202 11.0983C40.1401 11.1088 40.1622 11.1143 40.1847 11.1143C40.2072 11.1143 40.2293 11.1088 40.2491 11.0983C40.4106 11.0369 40.5843 11.015 40.756 11.0343C40.9276 11.0536 41.0921 11.1137 41.2359 11.2094C41.2654 11.2312 41.3023 11.2405 41.3385 11.235C41.3748 11.2296 41.4074 11.21 41.4292 11.1805C41.4511 11.1511 41.4603 11.1142 41.4548 11.0779C41.4494 11.0416 41.4298 11.009 41.4003 10.9872C41.2216 10.8612 41.0145 10.7811 40.7975 10.7539C40.5805 10.7268 40.3601 10.7535 40.1558 10.8316C40.1215 10.8447 40.0936 10.8704 40.0778 10.9036C40.0621 10.9367 40.0598 10.9746 40.0713 11.0094C40.0791 11.043 40.096 11.0738 40.1202 11.0983Z" fill="#263238"/>
<path d="M31.7683 7.34706C30.2615 10.5118 29.5459 11.8186 30.2482 14.281C31.7506 17.2457 35.5598 19.2503 37.9956 16.6234C40.1869 14.2588 42.2759 9.51169 39.9246 6.52032C39.1387 5.50483 37.983 4.84143 36.7098 4.67488C35.4366 4.50834 34.1491 4.85217 33.1285 5.63135C32.5447 6.08658 32.0784 6.67485 31.7683 7.34706Z" fill="#FFB573"/>
<path d="M30.2481 14.281C30.2481 14.281 31.2927 14.0365 32.3372 15.8144L36.2798 13.5342C36.8477 13.3103 37.4481 13.1797 38.0577 13.1475C38.6311 13.2097 38.6711 10.4362 39.2534 9.82722C39.6674 9.32819 39.9976 8.76526 40.2312 8.16041C40.2312 8.16041 42.8448 7.43145 42.3248 6.06244C41.8047 4.69343 40.6179 5.44016 39.929 5.2846C39.24 5.12903 34.0396 0.728636 32.155 5.42683C32.155 5.42683 27.7101 7.45368 30.2481 14.281Z" fill="#263238"/>
<path d="M32.3728 7.01812C32.1479 7.28783 31.8482 7.48489 31.5114 7.58447C31.1747 7.68404 30.816 7.68166 30.4806 7.57763C30.1452 7.4736 29.8481 7.27258 29.6268 6.99992C29.4055 6.72726 29.2699 6.39518 29.2371 6.04555C29.2043 5.69592 29.2758 5.34442 29.4425 5.03536C29.6093 4.72631 29.8638 4.47354 30.174 4.30895C30.4842 4.14436 30.8362 4.07531 31.1856 4.11052C31.535 4.14573 31.8661 4.28362 32.1372 4.50679C32.3182 4.65578 32.468 4.83909 32.5779 5.04618C32.6877 5.25327 32.7556 5.48004 32.7775 5.71345C32.7994 5.94686 32.7749 6.18229 32.7054 6.4062C32.636 6.63011 32.5229 6.83807 32.3728 7.01812Z" fill="#A23EF0"/>
<path d="M39.7113 7.14307C39.7113 7.14307 42.7205 7.58756 42.2582 8.99657C41.7959 10.4056 41.0448 7.42309 39.7113 7.14307Z" fill="#263238"/>
<path d="M32.1016 5.72898C31.6593 6.26022 31.0693 6.64833 30.4064 6.84416C29.7434 7.04 29.0373 7.03476 28.3773 6.82913C27.7174 6.62349 27.1332 6.2267 26.6989 5.68895C26.2645 5.15121 25.9994 4.4967 25.9372 3.80825C25.8749 3.11979 26.0183 2.42835 26.3492 1.82141C26.6801 1.21448 27.1835 0.719343 27.7959 0.398667C28.4083 0.0779902 29.102 -0.0538072 29.7894 0.0199437C30.4767 0.0936947 31.1267 0.369683 31.6571 0.812983C32.0092 1.1065 32.3 1.46652 32.5129 1.87247C32.7258 2.27842 32.8566 2.72235 32.8979 3.17888C32.9392 3.63542 32.8901 4.09561 32.7535 4.53316C32.6168 4.97072 32.3953 5.37706 32.1016 5.72898Z" fill="#263238"/>
<path d="M30.1281 6.57861C30.1281 6.57861 27.1056 6.95642 27.5279 8.35655C27.9501 9.75667 28.8036 6.81863 30.1281 6.57861Z" fill="#263238"/>
<path d="M37.6621 11.5869C37.7832 11.9231 37.8369 12.2798 37.8201 12.6367C37.8034 12.9937 37.7164 13.3438 37.5643 13.6671C37.1509 14.5205 36.2309 14.3072 35.7241 13.5293C35.2797 12.8315 34.9685 11.5469 35.6797 10.9469C35.8409 10.8181 36.0316 10.7313 36.2345 10.6942C36.4375 10.6571 36.6465 10.6708 36.8429 10.7342C37.0392 10.7976 37.2168 10.9087 37.3598 11.0575C37.5027 11.2063 37.6066 11.3882 37.6621 11.5869Z" fill="#FFB573"/>
<path d="M22.8208 15.903C22.7406 15.7976 22.6261 15.7235 22.4971 15.6935C22.368 15.6635 22.2326 15.6794 22.1141 15.7386C21.5674 16.0097 20.5406 16.7831 19.2427 18.9744C17.8026 21.4191 12.7843 27.6374 13.6689 28.8686C14.5534 30.0999 22.923 32.3756 23.7987 31.1977L24.8699 32.0867L25.7099 29.3753L24.4209 29.6109C24.4209 29.6109 23.8209 27.4285 18.3315 26.6862C18.336 26.6773 25.0432 18.8589 22.8208 15.903Z" fill="#A23EF0"/>
<path d="M11.6554 37.6788C11.6554 37.6788 15.8425 39.9945 27.8924 40.0923C27.8924 40.0923 29.6126 40.2745 28.7814 38.2077C28.7814 38.2077 36.4665 28.7402 37.2266 25.4021C37.267 25.2221 37.2622 25.035 37.2125 24.8573C37.1629 24.6797 37.07 24.5172 36.9421 24.3842C35.4175 22.7885 28.8392 16.2235 23.1631 15.6323C23.0074 15.6179 22.8506 15.6434 22.7075 15.7064C22.5644 15.7694 22.4398 15.8678 22.3453 15.9924C21.3007 17.3258 17.9004 22.1129 14.5534 31.4871C14.5446 31.4871 9.36632 35.443 11.6554 37.6788Z" fill="#A23EF0"/>
<path d="M26.0836 17.2061L26.9726 16.1349L26.9326 15.7215C26.9217 15.6493 26.9301 15.5756 26.957 15.5077C26.9839 15.4399 27.0283 15.3803 27.0856 15.3352C27.143 15.29 27.2112 15.2609 27.2835 15.2506C27.3558 15.2404 27.4295 15.2495 27.4971 15.277C28.8305 15.8282 32.0308 17.2861 33.5332 19.3041C33.5799 19.367 33.608 19.4418 33.6142 19.5199C33.6204 19.5981 33.6046 19.6764 33.5684 19.7459C33.5322 19.8154 33.4773 19.8734 33.4097 19.9132C33.3422 19.9529 33.2648 19.9729 33.1865 19.9708H32.702L32.7864 21.4376L26.0836 17.2061Z" fill="#A23EF0"/>
<path d="M40.969 39.0074L42.7469 38.843C42.9872 38.8199 43.2285 38.876 43.4339 39.0028C43.6393 39.1296 43.7977 39.3201 43.8848 39.5452L44.0893 40.0831L44.9293 41.6299C45.0056 41.7724 45.0499 41.9299 45.059 42.0912C45.0682 42.2526 45.042 42.4141 44.9823 42.5643C44.9227 42.7146 44.8309 42.85 44.7135 42.9611C44.5961 43.0723 44.4559 43.1564 44.3026 43.2078L43.9648 43.3233C43.7432 43.396 43.5043 43.3973 43.2819 43.3271C43.0594 43.257 42.8646 43.1189 42.7247 42.9322L42.2491 42.2922C42.2062 42.2376 42.1703 42.1779 42.1424 42.1143L41.1646 40.1142L40.7645 39.9319L40.969 39.0074Z" fill="#FFB573"/>
<path d="M36.8712 25.0589C36.9208 25.0154 36.9811 24.9858 37.0459 24.9732C37.1107 24.9606 37.1777 24.9653 37.24 24.987C37.3024 25.0087 37.3579 25.0465 37.4008 25.0967C37.4438 25.1468 37.4727 25.2074 37.4846 25.2723C37.6268 25.9968 37.7068 27.4325 37.0668 29.7794C36.0623 33.4508 35.1066 37.2645 35.1066 37.2645C35.1066 37.2645 39.9159 37.7401 40.0493 38.549L41.725 38.3357L41.3738 40.9404L40.3337 40.3848C40.3337 40.3848 39.7115 42.0649 33.5554 41.0826C29.2661 40.3892 30.5018 34.7042 31.653 31.3039C32.1972 29.7181 33.151 28.3043 34.4177 27.2058L36.8712 25.0589Z" fill="#A23EF0"/>
<path d="M55.1962 38.7512C51.2931 36.6566 52.6267 35.2123 49.2657 33.4087L47.1846 37.2868C50.7624 39.2068 49.4328 40.3833 53.2275 42.4197L55.1962 38.7512Z" fill="#EAD4FC"/>
<path d="M51.9822 54.1324C55.3148 56.4185 53.9623 57.5964 56.832 59.5649L59.1035 56.2536C56.0486 54.1581 57.371 53.2226 54.1309 51L51.9822 54.1324Z" fill="#EAD4FC"/>
<path d="M50.8817 50.2168C50.3209 45.8229 49.5609 48.7944 49.078 45.0107L44.7122 45.568C45.2262 49.5958 46.2066 46.4721 46.7519 50.7439L50.8817 50.2168Z" fill="#EAD4FC"/>
<path d="M57.5439 36.105C56.97 39.7284 58.2638 37.5423 57.7696 40.6625L61.3699 41.2327C61.896 37.9112 60.3916 40.1672 60.9495 36.6444L57.5439 36.105Z" fill="#EAD4FC"/>
<path d="M45.9211 29.5861C42.7827 30.1832 44.9553 30.5995 42.2528 31.1136L42.846 34.232C45.7229 33.6847 43.4311 33.1164 46.4823 32.5359L45.9211 29.5861Z" fill="#EAD4FC"/>
<path d="M61.401 49.2939C59.7616 46.2942 60.9696 47.3471 59.1404 44L55.574 45.9491C57.5213 49.5122 56.1672 48.3988 57.7476 51.2906L61.401 49.2939Z" fill="#EAD4FC"/>
<path d="M66.5668 54.6523C64.2652 53.1137 65.5272 53.4165 62.9591 51.6997L61.1298 54.436C63.8636 56.2636 62.4742 55.9721 64.6929 57.4553L66.5668 54.6523Z" fill="#EAD4FC"/>
<path d="M49.8006 56.3366C48.7918 54.5188 49.5306 55.1543 48.4049 53.126L46.2437 54.3254C47.442 56.4846 46.6141 55.8129 47.5867 57.5653L49.8006 56.3366Z" fill="#EAD4FC"/>
</svg>
