<svg width="160" height="160" viewBox="0 0 160 160" fill="none" xmlns="http://www.w3.org/2000/svg">
<path d="M91.364 11H64.914C60.7673 11 57.4058 14.3616 57.4058 18.5083V28.7952C57.4058 32.9419 60.7673 36.3035 64.914 36.3035H91.364C95.5107 36.3035 98.8723 32.9419 98.8723 28.7952V18.5083C98.8723 14.3616 95.5107 11 91.364 11Z" fill="#48DB84"/>
<g clip-path="url(#clip0_4989_38639)">
<path d="M90.4149 17.5928C91.1926 17.582 91.845 18.2305 91.8492 19.0148C91.8518 19.8087 91.2118 20.4655 90.4224 20.4781C89.6546 20.4907 89.0061 19.8461 88.9785 19.0711C88.9483 18.2224 89.6889 17.5446 90.4149 17.5928Z" fill="white"/>
<path d="M88.1204 23.7524C88.0518 25.7153 86.6341 27.1231 84.9258 27.3648C83.9881 27.5012 83.0343 27.2696 82.2596 26.7174C81.4849 26.1652 80.9478 25.3341 80.7582 24.3941C80.3341 22.3167 81.7405 20.2569 83.8132 19.9283C84.4126 19.8291 85.027 19.884 85.6 20.0881C85.7144 20.1287 85.7594 20.1063 85.8039 19.9938C85.9398 19.6503 86.0799 19.3085 86.22 18.9666L86.2202 18.9662L86.2205 18.9654C86.2928 18.7891 86.3651 18.6128 86.4368 18.4362C86.5684 18.1126 86.7969 17.9048 87.1388 17.8305C87.6833 17.7107 88.1995 18.1465 88.1893 18.7101C88.1855 18.923 88.1868 19.136 88.1881 19.3489L88.1881 19.3497C88.1887 19.4559 88.1893 19.5621 88.1893 19.6683L88.1204 23.7524Z" fill="white"/>
<path d="M79.97 23.7429C80.0007 25.7095 78.4317 27.5086 76.2611 27.5125C74.2032 27.5173 72.5479 25.8293 72.5427 23.7616C72.5375 21.6939 74.2069 19.9928 76.2426 19.9896C76.731 19.987 77.2151 20.0822 77.6671 20.2696C78.1191 20.457 78.5301 20.733 78.8765 21.0818C79.2228 21.4306 79.4977 21.8452 79.6854 22.3019C79.8731 22.7585 79.9698 23.2483 79.97 23.7429Z" fill="white"/>
<path d="M88.9806 23.4852C88.9809 23.6871 88.9811 23.8889 88.9811 24.0905L88.9821 25.9597C88.9762 26.3302 89.1046 26.6509 89.348 26.9221C89.7528 27.3732 90.3717 27.5257 90.9151 27.315C91.1872 27.2113 91.4217 27.0261 91.5872 26.7841C91.7527 26.542 91.8414 26.2546 91.8416 25.9602C91.844 25.5889 91.8432 25.2175 91.8424 24.8463V24.8462C91.842 24.6606 91.8416 24.4751 91.8416 24.2896C91.8416 24.0636 91.8414 23.8376 91.8412 23.6115C91.8409 23.1594 91.8405 22.7071 91.8416 22.2551C91.8424 21.8477 91.7012 21.4956 91.4123 21.2186C90.9562 20.7812 90.4115 20.6748 89.8418 20.9263C89.2801 21.1741 88.9834 21.6376 88.9811 22.2711C88.9797 22.6753 88.9802 23.0798 88.9806 23.4839V23.4852Z" fill="white"/>
<path d="M67.4808 27.8081L67.4808 27.8082C67.4338 28.061 67.3875 28.3102 67.3491 28.5606C67.2971 28.8942 67.1902 29.1884 66.8977 29.3848C66.375 29.7356 65.7 29.4528 65.5476 28.8382C65.508 28.6784 65.4684 28.5186 65.4289 28.3588L65.4288 28.3583C65.1331 27.1636 64.8373 25.9686 64.5075 24.7828C63.9095 22.6261 65.3029 20.3901 67.4887 20.0449C69.4389 19.7368 71.2356 20.9505 71.705 22.8944C72.2146 25.0051 70.7608 27.1713 68.6367 27.4654C68.4591 27.4925 68.28 27.5086 68.1005 27.5136C67.977 27.5167 67.8534 27.5062 67.7223 27.4951C67.6636 27.4901 67.6034 27.485 67.541 27.4809C67.5212 27.5909 67.5009 27.6998 67.4808 27.8081Z" fill="white"/>
<path d="M65.894 30.7068C65.8924 30.5422 65.9552 30.3837 66.0685 30.2658C66.1818 30.1478 66.3366 30.08 66.499 30.0771C66.8308 30.0713 67.1231 30.3531 67.1304 30.6841C67.1319 30.7682 67.117 30.8518 67.0863 30.93C67.0557 31.0082 67.01 31.0795 66.9519 31.1396C66.8939 31.1998 66.8246 31.2476 66.7481 31.2804C66.6716 31.3132 66.5894 31.3303 66.5063 31.3306C66.3437 31.3294 66.1881 31.2631 66.0734 31.1463C65.9587 31.0295 65.8942 30.8715 65.894 30.7068Z" fill="white"/>
</g>
<path d="M82.9033 34.328C85.0145 39.3099 90.7592 41.2371 94.0916 41.6687C90.8227 37.1218 90.9666 33.1235 90.9666 33.1235L82.9033 34.328Z" fill="#48DB84"/>
<path d="M100.419 126.289H96.5513V136.065H100.419V126.289Z" fill="#E0E0E0"/>
<path d="M101.184 132.701H95.7854L95.4108 142.115C95.4009 142.355 95.4396 142.594 95.5246 142.818C95.6095 143.043 95.739 143.248 95.9053 143.421C96.0715 143.594 96.271 143.732 96.4918 143.826C96.7126 143.92 96.9501 143.968 97.1901 143.968H99.8001C100.04 143.967 100.277 143.919 100.497 143.824C100.717 143.73 100.916 143.592 101.082 143.419C101.248 143.246 101.377 143.042 101.462 142.818C101.547 142.593 101.585 142.354 101.575 142.115L101.184 132.701Z" fill="#393C47"/>
<path d="M111.926 143.712C111.812 143.712 111.7 143.683 111.6 143.629C111.5 143.575 111.415 143.497 111.352 143.403C110.816 142.585 110.085 141.914 109.225 141.451C108.364 140.987 107.402 140.746 106.425 140.748H90.5452C89.568 140.746 88.6057 140.987 87.7454 141.451C86.8851 141.914 86.1541 142.585 85.6184 143.403C85.5152 143.548 85.3594 143.648 85.1839 143.681C85.0084 143.714 84.827 143.678 84.6779 143.579C84.5288 143.481 84.4238 143.329 84.3851 143.154C84.3463 142.98 84.3768 142.797 84.4702 142.645C85.1333 141.641 86.0357 140.818 87.0962 140.249C88.1566 139.68 89.3419 139.384 90.5452 139.388H106.425C107.63 139.382 108.817 139.675 109.88 140.243C110.942 140.81 111.847 141.633 112.512 142.637C112.581 142.741 112.62 142.861 112.625 142.985C112.631 143.109 112.602 143.232 112.544 143.342C112.485 143.451 112.397 143.543 112.291 143.606C112.184 143.67 112.062 143.704 111.938 143.704L111.926 143.712Z" fill="#263238"/>
<path d="M105.003 126.973H91.9738C91.2694 126.974 90.5864 126.731 90.0403 126.286C89.4943 125.84 89.1187 125.22 88.9771 124.53L88.5699 122.535H108.424L108.016 124.53C107.874 125.223 107.496 125.845 106.947 126.291C106.398 126.736 105.711 126.977 105.003 126.973Z" fill="#393C47"/>
<path d="M69.9752 121.708H85.5943C91.5143 121.689 97.2294 119.539 101.693 115.651C106.158 111.762 109.072 106.396 109.903 100.535L114.186 70.3716H141.784L137.501 100.535C136.67 106.396 133.756 111.762 129.292 115.651C124.828 119.539 119.112 121.689 113.193 121.708H69.9752Z" fill="#393C47"/>
<path d="M69.975 123.996C69.6661 124.009 69.3577 123.959 69.0685 123.85C68.7793 123.741 68.5151 123.574 68.2919 123.36C68.0688 123.146 67.8912 122.889 67.7699 122.605C67.6485 122.321 67.586 122.015 67.586 121.705C67.586 121.396 67.6485 121.09 67.7699 120.806C67.8912 120.521 68.0688 120.265 68.2919 120.051C68.5151 119.837 68.7793 119.67 69.0685 119.561C69.3577 119.452 69.6661 119.402 69.975 119.415H85.6389C90.9963 119.372 96.1607 117.41 100.195 113.884C104.229 110.359 106.866 105.504 107.626 100.201L111.91 70.0371C111.988 69.491 112.26 68.9913 112.677 68.6294C113.093 68.2675 113.626 68.0677 114.178 68.0664H141.776C142.104 68.0667 142.428 68.1373 142.727 68.2736C143.025 68.4099 143.291 68.6087 143.506 68.8565C143.721 69.1043 143.88 69.3954 143.973 69.71C144.066 70.0247 144.09 70.3556 144.044 70.6805L139.76 100.844C137.887 114.04 126.462 123.996 113.184 123.996H69.975ZM116.177 72.6512L112.17 100.844C111.634 104.586 110.318 108.173 108.308 111.374C106.298 114.576 103.638 117.319 100.501 119.427H113.192C118.558 119.397 123.735 117.441 127.78 113.915C131.825 110.389 134.47 105.528 135.233 100.217L139.146 72.6634L116.177 72.6512Z" fill="#393C47"/>
<path opacity="0.2" d="M97.5687 123.996C97.2598 124.009 96.9514 123.96 96.6622 123.851C96.373 123.741 96.1088 123.575 95.8856 123.361C95.6625 123.147 95.4849 122.89 95.3636 122.606C95.2422 122.321 95.1797 122.015 95.1797 121.706C95.1797 121.397 95.2422 121.091 95.3636 120.807C95.4849 120.522 95.6625 120.265 95.8856 120.051C96.1088 119.837 96.373 119.671 96.6622 119.561C96.9514 119.452 97.2598 119.403 97.5687 119.416H113.192C118.558 119.385 123.734 117.429 127.78 113.903C131.825 110.378 134.469 105.517 135.232 100.205L139.516 70.0419C139.547 69.7349 139.64 69.4375 139.789 69.1674C139.938 68.8973 140.14 68.66 140.383 68.4699C140.626 68.2798 140.905 68.1406 141.203 68.0609C141.501 67.9811 141.813 67.9623 142.118 68.0056C142.424 68.049 142.717 68.1535 142.981 68.313C143.245 68.4725 143.475 68.6837 143.655 68.9339C143.836 69.1841 143.964 69.4682 144.032 69.7691C144.1 70.07 144.107 70.3816 144.052 70.6852L139.768 100.849C137.895 114.045 126.47 124 113.192 124L97.5687 123.996Z" fill="white"/>
<path d="M87.0514 143.65C87.0514 143.261 86.9358 142.88 86.7192 142.556C86.5027 142.231 86.1949 141.979 85.8348 141.83C85.4747 141.681 85.0785 141.642 84.6962 141.718C84.3139 141.794 83.9628 141.981 83.6871 142.257C83.4115 142.533 83.2238 142.884 83.1478 143.266C83.0718 143.648 83.1108 144.044 83.2599 144.405C83.4091 144.765 83.6617 145.072 83.9858 145.289C84.3099 145.506 84.6909 145.621 85.0806 145.621C85.6033 145.621 86.1046 145.413 86.4742 145.044C86.8437 144.674 87.0514 144.173 87.0514 143.65Z" fill="#393C47"/>
<path d="M113.86 143.65C113.86 143.261 113.744 142.88 113.528 142.556C113.311 142.231 113.003 141.979 112.643 141.83C112.283 141.681 111.887 141.642 111.505 141.718C111.122 141.794 110.771 141.981 110.496 142.257C110.22 142.533 110.032 142.884 109.956 143.266C109.88 143.648 109.919 144.044 110.068 144.405C110.218 144.765 110.47 145.072 110.794 145.289C111.118 145.506 111.499 145.621 111.889 145.621C112.412 145.621 112.913 145.413 113.283 145.044C113.652 144.674 113.86 144.173 113.86 143.65Z" fill="#393C47"/>
<path d="M111.926 143.712C111.812 143.712 111.7 143.683 111.6 143.629C111.5 143.575 111.415 143.497 111.352 143.403C110.816 142.585 110.085 141.914 109.225 141.451C108.364 140.987 107.402 140.746 106.425 140.748H90.5452C89.568 140.746 88.6057 140.987 87.7454 141.451C86.8851 141.914 86.1541 142.585 85.6184 143.403C85.5152 143.548 85.3594 143.648 85.1839 143.681C85.0084 143.714 84.827 143.678 84.6779 143.579C84.5288 143.481 84.4238 143.329 84.3851 143.154C84.3463 142.98 84.3768 142.797 84.4702 142.645C85.1333 141.641 86.0357 140.818 87.0962 140.249C88.1566 139.68 89.3419 139.384 90.5452 139.388H106.425C107.63 139.382 108.817 139.675 109.88 140.243C110.942 140.81 111.847 141.633 112.512 142.637C112.581 142.741 112.62 142.861 112.625 142.985C112.631 143.109 112.602 143.232 112.544 143.342C112.485 143.451 112.397 143.543 112.291 143.606C112.184 143.67 112.062 143.704 111.938 143.704L111.926 143.712Z" fill="#393C47"/>
<path d="M105.208 144.872C105.062 144.871 104.921 144.824 104.803 144.739C104.686 144.653 104.598 144.533 104.552 144.395C104.055 142.885 103.233 141.903 102.455 141.903H94.5151C93.7374 141.903 92.915 142.885 92.4182 144.395C92.3563 144.562 92.2323 144.698 92.0722 144.776C91.912 144.853 91.7282 144.865 91.5592 144.81C91.3902 144.754 91.2492 144.636 91.1657 144.479C91.0822 144.322 91.0626 144.139 91.1112 143.968C91.8197 141.814 93.09 140.531 94.5151 140.531H102.455C103.88 140.531 105.151 141.814 105.859 143.968C105.916 144.141 105.901 144.33 105.819 144.492C105.736 144.655 105.592 144.778 105.419 144.835C105.351 144.859 105.28 144.871 105.208 144.872Z" fill="#393C47"/>
<path d="M93.7329 144.811C93.7329 144.421 93.6174 144.04 93.4008 143.716C93.1843 143.392 92.8765 143.14 92.5164 142.99C92.1563 142.841 91.76 142.802 91.3778 142.878C90.9955 142.954 90.6443 143.142 90.3687 143.418C90.0931 143.693 89.9054 144.044 89.8294 144.427C89.7533 144.809 89.7924 145.205 89.9415 145.565C90.0907 145.925 90.3433 146.233 90.6674 146.45C90.9914 146.666 91.3725 146.782 91.7622 146.782C92.2849 146.782 92.7862 146.574 93.1557 146.205C93.5253 145.835 93.7329 145.334 93.7329 144.811Z" fill="#393C47"/>
<path d="M107.178 144.811C107.178 144.421 107.063 144.04 106.846 143.716C106.63 143.392 106.322 143.14 105.962 142.99C105.602 142.841 105.205 142.802 104.823 142.878C104.441 142.954 104.09 143.142 103.814 143.418C103.538 143.693 103.351 144.044 103.275 144.427C103.199 144.809 103.238 145.205 103.387 145.565C103.536 145.925 103.789 146.233 104.113 146.45C104.437 146.666 104.818 146.782 105.208 146.782C105.73 146.782 106.232 146.574 106.601 146.205C106.971 145.835 107.178 145.334 107.178 144.811Z" fill="#393C47"/>
<path d="M56.0701 117.767L63.0042 120.776L59.0302 125.413L53.2321 122.901L56.0701 117.767Z" fill="#FFB573"/>
<path opacity="0.2" d="M56.074 117.767L63.0082 120.78L60.781 123.377L54.482 120.645L56.074 117.767Z" fill="black"/>
<path d="M60.0154 127.827L59.2336 127.648C59.0039 127.596 58.7906 127.488 58.6123 127.334C58.4341 127.18 58.2965 126.984 58.2116 126.764L57.7108 126.997C57.4215 127.133 57.0946 127.169 56.7824 127.098L46.086 124.655C46.1145 123.694 46.9614 122.619 46.9614 122.619C46.9614 122.619 51.7213 123.434 53.0975 122.298C53.1518 122.26 53.2157 122.238 53.2819 122.234C53.3481 122.23 53.414 122.245 53.4721 122.277C54.3353 122.685 57.7393 124.154 59.9217 123.947C59.9893 123.942 60.0572 123.952 60.12 123.978C60.1828 124.003 60.2388 124.043 60.2835 124.094C60.3282 124.145 60.3603 124.206 60.3774 124.271C60.3945 124.337 60.396 124.406 60.3819 124.472C60.1788 125.58 60.0564 126.701 60.0154 127.827Z" fill="#263238"/>
<path d="M53.2846 122.608C53.2692 122.608 53.254 122.604 53.24 122.598C53.226 122.592 53.2134 122.583 53.2032 122.571C53.1584 122.522 52.0712 121.35 52.1038 120.686C52.1055 120.62 52.1208 120.554 52.1488 120.494C52.1769 120.434 52.217 120.38 52.2667 120.336C52.3226 120.28 52.395 120.243 52.4732 120.23C52.5515 120.218 52.6317 120.231 52.7024 120.267C53.1706 120.503 53.4638 121.81 53.4027 122.506C53.3998 122.528 53.391 122.548 53.3774 122.565C53.3638 122.583 53.3458 122.596 53.3253 122.604L53.2846 122.608ZM52.5354 120.454C52.5129 120.455 52.491 120.461 52.4707 120.471C52.4504 120.48 52.4323 120.494 52.4173 120.511C52.3904 120.534 52.369 120.563 52.3549 120.595C52.3408 120.628 52.3343 120.663 52.3359 120.698C52.3155 121.105 52.8326 121.793 53.1787 122.201C53.1543 121.529 52.8978 120.621 52.6006 120.47C52.5801 120.46 52.558 120.455 52.5354 120.454Z" fill="#263238"/>
<path d="M52.442 122.657C51.9878 122.695 51.5323 122.6 51.1309 122.384C51.078 122.345 51.0339 122.294 51.0016 122.237C50.9693 122.179 50.9496 122.116 50.9436 122.05C50.9278 121.97 50.9388 121.886 50.9748 121.813C51.0108 121.739 51.07 121.68 51.1432 121.643C51.6073 121.407 52.837 121.94 53.3623 122.4C53.379 122.415 53.3912 122.434 53.3973 122.455C53.4034 122.476 53.4032 122.499 53.3968 122.52C53.3903 122.541 53.3778 122.56 53.3608 122.574C53.3439 122.588 53.3231 122.597 53.3012 122.6C53.0161 122.634 52.7292 122.653 52.442 122.657ZM51.4363 121.818C51.3666 121.816 51.2972 121.828 51.2327 121.855C51.192 121.879 51.1472 121.916 51.1594 122.03C51.1636 122.064 51.1748 122.098 51.1923 122.128C51.2098 122.158 51.2333 122.184 51.2612 122.205C51.5707 122.453 52.442 122.449 52.9754 122.408C52.5181 122.089 51.9897 121.887 51.4363 121.818Z" fill="#263238"/>
<path d="M118.347 95.95L115.363 102.168C110.981 111.345 100.187 115.959 91.5675 112.347C86.5348 110.238 81.042 105.779 77.3164 103.739C74.1201 110.747 68.1346 118.475 63.5539 123.854L54.2867 119.191C57.7477 111.248 63.1346 98.8328 66.5548 90.7871C67.1638 89.3603 68.1626 88.1341 69.4365 87.249C70.7105 86.364 72.2082 85.8558 73.7577 85.7829C89.1651 85.3676 118.347 95.95 118.347 95.95Z" fill="#48DB84"/>
<path d="M108.778 31.5924C107.04 31.0183 105.057 32.1218 105.032 36.0062C105.008 39.8906 108.538 41.9713 110.028 36.9508C110.924 33.9215 110.069 32.0118 108.778 31.5924Z" fill="#263238"/>
<path d="M73.3093 138.105L80.8583 137.75L79.3396 143.663L73.0284 143.964L73.3093 138.105Z" fill="#FFB573"/>
<path opacity="0.2" d="M73.3136 138.105L80.8626 137.75L80.0116 141.065L73.1548 141.391L73.3136 138.105Z" fill="black"/>
<path d="M80.4954 146.781H79.6811C79.4456 146.781 79.2138 146.722 79.0064 146.611C78.799 146.499 78.6223 146.338 78.4921 146.142L78.0565 146.484C77.8032 146.679 77.4926 146.785 77.1729 146.785H66.2118C66.0245 145.845 66.619 144.615 66.619 144.615C66.619 144.615 71.4399 144.358 72.5271 142.945C72.5663 142.891 72.6199 142.849 72.6818 142.824C72.7437 142.799 72.8114 142.792 72.8772 142.803C73.8097 142.998 77.4579 143.691 79.5386 143.002C79.6029 142.982 79.6711 142.977 79.7377 142.988C79.8044 142.999 79.8675 143.025 79.9222 143.064C79.9768 143.104 80.0214 143.156 80.0524 143.216C80.0833 143.276 80.0998 143.342 80.1005 143.41C80.1506 144.542 80.2826 145.668 80.4954 146.781Z" fill="#263238"/>
<path d="M72.752 143.186C72.7285 143.187 72.7054 143.18 72.6868 143.166C72.6298 143.129 71.3147 142.242 71.1966 141.57C71.1835 141.505 71.1839 141.438 71.1979 141.374C71.212 141.309 71.2392 141.249 71.278 141.195C71.3196 141.128 71.3814 141.076 71.4545 141.046C71.5276 141.016 71.6084 141.01 71.6852 141.028C72.1901 141.158 72.7683 142.364 72.8619 143.064C72.8643 143.087 72.8602 143.109 72.8501 143.129C72.84 143.15 72.8243 143.167 72.8049 143.178C72.7884 143.186 72.77 143.189 72.752 143.186ZM71.5915 141.244C71.5646 141.247 71.5387 141.256 71.5161 141.271C71.4934 141.286 71.4746 141.306 71.4612 141.33C71.4409 141.359 71.427 141.392 71.4207 141.427C71.4144 141.462 71.4157 141.499 71.4246 141.533C71.4938 141.94 72.1494 142.49 72.581 142.812C72.4099 142.16 71.9539 141.334 71.6322 141.252L71.5915 141.244Z" fill="#263238"/>
<path d="M71.1193 143.533C70.9492 143.54 70.7795 143.51 70.6226 143.443C70.5624 143.416 70.5085 143.377 70.4644 143.328C70.4202 143.279 70.3867 143.221 70.3661 143.158C70.3366 143.084 70.331 143.003 70.3499 142.926C70.3689 142.848 70.4116 142.779 70.4719 142.727C70.8791 142.393 72.1902 142.641 72.805 142.971C72.8239 142.982 72.8395 142.999 72.8502 143.018C72.861 143.037 72.8664 143.059 72.8661 143.081C72.8646 143.103 72.8564 143.124 72.8426 143.142C72.8288 143.159 72.81 143.172 72.7887 143.179C72.2525 143.377 71.6901 143.497 71.1193 143.533ZM71.1193 142.792C70.9465 142.778 70.7734 142.816 70.6226 142.902C70.5859 142.934 70.5534 142.979 70.5859 143.089C70.5982 143.122 70.6172 143.152 70.6417 143.177C70.6662 143.203 70.6958 143.223 70.7285 143.236C71.0868 143.411 71.9296 143.215 72.4427 143.057C72.0186 142.893 71.5696 142.803 71.1153 142.792H71.1193Z" fill="#263238"/>
<path d="M122.663 93.4873L122.614 100.055C122.536 109.742 114.324 118.378 104.519 119.119C98.7941 119.526 91.0578 119.673 86.6033 119.583C85.9559 126.367 83.8345 134.359 81.7172 140.149L72.0753 139.478C71.8229 131.257 71.4524 119.599 71.1429 111.867C71.0208 108.854 72.8897 105.89 75.7643 104.473C90.1986 97.3554 122.663 93.4873 122.663 93.4873Z" fill="#48DB84"/>
<path opacity="0.1" d="M79.641 140.234C79.6195 140.238 79.5974 140.238 79.5759 140.234C79.5181 140.217 79.4698 140.177 79.4415 140.123C79.4133 140.07 79.4074 140.007 79.4252 139.949C80.8829 135.157 83.4969 120.197 83.6232 113.328C83.6271 113.263 83.6563 113.202 83.7046 113.157C83.7293 113.137 83.7579 113.122 83.7887 113.113C83.8195 113.103 83.8519 113.101 83.8838 113.105C97.9679 114.978 107.5 114.326 111.47 111.264C118.428 105.857 118.327 97.1026 116.563 92.5341C116.541 92.4775 116.543 92.4143 116.567 92.3585C116.592 92.3028 116.637 92.259 116.694 92.2369C116.75 92.2148 116.814 92.2161 116.869 92.2405C116.925 92.2649 116.969 92.3105 116.991 92.3672C118.803 97.0578 118.905 106.056 111.751 111.618C107.655 114.798 98.3466 115.462 84.0629 113.585C83.8878 120.592 81.2941 135.32 79.8487 140.072C79.8358 140.117 79.8087 140.158 79.7714 140.187C79.7341 140.216 79.6884 140.233 79.641 140.234Z" fill="black"/>
<path opacity="0.2" d="M76.9411 104.546C75.2867 107.861 73.3696 111.039 71.2081 114.049C71.2569 115.405 71.3099 116.842 71.3628 118.337C74.7749 112.95 76.9451 104.538 76.9451 104.538L76.9411 104.546Z" fill="black"/>
<path d="M96.8242 64.4598L96.4618 64.6919L96.1686 64.8711L95.5986 65.2009C95.2199 65.4167 94.8412 65.6081 94.4666 65.7954C93.7134 66.1781 92.9397 66.5079 92.1539 66.8215C90.5585 67.4536 88.9078 67.9361 87.223 68.2628C86.3639 68.4298 85.4803 68.5479 84.5846 68.6334C83.6688 68.7035 82.7496 68.7184 81.8321 68.6782C80.8818 68.64 79.9358 68.5297 79.0022 68.3484C78.0425 68.1537 77.1002 67.8814 76.1846 67.534L75.81 67.3956C75.2432 67.1874 74.7319 66.8516 74.3156 66.4143C73.429 65.4823 72.7515 64.3718 72.3286 63.1569C71.9943 62.1953 71.7929 61.1925 71.7301 60.1764C71.6299 58.5366 71.767 56.8909 72.1373 55.2903C72.46 53.8737 72.8985 52.486 73.4484 51.1412C73.7171 50.4857 74.0103 49.8464 74.3197 49.2194L74.8042 48.2829C74.9834 47.9693 75.1463 47.6884 75.3539 47.3341C75.6512 46.8334 76.1056 46.4448 76.6464 46.2289C77.1873 46.013 77.7843 45.9817 78.3447 46.1401C78.9051 46.2984 79.3975 46.6374 79.7454 47.1044C80.0933 47.5715 80.2772 48.1403 80.2685 48.7226V49.1298C80.2685 49.3782 80.2278 49.708 80.2115 50.0011L80.1423 50.9091C80.0934 51.5117 80.0649 52.1306 80.0364 52.7088C80.0079 53.287 79.9957 53.8896 79.9916 54.4597C79.9876 55.0297 79.9916 55.5957 80.0283 56.1332C80.0551 57.0816 80.2014 58.0228 80.464 58.9345C80.5384 59.1999 80.6627 59.4487 80.8304 59.6674C80.9444 59.7855 80.9974 59.7285 80.9363 59.5941L79.0673 58.4744C79.9858 58.6405 80.9218 58.6884 81.8524 58.6169C82.3623 58.5798 82.8695 58.5118 83.3712 58.4133C83.8883 58.3237 84.4176 58.2138 84.951 58.0672C85.4844 57.9206 86.0178 57.7496 86.5593 57.5705C87.1009 57.3913 87.6384 57.1633 88.188 56.9516C88.7377 56.7398 89.2589 56.4833 89.7923 56.239C90.0529 56.1169 90.3135 55.9866 90.5619 55.8604L90.9283 55.673L91.0993 55.5875C91.136 55.5672 91.2215 55.5183 91.193 55.5428C92.3755 54.796 93.8061 54.5496 95.1703 54.8577C96.5345 55.1658 97.7204 56.0032 98.4671 57.1857C99.2139 58.3682 99.4603 59.7989 99.1522 61.163C98.8441 62.5272 98.0067 63.7131 96.8242 64.4598Z" fill="#FFB573"/>
<path d="M75.1863 50.1459L78.3588 50.7103C81.6902 50.0858 80.1442 45.9429 80.1442 45.9429L80.2024 43.6531C80.1835 43.2495 80.0236 42.8654 79.7507 42.5676C79.4777 42.2697 79.1089 42.0771 78.7085 42.0232L76.4953 41.6095C75.4842 41.4216 74.5144 41.9875 74.3485 42.8622L73.9677 44.8229C73.858 45.3946 73.8905 45.9845 74.0621 46.5408L75.1863 50.1459Z" fill="#FFB573"/>
<path d="M107.025 50.6052C105.742 48.8869 98.2031 49.1157 93.8788 52.3171C91.6443 53.9714 89.1971 55.9618 86.2166 56.7151C83.2361 57.4683 81.0862 61.0718 81.9168 63.1036C83.4518 66.8537 84.4942 68.6493 87.2671 68.9506C90.0399 69.2519 93.6882 67.4563 96.632 65.2535C99.5759 63.0507 109.289 53.6549 107.025 50.6052Z" fill="#A23EF0"/>
<path d="M84.9387 56.642C82.6219 55.1517 80.3458 57.6518 80.3458 60.7951C80.3458 63.9385 81.0828 66.6177 82.2107 68.4622C83.3385 70.3067 85.3296 70.152 87.1863 70.0665C88.7906 69.9891 89.5805 69.4109 88.815 67.9533C88.0495 66.4956 85.2278 64.3864 84.8084 60.2902C84.5764 58.2177 86.0096 57.3301 84.9387 56.642Z" fill="#7C10D0"/>
<path d="M103.367 49.7116C108.916 49.7429 114.45 50.2799 119.902 51.3158C120.801 51.5038 121.653 51.8733 122.404 52.4016C123.156 52.9299 123.792 53.6059 124.273 54.3883C124.754 55.1708 125.071 56.0432 125.204 56.9522C125.336 57.8612 125.282 58.7877 125.045 59.6751C120.973 75.1843 123.269 92.2164 122.948 95.3231C122.948 95.3231 90.4024 100.01 85.4145 90.3352C78.7165 79.3904 90.1174 72.2405 94.014 56.8656C95.0442 52.802 99.177 49.6871 103.367 49.7116Z" fill="#A23EF0"/>
<path d="M125.819 61.8127L126.116 62.3827L126.38 62.9039C126.555 63.25 126.71 63.5961 126.873 63.9422C127.195 64.6303 127.48 65.3266 127.769 66.0269C128.323 67.4276 128.84 68.8486 129.271 70.3063C129.495 71.0311 129.679 71.764 129.898 72.505C130.118 73.2461 130.253 73.9953 130.407 74.7567C130.73 76.292 130.963 77.8445 131.108 79.4066L131.148 79.8138C131.205 80.4152 131.133 81.0218 130.937 81.5932C130.625 82.4872 130.15 83.3156 129.536 84.0362C129.015 84.6482 128.404 85.1781 127.724 85.6079C126.703 86.2452 125.581 86.705 124.406 86.9678C122.644 87.3567 120.835 87.4938 119.035 87.375C117.439 87.282 115.852 87.0724 114.287 86.748C113.522 86.5973 112.769 86.41 112.019 86.2105C111.27 86.011 110.554 85.8033 109.764 85.5102C109.192 85.3073 108.708 84.915 108.39 84.3985C108.073 83.8819 107.942 83.2723 108.019 82.6709C108.096 82.0695 108.376 81.5127 108.814 81.0929C109.251 80.6731 109.819 80.4157 110.423 80.3635H110.578L112.614 80.1925C113.31 80.1436 113.998 80.0744 114.678 80.0052C115.358 79.936 116.034 79.8586 116.694 79.7731C117.353 79.6876 117.997 79.5858 118.62 79.4636C119.72 79.2868 120.794 78.9778 121.82 78.5434C122.195 78.3602 122.459 78.1363 122.435 78.0915C122.41 78.0467 122.337 78.0915 122.211 78.1973C122.055 78.3497 121.931 78.5308 121.845 78.7307L121.673 80.905C121.368 79.7161 121.046 78.5271 120.656 77.326C120.464 76.7274 120.248 76.1045 120.033 75.5263C119.817 74.9481 119.625 74.3048 119.373 73.7225C118.901 72.5254 118.432 71.3202 117.923 70.1272L117.158 68.3478L116.417 66.6743L116.323 66.4545C115.779 65.2064 115.739 63.796 116.211 62.5191C116.684 61.2421 117.633 60.1977 118.858 59.6048C120.084 59.0119 121.492 58.9166 122.786 59.3388C124.081 59.7611 125.162 60.6681 125.802 61.8697L125.819 61.8127Z" fill="#FFB573"/>
<path d="M101.148 76.8052H95.0732C94.7629 76.8052 94.5113 77.0567 94.5113 77.3671V85.2092C94.5113 85.5196 94.7629 85.7711 95.0732 85.7711H101.148C101.459 85.7711 101.71 85.5196 101.71 85.2092V77.3671C101.71 77.0567 101.459 76.8052 101.148 76.8052Z" fill="#48DB84"/>
<path d="M101.148 78.5439C101.517 78.5297 101.886 78.5902 102.232 78.7218C102.577 78.8534 102.893 79.0534 103.159 79.3098C103.426 79.5663 103.638 79.8738 103.783 80.2141C103.927 80.5545 104.002 80.9205 104.002 81.2903C104.002 81.6601 103.927 82.0262 103.783 82.3665C103.638 82.7068 103.426 83.0143 103.159 83.2708C102.893 83.5272 102.577 83.7272 102.232 83.8588C101.886 83.9904 101.517 84.0509 101.148 84.0367H101.111C100.742 84.0509 100.373 83.9904 100.027 83.8588C99.6818 83.7272 99.3663 83.5272 99.0998 83.2708C98.8333 83.0143 98.6213 82.7068 98.4765 82.3665C98.3317 82.0262 98.257 81.6601 98.257 81.2903C98.257 80.9205 98.3317 80.5545 98.4765 80.2141C98.6213 79.8738 98.8333 79.5663 99.0998 79.3098C99.3663 79.0534 99.6818 78.8534 100.027 78.7218C100.373 78.5902 100.742 78.5297 101.111 78.5439H101.16H101.148ZM101.16 77.7296H101.111C100.632 77.7134 100.154 77.7938 99.7065 77.9661C99.2589 78.1384 98.8505 78.399 98.5057 78.7323C98.1609 79.0657 97.8866 79.4651 97.6994 79.9066C97.5121 80.3482 97.4156 80.8229 97.4156 81.3025C97.4156 81.7822 97.5121 82.2569 97.6994 82.6984C97.8866 83.14 98.1609 83.5393 98.5057 83.8727C98.8505 84.2061 99.2589 84.4667 99.7065 84.6389C100.154 84.8112 100.632 84.8917 101.111 84.8755H101.16C101.639 84.8917 102.117 84.8112 102.565 84.6389C103.012 84.4667 103.421 84.2061 103.766 83.8727C104.11 83.5393 104.385 83.14 104.572 82.6984C104.759 82.2569 104.856 81.7822 104.856 81.3025C104.856 80.8229 104.759 80.3482 104.572 79.9066C104.385 79.4651 104.11 79.0657 103.766 78.7323C103.421 78.399 103.012 78.1384 102.565 77.9661C102.117 77.7938 101.639 77.7134 101.16 77.7296Z" fill="#48DB84"/>
<path d="M110.684 81.7798L110.66 83.7017C109.491 86.6781 105.924 84.516 105.924 84.516L103.79 84.1658C103.42 84.0768 103.092 83.8606 102.864 83.5548C102.637 83.249 102.524 82.873 102.545 82.4924V80.3669C102.521 79.9296 102.668 79.5001 102.955 79.1695C103.243 78.8389 103.647 78.6331 104.084 78.5957H105.997C106.547 78.5994 107.087 78.7393 107.569 79.0029L109.723 80.1511C110.016 80.3102 110.259 80.5458 110.429 80.8326C110.598 81.1194 110.686 81.4468 110.684 81.7798Z" fill="#FFB573"/>
<path d="M120.317 51.654C122.426 51.2468 125.452 55.3018 126.138 57.6213C126.824 59.9409 128.066 65.2367 129.743 67.8182C131.421 70.3997 130.558 74.4959 128.587 75.4283C124.922 77.1506 122.935 77.7695 120.688 76.1164C118.44 74.4633 115.859 70.6155 115.484 66.9631C114.955 61.6088 116.575 52.3584 120.317 51.654Z" fill="#A23EF0"/>
<path d="M118.266 74.016C116.93 76.4265 119.573 78.5397 122.692 78.3565C125.811 78.1733 128.449 77.2408 130.22 75.9949C131.992 74.7489 131.706 72.7782 131.495 70.9256C131.316 69.3295 130.68 68.5803 129.284 69.4394C127.887 70.2985 125.957 73.2505 121.898 73.9183C119.862 74.2766 118.881 72.9044 118.266 74.016Z" fill="#7C10D0"/>
<path d="M102.813 51.6858C103.305 50.8641 104.059 50.2327 104.955 49.8942C105.331 49.0697 105.411 48.1409 105.183 47.2639L115.248 44.7231C114.251 47.9398 113.469 50.4806 114.585 52.1378C112.573 53.2046 108.884 55.1142 105.016 54.7681C101.148 54.422 102.101 53.0173 102.813 51.6858Z" fill="#FFB573"/>
<path opacity="0.2" d="M105.244 47.5737L112.679 47.5941C110.212 49.9272 106.641 50.6438 105.102 49.5404C105.314 48.9073 105.363 48.2308 105.244 47.5737Z" fill="black"/>
<path d="M117.48 39.809C116.047 44.3327 114.976 47.3702 111.824 48.6447C105.566 51.1692 103.013 47.8711 103.066 43.0013C103.115 38.616 105.452 31.9587 110.395 31.2991C111.491 31.1522 112.607 31.2859 113.638 31.6877C114.669 32.0895 115.581 32.7463 116.289 33.5965C116.997 34.4467 117.477 35.4626 117.685 36.5492C117.894 37.6357 117.823 38.7573 117.48 39.809Z" fill="#FFB573"/>
<path d="M114.487 43.3679C112.627 42.5535 113.189 41.9875 113.189 41.9875C113.189 41.9875 114.695 40.31 114.935 39.3328C115.176 38.3556 113.714 36.2668 114.231 35.1715C114.748 34.0762 120.212 33.5428 122.529 36.3401C121.986 36.4595 121.432 36.5196 120.876 36.5192C121.343 37.0341 121.644 37.6781 121.739 38.3668C121.834 39.0555 121.719 39.7569 121.409 40.3792C120.343 42.6309 116.47 44.2596 114.487 43.3679Z" fill="#263238"/>
<path d="M104.369 43.8403L109.177 43.9136C109.177 43.9136 108.497 45.0741 106.478 45.2532C104.458 45.4324 104.369 43.8403 104.369 43.8403Z" fill="#263238"/>
<path d="M104.466 43.8403C104.617 44.1498 105.073 44.614 106.453 44.4918C107.206 44.4444 107.941 44.2449 108.615 43.9055C107.764 43.8973 106.058 43.8688 104.466 43.8403Z" fill="white"/>
<path d="M118.078 44.5654C117.707 45.0218 117.25 45.4005 116.732 45.6799C116.214 45.9594 115.647 46.1341 115.061 46.1941C113.486 46.3448 112.964 44.8668 113.624 43.5272C114.214 42.3056 115.749 40.7869 117.219 41.2592C118.689 41.7315 118.982 43.4213 118.078 44.5654Z" fill="#FFB573"/>
<path d="M109.947 39.1248C109.853 39.4994 109.58 39.7518 109.336 39.6907C109.092 39.6297 108.97 39.2836 109.063 38.8967C109.157 38.5099 109.43 38.2697 109.674 38.3348C109.918 38.4 110.041 38.7542 109.947 39.1248Z" fill="#263238"/>
<path d="M105.969 38.1842C105.875 38.5588 105.602 38.8113 105.358 38.7461C105.114 38.681 104.992 38.3389 105.085 37.9562C105.179 37.5734 105.452 37.3291 105.696 37.3943C105.94 37.4594 106.062 37.8096 105.969 38.1842Z" fill="#263238"/>
<path d="M107.182 38.8076L106.405 41.9551C106.405 41.9551 105.672 41.9551 105.068 41.6361C104.716 41.4497 104.677 40.993 104.918 40.6748C105.813 39.4922 107.182 38.8076 107.182 38.8076Z" fill="#ED893E"/>
<path d="M111.49 38.2081C111.526 38.218 111.564 38.218 111.6 38.2081C111.628 38.197 111.653 38.1804 111.675 38.1593C111.696 38.1382 111.713 38.1131 111.724 38.0853C111.736 38.0576 111.741 38.0279 111.741 37.9979C111.741 37.968 111.734 37.9384 111.722 37.9109C111.59 37.5748 111.38 37.2751 111.108 37.0365C110.837 36.7979 110.513 36.6273 110.163 36.5387C110.133 36.5314 110.101 36.5302 110.071 36.5355C110.04 36.5407 110.011 36.5521 109.985 36.569C109.959 36.5859 109.936 36.608 109.919 36.6339C109.902 36.6598 109.89 36.6889 109.885 36.7195C109.879 36.75 109.88 36.7814 109.887 36.8117C109.894 36.842 109.907 36.8705 109.925 36.8955C109.944 36.9206 109.967 36.9415 109.994 36.9572C110.021 36.9729 110.051 36.9829 110.082 36.9866C110.357 37.0618 110.611 37.2004 110.823 37.3913C111.035 37.5822 111.199 37.8201 111.303 38.086C111.321 38.121 111.347 38.1507 111.38 38.1721C111.413 38.1935 111.451 38.206 111.49 38.2081Z" fill="#263238"/>
<path d="M104.1 36.5112C104.136 36.5201 104.174 36.5199 104.21 36.5107C104.247 36.5014 104.28 36.4834 104.308 36.4583C104.509 36.2583 104.755 36.1087 105.025 36.0216C105.296 35.9346 105.583 35.9126 105.863 35.9575C105.892 35.9647 105.921 35.9661 105.951 35.9615C105.98 35.957 106.008 35.9466 106.033 35.931C106.058 35.9155 106.08 35.895 106.096 35.8708C106.113 35.8467 106.125 35.8194 106.132 35.7905C106.145 35.7322 106.135 35.671 106.104 35.6199C106.073 35.5689 106.023 35.5322 105.965 35.5177C105.612 35.4539 105.25 35.4757 104.907 35.5813C104.565 35.6868 104.253 35.8731 103.998 36.1244C103.956 36.1671 103.932 36.225 103.932 36.2852C103.932 36.3455 103.956 36.4033 103.998 36.4461C104.026 36.4764 104.061 36.4989 104.1 36.5112Z" fill="#263238"/>
<path d="M79.9139 50.5137C82.133 49.1374 81.905 46.8002 82.2959 44.9394C82.3651 44.6219 81.6404 44.1577 81.2128 44.5567C80.93 44.7803 80.6948 45.0584 80.5214 45.3746C80.3479 45.6907 80.2397 46.0384 80.203 46.3971C79.3887 46.5193 77.3162 47.6431 77.6419 49.9273C78.3021 50.394 79.1104 50.6026 79.9139 50.5137Z" fill="#FFB573"/>
<path d="M103.782 57.6799C109.075 57.1628 118.241 52.3866 114.096 50.8638C111.486 52.9363 107.1 53.7629 105.036 53.767C104.27 53.03 104.03 50.9737 104.955 49.8947C102.792 49.7115 100.077 54.0764 103.782 57.6799Z" fill="#A23EF0"/>
<path d="M105.036 53.7674C106.958 52.4441 113.045 49.2315 114.751 49.26C114.952 49.9202 114.984 50.62 114.845 51.2958C114.845 51.2958 112.597 53.7552 105.036 53.7674Z" fill="#7C10D0"/>
<path d="M105.037 53.7667C105.037 53.7667 105.334 49.6176 104.959 48.7422C104.644 48.8649 104.366 49.067 104.152 49.3288C103.938 49.5906 103.795 49.9033 103.738 50.2365C103.738 50.2365 104.137 53.1315 105.037 53.7667Z" fill="#7C10D0"/>
<path d="M119.475 35.0494C116.718 35.3792 108.55 34.6096 105.879 31.5314C103.208 28.4532 105.154 26.3644 108.013 28.1437C108.013 28.1437 106.115 25.5622 109.165 26.2097C112.044 26.8204 115.452 31.8205 119.78 31.6088C123.465 31.4255 122.199 34.7359 119.475 35.0494Z" fill="#263238"/>
<path d="M118.188 46.1119C116.905 47.1502 115.216 47.1868 114.413 46.1974C113.611 45.2079 114.006 43.563 115.281 42.5328C116.555 41.5027 118.253 41.4579 119.055 42.4473C119.857 43.4367 119.467 45.0736 118.188 46.1119Z" fill="#48DB84"/>
<path d="M107.569 47.6996C107.422 47.6439 107.294 47.5484 107.199 47.4238C107.105 47.2991 107.046 47.1504 107.032 46.9944C107.017 46.8384 107.046 46.6814 107.116 46.5412C107.186 46.4009 107.294 46.2831 107.427 46.201C107.561 46.1189 107.714 46.0758 107.871 46.0767C108.028 46.0775 108.181 46.1222 108.314 46.2057C108.446 46.2893 108.553 46.4082 108.621 46.5492C108.69 46.6902 108.717 46.8475 108.701 47.0033C108.64 47.2439 108.488 47.4513 108.276 47.5814C108.065 47.7114 107.811 47.7538 107.569 47.6996Z" fill="#48DB84"/>
<path d="M118.103 43.3841C118.032 43.3836 117.962 43.3668 117.898 43.3351C117.835 43.3033 117.779 43.2574 117.736 43.2008C117.7 43.1532 117.673 43.099 117.658 43.0411C117.643 42.9832 117.639 42.9228 117.647 42.8635C117.655 42.8041 117.674 42.7469 117.704 42.6951C117.734 42.6433 117.774 42.5979 117.822 42.5616C118.852 41.7757 119.479 39.8213 119.39 37.6755C119.333 36.3155 118.856 32.9319 115.725 30.9327C115.674 30.9006 115.63 30.8588 115.596 30.8098C115.561 30.7607 115.536 30.7053 115.523 30.6467C115.51 30.588 115.508 30.5274 115.518 30.4682C115.529 30.409 115.55 30.3524 115.582 30.3016C115.615 30.2508 115.656 30.2068 115.705 30.1722C115.754 30.1375 115.81 30.1128 115.869 30.0996C115.927 30.0864 115.988 30.0848 116.047 30.095C116.106 30.1052 116.163 30.127 116.214 30.1591C118.681 31.7308 120.175 34.4588 120.31 37.6388C120.412 40.0819 119.658 42.2969 118.384 43.2701C118.306 43.3393 118.207 43.3795 118.103 43.3841Z" fill="#48DB84"/>
<path d="M109.837 47.6999C109.168 47.699 108.501 47.6541 107.838 47.5656C107.808 47.562 107.779 47.5526 107.752 47.5377C107.726 47.5229 107.703 47.503 107.684 47.4791C107.666 47.4552 107.652 47.4279 107.644 47.3987C107.636 47.3695 107.634 47.339 107.638 47.309C107.647 47.2496 107.679 47.1959 107.727 47.1595C107.775 47.123 107.835 47.1066 107.895 47.1136C112.781 47.7529 115.7 45.7455 115.729 45.7251C115.778 45.69 115.84 45.6761 115.9 45.6864C115.96 45.6967 116.013 45.7304 116.048 45.7801C116.084 45.8298 116.097 45.8914 116.087 45.9513C116.077 46.0112 116.043 46.0646 115.993 46.0997C115.888 46.1771 113.681 47.6999 109.837 47.6999Z" fill="#48DB84"/>
<path d="M134.028 85.7754H17.4375V88.9473H134.028V85.7754Z" fill="#48DB84"/>
<path opacity="0.5" d="M134.028 85.7754H17.4375V88.9473H134.028V85.7754Z" fill="white"/>
<path opacity="0.5" d="M134.027 85.7754H107.479V88.9473H134.027V85.7754Z" fill="white"/>
<path d="M107.011 88.9438H107.476V85.772H107.011V88.9438Z" fill="white"/>
<path d="M132.044 88.9478L135.562 148H134.166L129.943 91.0569H111.559L107.341 148H105.944L109.458 88.9478H132.044Z" fill="#48DB84"/>
<path opacity="0.5" d="M132.044 88.9478L135.562 148H134.166L129.943 91.0569H111.559L107.341 148H105.944L109.458 88.9478H132.044Z" fill="white"/>
<path d="M42.0998 88.9478L45.6178 148H44.2212L40.0029 91.0569H21.6149L17.3966 148H16L19.518 88.9478H42.0998Z" fill="#48DB84"/>
<path opacity="0.2" d="M42.0998 88.9478L45.6178 148H44.2212L40.0029 91.0569H21.6149L17.3966 148H16L19.518 88.9478H42.0998Z" fill="white"/>
<path d="M70.1501 77.5591H27.2096L23.313 51.5122H66.2576L70.1501 77.5591Z" fill="#A23EF0"/>
<path opacity="0.3" d="M46.2446 77.5591H52.1527L50.7398 65.5557L48.9157 70.6128L46.2446 77.5591Z" fill="black"/>
<path opacity="0.3" d="M70.1505 77.5591H69.6578L65.7652 51.5122H66.2579L70.1505 77.5591Z" fill="black"/>
<path d="M54.5755 84.6729H42.8896V85.7763H55.5853L54.5755 84.6729Z" fill="#A23EF0"/>
<path opacity="0.3" d="M54.5755 84.6729H42.8896V85.7763H55.5853L54.5755 84.6729Z" fill="black"/>
<path d="M44.4042 69.8633L44.2413 71.0644H43.7527C43.5106 71.0649 43.2764 71.151 43.0916 71.3075C42.9068 71.4639 42.7833 71.6807 42.7429 71.9195L41.7372 78.0556C41.713 78.2017 41.7209 78.3514 41.7602 78.4942C41.7996 78.637 41.8695 78.7695 41.9652 78.8826C42.0608 78.9957 42.1799 79.0866 42.3142 79.1491C42.4485 79.2116 42.5948 79.2442 42.7429 79.2446H43.1501V79.7372H40.4424V69.8633H44.4042Z" fill="#A23EF0"/>
<path opacity="0.3" d="M44.4042 69.8633L44.2413 71.0644H43.7527C43.5106 71.0649 43.2764 71.151 43.0916 71.3075C42.9068 71.4639 42.7833 71.6807 42.7429 71.9195L41.7372 78.0556C41.713 78.2017 41.7209 78.3514 41.7602 78.4942C41.7996 78.637 41.8695 78.7695 41.9652 78.8826C42.0608 78.9957 42.1799 79.0866 42.3142 79.1491C42.4485 79.2116 42.5948 79.2442 42.7429 79.2446H43.1501V79.7372H40.4424V69.8633H44.4042Z" fill="black"/>
<path d="M40.4426 64.5381L36.9531 85.7762H47.731L51.2205 64.5381H40.4426ZM46.4158 72.254L45.406 78.386C45.3674 78.6252 45.2451 78.8429 45.0609 79.0003C44.8767 79.1576 44.6426 79.2444 44.4003 79.2452H42.3197C42.1714 79.2447 42.025 79.2121 41.8906 79.1497C41.7562 79.0872 41.6368 78.9963 41.5409 78.8833C41.4449 78.7703 41.3746 78.6379 41.3347 78.4951C41.2948 78.3523 41.2864 78.2026 41.3099 78.0562L42.3197 71.9201C42.3593 71.681 42.4825 71.4638 42.6675 71.3071C42.8525 71.1505 43.0871 71.0647 43.3295 71.0651H45.406C45.5555 71.0631 45.7036 71.0939 45.8399 71.1553C45.9762 71.2168 46.0974 71.3074 46.1948 71.4208C46.2923 71.5342 46.3637 71.6675 46.404 71.8115C46.4443 71.9555 46.4525 72.1065 46.4281 72.254H46.4158Z" fill="#A23EF0"/>
<path opacity="0.3" d="M47.7429 85.7762L47.2217 85.707L50.6989 64.5381H51.2323L47.7429 85.7762Z" fill="black"/>
<path opacity="0.3" d="M46.2648 59.3261H45.6418L44.8315 53.9106H45.4545L46.2648 59.3261Z" fill="black"/>
<path opacity="0.3" d="M47.4254 59.3261H46.7984L45.9922 53.9106H46.6152L47.4254 59.3261Z" fill="black"/>
<path opacity="0.3" d="M48.5862 59.3261H47.9592L47.1489 53.9106H47.776L48.5862 59.3261Z" fill="black"/>
<path opacity="0.3" d="M49.7469 59.3261H49.1198L48.3096 53.9106H48.9366L49.7469 59.3261Z" fill="black"/>
<path opacity="0.3" d="M50.903 59.3261H50.28L49.4697 53.9106H50.0968L50.903 59.3261Z" fill="black"/>
<path opacity="0.3" d="M45.1046 59.3261H44.4817L43.6714 53.9106H44.2944L45.1046 59.3261Z" fill="black"/>
<path opacity="0.3" d="M43.944 59.3261H43.321L42.5107 53.9106H43.1378L43.944 59.3261Z" fill="black"/>
<path opacity="0.3" d="M42.7833 59.3261H42.1604L41.3501 53.9106H41.9771L42.7833 59.3261Z" fill="black"/>
<path opacity="0.3" d="M41.6278 59.3261H41.0007L40.1904 53.9106H40.8175L41.6278 59.3261Z" fill="black"/>
<defs>
<clipPath id="clip0_4989_38639">
<rect width="27.4805" height="13.7402" fill="white" transform="translate(64.3687 17.5903)"/>
</clipPath>
</defs>
</svg>
