<svg width="33" height="32" viewBox="0 0 33 32" fill="none" xmlns="http://www.w3.org/2000/svg">
<rect x="0.5" width="32" height="32" rx="3.36708" fill="#48DB84"/>
<path d="M22.2424 4.97412C23.7431 6.17959 24.7987 7.81786 25.2525 9.64544C26.486 14.4884 22.9686 19.4589 17.8286 20.1331C17.3991 20.1954 16.9659 20.2325 16.5316 20.2439C16.235 20.2481 15.9379 20.2246 15.6217 20.1996C15.4781 20.1883 15.3307 20.1767 15.1775 20.1671C15.1298 20.4184 15.0811 20.6671 15.0326 20.9145C14.9186 21.496 14.8063 22.0693 14.7133 22.6453C14.5889 23.4085 14.3282 24.0832 13.6211 24.5333C12.3564 25.3385 10.7232 24.6892 10.3541 23.2793C10.2346 22.8247 10.1155 22.37 9.99644 21.9153C9.30187 19.2632 8.60725 16.611 7.8368 13.9787C6.3888 9.02781 9.76107 3.8998 15.0507 3.1105C16.5692 2.87693 18.1246 3.015 19.5728 3.51183C19.5296 3.58334 19.4915 3.65765 19.4586 3.7341C19.1231 4.51734 18.7794 5.29815 18.4515 6.08437C18.3805 6.25428 18.3088 6.28723 18.1268 6.22627C17.2151 5.91802 16.2375 5.83428 15.2835 5.98271C11.9854 6.47842 9.74649 9.58635 10.422 12.7211C10.7237 14.1394 11.5785 15.3935 12.8113 16.2266C14.0442 17.0598 15.562 17.409 17.0542 17.203C19.7726 16.8394 22.0286 14.7145 22.1377 11.7503L22.2424 5.58988V4.97412Z" fill="white"/>
<path d="M11.5984 26.5503C11.8778 26.2793 12.258 26.126 12.6551 26.1241C13.4574 26.1108 14.1665 26.757 14.1824 27.5164C14.1862 27.7096 14.1499 27.9017 14.0756 28.0813C14.0013 28.2608 13.8906 28.4245 13.7498 28.5625C13.609 28.7007 13.4409 28.8105 13.2555 28.8855C13.0701 28.9607 12.871 28.9996 12.6697 29C12.2725 29.0018 11.8909 28.8522 11.6087 28.5838C11.3265 28.3154 11.1669 27.9504 11.1649 27.5691C11.163 27.1877 11.3189 26.8212 11.5984 26.5503Z" fill="white"/>
</svg>
