<svg width="138" height="140" viewBox="0 0 138 140" fill="none" xmlns="http://www.w3.org/2000/svg">
<path d="M93.689 4.84433L134.501 19.5196C134.697 19.59 134.877 19.6981 135.03 19.8379C135.184 19.9778 135.309 20.1465 135.397 20.3346C135.486 20.5226 135.536 20.7262 135.546 20.9338C135.556 21.1414 135.525 21.3489 135.454 21.5445L98.6928 123.756C98.6225 123.951 98.5143 124.131 98.3745 124.285C98.2346 124.438 98.0659 124.563 97.8779 124.652C97.6898 124.74 97.4862 124.791 97.2786 124.801C97.071 124.81 96.8635 124.779 96.6679 124.709L55.8751 110.058C55.6795 109.987 55.4997 109.879 55.3459 109.739C55.1922 109.6 55.0675 109.431 54.9789 109.243C54.8904 109.055 54.8398 108.851 54.83 108.644C54.8202 108.436 54.8514 108.228 54.9218 108.033L91.6797 5.80081C91.8212 5.40893 92.1116 5.08869 92.4878 4.90961C92.864 4.73054 93.2957 4.70708 93.689 4.84433Z" fill="#48DB84"/>
<path opacity="0.2" d="M93.689 4.84433L134.501 19.5196C134.697 19.59 134.877 19.6981 135.03 19.8379C135.184 19.9778 135.309 20.1465 135.397 20.3346C135.486 20.5226 135.536 20.7262 135.546 20.9338C135.556 21.1414 135.525 21.3489 135.454 21.5445L98.6928 123.756C98.6225 123.951 98.5143 124.131 98.3745 124.285C98.2346 124.438 98.0659 124.563 97.8779 124.652C97.6898 124.74 97.4862 124.791 97.2786 124.801C97.071 124.81 96.8635 124.779 96.6679 124.709L55.8751 110.058C55.6795 109.987 55.4997 109.879 55.3459 109.739C55.1922 109.6 55.0675 109.431 54.9789 109.243C54.8904 109.055 54.8398 108.851 54.83 108.644C54.8202 108.436 54.8514 108.228 54.9218 108.033L91.6797 5.80081C91.8212 5.40893 92.1116 5.08869 92.4878 4.90961C92.864 4.73054 93.2957 4.70708 93.689 4.84433Z" fill="black"/>
<path opacity="0.3" d="M134.31 19.4516L134.502 19.5193C134.698 19.5896 134.877 19.6978 135.031 19.8376C135.185 19.9775 135.31 20.1462 135.398 20.3342C135.487 20.5223 135.537 20.7259 135.547 20.9335C135.557 21.1411 135.526 21.3486 135.455 21.5442L98.6936 123.755C98.6233 123.951 98.5151 124.131 98.3753 124.284C98.2354 124.438 98.0667 124.563 97.8787 124.651C97.6906 124.74 97.487 124.791 97.2794 124.8C97.0718 124.81 96.8643 124.779 96.6687 124.709L96.4767 124.641C96.2811 124.571 96.1013 124.462 95.9476 124.323C95.7938 124.183 95.6691 124.014 95.5806 123.826C95.492 123.638 95.4414 123.434 95.4316 123.227C95.4218 123.019 95.453 122.812 95.5234 122.616L132.283 20.4127C132.353 20.2162 132.461 20.0355 132.6 19.8807C132.74 19.726 132.909 19.6004 133.097 19.5111C133.285 19.4218 133.489 19.3706 133.698 19.3604C133.906 19.3502 134.114 19.3812 134.31 19.4516Z" fill="black"/>
<path d="M133.816 21.4197L94.7557 7.47461L58.7488 108.331L97.8095 122.276L133.816 21.4197Z" fill="white"/>
<path opacity="0.2" d="M94.574 7.65797L132.555 21.3121L96.5234 121.521L58.3338 108.45L94.574 7.65797Z" fill="#48DB84"/>
<path d="M94.574 7.65797L132.052 19.7674L95.8122 120.559L58.3338 108.45L94.574 7.65797Z" fill="white"/>
<path opacity="0.2" d="M94.574 7.65797L131.022 19.3984L94.6324 119.618L58.3338 108.45L94.574 7.65797Z" fill="#48DB84"/>
<path d="M94.574 7.65797L130.759 18.771L94.2454 118.966L58.3338 108.45L94.574 7.65797Z" fill="white"/>
<path opacity="0.2" d="M94.574 7.65797L129.289 18.3199L93.1593 118.06L58.3338 108.45L94.574 7.65797Z" fill="#48DB84"/>
<path d="M94.574 7.65797L128.229 17.6583L91.927 117.375L58.3338 108.45L94.574 7.65797Z" fill="white"/>
<path opacity="0.2" d="M94.574 7.65797L125.813 16.9402L89.4921 116.726L58.3338 108.45L94.574 7.65797Z" fill="#48DB84"/>
<path d="M123.687 12.7367L90.5622 3.55593C90.0163 3.4064 89.434 3.46807 88.9315 3.72864C88.4291 3.98922 88.0432 4.42956 87.8509 4.96192L51.543 105.926C51.4387 106.217 51.3955 106.526 51.4161 106.835C51.4367 107.144 51.5207 107.445 51.6629 107.719C51.8051 107.994 52.0023 108.237 52.2424 108.432C52.4824 108.627 52.7601 108.77 53.0581 108.853L86.1822 118.038C86.7288 118.187 87.3116 118.125 87.8144 117.864C88.3171 117.603 88.7028 117.161 88.8944 116.628L125.198 15.6673C125.302 15.3763 125.345 15.0668 125.325 14.7583C125.304 14.4497 125.221 14.1487 125.079 13.8738C124.938 13.5989 124.741 13.3562 124.501 13.1605C124.262 12.9649 123.985 12.8207 123.687 12.7367Z" fill="#48DB84"/>
<path d="M84.0418 41.9939C84.4144 40.9326 85.6639 40.2835 86.7832 40.5653C87.9156 40.8529 88.5321 41.9636 88.1563 43.0414C87.7912 44.0899 86.5493 44.7352 85.4314 44.4886C84.2072 44.2184 83.611 42.9632 84.0418 41.9939Z" fill="#DAF8E6"/>
<path d="M91.6727 47.3713C94.435 48.1842 95.7334 50.6276 95.2256 53.0387C94.9522 54.3635 94.1464 55.5752 92.9733 56.4259C91.8001 57.2767 90.3481 57.7022 88.9143 57.6154C85.743 57.4303 83.5101 54.7631 84.0758 51.8249C84.2335 50.9737 84.6184 50.1585 85.195 49.4543C85.3098 49.3137 85.3004 49.2443 85.1623 49.1426C84.7407 48.8319 84.3236 48.5161 83.9065 48.2003L83.906 48.1999L83.9051 48.1992C83.6899 48.0363 83.4747 47.8734 83.259 47.7112C82.8635 47.4137 82.6815 47.0268 82.7463 46.5347C82.8472 45.7506 83.7256 45.2087 84.5234 45.4291C84.8249 45.5123 85.1289 45.5887 85.4329 45.665L85.434 45.6653C85.5857 45.7033 85.7373 45.7414 85.8886 45.7804L91.6727 47.3713Z" fill="#DAF8E6"/>
<path d="M87.5933 58.4481C90.4104 59.1273 92.1908 61.9199 91.1136 64.8723C90.0938 67.6716 86.8632 69.3031 83.9148 68.5521C80.9664 67.8011 79.3756 64.9081 80.3866 62.1394C80.6265 61.4745 81.0036 60.8512 81.4961 60.3054C81.9886 59.7597 82.5869 59.3021 83.2566 58.9591C83.9262 58.6161 84.6541 58.3944 85.3983 58.3067C86.1425 58.219 86.8885 58.267 87.5933 58.4481Z" fill="#DAF8E6"/>
<path d="M91.7212 46.1039C92.0089 46.1776 92.2966 46.2513 92.5838 46.3252L95.2473 47.009C95.7721 47.153 96.2932 47.0959 96.801 46.8645C97.6456 46.4795 98.1716 45.6941 98.1425 44.8781C98.1306 44.4701 97.9836 44.0835 97.7213 43.7698C97.4591 43.456 97.0939 43.23 96.6745 43.1219C96.1467 42.9825 95.6173 42.8474 95.088 42.7124L95.0878 42.7124C94.8232 42.6449 94.5587 42.5774 94.2944 42.5094C93.9724 42.4266 93.6503 42.344 93.3282 42.2613C92.6839 42.096 92.0394 41.9307 91.3959 41.7636C90.8159 41.6131 90.2438 41.676 89.7051 41.9672C88.8544 42.4269 88.4311 43.1284 88.5052 43.9951C88.578 44.8495 89.0903 45.4227 89.9918 45.6582C90.5669 45.8082 91.1434 45.9559 91.7194 46.1034L91.7212 46.1039Z" fill="#DAF8E6"/>
<path d="M87.1545 76.9171L87.1547 76.9172C87.4914 77.0738 87.8234 77.2281 88.1609 77.3721C88.6103 77.5651 88.9761 77.8183 89.11 78.288C89.349 79.1271 88.6093 79.9411 87.6577 79.9229C87.4103 79.9182 87.1629 79.9134 86.9155 79.9086L86.9147 79.9085C85.0652 79.8726 83.2151 79.8366 81.3612 79.8501C77.9903 79.8725 75.4999 77.1584 76.0984 74.0604C76.6323 71.2962 79.2578 69.2985 82.2614 69.3731C85.5226 69.4541 87.8835 72.2246 87.2429 75.2201C87.1929 75.4715 87.1265 75.7208 87.0441 75.9667C86.9869 76.1358 86.9103 76.2999 86.8291 76.4741C86.7927 76.5521 86.7554 76.6321 86.7185 76.7154C86.8652 76.7827 87.0103 76.8501 87.1545 76.9171Z" fill="#DAF8E6"/>
<path d="M90.4926 80.1371C90.2574 80.0788 90.0629 79.9355 89.9514 79.7382C89.8399 79.5408 89.8205 79.3056 89.8974 79.0837C90.0547 78.6305 90.6019 78.3365 91.0772 78.4479C91.1978 78.4766 91.3094 78.5277 91.4055 78.598C91.5016 78.6683 91.5804 78.7565 91.6371 78.8575C91.6938 78.9585 91.7274 79.0703 91.736 79.1863C91.7445 79.3023 91.7279 79.4203 91.6869 79.5333C91.604 79.754 91.432 79.9412 91.2083 80.0543C90.9847 80.1674 90.7275 80.1971 90.4926 80.1371Z" fill="#DAF8E6"/>
<path opacity="0.2" d="M84.4508 114.335L84.3578 114.316L54.9048 106.151C54.7179 106.099 54.5438 106.008 54.3933 105.886C54.2427 105.763 54.119 105.611 54.0298 105.438C53.9406 105.266 53.8879 105.077 53.8748 104.883C53.8616 104.69 53.8885 104.495 53.9537 104.313L88.9681 6.93569C89.0917 6.6051 89.335 6.33298 89.6497 6.17323C89.9644 6.01347 90.3276 5.97772 90.6675 6.07306L120.12 14.2378C120.308 14.2892 120.483 14.379 120.634 14.5013C120.785 14.6237 120.909 14.7761 120.999 14.9488C121.088 15.1215 121.141 15.3109 121.153 15.505C121.166 15.6991 121.138 15.8936 121.072 16.0764L86.0666 113.427C85.9507 113.747 85.7238 114.014 85.4272 114.181C85.1307 114.348 84.7842 114.402 84.4508 114.335ZM90.4957 6.43758C90.2622 6.39088 90.0197 6.42932 89.8121 6.54596C89.6044 6.66259 89.4454 6.84971 89.3638 7.07343L54.3454 104.47C54.3004 104.598 54.2823 104.735 54.292 104.871C54.3018 105.007 54.3392 105.14 54.4021 105.261C54.465 105.382 54.552 105.489 54.6577 105.575C54.7634 105.661 54.8857 105.725 55.0169 105.762L84.466 113.926C84.7077 113.991 84.9649 113.963 85.1871 113.848C85.4094 113.733 85.5807 113.539 85.6677 113.305L120.677 15.9309C120.724 15.8029 120.744 15.6665 120.735 15.5305C120.726 15.3945 120.689 15.2618 120.626 15.141C120.563 15.0194 120.476 14.9121 120.37 14.8257C120.264 14.7394 120.141 14.6758 120.01 14.6391L90.5568 6.47435L90.4957 6.43758Z" fill="white"/>
<path d="M61.3374 139.566H29.8471C29.1126 139.575 28.3844 139.43 27.7092 139.14C27.0341 138.851 26.4269 138.424 25.9267 137.886C25.4264 137.348 25.0441 136.711 24.8044 136.017C24.5646 135.323 24.4727 134.586 24.5345 133.854L32.0655 26.1538C32.1971 24.6142 32.8949 23.178 34.0238 22.1229C35.1528 21.0678 36.6328 20.4686 38.1779 20.4413H69.6681C70.4026 20.4327 71.1308 20.5778 71.806 20.8672C72.4811 21.1566 73.0883 21.584 73.5885 22.1219C74.0888 22.6598 74.4711 23.2964 74.7108 23.9907C74.9506 24.685 75.0425 25.4218 74.9808 26.1538L67.4497 133.854C67.3191 135.394 66.6217 136.831 65.4925 137.886C64.3633 138.941 62.8827 139.54 61.3374 139.566Z" fill="#8D12ED"/>
<path d="M57.2101 139.566H25.7246C24.9901 139.575 24.2619 139.43 23.5868 139.14C22.9116 138.851 22.3044 138.424 21.8042 137.886C21.304 137.348 20.9217 136.711 20.6819 136.017C20.4422 135.323 20.3502 134.586 20.412 133.854L27.943 26.1538C28.0736 24.6138 28.7711 23.177 29.9002 22.1217C31.0294 21.0664 32.51 20.4676 34.0554 20.4413H65.5409C66.2754 20.4327 67.0036 20.5778 67.6787 20.8672C68.3539 21.1566 68.9611 21.584 69.4613 22.1219C69.9616 22.6598 70.3438 23.2964 70.5836 23.9907C70.8233 24.685 70.9153 25.4218 70.8535 26.1538L63.3225 133.854C63.1919 135.394 62.4945 136.831 61.3653 137.886C60.2361 138.941 58.7555 139.54 57.2101 139.566Z" fill="#A23EF0"/>
<path d="M61.9321 133.369H20.4735C20.3741 133.368 20.2759 133.347 20.1848 133.308C20.0937 133.268 20.0118 133.21 19.944 133.137C19.8762 133.064 19.824 132.978 19.7907 132.885C19.7573 132.791 19.7434 132.692 19.7499 132.593L27.0857 27.6774C27.099 27.4935 27.1815 27.3214 27.3167 27.196C27.4519 27.0705 27.6297 27.001 27.8141 27.0015H69.2679C69.3677 27.0013 69.4665 27.0215 69.5581 27.0611C69.6497 27.1006 69.7322 27.1586 69.8005 27.2313C69.8688 27.3041 69.9214 27.3901 69.9551 27.4841C69.9888 27.578 70.0028 27.6778 69.9963 27.7774L62.6462 132.693C62.6342 132.874 62.554 133.045 62.4216 133.17C62.2892 133.296 62.1144 133.367 61.9321 133.369Z" fill="white"/>
<path d="M60.9227 37.7409H34.0119C33.2804 37.7535 32.5796 38.037 32.045 38.5364C31.5104 39.0359 31.1799 39.7158 31.1176 40.4448L28.3137 80.5276C28.2845 80.8744 28.3281 81.2234 28.4418 81.5523C28.5555 81.8812 28.7368 82.1827 28.9739 82.4374C29.2111 82.6921 29.4989 82.8943 29.8189 83.031C30.1389 83.1678 30.484 83.2361 30.832 83.2316H32.6981L31.746 86.1688C33.9477 85.9704 35.9836 84.9157 37.4156 83.2316H57.7427C58.4742 83.2189 59.175 82.9354 59.7097 82.436C60.2443 81.9365 60.5747 81.2566 60.637 80.5276L63.4409 40.4448C63.4694 40.0982 63.4253 39.7494 63.3113 39.4209C63.1973 39.0923 63.016 38.7911 62.779 38.5366C62.542 38.2821 62.2544 38.0799 61.9348 37.9429C61.6152 37.8059 61.2704 37.7371 60.9227 37.7409Z" fill="#DAF8E6"/>
<path d="M30.276 91.301H57.1867C57.5347 91.2964 57.8798 91.3647 58.1998 91.5015C58.5198 91.6383 58.8076 91.8405 59.0448 92.0952C59.282 92.3498 59.4632 92.6513 59.5769 92.9802C59.6906 93.3091 59.7343 93.6581 59.705 94.0049L58.5006 111.223C58.4383 111.952 58.1079 112.632 57.5732 113.132C57.0386 113.631 56.3378 113.915 55.6063 113.927H53.7354L54.2591 116.865C53.2269 116.778 52.2252 116.471 51.3218 115.965C50.4184 115.458 49.6344 114.763 49.0226 113.927H28.686C28.3381 113.932 27.993 113.864 27.673 113.727C27.353 113.59 27.0652 113.388 26.828 113.133C26.5908 112.878 26.4096 112.577 26.2958 112.248C26.1821 111.919 26.1385 111.57 26.1678 111.223L27.3722 94.0049C27.4347 93.2743 27.7664 92.5931 28.3031 92.0934C28.8397 91.5937 29.5429 91.3113 30.276 91.301Z" fill="#DAF8E6"/>
<path d="M54.5776 23.455C54.5588 23.6963 54.4509 23.9221 54.2749 24.0883C54.099 24.2546 53.8675 24.3495 53.6255 24.3547C53.5097 24.3565 53.3947 24.3339 53.2881 24.2885C53.1815 24.2431 53.0857 24.1758 53.0067 24.091C52.9277 24.0062 52.8675 23.9058 52.8297 23.7962C52.792 23.6867 52.7777 23.5704 52.7877 23.455C52.8086 23.2144 52.9171 22.9899 53.0926 22.824C53.2681 22.6582 53.4984 22.5625 53.7398 22.5553C53.8556 22.5535 53.9705 22.5761 54.0771 22.6215C54.1837 22.6669 54.2796 22.7342 54.3586 22.819C54.4375 22.9038 54.4978 23.0042 54.5355 23.1138C54.5733 23.2233 54.5876 23.3396 54.5776 23.455Z" fill="#8D12ED"/>
<path d="M49.9412 24.3547H43.6622C43.5466 24.3557 43.432 24.3326 43.3257 24.287C43.2195 24.2413 43.1239 24.174 43.0451 24.0893C42.9663 24.0047 42.906 23.9046 42.868 23.7954C42.83 23.6861 42.8151 23.5702 42.8244 23.4549C42.8442 23.214 42.9524 22.9888 43.1282 22.8228C43.3039 22.6567 43.5348 22.5614 43.7765 22.5552H50.0555C50.1711 22.5542 50.2857 22.5772 50.3919 22.6229C50.4982 22.6686 50.5938 22.7359 50.6726 22.8205C50.7514 22.9052 50.8117 23.0053 50.8497 23.1145C50.8877 23.2237 50.9026 23.3397 50.8933 23.4549C50.8734 23.6959 50.7652 23.921 50.5895 24.0871C50.4138 24.2531 50.1829 24.3484 49.9412 24.3547Z" fill="#8D12ED"/>
<path d="M16.4183 45.0391L17.1656 46.5005C17.4275 46.9766 17.6941 47.4954 17.9702 47.9858C18.5224 48.9712 19.0841 49.9471 19.6744 50.8944C20.8011 52.7603 22.0915 54.5222 23.5303 56.1594C23.8874 56.5165 24.273 56.9449 24.5205 57.1401C24.8664 57.4192 25.236 57.6677 25.6249 57.8827C26.5519 58.3717 27.5166 58.7856 28.5097 59.1204C30.6497 59.8308 32.8288 60.4174 35.0363 60.877L34.884 63.5C32.4049 63.6454 29.9173 63.5 27.472 63.0668C26.1692 62.8412 24.893 62.4823 23.6636 61.9957C22.9796 61.7226 22.3255 61.3797 21.7119 60.9722C21.3942 60.7606 21.092 60.5267 20.8074 60.2724L20.0552 59.6107C18.2387 57.8483 16.6259 55.8874 15.2472 53.7649C14.5569 52.7319 13.9047 51.6846 13.3097 50.6088C13.0098 50.0708 12.7146 49.5281 12.4338 48.9807C12.1529 48.4332 11.8863 47.9001 11.6055 47.2812L16.4183 45.0391Z" fill="#E58A7B"/>
<path d="M34.084 60.8766L36.2024 59.3818L37.3211 63.7043C37.3211 63.7043 35.455 64.3612 34.0507 63.4139L34.084 60.8766Z" fill="#E58A7B"/>
<path d="M39.1253 58.4014L39.8774 62.0193L37.3163 63.7045L36.1976 59.382L39.1253 58.4014Z" fill="#E58A7B"/>
<path d="M42.1313 51.4423C42.2158 52.1864 42.5924 52.8665 43.1783 53.3329C43.7642 53.7993 44.5114 54.0139 45.2555 53.9294C45.9996 53.8449 46.6796 53.4683 47.146 52.8824C47.6125 52.2965 47.827 51.5493 47.7426 50.8052L53.3538 50.1682C53.6018 50.14 53.8509 50.2116 54.0462 50.367C54.2415 50.5225 54.367 50.7492 54.3952 50.9972L55.1384 57.5437C55.1666 57.7917 55.0951 58.0408 54.9396 58.2361C54.7841 58.4314 54.5574 58.5569 54.3094 58.5851L52.438 58.7975L53.2884 66.2791C53.3166 66.5271 53.245 66.7762 53.0896 66.9715C52.9341 67.1668 52.7074 67.2923 52.4594 67.3205L41.2369 68.5946C40.9888 68.6228 40.7398 68.5512 40.5445 68.3958C40.3492 68.2403 40.2236 68.0136 40.1955 67.7656L39.345 60.2831L37.4756 60.4962C37.2276 60.5244 36.9785 60.4529 36.7832 60.2974C36.5879 60.1419 36.4624 59.9152 36.4343 59.6672L35.691 53.1208C35.6629 52.8727 35.7344 52.6237 35.8899 52.4284C36.0453 52.2331 36.272 52.1075 36.52 52.0794L42.1313 51.4423Z" fill="white"/>
<path d="M29.9998 30.2768C29.9426 30.5529 30.0426 30.8052 30.2235 30.8433C30.4044 30.8814 30.5996 30.691 30.6567 30.4149C30.7138 30.1388 30.6139 29.8817 30.433 29.8436C30.2521 29.8055 30.0569 30.0007 29.9998 30.2768Z" fill="#263238"/>
<path d="M30.0181 30.8003C30.1713 31.7128 30.4484 32.6001 30.8417 33.4376C30.6259 33.5337 30.3915 33.581 30.1554 33.576C29.9192 33.5711 29.687 33.5141 29.4754 33.409L30.0181 30.8003Z" fill="#DF5753"/>
<path d="M30.7514 28.5869C30.7192 28.5864 30.6877 28.5765 30.661 28.5584C30.4783 28.4595 30.2747 28.4053 30.067 28.4004C29.8593 28.3954 29.6534 28.4398 29.4661 28.5298C29.4263 28.5477 29.381 28.5493 29.3401 28.5341C29.2991 28.519 29.2658 28.4884 29.2471 28.4489C29.2378 28.429 29.2325 28.4074 29.2318 28.3854C29.2311 28.3634 29.2348 28.3415 29.2428 28.321C29.2509 28.3005 29.263 28.2818 29.2785 28.2662C29.2939 28.2505 29.3124 28.2382 29.3328 28.2299C29.5701 28.1169 29.8311 28.0627 30.0938 28.0718C30.3564 28.0809 30.613 28.1531 30.8419 28.2823C30.8604 28.2939 30.8763 28.309 30.8887 28.3269C30.9012 28.3448 30.9099 28.3651 30.9143 28.3864C30.9188 28.4077 30.9189 28.4297 30.9146 28.4511C30.9103 28.4725 30.9018 28.4928 30.8895 28.5108C30.8749 28.5342 30.8545 28.5535 30.8304 28.5668C30.8062 28.5801 30.779 28.5871 30.7514 28.5869Z" fill="#50BAFB"/>
<path d="M20.2027 31.1621C20.6788 33.7185 21.2024 38.4075 19.4125 40.1117C19.4125 40.1117 20.1123 42.7109 24.8679 42.7109C30.1044 42.7109 27.3624 40.1117 27.3624 40.1117C24.5062 39.431 24.5871 37.3173 25.0822 35.3513L20.2027 31.1621Z" fill="#E58A7B"/>
<path d="M18.6889 40.8454C18.3461 40.0076 18.4033 38.4652 18.6556 38.4414C19.6457 38.3748 24.9298 38.3605 26.6769 39.0317C26.9079 39.1046 27.1222 39.2227 27.3072 39.3791C27.4922 39.5355 27.6443 39.7271 27.7546 39.9429C27.8649 40.1586 27.9312 40.3941 27.9497 40.6356C27.9682 40.8772 27.9384 41.1201 27.8622 41.35L18.6889 40.8454Z" fill="#48DB84"/>
<path d="M7.01125 136.596C6.70395 136.595 6.39765 136.561 6.09725 136.496C6.08183 136.494 6.06761 136.486 6.05653 136.475C6.04546 136.464 6.03807 136.45 6.03537 136.434C6.03324 136.418 6.03517 136.402 6.041 136.387C6.04683 136.372 6.05635 136.359 6.06869 136.349C6.11153 136.32 7.0779 135.663 7.58727 135.777C7.6423 135.789 7.69413 135.813 7.73929 135.847C7.78444 135.88 7.82188 135.923 7.84909 135.973C7.89054 136.03 7.91284 136.099 7.91284 136.17C7.91284 136.241 7.89054 136.31 7.84909 136.368C7.73172 136.46 7.59714 136.527 7.45325 136.567C7.30937 136.606 7.15909 136.616 7.01125 136.596ZM6.33051 136.377C6.85416 136.463 7.56823 136.463 7.72056 136.263C7.72056 136.263 7.77769 136.187 7.72056 136.054C7.70514 136.025 7.68349 135.999 7.65715 135.979C7.63082 135.96 7.60046 135.946 7.56823 135.939C7.12024 135.962 6.68917 136.117 6.33051 136.387V136.377Z" fill="#BDBDD0"/>
<path d="M6.11658 136.51H6.07374C6.06053 136.503 6.04984 136.492 6.04306 136.478C6.03627 136.464 6.0337 136.449 6.03566 136.434C6.03566 136.391 6.12135 135.382 6.5117 135.049C6.56113 135.008 6.61822 134.978 6.67956 134.96C6.7409 134.942 6.80524 134.937 6.86873 134.944C6.93085 134.945 6.99073 134.967 7.03839 135.007C7.08604 135.047 7.11857 135.102 7.13055 135.163C7.20196 135.553 6.50218 136.315 6.14515 136.515L6.11658 136.51ZM6.82113 135.082C6.75269 135.083 6.6868 135.108 6.63547 135.154C6.3881 135.467 6.24348 135.85 6.22131 136.248C6.57835 135.977 7.02583 135.401 6.98298 135.168C6.98298 135.168 6.98298 135.096 6.85921 135.082H6.82113Z" fill="#BDBDD0"/>
<path d="M2.07949 136.425H5.57841L8.80122 128.328H5.30707L2.07949 136.425Z" fill="#E58A7B"/>
<path d="M5.8546 136.02H1.92724C1.85714 136.021 1.7893 136.045 1.73481 136.089C1.68032 136.133 1.64243 136.194 1.62733 136.263L0.937073 139.371C0.921305 139.447 0.922815 139.525 0.941489 139.6C0.960164 139.675 0.995523 139.745 1.04493 139.805C1.09435 139.864 1.15654 139.912 1.22687 139.944C1.29721 139.976 1.37389 139.992 1.4512 139.99C2.8222 139.966 3.48866 139.885 5.2167 139.885C6.27828 139.885 8.46808 140 9.93905 140C11.41 140 11.5957 138.572 10.9959 138.415C8.30146 137.824 7.28749 137.01 6.42585 136.239C6.26935 136.097 6.06564 136.019 5.8546 136.02Z" fill="#263238"/>
<path d="M34.3265 43.5156C35.3691 45.4198 36.3973 47.3716 37.4113 49.3043L40.4484 55.1073L41.2101 56.5354C41.3712 56.8815 41.5624 57.2129 41.7814 57.5256C42.3132 58.1666 42.9587 58.704 43.6855 59.1108C45.4449 60.1147 47.3137 60.9134 49.2552 61.491L48.9601 64.0997C48.3629 64.1124 47.7654 64.0933 47.1702 64.0426C46.5783 64.005 45.9888 63.9367 45.4041 63.8379C44.1937 63.6513 43.0075 63.332 41.8671 62.8858C40.5681 62.398 39.3801 61.6551 38.3729 60.7008C37.8717 60.1821 37.4324 59.607 37.0638 58.987L36.1688 57.5589C34.9978 55.6547 33.8695 53.741 32.7842 51.8178C31.7035 49.8803 30.6562 47.9381 29.6518 45.953L34.3265 43.5156Z" fill="#E58A7B"/>
<path d="M10.5392 43.0104C9.11106 46.0619 13.6763 55.697 13.6763 55.697L21.4739 52.079C20.6229 49.3454 19.563 46.6812 18.3035 44.1101C16.266 40.0685 11.9864 39.8923 10.5392 43.0104Z" fill="#48DB84"/>
<path opacity="0.8" d="M10.5392 43.0104C9.11106 46.0619 13.6763 55.697 13.6763 55.697L21.4739 52.079C20.6229 49.3454 19.563 46.6812 18.3035 44.1101C16.266 40.0685 11.9864 39.8923 10.5392 43.0104Z" fill="#A3EDC1"/>
<path d="M32.7417 41.0825C32.7417 41.0825 36.4643 45.2907 32.9511 71.3113H14.2474C14.1141 68.455 15.9183 54.4355 13.1525 40.9016C15.2199 40.5035 17.311 40.2396 19.4125 40.1114C22.0602 39.959 24.7146 39.959 27.3624 40.1114C29.1777 40.297 30.9761 40.6217 32.7417 41.0825Z" fill="#48DB84"/>
<path opacity="0.8" d="M32.7417 41.0825C32.7417 41.0825 36.4643 45.2907 32.9511 71.3113H14.2474C14.1141 68.455 15.9183 54.4355 13.1525 40.9016C15.2199 40.5035 17.311 40.2396 19.4125 40.1114C22.0602 39.959 24.7146 39.959 27.3624 40.1114C29.1777 40.297 30.9761 40.6217 32.7417 41.0825Z" fill="#A3EDC1"/>
<path d="M28.1904 43.3918C27.0384 46.5336 31.6655 56.064 31.6655 56.064L40.0439 51.8415C38.9706 48.9848 37.595 46.2511 35.9404 43.6869C33.4316 40.0214 29.4567 39.9595 28.1904 43.3918Z" fill="#48DB84"/>
<path opacity="0.8" d="M28.1904 43.3918C27.0384 46.5336 31.6655 56.064 31.6655 56.064L40.0439 51.8415C38.9706 48.9848 37.595 46.2511 35.9404 43.6869C33.4316 40.0214 29.4567 39.9595 28.1904 43.3918Z" fill="#A3EDC1"/>
<path d="M48.5613 61.6147L51.9888 60.2437L52.9409 64.3757C52.9409 64.3757 50.2179 65.3611 48.2376 63.9282L48.5613 61.6147Z" fill="#E58A7B"/>
<path d="M55.7678 60.2865L55.2394 63.9806L52.9354 64.3757L51.988 60.2437L55.7678 60.2865Z" fill="#E58A7B"/>
<path d="M20.9113 27.7734C20.4353 31.2057 19.9592 33.1908 21.2969 35.2901C23.3296 38.4463 27.8377 37.7655 29.3516 34.5475C30.7178 31.6531 31.3033 26.5214 28.2662 24.4792C27.5964 24.0325 26.8243 23.763 26.0221 23.6958C25.2199 23.6286 24.4137 23.766 23.679 24.0951C22.9443 24.4242 22.305 24.9342 21.821 25.5775C21.337 26.2207 21.024 26.9763 20.9113 27.7734Z" fill="#E58A7B"/>
<path d="M34.1079 22.0031C31.1469 19.2659 33.4891 18.5708 33.4891 18.5708C33.4891 18.5708 30.2425 17.2284 31.5278 20.1037C33.3225 24.112 28.2954 22.879 25.8867 20.1037C24.4014 18.3899 20.4931 20.1465 20.6835 21.8174C20.8739 23.4884 14.733 22.1935 17.5131 25.84C17.5654 29.6484 19.0459 33.352 21.012 34.3564C24.3824 36.0749 26.9102 31.2669 27.8527 27.4157C32.9369 29.8578 37.1736 24.8356 34.1079 22.0031Z" fill="#393C47"/>
<path d="M25.2821 29.7104C25.3013 30.5767 25.6039 31.4129 26.1438 32.0907C26.8626 32.9666 27.6814 32.4858 27.8718 31.4718C28.0432 30.5578 27.8718 29.0011 26.9673 28.4918C26.0629 27.9824 25.2774 28.6727 25.2821 29.7104Z" fill="#E58A7B"/>
<path d="M17.5464 22.2737C19.0742 22.2156 20.5727 22.7033 21.7737 23.6494C21.7737 23.6494 20.9121 19.9649 17.5464 22.2737Z" fill="#393C47"/>
<path d="M24.7581 71.312C24.7581 71.312 25.4579 85.4791 28.0428 97.9704C28.8664 101.926 28.3284 106.163 26.0101 109.472C19.1979 119.188 8.3965 132.127 8.3965 132.127L2.73635 131.493C2.73635 131.493 11.9002 114.503 16.594 106.063C17.6603 104.159 18.6029 102.417 17.7984 100.351C10.0246 80.6187 14.228 71.312 14.228 71.312H24.7581Z" fill="#48DB84"/>
<path d="M25.8106 83.555L20.3932 77.0903C20.1885 79.9894 21.9404 90.8337 27.948 97.4983C26.9912 92.7998 26.3009 87.8441 25.8106 83.555Z" fill="#48DB84"/>
<path d="M9.99154 131.264L8.88236 133.559L2.06067 131.807L2.60335 129.679L9.99154 131.264Z" fill="#48DB84"/>
<path opacity="0.1" d="M9.99154 131.264L8.88236 133.559L2.06067 131.807L2.60335 129.679L9.99154 131.264Z" fill="black"/>
<path d="M30.3191 136.425H33.8132L34.8367 128.328H31.3426L30.3191 136.425Z" fill="#E58A7B"/>
<path d="M35.3454 136.596C34.9845 136.596 34.6243 136.563 34.2696 136.496C34.2529 136.494 34.2375 136.486 34.2256 136.474C34.2136 136.462 34.2057 136.446 34.2029 136.43C34.2 136.413 34.2026 136.395 34.2103 136.38C34.218 136.364 34.2304 136.352 34.2458 136.344C34.2981 136.315 35.5168 135.62 36.1023 135.777C36.157 135.79 36.2085 135.814 36.2536 135.848C36.2986 135.881 36.3362 135.924 36.3642 135.973C36.4015 136.026 36.4215 136.089 36.4215 136.154C36.4215 136.218 36.4015 136.282 36.3642 136.334C36.2261 136.544 35.7929 136.596 35.3454 136.596ZM34.5362 136.377C35.1931 136.468 36.0785 136.453 36.2356 136.234C36.2356 136.206 36.2785 136.158 36.2356 136.054C36.2182 136.024 36.1948 135.999 36.1669 135.979C36.139 135.96 36.1073 135.946 36.0738 135.939C35.6977 135.849 34.9646 136.168 34.56 136.387L34.5362 136.377Z" fill="#BDBDD0"/>
<path d="M34.2838 136.51C34.2682 136.515 34.2517 136.515 34.2362 136.51C34.2252 136.501 34.2165 136.489 34.2107 136.476C34.205 136.463 34.2023 136.449 34.2028 136.434C34.2028 136.391 34.3028 135.449 34.7455 135.087C34.8099 135.03 34.8858 134.988 34.9679 134.964C35.0501 134.939 35.1366 134.932 35.2216 134.944C35.4501 134.968 35.512 135.082 35.5262 135.178C35.5929 135.573 34.755 136.33 34.3361 136.515L34.2838 136.51ZM35.1406 135.082C35.0336 135.082 34.9302 135.121 34.8503 135.192C34.5852 135.493 34.4191 135.869 34.3742 136.268C34.8074 136.011 35.3739 135.416 35.3263 135.178C35.3263 135.178 35.3263 135.101 35.1644 135.082H35.1406Z" fill="#BDBDD0"/>
<path d="M33.9124 136.02H30.104C30.0343 136.02 29.9666 136.044 29.9128 136.088C29.8589 136.133 29.8222 136.194 29.8089 136.263L29.1138 139.371C29.0973 139.446 29.098 139.524 29.1158 139.599C29.1336 139.674 29.168 139.743 29.2165 139.803C29.2651 139.862 29.3264 139.91 29.396 139.943C29.4656 139.975 29.5417 139.991 29.6185 139.99C30.999 139.966 32.9888 139.885 34.7169 139.885C36.7448 139.885 38.4919 140 40.8674 140C42.2955 140 42.7001 138.572 42.1003 138.415C39.3631 137.815 37.1304 137.753 34.7645 136.296C34.5129 136.124 34.217 136.028 33.9124 136.02Z" fill="#263238"/>
<path d="M32.9506 71.312C32.9506 71.312 35.8783 81.0995 40.7149 93.686C42.2906 97.78 42.8999 101.722 41.805 105.187C38.4109 115.946 35.4784 132.127 35.4784 132.127L29.6469 131.493C29.6469 131.493 29.4232 114.989 31.4892 106.482C32.5508 102.117 32.189 100.527 31.0988 99.0844C16.2463 79.3238 20.2355 71.3263 20.2355 71.3263L32.9506 71.312Z" fill="#48DB84"/>
<path d="M36.4879 131.136L36.1833 133.459L29.2997 132.293L29.095 130.17L36.4879 131.136Z" fill="#48DB84"/>
<path opacity="0.1" d="M36.4879 131.136L36.1833 133.459L29.2997 132.293L29.095 130.17L36.4879 131.136Z" fill="black"/>
</svg>
