<svg width="48" height="48" viewBox="0 0 48 48" fill="none" xmlns="http://www.w3.org/2000/svg">
<path fill-rule="evenodd" clip-rule="evenodd" d="M33.8127 21.0641C33.8127 21.0641 33.997 22 34.0599 22.009C37.4537 22.4929 40 24.4725 40 28C40 31.866 36.866 35 33 35H15C11.134 35 8 31.866 8 28C8 24.4725 10.6092 21.5544 14.003 21.0705C14.0659 21.0615 14.1275 21.0596 14.1873 21.0641C15.0889 16.4677 19.1395 13 24 13C28.8605 13 32.9111 16.4677 33.8127 21.0641Z" fill="#F8F8FD"/>
<path d="M33 35H33.4118C37.0503 35 40 32.1272 40 28.5833C40 25.3383 37.5268 22.6559 34.3161 22.2266C33.8697 17.0587 29.4215 13 24 13C19.2043 13 15.1702 16.1758 13.9938 20.486C10.5718 21.1766 8 24.1291 8 27.6667C8 31.5434 11.0886 34.7175 15 34.9822" stroke="#393C47" stroke-linecap="round" stroke-linejoin="round"/>
<path fill-rule="evenodd" clip-rule="evenodd" d="M23.2736 32.875C23.2736 32.3918 23.6654 32 24.1486 32C24.6319 32 25.0236 32.3918 25.0236 32.875V33.9845L25.9846 33.4297C26.4031 33.1881 26.9382 33.3315 27.1799 33.75C27.4215 34.1685 27.2781 34.7036 26.8596 34.9453L25.8986 35.5001L26.8593 36.0547C27.2778 36.2964 27.4212 36.8315 27.1796 37.25C26.9379 37.6685 26.4028 37.8119 25.9843 37.5703L25.0236 37.0156V38.125C25.0236 38.6082 24.6319 39 24.1486 39C23.6654 39 23.2736 38.6082 23.2736 38.125V37.0156L22.313 37.5703C21.8945 37.8119 21.3593 37.6685 21.1177 37.25C20.8761 36.8315 21.0195 36.2964 21.438 36.0547L22.3986 35.5001L21.4376 34.9453C21.0191 34.7036 20.8757 34.1685 21.1174 33.75C21.359 33.3315 21.8941 33.1881 22.3126 33.4297L23.2736 33.9846V32.875Z" fill="#393C47"/>
</svg>
