<svg width="48" height="48" viewBox="0 0 48 48" fill="none" xmlns="http://www.w3.org/2000/svg">
<path d="M35 24C35 30.0751 30.0751 35 24 35C17.9249 35 13 30.0751 13 24C13 17.9249 17.9249 13 24 13C30.0751 13 35 17.9249 35 24Z" fill="#FFC618"/>
<path fill-rule="evenodd" clip-rule="evenodd" d="M35 24C35 30.0751 30.0751 35 24 35C17.9249 35 13 30.0751 13 24C13 17.9249 17.9249 13 24 13C30.0751 13 35 17.9249 35 24Z" stroke="#393C47"/>
<line x1="43.5" y1="23.5" x2="38.5" y2="23.5" stroke="#F46765" stroke-linecap="round" stroke-linejoin="round"/>
<line x1="43.5" y1="23.5" x2="38.5" y2="23.5" stroke="#393C47" stroke-linecap="round" stroke-linejoin="round"/>
<line x1="9.5" y1="23.5" x2="4.5" y2="23.5" stroke="#393C47" stroke-linecap="round" stroke-linejoin="round"/>
<line x1="41.1373" y1="33.317" x2="36.8072" y2="30.817" stroke="#393C47" stroke-linecap="round" stroke-linejoin="round"/>
<line x1="11.692" y1="16.317" x2="7.36186" y2="13.817" stroke="#393C47" stroke-linecap="round" stroke-linejoin="round"/>
<line x1="34.1842" y1="40.6375" x2="31.6842" y2="36.3074" stroke="#393C47" stroke-linecap="round" stroke-linejoin="round"/>
<line x1="17.1842" y1="11.1926" x2="14.6842" y2="6.8625" stroke="#393C47" stroke-linecap="round" stroke-linejoin="round"/>
<line x1="24.5" y1="43.5" x2="24.5" y2="38.5" stroke="#393C47" stroke-linecap="round" stroke-linejoin="round"/>
<line x1="24.5" y1="9.5" x2="24.5" y2="4.5" stroke="#393C47" stroke-linecap="round" stroke-linejoin="round"/>
<line x1="14.6842" y1="41.1375" x2="17.1842" y2="36.8074" stroke="#393C47" stroke-linecap="round" stroke-linejoin="round"/>
<line x1="31.6842" y1="11.6926" x2="34.1842" y2="7.3625" stroke="#393C47" stroke-linecap="round" stroke-linejoin="round"/>
<line x1="7.3627" y1="34.183" x2="11.6928" y2="31.683" stroke="#393C47" stroke-linecap="round" stroke-linejoin="round"/>
<line x1="36.808" y1="17.183" x2="41.1381" y2="14.683" stroke="#393C47" stroke-linecap="round" stroke-linejoin="round"/>
</svg>
