<svg width="32" height="32" viewBox="0 0 32 32" fill="none" xmlns="http://www.w3.org/2000/svg">
<path d="M9.68654 14.8253H10.4929L10.4929 11.6721H9.18318L8.2375 13.8111L7.20803 11.6721H5.92413V14.6575L4.58627 11.6721H3.41748L2.00883 14.8252H2.86323L3.16853 14.1219H4.80643L5.10868 14.8252H6.70863V12.3536L7.85225 14.8252H8.54292L9.68356 12.3558L9.68654 14.8253ZM3.99916 12.2105L4.53755 13.4675H3.46375L3.99916 12.2105Z" fill="#2557D6"/>
<path d="M11.0744 14.8252H13.7022L13.7021 14.1731H11.861V13.5434H13.6581V12.897H11.861V12.3287H13.7022V11.6721H11.0744V14.8252Z" fill="#2557D6"/>
<path d="M16.8511 13.3617C17.0552 13.2838 17.4053 13.024 17.4053 12.5213C17.4053 12.1696 17.2561 11.964 17.0072 11.8231C16.7529 11.6822 16.4567 11.6721 16.0547 11.6721H14.2454V14.8252H15.0321V13.6783H15.8765C16.1597 13.6783 16.335 13.7024 16.4499 13.8133C16.5785 13.9496 16.5762 14.1838 16.5744 14.3675C16.5742 14.3883 16.574 14.4083 16.574 14.4276L16.577 14.8252H17.3705V14.2058C17.3705 13.9242 17.3513 13.7841 17.2403 13.6273C17.1703 13.5354 17.0232 13.4245 16.8511 13.3617ZM16.0219 13.0545H15.0663V12.3541H16.0349C16.1719 12.3541 16.315 12.36 16.4079 12.411C16.51 12.4569 16.5731 12.5547 16.5731 12.6897C16.5731 12.8276 16.513 12.9384 16.411 12.9895C16.3029 13.0524 16.1751 13.0545 16.0219 13.0545Z" fill="#2557D6"/>
<path d="M17.8644 14.8252H18.667V11.6721H17.8644V14.8252Z" fill="#2557D6"/>
<path d="M26.8698 14.8252L25.3788 12.4586V14.8252H23.7767L23.4706 14.1219H21.8366L21.5397 14.8252H20.619C20.2367 14.8252 19.7525 14.7442 19.4784 14.4765C19.2019 14.2087 19.0581 13.8461 19.0581 13.2727C19.0581 12.8051 19.1441 12.3776 19.4821 12.0397C19.7365 11.7881 20.1347 11.6721 20.6768 11.6721H21.4384V12.3477H20.6927C20.4057 12.3477 20.2435 12.3886 20.0874 12.5345C19.9533 12.6673 19.8613 12.9182 19.8613 13.2487C19.8613 13.5865 19.9314 13.8301 20.0776 13.9892C20.1986 14.114 20.4188 14.1518 20.6258 14.1518H20.9791L22.0877 11.6722H23.2664L24.5983 14.6546V11.6722H25.796L27.1788 13.8682V11.6722H27.9845V14.8252H26.8698ZM22.6586 12.2105L22.1172 13.4676H23.203L22.6586 12.2105Z" fill="#2557D6"/>
<path d="M15.8778 19.2244C16.5653 19.2244 17.2476 19.0436 17.2476 18.1674C17.2476 17.294 16.5461 17.1284 15.9219 17.1284H13.4083L12.4077 18.1622L11.4399 17.1284H8.27606V20.2823H11.392L12.3987 19.2382L13.3673 20.2823H14.8962V19.2244H15.8778ZM9.05945 19.6189V18.9914H10.7865V18.3479H9.05945V17.7745H11.0316L11.892 18.6936L10.9935 19.6189H9.05945ZM12.9021 18.6953L14.1098 17.4515V19.98L12.9021 18.6953ZM14.8794 18.5777V17.7745H15.9051C16.1891 17.7745 16.3862 17.8854 16.3862 18.1612C16.3862 18.434 16.1982 18.5777 15.8959 18.5777H14.8794Z" fill="#2557D6"/>
<path d="M23.8471 17.1284H21.2217L21.2216 20.2823H23.8471V19.6279L22.0051 19.625V18.9975H23.8022V18.354H22.0051V17.7806H23.8471V17.1284Z" fill="#2557D6"/>
<path d="M20.5976 19.0814C20.5305 18.9895 20.3874 18.8785 20.2123 18.8166C20.4193 18.7379 20.7698 18.481 20.7698 17.9776C20.7698 17.6178 20.6136 17.421 20.3654 17.2773C20.1072 17.1453 19.8171 17.1284 19.4189 17.1284H17.6027V20.2823H18.3932V19.1304H19.2339C19.5208 19.1304 19.6961 19.1574 19.811 19.2704C19.9426 19.4024 19.9403 19.6432 19.9385 19.8284C19.9383 19.8489 19.9381 19.8688 19.9381 19.8877V20.2823H20.7279V19.657C20.7247 19.3791 20.7087 19.2354 20.5976 19.0814ZM19.3793 18.4829H18.4237V17.7746H19.3923C19.5323 17.7746 19.6725 17.7774 19.7677 17.8315C19.8696 17.8826 19.9306 17.9804 19.9306 18.1152C19.9306 18.2501 19.8696 18.3588 19.7677 18.4179C19.6624 18.4777 19.5323 18.4829 19.3793 18.4829Z" fill="#2557D6"/>
<path d="M27.1042 19.287C27.1042 18.9624 27.0222 18.7706 26.8689 18.6188C26.6908 18.4459 26.3976 18.3751 25.9706 18.3652L25.5471 18.3542C25.4132 18.3542 25.324 18.3461 25.2411 18.3185C25.1421 18.2835 25.0689 18.2025 25.0689 18.0835C25.0689 17.9835 25.1009 17.9077 25.1871 17.8567C25.2662 17.8049 25.3592 17.7997 25.5022 17.7997H26.9452V17.1284H25.3682C24.5434 17.1284 24.2435 17.61 24.2435 18.0674C24.2435 19.0001 25.0481 19.021 25.7539 19.0394C25.8033 19.0407 25.8523 19.042 25.9004 19.0436C26.0374 19.0436 26.1204 19.0654 26.1805 19.1135C26.2345 19.1573 26.2765 19.2302 26.2765 19.3221C26.2765 19.4081 26.2377 19.479 26.1836 19.5278C26.1173 19.587 26.0115 19.6058 25.8623 19.6058H24.3363V20.2822H25.8684C26.6619 20.2822 27.1042 19.9654 27.1042 19.287Z" fill="#2557D6"/>
<path d="M28.5641 7H3.4359C2.64289 7 2 7.64289 2 8.4359V23.5128C2 24.3059 2.64289 24.9487 3.4359 24.9487H28.5641C29.3571 24.9487 30 24.3059 30 23.5128V8.4359C30 7.64289 29.3571 7 28.5641 7ZM3.35297 15.4596H2.00894L2.00876 13.1527L2.96144 11.0618H5.0128L5.27708 11.5812V11.0618H7.68238L8.2086 12.1977L8.721 11.0618H16.3578C16.705 11.0618 17.0172 11.1238 17.2463 11.3186V11.0618H19.3366V11.3186C19.6966 11.1296 20.1423 11.0618 20.6493 11.0618H23.6783L23.9593 11.5812V11.0618H26.2019L26.5078 11.5812V11.0618H28.6932V15.4596H26.485L26.0676 14.7944V15.4596H23.312L23.0127 14.7593H22.3342L22.0282 15.4596H20.5982C20.0371 15.4596 19.6107 15.3327 19.3365 15.192V15.4596H15.9374V14.4617C15.9374 14.3208 15.9114 14.313 15.8224 14.31H15.6952L15.6983 15.4596H9.12618V14.9162L8.89012 15.4619H7.51729L7.28123 14.9242V15.4596H4.63674L4.33448 14.7592H3.65602L3.35297 15.4596ZM29.989 19.8602C29.9891 19.86 29.9889 19.8603 29.989 19.8602ZM28.9216 20.2636C29.4254 20.2636 29.7979 20.1276 29.989 19.8602L29.9886 20.6799C29.6734 20.8258 29.2592 20.8827 28.8351 20.8827H26.7968V20.6011C26.5606 20.7827 26.1342 20.8827 25.7262 20.8827H19.3002V19.8656C19.3002 19.741 19.2874 19.7359 19.1572 19.7359H19.0552V20.8829H16.9398V19.6952C16.5857 19.8418 16.1844 19.855 15.8441 19.85H15.5921V20.8852L13.0275 20.883L12.3969 20.1987L11.7276 20.883H7.56708V16.4823H11.8076L12.4161 17.1559L13.0656 16.4823H15.9043C16.2325 16.4823 16.7709 16.5153 17.013 16.7399V16.4823H19.5494C19.7878 16.4823 20.3041 16.5284 20.6101 16.7399V16.4823H24.4554V16.7399C24.6466 16.5642 25.0507 16.4823 25.3952 16.4823H27.5485V16.7399C27.7745 16.5832 28.0937 16.4824 28.533 16.4824H29.9889V17.1098H28.422C27.5965 17.1098 27.2934 17.5914 27.2934 18.0488C27.2934 18.9815 28.0984 19.0024 28.8066 19.0208C28.8561 19.0221 28.9052 19.0234 28.9534 19.025C29.0905 19.025 29.1736 19.0468 29.2306 19.095C29.2885 19.1387 29.3267 19.2116 29.3267 19.3036C29.3272 19.3816 29.2935 19.4563 29.2337 19.5092C29.1705 19.5684 29.0655 19.5873 28.9154 19.5873H27.4024V20.2636H28.9216ZM28.5567 17.7745H29.9903V18.6719C29.9869 18.6677 29.9835 18.6635 29.9802 18.6592C29.9621 18.6365 29.9443 18.6141 29.9174 18.5939C29.7423 18.4211 29.4551 18.3502 29.025 18.34L28.5986 18.3291C28.4676 18.3291 28.3784 18.321 28.2954 18.2933C28.1935 18.2583 28.1235 18.1774 28.1235 18.0584C28.1235 17.9583 28.1554 17.8826 28.2384 17.8315C28.3184 17.7797 28.4136 17.7745 28.5567 17.7745Z" fill="#2557D6"/>
</svg>
