<svg width="32" height="32" viewBox="0 0 32 32" fill="none" xmlns="http://www.w3.org/2000/svg">
<path fill-rule="evenodd" clip-rule="evenodd" d="M2 9C2 7.89543 2.89543 7 4 7H27.9752C29.0768 7 29.9711 7.89093 29.9751 8.9926L30 15.7137C26.6155 14.4352 15.8818 11.3622 2 15.1873V9Z" fill="#2C328C"/>
<path fill-rule="evenodd" clip-rule="evenodd" d="M2 23.4909C2 24.5955 2.89543 25.4909 4 25.4909H27.9678C29.0723 25.4909 29.9678 24.5955 29.9678 23.4909V18.5178C24.9179 16.8309 15.957 14.2952 2 17.8839V23.4909Z" fill="#FFF200"/>
<path fill-rule="evenodd" clip-rule="evenodd" d="M29.9678 18.5185C24.9179 16.8316 15.957 14.2959 2 17.8846V15.1877C15.8818 11.3627 26.6155 14.4356 29.9893 15.7142L29.9678 18.5185Z" fill="#ED1C24"/>
<path fill-rule="evenodd" clip-rule="evenodd" d="M10.9072 13.5429C11.5949 11.6304 13.185 9.97579 15.9356 9.99728C18.6862 10.0188 20.5235 11.5875 21.0177 13.6396C17.4721 13.2743 15.1083 13.2099 10.9072 13.5429Z" fill="#FFF200"/>
<path d="M8.24243 21.9566L10.112 19.1631H10.8104L12.8088 21.9566H12.0782L11.5087 21.1078H9.4673L8.93008 21.9566H8.24243ZM9.64995 20.807H11.3046L10.7996 20.0334C10.6492 19.797 10.531 19.6036 10.4558 19.4532C10.3913 19.6358 10.3054 19.8078 10.1872 19.9904L9.64995 20.807ZM16.0859 21.9566V21.6558C15.8065 21.8814 15.4412 21.9996 14.9684 21.9996C14.7643 21.9996 14.5602 21.9781 14.3883 21.9352C14.2056 21.8922 14.0767 21.8277 13.9907 21.7632C13.9048 21.6988 13.8403 21.6128 13.8081 21.5054C13.7866 21.4409 13.7758 21.3335 13.7758 21.183V19.9259H14.3775V21.0434C14.3775 21.226 14.3883 21.3442 14.4097 21.4087C14.4527 21.4946 14.5279 21.5698 14.6461 21.6236C14.7643 21.6773 14.9147 21.6988 15.0974 21.6988C15.28 21.6988 15.4412 21.6773 15.6024 21.6236C15.7635 21.5698 15.871 21.4946 15.9354 21.4087C15.9999 21.3227 16.0321 21.183 16.0321 21.0111V19.9259H16.6338V21.9459H16.0859V21.9566ZM18.0736 21.9566V19.9367H18.6108V20.2375C18.7505 20.0979 18.8794 20.0012 18.9976 19.9582C19.1158 19.9152 19.2447 19.8937 19.3844 19.8937C19.5886 19.8937 19.7927 19.9259 19.9968 20.0012L19.7927 20.3235C19.6423 20.2698 19.5026 20.2483 19.3522 20.2483C19.2232 20.2483 19.1051 20.2698 18.9976 20.3127C18.8902 20.3557 18.815 20.4202 18.772 20.4954C18.7075 20.6136 18.6753 20.7533 18.6753 20.8929V21.9459H18.0736V21.9566ZM23.1772 21.7095C22.9516 21.817 22.7367 21.8922 22.5325 21.9352C22.3284 21.9781 22.1028 21.9996 21.8771 21.9996C21.4903 21.9996 21.1895 21.9459 20.9853 21.8385C20.7812 21.731 20.6737 21.5913 20.6737 21.4194C20.6737 21.3227 20.7167 21.226 20.7919 21.1508C20.8671 21.0649 20.9746 21.0004 21.1035 20.9574C21.2325 20.9037 21.3721 20.8715 21.5333 20.85C21.6515 20.8285 21.8234 20.8177 22.0598 20.7962C22.5433 20.764 22.8978 20.721 23.1235 20.6781C23.1235 20.6351 23.1235 20.6028 23.1235 20.5921C23.1235 20.4524 23.0698 20.3557 22.9516 20.302C22.8011 20.2268 22.5755 20.1838 22.2747 20.1838C21.9953 20.1838 21.7804 20.216 21.6515 20.2698C21.5226 20.3235 21.4151 20.4309 21.3506 20.5706L20.7704 20.5276C20.8242 20.388 20.9101 20.2698 21.0283 20.1838C21.1465 20.0979 21.3292 20.0226 21.5548 19.9797C21.7804 19.9367 22.049 19.9045 22.3606 19.9045C22.6615 19.9045 22.9086 19.9259 23.0912 19.9689C23.2846 20.0119 23.4136 20.0656 23.5103 20.1193C23.5962 20.1838 23.6607 20.259 23.6929 20.3557C23.7144 20.4094 23.7252 20.5169 23.7252 20.6673V21.1293C23.7252 21.4517 23.7359 21.6451 23.7681 21.731C23.7896 21.817 23.8434 21.8922 23.9186 21.9781H23.2954C23.2309 21.8814 23.1879 21.7955 23.1772 21.7095ZM23.1235 20.9359C22.9086 20.9896 22.5755 21.0326 22.1457 21.0649C21.8986 21.0863 21.7267 21.1078 21.6193 21.1293C21.5118 21.1508 21.4366 21.1938 21.3829 21.2368C21.3292 21.2905 21.2969 21.3442 21.2969 21.3979C21.2969 21.4946 21.3614 21.5698 21.4796 21.6236C21.5978 21.688 21.7804 21.7095 22.0061 21.7095C22.2317 21.7095 22.4466 21.6773 22.6185 21.6236C22.8011 21.5698 22.9301 21.4839 23.016 21.3872C23.0805 21.312 23.1127 21.1938 23.1127 21.0434V20.9359H23.1235Z" fill="#2C328C" stroke="#2C328C" stroke-width="0.216" stroke-miterlimit="22.9256"/>
</svg>
