<svg width="32" height="32" viewBox="0 0 32 32" fill="none" xmlns="http://www.w3.org/2000/svg">
<path d="M11.6568 10.3438C9.58796 11.1414 8.12082 13.1487 8.11625 15.5025C8.12076 17.8567 9.58796 19.863 11.6568 20.6601V10.3438Z" fill="#0079BE"/>
<path d="M15.6043 10.3441V20.6627C17.674 19.8655 19.1433 17.8589 19.1471 15.5032C19.1434 13.1482 17.674 11.1398 15.6043 10.3441Z" fill="#0079BE"/>
<path d="M28 15.6087C28 9.92601 23.2569 5.99829 18.0598 6H13.5875C8.32859 5.99811 4 9.92721 4 15.6087C4 20.8063 8.3287 25.0767 13.5875 25.0516H18.0598C23.2564 25.0765 28 20.805 28 15.6087ZM13.6156 6.80481C18.4222 6.80653 22.3171 10.7092 22.3177 15.5264C22.3171 20.3426 18.4221 24.2453 13.6156 24.2467C8.80987 24.245 4.91588 20.3426 4.91468 15.5264C4.9164 10.7093 8.81021 6.8063 13.6156 6.80481Z" fill="#0079BE"/>
</svg>
