<svg width="32" height="32" viewBox="0 0 32 32" fill="none" xmlns="http://www.w3.org/2000/svg">
<rect x="1" y="6" width="30" height="20" rx="2" fill="#4D4D4D"/>
<path fill-rule="evenodd" clip-rule="evenodd" d="M13.5827 13.0259C13.9226 13.0259 14.2076 13.0945 14.5545 13.2601V14.1351C14.2259 13.8327 13.9409 13.7061 13.5639 13.7061C12.823 13.7061 12.2403 14.2836 12.2403 15.0158C12.2403 15.7879 12.805 16.331 13.6007 16.331C13.9588 16.331 14.2386 16.211 14.5545 15.9134V16.7889C14.1953 16.9481 13.9041 17.0111 13.5639 17.0111C12.3609 17.0111 11.4262 16.142 11.4262 15.0212C11.4262 13.9125 12.3858 13.0259 13.5827 13.0259V13.0259ZM9.84758 13.05C10.2917 13.05 10.698 13.1931 11.0377 13.4728L10.6243 13.9824C10.4185 13.7652 10.2239 13.6736 9.98723 13.6736C9.64673 13.6736 9.39877 13.8561 9.39877 14.0963C9.39877 14.3022 9.53797 14.4112 10.012 14.5763C10.9107 14.8857 11.177 15.16 11.177 15.7658C11.177 16.504 10.601 17.0178 9.78008 17.0178C9.17893 17.0178 8.74185 16.795 8.37785 16.292L8.88816 15.8293C9.07008 16.1605 9.37362 16.3378 9.75047 16.3378C10.1029 16.3378 10.3638 16.1089 10.3638 15.8C10.3638 15.6398 10.2848 15.5025 10.127 15.4055C10.0475 15.3595 9.89012 15.291 9.58081 15.1883C8.83885 14.9368 8.58427 14.668 8.58427 14.1427C8.58427 13.5186 9.13097 13.05 9.84758 13.05V13.05ZM18.8754 13.1165H19.7383L20.8185 15.6777L21.9126 13.1165H22.769L21.0192 17.0275H20.5941L18.8754 13.1165V13.1165ZM3.59277 13.1223H4.75239C6.03362 13.1223 6.92677 13.9062 6.92677 15.0316C6.92677 15.5927 6.65354 16.1353 6.19147 16.4953C5.8027 16.7992 5.3597 16.9355 4.74631 16.9355H3.59277V13.1223V13.1223ZM7.29027 13.1223H8.08027V16.9355H7.29027V13.1223ZM23.1262 13.1223H25.3667V13.7685H23.9157V14.6148H25.3132V15.2606H23.9157V16.2899H25.3667V16.9355H23.1262V13.1223H23.1262ZM25.89 13.1223H27.0613C27.9725 13.1223 28.4946 13.5342 28.4946 14.2481C28.4946 14.832 28.1671 15.2151 27.572 15.3291L28.847 16.9355H27.8754L26.782 15.4036H26.679V16.9355H25.89V13.1223V13.1223ZM26.679 13.7229V14.8777H26.9098C27.4143 14.8777 27.6817 14.6715 27.6817 14.2882C27.6817 13.9171 27.4143 13.7229 26.9223 13.7229H26.679V13.7229ZM4.38223 13.7684V16.2899H4.59423C5.10473 16.2899 5.42716 16.1978 5.67539 15.9868C5.94858 15.7578 6.11293 15.392 6.11293 15.0261C6.11293 14.6607 5.94858 14.3059 5.67539 14.0768C5.41443 13.8545 5.10473 13.7684 4.59423 13.7684H4.38223Z" fill="white"/>
<path fill-rule="evenodd" clip-rule="evenodd" d="M16.9667 13C18.1567 13 19.1214 13.9069 19.1214 15.0273V15.0285C19.1214 16.1489 18.1567 17.0571 16.9667 17.0571C15.7767 17.0571 14.812 16.1489 14.812 15.0285V15.0273C14.812 13.9069 15.7767 13 16.9667 13Z" fill="#F47216"/>
<path fill-rule="evenodd" clip-rule="evenodd" d="M30.9992 17.8906C29.9972 18.5956 22.4961 23.6345 9.50879 26.0683C11.4027 26.0683 23.854 26.0683 28.9999 26.0683C30.1045 26.0683 30.9992 25.1729 30.9992 24.0683L30.9992 17.8906Z" fill="#F47216"/>
</svg>
