<svg width="32" height="32" viewBox="0 0 32 32" fill="none" xmlns="http://www.w3.org/2000/svg">
<path d="M5.46728 13.427C5.78773 13.3186 6.13175 13.2621 6.4899 13.2621C8.05446 13.2621 9.35983 14.3743 9.65672 15.8492L11.8716 15.3968C11.3627 12.8898 9.14777 11 6.4899 11C5.88198 11 5.29763 11.099 4.75098 11.2828L5.46728 13.427V13.427Z" fill="#FFE600"/>
<path d="M2.85202 20.6093L4.3506 18.9128C3.68142 18.3191 3.26201 17.4567 3.26201 16.4906C3.26201 15.5293 3.68142 14.6622 4.3506 14.0731L2.85202 12.3813C1.7163 13.3898 1 14.8554 1 16.4954C1 18.1306 1.7163 19.6008 2.85202 20.6093V20.6093Z" fill="#00A3DF"/>
<path d="M9.65606 17.1396C9.35446 18.6147 8.0538 19.7221 6.48924 19.7221C6.13109 19.7221 5.78707 19.6656 5.46191 19.5572L4.74561 21.7014C5.29226 21.8851 5.88133 21.9841 6.48924 21.9841C9.14711 21.9841 11.362 20.0991 11.871 17.592L9.65606 17.1396Z" fill="#EE4023"/>
<path d="M19.2517 18.6586C18.8841 19.0168 18.3893 19.2336 17.8427 19.2241C17.4657 19.2194 17.117 19.1063 16.8248 18.9178L16.0896 20.0866C16.5938 20.4023 17.1829 20.5908 17.8238 20.6002C18.7521 20.6143 19.6004 20.2467 20.2178 19.6483L19.2517 18.6586ZM17.9228 13.8943C16.0755 13.866 14.5486 15.3457 14.5203 17.193C14.5109 17.8858 14.7088 18.5361 15.0623 19.0733L21.132 16.4767C20.7927 15.0206 19.4921 13.9225 17.9228 13.8943V13.8943ZM15.9105 17.4569C15.9011 17.3815 15.8964 17.3014 15.8964 17.2213C15.9152 16.1327 16.8106 15.2609 17.8992 15.2798C18.493 15.2891 19.0208 15.5577 19.3742 15.9819L15.9105 17.4569ZM23.0406 12.3862V18.8565L24.1622 19.323L23.6297 20.6001L22.5175 20.1383C22.2677 20.0299 22.0981 19.865 21.9708 19.6765C21.8483 19.488 21.754 19.224 21.754 18.8754V12.3862H23.0406V12.3862ZM27.0887 15.3787C27.2866 15.3127 27.494 15.2797 27.7155 15.2797C28.6721 15.2797 29.4639 15.9583 29.6476 16.8584L31.0001 16.5804C30.6891 15.0488 29.3366 13.8989 27.7155 13.8989C27.3432 13.8989 26.985 13.9603 26.6551 14.0686L27.0887 15.3787ZM25.4911 19.7566L26.4053 18.7246C25.9953 18.3617 25.7409 17.8339 25.7409 17.2448C25.7409 16.6558 26.0001 16.128 26.4053 15.7698L25.4911 14.7378C24.7984 15.3504 24.3601 16.2505 24.3601 17.2496C24.3601 18.2486 24.7984 19.144 25.4911 19.7566V19.7566ZM29.6476 17.6453C29.4639 18.5455 28.6674 19.224 27.7155 19.224C27.4987 19.224 27.2866 19.1863 27.0887 19.1204L26.6504 20.4305C26.985 20.5435 27.3432 20.6048 27.7155 20.6048C29.3366 20.6048 30.6891 19.455 31.0001 17.9234L29.6476 17.6453V17.6453Z" fill="black"/>
</svg>
