<svg width="32" height="32" viewBox="0 0 32 32" fill="none" xmlns="http://www.w3.org/2000/svg">
<rect x="1" y="6" width="30" height="20" rx="2" fill="#F37421"/>
<path d="M5.5 12.2661V18.927H7.01107V16.1408H9.49272V18.927H10.9962V12.2661H9.49272V14.8277H7.01107V12.2661H5.5Z" fill="white"/>
<path d="M24.0058 16.9898C24.0248 16.8794 24.0553 16.6549 24.0553 16.396C24.0553 15.2009 23.4615 13.9829 21.901 13.9829C20.2224 13.9829 19.4612 15.3379 19.4612 16.5635C19.4612 18.0746 20.4013 19.0261 22.0418 19.0261C22.6927 19.0261 23.2978 18.9272 23.7926 18.7293L23.5947 17.713C23.1913 17.8424 22.7726 17.9109 22.2587 17.9109C21.5584 17.9109 20.9456 17.614 20.8961 16.9936H24.0058V16.9898ZM20.8809 15.9621C20.919 15.5587 21.1778 14.9839 21.8096 14.9839C22.5023 14.9839 22.6584 15.5967 22.6584 15.9621H20.8809Z" fill="white"/>
<path d="M24.5349 18.9268H26.0383V16.4756C26.0383 16.3576 26.0498 16.2396 26.0688 16.1406C26.1678 15.6763 26.5446 15.3794 27.0965 15.3794C27.2639 15.3794 27.3934 15.3984 27.4999 15.4175V14.0054C27.3895 13.9863 27.321 13.9863 27.184 13.9863C26.7197 13.9863 26.1259 14.2832 25.8785 14.9836H25.8404L25.7909 14.0929H24.4968C24.5159 14.5078 24.5349 14.9721 24.5349 15.6839V18.9268V18.9268Z" fill="white"/>
<path fill-rule="evenodd" clip-rule="evenodd" d="M12.5224 12C12.9487 12 13.2951 12.3464 13.2951 12.7727C13.2951 13.199 12.9487 13.5453 12.5224 13.5453C12.0961 13.5453 11.7498 13.199 11.7498 12.7727C11.7498 12.3464 12.0961 12 12.5224 12Z" fill="#FFE700"/>
<path fill-rule="evenodd" clip-rule="evenodd" d="M15.6968 17.8009H16.4504C17.2079 17.8009 17.5504 17.3175 17.5504 16.8113C17.5504 16.3051 17.5124 15.1632 16.5798 15.1632C15.5065 15.1632 15.6778 16.5829 15.6854 17.3251C15.6816 17.485 15.693 17.6448 15.6968 17.8009ZM11.7498 14.0898H13.2951V16.8151C13.2951 17.3213 13.5767 17.8047 14.1972 17.8047C14.201 16.5791 14.1972 15.3154 14.1553 14.0898H15.4456C15.4722 14.3258 15.4989 14.5618 15.5217 14.7978C16.1307 13.5798 18.0528 13.8463 18.6999 14.8777C19.366 15.9397 19.5944 18.9846 16.4504 18.9846H15.7196C15.7273 19.6012 15.7273 20.2217 15.7273 20.8421H14.1819C14.1819 20.2483 14.1857 19.6241 14.1895 18.9846C12.5186 18.977 11.7498 17.9189 11.7498 16.8151V14.0898V14.0898Z" fill="white"/>
</svg>
