<svg width="32" height="32" viewBox="0 0 32 32" fill="none" xmlns="http://www.w3.org/2000/svg">
<g clip-path="url(#clip0)">
<path d="M14.5313 23.0544L2 23.059V23.0288C2 23.0122 2.01999 22.9047 2.04439 22.7898C2.06884 22.675 2.1068 22.4922 2.12884 22.3838C2.1508 22.2754 2.18841 22.0911 2.21233 21.9743C2.2712 21.6888 2.32937 21.4032 2.38679 21.1174C2.4094 21.0048 2.44706 20.8205 2.47059 20.7079C2.50059 20.5639 2.53024 20.4198 2.55967 20.2757C2.58513 20.1506 2.62383 19.9594 2.6457 19.851C2.66757 19.7425 2.70229 19.5753 2.72289 19.4794C2.74345 19.3835 2.76973 19.2538 2.78119 19.1912C2.79269 19.1287 2.82991 18.9443 2.86389 18.7817C2.8925 18.6454 2.92031 18.5089 2.94721 18.3722C2.95906 18.3097 2.99672 18.1254 3.03092 17.9627C3.06507 17.8001 3.1026 17.6158 3.11432 17.5533C3.12604 17.4907 3.16378 17.3064 3.19816 17.1438C3.23262 16.9811 3.2698 16.8003 3.28073 16.7419C3.29175 16.6835 3.32184 16.5334 3.34764 16.4082C3.3734 16.2831 3.42221 16.0476 3.45606 15.885C3.48996 15.7223 3.54786 15.4391 3.58473 15.2555C3.62169 15.072 3.66581 14.8536 3.68283 14.7702C3.73282 14.5249 3.78324 14.2797 3.83419 14.0347C3.8593 13.9136 3.9001 13.7157 3.9249 13.5947C3.94974 13.4738 3.98796 13.2861 4.00988 13.1777C4.03179 13.0693 4.06918 12.8884 4.09297 12.7758C4.11676 12.6632 4.1577 12.4652 4.18394 12.3359C4.21018 12.2066 4.25413 12.0087 4.2816 11.8961C4.30906 11.7835 4.3479 11.647 4.36793 11.5928C4.38792 11.5385 4.44316 11.421 4.49065 11.3315L4.57703 11.169L4.65553 11.0661C4.69865 11.0096 4.77576 10.9203 4.8268 10.8676C4.87784 10.815 4.96391 10.7357 5.01818 10.6915C5.07237 10.6473 5.15087 10.5877 5.19255 10.559C5.23427 10.5303 5.31619 10.48 5.37458 10.4473C5.43296 10.4146 5.51492 10.3718 5.5566 10.3522C5.59832 10.3325 5.68365 10.2966 5.74619 10.2724C5.80873 10.2483 5.92817 10.2077 6.01157 10.1824C6.09497 10.1571 6.25159 10.1188 6.35957 10.0975C6.46755 10.0762 6.63812 10.0477 6.73875 10.0342L6.92161 10.0096L19.4608 10.0049L32 10V10.0302C32 10.0468 31.9799 10.1543 31.9553 10.2691C31.9243 10.4145 31.8939 10.5599 31.864 10.7055C31.8383 10.8306 31.801 11.0115 31.7809 11.1074C31.7525 11.2439 31.7243 11.3804 31.6963 11.5169C31.6699 11.6462 31.6293 11.8442 31.6061 11.9567C31.5829 12.0694 31.5452 12.2537 31.5225 12.3662C31.4998 12.4789 31.4619 12.6631 31.4384 12.7757C31.411 12.9071 31.384 13.0386 31.3573 13.1701C31.3363 13.2744 31.2981 13.462 31.2726 13.5872C31.2471 13.7123 31.2061 13.9102 31.1815 14.027C31.157 14.1438 31.1195 14.3247 31.0984 14.4289C31.0772 14.5332 31.0391 14.7209 31.0136 14.8459C30.9882 14.9711 30.9473 15.1691 30.9227 15.2859C30.8981 15.4026 30.8615 15.5801 30.8413 15.6802C30.7852 15.9583 30.7287 16.2364 30.6719 16.5144C30.6513 16.6144 30.6147 16.7919 30.5905 16.9087C30.5595 17.0577 30.5288 17.2069 30.4983 17.3561C30.4719 17.4854 30.434 17.6696 30.4142 17.7656C30.3944 17.8615 30.3573 18.0423 30.3318 18.1675C30.3019 18.3142 30.2718 18.4607 30.2416 18.6073C30.2175 18.7241 30.1797 18.9084 30.1575 19.0169C30.1355 19.1253 30.0971 19.313 30.0723 19.4339C30.0474 19.5549 30.0068 19.7528 29.9821 19.8737C29.9573 19.9947 29.9202 20.1756 29.8996 20.2757C29.8716 20.4121 29.8437 20.5486 29.816 20.6851C29.7861 20.8314 29.7555 20.9774 29.7241 21.1233L29.6784 21.334L29.624 21.4797C29.5941 21.5599 29.5491 21.6664 29.524 21.7165C29.499 21.7665 29.448 21.8548 29.4106 21.9127C29.3733 21.9706 29.3212 22.0447 29.295 22.0775C29.2687 22.1102 29.1897 22.1948 29.1193 22.2655L28.9914 22.3939L28.8684 22.4813C28.8007 22.5295 28.7277 22.5784 28.7063 22.5901C28.6849 22.6018 28.6033 22.6435 28.525 22.6826C28.4468 22.7217 28.3362 22.7716 28.2794 22.7934C28.2225 22.8152 28.1099 22.8523 28.0291 22.8757C27.9483 22.8993 27.8617 22.9225 27.8368 22.9273C27.8117 22.9321 27.7248 22.95 27.6437 22.9673C27.5626 22.9845 27.3988 23.0101 27.2798 23.0243L27.0633 23.0501L14.5319 23.0544H14.5313ZM10.073 19.813H10.3991L10.4083 19.789C10.4134 19.7758 10.4175 19.7448 10.4175 19.7201C10.4175 19.6954 10.4283 19.6056 10.4414 19.5204C10.4545 19.4353 10.4853 19.2394 10.5099 19.0851C10.5344 18.9307 10.5712 18.6987 10.5916 18.5694C10.6109 18.4469 10.6294 18.3243 10.6469 18.2016C10.6569 18.1286 10.6691 18.0689 10.674 18.0689C10.6789 18.0689 10.7 18.1011 10.7209 18.1406L10.7588 18.2123L10.8428 18.297L10.9269 18.3817L11.0304 18.4232L11.1339 18.4646L11.2573 18.4806L11.3806 18.4965L11.5372 18.487L11.6937 18.4773L11.8632 18.4335L12.0328 18.3895L12.1238 18.3481C12.1738 18.3252 12.2625 18.2754 12.3209 18.2374L12.4271 18.1682L12.5261 18.0692C12.5805 18.0149 12.6573 17.9276 12.6967 17.8753C12.7361 17.8231 12.7684 17.7766 12.7684 17.7719C12.7684 17.7673 12.7878 17.7349 12.8114 17.7C12.8351 17.6652 12.8834 17.5683 12.919 17.4849C12.9545 17.4015 13.01 17.2514 13.0423 17.1513L13.1011 16.9693L13.1315 16.8116C13.1482 16.725 13.1697 16.5816 13.1793 16.4931L13.1967 16.3323L13.1866 16.1958L13.1766 16.0593L13.1449 15.9228L13.1133 15.7863L13.062 15.6841L13.0108 15.5819L12.9118 15.477L12.8129 15.3721L12.6958 15.3116L12.5787 15.2511L12.4498 15.2202L12.3209 15.1894L12.192 15.1799L12.0631 15.1704L11.9195 15.1869L11.7758 15.2034L11.6587 15.2334L11.5414 15.2633L11.4396 15.3105C11.3836 15.3363 11.3021 15.3804 11.2585 15.4082C11.2149 15.4362 11.1699 15.4682 11.1585 15.4795C11.1472 15.4909 11.12 15.5119 11.0981 15.5262L11.0583 15.5523L11.0861 15.419C11.1014 15.3457 11.1142 15.2773 11.1145 15.2668L11.1152 15.2479H10.559L10.5103 15.555C10.4835 15.7239 10.4411 15.985 10.4162 16.1352C10.3612 16.4664 10.3056 16.7975 10.2493 17.1286C10.2245 17.2745 10.1835 17.5066 10.1582 17.6442C10.1329 17.7819 10.0958 17.9832 10.0758 18.0917C10.0558 18.2001 10.0181 18.4048 9.99214 18.5466C9.96148 18.7135 9.93051 18.8803 9.89924 19.0471C9.86964 19.2039 9.83937 19.3606 9.80854 19.5173C9.7837 19.6423 9.75973 19.7602 9.75514 19.7788L9.74687 19.813H10.073V19.813V19.813ZM11.4769 18.0595L11.3503 18.0671L11.2675 18.0524L11.1847 18.0378L11.1007 17.9995L11.0166 17.9611L10.9579 17.905L10.8992 17.849L10.8653 17.7732C10.8466 17.7314 10.8227 17.6606 10.812 17.6156L10.7927 17.5341L10.8004 17.4033L10.8082 17.2727L10.8473 17.0679C10.8768 16.9114 10.9054 16.7546 10.933 16.5977C10.9587 16.4518 10.9976 16.2378 11.0194 16.1224L11.0591 15.9125L11.146 15.8401C11.1939 15.8004 11.2696 15.747 11.3144 15.7216L11.3958 15.6755L11.5019 15.6426L11.6081 15.6097L11.7446 15.6017L11.8811 15.5937L11.9923 15.6174L12.1034 15.641L12.1818 15.6772L12.2603 15.7133L12.326 15.7794L12.3919 15.8455L12.4273 15.9156C12.4468 15.9541 12.4743 16.0295 12.4882 16.0831L12.5136 16.1806L12.5058 16.4688L12.4981 16.757L12.4591 16.9274C12.4377 17.0211 12.3969 17.1644 12.3685 17.2458L12.3169 17.394L12.2535 17.5139C12.2187 17.5799 12.1651 17.6691 12.1343 17.712C12.1035 17.755 12.0544 17.8108 12.0251 17.8358C11.9898 17.8659 11.9536 17.8949 11.9165 17.9229L11.8609 17.9644L11.7322 18.0081L11.6035 18.0519L11.4769 18.0595V18.0595ZM14.6263 18.4765L14.7931 18.4784L14.9599 18.4632C15.0517 18.4548 15.2018 18.4374 15.2935 18.4244C15.3854 18.4115 15.5439 18.3825 15.6459 18.3601L15.8313 18.3193L15.8405 18.2509C15.8456 18.2134 15.8664 18.1015 15.8868 18.0023L15.9238 17.8219L15.9156 17.8137L15.9074 17.8056L15.8508 17.8329C15.8196 17.8479 15.7224 17.8839 15.635 17.9127L15.4759 17.9651L15.3089 17.9975L15.1419 18.0298L14.8765 18.0304L14.6111 18.0308L14.5201 18.0018C14.4701 17.9858 14.3964 17.9566 14.3565 17.9368L14.284 17.9009L14.2241 17.8468L14.1642 17.7927L14.1174 17.711L14.0707 17.6293L14.0414 17.5268L14.0121 17.4243L14.0119 17.2347L14.0117 17.0451L14.0376 16.8759L14.0638 16.7067L14.292 16.6961L14.5202 16.6854L15.3639 16.6909L16.2075 16.6962L16.233 16.5882C16.247 16.5288 16.2684 16.4059 16.2806 16.3152L16.3027 16.1502L16.3032 16.0115L16.3037 15.8728L16.2797 15.7692L16.2556 15.6656L16.2159 15.597C16.1941 15.5593 16.1555 15.5047 16.1304 15.4756C16.1052 15.4465 16.0602 15.4054 16.0304 15.3844C16.0006 15.3634 15.9421 15.328 15.9004 15.3058L15.8246 15.2655L15.6921 15.2336L15.5596 15.2017L15.3964 15.1861L15.2331 15.1705L15.0815 15.1804L14.9298 15.1902L14.7478 15.2252L14.5658 15.2602L14.452 15.3056C14.3894 15.3306 14.2939 15.3763 14.2397 15.407C14.1855 15.4378 14.1104 15.4878 14.0729 15.5181C14.0353 15.5486 13.9703 15.6078 13.9284 15.6496C13.8865 15.6915 13.8245 15.7666 13.7908 15.8167C13.7569 15.8668 13.705 15.9555 13.6754 16.0138C13.6458 16.0723 13.6073 16.1542 13.5898 16.1959C13.5723 16.2375 13.5404 16.3229 13.519 16.3854C13.4976 16.448 13.4639 16.5674 13.4443 16.6509C13.4211 16.752 13.4011 16.8537 13.3842 16.956L13.36 17.1095L13.3603 17.3352L13.3605 17.5609L13.3835 17.6594C13.3962 17.7137 13.4205 17.7956 13.4374 17.8415C13.4543 17.8873 13.4857 17.9556 13.5071 17.9931C13.5284 18.0307 13.5741 18.0911 13.6084 18.1275C13.6428 18.1638 13.7051 18.2189 13.7468 18.25C13.7884 18.281 13.8627 18.3247 13.9117 18.347L14.0009 18.3876L14.1252 18.4177C14.1936 18.4342 14.2968 18.4538 14.3546 18.4612C14.4122 18.4685 14.5345 18.4755 14.6263 18.4765V18.4765ZM14.9119 16.3399C14.4921 16.3399 14.1485 16.3369 14.1485 16.3332C14.1485 16.3296 14.1664 16.2766 14.1884 16.2156C14.2102 16.1547 14.2487 16.064 14.2738 16.0141L14.3195 15.9232L14.4198 15.8235L14.5201 15.7236L14.6187 15.6765C14.6729 15.6506 14.7446 15.6224 14.7779 15.6138C14.8114 15.6052 14.9068 15.5938 14.9902 15.5885L15.1419 15.5788L15.2585 15.5938L15.3749 15.6087L15.4596 15.6475L15.5442 15.6863L15.5907 15.7363C15.6162 15.7639 15.6466 15.8044 15.6583 15.8264L15.6794 15.8665L15.6934 15.9554L15.7074 16.0442L15.6914 16.1921L15.6754 16.34H14.9119V16.3399V16.3399ZM19.4494 18.4765L19.6163 18.4784L19.8058 18.4559C19.91 18.4436 20.0487 18.4231 20.1141 18.4104C20.1931 18.3945 20.2715 18.3759 20.3492 18.3546C20.4131 18.3365 20.471 18.317 20.4777 18.3112C20.4845 18.3054 20.5025 18.2366 20.5179 18.1582C20.5332 18.0799 20.5525 17.9749 20.5608 17.9248C20.569 17.8748 20.5733 17.8311 20.5703 17.8279C20.5672 17.8246 20.5561 17.8288 20.5454 17.8372C20.5348 17.8457 20.4604 17.877 20.3801 17.9069L20.234 17.9611L20.026 18.0014L19.818 18.0416L19.6413 18.0357L19.4644 18.0296L19.364 17.9947L19.2635 17.9599L19.1859 17.892L19.1084 17.8241L19.0569 17.7303L19.0054 17.6366L18.9808 17.5111L18.9563 17.3857L18.9565 17.223L18.9566 17.0602L18.9864 16.8631L19.0162 16.6658L19.0478 16.5596C19.0651 16.5013 19.0848 16.433 19.0914 16.408C19.098 16.383 19.1258 16.3113 19.1532 16.2487C19.1805 16.1862 19.2293 16.0895 19.2616 16.0339L19.3203 15.9328L19.3924 15.858L19.4645 15.7833L19.5408 15.7359L19.6172 15.6886L19.7153 15.6584C19.7692 15.6418 19.8645 15.6202 19.9271 15.6105L20.0409 15.5928L20.2076 15.6011L20.3745 15.6095L20.5716 15.6489L20.7688 15.6883L20.849 15.7183C20.8931 15.7347 20.9311 15.7482 20.9335 15.7482C20.9358 15.7482 20.9464 15.6919 20.957 15.6231C20.9676 15.5543 20.9864 15.441 20.9988 15.3715C21.0112 15.3019 21.0184 15.242 21.0147 15.2383C21.0111 15.2347 20.9518 15.2253 20.8831 15.2174C20.8143 15.2096 20.6273 15.1957 20.4677 15.1865L20.1773 15.1698L19.9725 15.1855L19.7678 15.2012L19.6161 15.233L19.4644 15.2649L19.3667 15.304C19.313 15.3255 19.2343 15.3642 19.1919 15.3902C19.1512 15.4149 19.1111 15.4407 19.0718 15.4676C19.0482 15.4843 18.9767 15.5494 18.9127 15.6123L18.7966 15.7266L18.7317 15.8216C18.6961 15.8738 18.6344 15.9828 18.5946 16.0637L18.5224 16.2108L18.467 16.37C18.4365 16.4576 18.394 16.6009 18.3725 16.6885L18.3334 16.8478L18.3192 16.9919L18.305 17.136L18.3051 17.3256L18.3053 17.5151L18.3196 17.6254L18.3339 17.7357L18.3793 17.8492L18.4247 17.9626L18.4773 18.0446L18.5296 18.1266L18.613 18.2088L18.6965 18.2908L18.7848 18.3376L18.8731 18.3841L18.989 18.4164C19.0527 18.434 19.1449 18.4544 19.1938 18.4615C19.2427 18.4686 19.3577 18.4753 19.4495 18.4763H19.4494V18.4765ZM21.9442 18.4709L22.1489 18.465L22.2778 18.4321L22.4068 18.399L22.4902 18.3596C22.5361 18.338 22.6111 18.2951 22.657 18.2645C22.7029 18.2339 22.774 18.1756 22.8148 18.1351C22.8557 18.0945 22.9164 18.0253 22.9496 17.9812C22.9829 17.9372 23.0121 17.9032 23.0145 17.9057C23.017 17.9081 23.0093 17.9782 22.9975 18.0615C22.9857 18.1448 22.9759 18.2556 22.9757 18.3077L22.9755 18.4025H23.5322L23.5406 18.1864L23.5491 17.9703L23.5888 17.6897C23.6107 17.5353 23.646 17.3067 23.6673 17.1816C23.6885 17.0565 23.7255 16.845 23.7495 16.7115C23.7734 16.5779 23.8113 16.3698 23.8337 16.2488L23.8744 16.029L23.8758 15.839L23.8771 15.649L23.8342 15.5612L23.7913 15.4734L23.7331 15.4175L23.6748 15.3616L23.5792 15.3132L23.4835 15.2647L23.341 15.233L23.1985 15.2012L23.0023 15.1864L22.806 15.1714L22.5533 15.1871C22.4142 15.1956 22.2187 15.2126 22.1186 15.2248L21.9365 15.2469L21.8125 15.2473L21.6885 15.2478L21.6704 15.3351C21.6605 15.383 21.6329 15.4969 21.6091 15.5883C21.5853 15.6796 21.5681 15.7565 21.5708 15.7592C21.5735 15.7619 21.6398 15.7468 21.7182 15.7258C21.7965 15.7046 21.9631 15.67 22.0883 15.6486L22.3157 15.6099L22.5205 15.6015L22.7253 15.593L22.8572 15.6162L22.9891 15.6393L23.0771 15.6827L23.1651 15.7262L23.2144 15.7996L23.2638 15.8731L23.2631 15.9889L23.2623 16.1047L23.2362 16.2318L23.21 16.3589L22.6642 16.3609L22.1185 16.3628L21.94 16.4118C21.8417 16.4387 21.733 16.4745 21.6982 16.4912C21.6635 16.508 21.6288 16.5218 21.621 16.5218C21.6133 16.5218 21.5549 16.5541 21.4912 16.5938L21.3754 16.6657L21.2842 16.7568C21.234 16.8069 21.1699 16.8819 21.1417 16.9237C21.1135 16.9653 21.0678 17.0525 21.0401 17.1173L20.9896 17.235L20.9665 17.3675L20.9433 17.4999V17.7778L20.9654 17.8936L20.9875 18.0093L21.0286 18.0847C21.0512 18.1262 21.0927 18.187 21.1207 18.2198L21.1718 18.2795L21.2624 18.3346L21.3531 18.3897L21.457 18.419C21.5141 18.4352 21.601 18.4548 21.6502 18.4626L21.7395 18.4766L21.9442 18.4708H21.9442V18.4709ZM22.1338 18.0468L22.0125 18.0531L21.9321 18.0326C21.8879 18.0214 21.8208 17.9963 21.7831 17.9769L21.7145 17.9416L21.6769 17.897C21.6563 17.8724 21.6249 17.8244 21.607 17.79L21.5745 17.7276L21.5681 17.5818L21.5617 17.436L21.5874 17.3476C21.6015 17.299 21.6347 17.2145 21.6612 17.16L21.7092 17.0608L21.8012 16.9696L21.8932 16.8783L21.9908 16.8312L22.0883 16.7843L22.2097 16.7554L22.331 16.7266H23.0893L23.1134 16.7366L23.1373 16.7464L23.1172 16.8655C23.1061 16.931 23.0796 17.0493 23.0582 17.1286C23.037 17.2079 22.9995 17.3244 22.9749 17.3875C22.9503 17.4506 22.9301 17.5065 22.9301 17.5115C22.9301 17.5166 22.9052 17.5626 22.8747 17.6137L22.8193 17.7068L22.7284 17.7969C22.6784 17.8464 22.6319 17.887 22.6252 17.887C22.6185 17.887 22.5878 17.9041 22.557 17.9249L22.5012 17.9628L22.3782 18.0018L22.2552 18.0406L22.1338 18.0468V18.0468ZM27.0706 18.4763L27.2146 18.4782L27.3512 18.456C27.4263 18.4438 27.5218 18.4242 27.5635 18.4124C27.6052 18.4005 27.6803 18.37 27.7303 18.3443L27.8213 18.2977L27.8996 18.2288L27.9778 18.1599L28.0603 18.05C28.1057 17.9895 28.1467 17.9298 28.1516 17.9172L28.1604 17.8944L28.1527 17.9703C28.1473 18.021 28.1403 18.0716 28.1317 18.122C28.1244 18.1637 28.1139 18.2439 28.1084 18.3002L28.0984 18.4025H28.6934V18.1978L28.7387 17.811C28.7636 17.5983 28.8005 17.3151 28.8207 17.1816C28.8408 17.048 28.8719 16.857 28.8898 16.7569C28.9075 16.6568 28.9392 16.4759 28.9599 16.355C28.9807 16.2341 29.0182 16.0225 29.0434 15.8849C29.0684 15.7472 29.1086 15.5288 29.1326 15.3995C29.1566 15.2702 29.1939 15.0688 29.2155 14.9521C29.2371 14.8354 29.2757 14.6305 29.3014 14.4971C29.3283 14.3579 29.3561 14.2188 29.3847 14.08C29.405 13.9842 29.4214 13.9005 29.4214 13.8942V13.8828H28.7722L28.7626 13.9776C28.7574 14.0298 28.7325 14.2021 28.7074 14.3606C28.6776 14.5478 28.6473 14.7348 28.6165 14.9217C28.5985 15.0296 28.5807 15.1374 28.5631 15.2453L28.555 15.2958L28.5294 15.285C28.5153 15.279 28.4389 15.2578 28.3597 15.2379L28.2156 15.2017L28.0185 15.1863L27.8212 15.171L27.6544 15.1865L27.4876 15.202L27.3359 15.2404L27.1843 15.2787L27.0402 15.349L26.8961 15.4193L26.7899 15.4978L26.6837 15.5764L26.592 15.6748C26.5416 15.7288 26.4688 15.8183 26.4301 15.8734L26.36 15.9739L26.2775 16.1454C26.2322 16.2398 26.177 16.3648 26.1549 16.4232C26.1328 16.4816 26.0938 16.611 26.0683 16.7108L26.0218 16.8923L25.999 17.1279L25.9761 17.3635L25.9933 17.5531L26.0106 17.7427L26.0308 17.8109C26.0421 17.8485 26.0655 17.9154 26.0831 17.9595L26.1151 18.04L26.1735 18.119L26.232 18.198L26.2986 18.2526L26.3652 18.3072L26.4562 18.3525C26.5063 18.3772 26.5902 18.4094 26.6428 18.4238C26.6953 18.4382 26.7806 18.4555 26.8324 18.4622C26.8842 18.469 26.9913 18.4754 27.0706 18.4763V18.4763ZM27.3292 18.0461L27.2146 18.0521L27.1374 18.0382C27.0949 18.0306 27.0269 18.01 26.9862 17.9926L26.9123 17.961L26.8501 17.91L26.788 17.8591L26.7418 17.7706L26.6956 17.6822L26.6745 17.5836L26.6535 17.485L26.6553 17.2878L26.6571 17.0907L26.6815 16.9162L26.706 16.7418L26.744 16.6206C26.7649 16.5538 26.7821 16.4908 26.7822 16.4806C26.7824 16.4704 26.803 16.4158 26.8281 16.3593C26.8575 16.294 26.8885 16.2293 26.9213 16.1656C26.9475 16.1155 26.9964 16.0375 27.0299 15.9921C27.0635 15.9469 27.1234 15.8786 27.1629 15.8404C27.2024 15.8024 27.2653 15.7523 27.3027 15.7294L27.3705 15.6876L27.4898 15.6464L27.6091 15.6051L27.8593 15.605H28.1096L28.2536 15.645C28.3329 15.6669 28.4171 15.6924 28.4406 15.7016L28.4835 15.7183L28.4752 15.7599C28.4706 15.7828 28.4525 15.8835 28.4351 15.9835C28.4177 16.0836 28.3834 16.2748 28.3588 16.4082C28.3343 16.5417 28.2966 16.7431 28.275 16.8556C28.2535 16.9682 28.2223 17.1116 28.2057 17.1741C28.1886 17.2384 28.1713 17.3026 28.1537 17.3666C28.1417 17.41 28.113 17.4851 28.0901 17.5335C28.0671 17.5819 28.027 17.6522 28.0008 17.6897C27.9746 17.7272 27.9305 17.7793 27.9026 17.8053C27.8746 17.8314 27.8142 17.8776 27.7684 17.908L27.685 17.9635L27.5644 18.0018L27.4438 18.0401L27.3292 18.0461V18.0461ZM5.00782 18.4025H5.37628L5.40274 18.2395C5.41726 18.1498 5.44569 17.9774 5.46585 17.8565L5.54925 17.356C5.57497 17.2017 5.61354 16.973 5.63493 16.8479C5.65631 16.7228 5.69034 16.5287 5.71046 16.4167C5.73062 16.3045 5.75096 16.2089 5.75559 16.2043L5.76412 16.1958H7.74587L7.7569 16.2068L7.76792 16.2179L7.75069 16.3054C7.74128 16.3536 7.71334 16.5021 7.68863 16.6357C7.66392 16.7691 7.62237 16.9943 7.59626 17.1362C7.56884 17.2854 7.54093 17.4345 7.51255 17.5836C7.49252 17.6878 7.45202 17.9062 7.42254 18.0689C7.39311 18.2315 7.36906 18.3732 7.36914 18.3836L7.36932 18.4025H8.10935L8.12571 18.3078C8.13476 18.2557 8.1492 18.1618 8.15794 18.0992C8.1666 18.0367 8.18764 17.9035 8.20456 17.8035C8.22149 17.7034 8.2553 17.5054 8.27975 17.3636C8.30415 17.2218 8.34509 16.9795 8.37063 16.8252C8.39617 16.6708 8.43404 16.4456 8.45486 16.3247C8.48119 16.1729 8.50861 16.0212 8.53708 15.8697C8.56153 15.7404 8.60229 15.522 8.62766 15.3843C8.65302 15.2467 8.69094 15.0386 8.71202 14.9217C8.7331 14.805 8.7715 14.5934 8.79739 14.4516C8.82328 14.3098 8.85595 14.1444 8.86999 14.0838L8.89553 13.9738H8.14622L8.13603 14.0459C8.13048 14.0854 8.11237 14.1964 8.09584 14.2923C8.07926 14.3883 8.04926 14.5589 8.02906 14.6715C8.00885 14.7841 7.97194 14.9991 7.94701 15.1493C7.92256 15.2964 7.89903 15.4436 7.87642 15.591L7.85114 15.7597L7.30118 15.7708L6.75117 15.7819L6.29056 15.771C6.0372 15.765 5.8285 15.7589 5.82675 15.7574C5.82504 15.7559 5.83366 15.697 5.8459 15.6264C5.86204 15.5354 5.87923 15.4446 5.89747 15.354C5.92073 15.2379 5.94335 15.1216 5.96526 15.0051C5.98647 14.8925 6.01044 14.7527 6.01861 14.6942C6.02675 14.6359 6.04385 14.5386 6.05658 14.4781C6.0693 14.4177 6.09344 14.2903 6.11024 14.195C6.12699 14.0998 6.14488 14.011 6.14999 13.9979L6.15918 13.9738H5.4159L5.39216 14.1065C5.37904 14.1795 5.36159 14.2836 5.35336 14.3378C5.3451 14.392 5.31741 14.566 5.29183 14.7245C5.26624 14.883 5.22846 15.1185 5.20786 15.2478L5.12463 15.771C5.09537 15.9533 5.0645 16.1353 5.03209 16.317C5.0051 16.4662 4.97759 16.6154 4.94956 16.7644C4.92984 16.8687 4.89227 17.0666 4.86603 17.2043C4.83852 17.3485 4.81013 17.4926 4.78096 17.6366C4.76041 17.7366 4.73771 17.8527 4.73054 17.8944C4.72328 17.9361 4.69983 18.0564 4.67832 18.1617C4.65684 18.267 4.63926 18.3643 4.63926 18.3778V18.4024H5.00782V18.4025V18.4025ZM9.08731 18.4025H9.41353L9.42271 18.3785C9.42783 18.3653 9.43194 18.3307 9.43194 18.3016C9.43194 18.2725 9.45249 18.1212 9.47751 17.9654C9.53476 17.6104 9.59341 17.2556 9.6535 16.901C9.67926 16.7516 9.70633 16.6025 9.7348 16.4536C9.75894 16.3285 9.79603 16.1339 9.8172 16.0214C9.83832 15.9088 9.87996 15.6945 9.90965 15.5452C9.93935 15.396 9.96734 15.2679 9.97184 15.2606L9.98011 15.2473L9.65022 15.2513L9.32033 15.2554L9.29277 15.4526C9.27773 15.5611 9.24467 15.7761 9.21939 15.9303C9.19415 16.0846 9.15593 16.3202 9.13445 16.4536C9.10848 16.6131 9.08075 16.7724 9.05136 16.9314C9.02708 17.0607 8.98991 17.2586 8.9687 17.3712C8.94753 17.4839 8.90953 17.6818 8.88425 17.8111C8.85897 17.9404 8.82507 18.111 8.80889 18.1903C8.79267 18.2695 8.7753 18.3497 8.77023 18.3685L8.76109 18.4025H9.08731V18.4025V18.4025ZM16.7173 18.4025H17.041L17.0508 18.2655C17.0562 18.1902 17.0745 18.0383 17.0915 17.928C17.1086 17.8178 17.1435 17.5979 17.1691 17.4395C17.2015 17.2435 17.2367 17.0481 17.2749 16.8532C17.3075 16.6892 17.3443 16.5263 17.3567 16.4911C17.3691 16.4559 17.3793 16.4177 17.3793 16.4063C17.3793 16.3948 17.4036 16.3325 17.4334 16.2679C17.4631 16.2032 17.5185 16.1042 17.5566 16.0478L17.6257 15.9453L17.7182 15.8596L17.8108 15.774L17.9248 15.7195L18.0389 15.6649L18.2134 15.6658L18.3877 15.6668L18.4735 15.6923C18.5206 15.7064 18.5633 15.718 18.5683 15.718C18.5732 15.718 18.5773 15.7019 18.5773 15.6822C18.5773 15.6625 18.5944 15.5626 18.6152 15.4602C18.6361 15.3578 18.6532 15.2697 18.6532 15.2644C18.6532 15.2592 18.6037 15.2398 18.5432 15.2214C18.4827 15.203 18.3991 15.1838 18.3574 15.1786L18.2816 15.1692L18.183 15.1866C18.1288 15.1963 18.0482 15.2174 18.0039 15.2337C17.9595 15.25 17.8863 15.2869 17.8412 15.3158C17.7961 15.3447 17.7259 15.4009 17.6853 15.4407C17.6446 15.4806 17.5762 15.5611 17.5332 15.6194C17.4998 15.6648 17.4666 15.7103 17.4335 15.7559L17.4118 15.7862L17.425 15.7256C17.4323 15.6922 17.4525 15.583 17.4699 15.4829C17.4872 15.3828 17.5052 15.2889 17.5096 15.2744L17.5177 15.2478H16.9393V15.2844C16.9393 15.3045 16.9222 15.4256 16.9014 15.5535C16.8805 15.6816 16.8461 15.8954 16.825 16.0289C16.8038 16.1624 16.7661 16.3944 16.7414 16.5446C16.715 16.704 16.6872 16.8633 16.6578 17.0223C16.6008 17.3259 16.5424 17.6292 16.4827 17.9323C16.4571 18.0616 16.4266 18.2143 16.4148 18.2717C16.403 18.329 16.3933 18.3819 16.3933 18.3892V18.4025H16.7173V18.4025ZM24.4041 18.4025H24.7352V18.1998L24.7733 17.9485C24.7943 17.8104 24.8289 17.5914 24.8503 17.4622C24.8716 17.3329 24.8982 17.1691 24.9093 17.0982C24.9205 17.0273 24.9501 16.8738 24.9751 16.757C25.0001 16.6401 25.0313 16.5139 25.0445 16.4764C25.0577 16.4389 25.0685 16.3994 25.0686 16.3888C25.0688 16.3782 25.097 16.3101 25.1314 16.2374L25.1939 16.1052L25.2764 15.9956L25.3588 15.8861L25.449 15.8183C25.4986 15.781 25.5784 15.7315 25.6264 15.7083L25.7135 15.6661L25.903 15.6673L26.0926 15.6687L26.1673 15.6926L26.2419 15.7166L26.2545 15.7088L26.267 15.701L26.2678 15.6526C26.2681 15.626 26.2843 15.527 26.3038 15.4325L26.3393 15.2608L26.2994 15.2452C26.2612 15.2311 26.2226 15.218 26.1837 15.2058L26.1079 15.1819L25.9714 15.1823L25.8349 15.1826L25.7236 15.2218L25.6124 15.2609L25.5288 15.3113L25.4453 15.3617L25.3367 15.4754L25.2282 15.5892L25.1698 15.6774C25.1378 15.7259 25.1095 15.7635 25.107 15.7608C25.1046 15.7582 25.122 15.6571 25.1458 15.5361C25.1695 15.4151 25.1893 15.3008 25.1897 15.282L25.1903 15.2479H24.6292V15.2576C24.6292 15.2629 24.6152 15.3602 24.5981 15.4737C24.581 15.5873 24.5466 15.8064 24.5218 15.9607C24.492 16.1453 24.4617 16.3299 24.4312 16.5143C24.4046 16.6738 24.3766 16.8331 24.3474 16.9921C24.3264 17.1047 24.289 17.3027 24.2643 17.4319C24.2397 17.5613 24.1992 17.7694 24.1743 17.8946L24.1011 18.2623L24.0731 18.4025H24.4041V18.4025ZM9.7289 14.7015L9.82091 14.7019L9.89413 14.677L9.96738 14.652L10.0322 14.5863L10.097 14.5206L10.131 14.433L10.1652 14.3454L10.1664 14.2165L10.1676 14.0877L10.1373 14.0373L10.1069 13.987L10.0542 13.9544L10.0013 13.9217H9.77329L9.69566 13.9564L9.61803 13.9911L9.57298 14.0394L9.52794 14.0877L9.49251 14.1711L9.45713 14.2545L9.45044 14.3844L9.44379 14.5143L9.47668 14.579L9.50965 14.6435L9.57324 14.6724L9.63679 14.7012L9.7289 14.7015V14.7015Z" fill="#B3131B"/>
</g>
<defs>
<clipPath id="clip0">
<rect width="32" height="32" fill="white"/>
</clipPath>
</defs>
</svg>
