<svg width="32" height="32" viewBox="0 0 32 32" fill="none" xmlns="http://www.w3.org/2000/svg">
<path d="M28 21.7566C28 23.8181 26.3292 25.4897 24.267 25.4897H4V10.7336C4 8.67162 5.67088 7 7.7333 7H27.9999L27.9998 21.7566L28 21.7566Z" fill="white"/>
<path d="M21.3929 16.5691C21.9718 16.5817 22.554 16.5435 23.1305 16.5889C23.7144 16.6978 23.8551 17.5818 23.3364 17.8713C22.9825 18.062 22.562 17.9423 22.1783 17.9759H21.3929V16.5691V16.5691ZM23.4652 14.9767C23.5938 15.4307 23.1562 15.8383 22.719 15.7758H21.3929C21.4022 15.3477 21.3747 14.883 21.4064 14.4774C21.9376 14.4924 22.4738 14.4469 23.0019 14.5012C23.2289 14.5582 23.4188 14.7448 23.4652 14.9767V14.9767ZM26.6566 8.24466C26.6813 9.11161 26.6602 10.0244 26.6673 10.9089C26.6657 14.5051 26.6708 18.1012 26.6645 21.6976C26.6412 23.0453 25.4468 24.2164 24.1083 24.2433C22.7686 24.2488 21.4287 24.2442 20.0888 24.2456V18.809C21.5487 18.8014 23.0093 18.8243 24.4686 18.7976C25.1456 18.7551 25.8871 18.3084 25.9186 17.5634C25.9983 16.8152 25.2929 16.2977 24.6232 16.2159C24.3657 16.2093 24.3732 16.1409 24.6232 16.1111C25.2619 15.973 25.7636 15.3119 25.5756 14.6498C25.4155 13.9534 24.6458 13.6839 24.0055 13.6852C22.7001 13.6763 21.3945 13.684 20.0891 13.6814C20.0975 12.6664 20.0715 11.6504 20.1031 10.6362C20.2065 9.31273 21.431 8.22133 22.7506 8.24501C24.0528 8.24481 25.3548 8.24481 26.6566 8.24476V8.24466Z" fill="url(#paint0_linear)"/>
<path d="M5.33721 10.773C5.37055 9.42736 6.57009 8.26587 7.90679 8.2462C9.24157 8.24209 10.5765 8.24561 11.9113 8.24442C11.9076 12.7466 11.9185 17.2492 11.9058 21.7512C11.8544 23.0804 10.6679 24.2198 9.34579 24.2433C8.00849 24.2482 6.67104 24.244 5.3337 24.2453V18.6254C6.6327 18.9323 7.99492 19.0629 9.32013 18.8593C10.1123 18.7319 10.979 18.3429 11.2472 17.5211C11.4445 16.8181 11.3334 16.0782 11.3628 15.3567V13.6811H9.06937C9.05907 14.7893 9.09048 15.8995 9.05278 17.0063C8.99096 17.6867 8.31721 18.1189 7.67555 18.0958C6.87979 18.1043 5.30288 17.5191 5.30288 17.5191C5.29892 15.4428 5.32597 12.8426 5.33721 10.7732V10.773Z" fill="url(#paint1_linear)"/>
<path d="M12.7668 14.3573C12.6461 14.3829 12.7425 13.946 12.7117 13.7803C12.7199 12.7326 12.6945 11.6838 12.7257 10.6368C12.8288 9.3078 14.0628 8.21368 15.3877 8.24479H19.2896C19.286 12.747 19.2968 17.2496 19.2841 21.7515C19.2327 23.0808 18.0461 24.2201 16.7239 24.2437C15.3866 24.2487 14.0491 24.2445 12.7116 24.2458V18.0883C13.625 18.8378 14.8665 18.9544 16.0045 18.9565C16.8623 18.9562 17.7152 18.8239 18.5483 18.626V17.498C17.6094 17.9659 16.5058 18.2631 15.465 17.9943C14.739 17.8136 14.212 17.1119 14.2237 16.3627C14.1396 15.5835 14.5963 14.7609 15.362 14.5293C16.3127 14.2317 17.3488 14.4593 18.2399 14.8462C18.4308 14.9462 18.6246 15.0702 18.5483 14.7511V13.8644C17.0579 13.5098 15.4718 13.3793 13.9745 13.7651C13.5411 13.8873 13.1189 14.0728 12.7668 14.3573V14.3573Z" fill="url(#paint2_linear)"/>
<defs>
<linearGradient id="paint0_linear" x1="20.0439" y1="15.903" x2="26.6258" y2="15.903" gradientUnits="userSpaceOnUse">
<stop stop-color="#007B40"/>
<stop offset="1" stop-color="#55B330"/>
</linearGradient>
<linearGradient id="paint1_linear" x1="5.19375" y1="16.3981" x2="11.8035" y2="16.3981" gradientUnits="userSpaceOnUse">
<stop stop-color="#1D2970"/>
<stop offset="1" stop-color="#006DBA"/>
</linearGradient>
<linearGradient id="paint2_linear" x1="12.702" y1="16.0582" x2="19.2884" y2="16.0582" gradientUnits="userSpaceOnUse">
<stop stop-color="#6E2B2F"/>
<stop offset="1" stop-color="#E30138"/>
</linearGradient>
</defs>
</svg>
