<svg width="32" height="32" viewBox="0 0 32 32" fill="none" xmlns="http://www.w3.org/2000/svg">
<path d="M29.3074 12.5792L30.9999 15.9399L27.4419 19.3022L29.3074 12.5792Z" fill="#008C44"/>
<path d="M28.1354 12.5792L29.8254 15.9399L26.2698 19.3022L28.1354 12.5792Z" fill="#F47920"/>
<path d="M1 18.0797L2.6875 12H5.38538C6.22854 12 6.79177 12.1335 7.07833 12.4085C7.36282 12.6814 7.41763 13.1268 7.24613 13.7528C7.14242 14.1215 6.98477 14.4311 6.7682 14.6756C6.5534 14.9206 6.27008 15.1144 5.92121 15.2568C6.21719 15.328 6.40548 15.4693 6.4899 15.6811C6.57388 15.893 6.56415 16.202 6.4622 16.607L6.25697 17.4562L6.25638 17.4791C6.19716 17.7169 6.21469 17.8442 6.31119 17.8545L6.24902 18.0797H4.42391C4.4301 17.9366 4.44144 17.8087 4.45353 17.7013C4.46678 17.5914 4.48314 17.5063 4.49934 17.4478L4.66951 16.8406C4.75525 16.5249 4.76056 16.3046 4.681 16.1778C4.60071 16.0476 4.42097 15.9835 4.13721 15.9835H3.37022L2.78533 18.0797H1ZM3.74974 14.6135H4.57124C4.85912 14.6135 5.07157 14.5724 5.20254 14.4873C5.33411 14.4016 5.43179 14.2568 5.4891 14.0473C5.54847 13.8342 5.53388 13.6857 5.44873 13.6013C5.36372 13.5156 5.16026 13.4739 4.84041 13.4739H4.06605L3.74974 14.6135Z" fill="#1B3281"/>
<path d="M12.2552 13.5932L11.0112 18.0795H9.49947L9.68525 17.4223C9.41917 17.6836 9.14691 17.8821 8.87244 18.0089C8.60018 18.138 8.31289 18.2015 8.01042 18.2015C7.7604 18.2015 7.54575 18.1561 7.37293 18.0661C7.19805 17.9764 7.06781 17.8399 6.98015 17.66C6.90236 17.5025 6.86848 17.3081 6.88174 17.0757C6.89573 16.8471 6.97647 16.4614 7.12615 15.9213L7.77086 13.5932H9.42448L8.78109 15.9104C8.6871 16.2495 8.66471 16.4879 8.71052 16.6177C8.75826 16.7487 8.8857 16.8163 9.09255 16.8163C9.30087 16.8163 9.47604 16.7409 9.62072 16.5869C9.76746 16.4343 9.88075 16.2066 9.96591 15.9037L10.604 13.5932H12.2552Z" fill="#1B3281"/>
<path d="M13.341 12L11.6553 18.0797H13.4642L13.9797 16.2183H15.0649C15.7637 16.2183 16.3492 16.0378 16.8224 15.6786C17.2942 15.3147 17.6252 14.7939 17.8141 14.1143C17.9209 13.728 17.9498 13.399 17.901 13.1166C17.8491 12.8342 17.723 12.5987 17.5172 12.4085C17.3529 12.2631 17.1319 12.16 16.8501 12.0965C16.5677 12.0302 16.1717 12 15.66 12H13.341ZM14.9737 14.7335H14.3906L14.7371 13.4908H15.3191C15.7064 13.4908 15.9485 13.5366 16.0432 13.6272C16.1416 13.7183 16.1584 13.8812 16.0933 14.1143C16.0282 14.3443 15.9213 14.5061 15.7711 14.5971C15.6158 14.687 15.3507 14.7335 14.9737 14.7335Z" fill="#1B3281"/>
<path d="M19.7592 18.0796L19.776 17.6535C19.5093 17.8532 19.2392 18.004 18.9677 18.0983C18.6974 18.1944 18.4095 18.2431 18.1011 18.2431C17.6328 18.2431 17.3062 18.1159 17.1173 17.8695C16.9308 17.6227 16.9001 17.2684 17.0274 16.8164C17.1492 16.3703 17.366 16.0419 17.6786 15.832C17.9895 15.6195 18.5086 15.4675 19.237 15.3702C19.3 15.36 19.3775 15.3511 19.4696 15.3406C19.5126 15.3357 19.5588 15.3304 19.6082 15.3244C20.1466 15.2621 20.449 15.1186 20.5141 14.8845C20.548 14.7563 20.5273 14.6617 20.4478 14.6037C20.371 14.5434 20.2275 14.5138 20.0204 14.5138C19.8485 14.5138 19.7101 14.5495 19.5967 14.6236C19.4834 14.6984 19.3988 14.8077 19.3415 14.9616H17.7293C17.8748 14.4565 18.1723 14.0749 18.6188 13.8198C19.0638 13.5602 19.6504 13.4352 20.3771 13.4352C20.7187 13.4352 21.0247 13.4672 21.2952 13.5366C21.5662 13.603 21.7642 13.6978 21.8926 13.8124C22.0507 13.9554 22.1443 14.1185 22.1709 14.2989C22.2017 14.4788 22.168 14.7366 22.0737 15.074L21.3802 17.5752C21.358 17.6571 21.3537 17.7301 21.3658 17.7966C21.3802 17.8599 21.4079 17.9142 21.4568 17.9529L21.4196 18.0796H19.7592ZM20.1611 16.0764C19.9855 16.147 19.7573 16.2146 19.4736 16.2888C19.0283 16.4083 18.7777 16.5677 18.7235 16.765C18.6859 16.8919 18.7011 16.9895 18.7631 17.0638C18.8242 17.1344 18.9304 17.17 19.0801 17.17C19.3546 17.17 19.575 17.1006 19.7393 16.9636C19.904 16.8248 20.0272 16.6069 20.1133 16.3064C20.1231 16.2649 20.1321 16.231 20.1395 16.203C20.1436 16.1878 20.1472 16.1742 20.1502 16.1621L20.1611 16.0764Z" fill="#1B3281"/>
<path d="M21.7992 18.5198L21.4322 19.8476C21.585 19.8597 21.7345 19.8681 21.8747 19.8736C22.0158 19.8809 22.1463 19.8831 22.2598 19.8831C22.6539 19.8831 22.9471 19.8548 23.1396 19.7981C23.3317 19.7426 23.5097 19.6473 23.6691 19.5127C23.7921 19.4155 23.9188 19.2719 24.0523 19.0871C24.1876 18.9 24.4006 18.5572 24.6938 18.0582L27.277 13.5935H25.7205L24.2593 16.3156L24.2852 13.5935H22.6114L22.864 17.7015C22.8687 17.7931 22.8687 17.8722 22.864 17.9471C22.8566 18.0177 22.8458 18.0798 22.8283 18.1389C22.7932 18.273 22.7324 18.3726 22.643 18.4317C22.5549 18.4885 22.4305 18.5198 22.2724 18.5198H21.7992Z" fill="#1B3281"/>
</svg>
