<svg width="32" height="32" viewBox="0 0 32 32" fill="none" xmlns="http://www.w3.org/2000/svg">
<path d="M13.2626 11L11.757 20.3694H14.1635L15.6683 11H13.2626ZM20.5217 14.8166C19.6807 14.4013 19.1652 14.121 19.1652 13.6962C19.1754 13.31 19.6011 12.9144 20.5517 12.9144C21.3336 12.8947 21.9083 13.0785 22.3442 13.2613L22.5626 13.3588L22.8898 11.3984C22.4145 11.2147 21.6608 11.0122 20.7298 11.0122C18.3533 11.0122 16.6798 12.2479 16.6694 14.0151C16.6498 15.3192 17.8675 16.0428 18.7789 16.477C19.7098 16.9223 20.0267 17.211 20.0267 17.6067C20.0164 18.2142 19.2739 18.4944 18.5811 18.4944C17.6212 18.4944 17.1055 18.3501 16.3227 18.0116L16.0058 17.8672L15.6693 19.9045C16.2346 20.1558 17.2742 20.3769 18.3534 20.3882C20.879 20.3882 22.5224 19.1713 22.5431 17.2879C22.5513 16.2548 21.9092 15.4634 20.5217 14.8166ZM29.0595 11.029H27.1976C26.6238 11.029 26.1879 11.194 25.9394 11.7828L22.3647 20.3694H24.8903L25.5859 18.5104H28.4116L28.7725 20.3769H31.0001L29.0595 11.029ZM26.2864 16.6343C26.3351 16.639 27.2558 13.5996 27.2558 13.5996L27.9889 16.6343C27.9889 16.6343 26.7617 16.6343 26.2864 16.6343ZM9.74607 11L7.38824 17.3657L7.13139 16.1103C6.69542 14.6618 5.3286 13.0878 3.80322 12.306L5.9623 20.3601H8.5086L12.2924 11.001H9.74607V11Z" fill="#0E4595"/>
<path d="M6.33815 12.209C6.15441 11.4946 5.56842 11.0127 4.77257 11.0024H1.03846L1 11.1758C3.91287 11.8939 6.35779 14.1036 7.15097 16.182L6.33815 12.209Z" fill="#F2AE14"/>
</svg>
