<svg width="28" height="26" viewBox="0 0 28 26" fill="none" xmlns="http://www.w3.org/2000/svg">
<path d="M26.888 14.3694C26.9746 14.0761 27.056 13.7814 27.116 13.4827C27.12 13.4601 27.1213 13.4387 27.1266 13.4161C27.1533 13.2854 27.1653 13.1507 27.1866 13.0187C27.22 12.8094 27.26 12.6014 27.28 12.3907C27.3146 12.0441 27.3333 11.6907 27.3333 11.3334C27.3333 8.38808 26.1386 5.72141 24.2093 3.79075C22.2786 1.86141 19.612 0.666748 16.6666 0.666748V11.3334H6.68929L5.54529 8.66675H0.666626V11.3334H3.78796L6.22529 17.0214C4.53063 17.7214 3.33329 19.3894 3.33329 21.3334C3.33329 23.9067 5.42663 26.0001 7.99996 26.0001C10.3453 26.0001 12.272 24.2547 12.5986 22.0001H15.4013C15.728 24.2547 17.6546 26.0001 20 26.0001C22.5733 26.0001 24.6666 23.9067 24.6666 21.3334C24.6666 20.4934 24.4253 19.7161 24.036 19.0334C24.092 18.9787 24.1546 18.9307 24.2106 18.8747C24.6906 18.3934 25.128 17.8627 25.5133 17.2961C25.8973 16.7227 26.228 16.1147 26.4946 15.4841C26.516 15.4347 26.5293 15.3827 26.5493 15.3334H26.5506C26.5586 15.3147 26.5626 15.2961 26.5706 15.2774C26.688 14.9841 26.7946 14.6894 26.884 14.3867C26.8853 14.3814 26.8866 14.3761 26.888 14.3694ZM7.99996 23.3334C6.89729 23.3334 5.99996 22.4361 5.99996 21.3334C5.99996 20.2307 6.89729 19.3334 7.99996 19.3334C9.10263 19.3334 9.99996 20.2307 9.99996 21.3334C9.99996 22.4361 9.10263 23.3334 7.99996 23.3334ZM20 23.3334C18.8973 23.3334 18 22.4361 18 21.3334C18 20.2307 18.8973 19.3334 20 19.3334C21.1026 19.3334 22 20.2307 22 21.3334C22 22.4361 21.1026 23.3334 20 23.3334Z" fill="#393C47"/>
</svg>
