<svg width="28" height="26" viewBox="0 0 28 26" fill="none" xmlns="http://www.w3.org/2000/svg">
<path d="M24.6667 6.00008H20.6667V3.33341C20.6667 1.86275 19.4707 0.666748 18.0001 0.666748H10.0001C8.52941 0.666748 7.33342 1.86275 7.33342 3.33341V6.00008H3.33341C1.86275 6.00008 0.666748 7.19608 0.666748 8.66675V14.0001H7.33342V11.3334H10.0001V14.0001H18.0001V11.3334H20.6667V14.0001H27.3334V8.66675C27.3334 7.19608 26.1374 6.00008 24.6667 6.00008ZM10.0001 3.33341H18.0001V6.00008H10.0001V3.33341ZM20.6667 18.0001H18.0001V15.3334H10.0001V18.0001H7.33342V15.3334H0.666748V23.3334C0.666748 24.8041 1.86275 26.0001 3.33341 26.0001H24.6667C26.1374 26.0001 27.3334 24.8041 27.3334 23.3334V15.3334H20.6667V18.0001Z" fill="#393C47"/>
</svg>
