<svg width="153" height="180" viewBox="0 0 153 180" fill="none" xmlns="http://www.w3.org/2000/svg">
<path d="M69.0593 122.309L1.63775 64.7129C-0.225656 63.1883 -0.564458 60.3085 0.960149 58.4451C2.48476 56.5817 5.02577 56.0735 7.05858 57.4287L21.7964 67.7622L4.85637 52.1773C3.50116 50.8221 3.33176 48.6199 4.51757 47.0953C5.70337 45.5707 8.07498 45.2319 9.59959 46.2483L28.0643 59.8003L11.463 44.2154C9.59959 42.5214 9.59959 39.6416 11.2936 37.7782C12.8182 36.0842 15.3592 35.9148 17.2226 37.1006L38.3977 52.3467L25.3539 39.3028C23.3211 37.27 23.4905 33.882 25.6927 32.0186C27.5561 30.3246 30.2665 30.3246 32.1299 31.8492L98.7044 87.9208L69.0593 122.309Z" fill="#FCCA57"/>
<path d="M38.3978 52.3457L48.5618 59.9687" stroke="white" stroke-width="2.3689" stroke-miterlimit="10" stroke-linecap="round" stroke-linejoin="round"/>
<path d="M28.0646 59.8008L39.9227 69.1178" stroke="white" stroke-width="2.3689" stroke-miterlimit="10" stroke-linecap="round" stroke-linejoin="round"/>
<path d="M21.7964 67.9312L32.8075 76.0624" stroke="white" stroke-width="2.3689" stroke-miterlimit="10" stroke-linecap="round" stroke-linejoin="round"/>
<path d="M57.7098 78.603L39.9227 82.1604" stroke="white" stroke-width="2.3689" stroke-miterlimit="10" stroke-linecap="round" stroke-linejoin="round"/>
<path d="M48.7312 110.788L8.58321 103.673C3.83999 102.826 0.62137 98.2526 1.46837 93.5094L16.7144 7.28438C17.5614 2.54116 22.1353 -0.677458 26.8785 0.169546L67.0265 7.28438C71.7697 8.13138 74.9883 12.7052 74.1413 17.4484L58.8952 103.673C58.0482 108.417 53.4744 111.635 48.7312 110.788Z" fill="#2A2B3C"/>
<path d="M50.5946 101.301L9.9384 94.1858C7.22798 93.6776 5.36458 91.1366 5.87278 88.4262L20.1024 8.13023C20.6106 5.41982 23.1517 3.55641 25.8621 4.06461L66.5183 11.1794C69.2287 11.6876 71.0921 14.2287 70.5839 16.9391L56.3542 97.235C55.846 99.9455 53.305 101.809 50.5946 101.301Z" fill="white"/>
<path d="M52.4581 12.0268L38.7366 9.65519C37.7202 9.48579 36.8732 8.46939 37.0426 7.28358L37.5508 4.74257C37.7202 3.72617 38.7366 2.87916 39.9224 3.21796L53.6439 5.58958C54.6603 5.75898 55.5073 6.77538 55.1685 7.96119L54.6603 10.5022C54.6603 11.5186 53.6439 12.1962 52.4581 12.0268Z" fill="#2A2B3C"/>
<path d="M34.5014 16.2626C34.332 17.279 33.485 17.7872 32.638 17.7872C31.6216 17.7872 30.944 16.9402 30.7746 15.9238C30.7746 14.9074 31.6216 14.0604 32.638 14.0604C32.9768 14.0604 33.3156 14.0604 33.485 14.2298C33.485 14.2298 33.485 14.2298 33.6544 14.2298C33.8238 13.891 33.9932 13.7216 33.9932 13.5522C34.1626 13.3828 34.1626 13.3828 34.332 13.3828C34.6708 13.3828 34.8402 13.5522 34.8402 13.891C34.8402 14.0604 34.8402 14.2298 34.8402 14.3992L34.5014 16.2626Z" fill="#48DB84"/>
<path d="M23.9983 16.2615C23.9983 16.4309 23.8289 16.6003 23.8289 16.7697C23.8289 16.9391 23.6595 17.1085 23.4901 17.1085C23.1513 17.2779 22.9819 17.1085 22.8125 16.7697C22.8125 16.0921 22.6431 15.4145 22.6431 14.7369C22.4737 13.7205 23.4901 12.7041 24.5065 12.7041C25.5229 12.7041 26.2005 13.3817 26.3699 14.3981C26.3699 15.4145 25.5229 16.4309 24.5065 16.2615C24.3371 16.2615 24.3371 16.2615 24.1677 16.2615C24.1677 16.2615 24.1677 16.2615 23.9983 16.2615Z" fill="#48DB84"/>
<path d="M30.4357 15.5841C30.2663 16.6005 29.4193 17.2781 28.2335 17.1087C27.2171 16.9393 26.5395 15.9229 26.7089 14.9065C26.8783 13.8901 27.8947 13.2125 28.9111 13.3819C29.9275 13.5513 30.6051 14.5677 30.4357 15.5841Z" fill="#48DB84"/>
<path d="M34.8401 16.4314C34.8401 16.0926 35.0095 15.9232 35.0095 15.5844C35.0095 15.2456 35.1789 15.0762 35.5177 15.0762C35.8565 15.0762 36.0259 15.0762 36.1953 15.415C36.3647 15.5844 36.3647 15.7538 36.3647 15.9232C36.3647 16.262 36.1953 16.6008 36.1953 16.9396C36.1953 17.2784 36.0259 17.4478 36.0259 17.7866C36.0259 18.1254 35.6871 18.2948 35.5177 18.2948C35.1789 18.2948 35.0095 18.2948 34.8401 17.956C34.6707 17.7866 34.6707 17.6172 34.6707 17.4478C34.6707 17.109 34.8401 16.7702 34.8401 16.4314Z" fill="#48DB84"/>
<path d="M36.0257 13.3828C36.3645 13.3828 36.7033 13.891 36.5339 14.2298C36.5339 14.5686 36.0257 14.9074 35.6869 14.738C35.3481 14.738 35.0093 14.2298 35.1787 13.891C35.3481 13.5522 35.6869 13.3828 36.0257 13.3828Z" fill="#48DB84"/>
<path d="M22.9821 17.6175C22.9821 17.4481 23.1515 17.2787 23.3209 17.4481C23.4903 17.4481 23.6597 17.6175 23.6597 17.7869C23.6597 17.9563 23.4903 18.1257 23.3209 18.1257C22.9821 17.9563 22.9821 17.7869 22.9821 17.6175Z" fill="#48DB84"/>
<path d="M25.0148 28.12L20.9492 27.4424C20.6104 27.4424 20.441 27.1036 20.6104 26.7648L21.288 22.6992C21.288 22.3604 21.6268 22.191 21.9656 22.3604L26.0312 23.038C26.37 23.038 26.5394 23.3768 26.37 23.7156L25.523 27.6118C25.523 27.9506 25.3536 28.12 25.0148 28.12Z" fill="#FCCA57"/>
<path d="M52.6271 39.8094L30.9438 35.9132C30.0968 35.7438 29.4192 34.8968 29.5886 33.8804L31.2826 23.8857L54.6599 27.9514C55.5069 28.1208 56.1845 28.9678 56.0151 29.9842L54.4905 38.2848C54.4905 39.4706 53.6435 39.9788 52.6271 39.8094Z" fill="#D3F6E1"/>
<path d="M30.7744 27.4426L28.064 23.5464L31.452 24.0546L30.7744 27.4426Z" fill="#D3F6E1"/>
<path d="M47.3754 31.6775C47.5448 30.4917 46.6978 29.4753 45.512 29.3059L41.1076 28.4589C39.9218 28.2895 38.9054 28.9671 38.5666 30.1529C38.5666 30.1529 38.5666 30.1529 38.5666 30.3223L38.0583 33.2021C38.0583 33.5409 38.0584 34.0491 38.3972 34.3879C38.5666 34.7267 39.0748 34.8961 39.4136 35.0655C40.2606 35.2349 40.5994 34.8961 41.1076 34.0491C41.277 33.8797 41.6158 33.2021 42.6322 33.3715C43.4792 33.5409 43.818 34.3879 43.818 34.3879C44.1568 35.4043 44.3262 35.7431 45.1732 35.9125C45.512 35.9125 46.0202 35.9125 46.359 35.5737C46.6978 35.4043 46.8672 34.8961 47.0366 34.5573L47.3754 31.6775ZM40.7688 31.5081C40.2606 31.5081 39.9218 30.9999 40.0912 30.4917C40.0912 29.9835 40.5994 29.6447 41.1076 29.8141C41.6158 29.8141 41.9546 30.3223 41.7852 30.8305C41.6158 31.3387 41.277 31.6775 40.7688 31.5081ZM45.512 30.1529C45.6814 30.1529 45.8508 30.4917 45.8508 30.6611C45.8508 30.8305 45.512 30.9999 45.3426 30.9999C45.1732 30.9999 45.0038 30.6611 45.0038 30.4917C45.0038 30.1529 45.1732 30.1529 45.512 30.1529ZM44.3262 31.6775C44.1568 31.6775 43.9874 31.3387 43.9874 31.1693C43.9874 30.9999 44.3262 30.8305 44.4956 30.8305C44.665 30.8305 44.8344 31.1693 44.8344 31.3387C44.8344 31.5081 44.4956 31.6775 44.3262 31.6775ZM45.0038 32.6939C44.8344 32.6939 44.665 32.3551 44.665 32.1857C44.665 32.0163 45.0038 31.8469 45.1732 31.8469C45.3426 31.8469 45.512 32.1857 45.512 32.3551C45.512 32.5245 45.1732 32.6939 45.0038 32.6939ZM46.0202 32.0163C45.8508 32.0163 45.6814 31.6775 45.6814 31.5081C45.6814 31.3387 46.0202 31.1693 46.1896 31.1693C46.359 31.1693 46.5284 31.5081 46.5284 31.6775C46.5284 31.8469 46.359 32.0163 46.0202 32.0163Z" fill="#48DB84"/>
<path d="M19.9329 56.412L15.8673 55.7344C15.5285 55.7344 15.3591 55.3956 15.5285 55.0568L16.2061 50.9912C16.2061 50.6524 16.5449 50.483 16.8837 50.6524L20.9493 51.33C21.2881 51.33 21.4575 51.6688 21.2881 52.0076L20.6105 56.0732C20.6105 56.2426 20.2717 56.5814 19.9329 56.412Z" fill="#FCCA57"/>
<path d="M47.376 69.9624L25.6927 66.0662C24.8457 65.8968 24.1681 65.0498 24.3375 64.0334L26.3703 52.3447L49.7476 56.4103C50.5946 56.5797 51.2722 57.4268 51.1028 58.4432L49.4088 68.4378C49.2394 69.4542 48.3924 70.1318 47.376 69.9624Z" fill="#D3F6E1"/>
<path d="M25.8619 55.7336L22.9821 51.8374L26.3701 52.3456L25.8619 55.7336Z" fill="#D3F6E1"/>
<path d="M60.0812 53.1923L56.0156 52.5147C55.6768 52.5147 55.5074 52.1759 55.6768 51.8371L56.3544 47.7715C56.3544 47.4327 56.6932 47.2633 57.032 47.4327L61.0976 48.1103C61.4364 48.1103 61.6058 48.4491 61.4364 48.7879L60.7588 52.8535C60.5894 53.0229 60.2506 53.1923 60.0812 53.1923Z" fill="#6A87FC"/>
<path d="M50.5946 51.4982L27.2173 47.4325C26.3703 47.2631 25.6927 46.4161 25.8621 45.3997L26.3703 42.0117C26.5397 41.1647 27.3867 40.4871 28.4031 40.6565L50.0864 44.5527C50.9334 44.7221 51.611 45.5691 51.4416 46.5855L50.5946 51.4982Z" fill="#DBE2FE"/>
<path d="M51.2723 48.2798L53.9827 52.176L50.5947 51.4984L51.2723 48.2798Z" fill="#DBE2FE"/>
<path d="M43.6491 81.3119L21.627 77.4157C20.78 77.2463 20.2718 76.3992 20.4412 75.5522L20.9494 73.0112C21.1188 72.1642 21.9658 71.656 22.8128 71.8254L44.8349 75.7216C45.6819 75.891 46.1901 76.738 46.0207 77.585L45.5125 80.1261C45.1737 80.8037 44.4961 81.3119 43.6491 81.3119Z" fill="#DBE2FE"/>
<path d="M51.9497 97.5746L47.8841 96.897C47.5453 96.897 47.3759 96.5582 47.5453 96.2194L48.2229 92.1538C48.2229 91.815 48.5617 91.6456 48.9005 91.815L52.9661 92.4926C53.3049 92.4926 53.4743 92.8314 53.3049 93.1702L52.6273 97.2358C52.4579 97.5746 52.2885 97.744 51.9497 97.5746Z" fill="#6A87FC"/>
<path d="M42.6326 96.0502L19.0859 91.9846C18.2389 91.8152 17.7307 90.9681 17.9001 90.1211L19.5941 80.2959C19.7635 79.4489 20.6105 78.9407 21.4575 79.1101L43.4796 83.0063C44.3266 83.1757 44.8348 84.0227 44.6654 84.8697L42.6326 96.0502Z" fill="#DBE2FE"/>
<path d="M43.1408 92.6626L46.0206 96.5588L42.6326 96.0506L43.1408 92.6626Z" fill="#DBE2FE"/>
<path d="M29.7583 89.4434C29.4195 89.4434 29.2501 89.6128 29.2501 89.7822C29.2501 90.121 29.4195 90.2904 29.5889 90.2904C29.9277 90.2904 30.0971 90.121 30.0971 89.9516C30.0971 89.7822 29.9277 89.6128 29.7583 89.4434Z" fill="#6A87FC"/>
<path d="M31.6218 89.9517C31.283 89.9517 31.1136 90.1211 31.1136 90.2905C31.1136 90.6293 31.283 90.7987 31.4524 90.7987C31.6218 90.7987 31.9606 90.6293 31.9606 90.4599C32.13 90.1211 31.9606 89.9517 31.6218 89.9517Z" fill="#6A87FC"/>
<path d="M34.1627 85.7166C34.1627 85.5472 33.9933 85.5472 33.9933 85.5472L28.7418 84.7002H28.403L27.7254 84.5308L27.556 85.2084L28.2336 85.3778H28.403L29.0806 88.7658C29.0806 89.1046 29.4194 89.274 29.5888 89.274L32.2993 89.7822L32.4687 89.1046L29.7582 88.5964L29.5888 87.9188L32.6381 88.427C32.8075 88.427 32.9769 88.427 32.9769 88.2576L34.3321 86.0554C34.3321 85.886 34.3321 85.886 34.1627 85.7166Z" fill="#6A87FC"/>
<path d="M106.497 79.1095L84.1363 57.9344L68.382 37.7757C66.5186 35.404 63.3 34.8958 60.759 36.4205C58.0485 38.1145 57.2015 41.6719 58.8955 44.3823L67.1962 62.3388L66.1798 66.5738C64.4858 74.705 67.535 83.1751 74.1416 88.2571L88.5407 99.2681L106.497 79.1095Z" fill="#FCCA57"/>
<path d="M74.1416 88.2563C67.535 83.1743 64.4858 74.7042 66.1798 66.573L67.0268 62.5074L64.8246 57.7642" stroke="#B78829" stroke-width="2.3689" stroke-miterlimit="10" stroke-linecap="round" stroke-linejoin="round"/>
<path d="M111.07 71.9966C110.054 70.9802 108.529 70.8108 107.344 71.319C76.3433 86.2263 54.4906 109.773 48.9003 116.38C48.0533 117.396 47.8839 118.921 48.3921 120.106C56.6215 136.465 66.2183 152.11 76.3372 166.654C87.1744 182.23 109.359 183.31 122.777 169.893L142.913 149.757C154.548 138.121 155.509 119.501 144.564 107.214C128.261 88.9138 115.422 76.3484 111.07 71.9966Z" fill="#6A87FC"/>
</svg>
