<svg width="14" height="13" viewBox="0 0 14 13" fill="none" xmlns="http://www.w3.org/2000/svg">
<path d="M12.3334 2.3335H10.6094L8.80475 0.528829C8.68009 0.403496 8.51075 0.333496 8.33342 0.333496H5.66675C5.48942 0.333496 5.32009 0.403496 5.19542 0.528829L3.39075 2.3335H1.66675C0.93142 2.3335 0.33342 2.9315 0.33342 3.66683V11.0002C0.33342 11.7355 0.93142 12.3335 1.66675 12.3335H12.3334C13.0688 12.3335 13.6668 11.7355 13.6668 11.0002V3.66683C13.6668 2.9315 13.0688 2.3335 12.3334 2.3335ZM7.00009 10.3335C5.19342 10.3335 3.66675 8.80683 3.66675 7.00016C3.66675 5.1935 5.19342 3.66683 7.00009 3.66683C8.80675 3.66683 10.3334 5.1935 10.3334 7.00016C10.3334 8.80683 8.80675 10.3335 7.00009 10.3335Z" fill="white"/>
</svg>
