<svg xmlns="http://www.w3.org/2000/svg" width="32" height="32" fill="none" viewBox="0 0 32 32">
    <path fill="#fff" fill-rule="evenodd" d="M25.568 7.157l2.128 6.383c.961.403 1.637 1.352 1.637 2.46v5.333c0 .986-.538 1.835-1.333 2.298v3.036c0 .737-.596 1.333-1.333 1.333h-1.334C24.596 28 24 27.404 24 26.667V24H8v2.667C8 27.404 7.404 28 6.667 28H5.333C4.596 28 4 27.404 4 26.667V23.63c-.795-.463-1.333-1.314-1.333-2.298V16c0-1.108.676-2.057 1.636-2.46l2.129-6.384c.363-1.09 1.379-1.823 2.53-1.823h14.077c1.15 0 2.166.734 2.529 1.824zM8 20v-2.667H5.333V20H8zm.961-12H23.04l1.779 5.333H7.183L8.96 8zm17.706 12H24v-2.667h2.667V20z" clip-rule="evenodd"/>
</svg>
