<svg width="32" height="32" viewBox="0 0 32 32" fill="none" xmlns="http://www.w3.org/2000/svg">
<path fill-rule="evenodd" clip-rule="evenodd" d="M27.8272 5H7.0274H5.72741H3.12744V7.59997H5.72741H6.11741L10.6947 20.1877C11.0652 21.2121 12.0479 21.8998 13.1373 21.8998H23.9272V19.2999H13.1373L12.1909 16.6999H23.9272C24.4472 16.6999 24.9178 16.3905 25.1219 15.9121L29.0219 6.81218C29.1948 6.41049 29.1532 5.95029 28.9127 5.58499C28.6709 5.2197 28.264 5 27.8272 5ZM14.1773 27.0998C15.2543 27.0998 16.1273 26.2267 16.1273 25.1498C16.1273 24.0729 15.2543 23.1998 14.1773 23.1998C13.1004 23.1998 12.2273 24.0729 12.2273 25.1498C12.2273 26.2267 13.1004 27.0998 14.1773 27.0998ZM23.9272 25.1498C23.9272 26.2267 23.0542 27.0998 21.9773 27.0998C20.9003 27.0998 20.0273 26.2267 20.0273 25.1498C20.0273 24.0729 20.9003 23.1998 21.9773 23.1998C23.0542 23.1998 23.9272 24.0729 23.9272 25.1498Z" fill="#393C47"/>
</svg>
