<svg width="32" height="32" viewBox="0 0 32 32" fill="none" xmlns="http://www.w3.org/2000/svg">
<path d="M27.0571 15.0575C27.3071 14.8075 27.6463 14.667 27.9999 14.667C28.3535 14.667 28.6927 14.8075 28.9427 15.0575C29.1928 15.3076 29.3332 15.6467 29.3332 16.0003C29.3332 19.5365 27.9285 22.9279 25.428 25.4284C22.9275 27.9289 19.5361 29.3337 15.9999 29.3337C12.4981 29.3255 9.14217 27.9304 6.66658 25.4537C4.79886 23.596 3.52326 21.2267 3.00076 18.6448C2.47826 16.0629 2.73227 13.3841 3.73074 10.9464C4.72921 8.50868 6.42739 6.42137 8.61097 4.94786C10.7946 3.47435 13.3657 2.68068 15.9999 2.66699C17.064 2.6714 18.1241 2.79665 19.1599 3.04033C19.3392 3.0721 19.5101 3.14026 19.662 3.24061C19.814 3.34095 19.9438 3.47136 20.0434 3.62378C20.143 3.7762 20.2103 3.94741 20.2412 4.12686C20.2721 4.3063 20.266 4.49018 20.2231 4.66714C20.1802 4.84411 20.1016 5.01042 19.9919 5.15582C19.8823 5.30122 19.7441 5.42263 19.5858 5.51256C19.4274 5.6025 19.2524 5.65904 19.0714 5.67872C18.8903 5.6984 18.7072 5.6808 18.5332 5.62699C17.702 5.43736 16.8525 5.339 15.9999 5.33366C14.5939 5.32914 13.201 5.60511 11.9029 6.14541C10.6048 6.68571 9.42752 7.4795 8.43991 8.48033C6.9548 9.97431 5.94529 11.8746 5.5387 13.9415C5.13211 16.0085 5.34663 18.1495 6.15522 20.0947C6.96381 22.0399 8.33026 23.7021 10.0823 24.8717C11.8343 26.0413 13.8934 26.666 15.9999 26.667C18.8289 26.667 21.542 25.5432 23.5424 23.5428C25.5428 21.5424 26.6666 18.8293 26.6666 16.0003C26.6666 15.6467 26.8071 15.3076 27.0571 15.0575Z" fill="#FFA801"/>
<path d="M12.0004 14.6615C12.3555 14.6615 12.696 14.8026 12.9471 15.0536L16.0004 18.0536L24.2937 8.45365C24.5317 8.20587 24.8562 8.05952 25.1994 8.04512C25.5427 8.03071 25.8783 8.14936 26.1362 8.37633C26.3941 8.60329 26.5545 8.92106 26.5838 9.26336C26.6132 9.60566 26.5092 9.94609 26.2937 10.2136L16.9604 20.8803C16.84 21.0176 16.6926 21.1287 16.5275 21.2067C16.3623 21.2846 16.1829 21.3279 16.0004 21.3337C15.8249 21.3347 15.651 21.301 15.4885 21.2347C15.3261 21.1683 15.1783 21.0706 15.0537 20.947L11.0537 16.947C10.8027 16.6959 10.6616 16.3554 10.6616 16.0003C10.6616 15.6452 10.8027 15.3047 11.0537 15.0536C11.3048 14.8026 11.6453 14.6615 12.0004 14.6615Z" fill="#FFA801"/>
</svg>
