<svg xmlns="http://www.w3.org/2000/svg" width="32" height="32" fill="none" viewBox="0 0 32 32">
    <path fill="#fff" fill-rule="evenodd" d="M3 5c0-1.105.895-2 2-2h16c1.105 0 2 .895 2 2v.824l4.574-2.153c.663-.312 1.426.172 1.426.905v12.848c0 .733-.763 1.217-1.426.905L23 16.177V17c0 1.105-.895 2-2 2h-4.154l3.706 7.948c.316.676.023 1.48-.653 1.795-.675.315-1.479.022-1.794-.653L13.867 19h-1.06l-4.335 9.294c-.315.676-1.118.968-1.794.653-.675-.315-.968-1.118-.653-1.794L9.827 19H5c-1.105 0-2-.895-2-2V5zm20 8.193l3.3 1.552v-7.49L23 8.808v4.385z" clip-rule="evenodd"/>
</svg>
