<svg width="160" height="160" viewBox="0 0 160 160" fill="none" xmlns="http://www.w3.org/2000/svg">
<g clip-path="url(#clip0)">
<circle cx="82.9943" cy="85.4567" r="74.5436" fill="#F2F3F7"/>
<path d="M105.805 156.446C98.1141 140.933 84.9908 104.582 83.3413 90.1773C81.367 72.9381 93.2697 83.1304 95.132 85.763C95.6051 86.4317 98.5062 90.7104 102.589 96.7316C111.305 109.587 125.407 130.385 132.765 140.953C125.057 147.87 115.9 153.205 105.805 156.446Z" fill="#A23EF0"/>
<path d="M45.6062 114.998L41.7002 113.709L40.217 118.203L44.1231 119.492L45.6062 114.998Z" fill="#DBDBDB"/>
<path d="M27.4668 37.4112C27.4668 37.4112 26.1384 30.6204 24.6469 24.9661C24.6469 24.9661 17.4119 0.156852 25.5698 1.16923C30.5589 1.7979 35.927 28.7148 37.8792 35.6721C37.9118 35.7111 30.2484 34.3981 27.4668 37.4112Z" fill="#FFC24D"/>
<path d="M21.3354 38.0155C21.3354 38.0155 18.0544 32.5115 14.9335 27.2652C14.9335 27.2652 2.45514 4.88658 10.2985 4.12482C15.0974 3.66815 26.3211 28.4766 29.7489 34.7686C29.7882 34.7993 23.2341 34.5178 21.3354 38.0155Z" fill="#FFC24D"/>
<path d="M40.1676 122.127C40.141 122.205 40.0994 122.276 40.0451 122.338C39.9908 122.399 39.925 122.45 39.8513 122.486C39.7776 122.522 39.6975 122.543 39.6157 122.548C39.5338 122.553 39.4518 122.542 39.3742 122.515C39.2966 122.489 39.225 122.447 39.1635 122.393C39.102 122.339 39.0519 122.273 39.0158 122.199C38.9798 122.125 38.9586 122.045 38.9535 121.963C38.9484 121.881 38.9595 121.799 38.9861 121.722C39.0399 121.565 39.1537 121.436 39.3025 121.364C39.4513 121.291 39.6229 121.28 39.7796 121.334C39.9363 121.388 40.0652 121.501 40.138 121.65C40.2107 121.799 40.2214 121.971 40.1676 122.127Z" fill="white"/>
<path d="M47.8198 151.196C50.6979 129.729 57.704 97.5405 69.4214 82.988C75.8698 74.979 86.6032 79.3217 89.2901 82.83C100.04 96.8409 114.458 131.273 119.936 148.32C120.114 148.876 120.271 149.419 120.408 149.946C109.412 156.339 96.6313 160 82.9954 160C70.2744 160 58.2977 156.814 47.8198 151.196Z" fill="#A23EF0"/>
<path d="M119.935 148.32C115.724 135.217 106.231 111.84 97.1821 95.3623" stroke="white" stroke-width="0.828446" stroke-linecap="round"/>
<path d="M65.0428 81.8965C42.232 94.973 24.6365 106.088 28.4536 114.999C29.9679 118.495 37.4002 127.524 45.4589 126.546C51.7926 125.786 61.8638 114.266 72.5964 94.9449C78.1548 84.9466 79.4453 73.6329 65.0428 81.8965Z" fill="#A23EF0"/>
<path d="M72.596 94.9442C65.8983 107.001 59.4582 116.021 54.0233 121.283" stroke="white" stroke-width="0.828446" stroke-linecap="round"/>
<path d="M37.985 121.773C26.9575 118.719 16.3219 87.6575 11.1671 66.5116C10.1859 62.4866 41.9968 54.6778 42.5625 59.0701C45.7051 84.1516 50.0638 125.106 37.985 121.773Z" fill="#FFC24D"/>
<path d="M5.10219 50.2754C6.11295 57.0989 14.035 73.5344 17.074 76.0099C20.113 78.4853 39.4301 66.2113 40.1042 62.2995C40.7783 58.3877 39.0537 35.8175 33.8982 31.0295C28.7427 26.2415 4.05148 43.2105 5.10219 50.2754Z" fill="#FFC24D"/>
<path d="M35.7786 39.7608C35.7786 39.7608 39.0869 46.0293 36.2899 48.9428C33.5831 51.7414 29.9102 47.2679 29.6476 46.9492C29.8191 47.2843 32.7123 53.1484 29.6107 55.7591C26.3711 58.4958 23.4576 53.373 23.2644 53.0404C23.3091 53.4127 24.0929 58.2549 21.27 59.7212C16.4226 62.2405 14.1306 49.8957 10.384 47.5435C10.384 47.5435 5.34636 50.6658 5.17179 50.8071C5.17179 50.8071 3.08817 41.8851 6.53568 37.0055C7.02545 36.2873 7.74644 35.7586 8.57859 35.5074C9.41074 35.2561 10.3038 35.2975 11.1092 35.6245C11.1092 35.6245 9.91672 31.9368 12.3016 29.7843C13.5262 28.6796 16.3864 29.6661 16.3864 29.6661C16.3864 29.6661 17.0035 27.7679 19.241 25.9833C21.0286 24.5538 24.8379 26.856 24.8379 26.856L35.7786 39.7608Z" fill="#FFC24D"/>
<path d="M23.2217 53.5994C20.9384 46.5237 16.6174 40.8912 11.3477 35.7448C11.2793 35.6764 11.3835 35.5872 11.4541 35.628C14.7181 37.4252 17.7339 41.0746 19.8429 44.0995C21.8546 46.8632 23.1096 50.1044 23.4837 53.5023C23.5018 53.6533 23.2675 53.7526 23.2217 53.5994Z" fill="#AD7200"/>
<path d="M30.4014 49.1941C28.1181 42.1184 23.797 36.486 18.5274 31.3395C18.459 31.2711 18.5632 31.182 18.6338 31.2227C21.8978 33.0199 24.9136 36.6693 27.0225 39.6942C29.0343 42.4579 30.2893 45.6992 30.6634 49.097C30.6815 49.248 30.4472 49.3473 30.4014 49.1941Z" fill="#AD7200"/>
<path d="M35.7767 39.7452C36.2997 41.0048 36.7055 42.3099 36.989 43.6439C37.3123 44.9313 37.2855 46.2817 36.9114 47.5553C36.7144 48.1312 36.3098 48.613 35.7766 48.9065C35.2358 49.1966 34.6296 49.3428 34.0161 49.3312C33.4058 49.2719 32.8149 49.0842 32.2823 48.7802C31.7497 48.4763 31.2874 48.0632 30.9258 47.5679L29.0575 45.2256L30.0013 48.0729C30.4285 49.3348 30.6483 50.6576 30.6522 51.9899C30.6385 53.2885 30.279 54.5794 29.3803 55.3441C28.9702 55.7451 28.4351 55.9935 27.8642 56.0481C27.2932 56.1028 26.7208 55.9602 26.2421 55.6442C25.1849 54.9139 24.3316 53.9256 23.7631 52.7732L22.0799 49.6479L22.6412 53.1377C22.8023 54.1084 22.8363 55.0959 22.7422 56.0754C22.6907 57.0066 22.3661 57.9021 21.809 58.6501C21.543 58.9754 21.1916 59.2201 20.7942 59.3567C20.3969 59.4933 19.9693 59.5165 19.5595 59.4237C18.6758 59.0787 17.9084 58.4894 17.3471 57.7246C16.1191 56.0836 15.0216 54.349 14.0645 52.5366C13.5459 51.6357 13.0219 50.7354 12.4566 49.8565C11.9366 48.943 11.2297 48.1495 10.382 47.5279C11.1441 48.2269 11.7634 49.0669 12.2059 50.0015C12.6982 50.9111 13.1499 51.8474 13.6016 52.7837C14.4641 54.7018 15.5068 56.5337 16.7157 58.2546C17.3558 59.1987 18.2562 59.9366 19.3076 60.3788C19.9055 60.5549 20.5419 60.5525 21.1385 60.372C21.7352 60.1915 22.2661 59.8407 22.6662 59.3626C23.3946 58.4573 23.8341 57.3539 23.9278 56.1957C24.0486 55.1056 24.0268 54.0044 23.8628 52.9199L22.7463 53.2838C23.3972 54.6588 24.3975 55.8388 25.6473 56.7062C26.3529 57.1689 27.1977 57.3713 28.0364 57.2786C28.8559 57.1593 29.6208 56.7968 30.2319 56.2379C31.4828 55.1245 31.8502 53.444 31.8404 51.995C31.8181 50.5335 31.5536 49.0858 31.0579 47.7108L30.1287 48.2218C30.601 48.8187 31.1981 49.3052 31.8782 49.647C32.5583 49.9889 33.305 50.1779 34.0658 50.2009C34.8258 50.1788 35.567 49.9597 36.2168 49.565C36.8787 49.1503 37.366 48.5079 37.587 47.7587C38.0153 46.3118 37.7176 44.8808 37.3669 43.5548C36.9812 42.2294 36.4477 40.9515 35.7767 39.7452Z" fill="#AD7200"/>
<path d="M40.9147 63.6695C40.9147 63.6695 53.9038 31.1894 38.2855 32.6541C34.4974 33.0104 20.2248 40.8972 21.6739 43.8043C23.5481 47.5634 30.0933 45.5572 34.044 43.638C34.044 43.638 30.16 52.9044 35.8055 57.5351C37.9036 59.2157 39.6413 61.3021 40.9147 63.6695Z" fill="#FFC24D"/>
<path d="M39.362 32.5072C37.8723 32.6273 36.4083 32.9653 35.0167 33.5105C33.61 34.0163 32.2395 34.6178 30.915 35.3109C28.235 36.6557 25.6774 38.2317 23.2715 40.0212C22.6358 40.4964 22.0696 41.058 21.5892 41.6898C21.3163 42.0566 21.1279 42.4791 21.0373 42.9272C20.9854 43.1748 20.9771 43.4295 21.0127 43.6799C21.0492 43.9256 21.124 44.1641 21.2344 44.3866C21.6436 45.185 22.3218 45.813 23.1493 46.1597C23.9157 46.4529 24.7272 46.611 25.5477 46.627C27.0986 46.6274 28.6382 46.363 30.1001 45.8451C31.5304 45.3666 32.9237 44.7841 34.269 44.1023L33.5693 43.4256C33.1657 44.4997 32.8647 45.6097 32.6703 46.7405C32.4661 47.8592 32.377 48.9959 32.4044 50.1327C32.4457 51.2719 32.6511 52.3993 33.0142 53.4799C33.3771 54.5478 33.9397 55.5371 34.6722 56.3948C34.0703 55.4673 33.6276 54.4458 33.3625 53.3724C33.1156 52.3086 33.0139 51.2162 33.0602 50.1251C33.0962 49.0396 33.2417 47.9605 33.4944 46.9043C33.7402 45.8528 34.0822 44.8261 34.5163 43.8373L35.0661 42.6275L33.8173 43.166C32.4974 43.7714 31.139 44.2891 29.7511 44.7159C28.4055 45.162 26.9969 45.3884 25.5793 45.3864C24.2444 45.3442 22.8218 44.8911 22.3261 43.8615C21.806 42.9936 22.9285 41.8136 23.9983 40.9244C25.1256 40.0058 26.3015 39.1485 27.5209 38.3562C28.7407 37.5312 29.974 36.7264 31.2426 35.9885C33.8409 34.5656 36.4496 33.0922 39.362 32.5072Z" fill="#AD7200"/>
<path d="M44.5794 65.1179L11.8878 76.4856C11.8878 76.4856 10.4402 83.1172 13.1866 89.4915C18.3982 101.584 32.6838 127.172 41.5283 125.492C51.1043 123.658 49.4119 89.7338 47.2989 73.274C46.5315 67.7019 44.5794 65.1179 44.5794 65.1179Z" fill="#A23EF0"/>
<path d="M48.7998 91.6015C49.0536 98.1682 48.9922 104.948 48.3455 110.707" stroke="white" stroke-width="0.828446" stroke-linecap="round"/>
<path d="M93.8473 62.9923C93.5775 64.0122 93.0509 64.9459 92.3176 65.7043C91.9023 66.0986 91.3742 66.3533 90.8071 66.433C89.5648 66.6149 89.1033 65.5977 88.949 64.6312C88.8655 64.1163 88.845 63.5932 88.8878 63.0733C90.5073 63.5756 92.245 63.5472 93.8473 62.9923Z" fill="white"/>
<path d="M75.1752 80.9559C75.707 82.0577 82.9193 88.3883 88.1778 86.9689C89.8946 86.5001 87.7685 77.0414 87.7685 77.0414L87.7734 76.3075L87.8086 66.0256L72.7983 60.5655C72.7983 60.5655 74.949 80.485 75.1752 80.9559Z" fill="#FFC24D"/>
<path opacity="0.08" d="M87.7986 66.0323L87.7513 76.3047L87.7524 77.0434C87.7524 77.0434 88.1336 78.7598 88.4447 80.7583C80.9659 81.2786 76.4489 76.5671 74.1755 73.1296C73.5181 67.3801 72.7822 60.5675 72.7822 60.5675L87.7986 66.0323Z" fill="black"/>
<path d="M98.8419 50.7063C105.674 68.9604 95.5092 75.1115 91.5687 76.5824C87.9939 77.9125 75.6532 81.9952 66.9755 64.544C58.2978 47.0928 64.6249 38.1474 72.6398 34.6664C80.6547 31.1854 92.0048 32.448 98.8419 50.7063Z" fill="#FFC24D"/>
<path d="M65.3155 66.4543C71.0766 65.8256 72.823 58.5054 70.516 53.2897C70.516 53.2897 86.006 52.5634 84.5375 40.2915C85.8964 41.7412 87.5911 42.8343 89.4722 43.4743C91.3534 44.1142 93.3631 44.2815 95.3241 43.9612L97.8252 48.1316C99.2974 47.4027 100.152 42.6987 95.7303 39.9213C95.7303 39.9213 94.3798 33.9175 89.2595 31.0884C87.8663 30.2627 86.2642 29.8574 84.6459 29.921C83.0277 29.9847 81.4624 30.5147 80.1384 31.4472C77.1612 30.0176 73.7446 29.8024 70.6115 30.8473C65.1893 32.5639 63.8097 38.0575 63.8097 38.0575C63.8097 38.0575 56.576 40.8635 56.2615 46.3939C56.1357 47.9755 56.3469 49.5657 56.8811 51.0596C57.4153 52.5535 58.2604 53.917 59.3605 55.0601C59.3605 55.0601 57.8604 57.4925 59.6346 61.8616C60.7538 64.648 63.5917 66.6612 65.3155 66.4543Z" fill="#393C47"/>
<path d="M84.0005 39.285C84.2933 40.2487 84.4838 41.2405 84.5689 42.2441C84.6806 43.2309 84.6701 44.2278 84.5378 45.2121C84.2939 47.158 83.3247 48.9401 81.8238 50.2024C80.3815 51.5429 78.3908 52.0676 76.4985 52.6048C75.5135 52.7521 74.5324 52.9717 73.531 53.0628C72.5297 53.154 71.5226 53.1974 70.508 53.2998C71.5176 53.3578 72.5322 53.3765 73.5544 53.4185C74.5766 53.4604 75.5816 53.238 76.6074 53.1488C78.5887 52.7075 80.666 52.1771 82.2817 50.748C83.8944 49.3605 84.9 47.3969 85.0833 45.2774C85.2327 43.2206 84.8603 41.1594 84.0005 39.285Z" fill="#393C47"/>
<path d="M63.8101 38.0586C61.8906 38.4205 60.0666 39.1754 58.4528 40.2759C56.7629 41.377 55.5164 43.0398 54.9333 44.9706C54.7083 45.9448 54.6408 46.9488 54.7333 47.9444C54.7889 48.9368 55.0141 49.9124 55.3993 50.8287C56.14 52.6879 57.5547 54.1993 59.3609 55.0611C57.7675 54.0133 56.5616 52.472 55.9279 50.6732C55.3075 48.9115 55.2068 47.0085 55.6379 45.1911C55.8667 44.3049 56.2592 43.4692 56.7951 42.7272C57.3702 41.9911 58.0342 41.3289 58.772 40.7559C60.2978 39.5955 61.9984 38.685 63.8101 38.0586Z" fill="#393C47"/>
<path d="M80.1599 31.4641C81.4928 30.6865 82.9414 30.1267 84.4509 29.8059C85.9208 29.4827 87.4491 29.5427 88.8892 29.9802C90.3059 30.4777 91.5739 31.3251 92.5755 32.4438C93.6085 33.5911 94.4685 34.883 95.1284 36.2786C94.7123 34.7492 93.9836 33.3226 92.9883 32.0891C92.0106 30.7787 90.6514 29.803 89.0971 29.2959C87.5429 28.7887 85.8698 28.7749 84.3074 29.2564C82.7815 29.6835 81.3664 30.4368 80.1599 31.4641Z" fill="#393C47"/>
<path d="M93.0681 44.8977C91.3084 44.6336 89.6048 44.0786 88.0273 43.2554C87.2552 42.8432 86.5419 42.3293 85.9064 41.7276C85.2627 41.1052 84.6919 40.4116 84.2051 39.6602C84.4472 40.5555 84.8775 41.389 85.4673 42.1048C86.06 42.8344 86.7911 43.4396 87.6186 43.8857C88.4395 44.3316 89.3255 44.6453 90.2441 44.8153C91.1736 45.0057 92.1291 45.0335 93.0681 44.8977Z" fill="#393C47"/>
<path d="M83.4238 66.838C82.172 67.0785 80.8778 66.9627 79.6885 66.504C78.4992 66.0452 77.4626 65.2619 76.6965 64.243C75.9305 63.2242 75.4657 62.0108 75.3552 60.7409C75.2447 59.471 75.4929 58.1956 76.0714 57.0598C76.65 55.9239 77.5358 54.9733 78.6279 54.316C79.7201 53.6587 80.9748 53.3212 82.2494 53.3418C83.5239 53.3624 84.7671 53.7403 85.8374 54.4325C86.9078 55.1248 87.7623 56.1035 88.3039 57.2575C89.0673 58.8931 89.1517 60.7645 88.5385 62.4622C87.9253 64.1598 86.6645 65.5454 85.0321 66.3156C84.5191 66.5542 83.979 66.7296 83.4238 66.838ZM81.0293 54.3577C80.5464 54.4514 80.0767 54.6038 79.6307 54.8114C78.2728 55.4485 77.2087 56.5792 76.6552 57.9733C76.1017 59.3674 76.1003 60.92 76.6514 62.3151C77.2024 63.7101 78.2644 64.8427 79.6212 65.4822C80.978 66.1218 82.5275 66.2201 83.9543 65.7573C85.3811 65.2945 86.5778 64.3053 87.3008 62.9911C88.0238 61.6769 88.2188 60.1366 87.846 58.6837C87.4732 57.2308 86.5607 55.9746 85.2943 55.1709C84.0278 54.3672 82.5027 54.0764 81.0293 54.3577Z" fill="#A23EF0"/>
<path d="M97.7126 62.1582C95.1512 62.6497 92.3325 60.4743 91.2574 57.0869C90.7204 55.4765 90.698 53.7389 91.1933 52.1153C91.3649 51.4052 91.717 50.7514 92.2155 50.2174C92.714 49.6833 93.342 49.2871 94.0386 49.067C94.7352 48.847 95.4769 48.8106 96.1917 48.9613C96.9065 49.1121 97.5703 49.445 98.1187 49.9276C99.4574 50.9689 100.437 52.4025 100.921 54.0279C102.053 57.6071 100.814 61.2045 98.145 62.0481C98.0033 62.094 97.8589 62.1308 97.7126 62.1582ZM94.6468 49.8552C94.5322 49.869 94.4223 49.8822 94.3129 49.9389C93.7668 50.1403 93.2769 50.4696 92.8844 50.8994C92.4918 51.3291 92.2081 51.8467 92.0568 52.4088C91.6191 53.8497 91.6433 55.3914 92.126 56.8179C93.1083 59.9162 95.6786 61.8792 97.8718 61.1848C100.065 60.4904 101.037 57.4142 100.054 54.3112C99.6301 52.8656 98.7637 51.5892 97.577 50.6611C97.172 50.3295 96.702 50.0865 96.1973 49.9477C95.6926 49.8089 95.1644 49.7774 94.6468 49.8552Z" fill="#A23EF0"/>
<path d="M88.3856 58.0565L87.7362 57.6501C88.3475 56.6903 89.9691 55.149 91.7609 56.1545L91.3568 56.823C89.7799 55.9128 88.4433 57.972 88.3856 58.0565Z" fill="#A23EF0"/>
<path d="M62.4246 67.8285L61.6677 67.6966C61.732 67.3449 62.3073 64.2292 63.8555 63.4476C65.3085 62.7209 75.4025 60.5403 75.8318 60.4452L75.9946 61.1958C73.1003 61.8194 65.3229 63.5669 64.2041 64.1323C63.1815 64.6522 62.5743 66.9774 62.4246 67.8285Z" fill="#A23EF0"/>
<path d="M71.0713 64.9299C71.0713 64.9299 65.3416 60.2123 63.0916 62.4102C60.8416 64.6081 66.2833 72.252 69.7285 72.5455C70.1669 72.6141 70.6145 72.5934 71.0447 72.4847C71.4748 72.376 71.8786 72.1816 72.2317 71.913C72.5849 71.6444 72.8802 71.3073 73.0998 70.9218C73.3195 70.5363 73.459 70.1104 73.51 69.6697L71.0713 64.9299Z" fill="#FFC24D"/>
</g>
<defs>
<clipPath id="clip0">
<rect width="160" height="160" fill="white"/>
</clipPath>
</defs>
</svg>
