<svg width="145" height="160" viewBox="0 0 145 160" fill="none" xmlns="http://www.w3.org/2000/svg">
<circle cx="72.3277" cy="77.19" r="72.3277" fill="#FFF5F7"/>
<path d="M68.6004 28.4816C63.3635 32.0481 60.7702 36.6931 61.0762 41.8748C61.3821 47.0565 57.5096 51.1848 57.0632 56.833C56.6168 62.4812 59.9425 66.4841 59.9425 69.0625C59.9425 71.6408 57.3943 76.1905 57.3943 76.1905C57.3943 76.1905 62.9522 83.4489 78.2415 83.2131C93.5308 82.9773 100.734 77.7906 100.734 77.7906C100.734 77.7906 98.5219 72.9701 98.2962 71.5254C98.0705 70.0807 101.426 64.7937 101.522 60.2641C101.617 55.7345 97.5488 49.6248 97.5387 47.3775C97.5287 45.1303 98.0103 32.3541 88.2989 27.6539C85.2102 26.1265 81.7865 25.4018 78.3437 25.5464C74.901 25.6911 71.5502 26.7005 68.6004 28.4816Z" fill="#393C47"/>
<path d="M102.254 60.1791C101.561 55.9505 98.953 51.767 97.0318 48.0901C97.0063 48.0536 96.9688 48.0272 96.9258 48.0155C96.8828 48.0038 96.8371 48.0075 96.7966 48.026C96.7561 48.0444 96.7233 48.0765 96.704 48.1167C96.6846 48.1568 96.6799 48.2024 96.6907 48.2456C97.8796 51.787 99.8911 54.9823 100.98 58.5539C102.147 62.4581 101.797 66.659 100.001 70.3168C99.9462 70.4322 100.097 70.5275 100.162 70.4171C102.06 67.3639 102.802 63.7321 102.254 60.1791Z" fill="#393C47"/>
<path d="M101.491 55.3635C99.525 51.9525 97.5536 48.2656 96.8062 44.2777C96.8062 44.1874 96.6658 44.2326 96.6808 44.3229C97.2296 47.5554 98.2824 50.6818 99.8009 53.5878C101.536 56.8934 104.13 59.9633 104.421 63.9111C104.418 63.9215 104.417 63.9324 104.42 63.943C104.422 63.9536 104.426 63.9636 104.433 63.9722C104.439 63.9808 104.448 63.9878 104.457 63.9926C104.467 63.9974 104.478 63.9999 104.488 63.9999C104.499 63.9999 104.51 63.9974 104.52 63.9926C104.529 63.9878 104.538 63.9808 104.544 63.9722C104.551 63.9636 104.555 63.9536 104.557 63.943C104.559 63.9324 104.559 63.9215 104.556 63.9111C104.767 60.5853 103.051 58.0722 101.491 55.3635Z" fill="#393C47"/>
<path d="M61.4572 80.6255C44.6129 100.229 24.493 140.408 29.2784 147.948C34.6056 156.34 58.919 128.42 58.0462 127.186C57.3038 126.142 64.9585 102.18 70.5114 84.6585C76.0643 67.137 65.6256 75.7798 61.4572 80.6255Z" fill="#FFC24D"/>
<path d="M61.4572 80.6255C44.6129 100.229 24.493 140.408 29.2784 147.948C34.6056 156.34 58.919 128.42 58.0462 127.186C57.3038 126.142 64.9585 102.18 70.5114 84.6585C76.0643 67.137 65.6256 75.7798 61.4572 80.6255Z" fill="#F53B5D"/>
<path d="M45.3656 145.83L48.2951 127.095C48.2951 127.095 41.3828 115.026 45.3957 106.363C47.4022 101.979 61.302 80.5394 68.7761 75.1119C75.7988 70.0205 86.4983 75.0267 89.7638 79.4559C99.1591 92.192 104.025 104.276 109.272 145.845L45.3656 145.83Z" fill="#F53B5D"/>
<path d="M56.5618 88.5706C55.1472 90.5102 53.7644 92.4832 52.4134 94.4897C52.7846 93.7122 53.1558 92.9397 53.517 92.1621C53.5192 92.1515 53.518 92.1404 53.5134 92.1305C53.5087 92.1206 53.501 92.1125 53.4914 92.1074C53.4818 92.1023 53.4707 92.1005 53.4599 92.1022C53.4492 92.1039 53.4393 92.1091 53.4317 92.117C52.9301 93.0901 52.4686 94.0783 52.0171 95.0715C50.208 97.7468 48.454 100.462 46.7552 103.218C46.0178 104.371 45.3929 105.592 44.8892 106.865C44.4257 108.115 44.1174 109.417 43.9712 110.742C43.8232 112.063 43.8031 113.395 43.911 114.72C44.003 116.085 44.1958 117.441 44.4879 118.778C44.8306 120.296 45.309 121.78 45.9175 123.212C46.2184 123.91 46.5345 124.602 46.8806 125.284C47.2267 125.966 47.8387 127.165 47.8286 127.215C47.6982 127.912 47.5678 128.404 47.4825 128.991L47.2116 130.792C47.0311 131.989 46.8538 133.189 46.6799 134.393C46.3288 136.776 46.0278 139.159 45.7319 141.546C45.5613 142.921 45.471 144.305 45.2804 145.67C45.2804 145.725 45.3557 145.75 45.3657 145.67C45.5613 144.481 45.8673 143.302 46.073 142.118C46.2786 140.934 46.5094 139.736 46.7351 138.547C47.1866 136.144 47.5377 133.721 47.9139 131.308C48.0193 130.636 48.1246 129.969 48.2249 129.302C48.375 128.568 48.4606 127.823 48.4807 127.075C48.4807 127.075 46.3439 122.676 45.5112 119.596C45.1249 118.295 44.8398 116.967 44.6584 115.623C44.518 114.31 44.5029 112.986 44.6133 111.67C44.7167 110.355 44.9709 109.055 45.3707 107.798C45.7992 106.519 46.3555 105.287 47.0311 104.121C48.4256 101.638 49.9104 99.2049 51.4152 96.7871C53.1257 94.0432 54.8513 91.3144 56.617 88.6107C56.6671 88.5656 56.5969 88.5254 56.5618 88.5706Z" fill="white"/>
<path d="M69.7992 124.738C66.8097 124.878 63.8351 125.244 60.9005 125.831C59.4458 126.137 58.0162 126.513 56.5815 126.92C55.8692 127.125 55.1569 127.301 54.4346 127.476C53.6857 127.684 52.914 127.796 52.1372 127.813C52.1226 127.813 52.1085 127.818 52.0982 127.829C52.0878 127.839 52.082 127.853 52.082 127.868C52.082 127.882 52.0878 127.896 52.0982 127.907C52.1085 127.917 52.1226 127.923 52.1372 127.923C52.8677 127.988 53.6018 128.003 54.3343 127.968C55.0426 127.914 55.7465 127.811 56.4411 127.662C57.9158 127.361 59.3806 126.99 60.8603 126.659C63.8349 126.022 66.8095 125.385 69.8293 124.963C69.9647 124.963 69.9396 124.728 69.7992 124.738Z" fill="#263238"/>
<path d="M77.0528 127.677C74.6094 127.318 72.1475 127.098 69.679 127.02C68.445 126.985 67.2161 127.02 65.9821 127.085C65.3952 127.12 64.8083 127.165 64.2214 127.215C63.6345 127.266 62.9323 127.411 62.2852 127.456C62.22 127.456 62.215 127.566 62.2852 127.566C62.8972 127.541 63.5141 127.617 64.1261 127.627L65.9721 127.652C67.201 127.652 68.43 127.707 69.664 127.717C72.1269 127.717 74.5848 127.777 77.0478 127.877C77.1782 127.883 77.1782 127.692 77.0528 127.677Z" fill="#263238"/>
<path d="M29.675 148.78C34.7765 153.762 45.9124 152.793 74.1786 152.954C78.0912 152.979 85.6807 125.42 81.5072 125.179C76.2452 124.878 55.7692 124.843 54.2744 125.034C41.6386 126.594 26.2139 145.405 29.675 148.78Z" fill="#FFC24D"/>
<path d="M72.0268 125.736C72.0268 125.736 82.9621 122.505 89.2273 122.585C97.6244 122.696 104.828 126.242 107.757 127.913C113.872 131.399 126.247 144.055 123.227 148.253C120.488 152.055 108.494 138.482 108.494 138.482C108.494 138.482 123.006 150.305 118.868 154.278C114.73 158.25 101.708 141.697 101.708 141.697C101.708 141.697 116.345 154.177 111.434 157.598C107.717 160.187 95.0761 145.861 95.0761 145.861C95.0761 145.861 107.581 156.69 103.88 159.5C99.7863 162.62 87.286 150.129 87.286 150.129C76.6618 155.717 69.1876 153.585 64.1063 151.765C62.8773 151.323 72.0268 125.736 72.0268 125.736Z" fill="#FFC24D"/>
<path d="M103.713 134.073C105.469 135.398 107.255 136.732 108.885 138.212C110.515 139.691 112.1 141.221 113.585 142.847C117.232 146.829 118.887 149.894 118.767 149.719C115.853 145.505 110.099 140.123 108.464 138.643C106.828 137.163 105.283 135.633 103.658 134.128C103.633 134.118 103.713 134.038 103.713 134.073Z" fill="#C28000"/>
<path d="M98.2914 139.867C100.458 141.658 102.676 143.378 104.762 145.244C106.849 147.11 108.65 149.086 110.596 151.103C110.747 151.258 110.596 151.289 110.456 151.138C108.449 149.202 106.413 147.567 104.366 145.65C102.319 143.734 100.353 141.743 98.2412 139.912C98.1961 139.887 98.2563 139.837 98.2914 139.867Z" fill="#C28000"/>
<path d="M92.7235 143.994C96.1746 146.563 99.1492 149.768 101.993 152.978C102.134 153.139 101.958 153.154 101.803 152.978C98.7931 149.934 96.4254 147.521 92.6332 144.09C92.573 144.065 92.6482 143.939 92.7235 143.994Z" fill="#C28000"/>
<path d="M85.0386 122.48L65.5357 153.937C65.5357 153.937 34.0541 156.019 29.349 148.294C24.6438 140.569 46.7451 125.36 54.2292 124.994C61.7133 124.627 85.0386 122.48 85.0386 122.48Z" fill="#F53B5D"/>
<path d="M42.7016 130.19C44.3269 128.72 49.022 125.119 54.2388 124.993C54.294 124.993 54.309 125.073 54.2388 125.083C50.0503 125.786 44.4422 128.961 42.7518 130.255C42.7433 130.257 42.7345 130.257 42.7263 130.254C42.7181 130.251 42.7109 130.246 42.7057 130.239C42.7004 130.232 42.6972 130.224 42.6964 130.215C42.6957 130.206 42.6975 130.198 42.7016 130.19Z" fill="white"/>
<path d="M82.9865 75.3084C82.5852 76.4772 74.6446 85.0499 69.3776 83.3644C65.6757 82.1756 69.8793 74.0293 69.8793 74.0293L68.5851 62.9937L82.9916 55.8105C82.9916 55.8105 83.1471 74.8168 82.9865 75.3084Z" fill="#FFC24D"/>
<path d="M83.0221 62.9132C81.6594 65.4792 79.7824 67.7367 77.5082 69.5448C75.2341 71.3529 72.6116 72.6728 69.8045 73.4221L68.6006 63.0035L83.0121 55.8203C83.0121 55.8203 83.007 59.0257 83.0221 62.9132Z" fill="#FFB01A"/>
<path d="M58.287 43.1045C52.0218 60.1595 61.5425 65.8529 65.2244 67.1822C68.5651 68.4061 80.1074 72.1432 88.0981 55.8105C96.0889 39.4778 90.1297 31.166 82.6305 27.9707C75.1313 24.7754 64.5472 26.0345 58.287 43.1045Z" fill="#FFC24D"/>
<path d="M87.9881 53.9692C83.7043 52.7853 85.6204 39.2166 85.8713 37.5512C85.6606 38.5896 84.5069 44.0722 84.0353 44.2127C83.5747 44.0918 83.1374 43.8951 82.7412 43.6308C82.8953 42.9708 82.9992 42.3 83.0522 41.6243C83.0873 41.3133 82.7813 42.2564 82.3349 43.395C82.1041 43.2696 81.8332 43.1242 81.5874 42.9837C81.971 41.5983 82.1667 40.1676 82.1693 38.73C82.1693 38.1832 81.4721 40.4756 80.4939 42.3868C77.7049 40.8819 73.6569 38.7852 69.664 37.6917C68.6006 37.3957 67.6575 37.19 66.8349 37.0295C67.2111 35.4143 67.808 33.7389 67.6023 34.08C67.0485 34.9792 66.5831 35.9301 66.2129 36.9192C65.7614 36.8389 65.34 36.7687 64.9638 36.7185C65.3952 34.4111 67.3465 31.0352 66.8499 31.5067C65.3602 32.9626 64.1587 34.6866 63.3085 36.5881C62.6073 36.6065 61.9078 36.5116 61.2368 36.3072C61.3321 35.5598 62.7066 31.1154 68.3046 26.8918C75.1718 21.7101 87.5116 23.4106 91.7101 32.6905C91.7101 32.6905 95.9287 37.1449 95.4622 42.5874C94.9957 48.03 90.4611 54.6514 87.9881 53.9692Z" fill="#393C47"/>
<path d="M61.3631 63.087L60.559 62.558C59.1748 61.6474 57.3145 62.0313 56.4039 63.4155L53.362 68.0392L59.1786 71.8658L62.2205 67.2421C63.1311 65.8579 62.7472 63.9976 61.3631 63.087Z" fill="#FF79D9"/>
<path d="M85.1539 54.9121C85.1539 54.9121 90.471 50.4728 92.5828 52.5144C94.6946 54.556 89.6634 61.7141 86.453 62.005C86.0438 62.0708 85.6255 62.0531 85.2233 61.9531C84.8211 61.8531 84.4432 61.6729 84.1124 61.4231C83.7816 61.1734 83.5047 60.8594 83.2984 60.4999C83.092 60.1404 82.9605 59.743 82.9116 59.3314L85.1539 54.9121Z" fill="#FFC24D"/>
<path d="M60.8801 69.2807L55.0635 65.4541L35.3349 95.4423L41.1515 99.2689L60.8801 69.2807Z" fill="#48DB84"/>
<path d="M61.48 69.4397L54.687 64.9707L53.904 66.1608L60.6971 70.6298L61.48 69.4397Z" fill="#32A461"/>
<path d="M60.607 70.7571L53.814 66.2881L53.031 67.4782L59.824 71.9472L60.607 70.7571Z" fill="#32A461"/>
<path d="M41.1571 99.2702L36.5322 101.512L35.0273 102.26L35.1026 100.559L35.3484 95.4178L36.4269 95.0566C36.4269 95.0566 36.5071 96.1652 36.5121 96.1853L37.5956 95.8241C37.5956 95.8241 37.6759 96.9277 37.6809 96.9477L38.7443 96.5816C38.7443 96.5816 38.8396 97.6951 38.8446 97.7152L39.9131 97.349L40.0084 98.5028L41.0769 98.1366C41.0769 98.1366 41.1521 99.2502 41.1571 99.2702Z" fill="#EBEBEB"/>
<path d="M36.5321 101.532L35.0122 102.28L35.0875 100.579L36.5321 101.532Z" fill="#37474F"/>
<path d="M94.3031 88.4003C100.232 102.711 109.236 132.678 102.494 142.114C95.9985 151.208 58.934 130.767 51.4147 126.563C48.3298 124.848 56.5513 98.3976 60.0476 99.8121C67.7324 102.927 83.3979 113.657 83.8142 113.461C84.2306 113.266 83.6637 101.161 83.5735 89.223C83.443 71.872 90.0443 78.1121 94.3031 88.4003Z" fill="#FFC24D"/>
<path d="M38.1221 83.1782C35.5639 85.3251 37.8262 87.9335 37.8262 87.9335C36.3753 87.8956 34.9566 88.3638 33.8132 89.2578C31.867 90.9382 33.6477 94.7254 33.6477 94.7254C32.1324 95.0004 30.7344 95.7239 29.6348 96.8021C27.9343 98.5929 29.1833 102.671 29.1833 102.671C27.9258 103.694 27.0768 105.134 26.7906 106.729C26.2037 111.023 31.255 115.297 34.4854 117.99C39.2859 122.003 49.3283 125.455 51.4551 126.578L69.102 106.172C69.102 106.172 58.0665 90.1205 53.9983 87.1811C49.855 84.1964 40.6403 81.0663 38.1221 83.1782Z" fill="#FFC24D"/>
<path d="M38.2523 87.7281C42.6063 89.233 46.2782 91.9066 50.1105 94.3846C50.1958 94.4398 50.1105 94.5752 50.0202 94.52C46.2481 92.0119 41.9943 90.2813 38.157 87.9237C38.1358 87.9086 38.1206 87.8864 38.1142 87.8611C38.1078 87.8358 38.1106 87.8091 38.122 87.7857C38.1334 87.7622 38.1528 87.7436 38.1766 87.733C38.2005 87.7225 38.2273 87.7208 38.2523 87.7281Z" fill="#C28000"/>
<path d="M33.9233 94.5148C34.8791 94.9488 35.7745 95.5053 36.5869 96.1701C37.4898 96.8222 38.3793 97.4911 39.2555 98.1766C41.0212 99.541 42.7484 100.946 44.4372 102.39C44.5124 102.455 44.4372 102.586 44.3519 102.526C42.5912 101.171 40.8406 99.842 38.9997 98.5628C38.0901 97.9241 37.1788 97.2921 36.2658 96.6667C35.3637 96.1311 34.5227 95.4986 33.7577 94.7806C33.7318 94.7551 33.7153 94.7214 33.7111 94.6852C33.7068 94.649 33.7149 94.6125 33.7342 94.5815C33.7535 94.5506 33.7827 94.5271 33.817 94.515C33.8514 94.5029 33.8889 94.5028 33.9233 94.5148Z" fill="#C28000"/>
<path d="M29.2233 102.727C30.0811 103.013 30.8436 103.785 31.5408 104.347C32.3267 104.986 33.1192 105.62 33.9185 106.248C35.5136 107.502 37.1038 108.756 38.739 109.955C38.8243 110.015 38.739 110.146 38.6538 110.086C36.9834 108.877 35.303 107.688 33.6376 106.464C32.825 105.862 32.0123 105.255 31.2098 104.648C30.5225 104.146 29.6046 103.555 29.1481 102.807C29.128 102.767 29.1782 102.717 29.2233 102.727Z" fill="#C28000"/>
<path d="M69.268 103.519L55.0571 130.882C55.0571 130.882 86.95 146.076 98.1963 144.571C109.443 143.067 104.216 121.612 103.533 116.777C103.032 113.321 97.1529 92.4233 92.5581 83.9259C87.9633 75.4285 83.9052 75.283 83.2731 86.8553C82.6411 98.4277 83.5841 112.488 83.1176 112.277C82.6511 112.067 69.268 103.519 69.268 103.519Z" fill="#F53B5D"/>
<path d="M83.1471 111.896C84.52 113.39 85.7463 115.013 86.8089 116.741C87.8495 118.393 88.8038 120.098 89.6682 121.848C89.6682 121.888 89.5879 121.908 89.5628 121.848C88.5596 120.172 87.3507 118.537 86.2421 116.887C85.1335 115.237 83.8444 113.641 82.8462 111.966C82.7809 111.876 83.0619 111.8 83.1471 111.896Z" fill="white"/>
<path d="M98.9433 100.269C99.781 103.715 103.097 115.623 103.684 119.114C104.33 122.594 104.737 126.113 104.902 129.648C104.96 131.397 104.89 133.147 104.692 134.885C104.532 136.609 104.116 138.3 103.458 139.901C102.829 141.452 101.648 142.713 100.142 143.443C98.571 144.073 96.871 144.316 95.1862 144.15C91.73 143.954 88.319 142.956 84.9481 141.933C81.5773 140.91 78.2465 139.686 74.9158 138.482C71.585 137.278 68.2744 136.029 64.9737 134.735C61.6731 133.441 58.3674 132.161 55.0868 130.827L55.1119 130.912L55.9948 129.087L54.9915 130.857L54.9614 130.912L55.0216 130.937C58.242 132.442 61.4774 133.882 64.738 135.271C67.9985 136.661 71.2891 138.005 74.5947 139.284C77.9004 140.564 81.2512 141.767 84.6271 142.861C88.003 143.954 91.4591 145.003 95.1059 145.198C96.9668 145.346 98.8356 145.041 100.553 144.311C101.418 143.905 102.191 143.328 102.826 142.615C103.451 141.91 103.959 141.109 104.331 140.242C105.01 138.55 105.436 136.767 105.595 134.95C105.785 133.175 105.827 131.386 105.72 129.603C104.892 117.76 101 107.055 98.9433 100.269Z" fill="white"/>
<path d="M83.0468 93.6523C82.9866 95.1121 82.9766 96.5667 82.9365 98.0265L82.8963 102.396C82.8562 105.31 82.8963 108.229 82.8311 111.124L82.806 111.66V111.916V112.037V112.077L82.8361 112.017C82.8834 111.946 82.9546 111.894 83.0368 111.871H83.092C83.125 111.864 83.1592 111.864 83.1923 111.871H83.2374H83.2123L83.117 111.821L82.8863 111.701L82.4198 111.435C81.7978 111.069 81.1758 110.687 80.5588 110.306L76.8267 108.034L73.0897 105.771L69.2874 103.519H69.2523V103.554L68.9814 104.156L69.3175 103.589H69.2624C70.4512 104.442 71.64 105.285 72.8439 106.097L76.4656 108.545C77.6795 109.358 78.9035 110.141 80.1324 110.933C80.7544 111.319 81.3714 111.706 82.0034 112.082L82.48 112.363L82.7358 112.498C82.7818 112.526 82.8305 112.55 82.8813 112.568H82.9164H82.9465L83.0217 112.593C83.0767 112.601 83.1323 112.601 83.1873 112.593H83.2776C83.3664 112.557 83.443 112.496 83.4983 112.418L83.5384 112.348V112.303C83.5405 112.281 83.5405 112.259 83.5384 112.237V112.142V111.992V111.701V111.144C83.5835 108.214 83.5384 105.305 83.413 102.391L83.2274 98.0164C83.2324 96.5617 83.1471 95.107 83.0468 93.6523Z" fill="white"/>
<path d="M81.9033 97.0879C82.1315 98.7963 82.5332 100.477 83.1022 102.104C82.9971 101.25 82.8413 100.402 82.6357 99.5659C82.4383 98.7268 82.1938 97.8995 81.9033 97.0879Z" fill="white"/>
<path d="M66.4734 75.9297C66.4734 75.9297 65.7009 84.2365 70.5114 84.6628C75.3219 85.0892 82.7057 78.3926 85.6853 75.9297C82.6857 73.539 78.8973 72.3627 75.0711 72.634C69.3928 72.9501 66.4734 75.9297 66.4734 75.9297Z" fill="#FFC24D"/>
<path d="M21.0711 17.472C21.1331 20.594 22.0619 23.6373 23.7536 26.262C25.4454 28.8867 27.8335 30.9893 30.6513 32.3351C33.4691 33.6808 36.6056 34.2166 39.7103 33.8827C42.8151 33.5488 45.7658 32.3583 48.233 30.4441L56.5279 32.3817L52.9337 24.7717C54.1985 22.3038 54.8283 19.5595 54.7659 16.7871C54.7571 14.5504 54.3032 12.3378 53.4306 10.2784C52.558 8.2189 51.2842 6.35372 49.6834 4.79157C48.0827 3.22941 46.1869 2.00153 44.1068 1.17949C42.0266 0.357448 39.8036 -0.042303 37.5674 0.00354053C35.3312 0.049384 33.1264 0.539907 31.0817 1.44651C29.037 2.35311 27.1932 3.65765 25.6577 5.2841C24.1223 6.91055 22.926 8.82636 22.1386 10.9199C21.3511 13.0134 20.9883 15.2427 21.0711 17.4778V17.472Z" fill="#F53B5D"/>
<path d="M35.0034 20.0889C34.9912 19.384 35.1185 18.6837 35.3781 18.0283C35.7026 17.341 36.2462 16.781 36.9235 16.4361C37.1577 16.2956 37.4504 16.1317 37.7899 15.9561C38.144 15.7687 38.4827 15.5533 38.8026 15.3121C39.1246 15.0655 39.4053 14.7691 39.6338 14.4341C39.8615 14.0865 39.9798 13.6787 39.9734 13.2633C39.9785 12.9639 39.9144 12.6674 39.786 12.3969C39.6624 12.1577 39.4957 11.9434 39.2943 11.7647C39.0828 11.5919 38.8405 11.4608 38.5802 11.3783C38.3095 11.2924 38.0271 11.2489 37.7431 11.2496C37.4223 11.2457 37.104 11.3054 36.8064 11.4252C36.5344 11.5395 36.2785 11.6891 36.0454 11.8701C35.8318 12.0458 35.6358 12.2418 35.46 12.4554C35.2954 12.661 35.1429 12.876 35.0034 13.0994L32.9663 11.6944C33.1616 11.223 33.4347 10.7877 33.7741 10.4066C34.1137 10.0326 34.5086 9.71282 34.9449 9.45828C35.3798 9.19933 35.8488 9.0023 36.3381 8.87289C36.8423 8.73913 37.3619 8.67221 37.8835 8.67386C38.4784 8.67261 39.0702 8.75941 39.6397 8.93143C40.2079 9.0988 40.7372 9.37737 41.1968 9.75097C41.6727 10.1426 42.0564 10.6343 42.3208 11.191C42.6234 11.8473 42.7716 12.5642 42.7539 13.2867C42.7611 13.7359 42.7019 14.1836 42.5783 14.6155C42.4645 14.9864 42.2947 15.3378 42.0749 15.6575C41.8553 15.9711 41.5955 16.2545 41.3022 16.5005C40.9827 16.7641 40.6464 17.0066 40.2953 17.2263C39.9792 17.4137 39.669 17.5951 39.3587 17.7649C39.0554 17.9317 38.7692 18.1278 38.504 18.3503C38.2506 18.5531 38.0347 18.7988 37.866 19.0762C37.6951 19.3794 37.6101 19.7234 37.6201 20.0713L35.0034 20.0889ZM35.0503 25.5505V22.3133H37.6494V25.5505H35.0503Z" fill="white"/>
</svg>
