<svg xmlns="http://www.w3.org/2000/svg" width="20" height="20" fill="none" viewBox="0 0 20 20">
    <path fill="#48DB84" fill-rule="evenodd" d="M3.83 3.125c-1.036 0-1.875.84-1.875 1.875v3.125c1.035 0 1.875.84 1.875 1.875 0 1.036-.84 1.875-1.875 1.875V15c0 1.035.84 1.875 1.875 1.875h12.5c1.035 0 1.875-.84 1.875-1.875v-3.125c-1.036 0-1.875-.84-1.875-1.875 0-1.036.84-1.875 1.875-1.875V5c0-1.036-.84-1.875-1.875-1.875H3.83zM8.25 12.5H6.562V15H8.25v-2.5zM6.562 8.75H8.25v2.5H6.562v-2.5zM8.25 5H6.562v2.5H8.25V5z" clip-rule="evenodd"/>
</svg>
