<svg width="12" height="12" viewBox="0 0 12 12" fill="none" xmlns="http://www.w3.org/2000/svg">
<path fill-rule="evenodd" clip-rule="evenodd" d="M11.625 8.15625C11.625 8.15625 11.5875 6.3 9.75 6.3H9V2.90625C9 2.11875 8.25 1.78125 7.875 1.78125H7.125C7.02554 1.78125 6.93016 1.82076 6.85983 1.89109C6.78951 1.96141 6.75 2.05679 6.75 2.15625C6.75 2.25571 6.78951 2.35109 6.85983 2.42141C6.93016 2.49174 7.02554 2.53125 7.125 2.53125H7.875C7.9125 2.53125 8.25 2.625 8.25 2.90625V6.31875C8.25 6.6375 7.9125 7.875 6.35625 7.875H6.31875C6.17931 7.30005 5.84974 6.82656 5.38347 6.4624C4.9503 6.12408 4.42276 5.93092 3.87569 5.90841C4.41229 5.90907 4.94385 5.80004 5.43754 5.5875C6.01879 5.25 6.05629 4.40625 4.48129 4.40625H0.412537C0.600037 5.55 1.68754 5.90625 3.00004 5.90625H3C2.30381 5.90625 1.63613 6.18281 1.14384 6.67509C0.651562 7.16738 0.375 7.93114 0.375 8.62734C2.38358 8.59337 4.3844 8.60551 6.3375 8.625C6.92826 8.64272 7.6875 8.45625 7.9875 8.15625H11.625ZM10.0152 4.29641C9.94486 4.36674 9.84947 4.40625 9.75002 4.40625C9.65056 4.40625 9.55518 4.36674 9.48485 4.29641C9.41453 4.22609 9.37502 4.13071 9.37502 4.03125V2.90625C9.37502 2.80679 9.41453 2.71141 9.48485 2.64109C9.55518 2.57076 9.65056 2.53125 9.75002 2.53125C9.84947 2.53125 9.94486 2.57076 10.0152 2.64109C10.0855 2.71141 10.125 2.80679 10.125 2.90625V4.03125C10.125 4.13071 10.0855 4.22609 10.0152 4.29641ZM3.46177 9.96164C3.21462 10.1286 2.92329 10.2181 2.62502 10.2188C2.32674 10.2181 2.03542 10.1286 1.78827 9.96164C1.54112 9.79464 1.34937 9.55776 1.23752 9.28125H4.01252C3.90067 9.55776 3.70891 9.79464 3.46177 9.96164ZM10.7378 9.84145C10.4653 10.0829 10.1142 10.2171 9.75002 10.2188C9.38264 10.2216 9.02699 10.0896 8.7505 9.84766C8.47402 9.60574 8.29593 9.27076 8.25002 8.90625H11.2313C11.1858 9.26755 11.0104 9.59995 10.7378 9.84145Z" fill="#32A461"/>
</svg>
