<svg xmlns="http://www.w3.org/2000/svg" width="20" height="20" fill="none" viewBox="0 0 20 20">
    <path fill="#48DB84" fill-rule="evenodd" d="M3.83 2.5c-1.036 0-1.875.84-1.875 1.875v3.75c1.035 0 1.875.84 1.875 1.875 0 1.036-.84 1.875-1.875 1.875v3.75c0 1.035.84 1.875 1.875 1.875h12.5c1.035 0 1.875-.84 1.875-1.875v-3.75c-1.036 0-1.875-.84-1.875-1.875 0-1.036.84-1.875 1.875-1.875v-3.75c0-1.036-.84-1.875-1.875-1.875H3.83zm8.335 3.125l1.463 1.024-5.634 8.046-1.463-1.024 5.634-8.046zM8.141 8.258c-.424.606-1.26.753-1.865.329-.606-.424-.753-1.26-.329-1.866.424-.606 1.26-.753 1.865-.329.606.425.754 1.26.33 1.866zm6.071 5.34c-.424.607-1.26.754-1.865.33-.606-.424-.753-1.26-.33-1.866.425-.605 1.26-.753 1.866-.329.606.425.754 1.26.33 1.866z" clip-rule="evenodd"/>
</svg>
