<svg width="24" height="28" viewBox="0 0 24 28" fill="none" xmlns="http://www.w3.org/2000/svg">
<path d="M21.3333 3.33341H18.6667V0.666748H16V3.33341H8V0.666748H5.33333V3.33341H2.66667C1.196 3.33341 0 4.52941 0 6.00008V24.6667C0 26.1374 1.196 27.3334 2.66667 27.3334H21.3333C22.804 27.3334 24 26.1374 24 24.6667V6.00008C24 4.52941 22.804 3.33341 21.3333 3.33341ZM15.216 23.3334L11.9507 21.6161L8.68533 23.3334L9.30933 19.6961L6.66667 17.1227L10.3173 16.5921L11.9507 13.2854L13.584 16.5921L17.2347 17.1227L14.5933 19.6974L15.216 23.3334ZM21.3333 10.0001H2.66667V7.33342H21.3333V10.0001Z" fill="#393C47"/>
</svg>
