<svg width="120" height="120" viewBox="0 0 120 120" fill="none" xmlns="http://www.w3.org/2000/svg">
<circle opacity="0.04" cx="60" cy="60" r="60" fill="#72788D"/>
<circle opacity="0.04" cx="59.9999" cy="59.9996" r="46.2857" fill="#72788D"/>
<path d="M80.3813 8.43697L61.6985 5.14269L55.341 41.1978L109.424 50.7341L115.781 14.6789L97.0984 11.3846C95.179 14.4523 91.5294 16.2114 87.7465 15.5444C83.9636 14.8774 81.1357 11.9761 80.3813 8.43697Z" fill="#A23EF0"/>
<path d="M109.423 50.7329L55.3405 41.1966L47.3936 86.2655L66.0764 89.5598C67.9958 86.4921 71.6454 84.733 75.4283 85.4C79.2112 86.0671 82.0391 88.9683 82.7935 92.5075L101.476 95.8018L109.423 50.7329Z" fill="#A23EF0"/>
<path d="M61.9811 52.6244L61.976 52.6537C61.7539 53.9133 62.5139 54.9988 63.7736 55.221L72.0347 56.6776C73.2944 56.8997 74.3799 56.1397 74.602 54.88L74.6072 54.8507C74.8293 53.591 74.0692 52.5055 72.8096 52.2834L64.5484 50.8267C63.2887 50.6046 62.2032 51.3647 61.9811 52.6244Z" fill="white"/>
<path d="M70.206 54.0746L70.2008 54.1039C69.9787 55.3636 70.7388 56.4491 71.9985 56.6712L80.2596 58.1279C81.5193 58.35 82.6048 57.5899 82.8269 56.3302L82.832 56.3009C83.0542 55.0413 82.2941 53.9558 81.0344 53.7337L72.7733 52.277C71.5136 52.0549 70.4281 52.815 70.206 54.0746Z" fill="white"/>
<path d="M78.4308 55.5249L78.4257 55.5542C78.2036 56.8139 78.9636 57.8994 80.2233 58.1215L88.4844 59.5781C89.7441 59.8003 90.8296 59.0402 91.0517 57.7805L91.0569 57.7512C91.279 56.4915 90.5189 55.406 89.2593 55.1839L80.9981 53.7273C79.7385 53.5051 78.653 54.2652 78.4308 55.5249Z" fill="white"/>
<path d="M86.6557 56.9752L86.6505 57.0045C86.4284 58.2641 87.1885 59.3496 88.4482 59.5717L96.7093 61.0284C97.969 61.2505 99.0545 60.4904 99.2766 59.2308L99.2818 59.2015C99.5039 57.9418 98.7438 56.8563 97.4841 56.6342L89.223 55.1775C87.9633 54.9554 86.8778 55.7155 86.6557 56.9752Z" fill="white"/>
<path d="M59.9142 62.7157L59.909 62.745C59.6869 64.0047 60.447 65.0902 61.7066 65.3123L69.9678 66.7689C71.2274 66.991 72.3129 66.231 72.5351 64.9713L72.5402 64.942C72.7623 63.6823 72.0023 62.5968 70.7426 62.3747L62.4814 60.9181C61.2218 60.6959 60.1363 61.456 59.9142 62.7157Z" fill="white"/>
<path d="M76.9217 65.7146L76.9166 65.7439C76.6945 67.0036 77.4545 68.0891 78.7142 68.3112L86.9753 69.7678C88.235 69.9899 89.3205 69.2299 89.5426 67.9702L89.5478 67.9409C89.7699 66.6812 89.0098 65.5957 87.7502 65.3736L79.489 63.9169C78.2293 63.6948 77.1438 64.4549 76.9217 65.7146Z" fill="white"/>
<path d="M85.1466 67.1648L85.1414 67.1941C84.9193 68.4538 85.6794 69.5393 86.9391 69.7614L95.2002 71.2181C96.4599 71.4402 97.5454 70.6801 97.7675 69.4205L97.7726 69.3912C97.9948 68.1315 97.2347 67.046 95.975 66.8239L87.7139 65.3672C86.4542 65.1451 85.3687 65.9052 85.1466 67.1648Z" fill="white"/>
<path d="M57.8472 72.807L57.842 72.8363C57.6199 74.096 58.38 75.1815 59.6397 75.4036L67.9008 76.8603C69.1605 77.0824 70.246 76.3223 70.4681 75.0626L70.4732 75.0333C70.6954 73.7736 69.9353 72.6882 68.6756 72.466L60.4145 71.0094C59.1548 70.7873 58.0693 71.5473 57.8472 72.807Z" fill="white"/>
<path d="M83.6375 77.3545L83.6323 77.3838C83.4102 78.6435 84.1703 79.729 85.4299 79.9511L93.6911 81.4078C94.9507 81.6299 96.0362 80.8698 96.2584 79.6101L96.2635 79.5808C96.4856 78.3212 95.7256 77.2357 94.4659 77.0136L86.2048 75.5569C84.9451 75.3348 83.8596 76.0949 83.6375 77.3545Z" fill="white"/>
<path d="M88.9955 26.3666L91.1062 28.4773L79.4974 40.086L77.3867 37.9754L88.9955 26.3666Z" fill="white"/>
<path d="M81.6081 29.5326C80.7338 30.4069 79.3163 30.4069 78.4421 29.5326C77.5678 28.6583 77.5678 27.2408 78.4421 26.3666C79.3163 25.4923 80.7338 25.4923 81.6081 26.3666C82.4824 27.2408 82.4824 28.6583 81.6081 29.5326Z" fill="white"/>
<path d="M86.8848 40.086C87.7591 40.9603 89.1766 40.9603 90.0509 40.086C90.9251 39.2118 90.9251 37.7943 90.0509 36.92C89.1766 36.0457 87.7591 36.0457 86.8848 36.92C86.0106 37.7943 86.0106 39.2118 86.8848 40.086Z" fill="white"/>
<path d="M17.8269 31.1024L3.05176e-05 37.5908L12.5218 71.9942L64.1269 53.2115L51.6051 18.8081L33.7782 25.2966C33.6498 28.913 31.3687 32.2612 27.7591 33.575C24.1495 34.8888 20.2499 33.7901 17.8269 31.1024Z" fill="#AEF5CB"/>
<path d="M64.1272 53.2123L12.5221 71.995L28.1744 114.999L46.0013 108.511C46.1296 104.894 48.4108 101.546 52.0204 100.232C55.63 98.9186 59.5296 100.017 61.9525 102.705L79.7795 96.2165L64.1272 53.2123Z" fill="#AEF5CB"/>
<path d="M23.9861 78.5702L23.9962 78.5981C24.4337 79.8001 25.6347 80.3601 26.8367 79.9226L34.7194 77.0536C35.9213 76.6161 36.4814 75.4151 36.0439 74.2131L36.0337 74.1852C35.5962 72.9832 34.3952 72.4232 33.1933 72.8607L25.3106 75.7297C24.1086 76.1672 23.5486 77.3682 23.9861 78.5702Z" fill="#48DB84"/>
<path d="M31.8341 75.7137L31.8443 75.7417C32.2818 76.9436 33.4828 77.5037 34.6847 77.0662L42.5674 74.1971C43.7694 73.7596 44.3294 72.5586 43.8919 71.3567L43.8818 71.3287C43.4443 70.1268 42.2433 69.5667 41.0413 70.0042L33.1586 72.8733C31.9567 73.3107 31.3966 74.5117 31.8341 75.7137Z" fill="#48DB84"/>
<path d="M39.6822 72.8572L39.6924 72.8852C40.1298 74.0872 41.3308 74.6472 42.5328 74.2097L50.4155 71.3407C51.6175 70.9032 52.1775 69.7022 51.74 68.5002L51.7298 68.4723C51.2924 67.2703 50.0914 66.7103 48.8894 67.1477L41.0067 70.0168C39.8047 70.4543 39.2447 71.6553 39.6822 72.8572Z" fill="#48DB84"/>
<path d="M47.5303 70.0008L47.5404 70.0287C47.9779 71.2307 49.1789 71.7907 50.3809 71.3533L58.2636 68.4842C59.4655 68.0467 60.0256 66.8457 59.5881 65.6438L59.5779 65.6158C59.1404 64.4138 57.9394 63.8538 56.7375 64.2913L48.8548 67.1603C47.6528 67.5978 47.0928 68.7988 47.5303 70.0008Z" fill="#48DB84"/>
<path d="M27.2417 88.343L27.2518 88.371C27.6893 89.5729 28.8903 90.133 30.0923 89.6955L37.975 86.8264C39.1769 86.3889 39.737 85.1879 39.2995 83.986L39.2893 83.958C38.8518 82.756 37.6508 82.196 36.4489 82.6335L28.5662 85.5026C27.3642 85.94 26.8042 87.141 27.2417 88.343Z" fill="#48DB84"/>
<path d="M43.4701 82.4363L43.4803 82.4643C43.9178 83.6663 45.1187 84.2263 46.3207 83.7888L54.2034 80.9197C55.4054 80.4823 55.9654 79.2813 55.5279 78.0793L55.5177 78.0513C55.0803 76.8494 53.8793 76.2893 52.6773 76.7268L44.7946 79.5959C43.5927 80.0334 43.0326 81.2344 43.4701 82.4363Z" fill="#48DB84"/>
<path d="M51.3182 79.5799L51.3283 79.6078C51.7658 80.8098 52.9668 81.3698 54.1688 80.9323L62.0515 78.0633C63.2534 77.6258 63.8135 76.4248 63.376 75.2228L63.3658 75.1949C62.9283 73.9929 61.7273 73.4329 60.5254 73.8704L52.6427 76.7394C51.4407 77.1769 50.8807 78.3779 51.3182 79.5799Z" fill="#48DB84"/>
<path d="M30.4973 98.1158L30.5074 98.1438C30.9449 99.3457 32.1459 99.9058 33.3479 99.4683L41.2306 96.5992C42.4325 96.1618 42.9926 94.9608 42.5551 93.7588L42.5449 93.7308C42.1074 92.5289 40.9064 91.9688 39.7045 92.4063L31.8218 95.2754C30.6198 95.7129 30.0598 96.9139 30.4973 98.1158Z" fill="#48DB84"/>
<path d="M55.1061 89.159L55.1163 89.1869C55.5537 90.3889 56.7547 90.9489 57.9567 90.5114L65.8394 87.6424C67.0413 87.2049 67.6014 86.0039 67.1639 84.8019L67.1537 84.774C66.7162 83.572 65.5152 83.012 64.3133 83.4495L56.4306 86.3185C55.2286 86.756 54.6686 87.957 55.1061 89.159Z" fill="#48DB84"/>
<g clip-path="url(#clip0_0:23)">
<path d="M34.1813 42.6206L37.0645 43.3931L32.8154 59.251L29.9322 58.4785L34.1813 42.6206Z" fill="#48DB84"/>
<path d="M29.3666 49.0561C29.0466 50.2504 27.819 50.9592 26.6247 50.6391C25.4305 50.3191 24.7217 49.0916 25.0417 47.8973C25.3617 46.703 26.5893 45.9943 27.7836 46.3143C28.9779 46.6343 29.6866 47.8618 29.3666 49.0561Z" fill="#48DB84"/>
<path d="M39.2131 55.5573C40.4074 55.8773 41.635 55.1686 41.955 53.9743C42.275 52.78 41.5662 51.5524 40.372 51.2324C39.1777 50.9124 37.9501 51.6212 37.6301 52.8155C37.3101 54.0097 38.0188 55.2373 39.2131 55.5573Z" fill="#48DB84"/>
</g>
<defs>
<clipPath id="clip0_0:23">
<rect width="23.8797" height="23.8797" fill="white" transform="translate(18.2955 43.6377) rotate(-20)"/>
</clipPath>
</defs>
</svg>
