<svg width="400" height="280" viewBox="0 0 400 280" fill="none" xmlns="http://www.w3.org/2000/svg">
<rect width="400" height="280" fill="white"/>
<g clip-path="url(#clip0)">
<path fill-rule="evenodd" clip-rule="evenodd" d="M301.013 90.0192C307.433 89.9312 312.818 95.2181 312.853 101.61C312.874 108.082 307.592 113.435 301.075 113.538C294.736 113.641 289.383 108.387 289.155 102.07C288.906 95.1515 295.02 89.6264 301.013 90.0192ZM282.072 140.228C281.505 156.228 269.803 167.703 255.7 169.674C247.959 170.786 240.086 168.898 233.691 164.397C227.295 159.896 222.861 153.121 221.296 145.459C217.795 128.525 229.405 111.735 246.515 109.057C251.464 108.248 256.536 108.696 261.266 110.359C262.21 110.69 262.582 110.508 262.949 109.591C264.071 106.79 265.228 104.003 266.385 101.216C266.983 99.776 267.58 98.3363 268.173 96.8945C269.259 94.2564 271.146 92.5628 273.969 91.9575C278.464 90.9809 282.724 94.5333 282.641 99.1268C282.609 100.862 282.62 102.597 282.63 104.332V104.334C282.635 105.202 282.641 106.07 282.641 106.938L282.072 140.228ZM214.79 140.151C215.043 156.181 202.091 170.846 184.172 170.878C167.185 170.916 153.52 157.157 153.477 140.303C153.434 123.449 167.215 109.582 184.02 109.557C188.052 109.535 192.048 110.311 195.779 111.839C199.511 113.367 202.903 115.617 205.763 118.459C208.622 121.302 210.891 124.682 212.44 128.404C213.99 132.127 214.788 136.119 214.79 140.151ZM289.173 138.046V138.048V138.05C289.175 139.696 289.177 141.341 289.177 142.984L289.185 157.949V158.22C289.136 161.24 290.196 163.854 292.206 166.065C295.548 169.742 300.656 170.985 305.142 169.268C307.389 168.423 309.324 166.913 310.69 164.94C312.057 162.967 312.789 160.624 312.79 158.224C312.81 155.199 312.804 152.174 312.797 149.149V149.145V149.144V149.144C312.794 147.631 312.79 146.119 312.79 144.607C312.79 142.765 312.789 140.922 312.787 139.08V139.079V139.065C312.785 135.384 312.782 131.703 312.79 128.023C312.797 124.702 311.631 121.832 309.246 119.574C305.481 116.009 300.985 115.142 296.282 117.192C291.645 119.212 289.196 122.989 289.177 128.154C289.165 131.45 289.169 134.749 289.173 138.046ZM112.187 170.62C112.024 171.517 111.857 172.405 111.691 173.288C111.303 175.349 110.92 177.38 110.603 179.421C110.174 182.14 109.292 184.538 106.877 186.139C102.562 188.999 96.9901 186.693 95.7322 181.683C95.4056 180.383 95.0796 179.083 94.7537 177.782L94.7511 177.772C92.3101 168.034 89.8684 158.293 87.1462 148.627C82.2093 131.047 93.7124 112.821 111.756 110.007C127.855 107.496 142.687 117.389 146.561 133.235C150.769 150.439 138.767 168.096 121.233 170.494C119.767 170.714 118.289 170.845 116.807 170.886C115.787 170.912 114.767 170.826 113.685 170.736L113.684 170.736C113.2 170.695 112.703 170.653 112.187 170.62ZM98.5914 196.915C98.5787 195.573 99.0965 194.281 100.032 193.32C100.968 192.359 102.245 191.806 103.586 191.782C106.325 191.735 108.738 194.032 108.798 196.73C108.811 197.416 108.687 198.097 108.434 198.735C108.181 199.372 107.804 199.953 107.325 200.443C106.846 200.933 106.274 201.324 105.642 201.591C105.01 201.858 104.332 201.997 103.646 202C102.304 201.99 101.019 201.45 100.073 200.497C99.1259 199.545 98.5936 198.258 98.5914 196.915Z" fill="#E1E3EE"/>
</g>
<defs>
<clipPath id="clip0">
<rect width="226.853" height="112" fill="white" transform="translate(86 90)"/>
</clipPath>
</defs>
</svg>
