<svg width="160" height="160" viewBox="0 0 160 160" fill="none" xmlns="http://www.w3.org/2000/svg">
<path d="M90.3121 9.40495L108.829 46.7671L150.146 52.7451C159.565 54.1328 163.311 65.6617 156.568 72.2802L126.705 101.316L133.769 142.414C135.375 151.808 125.527 158.96 117.071 154.477L80.1436 135.049L43.2159 154.477C34.7599 158.854 24.9125 151.808 26.5181 142.414L33.5825 101.316L3.50517 72.2802C-3.34519 65.6617 0.401097 54.1328 9.92738 52.7451L51.2436 46.7671L69.654 9.40495C73.9354 0.865018 86.1376 0.865018 90.3121 9.40495Z" fill="#FEEEC9"/>
<path d="M50.905 117.86C51.8883 105.615 55.1955 89.1676 65.2067 74.0615" stroke="white" stroke-width="0.7" stroke-miterlimit="10" stroke-linecap="round" stroke-linejoin="round"/>
<path d="M17.1173 74.6871L2.10055 61.905C1.65362 61.5475 1.65362 60.9218 1.92178 60.4749C2.27932 60.0279 2.81563 59.9385 3.26256 60.2961L6.56982 62.6201L2.81563 59.1341C2.45809 58.8659 2.45809 58.3296 2.72624 57.9721C2.9944 57.6145 3.53071 57.5251 3.88826 57.7933L7.99999 60.8324L4.33518 57.3464C3.88826 56.9888 3.88826 56.3631 4.33518 55.9162C4.69272 55.5586 5.22904 55.4693 5.67597 55.7374L10.4134 59.1341L7.46367 56.2737C7.01675 55.8268 7.01675 55.1117 7.55306 54.6648C7.9106 54.3073 8.5363 54.3072 8.98323 54.5754L23.8212 67L17.1173 74.6871Z" fill="#FD88D0"/>
<path d="M10.2346 59.1341L12.5586 60.8324" stroke="white" stroke-width="0.7" stroke-miterlimit="10" stroke-linecap="round" stroke-linejoin="round"/>
<path d="M8 60.8324L10.5922 62.8883" stroke="white" stroke-width="0.7" stroke-miterlimit="10" stroke-linecap="round" stroke-linejoin="round"/>
<path d="M6.56982 62.6201L9.07262 64.4078" stroke="white" stroke-width="0.7" stroke-miterlimit="10" stroke-linecap="round" stroke-linejoin="round"/>
<path d="M14.5251 64.9441L10.5922 65.7486" stroke="white" stroke-width="0.7" stroke-miterlimit="10" stroke-linecap="round" stroke-linejoin="round"/>
<path d="M13.1843 71.1117L3.44129 69.4134C2.63682 69.2346 2.01112 68.5196 2.18989 67.6257L5.58654 47.6034C5.76531 46.7989 6.4804 46.1732 7.37425 46.352L17.1173 47.9609C17.9217 48.1397 18.5474 48.8548 18.3687 49.7486L14.972 69.771C14.8826 70.6648 14.0782 71.2011 13.1843 71.1117Z" fill="#2A2B3C"/>
<path d="M13.4525 68.9665L3.88824 67.3575C3.44131 67.2681 3.08377 66.8212 3.17315 66.3743L6.30164 48.0503C6.39103 47.6033 6.83796 47.2458 7.28488 47.3352L16.8491 48.9441C17.2961 49.0335 17.6536 49.4804 17.5642 49.9274L14.4357 68.2514C14.3463 68.6983 13.8994 68.9665 13.4525 68.9665Z" fill="#F2F2F3"/>
<path d="M13.5419 49.0335L10.324 48.4972C10.1452 48.4972 9.96643 48.3184 10.0558 48.1397L10.1452 47.4246C10.1452 47.2458 10.324 47.0671 10.5027 47.1564L13.7206 47.6927C13.8994 47.6927 14.0782 47.8715 13.9888 48.0503L13.8994 48.7654C13.8994 48.9441 13.81 49.0335 13.5419 49.0335Z" fill="#2A2B3C"/>
<path d="M9.51951 58.0615L5.8547 57.4358C5.67593 57.4358 5.58655 57.257 5.58655 57.0782L6.4804 51.7151C6.4804 51.5363 6.65917 51.4469 6.83794 51.4469L10.5027 52.0726C10.6815 52.0726 10.7709 52.2514 10.7709 52.4302L9.87705 57.7933C9.87705 57.9721 9.69828 58.0615 9.51951 58.0615Z" fill="#4093F5"/>
<path d="M14.4357 58.8659L10.7709 58.2402C10.5921 58.2402 10.5027 58.0615 10.5027 57.8827L11.3966 52.5196C11.3966 52.3408 11.5754 52.2514 11.7541 52.2514L15.4189 52.8771C15.5977 52.8771 15.6871 53.0559 15.6871 53.2346L14.7932 58.5978C14.7932 58.7765 14.6145 58.9553 14.4357 58.8659Z" fill="#48DB84"/>
<path d="M15.9553 59.1341L15.6871 59.0447C15.5083 59.0447 15.4189 58.8659 15.4189 58.6872L16.3128 53.324C16.3128 53.1453 16.4916 53.0559 16.6703 53.0559L16.9385 53.1452L15.9553 59.1341Z" fill="#EA3E72"/>
<path d="M7.64241 63.1564L4.96084 62.7095C4.78207 62.7095 4.69269 62.5307 4.69269 62.352L5.31839 58.3296C5.31839 58.1509 5.49716 58.0615 5.67593 58.0615L8.35749 58.5084C8.53626 58.5084 8.62565 58.6872 8.62565 58.8659L7.99995 62.8883C7.99995 63.0671 7.82118 63.1564 7.64241 63.1564Z" fill="#48DB84"/>
<path d="M7.19545 67.8939L4.15634 67.3575C3.97757 67.3575 3.88818 67.1788 3.88818 67L4.51388 63.4246C4.51388 63.2458 4.69265 63.1564 4.87142 63.1564L7.55299 63.6034C7.73176 63.6034 7.82114 63.7821 7.82114 63.9609L7.19545 67.8939Z" fill="#EA3E72"/>
<path d="M15.8658 51.6257C15.9552 51.6257 16.0446 51.6257 16.134 51.5363L16.3128 51.8045L16.4022 51.7151L16.2234 51.4469C16.3128 51.3575 16.3128 51.2682 16.4022 51.1788C16.4022 50.9106 16.3128 50.7318 16.0446 50.6425C15.7765 50.6425 15.5977 50.7318 15.5083 51C15.5083 51.3575 15.5977 51.5363 15.8658 51.6257ZM15.9552 50.8212C16.134 50.8212 16.2234 51 16.2234 51.1788C16.2234 51.3575 16.0446 51.4469 15.8658 51.4469C15.6871 51.4469 15.5977 51.2682 15.5977 51.0894C15.6871 50.9106 15.7765 50.8212 15.9552 50.8212Z" fill="#48DB84"/>
<path d="M9.43008 50.1061C9.43008 50.2849 9.25131 50.4637 8.98315 50.4637C8.80438 50.4637 8.62561 50.2849 8.62561 50.1061C8.62561 49.838 8.80438 49.6592 9.07254 49.6592C9.16192 49.6592 9.16192 49.6592 9.25131 49.7486C9.25131 49.6592 9.34069 49.6592 9.34069 49.5698L9.43008 49.4805C9.51947 49.4805 9.51947 49.5698 9.51947 49.5698V49.6592L9.43008 50.1061Z" fill="#48DB84"/>
<path d="M7.19546 50.1061V50.1955C7.19546 50.1955 7.19546 50.2849 7.10608 50.2849C7.01669 50.2849 7.01669 50.2849 6.92731 50.1955C6.92731 50.0168 6.92731 49.9274 6.92731 49.7486C6.92731 49.4805 7.10608 49.3017 7.37423 49.3017C7.55301 49.3017 7.73178 49.4804 7.82116 49.6592C7.82116 49.9274 7.64239 50.1061 7.37423 50.1061C7.28485 50.1061 7.19546 50.1061 7.19546 50.1061Z" fill="#48DB84"/>
<path d="M8.53622 49.9274C8.53622 50.1062 8.26806 50.2849 8.08929 50.2849C7.82114 50.2849 7.73175 50.0168 7.73175 49.838C7.73175 49.6592 7.99991 49.4805 8.17868 49.4805C8.44683 49.4805 8.62561 49.6592 8.53622 49.9274Z" fill="#48DB84"/>
<path d="M9.51947 50.1061C9.51947 50.0167 9.51947 50.0168 9.51947 49.9274C9.51947 49.838 9.60886 49.838 9.60886 49.838C9.69824 49.838 9.69824 49.838 9.78763 49.9274V50.0168C9.78763 50.1061 9.78763 50.1955 9.78763 50.1955C9.78763 50.2849 9.78763 50.2849 9.78763 50.3743C9.78763 50.4637 9.69824 50.4637 9.69824 50.4637C9.60886 50.4637 9.60886 50.4637 9.51947 50.3743V50.2849C9.51947 50.2849 9.51947 50.1955 9.51947 50.1061Z" fill="#48DB84"/>
<path d="M9.78763 49.4805C9.87702 49.4805 9.96641 49.5698 9.87702 49.6592C9.87702 49.7486 9.78763 49.838 9.69825 49.7486C9.60886 49.7486 9.51948 49.6592 9.60886 49.5698C9.60886 49.4805 9.69825 49.3911 9.78763 49.4805Z" fill="#48DB84"/>
<path d="M6.92731 50.3743C7.01669 50.2849 7.10608 50.3743 7.10608 50.3743C7.01669 50.4637 7.01669 50.4637 6.92731 50.3743C6.92731 50.4637 6.92731 50.4637 6.92731 50.3743Z" fill="#48DB84"/>
<path d="M14.3463 61.3687L9.34069 60.5642C9.07254 60.5642 8.89377 60.2961 8.98315 60.0279L9.07254 59.7598C9.07254 59.4916 9.34069 59.3128 9.60885 59.4022L14.6144 60.2067C14.8826 60.2067 15.0614 60.4748 14.972 60.743L14.8826 61.0112C14.8826 61.2793 14.6144 61.4581 14.3463 61.3687Z" fill="#CCCCD0"/>
<path d="M11.8435 61.905L8.8938 61.4581C8.80441 61.4581 8.71503 61.2793 8.71503 61.1899V61.0112C8.71503 60.9218 8.8938 60.8324 8.98318 60.8324L11.9329 61.3687C12.0223 61.3687 12.1117 61.5475 12.1117 61.6369V61.8156C12.1117 61.905 12.0223 61.9944 11.8435 61.905Z" fill="#CCCCD0"/>
<path d="M12.5586 66.3743L8.44689 65.6592C8.17874 65.6592 7.99997 65.3911 8.08935 65.1229L8.17874 64.8547C8.17874 64.5866 8.4469 64.4078 8.71505 64.4972L12.8268 65.2123C13.0949 65.2123 13.2737 65.4804 13.1843 65.7486L13.0949 66.0168C13.0949 66.1955 12.8268 66.3743 12.5586 66.3743Z" fill="#CCCCD0"/>
<path d="M9.96642 66.9106L7.99994 66.5531C7.91055 66.5531 7.82117 66.3743 7.82117 66.2849V66.1061C7.82117 66.0168 7.99994 65.9274 8.08932 65.9274L10.0558 66.2849C10.1452 66.2849 10.2346 66.4637 10.2346 66.5531V66.7318C10.2346 66.8212 10.1452 66.9106 9.96642 66.9106Z" fill="#CCCCD0"/>
<path d="M25.4302 65.1229L20.4246 60.4749L16.9385 56.0056C16.4916 55.4693 15.7765 55.3799 15.2402 55.7374C14.6145 56.095 14.4357 56.8995 14.8827 57.5252L16.6704 61.5475L16.4916 62.4414C16.1341 64.2291 16.7598 66.1062 18.2793 67.2682L21.4972 69.771L25.4302 65.1229Z" fill="#FD88D0"/>
<path d="M18.19 67.0894C16.7598 65.9274 16.0447 64.0503 16.4022 62.2626L16.581 61.3687L16.1341 60.2961" stroke="#B74190" stroke-width="0.7" stroke-miterlimit="10" stroke-linecap="round" stroke-linejoin="round"/>
<path d="M101.229 58.8659C80.4916 51 53.8547 80.4972 43.486 94.7989C33.1173 109.101 40.2681 119.559 47.5977 117.95C70.4804 112.765 113.832 63.6033 101.229 58.8659Z" fill="#48DB84"/>
<path d="M28.7374 61.2793C41.162 71.4693 53.676 90.0615 61.095 100.698C66.7263 108.743 45.095 118.844 42.324 117.056C39.5531 115.268 15.8659 95.2458 9.43018 75.0447C9.43018 75.0447 26.2346 59.2235 28.7374 61.2793Z" fill="#48DB84"/>
<path d="M129.743 139.76C129.743 139.76 131.263 71.3799 111.687 60.0279C99.0838 52.6983 77.9889 58.6872 73.6984 68.2514C65.2067 86.933 50.8157 136.989 50.8157 136.989C50.8157 136.989 97.1173 149.145 129.743 139.76Z" fill="#48DB84"/>
<path d="M108.022 60.8324C93.095 77.2793 106.145 106.419 115.62 121.346C125.095 136.274 143.598 122.598 143.687 117.324C143.866 112.14 117.05 50.8212 108.022 60.8324Z" fill="#48DB84"/>
<path d="M77.4525 144.05L74.324 145.749L74.5921 154.687C74.5921 155.313 75.1284 155.76 75.6648 155.76C76.2011 155.76 76.648 155.402 76.7374 154.866L77.8994 147.983L87.9106 144.05L84.4245 134.754L77.4525 144.05Z" fill="#FD88D0"/>
<path d="M75.3966 149.413L72.4469 151.201L70.4804 156.922C70.3016 157.458 69.6759 157.726 69.1396 157.547C68.6033 157.369 68.3351 156.832 68.5139 156.296L71.4636 144.676L76.0223 146.374L75.3966 149.413Z" fill="#FD88D0"/>
<path d="M71.0167 150.128L66.8156 154.955C66.4581 155.402 65.743 155.492 65.2961 155.045C64.9385 154.687 64.8492 154.151 65.0279 153.704L70.7486 142.978L71.0167 150.128Z" fill="#FD88D0"/>
<path d="M84.4246 134.754L70.3016 139.581L63.419 151.827C63.1508 152.274 63.2402 152.899 63.6871 153.168C64.1341 153.525 64.7597 153.525 65.2067 153.078L70.391 147.179L75.3966 147L78.6145 144.229L84.4246 134.754Z" fill="#FD88D0"/>
<path d="M69.8547 151.112L71.2849 145.659L71.4637 144.676" stroke="#B74190" stroke-width="0.7" stroke-miterlimit="10" stroke-linecap="round" stroke-linejoin="round"/>
<path d="M74.4133 149.145V145.749L77.4524 144.05" stroke="#B74190" stroke-width="0.7" stroke-miterlimit="10" stroke-linecap="round" stroke-linejoin="round"/>
<path d="M65.7429 152.453L69.7653 144.587" stroke="#B74190" stroke-width="0.7" stroke-miterlimit="10" stroke-linecap="round" stroke-linejoin="round"/>
<path d="M102.838 69.5922C98.4581 82.4637 103.732 98.8212 109.989 111.425" stroke="white" stroke-width="0.7" stroke-miterlimit="10" stroke-linecap="round" stroke-linejoin="round"/>
<path d="M143.777 117.324C143.061 114.821 140.827 114.374 138.503 114.732C136.358 109.816 132.782 105.436 128.134 105.883C118.391 106.777 89.0726 119.38 76.5587 129.57C74.1453 131.536 86.4805 153.615 86.4805 153.615C107.486 151.29 138.056 129.749 140.38 127.425C140.38 127.514 145.475 123.313 143.777 117.324Z" fill="#48DB84"/>
<path d="M86.4804 153.615C86.4804 153.615 74.0558 131.536 76.5586 129.57C84.7821 122.866 100.246 115.089 112.67 110.352" stroke="white" stroke-width="0.7" stroke-miterlimit="10" stroke-linecap="round" stroke-linejoin="round"/>
<path d="M129.743 134.933L115.709 143.156" stroke="white" stroke-width="0.7" stroke-miterlimit="10" stroke-linecap="round" stroke-linejoin="round"/>
<path d="M73.6983 68.2514C68.6033 79.4246 61.4525 101.86 56.4469 118.129" stroke="white" stroke-width="0.7" stroke-miterlimit="10" stroke-linecap="round" stroke-linejoin="round"/>
<path d="M47.6871 82.0168L52.8715 88.8994" stroke="white" stroke-width="0.7" stroke-miterlimit="10" stroke-linecap="round" stroke-linejoin="round"/>
<path d="M87.2849 49.4804C87.2849 49.4804 87.4637 56.8101 87.7318 58.419C87.8212 58.9553 89.6983 59.9385 89.6983 59.9385C89.6983 59.9385 95.3296 59.4022 96.3129 58.419C95.5978 56.3631 95.1508 53.324 95.1508 49.4804C95.1508 45.8156 87.2849 49.4804 87.2849 49.4804Z" fill="#EA7DC5"/>
<path d="M96.1341 43.581C96.1341 43.581 94.4357 53.5028 88.1788 53.6815C81.9218 53.8603 85.8547 40.095 86.7486 39.7374C87.7318 39.3799 93.8101 38.0391 96.1341 43.581Z" fill="#FD88D0"/>
<path d="M97.8324 37.5028L99.2626 37.324C100.425 37.2346 100.425 35.3575 99.2626 35.4469C98.5475 35.5363 97.743 35.6257 97.028 35.7151C97.1173 35.3575 97.2067 35.0894 97.2067 34.7318C97.2961 33.5698 95.5084 33.5698 95.3296 34.7318C95.3296 35 95.2402 35.2681 95.1509 35.4469C94.257 34.5531 93.0056 34.1955 91.4861 33.9274C88.7151 33.391 84.7821 33.838 82.6369 35.8938C81.2067 37.2346 80.9386 39.1117 82.5475 40.5419C83.6201 41.4357 85.2291 41.4357 86.5699 41.4357C88.4469 41.5251 90.2347 41.4357 92.0224 41.257C92.5587 41.9721 93.1844 42.5978 93.5419 43.3128C94.3464 45.3687 93.7207 47.9609 94.4358 50.1061C94.9721 51.0894 104.179 44.9218 97.8324 37.5028Z" fill="black"/>
<path d="M92.9162 45.3687C92.9162 45.3687 93.8994 43.581 95.5977 43.7598C97.2961 44.0279 97.743 48.1397 94.7933 48.4972C91.8435 48.9441 92.9162 45.3687 92.9162 45.3687Z" fill="#FD88D0"/>
<path d="M89.6983 59.9385L92.1117 63.8715L97.8324 56.7207L95.5977 55.9162L89.6983 59.9385Z" fill="#D3F6E1"/>
<path d="M89.6983 59.9385L86.5698 63.067L86.2123 58.7765L87.6424 57.7039L89.6983 59.9385Z" fill="#D3F6E1"/>
</svg>
