<svg width="22" height="24" viewBox="0 0 22 24" fill="none" xmlns="http://www.w3.org/2000/svg">
<path d="M8.33337 24V13.3333H9.66671C11.872 13.3333 13.6667 11.5387 13.6667 9.33333V0H11V9.33333C11 10.0693 10.4027 10.6667 9.66671 10.6667H8.33337V0H5.66671V10.6667H4.33337C3.59737 10.6667 3.00004 10.0693 3.00004 9.33333V0H0.333374V9.33333C0.333374 11.5387 2.12804 13.3333 4.33337 13.3333H5.66671V24H8.33337ZM21.6667 24V1.33333C21.6667 0.596 21.0707 0 20.3334 0H19C17.4547 0 16.3334 1.68267 16.3334 4V13.3333H19V24H21.6667Z" fill="#393C47"/>
</svg>
