<svg width="28" height="25" viewBox="0 0 28 25" fill="none" xmlns="http://www.w3.org/2000/svg">
<path d="M13.9999 2.12665C12.5279 0.785316 10.6506 0.0493164 8.67189 0.0493164C6.56789 0.0493164 4.57589 0.879983 3.05456 2.39332C-0.0827739 5.54398 -0.0814407 10.472 3.05723 13.6093L12.8332 23.3853C13.0599 23.784 13.4972 24.0413 13.9999 24.0413C14.4292 24.0413 14.8119 23.824 15.0559 23.496L24.9426 13.6093C28.0812 10.4706 28.0812 5.54398 24.9399 2.38798C23.4239 0.879983 21.4319 0.0493164 19.3279 0.0493164C17.3506 0.0493164 15.4719 0.785316 13.9999 2.12665ZM23.0546 4.27332C25.1386 6.36798 25.1399 9.63998 23.0572 11.724L13.9999 20.7813L4.94256 11.724C2.85989 9.63998 2.86123 6.36798 4.93989 4.27865C5.95323 3.27065 7.27856 2.71598 8.67189 2.71598C10.0652 2.71598 11.3852 3.27065 12.3906 4.27598L13.0572 4.94265C13.5786 5.46398 14.4212 5.46398 14.9426 4.94265L15.6092 4.27598C17.6252 2.26398 21.0412 2.26932 23.0546 4.27332Z" fill="#393C47"/>
</svg>
