<svg width="113" height="141" viewBox="0 0 113 141" fill="none" xmlns="http://www.w3.org/2000/svg">
<path d="M69.0593 122.309L1.63775 64.7125C-0.225656 63.1878 -0.564458 60.308 0.960149 58.4446C2.48476 56.5812 5.02577 56.073 7.05858 57.4282L21.7964 67.7617L4.85637 52.1768C3.50116 50.8216 3.33176 48.6194 4.51757 47.0948C5.70337 45.5702 8.07498 45.2314 9.59959 46.2478L28.0643 59.7998L11.463 44.215C9.59959 42.521 9.59959 39.6411 11.2936 37.7777C12.8182 36.0837 15.3592 35.9143 17.2226 37.1001L38.3977 52.3462L25.3539 39.3023C23.3211 37.2695 23.4905 33.8815 25.6927 32.0181C27.5561 30.3241 30.2665 30.3241 32.1299 31.8487L98.7044 87.9204L69.0593 122.309Z" fill="#FCCA57"/>
<path d="M38.3977 52.3447L48.5618 59.9678" stroke="white" stroke-width="2.3689" stroke-miterlimit="10" stroke-linecap="round" stroke-linejoin="round"/>
<path d="M28.0646 59.7998L39.9226 69.1168" stroke="white" stroke-width="2.3689" stroke-miterlimit="10" stroke-linecap="round" stroke-linejoin="round"/>
<path d="M21.7965 67.9307L32.8076 76.0619" stroke="white" stroke-width="2.3689" stroke-miterlimit="10" stroke-linecap="round" stroke-linejoin="round"/>
<path d="M57.7098 78.6025L39.9227 82.16" stroke="white" stroke-width="2.3689" stroke-miterlimit="10" stroke-linecap="round" stroke-linejoin="round"/>
<path d="M48.7312 110.788L8.58321 103.673C3.83999 102.826 0.62137 98.2526 1.46837 93.5094L16.7144 7.28438C17.5614 2.54116 22.1353 -0.677458 26.8785 0.169546L67.0265 7.28438C71.7697 8.13138 74.9883 12.7052 74.1413 17.4484L58.8952 103.673C58.0482 108.417 53.4744 111.635 48.7312 110.788Z" fill="#2A2B3C"/>
<path d="M50.5945 101.3L9.93834 94.1853C7.22792 93.6771 5.36451 91.1361 5.87272 88.4257L20.1024 8.12974C20.6106 5.41933 23.1516 3.55592 25.862 4.06412L66.5182 11.179C69.2286 11.6872 71.092 14.2282 70.5838 16.9386L56.3542 97.2346C55.8459 99.945 53.3049 101.808 50.5945 101.3Z" fill="white"/>
<path d="M52.458 12.0263L38.7366 9.65471C37.7202 9.4853 36.8732 8.4689 37.0426 7.28309L37.5508 4.74208C37.7202 3.72568 38.7366 2.87867 39.9224 3.21748L53.6438 5.58909C54.6602 5.75849 55.5073 6.77489 55.1685 7.9607L54.6602 10.5017C54.6602 11.5181 53.6438 12.1957 52.458 12.0263Z" fill="#2A2B3C"/>
<path d="M34.5014 16.2626C34.332 17.279 33.4849 17.7872 32.6379 17.7872C31.6215 17.7872 30.9439 16.9402 30.7745 15.9238C30.7745 14.9074 31.6215 14.0604 32.6379 14.0604C32.9767 14.0604 33.3155 14.0604 33.4849 14.2298C33.4849 14.2298 33.4849 14.2298 33.6543 14.2298C33.8237 13.891 33.9932 13.7216 33.9932 13.5522C34.1626 13.3828 34.1626 13.3828 34.332 13.3828C34.6708 13.3828 34.8402 13.5522 34.8402 13.891C34.8402 14.0604 34.8402 14.2298 34.8402 14.3992L34.5014 16.2626Z" fill="#48DB84"/>
<path d="M23.9983 16.2615C23.9983 16.4309 23.8289 16.6003 23.8289 16.7697C23.8289 16.9391 23.6595 17.1085 23.4901 17.1085C23.1513 17.2779 22.9819 17.1085 22.8125 16.7697C22.8125 16.0921 22.6431 15.4145 22.6431 14.7369C22.4737 13.7205 23.4901 12.7041 24.5065 12.7041C25.5229 12.7041 26.2005 13.3817 26.3699 14.3981C26.3699 15.4145 25.5229 16.4309 24.5065 16.2615C24.3371 16.2615 24.3371 16.2615 24.1677 16.2615C24.1677 16.2615 24.1677 16.2615 23.9983 16.2615Z" fill="#48DB84"/>
<path d="M30.4357 15.5836C30.2663 16.6 29.4193 17.2776 28.2335 17.1082C27.2171 16.9388 26.5395 15.9224 26.7089 14.906C26.8783 13.8896 27.8947 13.212 28.9111 13.3814C29.9275 13.5508 30.6051 14.5672 30.4357 15.5836Z" fill="#48DB84"/>
<path d="M34.8401 16.4314C34.8401 16.0926 35.0095 15.9232 35.0095 15.5844C35.0095 15.2456 35.1789 15.0762 35.5177 15.0762C35.8565 15.0762 36.0259 15.0762 36.1953 15.415C36.3647 15.5844 36.3647 15.7538 36.3647 15.9232C36.3647 16.262 36.1953 16.6008 36.1953 16.9396C36.1953 17.2784 36.0259 17.4478 36.0259 17.7866C36.0259 18.1254 35.6871 18.2948 35.5177 18.2948C35.1789 18.2948 35.0095 18.2948 34.8401 17.956C34.6707 17.7866 34.6707 17.6172 34.6707 17.4478C34.6707 17.109 34.8401 16.7702 34.8401 16.4314Z" fill="#48DB84"/>
<path d="M36.0257 13.3828C36.3645 13.3828 36.7033 13.891 36.5339 14.2298C36.5339 14.5686 36.0257 14.9074 35.6869 14.738C35.3481 14.738 35.0093 14.2298 35.1787 13.891C35.3481 13.5522 35.6869 13.3828 36.0257 13.3828Z" fill="#48DB84"/>
<path d="M22.9821 17.6175C22.9821 17.4481 23.1515 17.2787 23.3209 17.4481C23.4903 17.4481 23.6597 17.6175 23.6597 17.7869C23.6597 17.9563 23.4903 18.1257 23.3209 18.1257C22.9821 17.9563 22.9821 17.7869 22.9821 17.6175Z" fill="#48DB84"/>
<path d="M25.0148 28.12L20.9492 27.4424C20.6104 27.4424 20.441 27.1036 20.6104 26.7648L21.288 22.6992C21.288 22.3604 21.6268 22.191 21.9656 22.3604L26.0312 23.038C26.37 23.038 26.5394 23.3768 26.37 23.7156L25.523 27.6118C25.523 27.9506 25.3536 28.12 25.0148 28.12Z" fill="#FCCA57"/>
<path d="M52.627 39.8094L30.9437 35.9132C30.0967 35.7438 29.4191 34.8968 29.5885 33.8804L31.2825 23.8857L54.6598 27.9514C55.5068 28.1208 56.1844 28.9678 56.015 29.9842L54.4904 38.2848C54.4904 39.4706 53.6434 39.9788 52.627 39.8094Z" fill="#D3F6E1"/>
<path d="M30.7745 27.4421L28.0641 23.5459L31.4521 24.0541L30.7745 27.4421Z" fill="#D3F6E1"/>
<path d="M47.3754 31.677C47.5448 30.4912 46.6978 29.4748 45.512 29.3054L41.1076 28.4584C39.9218 28.289 38.9054 28.9666 38.5666 30.1524C38.5666 30.1524 38.5666 30.1524 38.5666 30.3218L38.0583 33.2016C38.0583 33.5404 38.0584 34.0486 38.3972 34.3874C38.5666 34.7262 39.0748 34.8956 39.4136 35.065C40.2606 35.2344 40.5994 34.8956 41.1076 34.0486C41.277 33.8792 41.6158 33.2016 42.6322 33.371C43.4792 33.5404 43.818 34.3874 43.818 34.3874C44.1568 35.4038 44.3262 35.7426 45.1732 35.912C45.512 35.912 46.0202 35.912 46.359 35.5732C46.6978 35.4038 46.8672 34.8956 47.0366 34.5568L47.3754 31.677ZM40.7688 31.5076C40.2606 31.5076 39.9218 30.9994 40.0912 30.4912C40.0912 29.983 40.5994 29.6442 41.1076 29.8136C41.6158 29.8136 41.9546 30.3218 41.7852 30.83C41.6158 31.3382 41.277 31.677 40.7688 31.5076ZM45.512 30.1524C45.6814 30.1524 45.8508 30.4912 45.8508 30.6606C45.8508 30.83 45.512 30.9994 45.3426 30.9994C45.1732 30.9994 45.0038 30.6606 45.0038 30.4912C45.0038 30.1524 45.1732 30.1524 45.512 30.1524ZM44.3262 31.677C44.1568 31.677 43.9874 31.3382 43.9874 31.1688C43.9874 30.9994 44.3262 30.83 44.4956 30.83C44.665 30.83 44.8344 31.1688 44.8344 31.3382C44.8344 31.5076 44.4956 31.677 44.3262 31.677ZM45.0038 32.6934C44.8344 32.6934 44.665 32.3546 44.665 32.1852C44.665 32.0158 45.0038 31.8464 45.1732 31.8464C45.3426 31.8464 45.512 32.1852 45.512 32.3546C45.512 32.524 45.1732 32.6934 45.0038 32.6934ZM46.0202 32.0158C45.8508 32.0158 45.6814 31.677 45.6814 31.5076C45.6814 31.3382 46.0202 31.1688 46.1896 31.1688C46.359 31.1688 46.5284 31.5076 46.5284 31.677C46.5284 31.8464 46.359 32.0158 46.0202 32.0158Z" fill="#48DB84"/>
<path d="M19.9329 56.412L15.8673 55.7344C15.5285 55.7344 15.3591 55.3956 15.5285 55.0568L16.2061 50.9912C16.2061 50.6524 16.5449 50.483 16.8837 50.6524L20.9493 51.33C21.2881 51.33 21.4575 51.6688 21.2881 52.0076L20.6105 56.0732C20.6105 56.2426 20.2717 56.5814 19.9329 56.412Z" fill="#FCCA57"/>
<path d="M47.3759 69.9624L25.6926 66.0662C24.8456 65.8968 24.168 65.0498 24.3374 64.0334L26.3702 52.3447L49.7475 56.4103C50.5945 56.5797 51.2721 57.4268 51.1027 58.4432L49.4087 68.4378C49.2393 69.4542 48.3923 70.1318 47.3759 69.9624Z" fill="#D3F6E1"/>
<path d="M25.862 55.7331L22.9822 51.8369L26.3702 52.3451L25.862 55.7331Z" fill="#D3F6E1"/>
<path d="M60.0812 53.1923L56.0156 52.5147C55.6768 52.5147 55.5074 52.1759 55.6768 51.8371L56.3544 47.7715C56.3544 47.4327 56.6932 47.2633 57.032 47.4327L61.0976 48.1103C61.4364 48.1103 61.6058 48.4491 61.4364 48.7879L60.7588 52.8535C60.5894 53.0229 60.2506 53.1923 60.0812 53.1923Z" fill="#6A87FC"/>
<path d="M50.5946 51.4986L27.2173 47.433C26.3703 47.2636 25.6927 46.4166 25.8621 45.4002L26.3703 42.0122C26.5397 41.1652 27.3867 40.4876 28.4031 40.657L50.0864 44.5532C50.9334 44.7226 51.611 45.5696 51.4416 46.586L50.5946 51.4986Z" fill="#DBE2FE"/>
<path d="M51.2722 48.2803L53.9826 52.1765L50.5946 51.4989L51.2722 48.2803Z" fill="#DBE2FE"/>
<path d="M43.6491 81.3119L21.627 77.4157C20.78 77.2463 20.2717 76.3992 20.4411 75.5522L20.9494 73.0112C21.1188 72.1642 21.9658 71.656 22.8128 71.8254L44.8349 75.7216C45.6819 75.891 46.1901 76.738 46.0207 77.585L45.5125 80.1261C45.1737 80.8037 44.4961 81.3119 43.6491 81.3119Z" fill="#DBE2FE"/>
<path d="M51.9496 97.5751L47.884 96.8975C47.5452 96.8975 47.3758 96.5587 47.5452 96.2199L48.2228 92.1543C48.2228 91.8155 48.5616 91.6461 48.9004 91.8155L52.966 92.4931C53.3048 92.4931 53.4742 92.8319 53.3048 93.1707L52.6272 97.2363C52.4578 97.5751 52.2884 97.7445 51.9496 97.5751Z" fill="#6A87FC"/>
<path d="M42.6325 96.0507L19.0858 91.985C18.2388 91.8156 17.7306 90.9686 17.9 90.1216L19.594 80.2964C19.7634 79.4494 20.6104 78.9412 21.4574 79.1106L43.4795 83.0068C44.3265 83.1762 44.8347 84.0232 44.6653 84.8702L42.6325 96.0507Z" fill="#DBE2FE"/>
<path d="M43.1408 92.6631L46.0206 96.5593L42.6326 96.0511L43.1408 92.6631Z" fill="#DBE2FE"/>
<path d="M29.7582 89.4443C29.4194 89.4443 29.25 89.6137 29.25 89.7831C29.25 90.1219 29.4194 90.2913 29.5888 90.2913C29.9276 90.2913 30.097 90.1219 30.097 89.9525C30.097 89.7831 29.9276 89.6137 29.7582 89.4443Z" fill="#6A87FC"/>
<path d="M31.6217 89.9521C31.2829 89.9521 31.1135 90.1216 31.1135 90.291C31.1135 90.6298 31.2829 90.7992 31.4523 90.7992C31.6217 90.7992 31.9605 90.6298 31.9605 90.4604C32.1299 90.1216 31.9605 89.9521 31.6217 89.9521Z" fill="#6A87FC"/>
<path d="M34.1625 85.7171C34.1625 85.5476 33.9931 85.5477 33.9931 85.5477L28.7417 84.7006H28.4029L27.7253 84.5312L27.5559 85.2088L28.2335 85.3783H28.4029L29.0805 88.7663C29.0805 89.1051 29.4193 89.2745 29.5887 89.2745L32.2991 89.7827L32.4685 89.1051L29.7581 88.5969L29.5887 87.9193L32.6379 88.4275C32.8073 88.4275 32.9767 88.4275 32.9767 88.2581L34.3319 86.0559C34.3319 85.8865 34.3319 85.8865 34.1625 85.7171Z" fill="#6A87FC"/>
<path d="M106.497 79.1095L84.1363 57.9344L68.382 37.7757C66.5186 35.404 63.3 34.8958 60.759 36.4205C58.0485 38.1145 57.2015 41.6719 58.8955 44.3823L67.1962 62.3388L66.1798 66.5738C64.4858 74.705 67.535 83.1751 74.1416 88.2571L88.5407 99.2681L106.497 79.1095Z" fill="#FCCA57"/>
<path d="M74.1416 88.2558C67.535 83.1738 64.4858 74.7038 66.1798 66.5725L67.0268 62.5069L64.8246 57.7637" stroke="#B78829" stroke-width="2.3689" stroke-miterlimit="10" stroke-linecap="round" stroke-linejoin="round"/>
<path d="M111.07 71.9971C110.054 70.9807 108.529 70.8113 107.344 71.3195C76.3433 86.2268 54.4906 109.773 48.9004 116.38C48.0534 117.397 47.884 118.921 48.3922 120.107C62.2831 147.719 80.0701 173.299 97.6878 194.982L163.415 129.255C138.683 99.1012 117 77.9261 111.07 71.9971Z" fill="#6A87FC"/>
</svg>
