<svg width="136" height="160" viewBox="0 0 136 160" fill="none" xmlns="http://www.w3.org/2000/svg">
<path d="M61.386 108.72L1.45578 57.523C-0.200583 56.1678 -0.50174 53.608 0.853466 51.9516C2.20867 50.2953 4.46735 49.8435 6.27429 51.0482L19.3746 60.2335L4.31677 46.3802C3.11214 45.1756 2.96156 43.2181 4.01561 41.8629C5.06966 40.5077 7.17776 40.2065 8.53297 41.11L24.946 53.1563L10.1893 39.3031C8.53297 37.7973 8.53297 35.2374 10.0388 33.5811C11.394 32.0753 13.6526 31.9247 15.309 32.9788L34.1313 46.5308L22.5368 34.9363C20.7298 33.1293 20.8804 30.1178 22.8379 28.4614C24.4943 26.9556 26.9035 26.9556 28.5599 28.3108L87.7372 78.1523L61.386 108.72Z" fill="#FCCA57"/>
<path d="M34.1313 46.5303L43.1661 53.3063" stroke="white" stroke-width="2.3689" stroke-miterlimit="10" stroke-linecap="round" stroke-linejoin="round"/>
<path d="M24.9463 53.1562L35.4868 61.4381" stroke="white" stroke-width="2.3689" stroke-miterlimit="10" stroke-linecap="round" stroke-linejoin="round"/>
<path d="M19.3746 60.3838L29.1622 67.6116" stroke="white" stroke-width="2.3689" stroke-miterlimit="10" stroke-linecap="round" stroke-linejoin="round"/>
<path d="M51.2976 69.8701L35.4869 73.0323" stroke="white" stroke-width="2.3689" stroke-miterlimit="10" stroke-linecap="round" stroke-linejoin="round"/>
<path d="M43.3167 98.4783L7.62956 92.154C3.41336 91.4012 0.55237 87.3355 1.30526 83.1193L14.8573 6.4749C15.6102 2.2587 19.6758 -0.602293 23.892 0.150599L59.5791 6.4749C63.7953 7.22779 66.6563 11.2934 65.9034 15.5096L52.3514 92.154C51.5985 96.3702 47.5329 99.2312 43.3167 98.4783Z" fill="#2A2B3C"/>
<path d="M44.973 90.0455L8.83418 83.7212C6.42492 83.2694 4.76856 81.0108 5.22029 78.6015L17.8689 7.22731C18.3206 4.81805 20.5793 3.16169 22.9886 3.61342L59.1274 9.93772C61.5367 10.3895 63.193 12.6481 62.7413 15.0574L50.0927 86.4316C49.641 88.8409 47.3823 90.4972 44.973 90.0455Z" fill="white"/>
<path d="M46.6295 10.6905L34.4326 8.58239C33.5291 8.43182 32.7762 7.52835 32.9268 6.4743L33.3786 4.21562C33.5291 3.31215 34.4326 2.55926 35.4867 2.86041L47.6835 4.96851C48.587 5.11909 49.3399 6.02256 49.0387 7.07661L48.587 9.33529C48.587 10.2388 47.6835 10.8411 46.6295 10.6905Z" fill="#2A2B3C"/>
<path fill-rule="evenodd" clip-rule="evenodd" d="M49.5718 40.2694C50.4658 40.4146 51.0864 41.2702 50.9369 42.146C50.7836 43.0324 49.9206 43.6358 49.0128 43.4903C48.1298 43.3491 47.513 42.4987 47.6338 41.6285C47.7662 40.6754 48.7488 40.0688 49.5718 40.2694ZM45.7286 46.6784C45.2637 48.8547 43.3611 50.1388 41.3545 50.0631C40.2523 50.0257 39.2041 49.5744 38.4244 48.8016C37.6446 48.0289 37.1922 46.9929 37.1597 45.9058C37.082 43.5021 39.1002 41.4883 41.5416 41.5407C42.2485 41.5512 42.9424 41.7368 43.5593 42.0803C43.6825 42.1487 43.7385 42.1328 43.8116 42.0164C44.035 41.6606 44.2629 41.3077 44.4907 40.9547L44.4908 40.9545L44.491 40.9543L44.4911 40.954L44.4918 40.9531C44.6093 40.771 44.7269 40.5889 44.8438 40.4064C45.0584 40.0719 45.3613 39.8863 45.7681 39.8726C46.416 39.849 46.9222 40.4396 46.7997 41.0663C46.7534 41.3032 46.713 41.541 46.6725 41.7789C46.6523 41.8978 46.6321 42.0168 46.6112 42.1356L45.7286 46.6784ZM36.384 45.0197C36.0323 47.2201 33.8791 48.9102 31.3891 48.4757C29.0284 48.0649 27.4622 45.8468 27.8631 43.5387C28.2639 41.2306 30.5129 39.6701 32.848 40.0782C33.4086 40.174 33.945 40.3781 34.4265 40.6786C34.908 40.9791 35.325 41.3702 35.6535 41.8294C35.9821 42.2886 36.2158 42.8068 36.3411 43.3542C36.4665 43.9017 36.4811 44.4677 36.384 45.0197ZM46.7679 46.5533L46.7678 46.5536L46.7678 46.5539C46.7283 46.7792 46.6889 47.0044 46.6492 47.2294L46.2892 49.2781L46.2827 49.3151C46.2029 49.7273 46.2871 50.1112 46.5128 50.463C46.8884 51.0482 47.568 51.3435 48.2327 51.2183C48.5651 51.1576 48.8704 50.9983 49.1078 50.7617C49.3453 50.5251 49.5036 50.2224 49.5616 49.8939C49.6375 49.4801 49.7096 49.0656 49.7817 48.6513L49.7817 48.6512L49.7817 48.6511C49.8178 48.444 49.8538 48.2369 49.8903 48.0299C49.9348 47.7778 49.9791 47.5256 50.0233 47.2733L50.0233 47.2733L50.0233 47.2732L50.0236 47.2715C50.1121 46.7675 50.2006 46.2635 50.2906 45.7599C50.3716 45.3055 50.279 44.8841 50.0022 44.5166C49.5653 43.9364 48.9615 43.7075 48.2587 43.8729C47.5659 44.0358 47.1345 44.493 47.0071 45.1994C46.926 45.6501 46.847 46.1014 46.768 46.5524L46.7679 46.5533ZM21.2622 47.0298L21.2622 47.0299L21.2622 47.0299C21.1586 47.3025 21.0564 47.5712 20.9631 47.8428C20.8378 48.2045 20.6574 48.5111 20.2833 48.6712C19.615 48.9568 18.8965 48.5048 18.8427 47.7882L18.8008 47.2288C18.6968 45.836 18.5927 44.4429 18.4478 43.0531C18.1863 40.5258 20.2242 38.3128 22.7986 38.3695C25.0956 38.4201 26.9172 40.1376 27.073 42.4015C27.2422 44.8595 25.1489 46.9825 22.6552 46.8812C22.4462 46.8755 22.2377 46.8572 22.0309 46.8265C21.8885 46.805 21.7489 46.7683 21.6008 46.7294L21.6007 46.7294C21.5343 46.712 21.4663 46.6941 21.3956 46.6769C21.3512 46.7956 21.3066 46.9131 21.2622 47.0298ZM18.8723 49.9439C18.9029 49.76 19.006 49.5958 19.1592 49.4871C19.3124 49.3785 19.5032 49.3341 19.6901 49.3637C20.0717 49.4243 20.3514 49.7978 20.2946 50.1686C20.2799 50.2628 20.2462 50.353 20.1957 50.4341C20.1452 50.5152 20.0788 50.5854 20.0004 50.6408C19.922 50.6962 19.8331 50.7356 19.7389 50.7567C19.6447 50.7778 19.5471 50.7802 19.4518 50.7638C19.2655 50.7295 19.1001 50.6241 18.9916 50.4706C18.8831 50.317 18.8402 50.1278 18.8723 49.9439Z" fill="#48DB84"/>
<path d="M94.6642 70.3188L74.7878 51.4964L60.784 33.5776C59.1276 31.4695 56.2666 31.0178 54.008 32.373C51.5987 33.8788 50.8458 37.0409 52.3516 39.4502L59.7299 55.4115L58.8265 59.176C57.3207 66.4037 60.0311 73.9326 65.9037 78.45L78.7028 88.2376L94.6642 70.3188Z" fill="#FCCA57"/>
<path d="M65.9037 78.4488C60.0311 73.9315 57.3207 66.4026 58.8265 59.1748L59.5794 55.5609L57.6219 51.3447" stroke="#B78829" stroke-width="2.3689" stroke-miterlimit="10" stroke-linecap="round" stroke-linejoin="round"/>
<path d="M98.7293 63.9964C97.8258 63.093 96.4706 62.9424 95.4166 63.3941C67.8607 76.645 48.4361 97.5754 43.467 103.448C42.7141 104.351 42.5635 105.707 43.0153 106.761C50.3302 121.301 58.8607 135.208 67.8553 148.136C77.4884 161.982 97.208 162.942 109.135 151.015L127.033 133.117C137.376 122.774 138.231 106.223 128.501 95.301C114.01 79.0339 102.598 67.8647 98.7293 63.9964Z" fill="#48DB84"/>
</svg>
