<svg xmlns="http://www.w3.org/2000/svg" width="24" height="24" fill="none" viewBox="0 0 24 24">
    <path fill="#48DB84" d=
    "M 12.743 2.331
    l 9 10
    c .265.294.331.715.17 1.076-.16.361-.518.593-.913.593
    h -2
    v 7
    c 0 .552-.447 1-1 1
    H 14.25
    v -5.247
    c -.448 -1 0 -.552 -1 -1
    h -2.5
    c -1 .448 -.552 0 -1 1
    v 5.247
    H 6 
    c -.553 0-1-.448-1-1
    v -7
    H 3 
    c -.395 0-.753-.232-.913-.593-.161-.36-.095-.783.17-1.076
    l 9 -10
    c .379-.422 1.107-.422 1.486 0 z"/>
</svg>
