<svg width="136" height="82" viewBox="0 0 136 82" fill="none" xmlns="http://www.w3.org/2000/svg">
<path d="M57.6435 38.1955C65.8997 40.2852 75.3358 36.0608 79.5297 25.595C83.3314 16.0778 79.0867 4.65547 72.8424 1.74407C66.2098 -1.34674 59.3701 2.56539 58.3727 7.98888C57.4083 13.2319 60.0049 17.6561 58.121 21.4499C57.2214 23.2637 54.3686 25.1599 52.9249 27.7856C51.2927 30.7107 52.342 36.8512 57.6435 38.1955Z" fill="black"/>
<path d="M77.2436 27.9546C64.4008 16.7606 41.8101 30.2154 30.1902 37.4121C18.5702 44.6087 20.836 53.9327 26.6312 54.7952C44.8201 57.4219 85.0669 34.7349 77.2436 27.9546Z" fill="#F53B5D"/>
<path d="M20.0251 16.4031L10.9308 6.3818C10.6368 6.08352 10.6493 5.59929 10.9607 5.21965C11.2696 4.93684 11.772 4.94973 12.0685 5.15116L13.938 6.74971L11.7919 4.17496C11.5984 3.87927 11.6083 3.49189 11.8143 3.30335C12.1232 3.02055 12.5251 3.03087 12.8191 3.32914L15.2766 5.52424L13.3315 2.95465C13.0375 2.65638 13.1529 2.07787 13.4618 1.79507C13.7708 1.51227 14.2732 1.52517 14.5672 1.82344L17.4167 4.41625L15.9591 2.44063C15.6676 2.04551 15.6825 1.46443 16.0919 1.18421C16.0919 1.18421 16.0919 1.18421 16.1924 1.18679C16.6018 0.906566 17.1017 1.01631 17.3957 1.31458L26.4925 11.2391L20.0251 16.4031Z" fill="#FCCA57"/>
<path fill-rule="evenodd" clip-rule="evenodd" d="M20.3628 9.50543C20.3717 9.65032 20.2615 9.77503 20.1166 9.78399L16.7931 9.98941C16.6482 9.99837 16.5235 9.88817 16.5146 9.74328C16.5056 9.59839 16.6158 9.47368 16.7607 9.46472L20.0842 9.25929C20.2291 9.25034 20.3538 9.36054 20.3628 9.50543Z" fill="#AF8219"/>
<path d="M28.0329 9.91741L24.5223 5.66019L22.21 1.72444C21.9185 1.32932 21.3206 1.12016 20.8131 1.30095C20.3033 1.5786 19.9869 2.15194 20.2759 2.6439L21.2968 5.96504L21.0784 6.6378C20.5411 7.98076 20.9033 9.54061 21.9813 10.6343L24.3359 12.9236L28.0329 9.91741Z" fill="#FCCA57"/>
<path fill-rule="evenodd" clip-rule="evenodd" d="M20.9382 4.83641C21.0765 4.7925 21.2243 4.86906 21.2682 5.00743L21.5473 5.88678C21.5639 5.93908 21.5637 5.99526 21.5468 6.04745L21.3248 6.73141C20.8236 8.0683 21.157 9.42474 22.1686 10.451C22.2705 10.5544 22.2693 10.7208 22.1659 10.8227C22.0625 10.9246 21.8961 10.9234 21.7942 10.8201C20.6511 9.6604 20.2549 8.09331 20.8302 6.5524L21.0207 5.96539L20.7672 5.16646C20.7232 5.02809 20.7998 4.88033 20.9382 4.83641Z" fill="#AF8219"/>
<path fill-rule="evenodd" clip-rule="evenodd" d="M17.124 4.2286C17.2243 4.12362 17.3907 4.11978 17.4957 4.22004L19.1642 5.81343C19.2692 5.91369 19.273 6.08007 19.1727 6.18506C19.0725 6.29004 18.9061 6.29387 18.8011 6.19361L17.1326 4.60022C17.0276 4.49996 17.0238 4.33358 17.124 4.2286Z" fill="#AF8219"/>
<path fill-rule="evenodd" clip-rule="evenodd" d="M15.0908 5.33231C15.1942 5.2304 15.3606 5.23161 15.4625 5.33499L17.3245 7.22409C17.4264 7.32748 17.4252 7.4939 17.3219 7.5958C17.2185 7.69771 17.0521 7.69651 16.9501 7.59312L15.0881 5.70402C14.9862 5.60063 14.9874 5.43421 15.0908 5.33231Z" fill="#AF8219"/>
<path fill-rule="evenodd" clip-rule="evenodd" d="M13.7452 6.5603C13.8456 6.45549 14.012 6.45195 14.1168 6.55239L15.8834 8.2452C15.9882 8.34564 15.9917 8.51203 15.8913 8.61684C15.7908 8.72165 15.6245 8.72519 15.5196 8.62475L13.7531 6.93194C13.6483 6.8315 13.6448 6.66511 13.7452 6.5603Z" fill="#AF8219"/>
<path d="M29.6071 9.83902C39.8491 20.4261 42.7535 42.1181 41.2992 49.4374C39.845 56.7567 23.9335 55.4993 22.694 53.3204C21.4545 51.1416 13.1933 23.9426 17.7106 14.2245C17.631 14.1631 27.7943 8.07451 29.6071 9.83902Z" fill="#F53B5D"/>
<path d="M39.9683 77.4882C53.7457 81.8428 76.5 83 93.1807 76.3831C90.6915 59.5167 92.5711 34.5464 75.9433 25.8252C75.6972 25.6934 75.5741 25.6275 75.3279 25.4957C65.4459 20.8394 50.8395 26.0759 47.6369 33.223C41.3549 47.5832 39.9683 77.4882 39.9683 77.4882Z" fill="#F53B5D"/>
<path fill-rule="evenodd" clip-rule="evenodd" d="M47.8684 33.052C48.0008 33.1115 48.0599 33.2671 48.0003 33.3995C45.5783 38.7865 43.5842 47.5771 42.0959 56.3533C42.0716 56.4964 41.9359 56.5928 41.7928 56.5685C41.6497 56.5442 41.5534 56.4085 41.5776 56.2654C43.0661 47.4881 45.0687 38.6382 47.5209 33.1839C47.5804 33.0515 47.736 32.9924 47.8684 33.052Z" fill="white"/>
<path d="M56.6449 28.0551C69.5602 16.9449 92.0628 30.5463 103.636 37.8183C115.209 45.0904 112.882 54.3994 107.082 55.2242C88.876 57.7326 48.7776 34.7844 56.6449 28.0551Z" fill="#F53B5D"/>
<path d="M116.626 17.048L126.037 7.32351C126.34 7.03481 126.343 6.55044 126.044 6.161C125.745 5.86843 125.242 5.8652 124.939 6.05702L123.019 7.59479L125.247 5.09019C125.45 4.80085 125.452 4.41336 125.253 4.21831C124.953 3.92575 124.551 3.92317 124.247 4.21186L121.721 6.32701L123.747 3.82113C124.051 3.53244 123.954 2.95053 123.654 2.65797C123.355 2.3654 122.852 2.36218 122.549 2.65087L119.617 5.15095L121.138 3.2231C121.442 2.83753 121.445 2.25627 121.045 1.96306C121.045 1.96306 121.045 1.96306 120.945 1.96242C120.544 1.66921 120.041 1.76286 119.738 2.05155L110.327 11.6792L116.626 17.048Z" fill="#FCCA57"/>
<path fill-rule="evenodd" clip-rule="evenodd" d="M116.51 10.142C116.496 10.2866 116.602 10.4148 116.747 10.4283L120.062 10.7403C120.207 10.7539 120.335 10.6477 120.349 10.5032C120.362 10.3587 120.256 10.2305 120.111 10.2169L116.796 9.90497C116.652 9.89137 116.524 9.99751 116.51 10.142Z" fill="#AF8219"/>
<path d="M108.83 10.3089L112.476 6.16648L114.913 2.30693C115.217 1.92136 115.821 1.73148 116.323 1.92846C116.823 2.22231 117.121 2.8055 116.817 3.28795L115.69 6.57464L115.886 7.25406C116.38 8.61355 115.968 10.161 114.856 11.2195L112.429 13.4322L108.83 10.3089Z" fill="#FCCA57"/>
<path fill-rule="evenodd" clip-rule="evenodd" d="M116.084 5.45698C115.948 5.40865 115.797 5.48044 115.749 5.61732L115.442 6.48728C115.424 6.53901 115.422 6.59517 115.437 6.64787L115.637 7.33861C116.095 8.69088 115.719 10.0359 114.675 11.0292C114.569 11.1293 114.565 11.2957 114.665 11.4009C114.765 11.506 114.932 11.5102 115.037 11.4101C116.217 10.2877 116.663 8.73411 116.137 7.17555L115.966 6.58274L116.245 5.79234C116.293 5.65546 116.221 5.50531 116.084 5.45698Z" fill="#AF8219"/>
<path fill-rule="evenodd" clip-rule="evenodd" d="M119.916 4.97058C119.819 4.86243 119.653 4.85327 119.545 4.95011L117.826 6.48917C117.718 6.586 117.709 6.75218 117.806 6.86032C117.903 6.96847 118.069 6.97764 118.177 6.8808L119.896 5.34174C120.004 5.2449 120.013 5.07873 119.916 4.97058Z" fill="#AF8219"/>
<path fill-rule="evenodd" clip-rule="evenodd" d="M121.913 6.14247C121.813 6.03731 121.646 6.03317 121.541 6.13323L119.619 7.96164C119.514 8.06171 119.51 8.22808 119.61 8.33325C119.71 8.43841 119.877 8.44255 119.982 8.34249L121.903 6.51408C122.009 6.41401 122.013 6.24764 121.913 6.14247Z" fill="#AF8219"/>
<path fill-rule="evenodd" clip-rule="evenodd" d="M123.218 7.41263C123.121 7.30465 122.955 7.29577 122.847 7.39279L121.027 9.02808C120.919 9.1251 120.91 9.29129 121.007 9.39927C121.104 9.50725 121.271 9.51613 121.379 9.4191L123.198 7.78382C123.306 7.68679 123.315 7.5206 123.218 7.41263Z" fill="#AF8219"/>
<path d="M107.259 10.1793C96.6829 20.4325 93.0844 42.0201 94.3031 49.3823C95.5219 56.7445 111.466 55.9981 112.774 53.8601C114.083 51.7221 123.212 24.8021 119.009 14.9441C119.091 14.8853 109.128 8.47387 107.259 10.1793Z" fill="#F53B5D"/>
<path fill-rule="evenodd" clip-rule="evenodd" d="M96.7091 29.3215C96.8572 29.352 96.9526 29.4967 96.9221 29.6448L95.4524 36.7921C95.422 36.9401 95.2772 37.0355 95.1291 37.0051C94.9811 36.9746 94.8857 36.8299 94.9161 36.6818L96.3859 29.5345C96.4163 29.3864 96.5611 29.2911 96.7091 29.3215Z" fill="white"/>
<path fill-rule="evenodd" clip-rule="evenodd" d="M81.6196 49.5685C81.6819 49.4308 81.844 49.3695 81.9818 49.4317C84.9209 50.7593 91.8966 53.0892 95.3658 53.9801C95.5123 54.0177 95.6005 54.1669 95.5629 54.3134C95.5253 54.4598 95.3761 54.548 95.2297 54.5104C91.739 53.614 84.7317 51.2746 81.7564 49.9307C81.6186 49.8685 81.5574 49.7063 81.6196 49.5685Z" fill="white"/>
<path d="M67.244 28.3853C67.244 28.3853 63.3401 30.0352 61.0617 28.2304L60.8238 22.6894L67.1222 20.2243C67.0727 23.2514 67.3296 25.3589 67.244 28.3853Z" fill="#FCCA57"/>
<path d="M55.3396 16.4533C55.2936 24.44 59.7412 25.3643 61.3461 25.3654C62.8051 25.3892 67.7639 25.188 68.5788 17.2441C69.3937 9.30018 65.9345 6.75924 62.6199 6.56399C59.3054 6.36874 55.3857 8.46157 55.3396 16.4533Z" fill="#FCCA57"/>
<path d="M68.6358 17.1781C67.7069 17.1629 65.1361 14.8513 64.7684 10.4905C64.7684 10.4905 65.3735 14.3813 65.7167 14.9356C66.0599 15.4899 64.2781 13.6251 63.9322 10.1127C62.8533 10.979 61.6519 11.6886 60.3653 12.2193C58.6968 12.7956 57.6546 12.8435 57.5237 12.7316C57.3928 12.6197 59.843 11.692 60.4688 10.8842C60.4688 10.8842 56.0863 13.2269 54.0142 13.5123C53.7737 13.5483 53.1583 8.71953 56.2428 6.46035C59.3273 4.20117 64.5798 6.09773 66.0405 7.30381C66.0405 7.30381 67.6669 7.42516 69.5757 9.64121C71.4844 11.8573 69.6365 17.1695 68.6358 17.1781Z" fill="black"/>
<path d="M67.26 17.8885C67.26 17.8885 69.0078 15.0397 70.3083 15.6134C71.6089 16.1872 70.4997 20.2116 69.0543 20.8663C68.8746 20.9616 68.6768 21.021 68.4726 21.0408C68.2684 21.0606 68.0622 21.0405 67.8662 20.9816C67.6702 20.9228 67.4885 20.8264 67.3319 20.6982C67.1754 20.57 67.0472 20.4127 66.9551 20.2357L67.26 17.8885Z" fill="#FCCA57"/>
</svg>
