<svg width="171" height="169" viewBox="0 0 171 169" fill="none" xmlns="http://www.w3.org/2000/svg">
<circle cx="85" cy="86" r="71" fill="#ECFBF2"/>
<g clip-path="url(#clip0)">
<path d="M48.5796 73.5963C48.5712 73.389 48.5591 73.182 48.5325 72.9771C48.5301 72.9617 48.5263 72.9477 48.5247 72.932C48.5133 72.8422 48.4917 72.7531 48.4765 72.6637C48.4523 72.522 48.4325 72.3797 48.3994 72.24C48.346 72.0098 48.2808 71.7788 48.2028 71.5493C47.5598 69.6578 46.2105 68.206 44.5499 67.3873C42.8889 66.5697 40.9155 66.3846 39.024 67.0276L41.3525 73.8779L34.945 76.056L33.6281 74.5932L30.495 75.6582L31.0771 77.3708L33.0817 76.6894L35.8887 79.8102C34.9532 80.6297 34.5484 81.9623 34.9727 83.2108C35.5345 84.8634 37.3359 85.7508 38.9885 85.189C40.4947 84.677 41.351 83.1355 41.0686 81.6163L42.8685 81.0044C43.5705 82.3811 45.1889 83.0814 46.6951 82.5694C48.3477 82.0076 49.2351 80.2062 48.6733 78.5536C48.4899 78.0141 48.1652 77.5676 47.7662 77.2142C47.7902 77.1669 47.82 77.1224 47.8437 77.0742C48.0469 76.6603 48.2119 76.224 48.3357 75.7759C48.4571 75.3239 48.5367 74.8613 48.5703 74.398C48.5733 74.3617 48.5705 74.3254 48.5725 74.2893L48.5734 74.289C48.5745 74.2753 48.573 74.2624 48.574 74.2487C48.5853 74.0347 48.5895 73.8222 48.5808 73.6083C48.5805 73.6046 48.5802 73.6009 48.5796 73.5963ZM38.4063 83.4764C37.6982 83.7172 36.926 83.3368 36.6853 82.6286C36.4446 81.9205 36.825 81.1483 37.5331 80.9076C38.2413 80.6669 39.0134 81.0473 39.2542 81.7554C39.4949 82.4636 39.1145 83.2357 38.4063 83.4764ZM46.1129 80.8568C45.4048 81.0975 44.6326 80.7171 44.3919 80.009C44.1512 79.3008 44.5315 78.5287 45.2397 78.2879C45.9478 78.0472 46.72 78.4276 46.9607 79.1358C47.2014 79.8439 46.8211 80.6161 46.1129 80.8568Z" fill="#6554C0"/>
</g>
<g clip-path="url(#clip1)">
<path d="M50.5559 37.8377L49.0136 36.8927L49.9586 35.3504L48.4163 34.4054L47.4713 35.9477L42.8443 33.1127L43.7893 31.5704L42.247 30.6254L41.302 32.1677L39.7597 31.2227C38.9091 30.7015 37.7935 30.9694 37.2724 31.82L30.6573 42.6163C30.1362 43.4669 30.4041 44.5824 31.2547 45.1036L42.0509 51.7186C42.9015 52.2398 44.0171 51.9719 44.5382 51.1213L51.1533 40.325C51.6744 39.4744 51.4065 38.3589 50.5559 37.8377ZM39.9303 47.2373L38.6503 45.0869L36.1532 44.923L37.8031 43.0404L37.1866 40.6155L39.4861 41.6023L41.6025 40.2687L41.3754 42.7599L43.2988 44.3606L40.8587 44.9137L39.9303 47.2373ZM48.1934 41.6935L37.3972 35.0785L38.3422 33.5362L49.1384 40.1512L48.1934 41.6935Z" fill="#00E3D6"/>
</g>
<g clip-path="url(#clip2)">
<path d="M140.238 70.7057L140.849 68.5288C141.186 67.3283 140.484 66.0779 139.283 65.741L125.134 61.7699C123.333 61.2647 121.457 62.3186 120.952 64.1189L117.286 77.1803C116.614 79.576 118.322 80.9937 119.635 81.3621L135.962 85.9441C137.162 86.281 138.413 85.5787 138.75 84.3781L141.804 73.4936C142.141 72.293 141.439 71.0427 140.238 70.7057ZM135.312 79.8909L133.135 79.28L134.357 74.9261L136.534 75.5371L135.312 79.8909ZM123.912 66.1237C123.311 65.9551 122.96 65.3296 123.129 64.7298C123.297 64.1301 123.922 63.7782 124.523 63.9468L138.672 67.9179L138.062 70.0948L123.912 66.1237Z" fill="#36B37E"/>
</g>
<g clip-path="url(#clip3)">
<path d="M128.128 30.5451L127.884 35.1022C128.391 35.5954 128.581 36.3626 128.306 37.0618L126.98 40.4276C126.735 41.0494 126.183 41.4514 125.567 41.5458L124.812 43.4618C124.629 43.9271 124.104 44.155 123.639 43.9716L122.797 43.6401C122.332 43.4567 122.104 42.9324 122.288 42.4671L122.951 40.7842L112.853 36.8056L112.19 38.4885C112.007 38.9538 111.483 39.1817 111.017 38.9983L110.176 38.6668C109.711 38.4834 109.483 37.9591 109.666 37.4938L110.421 35.5778C110.034 35.0882 109.906 34.4175 110.151 33.7965L111.477 30.4307C111.752 29.7315 112.415 29.3005 113.121 29.2851L116.052 25.7858C116.552 25.1885 117.376 24.9784 118.102 25.2645L126.986 28.765C127.712 29.0512 128.171 29.7666 128.128 30.5451ZM113.848 34.2812L114.511 32.5984L112.828 31.9353L112.165 33.6182L113.848 34.2812ZM117.439 26.9474L114.99 29.8708L126.12 34.2563L126.323 30.4482L117.439 26.9474ZM125.628 38.923L126.291 37.2401L124.608 36.577L123.945 38.2599L125.628 38.923Z" fill="#00A8FF"/>
</g>
<g clip-path="url(#clip4)">
<path d="M67.018 9.78646C65.6772 10.2059 64.9303 11.6328 65.3498 12.9735L66.8687 17.8288C68.2094 17.4093 69.6363 18.1562 70.0557 19.4969C70.4751 20.8377 69.7283 22.2646 68.3875 22.684L69.9064 27.5392C70.3259 28.88 71.7528 29.6268 73.0935 29.2074L89.2776 24.1445C90.6184 23.725 91.3652 22.2981 90.9458 20.9574L89.4269 16.1022C88.0862 16.5216 86.6593 15.7747 86.2399 14.434C85.8204 13.0933 86.5673 11.6664 87.908 11.2469L86.3891 6.39169C85.9697 5.05095 84.5428 4.30408 83.2021 4.72351L67.018 9.78646ZM79.0759 10.4563L81.3849 11.19L77.3494 23.8894L75.0405 23.1557L79.0759 10.4563ZM74.9326 15.495C74.6287 16.4514 73.607 16.9804 72.6506 16.6765C71.6942 16.3726 71.1653 15.3509 71.4692 14.3945C71.7731 13.4381 72.7948 12.9091 73.7512 13.213C74.7076 13.5169 75.2365 14.5386 74.9326 15.495ZM84.9562 19.9512C84.6522 20.9077 83.6305 21.4366 82.6741 21.1327C81.7177 20.8288 81.1888 19.8071 81.4927 18.8507C81.7966 17.8943 82.8183 17.3653 83.7747 17.6692C84.7311 17.9731 85.2601 18.9948 84.9562 19.9512Z" fill="#FF5630"/>
</g>
<path d="M77.0104 118.26H106.689L111.732 124.03C121.894 123.564 133.59 123.388 144.489 125.745C164.477 130.076 171.676 156.461 146.795 166.663C126.527 174.975 48.8057 158.436 48.8057 158.436L66.3522 129.835C66.3522 129.835 87.4932 129.028 112.775 129.309L77.2411 132.919L77.0104 118.26Z" fill="#48DB84"/>
<path d="M56.2802 157.535C56.6812 156.708 61.3436 149.614 62.3814 147.985C64.4803 144.696 66.509 141.362 68.4675 137.983C69.5805 136.063 70.7034 134.148 71.7462 132.183C71.7509 132.179 71.7547 132.173 71.757 132.168C71.7594 132.162 71.7604 132.155 71.7599 132.149C71.7594 132.143 71.7574 132.137 71.7541 132.131C71.7508 132.126 71.7463 132.122 71.7409 132.118C71.7356 132.115 71.7295 132.113 71.7232 132.112C71.717 132.112 71.7106 132.113 71.7048 132.115C71.699 132.118 71.6938 132.121 71.6896 132.126C71.6855 132.131 71.6826 132.136 71.681 132.143C69.4752 135.406 67.3796 138.755 65.2389 142.064C63.0983 145.373 56.4557 156.477 56.0746 157.43C55.9994 157.63 56.1849 157.73 56.2802 157.535Z" fill="#263238"/>
<path d="M165.54 130.578C165.039 130.367 114.665 128.031 114.665 128.031C112.976 128.899 112.274 134.739 112.274 134.739C112.469 135.626 95.0981 139.421 95.0981 139.421L115.151 161.731L143.055 145.287C143.055 145.287 162.677 137.832 163.429 137.316C165.369 135.937 167.169 131.25 165.54 130.578Z" fill="#FFC24D"/>
<path d="M77.5116 133.712V134.986L11.0203 132.645C25.3182 132.163 54.7011 132.94 77.5116 133.712Z" fill="#48DB84"/>
<path d="M125.002 162.799C125.002 162.799 41.8119 173.964 15.8832 164.91C-4.77661 157.69 -3.23252 136.239 11.0052 127.957C11.2459 127.816 11.5066 127.676 11.7422 127.545C11.9778 127.415 12.1884 127.31 12.414 127.2L12.5543 127.129L13.0908 126.879C13.2011 126.824 13.3164 126.773 13.4317 126.728L14.0082 126.483L14.1536 126.428C14.3942 126.327 14.6549 126.237 14.8905 126.147L14.9657 126.122C15.1963 126.036 15.432 125.956 15.6676 125.886C15.7929 125.841 15.9183 125.801 16.0486 125.766C16.179 125.731 16.4196 125.65 16.6101 125.6C16.9009 125.515 17.1966 125.44 17.4924 125.37C34.8384 121.199 56.9069 124.412 56.9069 124.412L63.9255 118.256H77.5116V133.712C54.7161 132.94 25.3332 132.163 11.0203 132.644L77.5116 134.985V133.712C94.9678 134.293 108.559 134.875 108.559 134.875L125.002 162.799Z" fill="#48DB84"/>
<path d="M65.77 129.584H113.374" stroke="white" stroke-width="0.474065" stroke-linecap="round"/>
<path d="M67.831 133.4C48.625 132.804 27.1381 132.313 14.1887 132.558C14.0333 131.601 14.1887 130.819 14.7653 130.578C15.2666 130.362 65.6351 128.031 65.6351 128.031C66.8183 128.633 67.5151 131.626 67.831 133.4Z" fill="#37474F"/>
<path d="M101.473 137.984L113.374 161.086" stroke="white" stroke-width="0.474065" stroke-linecap="round"/>
<path d="M143.291 129.391C137.992 129.135 132.503 128.89 127.75 128.649H128.091C129.249 128.674 130.402 128.709 131.56 128.749C133.497 128.304 135.474 128.062 137.461 128.027C137.482 128.032 137.5 128.044 137.514 128.061C137.527 128.078 137.534 128.099 137.534 128.12C137.534 128.142 137.527 128.162 137.514 128.179C137.5 128.196 137.482 128.208 137.461 128.213C135.808 128.318 134.161 128.508 132.528 128.779L135.611 128.895C138.118 129 140.624 129.06 143.131 129.241C143.152 129.236 143.174 129.237 143.194 129.243C143.215 129.249 143.234 129.26 143.25 129.275C143.265 129.289 143.277 129.308 143.284 129.328C143.292 129.348 143.294 129.37 143.291 129.391Z" fill="white"/>
<path d="M67.831 133.4C48.625 132.804 27.1381 132.313 14.1887 132.558C14.0333 131.601 14.1887 130.819 14.7653 130.578C15.2666 130.362 65.6351 128.031 65.6351 128.031C66.8183 128.633 67.5151 131.626 67.831 133.4Z" fill="#FFC24D"/>
<path d="M8.36548 133.143C14.794 132.492 21.2581 132.259 27.7168 132.446C34.2341 132.551 40.7163 132.637 47.2135 132.757C60.248 132.998 73.2642 133.332 86.262 133.76C93.5714 134.015 101.623 134.196 108.932 134.456C109.079 134.772 109.658 135.61 109.874 135.884" stroke="white" stroke-width="0.474065" stroke-linecap="round"/>
<path d="M122.095 157.574C122.745 158.41 123.34 159.287 123.874 160.201C124.446 161.12 125.023 162.036 125.604 162.948C125.631 162.994 125.646 163.045 125.647 163.098C125.648 163.151 125.636 163.203 125.61 163.249C125.585 163.295 125.548 163.334 125.503 163.361C125.458 163.388 125.406 163.403 125.353 163.405C123.057 163.741 120.766 164.091 118.465 164.382C114.404 164.889 110.324 165.275 106.243 165.595C104.227 165.756 102.242 165.891 100.182 165.997C98.1212 166.102 96.0557 166.202 93.9902 166.202" stroke="white" stroke-width="0.474065" stroke-linecap="round"/>
<path d="M85.4413 42.613C84.6708 42.5641 81.4667 41.5694 78.7233 44.1335C76.1266 46.5794 73.7826 54.985 72.9918 56.7705C72.201 58.556 69.694 58.3726 68.7075 60.4393C67.8636 62.2126 69.0907 63.1501 68.9724 64.5443C68.8787 65.6286 67.5131 67.0146 68.1816 68.7675C68.7931 70.3614 70.3992 70.3492 71.2471 70.9728C72.095 71.5965 72.2744 73.8712 73.8927 74.7802C75.5111 75.6893 77.3414 74.4011 78.2545 74.5846C79.1676 74.768 79.7302 77.7887 82.7712 78.1066C85.8122 78.4246 87.1575 76.0684 88.4782 75.7871C89.799 75.5059 92.7544 76.9693 94.4624 75.6934C96.1705 74.4174 96.7983 72.3833 97.6135 71.7596C98.4288 71.1359 99.7088 71.4906 100.834 69.8844C101.959 68.2783 100.536 66.8516 100.593 65.2821C100.634 64.1896 101.759 63.3947 101.409 61.6459C100.915 59.2408 98.0946 59.2001 97.4872 56.7175C97.0102 54.7649 96.7942 46.6365 92.4365 43.8196C89.4036 41.863 85.4413 42.613 85.4413 42.613Z" fill="#263238"/>
<path d="M82.6251 74.5299C82.6251 81.3681 70.2423 111.749 63.9456 117.043C61.7899 118.852 44.3587 123.194 34.5827 123.334C30.5019 123.394 26.7821 104.118 32.8131 102.665C37.7411 101.476 53.8689 98.6539 54.4003 98.1526C58.1352 94.533 64.2815 83.223 74.0374 72.6199C79.6372 66.5137 82.6301 69.261 82.6251 74.5299Z" fill="#FFC24D"/>
<path d="M38.784 122.858C31.9859 125.189 23.6589 125.655 20.8213 124.763C17.9838 123.871 9.5665 116.642 8.00235 114.621C6.4382 112.601 8.06251 102.629 8.50368 100.388C8.86464 98.5937 10.6795 97.3053 12.389 100.664C14.5898 104.966 13.3916 109.718 14.3241 110.756C15.2566 111.794 20.2147 112.761 21.7237 111.332C22.6111 110.495 22.9169 107.728 21.4179 106.114C19.919 104.499 17.4073 104.565 14.9006 102.99C12.394 101.416 11.3111 97.5159 12.2737 96.9443C13.2362 96.3728 14.1436 97.4758 18.3197 98.2478C21.0068 98.7491 25.0425 97.7465 29.8954 99.2855C32.3369 100.063 36.914 102.524 36.914 102.524L38.784 122.858Z" fill="#FFC24D"/>
<path d="M24.8719 120.221C21.4178 120.853 14.2087 120.953 9.60145 118.717C6.49822 117.158 -1.04177 111.443 0.306806 109.192C2.24194 105.973 12.5493 112.275 13.968 112.646C18.3296 113.789 23.9495 111.944 23.9495 111.944L24.8719 120.221Z" fill="#FFC24D"/>
<path d="M18.9062 112.947C17.8928 113.13 16.8624 113.204 15.8331 113.167C15.3105 113.143 14.7907 113.076 14.279 112.967C13.7628 112.848 13.2592 112.68 12.775 112.465C11.8325 112.044 10.9201 111.578 10.0227 111.097C9.12531 110.615 8.24297 110.094 7.34058 109.593C8.31118 109.923 9.2634 110.304 10.1931 110.736L12.9705 111.994C13.421 112.202 13.889 112.37 14.3692 112.495C14.8516 112.621 15.3425 112.712 15.8381 112.766C16.8508 112.876 17.8785 112.912 18.9062 112.947Z" fill="#E09300"/>
<path d="M25.6441 120.853C22.4005 122.031 15.447 123.304 10.6042 121.856C7.34555 120.888 -0.876246 116.592 0.076279 114.195C1.42485 110.771 12.419 115.198 13.8528 115.308C18.2595 115.704 23.3781 113.002 23.3781 113.002L25.6441 120.853Z" fill="#FFC24D"/>
<path d="M18.9211 114.656C17.5488 115.268 16.0712 115.608 14.5695 115.659C14.1859 115.638 13.8059 115.574 13.4365 115.468L12.3637 115.192L10.223 114.626C8.7959 114.252 7.37046 113.866 5.94668 113.468C5.24477 113.254 4.5297 113.087 3.80601 112.967C3.0818 112.847 2.33993 112.891 1.63525 113.097C2.32659 112.805 3.07818 112.685 3.82606 112.746C4.56933 112.808 5.30675 112.927 6.03191 113.102C7.48075 113.408 8.91455 113.764 10.3433 114.135C11.0602 114.315 11.7771 114.501 12.489 114.696L13.5569 114.982C13.894 115.091 14.2419 115.163 14.5946 115.198C15.3174 115.231 16.0418 115.187 16.7553 115.067C17.4773 114.967 18.2042 114.827 18.9211 114.656Z" fill="#E09300"/>
<path d="M28.0803 125.037C23.2926 125.439 16.0484 125.213 13.9178 124.707C11.7871 124.2 4.06664 121.222 3.54024 118.791C2.87348 115.738 9.25039 117.252 11.9175 117.813C14.6798 118.395 18.2492 117.101 18.2492 117.101L28.0803 125.037Z" fill="#FFC24D"/>
<path d="M3.49048 118.387C3.49208 118.078 3.57139 117.774 3.72109 117.504C3.8895 117.235 4.13868 117.026 4.43298 116.908C5.02618 116.716 5.65264 116.65 6.27286 116.712C7.4976 116.776 8.71321 116.959 9.90248 117.259C11.0552 117.591 12.2434 117.784 13.4419 117.835C14.6398 117.783 15.823 117.55 16.9512 117.143C18.0942 116.772 19.2122 116.291 20.3351 115.825C21.4581 115.328 22.618 114.919 23.8043 114.602C25.0041 114.324 26.2328 114.193 27.464 114.211C28.6857 114.202 29.904 114.339 31.0937 114.617C29.8944 114.42 28.6778 114.352 27.464 114.411C26.2573 114.446 25.0591 114.624 23.8946 114.942C21.5935 115.644 19.4428 116.817 17.1116 117.62C15.9332 118.022 14.7015 118.247 13.4569 118.286C12.2222 118.228 11.0011 118.002 9.82728 117.615C8.66135 117.285 7.46857 117.058 6.26283 116.938C5.67134 116.853 5.06857 116.892 4.49314 117.053C4.2111 117.14 3.96482 117.316 3.79128 117.554C3.62407 117.803 3.52075 118.089 3.49048 118.387Z" fill="#E09300"/>
<path d="M82.6302 74.5308C82.6302 81.3739 70.2424 111.749 63.9457 117.043C63.3541 117.545 61.6195 118.227 59.2131 118.964L80.4043 69.2969C81.8732 69.8634 82.6302 71.8787 82.6302 74.5308Z" fill="#FFA800"/>
<path d="M76.0926 97.9669L64.6924 82.511C64.6924 82.511 70.8688 75.0913 74.8644 71.4817C80.1534 66.689 83.9535 67.4711 82.9458 76.1792C82.269 81.9746 76.0926 97.9669 76.0926 97.9669Z" fill="#00A8FF"/>
<path d="M82.9459 76.1581C82.2691 81.9735 76.0977 97.9709 76.0977 97.9709L66.2266 84.5854L80.725 68.583C82.5799 68.9289 83.5274 71.3203 82.9459 76.1581Z" fill="#0086CC"/>
<path d="M87.4378 74.5299C87.4378 81.3681 99.8206 111.749 106.117 117.043C108.273 118.852 125.704 123.194 135.48 123.334C139.561 123.394 143.281 104.118 137.25 102.665C132.322 101.476 116.194 98.6539 115.663 98.1526C111.928 94.533 105.781 83.223 96.0255 72.6199C90.4257 66.5137 87.4327 69.261 87.4378 74.5299Z" fill="#FFC24D"/>
<path d="M131.279 122.858C138.077 125.189 146.404 125.655 149.242 124.763C152.079 123.871 160.497 116.642 162.061 114.621C163.625 112.601 162.001 102.629 161.56 100.388C161.199 98.5937 159.384 97.3053 157.674 100.664C155.473 104.966 156.672 109.718 155.739 110.756C154.807 111.794 149.849 112.761 148.34 111.332C147.452 110.495 147.146 107.728 148.645 106.114C150.144 104.499 152.656 104.565 155.163 102.99C157.669 101.416 158.752 97.5159 157.79 96.9443C156.827 96.3728 155.92 97.4758 151.744 98.2478C149.056 98.7491 145.021 97.7465 140.168 99.2855C137.726 100.063 133.149 102.524 133.149 102.524L131.279 122.858Z" fill="#FFC24D"/>
<path d="M145.191 120.222C148.645 120.854 155.854 120.954 160.461 118.718C163.575 117.189 171.115 111.474 169.756 109.228C167.821 106.009 157.514 112.311 156.095 112.682C151.733 113.825 146.113 111.98 146.113 111.98L145.191 120.222Z" fill="#FFC24D"/>
<path d="M151.157 112.947C152.16 112.912 153.202 112.876 154.2 112.766C154.696 112.712 155.187 112.621 155.669 112.495C156.149 112.37 156.617 112.202 157.068 111.994L159.845 110.736C160.775 110.304 161.727 109.923 162.698 109.593C161.795 110.094 160.918 110.595 160.015 111.097C159.113 111.598 158.206 112.044 157.263 112.465C156.787 112.678 156.292 112.846 155.784 112.967C155.273 113.076 154.753 113.143 154.23 113.167C153.201 113.204 152.17 113.13 151.157 112.947Z" fill="#E09300"/>
<path d="M144.419 120.853C147.663 122.031 154.616 123.304 159.459 121.856C162.717 120.888 170.939 116.592 169.987 114.195C168.638 110.771 157.644 115.198 156.21 115.308C151.804 115.704 146.685 113.002 146.685 113.002L144.419 120.853Z" fill="#FFC24D"/>
<path d="M151.142 114.656C151.859 114.826 152.585 114.967 153.307 115.077C154.021 115.197 154.745 115.241 155.468 115.207C155.821 115.173 156.169 115.101 156.506 114.992L157.574 114.706C158.286 114.51 159.002 114.325 159.719 114.144C161.148 113.773 162.582 113.418 164.031 113.112C164.756 112.937 165.493 112.818 166.237 112.756C166.985 112.695 167.736 112.815 168.427 113.107C167.723 112.901 166.981 112.857 166.257 112.976C165.533 113.097 164.818 113.264 164.116 113.478C162.692 113.875 161.267 114.261 159.84 114.636L157.724 115.207L156.651 115.483C156.282 115.589 155.902 115.653 155.518 115.674C154.007 115.622 152.521 115.276 151.142 114.656Z" fill="#E09300"/>
<path d="M141.982 125.037C146.77 125.439 154.014 125.213 156.145 124.707C158.276 124.2 165.996 121.222 166.522 118.791C167.189 115.738 160.812 117.252 158.145 117.813C155.383 118.395 151.813 117.101 151.813 117.101L141.982 125.037Z" fill="#FFC24D"/>
<path d="M166.572 118.387C166.547 118.086 166.447 117.797 166.282 117.545C166.108 117.306 165.862 117.13 165.58 117.043C165.004 116.882 164.402 116.843 163.81 116.928C162.604 117.048 161.412 117.275 160.246 117.605C159.072 117.992 157.851 118.218 156.616 118.277C155.371 118.237 154.14 118.012 152.961 117.61C150.63 116.808 148.479 115.635 146.178 114.933C145.014 114.614 143.816 114.436 142.609 114.401C141.395 114.342 140.179 114.411 138.979 114.607C140.169 114.329 141.387 114.193 142.609 114.201C143.84 114.183 145.069 114.315 146.269 114.592C147.455 114.909 148.615 115.318 149.738 115.815C150.861 116.281 151.979 116.763 153.122 117.134C154.25 117.54 155.433 117.773 156.631 117.825C157.83 117.774 159.018 117.581 160.17 117.249C161.357 116.953 162.569 116.774 163.79 116.712C164.412 116.658 165.038 116.733 165.63 116.933C165.924 117.052 166.173 117.261 166.342 117.53C166.487 117.792 166.567 118.087 166.572 118.387Z" fill="#E09300"/>
<path d="M87.4329 74.5308C87.4329 81.3739 99.8207 111.749 106.117 117.043C106.709 117.545 108.444 118.227 110.85 118.964L89.6588 69.2969C88.1899 69.8634 87.4329 71.8787 87.4329 74.5308Z" fill="#FFA800"/>
<path d="M93.9702 97.9669L105.37 82.511C105.37 82.511 99.1941 75.0913 95.1985 71.4817C89.9094 66.689 86.1094 67.4711 87.117 76.1792C87.7938 81.9746 93.9702 97.9669 93.9702 97.9669Z" fill="#00A8FF"/>
<path d="M87.1172 76.1581C87.794 81.9735 93.9654 97.9709 93.9654 97.9709L103.837 84.5854L89.3381 68.583C87.4832 68.9289 86.5357 71.3203 87.1172 76.1581Z" fill="#0086CC"/>
<path d="M104.824 100.228L106.694 118.276H63.9056C63.9056 118.276 63.7502 111.463 65.5951 101.381C65.5951 101.381 63.4494 95.4051 65.1188 90.9433C67.9112 83.4735 73.9071 75.8583 77.7072 71.6521C83.1466 65.6362 88.7364 67.1402 92.8774 71.2761C93.9302 72.3239 104.222 85.2883 105.596 91.5499C106.799 97.0645 104.824 100.228 104.824 100.228Z" fill="#FFC24D"/>
<path d="M104.829 100.228L105.581 107.477H64.6475C64.8832 105.622 65.194 103.577 65.595 101.371C65.595 101.371 63.4544 95.3899 65.1188 90.9331C67.9112 83.4633 73.9071 75.8481 77.7072 71.6369C83.1516 65.621 88.7364 67.125 92.8824 71.266C93.9352 72.3087 104.222 85.2731 105.601 91.5397C106.799 97.0694 104.829 100.228 104.829 100.228Z" fill="#00A8FF"/>
<path d="M74.584 101.722C75.1496 101.808 75.7213 101.85 76.2935 101.847C76.8526 101.822 77.409 101.755 77.9579 101.646C79.126 101.436 80.2891 101.145 81.4672 100.94C83.8185 100.488 86.1747 100.037 88.551 99.7715" stroke="white" stroke-width="0.266491" stroke-linecap="round"/>
<path d="M82.5547 101.772C83.056 101.772 83.5122 101.863 83.9935 101.893L85.4323 101.983C86.3899 102.043 87.3474 102.118 88.31 102.168C90.2351 102.274 92.1451 102.399 94.0652 102.575" stroke="white" stroke-width="0.266491" stroke-linecap="round"/>
<path d="M75.3057 71.0915C76.5595 72.4877 78.0942 73.6033 79.8091 74.3653C81.524 75.1273 83.3805 75.5185 85.257 75.5132C90.9822 75.5132 95.0129 71.3171 95.0129 71.3171C95.0129 71.3171 92.2706 67.2413 85.0966 67.2413C78.6345 67.2212 75.3057 71.0915 75.3057 71.0915Z" fill="#FFC24D"/>
<path d="M88.1316 68.952C87.8259 69.8488 85.005 73.7051 82.2085 73.1833C80.7695 72.9143 81.5114 67.8432 81.5114 67.8432V67.46L81.3076 62.0954L89.0529 58.9688C89.0529 58.9688 88.2376 68.6952 88.1316 68.952Z" fill="#FFC24D"/>
<path d="M88.7187 62.6009C87.9189 63.8695 86.8628 64.9571 85.6182 65.7939C84.3736 66.6307 82.9679 67.1981 81.4912 67.46L81.2874 62.0954L89.0326 58.9688C89.0326 58.9688 88.8899 60.6319 88.7187 62.6009Z" fill="#FFA800"/>
<path d="M74.826 53.1521C73.0731 62.4098 78.4214 64.505 80.4189 64.8801C82.2288 65.2225 88.4454 66.1519 91.1481 57.1348C93.8508 48.1177 90.0963 44.3633 85.9914 43.3646C81.8864 42.3659 76.5788 43.8905 74.826 53.1521Z" fill="#FFC24D"/>
<path d="M89.5421 57.5605C89.5421 57.5605 91.882 54.8374 93.1375 55.7017C94.3931 56.5659 92.4242 60.6545 90.8058 61.0785C90.602 61.1469 90.3865 61.1733 90.1722 61.1563C89.9579 61.1392 89.7493 61.079 89.5589 60.9792C89.3685 60.8795 89.2002 60.7422 89.0642 60.5757C88.9282 60.4092 88.8273 60.2169 88.7676 60.0105L89.5421 57.5605Z" fill="#FFC24D"/>
<path d="M91.0913 57.1635C90.0273 56.976 87.5855 53.6986 88.1073 48.5174C88.1073 48.5174 87.9606 53.2053 88.2296 53.9268C88.4987 54.6484 86.864 52.0843 87.2268 47.8978C87.2268 47.8978 84.7198 49.296 82.6857 49.614C80.6515 49.9319 79.449 49.777 79.3226 49.614C79.1962 49.4509 82.2046 48.8802 83.0974 48.069C83.0974 48.069 77.5697 49.8912 75.132 49.7893C74.8507 49.7893 75.1932 43.9925 79.2085 41.9951C83.2237 39.9976 88.8329 43.324 90.2434 45.0443C90.2434 45.0443 92.0819 45.5294 93.7858 48.5296C95.4898 51.5299 92.2164 57.3674 91.0913 57.1635Z" fill="#263238"/>
<defs>
<clipPath id="clip0">
<rect width="21.7057" height="21.7057" fill="white" transform="translate(26.4539 69.3896) rotate(-18.7742)"/>
</clipPath>
<clipPath id="clip1">
<rect width="21.7057" height="21.7057" fill="white" transform="translate(37.7939 25.7754) rotate(31.4963)"/>
</clipPath>
<clipPath id="clip2">
<rect width="27.1321" height="27.1321" fill="white" transform="translate(120.608 56.9775) rotate(15.6764)"/>
</clipPath>
<clipPath id="clip3">
<rect width="21.7057" height="21.7057" fill="white" transform="translate(113.773 19.6709) rotate(21.506)"/>
</clipPath>
<clipPath id="clip4">
<rect width="27.1321" height="27.1321" fill="white" transform="translate(61.0469 8.10059) rotate(-17.3715)"/>
</clipPath>
</defs>
</svg>
