<svg width="76" height="128" viewBox="0 0 76 128" fill="none" xmlns="http://www.w3.org/2000/svg">
<path d="M32.2605 116.8L29.3807 111.055L23.1441 113.735L27.212 121.858L32.2605 116.8Z" fill="#FCCA57"/>
<path d="M22.5422 127.173L34.5113 120.823L32.2063 116.809L28.7525 119.442L28.7364 119.414L28.4186 118.801L28.3981 118.812L27.7919 117.733L24.7455 119.356L25.3552 120.441L24.4319 120.935C22.1356 122.188 21.2727 124.971 22.5422 127.173Z" fill="#00A8FF"/>
<path d="M34.499 120.849L22.5549 127.211L22.9982 128L34.9422 121.638L34.499 120.849Z" fill="#333333"/>
<path fill-rule="evenodd" clip-rule="evenodd" d="M27.688 118.935C27.7247 119.005 27.6974 119.092 27.6269 119.128L25.3218 120.329C25.2513 120.366 25.1645 120.339 25.1278 120.268C25.0911 120.198 25.1184 120.111 25.1889 120.074L27.4941 118.873C27.5645 118.837 27.6513 118.864 27.688 118.935Z" fill="white"/>
<path fill-rule="evenodd" clip-rule="evenodd" d="M28.1635 119.767C28.2016 119.837 28.1759 119.924 28.1062 119.962L25.81 121.215C25.7403 121.253 25.6529 121.228 25.6148 121.158C25.5768 121.088 25.6025 121.001 25.6722 120.963L27.9684 119.71C28.0381 119.672 28.1255 119.697 28.1635 119.767Z" fill="white"/>
<path d="M27.0165 94.6296C30.942 86.2686 35.4107 77.1695 36.6519 74.9676C37.9747 72.5904 40.493 68.3955 40.6065 65.4725C40.6339 65.3065 40.6071 65.1497 40.5803 64.993C40.2469 59.4579 26.9489 56.4098 26.6415 56.57C21.8959 58.8338 20.6478 64.9084 18.5174 69.4133C15.9516 74.9606 13.4669 80.6553 11.3252 86.3989C10.9351 87.3797 10.1823 89.1754 9.17581 91.4447C7.84289 94.4151 8.14394 97.805 9.89125 100.517L20.6303 120.565C20.6303 120.565 31.2831 117.935 34.8151 112.492C34.8151 112.492 31.7371 101.35 27.0165 94.6296Z" fill="#353852"/>
<path fill-rule="evenodd" clip-rule="evenodd" d="M25.4806 60.4108C25.5537 60.442 25.5876 60.5265 25.5564 60.5995L25.4242 60.5431L25.2919 60.4866C25.3231 60.4136 25.4076 60.3796 25.4806 60.4108ZM20.1436 66.1055L20.1466 66.1065L20.1596 66.111C20.1713 66.1149 20.1891 66.1207 20.2124 66.1278C20.2588 66.142 20.3268 66.1614 20.4113 66.1818C20.5809 66.2226 20.815 66.2666 21.0748 66.2801C21.5995 66.3075 22.1967 66.2098 22.5971 65.7529C22.8072 65.5132 23.0813 65.0682 23.378 64.5231C23.6726 63.9817 23.9835 63.3529 24.2674 62.7542C24.5511 62.1558 24.8073 61.5888 24.9926 61.1713C25.0853 60.9625 25.1601 60.7913 25.2118 60.6722C25.2377 60.6127 25.2577 60.5662 25.2713 60.5347L25.2867 60.4988L25.2919 60.4866L25.4242 60.5431C25.5564 60.5995 25.5565 60.5995 25.5564 60.5995L25.5511 60.6121L25.5355 60.6484C25.5218 60.6802 25.5016 60.7269 25.4756 60.7868C25.4237 60.9064 25.3485 61.0784 25.2555 61.2879C25.0696 61.7069 24.8123 62.2762 24.5272 62.8775C24.2423 63.4785 23.9288 64.1126 23.6306 64.6606C23.3343 65.2051 23.0468 65.6761 22.8134 65.9425C22.3269 66.4977 21.6188 66.5965 21.0598 66.5673C20.7777 66.5526 20.5255 66.5051 20.344 66.4614C20.2531 66.4395 20.1795 66.4185 20.1282 66.4028C20.1025 66.3949 20.0824 66.3884 20.0685 66.3838L20.0523 66.3783L20.0479 66.3767L20.0465 66.3762L20.046 66.376C20.0459 66.376 20.0459 66.376 20.0945 66.2407L20.046 66.376C19.9712 66.3492 19.9323 66.2668 19.9591 66.192C19.986 66.1173 20.0683 66.0785 20.143 66.1053C20.143 66.1053 20.143 66.1053 20.143 66.1053L20.1436 66.1055Z" fill="#2A2B3B"/>
<path fill-rule="evenodd" clip-rule="evenodd" d="M33.6591 108.304C33.7154 108.36 33.7157 108.451 33.6597 108.507C30.9973 111.184 27.168 113.149 24.0148 114.442C22.4365 115.09 21.0238 115.571 20.0056 115.89C19.4965 116.05 19.0858 116.169 18.8022 116.248C18.6604 116.288 18.5503 116.318 18.4755 116.337C18.4382 116.347 18.4096 116.355 18.3904 116.36L18.3685 116.365L18.3628 116.367L18.3614 116.367C18.3613 116.367 18.3608 116.367 18.3257 116.228C18.2905 116.088 18.2905 116.088 18.2906 116.088L18.2921 116.088L18.2973 116.087L18.3184 116.081C18.3371 116.076 18.365 116.069 18.4018 116.059C18.4754 116.04 18.5842 116.011 18.7247 115.971C19.0058 115.893 19.4136 115.774 19.9196 115.616C20.9318 115.298 22.3365 114.82 23.9056 114.176C27.0475 112.887 30.8342 110.941 33.4557 108.304C33.5117 108.248 33.6028 108.248 33.6591 108.304ZM18.1862 116.263C18.1668 116.186 18.2135 116.108 18.2906 116.088L18.3257 116.228L18.3614 116.367C18.2844 116.387 18.2056 116.34 18.1862 116.263Z" fill="#2A2B3B"/>
<path fill-rule="evenodd" clip-rule="evenodd" d="M25.4009 92.9138C25.4519 92.8529 25.5426 92.8449 25.6034 92.8959C26.2054 93.4004 26.8951 94.2929 27.4288 95.0483C27.6971 95.4281 27.9285 95.7768 28.0927 96.0306C28.1749 96.1576 28.2404 96.2608 28.2853 96.3325C28.3078 96.3683 28.3252 96.3962 28.3369 96.4152L28.3503 96.4369L28.3538 96.4425L28.355 96.4445L28.2324 96.5196L28.1097 96.5947L28.1087 96.593L28.1054 96.5877L28.0924 96.5667C28.0809 96.5481 28.0639 96.5207 28.0417 96.4854C27.9974 96.4147 27.9327 96.3126 27.8513 96.1869C27.6885 95.9355 27.4594 95.59 27.1939 95.2142C26.66 94.4585 25.9891 93.5943 25.4187 93.1164C25.3579 93.0654 25.3499 92.9747 25.4009 92.9138ZM28.3074 96.6423C28.2397 96.6837 28.1512 96.6624 28.1097 96.5947L28.2324 96.5196L28.355 96.4445C28.3964 96.5122 28.3752 96.6008 28.3074 96.6423Z" fill="white"/>
<path d="M68.9848 105.462L62.9927 102.723L59.7401 108.495L68.2228 112.421L68.9848 105.462Z" fill="#FCCA57"/>
<path d="M67.8944 119.306L73.2987 107.197L68.8674 105.428L67.8485 109.581L67.1896 109.317L67.1825 109.334L65.9993 108.855L64.6284 111.94L65.8213 112.423L65.4213 113.33C64.3695 115.661 65.4938 118.319 67.8944 119.306Z" fill="#00A8FF"/>
<path d="M73.3107 107.248L67.936 119.344L68.7936 119.691L74.1683 107.595L73.3107 107.248Z" fill="#333333"/>
<path fill-rule="evenodd" clip-rule="evenodd" d="M66.6877 109.819C66.7601 109.851 66.7923 109.936 66.7596 110.009L65.7079 112.34C65.6752 112.412 65.59 112.444 65.5176 112.411C65.4452 112.379 65.413 112.294 65.4457 112.221L66.4975 109.89C66.5302 109.818 66.6153 109.786 66.6877 109.819Z" fill="white"/>
<path fill-rule="evenodd" clip-rule="evenodd" d="M67.6446 110.194C67.717 110.226 67.7492 110.311 67.7166 110.384L66.6648 112.715C66.6321 112.787 66.5469 112.819 66.4746 112.786C66.4022 112.754 66.37 112.669 66.4026 112.596L67.4544 110.265C67.4871 110.193 67.5722 110.161 67.6446 110.194Z" fill="white"/>
<path d="M56.5457 91.7804C55.5258 91.3634 54.3076 90.7653 52.9179 90.1427C52.7534 81.0297 52.8165 70.9637 52.9563 68.5201C53.1146 65.8583 53.5205 61.0569 52.3331 58.3565C52.2521 58.209 52.1711 58.0616 52.09 57.9141C49.3079 53.0668 35.8911 55.8464 35.7101 56.0925C32.3793 60.1037 33.9583 66.071 34.0218 71.0071C34.1103 77.0681 34.4336 83.1964 35.019 89.2262C35.1436 90.2803 35.1943 92.2074 35.3345 94.6569C35.4372 97.8656 37.2202 100.787 40.026 102.511L59.9462 114.589C59.9462 114.589 68.502 107.855 69.2538 101.489C69.2538 101.489 61.4101 93.7979 56.5457 91.7804Z" fill="#3F4261"/>
<path fill-rule="evenodd" clip-rule="evenodd" d="M41.8982 62.3673C41.9773 62.3744 42.0357 62.4444 42.0285 62.5234L41.8853 62.5105L41.7421 62.4976C41.7492 62.4185 41.8191 62.3602 41.8982 62.3673ZM44.6515 69.9627L44.6505 69.9626L44.6463 69.9621L44.6285 69.9599C44.6126 69.9578 44.5889 69.9545 44.5584 69.9499C44.4973 69.9406 44.409 69.9259 44.3015 69.9041C44.0859 69.8604 43.7949 69.7889 43.4911 69.6775C42.8728 69.4509 42.249 69.0766 42.0469 68.4823C41.942 68.1739 41.8844 67.6517 41.8609 67.0255C41.8377 66.4044 41.8484 65.6974 41.8733 65.0294C41.8981 64.3618 41.9369 63.7351 41.9695 63.2752C41.9859 63.0453 42.0006 62.8572 42.0113 62.7266C42.0166 62.6614 42.0209 62.6105 42.0239 62.576L42.0273 62.5367L42.0285 62.5234L41.8853 62.5105C41.7421 62.4976 41.7421 62.4976 41.7421 62.4976L41.7409 62.5114L41.7374 62.5512C41.7344 62.5862 41.73 62.6375 41.7247 62.7032C41.7139 62.8347 41.6991 63.0238 41.6827 63.2549C41.6499 63.7169 41.6108 64.347 41.5859 65.0188C41.5609 65.6902 41.5499 66.4051 41.5735 67.0362C41.597 67.6623 41.6548 68.2226 41.7746 68.5748C42.0217 69.3017 42.7603 69.7159 43.3921 69.9476C43.7133 70.0653 44.0192 70.1403 44.2444 70.1859C44.3571 70.2088 44.4501 70.2243 44.5152 70.2342C44.5478 70.2392 44.5734 70.2427 44.5911 70.245L44.6116 70.2476L44.6171 70.2483L44.6187 70.2485L44.6193 70.2485C44.6194 70.2485 44.6194 70.2485 44.6354 70.1061L44.6193 70.2485C44.6982 70.2574 44.7695 70.2006 44.7784 70.1217C44.7872 70.0428 44.7304 69.9716 44.6515 69.9627Z" fill="#2A2B3B"/>
<path fill-rule="evenodd" clip-rule="evenodd" d="M65.4339 97.7602C65.5116 97.777 65.5609 97.8535 65.5441 97.9311C64.3865 103.29 62.1055 106.925 60.1105 109.223C59.1133 110.372 58.1879 111.185 57.5107 111.713C57.172 111.976 56.8954 112.169 56.7027 112.295C56.6064 112.358 56.531 112.405 56.4794 112.436C56.4536 112.452 56.4338 112.464 56.4202 112.472L56.4045 112.481L56.4003 112.483L56.3991 112.484C56.399 112.484 56.3986 112.484 56.3283 112.359L56.3986 112.484C56.3293 112.523 56.2417 112.498 56.2028 112.429C56.164 112.36 56.1887 112.272 56.258 112.233C56.258 112.233 56.2579 112.233 56.258 112.233L56.2587 112.233L56.2619 112.231L56.2754 112.223C56.2876 112.216 56.306 112.205 56.3304 112.19C56.3791 112.161 56.4515 112.116 56.5448 112.055C56.7315 111.932 57.0018 111.744 57.334 111.486C57.9983 110.969 58.9098 110.167 59.8934 109.035C61.8601 106.769 64.1167 103.177 65.263 97.8704C65.2798 97.7928 65.3563 97.7434 65.4339 97.7602Z" fill="#2A2B3B"/>
<path fill-rule="evenodd" clip-rule="evenodd" d="M33.8362 67.2364C33.9154 67.2301 33.9847 67.2892 33.991 67.3684L33.9911 67.3702C34.0882 68.589 34.1856 69.8122 34.2197 70.993L34.2198 70.9946L34.2198 70.9946C34.2772 74.263 34.3976 77.5745 34.5723 80.8769C34.5765 80.9562 34.5156 81.0239 34.4363 81.0281C34.357 81.0323 34.2893 80.9714 34.2851 80.8921C34.1103 77.5869 33.9897 74.2722 33.9322 71.0005C33.8983 69.8279 33.8015 68.6117 33.7043 67.3912C33.698 67.312 33.757 67.2427 33.8362 67.2364Z" fill="white"/>
<path d="M48.5263 33.3414C42.2236 25.1678 27.2065 30.4825 19.4494 33.3801C11.6924 36.2778 11.9327 42.086 15.2735 43.2857C25.7684 47.0033 52.3702 38.2974 48.5263 33.3414Z" fill="#00A8FF"/>
<path d="M11.5016 17.7627L9.81826 9.73878C9.75597 9.49281 9.91081 9.24352 10.1899 9.14049C10.438 9.08731 10.6966 9.24797 10.7899 9.44408L11.2773 10.8523L10.9444 8.8491C10.9338 8.63526 11.0577 8.43584 11.2231 8.40038C11.4712 8.34721 11.6781 8.47573 11.7404 8.7217L12.3524 10.6219L12.1229 8.68293C12.0606 8.43696 12.2982 8.16994 12.5463 8.11676C12.7944 8.06359 13.053 8.22424 13.1153 8.47021L13.8104 10.6983L13.6538 9.21921C13.6225 8.92338 13.8083 8.62423 14.1081 8.60319C14.1081 8.60319 14.1081 8.60319 14.1598 8.63532C14.4597 8.61427 14.6874 8.82479 14.7497 9.07076L16.464 17.0448L11.5016 17.7627Z" fill="#FCCA57"/>
<path fill-rule="evenodd" clip-rule="evenodd" d="M13.7909 14.2607C13.7512 14.3392 13.6554 14.3706 13.5769 14.3309L11.7768 13.4202C11.6984 13.3805 11.6669 13.2847 11.7066 13.2062C11.7463 13.1277 11.8421 13.0963 11.9206 13.136L13.7207 14.0468C13.7992 14.0865 13.8306 14.1823 13.7909 14.2607Z" fill="#AF8219"/>
<path d="M17.6737 16.8267L17.1429 13.526L17.1401 10.7606C17.1087 10.4647 16.8603 10.1722 16.5397 10.1113C16.1881 10.1002 15.8471 10.303 15.8475 10.6486L15.3636 12.6973L15.0434 12.982C14.3512 13.5193 14.0626 14.4456 14.2911 15.3475L14.8204 17.2654L17.6737 16.8267Z" fill="#FCCA57"/>
<path fill-rule="evenodd" clip-rule="evenodd" d="M15.5222 11.9968C15.6079 12.0162 15.6617 12.1015 15.6423 12.1873L15.5188 12.7324C15.5114 12.7648 15.4941 12.7941 15.4693 12.8162L15.1437 13.1057C14.4722 13.6509 14.2309 14.462 14.4452 15.3084C14.4668 15.3936 14.4152 15.4802 14.33 15.5018C14.2447 15.5234 14.1581 15.4718 14.1365 15.3866C13.8943 14.4302 14.1673 13.4898 14.94 12.8606L15.2194 12.6122L15.3317 12.1169C15.3511 12.0311 15.4364 11.9774 15.5222 11.9968Z" fill="#AF8219"/>
<path fill-rule="evenodd" clip-rule="evenodd" d="M13.715 10.5105C13.7996 10.4864 13.8877 10.5353 13.9119 10.6199L14.2959 11.9639C14.32 12.0484 14.271 12.1366 14.1865 12.1607C14.1019 12.1849 14.0138 12.1359 13.9896 12.0514L13.6057 10.7074C13.5815 10.6228 13.6305 10.5347 13.715 10.5105Z" fill="#AF8219"/>
<path fill-rule="evenodd" clip-rule="evenodd" d="M12.3135 10.4653C12.3988 10.4437 12.4854 10.4953 12.507 10.5806L12.9015 12.1384C12.9231 12.2237 12.8715 12.3103 12.7863 12.3319C12.701 12.3535 12.6144 12.3019 12.5928 12.2166L12.1983 10.6588C12.1767 10.5735 12.2283 10.4869 12.3135 10.4653Z" fill="#AF8219"/>
<path fill-rule="evenodd" clip-rule="evenodd" d="M11.234 10.695C11.3186 10.671 11.4066 10.7201 11.4306 10.8047L11.8354 12.2307C11.8594 12.3153 11.8103 12.4033 11.7257 12.4274C11.6411 12.4514 11.553 12.4023 11.529 12.3177L11.1243 10.8917C11.1002 10.8071 11.1494 10.719 11.234 10.695Z" fill="#AF8219"/>
<path d="M18.2362 16.2503C24.4415 22.6642 25.8698 35.4742 24.989 39.9086C24.1081 44.3429 14.4683 43.5815 13.7173 42.2615C12.9663 40.9415 6.07957 22.1452 11.2836 17.1899C11.2354 17.1527 17.1379 15.1814 18.2362 16.2503Z" fill="#00A8FF"/>
<path d="M18.3691 62.8658C23.0229 64.5604 27.775 65.9529 32.6255 67.0433L33.1204 67.1221C35.8561 67.7312 38.7694 68.2675 41.7296 68.6234C45.0025 69.0725 48.3131 69.2242 51.6054 69.1419C52.6421 69.1193 53.6742 69.0381 54.7063 68.9569C54.7063 68.9569 54.8258 66.5926 54.7971 63.1213C54.8007 60.0596 54.726 56.0032 54.3386 51.8536C54.334 51.7951 54.3294 51.7366 54.3248 51.6781C54.3202 51.6195 54.3156 51.561 54.3156 51.561C53.6244 43.5497 51.9205 35.0881 48.0063 31.9224C47.8757 31.8149 47.8104 31.7612 47.6797 31.6537C42.3609 27.7154 33.0619 29.0943 30.3116 32.9607C24.8764 40.7474 18.3691 62.8658 18.3691 62.8658Z" fill="#00A8FF"/>
<path fill-rule="evenodd" clip-rule="evenodd" d="M30.4696 32.8859C30.5412 32.937 30.5579 33.0364 30.5068 33.1081C28.429 36.0214 26.2018 41.0075 24.2768 46.0451C24.2454 46.1273 24.1533 46.1684 24.0712 46.137C23.989 46.1056 23.9479 46.0136 23.9793 45.9314C25.9045 40.8932 28.1438 35.8728 30.2475 32.9231C30.2986 32.8515 30.398 32.8349 30.4696 32.8859Z" fill="white"/>
<path d="M71.2114 66.6868L72.4202 77.0814C72.4266 77.3319 72.2472 77.5692 72.0205 77.63C71.7937 77.6909 71.5605 77.5012 71.4816 77.2071L70.9895 75.8259L71.1701 77.8582C71.1608 78.0498 71.0381 78.2719 70.7955 78.2739C70.5688 78.3348 70.3923 78.1299 70.3449 77.9534L69.9376 75.982L70.0457 77.9707C70.0522 78.2211 69.8727 78.4584 69.5735 78.4757C69.331 78.4777 69.1136 78.3468 69.0347 78.0527L68.5326 75.7284L68.5145 77.2465C68.5368 77.5558 68.3007 77.8083 68.0014 77.8255C67.7589 77.8275 67.5099 77.5791 67.5035 77.3286L66.5636 69.0687L71.2114 66.6868Z" fill="#FCCA57"/>
<path d="M66.9511 69.1532L64.9946 74.0918C64.9034 74.4315 65.0548 74.7692 65.3289 74.8848C65.6188 75.0593 66.0314 75.0117 66.2517 74.7003L67.1078 73.5879L67.4731 73.3638C68.1878 72.8568 68.5496 71.9401 68.4262 71.0274L68.1322 69.0255L66.9511 69.1532Z" fill="#FCCA57"/>
<path fill-rule="evenodd" clip-rule="evenodd" d="M68.5166 75.9602C68.4297 75.9741 68.3481 75.9149 68.3342 75.8281L67.9771 73.5909C67.9632 73.5041 68.0224 73.4224 68.1092 73.4086C68.1961 73.3947 68.2777 73.4539 68.2916 73.5407L68.6487 75.7779C68.6626 75.8647 68.6034 75.9464 68.5166 75.9602Z" fill="#AF8219"/>
<path fill-rule="evenodd" clip-rule="evenodd" d="M69.9045 76.1547C69.8175 76.1679 69.7364 76.1081 69.7232 76.0212L69.3281 73.4159C69.3149 73.329 69.3747 73.2478 69.4616 73.2346C69.5486 73.2214 69.6298 73.2812 69.643 73.3682L70.0381 75.9734C70.0512 76.0604 69.9914 76.1416 69.9045 76.1547Z" fill="#AF8219"/>
<path fill-rule="evenodd" clip-rule="evenodd" d="M70.9579 75.9973C70.8711 76.0114 70.7893 75.9524 70.7752 75.8656L70.4023 73.5696C70.3882 73.4828 70.4471 73.401 70.5339 73.3869C70.6207 73.3728 70.7025 73.4318 70.7166 73.5186L71.0896 75.8145C71.1037 75.9014 71.0447 75.9832 70.9579 75.9973Z" fill="#AF8219"/>
<path d="M37.7223 30.651C33.6818 37.7881 49.6534 47.9422 57.356 50.6046C65.0587 53.2671 67.513 42.7094 66.0221 40.7764C64.5312 38.8434 40.7494 25.173 37.7223 30.651Z" fill="#00A8FF"/>
<path d="M64.0666 70.1795C59.6969 68.3884 55.2141 49.4142 55.4951 44.7991C55.7761 40.1839 65.1904 39.4867 66.0793 40.7615C66.9683 42.0363 78.5839 64.2671 72.6709 68.5017C72.6709 68.5017 65.437 70.7577 64.0666 70.1795Z" fill="#00A8FF"/>
<path d="M46.0051 44.2906C45.9317 44.2381 45.8294 44.2567 45.7794 44.3317C45.7319 44.403 45.7492 44.4992 45.8189 44.549C49.2076 46.9739 52.9682 49.0183 55.932 50.2443C56.8438 55.4248 58.8197 62.5481 61.0537 66.8006C61.0946 66.8785 61.1909 66.9084 61.2687 66.8675C61.3466 66.8266 61.3765 66.7303 61.3356 66.6525C59.1112 62.4181 57.1329 55.2758 56.2306 50.1031C56.2212 50.0492 56.1848 50.0039 56.1342 49.9831C53.1757 48.7683 49.4002 46.7199 46.0051 44.2906Z" fill="white"/>
<path d="M38.598 27.1184C44.0058 30.1737 51.456 29.013 56.4161 22.4545C60.918 16.488 60.1243 7.63639 56.2898 4.38915C52.2165 0.941143 46.653 2.38062 44.91 6.00509C43.2249 9.50891 44.2026 13.1203 42.1487 15.4279C41.1675 16.5314 38.7963 17.3179 37.2764 18.8882C35.5665 20.6329 35.1259 25.1548 38.598 27.1184Z" fill="black"/>
<path d="M42.5339 32.4119C42.5339 32.4119 40.0189 32.9292 38.8793 31.5868L39.395 28.2665L43.4294 27.5489C43.041 29.3415 42.9437 30.6241 42.5339 32.4119Z" fill="#FCCA57"/>
<path d="M36.8764 23.9114C35.9019 28.651 38.4347 29.7276 39.388 29.9185C40.2521 30.1057 43.222 30.5742 44.6482 25.9513C46.0745 21.3283 44.3206 19.4084 42.3745 18.8994C40.4285 18.3903 37.8515 19.1688 36.8764 23.9114Z" fill="#FCCA57"/>
<path d="M44.6901 25.918C44.14 25.7989 42.8868 24.1206 43.1855 21.4862C43.1855 21.4862 43.0836 23.8695 43.2217 24.2395C43.3599 24.6096 42.5225 23.2904 42.7335 21.1626C41.9898 21.5493 41.1919 21.8284 40.3645 21.9911C39.3049 22.1357 38.68 22.0405 38.6155 21.9585C38.551 21.8765 40.1167 21.6159 40.5843 21.2102C40.5843 21.2102 37.7028 22.0823 36.4378 22.0061C36.2907 21.999 36.4977 19.0572 38.5982 18.0807C40.6987 17.1043 43.5944 18.854 44.3192 19.7438C44.3192 19.7438 45.2711 20.0087 46.1423 21.5517C47.0135 23.0947 45.2856 26.0316 44.6901 25.918Z" fill="black"/>
<path d="M43.7882 26.1777C43.7882 26.1777 45.1644 24.6925 45.8691 25.1876C46.5737 25.6827 45.4375 27.9421 44.5011 28.1597C44.383 28.195 44.2584 28.2068 44.1348 28.1944C44.0111 28.182 43.891 28.1455 43.7815 28.0873C43.6721 28.0291 43.5755 27.9503 43.4977 27.8556C43.4199 27.7608 43.3624 27.6522 43.3287 27.5361L43.7882 26.1777Z" fill="#FCCA57"/>
</svg>
