<svg width="148" height="72" viewBox="0 0 148 72" fill="none" xmlns="http://www.w3.org/2000/svg">
<path fill-rule="evenodd" clip-rule="evenodd" d="M48.17 20.2108C45.8237 5.62338 31.3817 -3.30022 17.3443 1.1412C11.9639 2.85258 7.75676 6.19384 4.48002 11.2057H5.53181C13.5821 11.2057 21.6324 11.2057 29.6827 11.2057C31.0176 11.2057 31.0176 11.2057 30.5726 12.4689C27.6195 21.2295 24.6259 30.0308 21.6728 38.7915C21.3897 39.6471 21.3897 39.9324 22.4414 39.9324C29.0354 39.8916 35.5889 39.8916 42.1828 39.9324C42.911 39.9324 43.3155 39.7286 43.6796 39.0767C44.3673 37.732 45.136 36.4281 45.8237 35.0835C48.17 30.3976 49.0195 25.4264 48.17 20.2108ZM17.3443 43.5996C25.1923 43.5996 33.0403 43.5996 41.1311 43.5996C39.432 46.6964 37.8948 49.5894 36.3171 52.4825C32.9999 58.513 29.6827 64.5436 26.4059 70.6149C26.0014 71.3483 25.5159 72.0003 24.6259 72.0003C23.7764 72.0003 23.3314 71.3483 22.9673 70.6556C16.4948 58.7982 9.94126 47.0224 3.54958 35.1242C0.191926 28.9307 0.0301117 22.4112 2.21461 15.7694C2.49779 14.9544 2.90232 14.7915 3.67094 14.7915C10.5481 14.8322 17.3847 14.8322 24.2619 14.7915C25.3946 14.7915 25.4755 15.1174 25.1518 16.0954C22.1583 24.7337 19.2052 33.4129 16.252 42.092C15.7261 43.5996 15.7666 43.5996 17.3443 43.5996ZM14.108 24.3263C12.6517 24.367 11.3571 23.1039 11.3571 21.5962C11.3571 20.1701 12.5708 18.9477 13.9866 18.9069C15.4025 18.8662 16.6161 20.0886 16.6161 21.5555C16.697 23.0631 15.5643 24.2855 14.108 24.3263ZM34.9012 24.2855C33.4449 24.204 32.2717 22.9816 32.3121 21.5555C32.3121 20.0886 33.5662 18.9069 34.9821 18.9069C36.4789 18.9069 37.652 20.1701 37.6116 21.7185C37.5711 23.1853 36.3575 24.367 34.9012 24.2855Z" fill="#663399"/>
<path fill-rule="evenodd" clip-rule="evenodd" d="M86.601 11.8577C89.5136 11.8577 91.86 14.221 91.86 17.1548C91.86 20.0886 89.5136 22.4519 86.601 22.4519C83.6883 22.4519 81.342 20.0886 81.342 17.1548C81.342 14.221 83.6883 11.8577 86.601 11.8577ZM122.241 28.2787C122.241 27.0563 122.645 25.9969 123.495 25.1005C124.344 24.204 125.356 23.7966 126.529 23.7966H142.063C142.346 23.7966 142.751 23.8373 143.277 23.878C144.126 24.0003 144.773 24.367 145.299 24.9782C145.825 25.6302 146.068 26.3636 146.068 27.1378C146.068 27.7083 145.947 28.238 145.744 28.6862C145.663 28.8492 145.461 29.1344 145.178 29.5419L136.885 39.5657H142.751C143.56 39.5657 144.288 39.7694 144.935 40.1361C145.623 40.5436 146.149 41.0733 146.553 41.7252C146.958 42.4179 147.16 43.1514 147.16 43.9663C147.16 44.7813 146.958 45.5555 146.553 46.2482C146.149 46.9409 145.623 47.4706 144.976 47.878C144.328 48.2855 143.6 48.4485 142.832 48.4485H126.569C126.003 48.4485 125.598 48.4485 125.315 48.4078C124.385 48.3263 123.616 47.9595 123.05 47.3076C122.483 46.6556 122.16 45.8814 122.16 44.985C122.16 44.4146 122.281 43.8033 122.564 43.2329C122.645 43.0699 122.807 42.8254 123.05 42.5402L131.302 32.6387H126.61C125.437 32.6387 124.385 32.1904 123.535 31.3348C122.686 30.5198 122.241 29.4604 122.241 28.2787ZM95.784 58.5945C94.8131 57.5758 94.3276 56.3534 94.3276 54.968V28.5232C94.3276 28.4825 94.3276 28.401 94.3276 28.3602C94.5299 25.7932 96.6739 23.7558 99.263 23.7558C100.841 23.7558 102.257 24.53 103.187 25.7117C104.846 24.367 106.949 23.4706 109.255 23.4706C110.428 23.4706 111.561 23.6336 112.653 24.0003C113.745 24.367 114.797 24.8967 115.809 25.6302C116.982 26.4859 117.993 27.586 118.843 29.0122C119.652 30.4383 120.258 32.0275 120.542 33.7796C120.703 34.7983 120.784 35.6132 120.784 36.3059C120.784 37.2838 120.663 38.221 120.461 39.1174C120.016 41.3585 119.126 43.2736 117.831 44.8628C116.537 46.4519 114.878 47.5928 112.936 48.2855C111.642 48.7337 110.347 48.9375 109.053 48.9375C107.677 48.9375 106.423 48.693 105.169 48.2448L104.684 48.0818L104.239 47.878V55.0088C104.239 56.4349 103.753 57.6166 102.742 58.6353C101.771 59.6132 100.598 60.1022 99.3034 60.1022C97.928 60.1429 96.7549 59.6539 95.784 58.5945ZM103.227 25.7117C103.187 25.7117 103.187 25.7117 103.227 25.7117V25.7117ZM107.596 31.7015C105.088 31.7015 103.066 33.7388 103.066 36.2651C103.066 38.7915 105.088 40.8288 107.596 40.8288C110.105 40.8288 112.127 38.7915 112.127 36.2651C112.127 33.7388 110.064 31.7015 107.596 31.7015ZM86.5605 48.9375C85.1851 48.9375 84.0119 48.4485 83.0411 47.4706C82.0702 46.4926 81.5847 45.311 81.5847 43.8848V28.6047C81.5847 27.6675 81.8274 26.8118 82.2724 26.0376C82.7174 25.2634 83.3242 24.6522 84.0928 24.204C84.8615 23.7558 85.711 23.5113 86.6414 23.5113C87.5314 23.5113 88.3809 23.7558 89.1496 24.204C89.9182 24.6522 90.525 25.2634 90.97 26.0376C91.415 26.8118 91.6577 27.6675 91.6577 28.6047V43.8033C91.6577 45.2295 91.1722 46.4519 90.1609 47.4298C89.1496 48.4485 87.9764 48.9375 86.5605 48.9375ZM53.874 28.2787C53.874 27.0563 54.2785 25.9969 55.128 25.1005C55.9775 24.204 56.9889 23.7966 58.162 23.7966H73.6963C73.9794 23.7966 74.384 23.8373 74.9099 23.878C75.7594 24.0003 76.4067 24.367 76.9325 24.9782C77.4585 25.6302 77.7012 26.3636 77.7012 27.1378C77.7012 27.7083 77.5798 28.238 77.3775 28.6862C77.2966 28.8492 77.0944 29.1344 76.8112 29.5419L68.5182 39.5657H74.384C75.193 39.5657 75.9212 39.7694 76.5685 40.1361C77.2562 40.5436 77.7821 41.0733 78.1866 41.7252C78.5911 42.4179 78.7934 43.1514 78.7934 43.9663C78.7934 44.7813 78.5911 45.5555 78.1866 46.2482C77.7821 46.9409 77.2562 47.4706 76.6089 47.878C75.9617 48.2855 75.2335 48.4485 74.4649 48.4485H58.2025C57.6361 48.4485 57.2316 48.4485 56.9484 48.4078C56.018 48.3263 55.2494 47.9595 54.683 47.3076C54.1167 46.6556 53.793 45.8814 53.793 44.985C53.793 44.4146 53.9144 43.8033 54.1976 43.2329C54.2785 43.0699 54.4403 42.8254 54.683 42.5402L62.9356 32.6387H58.243C57.0698 32.6387 56.018 32.1904 55.1685 31.3348C54.3189 30.5198 53.874 29.4604 53.874 28.2787Z" fill="#663399"/>
<path fill-rule="evenodd" clip-rule="evenodd" d="M124.263 50.7711C124.223 50.7711 124.223 50.7711 124.263 50.7711V50.7711Z" fill="#663399"/>
<path fill-rule="evenodd" clip-rule="evenodd" d="M125.841 63.7286C125.477 63.3619 125.315 62.9137 125.315 62.384V52.6047C125.315 52.564 125.315 52.564 125.315 52.564C125.396 51.6268 126.165 50.8526 127.136 50.8526C127.742 50.8526 128.268 51.1378 128.592 51.586C129.199 51.0971 130.008 50.7711 130.817 50.7711C131.262 50.7711 131.666 50.8526 132.071 50.9748C132.475 51.0971 132.88 51.3008 133.244 51.586C133.689 51.912 134.053 52.3195 134.377 52.8492C134.7 53.3789 134.903 53.9494 135.024 54.6013C135.064 54.968 135.105 55.294 135.105 55.5385C135.105 55.9052 135.064 56.2312 134.984 56.5572C134.822 57.3721 134.498 58.1056 134.013 58.676C133.527 59.2465 132.92 59.6947 132.192 59.9392C131.707 60.1022 131.221 60.1837 130.776 60.1837C130.291 60.1837 129.805 60.1022 129.361 59.9392L129.158 59.8577L128.996 59.7762V62.4247C128.996 62.9544 128.794 63.4027 128.43 63.7694C128.066 64.1361 127.661 64.2991 127.176 64.2991C126.61 64.2991 126.165 64.0954 125.841 63.7286ZM130.17 53.7864C129.239 53.7864 128.511 54.5198 128.511 55.457C128.511 56.3942 129.239 57.1276 130.17 57.1276C131.1 57.1276 131.828 56.3942 131.828 55.457C131.828 54.5198 131.1 53.7864 130.17 53.7864Z" fill="#663399"/>
<path fill-rule="evenodd" clip-rule="evenodd" d="M123.697 57.6573V52.6047C123.697 52.564 123.697 52.564 123.697 52.564C123.616 51.6268 122.847 50.8526 121.877 50.8526C121.27 50.8526 120.744 51.1378 120.42 51.586C119.813 51.0971 119.004 50.7711 118.195 50.7711C117.75 50.7711 117.346 50.8526 116.941 50.9748C116.537 51.0971 116.132 51.3008 115.768 51.586C115.323 51.912 114.959 52.3195 114.635 52.8492C114.312 53.3789 114.109 53.9494 113.988 54.6013C113.948 54.968 113.907 55.294 113.907 55.5385C113.907 55.9052 113.948 56.2312 114.029 56.5572C114.19 57.3721 114.514 58.1056 114.999 58.676C115.485 59.2465 116.092 59.6947 116.82 59.9392C117.305 60.1022 117.791 60.1837 118.236 60.1837C118.721 60.1837 119.207 60.1022 119.652 59.9392C119.935 59.8577 120.218 59.6947 120.542 59.5724C120.865 59.8984 121.351 60.1429 121.836 60.1429C122.807 60.1429 123.576 59.4095 123.657 58.4315V57.6573H123.697ZM118.802 53.7864C119.733 53.7864 120.461 54.5198 120.461 55.457C120.461 56.3942 119.733 57.1276 118.802 57.1276C117.872 57.1276 117.144 56.3942 117.144 55.457C117.144 54.5198 117.872 53.7864 118.802 53.7864Z" fill="#663399"/>
<path fill-rule="evenodd" clip-rule="evenodd" d="M136.683 63.7286C136.319 63.3619 136.157 62.9137 136.157 62.384V52.6047C136.157 52.564 136.157 52.564 136.157 52.564C136.238 51.6268 137.006 50.8526 137.977 50.8526C138.584 50.8526 139.11 51.1378 139.433 51.586C140.04 51.0971 140.849 50.7711 141.658 50.7711C142.103 50.7711 142.508 50.8526 142.912 50.9748C143.317 51.0971 143.722 51.3008 144.086 51.586C144.531 51.912 144.895 52.3195 145.218 52.8492C145.542 53.3789 145.744 53.9494 145.866 54.6013C145.906 54.968 145.947 55.294 145.947 55.5385C145.947 55.9052 145.906 56.2312 145.825 56.5572C145.663 57.3721 145.34 58.1056 144.854 58.676C144.369 59.2465 143.762 59.6947 143.034 59.9392C142.548 60.1022 142.063 60.1837 141.618 60.1837C141.133 60.1837 140.647 60.1022 140.202 59.9392L140 59.8577L139.838 59.7762V62.4247C139.838 62.9544 139.636 63.4027 139.272 63.7694C138.908 64.1361 138.503 64.2991 138.018 64.2991C137.492 64.2991 137.047 64.0954 136.683 63.7286ZM141.052 53.7864C140.121 53.7864 139.393 54.5198 139.393 55.457C139.393 56.3942 140.121 57.1276 141.052 57.1276C141.982 57.1276 142.71 56.3942 142.71 55.457C142.71 54.5198 141.982 53.7864 141.052 53.7864Z" fill="#663399"/>
<path d="M112.006 60.1429C112.788 60.1429 113.422 59.5044 113.422 58.7168C113.422 57.9291 112.788 57.2906 112.006 57.2906C111.224 57.2906 110.59 57.9291 110.59 58.7168C110.59 59.5044 111.224 60.1429 112.006 60.1429Z" fill="#663399"/>
</svg>
