<svg xmlns="http://www.w3.org/2000/svg" width="14" height="16" fill="none" viewBox="0 0 14 16">
    <g clip-path="url(#clip0)">
        <path fill="#000" fill-rule="evenodd" d="M9.257 2.554c.583-.676.976-1.617.869-2.554-.841.032-1.858.537-2.46 1.212-.542.6-1.014 1.557-.887 2.475.937.07 1.894-.456 2.478-1.133zM11.359 8.5c.024 2.422 2.217 3.227 2.241 3.238-.018.056-.35 1.147-1.155 2.275-.697.975-1.42 1.945-2.557 1.966-1.118.02-1.478-.635-2.757-.635-1.278 0-1.678.614-2.736.655-1.099.039-1.936-1.054-2.637-2.026C.323 11.987-.774 8.36.698 5.913c.732-1.216 2.039-1.987 3.457-2.006 1.079-.02 2.097.695 2.757.695.659 0 1.897-.86 3.197-.733.545.021 2.074.21 3.055 1.587-.08.047-1.824 1.02-1.805 3.044z" clip-rule="evenodd"/>
    </g>
    <defs>
        <clipPath id="clip0">
            <path fill="#fff" d="M0 0H13.6V16H0z"/>
        </clipPath>
    </defs>
</svg>
