<svg xmlns="http://www.w3.org/2000/svg" width="16" height="16" fill="none" viewBox="0 0 16 16">
    <path fill="#FBBB00" d="M3.546 9.669l-.557 2.079-2.036.043C.345 10.663 0 9.371 0 8c0-1.327.323-2.578.894-3.68l1.813.333.794 1.801C3.335 6.94 3.244 7.46 3.244 8c0 .587.107 1.15.302 1.669z"/>
    <path fill="#518EF8" d="M15.86 6.505c.092.484.14.984.14 1.495 0 .573-.06 1.131-.175 1.67-.39 1.834-1.407 3.435-2.817 4.569l-2.283-.117-.323-2.017c.936-.549 1.667-1.407 2.052-2.435H8.176V6.505H15.86z"/>
    <path fill="#28B446" d="M13.008 14.238C11.638 15.342 9.896 16 8 16 4.953 16 2.305 14.297.953 11.79L3.546 9.67C4.222 11.472 5.96 12.755 8 12.755c.876 0 1.698-.236 2.402-.65l2.606 2.133z"/>
    <path fill="#F14336" d="M13.106 1.842l-2.591 2.121c-.73-.455-1.591-.719-2.515-.719-2.085 0-3.857 1.343-4.499 3.21L.895 4.322C2.225 1.754 4.908 0 8 0c1.941 0 3.72.691 5.106 1.842z"/>
</svg>
