<svg width="104" height="24" viewBox="0 0 104 24" fill="none" xmlns="http://www.w3.org/2000/svg">
<g clip-path="url(#clip0)">
<path fill-rule="evenodd" clip-rule="evenodd" d="M0.0756073 14.044V14.0062C0.0756073 10.2142 2.97781 7.10742 6.94681 7.10742C9.30661 7.10742 10.7292 7.75542 12.096 8.93742L10.2798 11.1664C9.26881 10.309 8.37001 9.81342 6.85381 9.81342C4.75681 9.81342 3.09001 11.7004 3.09001 13.9684V14.0062C3.09001 16.4452 4.73761 18.2368 7.05961 18.2368C8.10781 18.2368 9.04381 17.9704 9.77401 17.4364V15.5308H6.87181V12.9964H12.564V18.7894C11.2158 19.9522 9.36241 20.905 6.96601 20.905C2.88361 20.905 0.0756073 17.989 0.0756073 14.044ZM14.1 10.4614H16.9464V12.5194C17.5266 11.1094 18.4632 10.195 20.148 10.2712V13.3012H19.998C18.1074 13.3012 16.9464 14.4634 16.9464 16.903V20.6764H14.1V10.4614ZM27.7692 14.7682C27.6012 13.4722 26.8518 12.5962 25.6536 12.5962C24.474 12.5962 23.706 13.4542 23.4816 14.7682H27.7692ZM20.6916 15.6262V15.5878C20.6916 12.6718 22.7322 10.2712 25.6536 10.2712C29.0046 10.2712 30.5406 12.9202 30.5406 15.817C30.5406 16.045 30.5214 16.312 30.5028 16.579H23.5188C23.7996 17.8936 24.6984 18.58 25.9716 18.58C26.9268 18.58 27.6192 18.2746 28.4058 17.5318L30.0348 18.9994C29.0988 20.1808 27.75 20.905 25.9338 20.905C22.92 20.905 20.6916 18.751 20.6916 15.6256V15.6262ZM38.4984 14.7682C38.3298 13.4722 37.5804 12.5962 36.3828 12.5962C35.2026 12.5962 34.4352 13.4542 34.2108 14.7682H38.4984ZM31.4208 15.6262V15.5878C31.4208 12.6718 33.4614 10.2712 36.3828 10.2712C39.7344 10.2712 41.2692 12.9202 41.2692 15.817C41.2692 16.045 41.2512 16.312 41.232 16.579H34.248C34.5294 17.8936 35.4276 18.58 36.7008 18.58C37.656 18.58 38.3484 18.2746 39.135 17.5318L40.764 18.9994C39.828 20.1808 38.4792 20.905 36.6636 20.905C33.6492 20.905 31.4208 18.751 31.4208 15.6256V15.6262ZM42.2622 10.4614H45.108V11.9098C45.7638 11.0524 46.6062 10.2712 48.048 10.2712C50.2014 10.2712 51.456 11.7196 51.456 14.0632V20.6764H48.6096V14.9782C48.6096 13.606 47.973 12.901 46.8876 12.901C45.801 12.901 45.108 13.606 45.108 14.9782V20.6764H42.2622V10.4614Z" fill="#007935"/>
<path fill-rule="evenodd" clip-rule="evenodd" d="M60.423 15.5881V15.5503C60.423 13.8541 59.2998 12.7297 57.9702 12.7297C56.6406 12.7297 55.536 13.8541 55.536 15.5497V15.5881C55.536 17.2843 56.6406 18.4081 57.9702 18.4081C59.2998 18.4081 60.423 17.3035 60.423 15.5881ZM52.728 10.4617H55.5738V11.9293C56.2668 10.9765 57.2214 10.2715 58.6998 10.2715C61.041 10.2715 63.2688 12.1393 63.2688 15.5503V15.5881C63.2688 18.9991 61.0782 20.8669 58.7004 20.8669C57.1836 20.8669 56.2482 20.1625 55.5738 19.3429V23.7259H52.728V10.4617ZM70.3656 17.0749V16.5595C69.879 16.3309 69.2424 16.1785 68.55 16.1785C67.332 16.1785 66.5838 16.6735 66.5838 17.5885V17.6269C66.5838 18.4081 67.2198 18.8659 68.1378 18.8659C69.4668 18.8659 70.3656 18.1219 70.3656 17.0743V17.0749ZM63.8316 17.7409V17.7031C63.8316 15.4735 65.4978 14.4439 67.8756 14.4439C68.8872 14.4439 69.6168 14.6155 70.3284 14.8639V14.6917C70.3284 13.4917 69.5982 12.8245 68.175 12.8245C67.089 12.8245 66.3216 13.0345 65.4042 13.3771L64.6926 11.1667C65.7966 10.6711 66.8832 10.3471 68.5866 10.3471C70.1412 10.3471 71.265 10.7665 71.9766 11.4901C72.7248 12.2527 73.062 13.3771 73.062 14.7493V20.6761H70.3098V19.5703C69.6168 20.3521 68.6616 20.8663 67.2768 20.8663C65.385 20.8663 63.8316 19.7611 63.8316 17.7409ZM74.0736 19.3237L75.2904 17.4175C76.3764 18.2179 77.5188 18.6373 78.4554 18.6373C79.2792 18.6373 79.6536 18.3325 79.6536 17.8753V17.8369C79.6536 17.2081 78.6798 16.9987 77.5752 16.6549C76.1712 16.2361 74.5788 15.5689 74.5788 13.5871V13.5493C74.5788 11.4721 76.227 10.3093 78.249 10.3093C79.5222 10.3093 80.9076 10.7473 81.9942 11.4913L80.9082 13.4923C79.9158 12.9013 78.9228 12.5389 78.1926 12.5389C77.5002 12.5389 77.1444 12.8443 77.1444 13.2445V13.2823C77.1444 13.8541 78.0996 14.1205 79.1856 14.5021C80.5896 14.9785 82.2186 15.6643 82.2186 17.5321V17.5699C82.2186 19.8379 80.5524 20.8669 78.3804 20.8669C76.9758 20.8669 75.4032 20.3905 74.0736 19.3237ZM82.9116 19.3237L84.1296 17.4175C85.2144 18.2179 86.3568 18.6373 87.2928 18.6373C88.1172 18.6373 88.4916 18.3325 88.4916 17.8753V17.8369C88.4916 17.2081 87.5184 16.9987 86.4132 16.6549C85.0092 16.2361 83.4174 15.5689 83.4174 13.5871V13.5493C83.4174 11.4721 85.065 10.3093 87.087 10.3093C88.3602 10.3093 89.7462 10.7473 90.8316 11.4913L89.7462 13.4923C88.7538 12.9013 87.7608 12.5389 87.0312 12.5389C86.3382 12.5389 85.983 12.8443 85.983 13.2445V13.2823C85.983 13.8541 86.937 14.1205 88.023 14.5021C89.4276 14.9785 91.0566 15.6643 91.0566 17.5321V17.5699C91.0566 19.8379 89.3904 20.8669 87.2184 20.8669C85.8144 20.8669 84.2412 20.3905 82.9116 19.3237Z" fill="#555E5D"/>
<path fill-rule="evenodd" clip-rule="evenodd" d="M83.1648 0.253906C89.3286 2.22611 94.8972 4.50071 96.693 8.02751C98.499 11.5747 97.077 19.1803 95.127 23.7439C101.706 14.1619 104.227 8.18231 102.569 4.92791C100.903 1.65611 94.6572 0.321706 83.1648 0.253906Z" fill="#61A508"/>
<path fill-rule="evenodd" clip-rule="evenodd" d="M95.1276 23.7441C96.7476 21.3837 98.1216 19.2429 99.2478 17.3061C99.5532 14.6814 99.0736 12.0251 97.8696 9.6729C97.2735 8.49886 96.5065 7.41972 95.5938 6.4707C96.0438 6.9615 96.414 7.4799 96.693 8.0277C98.499 11.5749 97.077 19.1805 95.127 23.7441" fill="#007935"/>
</g>
<defs>
<clipPath id="clip0">
<rect width="103.2" height="24" fill="white"/>
</clipPath>
</defs>
</svg>
