<svg width="14" height="20" viewBox="0 0 14 20" fill="none" xmlns="http://www.w3.org/2000/svg">
<path fill-rule="evenodd" clip-rule="evenodd" d="M13.2654 5.61422C12.6089 1.56216 8.56818 -0.91662 4.64062 0.31711C3.13525 0.792492 1.95811 1.72062 1.0413 3.11281H1.33559C3.58799 3.11281 5.8404 3.11281 8.0928 3.11281C8.46632 3.11281 8.46632 3.11281 8.34181 3.46369C7.51555 5.89719 6.67797 8.34201 5.85172 10.7755C5.77248 11.0132 5.77248 11.0924 6.06677 11.0924C7.9117 11.0811 9.74532 11.0811 11.5903 11.0924C11.794 11.0924 11.9072 11.0358 12.009 10.8547C12.2015 10.4812 12.4165 10.119 12.6089 9.74552C13.2654 8.44388 13.5031 7.06301 13.2654 5.61422ZM4.64062 12.1111C6.83643 12.1111 9.03225 12.1111 11.296 12.1111C10.8206 12.9713 10.3905 13.7749 9.94906 14.5786C9.02093 16.2537 8.0928 17.9289 7.17599 19.6154C7.06281 19.8191 6.92698 20.0002 6.67797 20.0002C6.44028 20.0002 6.31578 19.8191 6.21391 19.6267C4.40293 16.333 2.56932 13.0619 0.780974 9.75684C-0.158472 8.03641 -0.203746 6.22543 0.407459 4.38049C0.48669 4.15412 0.599876 4.10885 0.81493 4.10885C2.73909 4.12017 4.65194 4.12017 6.57611 4.10885C6.89303 4.10885 6.91567 4.1994 6.82512 4.47104C5.98754 6.87059 5.16128 9.28146 4.33502 11.6923C4.18788 12.1111 4.1992 12.1111 4.64062 12.1111ZM3.73513 6.7574C3.32766 6.76872 2.96547 6.41785 2.96547 5.99906C2.96547 5.6029 3.30503 5.26335 3.70118 5.25203C4.09733 5.24071 4.43689 5.58027 4.43689 5.98774C4.45953 6.40653 4.1426 6.74609 3.73513 6.7574ZM9.5529 6.74609C9.14543 6.72345 8.81719 6.38389 8.82851 5.98774C8.82851 5.58027 9.17939 5.25203 9.57554 5.25203C9.99433 5.25203 10.3226 5.6029 10.3113 6.03301C10.2999 6.44048 9.96037 6.76872 9.5529 6.74609Z" fill="#663399"/>
</svg>
