<svg width="19" height="16" viewBox="0 0 19 16" fill="none" xmlns="http://www.w3.org/2000/svg">
<path d="M18.3006 2.41894C17.6344 2.71191 16.9182 2.91113 16.1665 2.99902C16.9329 2.54199 17.5224 1.81836 17.7995 0.957031C17.0832 1.37891 16.2874 1.68652 15.4414 1.85352C14.7634 1.13574 13.7966 0.68457 12.7295 0.68457C10.678 0.68457 9.01253 2.33984 9.01253 4.37891C9.01253 4.66895 9.04496 4.95019 9.10981 5.21973C6.02066 5.06738 3.28228 3.59668 1.45178 1.36133C1.13049 1.90625 0.947734 2.54199 0.947734 3.21875C0.947734 4.49902 1.60212 5.62988 2.60137 6.29199C1.99121 6.27148 1.41936 6.10742 0.918258 5.8291C0.918258 5.84668 0.918258 5.86133 0.918258 5.87598C0.918258 7.66602 2.19754 9.16016 3.89834 9.49707C3.58589 9.58203 3.2587 9.62891 2.91972 9.62891C2.68096 9.62891 2.44515 9.60547 2.22112 9.56152C2.69275 11.0293 4.06636 12.0957 5.69052 12.1279C4.42008 13.1182 2.81655 13.707 1.07743 13.707C0.77677 13.707 0.482004 13.6895 0.190186 13.6543C1.83498 14.7031 3.78633 15.3154 5.88507 15.3154C12.7207 15.3154 16.4583 9.6875 16.4583 4.80664C16.4583 4.64844 16.4524 4.4873 16.4465 4.3291C17.1717 3.80762 17.8025 3.15723 18.3006 2.41894Z" fill="#8C90A5"/>
</svg>
