<svg width="18" height="18" viewBox="0 0 18 18" fill="none" xmlns="http://www.w3.org/2000/svg">
<path d="M5.33532 0.75C2.6559 0.75 0.453995 2.93555 0.453995 5.60156V12.3984C0.453995 15.0615 2.65295 17.25 5.33532 17.25H12.1739C14.8533 17.25 17.0552 15.0645 17.0552 12.3984V5.60156C17.0552 2.93848 14.8563 0.75 12.1739 0.75H5.33532ZM5.33532 2.25H12.1739C14.0398 2.25 15.546 3.74707 15.546 5.60156V12.3984C15.546 14.2529 14.0398 15.75 12.1739 15.75H5.33532C3.46945 15.75 1.9632 14.2529 1.9632 12.3984V5.60156C1.9632 3.74707 3.46945 2.25 5.33532 2.25ZM13.2115 3.89062C12.8312 3.89062 12.5276 4.19238 12.5276 4.57031C12.5276 4.94824 12.8312 5.25 13.2115 5.25C13.5917 5.25 13.8953 4.94824 13.8953 4.57031C13.8953 4.19238 13.5917 3.89062 13.2115 3.89062ZM8.75461 4.5C6.26383 4.5 4.227 6.52441 4.227 9C4.227 11.4756 6.26383 13.5 8.75461 13.5C11.2454 13.5 13.2822 11.4756 13.2822 9C13.2822 6.52441 11.2454 4.5 8.75461 4.5ZM8.75461 6C10.4318 6 11.773 7.33301 11.773 9C11.773 10.667 10.4318 12 8.75461 12C7.07739 12 5.7362 10.667 5.7362 9C5.7362 7.33301 7.07739 6 8.75461 6Z" fill="#8C90A5"/>
</svg>
