<svg width="18" height="18" viewBox="0 0 18 18" fill="none" xmlns="http://www.w3.org/2000/svg">
<path d="M2.2086 0.75C1.38326 0.75 0.699402 1.42969 0.699402 2.25V15.75C0.699402 16.5703 1.38326 17.25 2.2086 17.25H15.7914C16.6168 17.25 17.3006 16.5703 17.3006 15.75V2.25C17.3006 1.42969 16.6168 0.75 15.7914 0.75H2.2086ZM2.2086 2.25H15.7914V15.75H11.8769V10.6875H13.8342L14.1172 8.4375H11.8769V6.98438C11.8769 6.32812 12.0391 5.88281 12.9853 5.88281H14.2115V3.84375C14.0022 3.81738 13.2771 3.77344 12.4429 3.77344C10.7038 3.77344 9.5188 4.81348 9.5188 6.75V8.4375H7.53798V10.6875H9.5188V15.75H2.2086V2.25Z" fill="#8C90A5"/>
</svg>
