<svg width="18" height="18" viewBox="0 0 18 18" fill="none" xmlns="http://www.w3.org/2000/svg">
<path d="M15 2.25H3C2.58525 2.25 2.25 2.586 2.25 3V15C2.25 15.414 2.58525 15.75 3 15.75H15C15.4148 15.75 15.75 15.414 15.75 15V3C15.75 2.586 15.4148 2.25 15 2.25ZM6.25425 13.7528H4.25025V7.31025H6.25425V13.7528ZM5.25225 6.4305C4.61025 6.4305 4.09125 5.91 4.09125 5.2695C4.09125 4.629 4.6095 4.1085 5.25225 4.1085C5.89275 4.1085 6.41325 4.62825 6.41325 5.2695C6.41325 5.91075 5.89275 6.4305 5.25225 6.4305ZM13.7535 13.7528H11.7517V10.62C11.7517 9.873 11.7382 8.91225 10.7108 8.91225C9.66825 8.91225 9.51 9.72675 9.51 10.5675V13.7535H7.50975V7.311H9.42975V8.1915H9.4575C9.72375 7.68525 10.3777 7.15125 11.3505 7.15125C13.3785 7.15125 13.7528 8.48475 13.7528 10.2203V13.7528H13.7535Z" fill="#72788D"/>
</svg>
