<svg width="20" height="20" viewBox="0 0 20 20" fill="none" xmlns="http://www.w3.org/2000/svg">
<path d="M9.61652 14.2773L13.9823 10.9735L14.0118 5.8997L19.8525 11.7404C19.941 11.1799 20 10.59 20 10C20 4.48378 15.5162 0 10 0C4.48378 0 0 4.48378 0 10C0 15.5162 4.48378 20 10 20C10.7375 20 11.4454 19.9115 12.1534 19.764L5.9587 15.0737L9.61652 14.2773Z" fill="#E65300"/>
<path d="M19.8525 11.7401L14.0118 5.89941L13.9528 11.0027L9.61656 14.277L5.95874 15.103L12.1534 19.7932C16.0767 18.9083 19.1446 15.7224 19.8525 11.7401Z" fill="#AC441E"/>
<path d="M5.36865 6.72559L8.11202 8.73149L8.31851 13.6282L13.4807 13.2153L13.3038 6.81408L5.36865 6.72559Z" fill="#AC441E"/>
<path d="M15.5161 8.96787C15.4571 8.4664 15.3391 8.02392 15.1326 7.58144C14.8671 6.93248 14.4836 6.372 14.0116 5.90003C13.5397 5.42805 12.9792 5.04457 12.3302 4.77908C11.6813 4.5136 11.0028 4.3956 10.2653 4.3956C10.2358 4.3956 10.2063 4.3956 10.1768 4.3956H5.95854C5.95854 4.3956 5.16208 4.3956 4.7786 3.95312V5.72304C4.7786 5.72304 4.7491 6.99147 6.37152 6.99147C8.02344 6.99147 8.8199 6.99147 8.8199 6.99147H10.1473H10.1768H10.2063C10.5603 6.99147 10.8848 7.07997 11.1798 7.19796C11.4748 7.34546 11.7403 7.52245 11.9467 7.78793C12.1532 8.02392 12.3302 8.31891 12.4482 8.67289C12.5662 8.99737 12.6252 9.38085 12.6252 9.76433V9.79383C12.6252 10.1773 12.5662 10.5313 12.4482 10.8558C12.3302 11.1803 12.1532 11.4752 11.9467 11.7407C11.7403 11.9767 11.4748 12.1832 11.1798 12.3307C10.8848 12.4782 10.5603 12.5372 10.1768 12.5372H10.1473H8.64291V8.3484H5.92904V15.1036H8.64291H10.1473C10.9438 15.1036 11.6518 14.9561 12.3007 14.6906C12.9497 14.4251 13.5397 14.0416 14.0116 13.5401C14.4836 13.0682 14.8671 12.4782 15.1326 11.8292C15.3981 11.1803 15.5456 10.4723 15.5456 9.73484V9.70534C15.5751 9.46935 15.5456 9.20386 15.5161 8.96787Z" fill="white"/>
</svg>
