<svg xmlns="http://www.w3.org/2000/svg" width="114" height="76" fill="none" viewBox="0 0 114 76">
    <g clip-path="url(#clip0)">
        <path fill="#fff" fill-rule="evenodd" d="M107.506 20.01c3.21-.044 5.903 2.599 5.92 5.795.011 3.236-2.63 5.913-5.889 5.964-3.169.052-5.846-2.576-5.959-5.734-.125-3.46 2.932-6.222 5.928-6.025zm-9.47 25.104c-.283 8-6.135 13.738-13.186 14.723-3.87.556-7.807-.388-11.005-2.639-3.197-2.25-5.414-5.638-6.197-9.468-1.75-8.467 4.055-16.862 12.61-18.202 2.474-.404 5.01-.18 7.375.652.472.165.658.074.841-.384.561-1.4 1.14-2.794 1.718-4.188l.003-.006c.298-.718.596-1.436.892-2.155.543-1.319 1.486-2.166 2.897-2.468 2.248-.489 4.378 1.288 4.336 3.584-.015.868-.01 1.736-.005 2.604.003.434.005.868.005 1.302l-.284 16.645zm-33.641-.039c.127 8.015-6.35 15.348-15.309 15.364-8.494.02-15.326-6.86-15.347-15.288-.022-8.427 6.868-15.36 15.27-15.373 2.017-.01 4.015.378 5.88 1.141 1.866.764 3.563 1.89 4.992 3.31 1.43 1.422 2.565 3.112 3.34 4.973.774 1.861 1.173 3.857 1.174 5.873zm37.191-1.052v.002l.002 2.467.005 7.483v.135c-.025 1.51.505 2.817 1.51 3.923 1.671 1.838 4.225 2.46 6.468 1.6 1.123-.422 2.091-1.177 2.774-2.163.683-.987 1.05-2.158 1.05-3.358.01-1.513.007-3.025.003-4.537v-.003l-.003-2.269-.001-2.763v-.008c-.002-1.84-.003-3.68.001-5.52.003-1.66-.579-3.096-1.772-4.225-1.882-1.782-4.131-2.216-6.482-1.191-2.318 1.01-3.543 2.899-3.553 5.48-.005 1.65-.003 3.299-.002 4.947zm-88.74 17.62v.001c-.195 1.03-.386 2.046-.544 3.066-.215 1.36-.656 2.56-1.864 3.36-2.157 1.43-4.943.277-5.572-2.228l-.49-1.95v-.006c-1.22-4.869-2.442-9.74-3.803-14.572-2.468-8.79 3.283-17.903 12.305-19.31 8.05-1.256 15.465 3.69 17.403 11.613 2.103 8.602-3.897 17.431-12.665 18.63-.733.11-1.472.176-2.213.196-.51.013-1.02-.03-1.56-.075-.243-.02-.492-.041-.75-.058-.081.448-.165.892-.248 1.333zm-6.55 11.814c-.007-.67.252-1.316.72-1.797.468-.48 1.107-.757 1.777-.769 1.37-.023 2.576 1.125 2.606 2.474.006.343-.055.684-.182 1.002-.126.319-.315.61-.555.855-.24.245-.525.44-.841.573-.316.134-.655.204-.998.205-.671-.005-1.313-.275-1.787-.751-.473-.476-.74-1.12-.74-1.792z" clip-rule="evenodd"/>
    </g>
    <path fill="#fff" d="M39.026 13.696h2.08v1.744h-2.288l-.32 2.56H36.69l.32-2.56h-2.352l-.32 2.56h-1.792l.32-2.56H30.77v-1.744h2.304l.336-2.592h-2.096V9.36h2.304l.32-2.56h1.792l-.32 2.56h2.352l.32-2.56h1.792l-.32 2.56h2.08l.016 1.744h-2.304l-.32 2.592zm-1.808 0l.336-2.592h-2.352l-.336 2.592h2.352zM54.212 6.8L49.364 18h-2.56L41.972 6.8h2.8l3.408 8 3.456-8h2.576zm4.364 11.328c-.907 0-1.723-.187-2.448-.56-.715-.384-1.275-.912-1.68-1.584s-.608-1.435-.608-2.288c0-.853.203-1.616.608-2.288.405-.672.965-1.195 1.68-1.568.725-.384 1.541-.576 2.448-.576s1.718.192 2.432.576c.715.373 1.275.896 1.68 1.568s.608 1.435.608 2.288c0 .853-.203 1.616-.608 2.288-.405.672-.965 1.2-1.68 1.584-.715.373-1.525.56-2.432.56zm0-2.048c.64 0 1.163-.213 1.568-.64.416-.437.624-1.019.624-1.744 0-.725-.208-1.301-.624-1.728-.405-.437-.928-.656-1.568-.656s-1.168.219-1.584.656c-.416.427-.624 1.003-.624 1.728 0 .725.208 1.307.624 1.744.416.427.944.64 1.584.64zm10.699 2.048c-.918 0-1.745-.187-2.48-.56-.726-.384-1.296-.912-1.713-1.584-.405-.672-.607-1.435-.607-2.288 0-.853.202-1.616.608-2.288.416-.672.986-1.195 1.712-1.568.736-.384 1.562-.576 2.48-.576.906 0 1.695.192 2.367.576.683.373 1.18.912 1.489 1.616l-1.936 1.04c-.448-.79-1.094-1.184-1.936-1.184-.651 0-1.19.213-1.617.64-.426.427-.64 1.008-.64 1.744s.214 1.317.64 1.744c.427.427.966.64 1.617.64.853 0 1.498-.395 1.936-1.184l1.936 1.056c-.31.683-.806 1.216-1.489 1.6-.671.384-1.46.576-2.367.576zm13.765-4.4c0 .032-.016.256-.048.672H76.48c.118.533.395.955.832 1.264.438.31.982.464 1.632.464.448 0 .843-.064 1.184-.192.352-.139.678-.352.976-.64l1.328 1.44c-.81.928-1.994 1.392-3.552 1.392-.97 0-1.83-.187-2.576-.56-.746-.384-1.322-.912-1.728-1.584-.405-.672-.608-1.435-.608-2.288 0-.843.198-1.6.592-2.272.406-.683.955-1.21 1.648-1.584.704-.384 1.488-.576 2.352-.576.843 0 1.606.181 2.288.544.683.363 1.216.885 1.6 1.568.395.672.592 1.456.592 2.352zm-4.464-2.576c-.565 0-1.04.16-1.424.48-.384.32-.618.757-.704 1.312h4.24c-.085-.544-.32-.976-.704-1.296-.384-.33-.853-.496-1.408-.496zm1.328-2.864l-1.392-1.216-1.392 1.216h-1.824l2.112-2.304h2.208l2.112 2.304h-1.824z"/>
    <defs>
        <clipPath id="clip0">
            <path fill="#fff" d="M0 0H113.426V56H0z" transform="translate(0 20)"/>
        </clipPath>
    </defs>
</svg>
