<svg width="32" height="32" viewBox="0 0 32 32" fill="none" xmlns="http://www.w3.org/2000/svg">
<path d="M15.9998 6.66699C16.7362 6.66699 17.3332 7.26395 17.3332 8.00033V9.38896C19.225 9.70635 20.6665 11.3517 20.6665 13.3337H17.9998C17.9998 12.5973 17.4029 12.0003 16.6665 12.0003H15.3332C14.5968 12.0003 13.9998 12.5973 13.9998 13.3337C13.9998 14.07 14.5968 14.667 15.3332 14.667H16.6665C18.8756 14.667 20.6665 16.4579 20.6665 18.667C20.6665 20.649 19.225 22.2943 17.3332 22.6117V24.0003C17.3332 24.7367 16.7362 25.3337 15.9998 25.3337C15.2635 25.3337 14.6665 24.7367 14.6665 24.0003V22.6117C12.7747 22.2943 11.3332 20.649 11.3332 18.667H13.9998C13.9998 19.4034 14.5968 20.0003 15.3332 20.0003H16.6665C17.4029 20.0003 17.9998 19.4034 17.9998 18.667C17.9998 17.9306 17.4029 17.3337 16.6665 17.3337H15.3332C13.124 17.3337 11.3332 15.5428 11.3332 13.3337C11.3332 11.3517 12.7747 9.70635 14.6665 9.38896V8.00033C14.6665 7.26395 15.2635 6.66699 15.9998 6.66699Z" fill="#48DB84"/>
<path fill-rule="evenodd" clip-rule="evenodd" d="M15.9998 2.66699C8.63604 2.66699 2.6665 8.63653 2.6665 16.0003C2.6665 23.3641 8.63604 29.3337 15.9998 29.3337C23.3636 29.3337 29.3332 23.3641 29.3332 16.0003C29.3332 8.63653 23.3636 2.66699 15.9998 2.66699ZM5.33317 16.0003C5.33317 10.1093 10.1088 5.33366 15.9998 5.33366C21.8909 5.33366 26.6665 10.1093 26.6665 16.0003C26.6665 21.8914 21.8909 26.667 15.9998 26.667C10.1088 26.667 5.33317 21.8914 5.33317 16.0003Z" fill="#48DB84"/>
</svg>
