<svg xmlns="http://www.w3.org/2000/svg" width="215" height="215" fill="none" viewBox="0 0 215 215">
    <path fill="#FD88D0" d="M146.32 106.248L129.808 94.49l7.003-7.434 14.696 14.264-5.187 4.928z"/>
    <path fill="#48DB84" d="M127.993 0h47.116c5.014 0 8.99 4.063 8.99 8.99v34.322c0 4.928-4.063 8.99-8.99 8.99h-28.183l-9.51 12.795c-1.037 1.384-3.199.606-3.199-1.037V52.303h-6.311c-4.927 0-8.99-4.063-8.99-8.991V8.99c0-4.928 4.063-8.991 9.077-8.991z"/>
    <path fill="#fff" d="M132.229 17.29c-.087-3.112.605-5.36 1.902-6.83 1.297-1.469 3.112-2.247 5.446-2.333 2.421 0 4.236.691 5.62 2.16 1.383 1.47 2.074 3.718 2.161 6.83.086 3.113-.605 5.36-1.902 6.83-1.297 1.47-3.112 2.248-5.447 2.334-2.42 0-4.236-.691-5.619-2.161-1.383-1.47-2.075-3.804-2.161-6.83zm5.101-.172c0 2.247.345 3.717.864 4.495.432.519.951.864 1.643.778.691 0 1.21-.26 1.642-.864.519-.779.692-2.248.692-4.496s-.346-3.717-.778-4.495c-.433-.606-.951-.865-1.643-.865-.691 0-1.21.26-1.642.865-.519.864-.778 2.334-.778 4.582zm7.867 27.059l-4.842.086 17.636-36.482 4.755-.087-17.549 36.483zm10.46-9.164c-.086-3.112.605-5.36 1.902-6.83 1.297-1.47 3.199-2.247 5.533-2.334 2.334 0 4.236.692 5.619 2.161 1.383 1.47 2.075 3.718 2.161 6.83.087 3.112-.605 5.36-1.902 6.916-1.296 1.47-3.112 2.248-5.446 2.334-2.421 0-4.236-.692-5.619-2.161-1.47-1.556-2.161-3.804-2.248-6.916zm5.101-.087c0 2.248.345 3.718.864 4.496.432.605.951.864 1.643.864.691 0 1.21-.26 1.556-.864.519-.778.778-2.248.691-4.496 0-2.247-.345-3.717-.778-4.495-.432-.519-.951-.865-1.642-.778-.692 0-1.21.26-1.643.864-.432.692-.691 2.162-.691 4.41z"/>
    <path fill="#FD88D0" d="M33.507 183.35l6.998 8.572 21.563-17.604-6.998-8.572-21.563 17.604z"/>
    <path fill="#FCCA57" d="M31.773 184.745l12.189 14.956c2.853-2.334 3.285-6.57.951-9.423l-7.953-9.769-5.188 4.236z"/>
    <path fill="#333" d="M30.715 185.595l12.191 14.933 1.005-.82-12.192-14.933-1.005.82z"/>
    <path fill="#FCCA57" d="M33.535 183.32l6.998 8.572 4.888-3.991-6.998-8.572-4.888 3.991z"/>
    <path stroke="#000" stroke-linecap="round" stroke-linejoin="round" stroke-miterlimit="10" stroke-width=".5" d="M44.308 188.808l-2.334-2.939M43.184 189.673l-2.334-2.853"/>
    <path fill="#FD88D0" d="M98 211.349h11.066l.001-27.838H98.001v27.838z"/>
    <path fill="#FCCA57" d="M97.908 213.62h19.278c0-3.717-3.026-6.743-6.743-6.743H97.908v6.743z"/>
    <path fill="#333" d="M97.989 215h19.278v-1.297H97.989V215z"/>
    <path fill="#FCCA57" d="M98.003 211.359h11.065v-6.311H98.003v6.311z"/>
    <path stroke="#000" stroke-linecap="round" stroke-linejoin="round" stroke-miterlimit="10" stroke-width=".5" d="M109.06 206.445h-3.717M109.06 207.915h-3.717"/>
    <path fill="#000" d="M89.608 51.265c.865-3.372 2.161-8.386 4.15-12.363 2.334.26 3.285-.259 5.62.346-.26 8.645 2.852 17.204 4.149 25.762.086.26-.087.692-.433.778-2.42.346-4.927.692-7.348 1.038-.346.086-.778-.173-.778-.605 0-3.977.087-7.954.26-12.017-.779 3.89-1.038 7.867-1.21 11.844 0 .432-.347.692-.779.605-2.507-.519-5.1-.086-5.533-2.94-.605-4.149.951-8.558 1.902-12.448z"/>
    <path fill="#17171D" d="M159.634 115.066h-1.038v-6.484c0-4.322-3.544-7.867-7.867-7.867-4.322 0-7.867 3.545-7.867 7.867v6.484h-1.037v-6.484c0-4.928 3.976-8.904 8.904-8.904s8.905 3.976 8.905 8.904v6.484z"/>
    <path fill="#FD88D0" d="M170.354 154.228h-42.188l6.051-42.793h30.085l6.052 42.793z"/>
    <path fill="#FD88D0" d="M174.331 154.228h-42.102l5.965-42.793h30.171l5.966 42.793z"/>
    <path fill="#17171D" d="M146.234 115.066c0-.864-.692-1.469-1.47-1.469-.864 0-1.47.691-1.47 1.469 0 .865.692 1.47 1.47 1.47.865.086 1.47-.605 1.47-1.47zM162.573 115.066c0-.864-.691-1.469-1.47-1.469-.864 0-1.469.691-1.469 1.469 0 .865.691 1.47 1.469 1.47.779.086 1.47-.605 1.47-1.47z"/>
    <path fill="#17171D" d="M162.054 115.066h-1.037v-6.484c0-4.322-3.544-7.867-7.867-7.867s-7.867 3.545-7.867 7.867v6.484h-1.037v-6.484c0-4.928 3.976-8.904 8.904-8.904s8.904 3.976 8.904 8.904v6.484z"/>
    <path fill="#000" d="M83.989 109.793c-.173 4.495.432 10.46 1.383 17.203 2.853 20.403-1.556 72.187 12.017 76.855.26.086 12.276.086 12.708-.086 17.031-7.608 5.187-42.361 4.755-55.07-.519-15.82.519-52.562.173-52.648-15.389 3.112-30.258-2.075-31.036 13.746z"/>
    <path fill="#48DB84" d="M95.66 52.994c3.371-2.68 22.131 13.918 28.442 23.688 11.757 18.413-3.804 17.376-6.743 15.733-3.026-1.642-28.529-33.888-21.7-39.421z"/>
    <path fill="#48DB84" d="M151.075 91.379c-8.559-5.706-21.527-9.25-27.059-14.697-4.582-4.495-11.153 10.547-10.115 12.45 1.037 1.901 15.561 14.523 26.022 17.03.086 0 12.881-13.66 11.152-14.783z"/>
    <path fill="#212121" d="M87.88 153.364c-8.992-.259-17.031-2.594-25.244-6.224 2.507-9.51 3.371-20.403 4.927-28.011 1.384-6.656 2.767-12.535 4.496-16.685 5.965-14.696 13.054-5.619 28.529-3.285 1.556 7.867-12.45 53.34-12.709 54.205z"/>
    <path fill="#212121" d="M66.699 142.125c5.532 7.003 13.313 6.83 21.094 11.239-7.435 10.892-27.319 37.779-40.46 33.715-.432-.086-7.78-9.423-7.866-9.769-2.075-9.336 16.339-23.514 27.232-35.185z"/>
    <path stroke="#fff" stroke-linecap="round" stroke-linejoin="round" stroke-miterlimit="10" stroke-width=".5" d="M81.914 161.663c2.42-3.113 4.41-6.052 5.965-8.3.26-.864 14.265-46.337 12.708-54.29"/>
    <path fill="#48DB84" d="M68.168 105.211s7.262-47.98 18.069-52.476c8.818-3.718 16.944-1.124 18.587 8.213 1.469 8.558 5.965 21.18 7.694 25.503 1.642 4.322 6.397 12.103 6.397 12.103s-28.875 10.979-50.747 6.657z"/>
    <path fill="#48DB84" d="M87.101 52.39c4.063 1.296 2.94 26.367-2.507 36.568-5.447 10.201-19.451 9.337-19.71 5.879-.347-3.372 13.831-45.04 22.217-42.447z"/>
    <path fill="#17171D" d="M110.962 114.979h-1.038v-6.484c0-4.322-3.544-7.867-7.867-7.867-4.322 0-7.867 3.545-7.867 7.867v6.484h-1.037v-6.484c0-4.927 3.977-8.904 8.904-8.904 4.928 0 8.905 3.977 8.905 8.904v6.484z"/>
    <path fill="#FFD357" d="M121.682 146.534H79.494l6.051-35.272h30.085l6.052 35.272z"/>
    <path fill="#FFD357" d="M125.659 146.534H83.557l5.965-35.272h30.172l5.965 35.272z"/>
    <path fill="#17171D" d="M97.562 114.979c0-.864-.692-1.469-1.47-1.469-.864 0-1.47.691-1.47 1.469 0 .865.692 1.47 1.47 1.47.865 0 1.47-.692 1.47-1.47zM113.901 114.979c0-.864-.691-1.469-1.469-1.469-.865 0-1.47.691-1.47 1.469 0 .865.692 1.47 1.47 1.47s1.469-.692 1.469-1.47z"/>
    <path fill="#17171D" d="M113.383 114.979h-1.038v-6.484c0-4.322-3.544-7.867-7.867-7.867-4.322 0-7.867 3.545-7.867 7.867v6.484h-1.037v-6.484c0-4.927 3.977-8.904 8.904-8.904 4.928 0 8.905 3.977 8.905 8.904v6.484z"/>
    <path fill="#FD88D0" d="M94.536 101.925l4.582-5.36 5.187 3.026 2.334 2.334-6.743 4.842-5.36-4.842z"/>
    <path fill="#FD88D0" d="M99.896 106.767s.778.345 1.297.086c.518-.346.432-1.037.432-1.037s.692.345 1.124 0c.432-.346.519-1.211.519-1.211s.691.433 1.296 0c.606-.432.346-1.124.346-1.124s.778.26 1.297-.172c.432-.346.778-1.124.432-1.47l-5.1.605-1.643 4.323zM99.118 96.565l8.731 1.384c.519.086.865.518.692 1.037-.087.432-.519.778-.951.692l-4.323-.433-4.15-2.68z"/>
    <path fill="#48DB84" d="M102.403 95.96c-8.818-5.273-20.402-7.002-26.454-8.99-6.138-1.99-11.843 6.742-10.633 8.644 1.124 1.816 16.253 13.746 26.8 15.734 0 0 12.103-14.264 10.287-15.388z"/>
    <path fill="#FD88D0" d="M99.377 46.165s-1.642 5.187-1.815 6.31c-.087.347-4.928-.086-5.62-.69.52-1.384 1.643-3.113 2.075-5.534.519-2.507 5.36-.086 5.36-.086z"/>
    <path fill="#FD88D0" d="M92.288 42.102s2.075 6.484 6.225 6.051c4.236-.432.345-9.25-.346-9.423-.605-.173-4.841-.519-5.879 3.372z"/>
    <path fill="#000" d="M95.573 36.569c2.594-.52 5.792 0 6.225 2.939.086.346-.087.691-.433.778-2.075.519-4.236.605-6.31.26 0 .345-.087.69-.087 1.123-.173.865-.26 2.248-.951 2.853-1.383 1.21-2.766-.864-3.026-2.075-.778-3.112 1.73-5.706 4.582-5.878z"/>
    <path fill="#000" d="M81.136 68.382c.346 2.853 2.94 2.507 5.533 2.94.432.086.778-.173.778-.606.173-3.976.432-7.953 1.21-11.843-.086 3.976-.259 7.953-.259 12.016 0 .433.432.606.778.606 2.42-.346 4.928-.692 7.348-1.038.346-.086.433-.432.433-.778-1.297-8.559-3.026-16.34-2.68-25.07 0-.26-.433-1.47-.605-1.557.086-1.815.778-3.285.259-5.014-.087-.432 1.988-1.47 1.556-1.47-7.521.173-10.72 12.795-12.449 19.452-.864 3.89-2.42 8.3-1.902 12.362z"/>
    <path fill="#FD88D0" d="M94.623 42.966s-.779-1.124-1.903-.778c-1.123.346-1.037 3.112.951 3.112 1.989-.086.951-2.334.951-2.334z"/>
    <path fill="#FFD357" d="M94.103 44.695c-.172-.173-.518.086-.345.346.345.259.778 1.123.259 1.383-.519.259-1.47-.433-.951-.951.173-.173-.173-.519-.346-.346-.691.864.26 1.902 1.21 1.729 1.21-.087.865-1.556.173-2.161z"/>
    <path fill="#000" d="M79.84 69.074h-.346c.691-11.411 5.619-25.503 9.163-29.393 1.902-2.075 3.804-2.767 5.101-3.026 1.383-.26 2.334.087 2.334.087l-.086.259s-3.545-1.038-7.09 2.853c-3.544 3.89-8.385 17.895-9.076 29.22z"/>
    <path stroke="#fff" stroke-linecap="round" stroke-linejoin="round" stroke-miterlimit="10" stroke-width=".5" d="M97.562 104.605c2.939-3.89 5.792-8.04 4.928-8.645-5.62-3.371-12.276-5.273-17.982-6.743.086-.086.086-.173.173-.346 2.075-3.89 3.544-9.941 4.322-15.993M67.823 98.035c3.112 2.507 8.472 6.398 14.091 9.423M104.824 60.947c1.469 8.559 5.965 21.18 7.694 25.503M89.349 112.731l-3.977 23.083M132.229 154.228l4.495-32.16"/>
    <path fill="#FD88D0" d="M149.605 107.545c.26-.346.173-.865-.173-1.124l-3.112-2.248c-.346-.259-.864-.173-1.124.173-.259.346-.173.865.173 1.124l3.112 2.248c.346.259.865.173 1.124-.173z"/>
    <path fill="#FD88D0" d="M150.729 106.248c.26-.432.173-.951-.173-1.297l-3.198-2.247c-.433-.26-.951-.173-1.297.172-.259.433-.173.951.173 1.297l3.199 2.248c.432.346 1.037.259 1.296-.173zM152.804 103.309c.259-.433.173-.951-.173-1.211l-3.026-2.161c-.432-.26-.951-.173-1.21.173-.259.432-.173.951.173 1.21l3.026 2.161c.432.346.951.26 1.21-.172z"/>
    <path fill="#FD88D0" d="M151.766 104.778c.26-.432.173-.951-.172-1.296l-3.372-2.421c-.432-.259-.951-.173-1.297.173-.259.432-.173.951.173 1.297l3.372 2.42c.432.346 1.037.26 1.296-.173zM147.271 98.208l6.916.519c.519 0 .865.432.778.95 0 .433-.346.779-.778.779l-4.928.518-1.988-2.766z"/>
    <path stroke="#B74190" stroke-linecap="round" stroke-linejoin="round" stroke-miterlimit="10" stroke-width=".5" d="M148.741 105.989l-2.507-1.816c-.346-.259-.865-.173-1.124.173-.26.346-.173.865.173 1.124"/>
    <path stroke="#B74190" stroke-linecap="round" stroke-linejoin="round" stroke-miterlimit="10" stroke-width=".5" d="M147.358 102.704c-.433-.26-.951-.173-1.297.172-.259.433-.173.951.173 1.297M152.631 102.098l-3.026-2.161c-.432-.26-.951-.173-1.21.173-.259.432-.173.951.173 1.21"/>
    <path stroke="#B74190" stroke-linecap="round" stroke-linejoin="round" stroke-miterlimit="10" stroke-width=".5" d="M150.643 102.79l-2.421-1.729c-.432-.259-.951-.173-1.297.173-.259.432-.173.951.173 1.297l2.767 1.988"/>
    <path stroke="#4C4C4C" stroke-miterlimit="10" stroke-width=".5" d="M42.06 175.495l24.034-28.183 8.731-39.249"/>
    <path stroke="#333" stroke-miterlimit="10" stroke-width=".5" d="M96.61 199.874l-5.359-49.882"/>
</svg>
