<svg xmlns="http://www.w3.org/2000/svg" width="200" height="200" fill="none" viewBox="0 0 200 200">
    <path fill="#FEEEC9" d="M102.288 23.36c-9.806-.005-19.571 1.262-29.052 3.767l15.495 15.507c14.67-2.126 29.634-.79 43.697 3.897 14.063 4.687 26.836 12.598 37.297 23.1l12.912-12.911c-10.535-10.58-23.057-18.973-36.845-24.698-13.789-5.725-28.573-8.67-43.504-8.663zM133.7 87.591c3.614 2.293 6.964 4.978 9.989 8.006l12.913-12.912c-13.396-13.46-31.312-21.467-50.276-22.467L133.7 87.59zM51.403 14.286l-11.48 11.48 10.259 10.26c-10.39 5.404-19.89 12.368-28.172 20.647l12.912 12.912c8.35-8.342 18.172-15.068 28.97-19.837L78.166 64.01c-11.39 3.774-21.737 10.162-30.214 18.652l12.912 12.912C69.639 86.8 80.977 81.046 93.238 79.14l19.697 19.662c-6.777-1.906-13.94-1.969-20.75-.182-6.81 1.787-13.019 5.359-17.987 10.347l12.913 12.912c1.979-1.987 4.331-3.564 6.922-4.64 2.59-1.076 5.368-1.63 8.173-1.63 2.805 0 5.583.554 8.173 1.63 2.59 1.076 4.943 2.653 6.922 4.64l9.332-9.39 13.558 13.557 11.48-11.491L51.403 14.286z"/>
    <path stroke="#fff" stroke-linecap="round" stroke-linejoin="round" stroke-width=".832" d="M68.224 145.027c.974-12.548 4.437-29.346 14.626-44.852"/>
    <path fill="#FD88D0" d="M33.56 100.81L18.22 87.686c-.203-.175-.33-.421-.357-.688-.026-.266.051-.533.216-.744.162-.202.393-.337.65-.379.255-.04.518.015.735.156l3.345 2.348-3.873-3.522c-.163-.146-.263-.35-.28-.568-.018-.218.049-.435.186-.606.135-.175.333-.291.551-.324.22-.033.442.02.623.148l4.214 3.076-3.792-3.522c-.193-.195-.3-.459-.3-.733 0-.275.107-.538.3-.734.168-.182.397-.296.643-.322.246-.026.493.038.695.181l4.837 3.451-3.029-3.005c-.21-.229-.32-.532-.306-.842.013-.31.148-.603.377-.813.207-.164.463-.253.727-.253.264 0 .52.09.728.253l15.178 12.69-6.726 7.876z"/>
    <path stroke="#fff" stroke-linecap="round" stroke-linejoin="round" stroke-width=".766" d="M26.576 84.868l2.313 1.737M24.229 86.559l2.688 2.112M22.808 88.39l2.512 1.854M30.955 90.82l-4.05.834"/>
    <path fill="#2A2B3C" d="M33.153 73.369L24.01 71.83c-1.094-.184-2.129.553-2.313 1.647l-3.309 19.666c-.184 1.094.554 2.129 1.647 2.313l9.145 1.538c1.093.184 2.128-.553 2.312-1.646L34.8 75.681c.184-1.093-.553-2.129-1.647-2.312z"/>
    <path fill="#F2F2F3" d="M33.052 74.31l-9.26-1.558c-.614-.103-1.195.311-1.299.925l-3.078 18.3c-.104.614.31 1.196.924 1.299l9.26 1.558c.614.103 1.195-.31 1.299-.924l3.079-18.301c.103-.614-.311-1.195-.925-1.299z"/>
    <path fill="#2A2B3C" d="M30.136 73.025l-3.149-.53c-.243-.041-.473.123-.514.366l-.099.59c-.04.243.123.473.366.514l3.149.53c.242.04.473-.123.513-.366l.1-.59c.04-.243-.123-.474-.366-.514z"/>
    <path fill="#4093F5" d="M26.754 77.596l-3.612-.608c-.223-.038-.435.113-.473.337l-.896 5.325c-.038.224.113.435.337.473l3.612.608c.223.037.435-.113.473-.337l.896-5.325c.038-.224-.113-.436-.337-.473z"/>
    <path fill="#48DB84" d="M31.8 78.457l-3.611-.608c-.224-.037-.436.114-.473.337l-.896 5.325c-.038.224.113.436.337.474l3.611.607c.224.038.436-.113.474-.337l.896-5.325c.037-.223-.114-.435-.337-.473z"/>
    <path fill="#EA3E72" d="M33.231 78.695l.22.037-1.032 6.135-.22-.037c-.107-.018-.203-.078-.266-.167-.064-.088-.089-.199-.07-.306l.895-5.325c.018-.107.078-.203.167-.266.089-.064.199-.089.306-.07z"/>
    <path fill="#48DB84" d="M24.591 84.206l-2.593-.437c-.224-.037-.436.114-.473.337l-.66 3.925c-.038.223.113.435.337.473l2.592.436c.224.038.436-.113.474-.337l.66-3.924c.038-.224-.113-.436-.337-.473z"/>
    <path fill="#EA3E72" d="M21.133 88.982l2.593.436c.107.018.203.079.267.167.063.09.088.2.07.307l-.656 3.9-2.975-.5c-.056-.01-.11-.03-.159-.06-.048-.03-.09-.07-.123-.116-.033-.047-.057-.1-.07-.155-.012-.055-.014-.113-.004-.17l.584-3.472c.018-.107.078-.203.167-.266.088-.063.199-.089.306-.07z"/>
    <path fill="#48DB84" d="M32.316 77.133c.096.03.198.03.294 0l.2.282.093-.06-.2-.293c.072-.07.121-.16.141-.258.018-.12-.012-.24-.082-.34-.07-.097-.175-.165-.293-.188-.12-.02-.243.008-.342.078-.1.07-.166.178-.186.298-.02.12.008.242.078.341.07.1.177.166.297.187v-.047zm.141-.787c.086.017.163.067.213.14.05.072.07.16.057.248-.021.081-.072.152-.143.198-.07.046-.156.064-.24.051-.083-.013-.158-.056-.211-.122-.053-.066-.08-.149-.075-.233.007-.045.023-.088.047-.127.024-.038.056-.072.093-.098.037-.027.08-.045.124-.055.044-.01.09-.01.135-.002zM25.755 75.56c-.017.098-.07.187-.147.25-.078.062-.176.094-.276.09-.111 0-.218-.042-.299-.119-.08-.076-.13-.18-.135-.292-.002-.056.008-.112.029-.165.02-.053.051-.1.09-.141.04-.04.087-.073.139-.095.052-.022.108-.033.164-.033.066-.012.134-.012.2 0l.094-.153c.015-.006.03-.01.047-.01.016 0 .032.004.047.01.015 0 .03.003.043.01.014.005.026.014.036.025.01.011.018.025.022.039.005.014.006.029.005.044v.105l-.06.435zM23.395 75.583c.002.04.002.079 0 .118v.082c-.014.008-.03.013-.047.013-.016 0-.032-.005-.047-.013-.014-.009-.026-.02-.034-.035-.008-.014-.012-.03-.012-.047v-.47c-.005-.059.002-.118.021-.174.019-.056.05-.108.089-.152.04-.044.087-.079.141-.104.054-.024.112-.038.171-.04.107.006.208.049.285.122.078.073.127.172.138.278.003.058-.006.117-.026.172-.02.054-.053.104-.093.146-.041.042-.09.075-.145.097-.054.022-.112.033-.17.03h-.118l-.152-.023z"/>
    <path fill="#48DB84" d="M24.898 75.407c-.017.11-.078.21-.168.276-.09.066-.203.093-.313.076-.112-.02-.21-.083-.277-.175-.065-.092-.093-.206-.076-.318.02-.11.08-.209.172-.274.092-.065.205-.09.316-.072.11.019.209.08.274.172.064.091.09.205.072.315zM25.85 75.618v-.199c.002-.032.015-.063.036-.088.021-.025.05-.044.08-.053.032-.007.065-.004.094.009.03.012.054.034.07.062.01.018.014.038.014.058 0 .02-.005.04-.013.059V75.877c-.007.03-.023.059-.046.08-.023.023-.051.038-.082.044-.03.006-.063.003-.092-.009-.03-.011-.055-.03-.074-.056-.008-.019-.012-.039-.012-.06 0-.02.004-.04.012-.058l.012-.2zM26.13 74.926c.025-.007.05-.008.075-.003.025.005.048.015.069.03.02.016.036.036.047.058.011.023.017.048.017.073 0 .025-.006.05-.017.073-.011.023-.027.043-.048.058-.02.015-.043.026-.068.03-.025.005-.05.004-.075-.002-.02-.003-.04-.01-.057-.02s-.032-.025-.044-.041c-.012-.017-.021-.035-.026-.055-.004-.02-.005-.04-.002-.06.004-.034.019-.066.042-.091.023-.026.054-.043.087-.05zM23.15 75.912s0-.07.081 0c.083.07 0 0 0 .082 0 .019-.007.037-.02.05-.013.013-.031.02-.05.02-.019 0-.037-.007-.05-.02-.013-.013-.02-.031-.02-.05l.058-.082z"/>
    <path fill="#CCCCD0" d="M30.809 85.889l-4.827-.812c-.352-.06-.684.175-.743.524-.059.348.179.678.53.738l4.828.812c.351.059.684-.176.742-.524.059-.349-.179-.679-.53-.738zM28.258 87.085l-2.859-.48c-.173-.03-.336.087-.365.26l-.002.01c-.03.174.087.337.26.366l2.859.481c.173.03.336-.087.365-.26l.002-.011c.03-.173-.087-.337-.26-.366zM28.995 90.95l-3.89-.653c-.352-.06-.684.175-.743.523-.058.349.18.68.53.738l3.89.655c.352.059.684-.176.743-.524.059-.348-.179-.679-.53-.738zM26.365 92.134l-1.84-.31c-.173-.029-.336.087-.365.26l-.002.012c-.03.172.087.336.26.365l1.84.31c.173.028.336-.088.365-.26l.002-.012c.03-.173-.087-.336-.26-.365z"/>
    <path fill="#FD88D0" d="M42.07 90.937l-5.094-4.79-3.592-4.577c-.204-.256-.495-.428-.818-.482-.323-.055-.654.013-.93.188-.147.093-.273.214-.372.356-.099.142-.169.302-.206.471-.037.17-.04.344-.01.514.03.17.095.333.188.479l1.878 4.096-.2.916c-.195.907-.129 1.85.191 2.721s.881 1.633 1.617 2.197l3.275 2.524 4.074-4.613z"/>
    <path stroke="#B74190" stroke-linecap="round" stroke-linejoin="round" stroke-width=".766" d="M34.712 93.026c-.737-.564-1.298-1.326-1.618-2.197-.32-.87-.386-1.814-.19-2.721l.2-.916-.494-1.103"/>
    <path fill="#48DB84" d="M119.743 84.575c-21.27-8.076-48.467 22.174-59.138 36.8-10.67 14.626-3.298 25.39 4.203 23.688 23.476-5.341 67.824-55.652 54.935-60.488z"/>
    <path fill="#48DB84" d="M45.452 87.063c12.759 10.389 25.577 29.428 33.184 40.345 5.751 8.217-16.434 18.593-19.192 16.727-2.759-1.867-27.069-22.362-33.678-42.986 0 0 17.197-16.175 19.686-14.086z"/>
    <path fill="#48DB84" d="M148.96 167.401s1.538-70.066-18.534-81.687c-12.913-7.477-34.464-1.35-38.925 8.463-8.674 19.145-23.382 70.36-23.382 70.36s47.387 12.524 80.841 2.864z"/>
    <path fill="#48DB84" d="M126.668 86.57c-15.259 16.833-1.878 46.649 7.806 61.944 9.684 15.295 28.677 1.244 28.771-4.085.094-5.33-27.315-68.059-36.577-57.858z"/>
    <path fill="#FD88D0" d="M95.386 171.791l-3.157 1.761.223 9.168c.003.149.036.295.097.431.061.136.15.258.259.359.11.101.239.179.38.229.14.049.289.07.438.06.264.004.521-.088.724-.258.202-.17.337-.408.38-.669l1.173-7.043 10.271-4.003-3.522-9.496-7.266 9.461z"/>
    <path fill="#FD88D0" d="M93.273 177.32l-3.005 1.807-1.984 5.869c-.047.136-.12.261-.217.367-.096.107-.213.193-.344.253-.13.061-.271.094-.415.098-.143.005-.286-.02-.42-.072-.246-.091-.448-.27-.568-.502-.119-.233-.147-.502-.078-.754l3.052-11.891 4.625 1.749-.646 3.076z"/>
    <path fill="#FD88D0" d="M88.766 178.036l-4.273 4.953c-.201.215-.476.346-.77.368-.293.021-.584-.068-.815-.25-.184-.171-.309-.397-.355-.645-.047-.247-.013-.503.097-.729l5.87-10.975.246 7.278z"/>
    <path fill="#FD88D0" d="M102.558 162.282l-14.414 4.989-7.125 12.525c-.119.23-.158.493-.111.748s.176.487.369.66c.222.184.508.273.795.249.287-.024.554-.16.743-.378l5.294-6.01 5.14-.152 3.252-2.818 6.057-9.813z"/>
    <path stroke="#B74190" stroke-linecap="round" stroke-linejoin="round" stroke-width=".766" d="M87.604 179.01l1.42-5.552.27-1.01M92.31 177.038l-.093-3.486 3.17-1.761M83.366 180.395l4.167-8.029"/>
    <path stroke="#fff" stroke-linecap="round" stroke-linejoin="round" stroke-width=".766" d="M121.399 95.55c-4.484 13.171.904 29.945 7.348 42.81"/>
    <path fill="#48DB84" d="M163.245 144.429c-.727-2.535-2.969-2.981-5.364-2.629-2.23-5.048-5.869-9.508-10.623-9.086-10.025.892-40.016 13.828-52.823 24.263-2.488 2.043 10.189 24.651 10.189 24.651 21.54-2.348 52.823-24.416 55.17-26.787.094-.012 5.236-4.261 3.451-10.412z"/>
    <path stroke="#fff" stroke-linecap="round" stroke-linejoin="round" stroke-width=".766" d="M104.718 181.616s-12.677-22.596-10.189-24.651c8.393-6.866 24.251-14.813 36.964-19.696M148.96 162.506l-14.379 8.369M91.501 94.177c-5.2 11.468-12.56 34.452-17.607 51.038M64.914 108.251l5.258 7.102"/>
    <path fill="#EA7DC5" d="M105.422 74.997s.223 7.489.482 9.179c.07.516 2.019 1.538 2.019 1.538s5.751-.54 6.749-1.538c-.891-2.975-1.288-6.076-1.174-9.18.012-3.79-8.076 0-8.076 0z"/>
    <path fill="#FD88D0" d="M114.532 68.904s-1.749 10.189-8.217 10.389c-6.468.199-2.348-13.864-1.444-14.25.904-.388 7.278-1.762 9.661 3.861z"/>
    <path fill="#000" d="M116.257 62.73l1.503-.165c1.173-.14 1.173-2.03 0-1.89l-2.348.27c.096-.334.167-.675.211-1.02.129-1.175-1.761-1.175-1.89 0-.028.26-.087.516-.176.762-1.053-.88-2.344-1.427-3.709-1.573-2.805-.575-6.843-.129-9.05 2.02-1.444 1.42-1.773 3.333 0 4.695 1.174.915 2.747.88 4.132.95 1.886.11 3.779.06 5.657-.152.624.632 1.146 1.357 1.55 2.148.833 2.066.176 4.695.939 6.972.235.88 9.708-5.481 3.181-13.017z"/>
    <path fill="#FD88D0" d="M111.21 70.77c.257-.505.653-.926 1.142-1.213.489-.287 1.05-.428 1.616-.406 1.784.27 2.195 4.507-.821 4.883-3.017.375-1.937-3.264-1.937-3.264z"/>
    <path fill="#D3F6E1" d="M107.923 85.714l2.489 4.014 5.798-7.336-2.206-.81-6.081 4.132zM107.923 85.714l-3.181 3.204-.399-4.448 1.479-1.092 2.101 2.336z"/>
</svg>
