<svg width="16" height="20" viewBox="0 0 16 20" fill="none" xmlns="http://www.w3.org/2000/svg">
<path d="M8 0C5.243 0 3 2.243 3 5V8H2C0.896 8 0 8.896 0 10V18C0 19.104 0.896 20 2 20H4H7H9H11H14C15.104 20 16 19.104 16 18V10C16 8.896 15.104 8 14 8H13V5C13 2.243 10.757 0 8 0ZM5 5C5 3.346 6.346 2 8 2C9.654 2 11 3.346 11 5V8H5V5ZM9 15.723V18H7V15.723C6.273 15.301 5.831 14.445 6.061 13.499C6.237 12.779 6.841 12.197 7.567 12.046C8.861 11.774 10 12.753 10 14C10 14.739 9.596 15.377 9 15.723Z" fill="#BDC1D9"/>
</svg>
