<svg width="143" height="80" viewBox="0 0 143 80" fill="none" xmlns="http://www.w3.org/2000/svg">
<path d="M124.31 6.3482C125.023 2.30429 122.323 -1.55199 118.279 -2.26504L57.6976 -12.9472C53.6537 -13.6602 49.7974 -10.96 49.0844 -6.91613L26.6612 120.252C25.9482 124.296 28.6484 128.152 32.6923 128.865L93.2738 139.547C97.3177 140.26 101.174 137.56 101.887 133.516L124.31 6.3482ZM98.4803 129.7C97.8821 133.093 94.861 135.39 91.729 134.837L35.7585 124.968C32.6193 124.415 30.5655 121.224 31.1638 117.831L52.3291 -2.20385C53.5478 -9.11513 56.1449 -9.00525 59.2841 -8.45173L70.4926 -6.47535C71.1448 -6.36035 71.5485 -5.52316 71.3866 -4.605L71.3165 -4.2074C70.937 -2.05546 72.1127 -1.84762 73.5604 -1.59234L99.4869 2.97919C100.945 3.23636 102.11 3.44125 102.49 1.28932L102.56 0.891714C102.722 -0.026444 103.379 -0.676551 104.042 -0.559654L115.255 1.41739C118.387 1.96964 120.761 3.3392 119.646 9.66588L98.4803 129.7Z" fill="#393C47"/>
<path d="M119.65 9.66762L98.4843 129.702C97.886 133.095 94.8615 135.391 91.7295 134.839L35.7583 124.97C32.6192 124.416 30.5658 121.225 31.1641 117.832L52.3295 -2.20275C53.5481 -9.11404 56.1447 -9.00381 59.2839 -8.45029L70.4931 -6.47379C71.1453 -6.35879 71.5484 -5.52222 71.3865 -4.60406L71.3163 -4.20595C70.9368 -2.05402 72.1122 -1.84677 73.56 -1.59149L99.4868 2.98011C100.945 3.23729 102.114 3.44327 102.493 1.29134L102.563 0.893235C102.725 -0.024923 103.379 -0.675088 104.042 -0.558192L115.255 1.41894C118.387 1.9712 120.765 3.34094 119.65 9.66762Z" fill="white" fill-opacity="0.24"/>
<path d="M76.9932 56.0896C68.2595 66.5895 56.0431 74.103 50.4495 73.3333C46.0953 72.7339 30.3781 64.0525 25.9684 55.031C25.0049 53.036 40.7031 47.2873 41.6652 48.5143C44.5111 52.1237 53.494 57.4089 54.211 57.1242C55.1486 56.7546 67.2196 51.785 75.3982 47.6279C85.3361 42.6228 81.7782 50.3404 76.9932 56.0896Z" fill="#FFC24D"/>
<path d="M28.9091 59.3582C28.1418 58.5851 21.8071 53.1466 19.9157 48.7665C18.909 46.4551 16.8751 39.734 18.2053 38.9677C19.4211 38.2465 20.4279 39.9438 20.4279 39.9438C20.4279 39.9438 19.5588 36.9642 21.2926 35.9432C23.0265 34.9222 24.556 37.912 24.556 37.912C24.556 37.912 23.8885 34.7736 25.6573 33.9137C27.426 33.0538 28.4985 36.2868 28.4985 36.2868C28.4985 36.2868 27.7528 33.4455 29.5096 33.3508C31.625 33.2428 32.3961 38.644 33.9426 40.9744C34.2952 41.5043 41.8294 51.2013 41.8294 51.2013L28.9091 59.3582Z" fill="#FFC24D"/>
<path d="M28.5787 36.3384C29.1651 40.3037 30.1007 41.9437 32.6674 44.9414C32.7187 44.9944 32.6372 45.0814 32.5858 45.0285C29.8005 42.3325 28.3327 40.4448 28.3873 36.3528C28.3877 36.1575 28.5562 36.152 28.5787 36.3384Z" fill="#E69701"/>
<path d="M24.6457 37.949C25.6075 42.0165 26.6104 43.7967 29.0689 47.1339C29.1002 47.1825 29.0429 47.2539 28.985 47.1995C26.3017 44.1278 24.873 42.2206 24.448 38.0249C24.4255 37.8386 24.6032 37.7584 24.6457 37.949Z" fill="#E69701"/>
<path d="M20.5535 40.1065C21.767 43.9771 22.7719 45.9741 25.5882 48.9141C25.6014 48.9278 25.609 48.946 25.6093 48.9651C25.6096 48.9841 25.6026 49.0026 25.5898 49.0167C25.577 49.0308 25.5593 49.0395 25.5403 49.0411C25.5213 49.0426 25.5024 49.0368 25.4875 49.0249C22.3375 46.3059 21.0342 43.8187 20.4325 40.1501C20.3749 39.9004 20.4744 39.8591 20.5535 40.1065Z" fill="#E69701"/>
<path d="M45.1379 51.7391C45.1379 51.7391 44.0164 45.8294 43.0578 43.7797C42.0992 41.7299 35.7056 35.4342 34.2669 36.7353C32.4089 38.4274 35.3781 42.7893 37.1124 44.7346C37.1124 44.7346 32.787 48.6151 34.2667 52.2222C35.7464 55.8293 45.1379 51.7391 45.1379 51.7391Z" fill="#FFC24D"/>
<path d="M33.9063 37.3717C33.3111 40.1255 35.76 42.5393 37.3047 44.5553C37.329 44.5833 37.3464 44.6166 37.3556 44.6525C37.3648 44.6884 37.3654 44.7259 37.3576 44.7622C37.3498 44.7984 37.3336 44.8323 37.3105 44.8612C37.2873 44.8901 37.2577 44.9132 37.224 44.9287C35.5326 46.6568 33.6463 49.6409 34.1403 52.1625C34.1459 52.1705 34.1496 52.1798 34.1509 52.1895C34.1522 52.1992 34.1512 52.2091 34.1479 52.2183C34.1446 52.2275 34.1392 52.2358 34.1321 52.2425C34.1249 52.2492 34.1163 52.2541 34.1069 52.2568C34.0975 52.2595 34.0875 52.2599 34.0779 52.258C34.0683 52.256 34.0594 52.2518 34.0517 52.2457C34.0441 52.2395 34.038 52.2317 34.0341 52.2227C34.0301 52.2138 34.0283 52.204 34.0289 52.1942C33.1343 49.5581 34.7436 46.5001 36.7222 44.7016C35.1071 42.6564 32.7656 40.1332 33.8997 37.3703C33.8907 37.3474 33.9107 37.3517 33.9063 37.3717Z" fill="#E69701"/>
<path d="M71.5349 63.6512L68.0459 49.8642C68.0459 49.8642 74.3497 46.5001 78.1025 45.1291C83.062 43.3191 84.8977 44.7366 81.7786 50.417C79.6835 54.2407 71.5349 63.6512 71.5349 63.6512Z" fill="#A23EF0"/>
<path d="M71.0705 50.246C71.0435 50.4039 70.9703 50.5502 70.8601 50.6664C70.7499 50.7825 70.6077 50.8633 70.4515 50.8985C70.2953 50.9336 70.1323 50.9215 69.9831 50.8636C69.8338 50.8058 69.7052 50.7049 69.6134 50.5737C69.5216 50.4425 69.4709 50.287 69.4676 50.1268C69.4644 49.9667 69.5088 49.8092 69.5951 49.6743C69.6815 49.5395 69.806 49.4333 69.9528 49.3694C70.0995 49.3055 70.262 49.2867 70.4194 49.3153C70.6291 49.3523 70.8155 49.4711 70.9376 49.6457C71.0597 49.8202 71.1075 50.0361 71.0705 50.246ZM78.3427 50.7124C78.1852 50.6838 78.0228 50.7026 77.8761 50.7665C77.7293 50.8304 77.6048 50.9366 77.5184 51.0714C77.432 51.2063 77.3877 51.3638 77.3909 51.5239C77.3942 51.6841 77.4449 51.8396 77.5367 51.9708C77.6284 52.102 77.7571 52.2029 77.9064 52.2607C78.0556 52.3185 78.2186 52.3307 78.3748 52.2955C78.531 52.2604 78.6732 52.1796 78.7834 52.0635C78.8936 51.9473 78.9668 51.801 78.9937 51.6431C79.0307 51.4332 78.9829 51.2173 78.8608 51.0428C78.7387 50.8682 78.5524 50.7494 78.3427 50.7124ZM83.2768 45.6893C83.0717 45.6603 82.8633 45.7121 82.6957 45.8339C82.5281 45.9558 82.4143 46.138 82.3784 46.3422C82.3412 46.5532 82.3893 46.7704 82.512 46.9459C82.6348 47.1214 82.8223 47.2408 83.0331 47.278C83.0631 47.2878 83.0943 47.2933 83.1258 47.2944C83.2887 46.776 83.3402 46.229 83.2768 45.6893ZM73.3413 55.9105C73.1841 55.8819 73.0218 55.9007 72.8752 55.9644C72.7286 56.0281 72.6041 56.134 72.5176 56.2686C72.4312 56.4032 72.3866 56.5604 72.3895 56.7203C72.3924 56.8803 72.4427 57.0358 72.534 57.167C72.6253 57.2983 72.7535 57.3995 72.9023 57.4578C73.0512 57.5161 73.214 57.5288 73.3701 57.4944C73.5262 57.4599 73.6686 57.3799 73.7793 57.2644C73.8899 57.1489 73.9638 57.0031 73.9916 56.8456C74.0287 56.6353 73.9811 56.419 73.8592 56.2438C73.7374 56.0685 73.5512 55.9487 73.3413 55.9105Z" fill="white" fill-opacity="0.48"/>
<path d="M72.487 61.9184C72.1179 59.8799 71.7207 57.8454 71.2289 55.8308C70.9867 54.828 70.7279 53.8252 70.4524 52.8225C70.1728 51.8253 69.8016 50.8574 69.5405 49.8588C69.5278 49.8018 69.4389 49.8409 69.4584 49.8853C69.7707 50.8519 69.9502 51.8999 70.2061 52.9022C70.462 53.9044 70.7179 54.9067 70.9641 55.9118C71.4575 57.9175 71.9545 59.9285 72.4005 61.9442C72.4133 62.0011 72.4954 61.9746 72.487 61.9184Z" fill="#5A0C98"/>
<path opacity="0.1" d="M81.7741 50.4147C79.6873 54.2171 71.5349 63.6497 71.5349 63.6497L68.8749 53.2449L82.8577 44.8631C83.6833 45.6559 83.4022 47.4567 81.7741 50.4147Z" fill="black"/>
<path d="M60.8068 84.9768L65.4728 70.9369C65.4728 70.9369 62.0789 64.7461 65.4757 59.8667C67.1922 57.3892 75.784 48.5126 80.6552 45.4473C86.3905 41.8462 91.3165 45.9599 93.1338 48.8508C96.7702 54.6741 99.7848 67.9491 99.3898 91.78L60.8068 84.9768Z" fill="#FFC24D"/>
<path d="M60.9935 80.8974L65.482 70.9372C65.482 70.9372 62.0881 64.7465 65.4849 59.8671C67.2014 57.3895 75.7932 48.5129 80.6644 45.4477C86.3998 41.8466 91.9368 45.8264 93.7813 48.7176C97.0563 53.8528 100.515 63.9655 100.098 87.7925L60.9935 80.8974Z" fill="#A23EF0"/>
<path d="M78.9935 51.6456C78.9665 51.8034 78.8933 51.9498 78.7831 52.0659C78.6729 52.1821 78.5307 52.2629 78.3745 52.298C78.2184 52.3331 78.0553 52.321 77.9061 52.2632C77.7568 52.2054 77.6282 52.1045 77.5364 51.9733C77.4446 51.8421 77.3939 51.6865 77.3906 51.5264C77.3874 51.3663 77.4318 51.2088 77.5182 51.0739C77.6045 50.9391 77.729 50.8329 77.8758 50.769C78.0225 50.7051 78.185 50.6863 78.3424 50.7149C78.5521 50.7519 78.7385 50.8707 78.8606 51.0452C78.9827 51.2198 79.0305 51.4357 78.9935 51.6456ZM86.2613 52.1112C86.1039 52.0835 85.9417 52.1031 85.7955 52.1677C85.6492 52.2322 85.5253 52.3388 85.4396 52.4739C85.3539 52.6089 85.3102 52.7664 85.314 52.9263C85.3178 53.0863 85.3689 53.2414 85.461 53.3722C85.553 53.503 85.6818 53.6035 85.8309 53.6609C85.9801 53.7184 86.143 53.7302 86.2989 53.6949C86.4548 53.6596 86.5968 53.5787 86.7068 53.4626C86.8168 53.3465 86.8898 53.2003 86.9168 53.0426C86.9351 52.9384 86.9328 52.8315 86.9097 52.7281C86.8867 52.6248 86.8435 52.527 86.7826 52.4405C86.7217 52.3539 86.6442 52.2803 86.5548 52.2238C86.4653 52.1673 86.3656 52.129 86.2613 52.1112ZM94.1846 53.5083C94.0272 53.4806 93.865 53.5002 93.7188 53.5648C93.5725 53.6293 93.4486 53.7359 93.3629 53.8709C93.2772 54.006 93.2335 54.1635 93.2373 54.3234C93.2411 54.4833 93.2922 54.6385 93.3843 54.7693C93.4763 54.9001 93.6051 55.0006 93.7542 55.058C93.9034 55.1154 94.0663 55.1273 94.2222 55.092C94.3781 55.0567 94.5201 54.9758 94.6301 54.8597C94.7401 54.7436 94.8131 54.5974 94.84 54.4397C94.8584 54.3355 94.856 54.2286 94.833 54.1252C94.81 54.0219 94.7668 53.9241 94.7059 53.8376C94.6449 53.751 94.5675 53.6774 94.4781 53.6209C94.3886 53.5644 94.2889 53.5261 94.1846 53.5083ZM83.3126 45.6936C83.1552 45.665 82.9927 45.6838 82.846 45.7477C82.6992 45.8116 82.5747 45.9178 82.4884 46.0526C82.402 46.1875 82.3576 46.345 82.3608 46.5051C82.3641 46.6653 82.4148 46.8208 82.5066 46.952C82.5984 47.0832 82.727 47.1841 82.8763 47.2419C83.0255 47.2997 83.1886 47.3119 83.3447 47.2767C83.5009 47.2416 83.6431 47.1608 83.7533 47.0447C83.8635 46.9285 83.9367 46.7822 83.9637 46.6243C84.0007 46.4144 83.9529 46.1985 83.8308 46.0239C83.7087 45.8494 83.5223 45.7306 83.3126 45.6936ZM91.2315 47.0899C91.0741 47.0622 90.912 47.0818 90.7657 47.1464C90.6194 47.2109 90.4955 47.3175 90.4098 47.4526C90.3241 47.5876 90.2804 47.7451 90.2842 47.905C90.288 48.065 90.3391 48.2202 90.4312 48.3509C90.5232 48.4817 90.652 48.5822 90.8011 48.6396C90.9503 48.6971 91.1132 48.7089 91.2691 48.6736C91.425 48.6383 91.567 48.5575 91.677 48.4413C91.787 48.3252 91.8601 48.1791 91.887 48.0214C91.9054 47.9171 91.903 47.8102 91.8799 47.7068C91.8569 47.6035 91.8137 47.5058 91.7528 47.4192C91.6919 47.3326 91.6144 47.259 91.525 47.2025C91.4355 47.146 91.3358 47.1077 91.2315 47.0899ZM68.37 60.9387C68.2126 60.9101 68.0502 60.9289 67.9034 60.9928C67.7566 61.0567 67.6322 61.1629 67.5458 61.2977C67.4594 61.4326 67.415 61.5901 67.4183 61.7502C67.4215 61.9104 67.4722 62.0659 67.564 62.1971C67.6558 62.3283 67.7845 62.4292 67.9337 62.487C68.0829 62.5448 68.246 62.557 68.4022 62.5218C68.5583 62.4867 68.7005 62.4059 68.8107 62.2898C68.9209 62.1736 68.9942 62.0272 69.0211 61.8694C69.0581 61.6595 69.0103 61.4436 68.8882 61.269C68.7661 61.0945 68.5797 60.9757 68.37 60.9387ZM76.2933 62.3358C76.1359 62.3072 75.9735 62.326 75.8267 62.3899C75.6799 62.4538 75.5555 62.56 75.4691 62.6948C75.3827 62.8297 75.3383 62.9872 75.3415 63.1473C75.3448 63.3074 75.3955 63.463 75.4873 63.5942C75.5791 63.7254 75.7078 63.8263 75.857 63.8841C76.0062 63.9419 76.1693 63.954 76.3254 63.9189C76.4816 63.8838 76.6238 63.803 76.734 63.6868C76.8442 63.5707 76.9174 63.4243 76.9444 63.2664C76.9814 63.0566 76.9336 62.8407 76.8115 62.6661C76.6894 62.4916 76.503 62.3728 76.2933 62.3358ZM84.2122 63.7321C84.0548 63.7044 83.8927 63.724 83.7464 63.7886C83.6001 63.8531 83.4763 63.9597 83.3905 64.0948C83.3048 64.2298 83.2611 64.3873 83.2649 64.5472C83.2687 64.7071 83.3198 64.8623 83.4119 64.9931C83.5039 65.1239 83.6327 65.2244 83.7819 65.2818C83.931 65.3393 84.0939 65.3511 84.2498 65.3158C84.4057 65.2805 84.5477 65.1996 84.6577 65.0835C84.7677 64.9674 84.8408 64.8212 84.8677 64.6635C84.8861 64.5593 84.8837 64.4524 84.8607 64.349C84.8376 64.2457 84.7944 64.1479 84.7335 64.0614C84.6726 63.9748 84.5952 63.9012 84.5057 63.8447C84.4162 63.7882 84.3165 63.7499 84.2122 63.7321ZM92.1355 65.1292C91.9781 65.1015 91.816 65.1211 91.6697 65.1857C91.5234 65.2502 91.3996 65.3568 91.3138 65.4918C91.2281 65.6269 91.1844 65.7844 91.1882 65.9443C91.192 66.1042 91.2431 66.2594 91.3352 66.3902C91.4272 66.521 91.556 66.6215 91.7051 66.6789C91.8543 66.7363 92.0172 66.7482 92.1731 66.7129C92.329 66.6776 92.471 66.5967 92.581 66.4806C92.691 66.3645 92.7641 66.2183 92.791 66.0606C92.8094 65.9563 92.807 65.8495 92.7839 65.7461C92.7609 65.6428 92.7177 65.545 92.6568 65.4585C92.5959 65.3719 92.5185 65.2983 92.429 65.2418C92.3395 65.1853 92.2398 65.147 92.1355 65.1292ZM99.2173 66.934C99.1728 67.0091 99.1428 67.0919 99.1287 67.1781C99.1073 67.2984 99.1137 67.422 99.1475 67.5393C99.1813 67.6567 99.2415 67.7647 99.3235 67.8551C99.2919 67.5442 99.255 67.2369 99.2173 66.934ZM73.341 55.913C73.1838 55.8844 73.0215 55.9031 72.8749 55.9669C72.7283 56.0306 72.6038 56.1365 72.5174 56.2711C72.4309 56.4056 72.3863 56.5629 72.3892 56.7228C72.3921 56.8828 72.4424 57.0382 72.5337 57.1695C72.625 57.3008 72.7532 57.402 72.9021 57.4603C73.0509 57.5186 73.2137 57.5313 73.3698 57.4969C73.5259 57.4624 73.6684 57.3824 73.779 57.2669C73.8896 57.1514 73.9635 57.0056 73.9913 56.8481C74.0284 56.6378 73.9808 56.4214 73.859 56.2462C73.7371 56.071 73.5509 55.9512 73.341 55.913ZM81.2643 57.3101C81.1071 57.2815 80.9448 57.3002 80.7982 57.364C80.6516 57.4277 80.5271 57.5336 80.4407 57.6681C80.3542 57.8027 80.3096 57.96 80.3125 58.1199C80.3154 58.2799 80.3657 58.4353 80.457 58.5666C80.5483 58.6979 80.6765 58.7991 80.8254 58.8574C80.9742 58.9156 81.137 58.9284 81.2931 58.8939C81.4492 58.8595 81.5916 58.7795 81.7023 58.664C81.8129 58.5485 81.8868 58.4027 81.9146 58.2452C81.9517 58.0349 81.9041 57.8185 81.7822 57.6433C81.6604 57.4681 81.4742 57.3483 81.2643 57.3101ZM89.1832 58.7064C89.026 58.6787 88.864 58.6983 88.7179 58.7626C88.5717 58.827 88.4479 58.9333 88.3621 59.0681C88.2763 59.2029 88.2324 59.3601 88.2358 59.5198C88.2393 59.6796 88.29 59.8347 88.3816 59.9656C88.4731 60.0964 88.6014 60.1972 88.7502 60.2551C88.899 60.313 89.0616 60.3254 89.2175 60.2908C89.3734 60.2562 89.5155 60.1761 89.626 60.0607C89.7364 59.9452 89.8101 59.7996 89.8379 59.6423C89.8563 59.5378 89.854 59.4307 89.8311 59.3271C89.8081 59.2235 89.765 59.1255 89.7042 59.0386C89.6434 58.9517 89.5661 58.8776 89.4767 58.8206C89.3873 58.7636 89.2876 58.7248 89.1832 58.7064ZM97.1065 60.1035C96.9492 60.0758 96.7873 60.0954 96.6412 60.1597C96.495 60.2241 96.3712 60.3304 96.2854 60.4652C96.1996 60.6 96.1557 60.7572 96.1591 60.9169C96.1626 61.0767 96.2133 61.2318 96.3048 61.3627C96.3964 61.4935 96.5247 61.5943 96.6735 61.6522C96.8223 61.7101 96.9849 61.7225 97.1408 61.6879C97.2967 61.6533 97.4388 61.5732 97.5492 61.4578C97.6597 61.3423 97.7334 61.1967 97.7612 61.0393C97.7796 60.9349 97.7773 60.8278 97.7543 60.7242C97.7314 60.6206 97.6883 60.5226 97.6275 60.4357C97.5667 60.3488 97.4894 60.2747 97.4 60.2177C97.3106 60.1607 97.2109 60.1219 97.1065 60.1035ZM66.3217 72.5552C66.1645 72.5266 66.0023 72.5453 65.8556 72.6091C65.709 72.6728 65.5846 72.7787 65.4981 72.9133C65.4116 73.0478 65.367 73.2051 65.3699 73.365C65.3728 73.525 65.4231 73.6804 65.5144 73.8117C65.6057 73.943 65.7339 74.0442 65.8828 74.1025C66.0316 74.1607 66.1944 74.1735 66.3505 74.139C66.5067 74.1046 66.6491 74.0246 66.7597 73.9091C66.8703 73.7936 66.9442 73.6478 66.972 73.4903C67.0091 73.28 66.9615 73.0636 66.8397 72.8884C66.7178 72.7132 66.5316 72.5934 66.3217 72.5552ZM74.245 73.9523C74.0878 73.9237 73.9255 73.9424 73.7789 74.0062C73.6323 74.0699 73.5078 74.1758 73.4214 74.3103C73.3349 74.4449 73.2903 74.6021 73.2932 74.7621C73.2961 74.9221 73.3464 75.0775 73.4377 75.2088C73.529 75.3401 73.6572 75.4413 73.8061 75.4996C73.9549 75.5578 74.1177 75.5706 74.2738 75.5361C74.43 75.5017 74.5724 75.4217 74.683 75.3062C74.7936 75.1907 74.8675 75.0449 74.8953 74.8874C74.9324 74.6771 74.8848 74.4607 74.763 74.2855C74.6411 74.1103 74.4549 73.9905 74.245 73.9523ZM82.1639 75.3486C82.0067 75.3209 81.8448 75.3405 81.6986 75.4048C81.5525 75.4692 81.4286 75.5755 81.3428 75.7103C81.257 75.8451 81.2131 76.0023 81.2165 76.162C81.22 76.3218 81.2707 76.4769 81.3623 76.6078C81.4538 76.7386 81.5821 76.8394 81.7309 76.8973C81.8797 76.9552 82.0423 76.9676 82.1982 76.933C82.3541 76.8984 82.4963 76.8183 82.6067 76.7029C82.7171 76.5874 82.7908 76.4418 82.8186 76.2844C82.8558 76.0734 82.8077 75.8563 82.685 75.6808C82.5622 75.5053 82.3748 75.3858 82.1639 75.3486ZM90.0872 76.7457C89.93 76.718 89.768 76.7375 89.6219 76.8019C89.4757 76.8663 89.3519 76.9726 89.2661 77.1074C89.1803 77.2422 89.1364 77.3993 89.1398 77.5591C89.1433 77.7188 89.194 77.874 89.2856 78.0048C89.3771 78.1357 89.5054 78.2365 89.6542 78.2944C89.803 78.3523 89.9656 78.3647 90.1215 78.3301C90.2774 78.2955 90.4195 78.2154 90.53 78.0999C90.6404 77.9845 90.7141 77.8389 90.7419 77.6815C90.7603 77.577 90.758 77.47 90.7351 77.3664C90.7121 77.2628 90.669 77.1648 90.6082 77.0779C90.5474 76.991 90.4701 76.9169 90.3807 76.8599C90.2913 76.8029 90.1916 76.7641 90.0872 76.7457ZM98.0105 78.1428C97.8533 78.1151 97.6913 78.1346 97.5452 78.199C97.399 78.2634 97.2752 78.3697 97.1894 78.5045C97.1036 78.6392 97.0597 78.7964 97.0631 78.9562C97.0666 79.1159 97.1173 79.2711 97.2088 79.4019C97.3004 79.5328 97.4287 79.6336 97.5775 79.6915C97.7263 79.7493 97.8889 79.7618 98.0448 79.7272C98.2007 79.6926 98.3428 79.6125 98.4532 79.497C98.5637 79.3816 98.6374 79.236 98.6652 79.0786C98.7024 78.8676 98.6543 78.6505 98.5315 78.475C98.4088 78.2995 98.2213 78.18 98.0105 78.1428ZM71.292 67.5339C71.1347 67.5053 70.9725 67.524 70.8258 67.5878C70.6792 67.6515 70.5548 67.7574 70.4683 67.892C70.3818 68.0265 70.3372 68.1838 70.3401 68.3437C70.343 68.5037 70.3933 68.6591 70.4846 68.7904C70.5759 68.9217 70.7041 69.0229 70.853 69.0812C71.0018 69.1395 71.1646 69.1522 71.3208 69.1178C71.4769 69.0833 71.6193 69.0033 71.7299 68.8878C71.8406 68.7723 71.9144 68.6265 71.9422 68.469C71.9793 68.2587 71.9317 68.0424 71.8099 67.8671C71.688 67.6919 71.5018 67.5721 71.292 67.5339ZM79.2152 68.931C79.058 68.9024 78.8958 68.9211 78.7491 68.9849C78.6025 69.0486 78.478 69.1545 78.3916 69.2891C78.3051 69.4236 78.2605 69.5809 78.2634 69.7408C78.2663 69.9008 78.3166 70.0562 78.4079 70.1875C78.4992 70.3188 78.6274 70.42 78.7763 70.4783C78.9251 70.5365 79.0879 70.5493 79.244 70.5149C79.4002 70.4804 79.5426 70.4004 79.6532 70.2849C79.7638 70.1694 79.8377 70.0236 79.8655 69.8661C79.9026 69.6558 79.855 69.4394 79.7332 69.2642C79.6113 69.089 79.4251 68.9692 79.2152 68.931ZM87.1341 70.3273C86.9769 70.2996 86.815 70.3192 86.6688 70.3835C86.5227 70.4479 86.3989 70.5542 86.3131 70.689C86.2272 70.8238 86.1833 70.981 86.1867 71.1407C86.1902 71.3005 86.2409 71.4556 86.3325 71.5865C86.424 71.7173 86.5523 71.8181 86.7011 71.876C86.8499 71.9339 87.0126 71.9463 87.1684 71.9117C87.3243 71.8771 87.4665 71.797 87.5769 71.6816C87.6873 71.5661 87.7611 71.4205 87.7888 71.2631C87.8072 71.1587 87.8049 71.0516 87.782 70.948C87.759 70.8444 87.716 70.7464 87.6552 70.6595C87.5944 70.5726 87.5171 70.4985 87.4277 70.4415C87.3383 70.3845 87.2385 70.3457 87.1341 70.3273ZM95.0574 71.7244C94.9002 71.6967 94.7382 71.7163 94.5921 71.7806C94.4459 71.845 94.3221 71.9513 94.2363 72.0861C94.1505 72.2209 94.1066 72.3781 94.11 72.5378C94.1135 72.6976 94.1642 72.8527 94.2558 72.9836C94.3473 73.1144 94.4756 73.2152 94.6244 73.2731C94.7732 73.331 94.9358 73.3434 95.0917 73.3088C95.2476 73.2742 95.3897 73.1941 95.5002 73.0787C95.6106 72.9632 95.6843 72.8176 95.7121 72.6602C95.7493 72.4492 95.7012 72.2321 95.5784 72.0566C95.4557 71.8811 95.2682 71.7616 95.0574 71.7244ZM69.2429 79.1548C69.0856 79.1262 68.9234 79.1449 68.7768 79.2087C68.6301 79.2724 68.5057 79.3783 68.4192 79.5129C68.3327 79.6474 68.2881 79.8047 68.291 79.9646C68.2939 80.1246 68.3442 80.2801 68.4355 80.4113C68.5268 80.5426 68.6551 80.6438 68.8039 80.7021C68.9528 80.7604 69.1156 80.7731 69.2717 80.7387C69.4278 80.7042 69.5702 80.6242 69.6808 80.5087C69.7915 80.3932 69.8654 80.2474 69.8931 80.0899C69.9121 79.9857 69.9103 79.8788 69.8879 79.7753C69.8654 79.6719 69.8227 79.5739 69.7623 79.487C69.7019 79.4001 69.6249 79.326 69.5357 79.269C69.4466 79.212 69.3471 79.1732 69.2429 79.1548ZM77.1662 80.5519C77.0089 80.5233 76.8467 80.542 76.7 80.6058C76.5534 80.6695 76.429 80.7754 76.3425 80.9099C76.256 81.0445 76.2114 81.2018 76.2143 81.3617C76.2172 81.5217 76.2675 81.6771 76.3588 81.8084C76.4501 81.9397 76.5783 82.0409 76.7272 82.0992C76.876 82.1575 77.0388 82.1702 77.195 82.1357C77.3511 82.1013 77.4935 82.0213 77.6041 81.9058C77.7148 81.7903 77.7887 81.6445 77.8164 81.487C77.8354 81.3828 77.8336 81.2759 77.8112 81.1724C77.7887 81.069 77.746 80.971 77.6856 80.8841C77.6252 80.7972 77.5482 80.7231 77.459 80.6661C77.3699 80.6091 77.2704 80.5703 77.1662 80.5519ZM85.085 81.9482C84.9278 81.9205 84.7659 81.9401 84.6197 82.0044C84.4736 82.0688 84.3498 82.1751 84.264 82.3099C84.1782 82.4447 84.1342 82.6019 84.1377 82.7616C84.1411 82.9214 84.1918 83.0765 84.2834 83.2074C84.375 83.3382 84.5032 83.439 84.652 83.4969C84.8008 83.5548 84.9635 83.5672 85.1194 83.5326C85.2752 83.498 85.4174 83.4179 85.5278 83.3025C85.6382 83.187 85.712 83.0414 85.7397 82.8841C85.7588 82.7795 85.7569 82.6722 85.7342 82.5684C85.7115 82.4646 85.6685 82.3663 85.6076 82.2793C85.5467 82.1923 85.4692 82.1182 85.3795 82.0614C85.2898 82.0045 85.1897 81.9661 85.085 81.9482ZM93.0083 83.3453C92.8511 83.3176 92.6892 83.3372 92.543 83.4015C92.3969 83.4659 92.2731 83.5722 92.1873 83.707C92.1015 83.8418 92.0575 83.999 92.061 84.1587C92.0644 84.3185 92.1151 84.4736 92.2067 84.6045C92.2982 84.7353 92.4265 84.8361 92.5753 84.894C92.7241 84.9519 92.8868 84.9643 93.0426 84.9297C93.1985 84.8951 93.3407 84.815 93.4511 84.6996C93.5615 84.5841 93.6353 84.4385 93.663 84.2811C93.6821 84.1766 93.6802 84.0693 93.6575 83.9655C93.6348 83.8617 93.5918 83.7634 93.5309 83.6764C93.47 83.5894 93.3925 83.5153 93.3028 83.4585C93.2131 83.4016 93.113 83.3632 93.0083 83.3453ZM100.123 85.0921C100.061 85.1843 100.019 85.2888 100.001 85.3987C99.965 85.5975 100.007 85.8024 100.118 85.9709L100.123 85.0921Z" fill="white" fill-opacity="0.48"/>
<path d="M78.7615 71.7638C76.9339 71.4744 75.0876 71.3195 73.2374 71.3002C72.3253 71.308 71.4069 71.3512 70.4846 71.4164C70.0234 71.4491 69.5654 71.464 69.1066 71.4834C68.6288 71.5107 68.1494 71.4812 67.6785 71.3957C67.6343 71.3879 67.6234 71.4498 67.6668 71.462C68.0974 71.5913 68.5358 71.693 68.9793 71.7663C69.4156 71.8237 69.8555 71.8494 70.2955 71.8434C71.206 71.8445 72.159 71.812 73.0932 71.8081C74.9757 71.7982 76.8582 71.7883 78.7386 71.9193C78.8337 71.9224 78.8454 71.7786 78.7615 71.7638Z" fill="#5A0C98"/>
<path d="M82.7797 74.46C81.3464 73.9343 79.8847 73.4896 78.4015 73.1278C77.654 72.9505 76.9077 72.8189 76.1537 72.7042C75.7916 72.6403 75.4299 72.5993 75.0683 72.5583C74.7067 72.5173 74.2658 72.5125 73.8696 72.4608C73.8254 72.453 73.8093 72.5185 73.8579 72.5271C74.2289 72.5925 74.595 72.7117 74.9629 72.7948L76.0753 73.0456C76.8199 73.2133 77.5585 73.389 78.3046 73.5479C79.7962 73.8701 81.2757 74.2084 82.7534 74.5828C82.7697 74.5863 82.7867 74.5832 82.8007 74.5741C82.8147 74.5651 82.8245 74.5508 82.828 74.5345C82.8315 74.5182 82.8283 74.5012 82.8193 74.4872C82.8102 74.4732 82.796 74.4634 82.7797 74.46Z" fill="#5A0C98"/>
<path d="M79.9898 34.2247C79.7436 34.3412 79.5377 34.5285 79.3984 34.7628C79.2592 34.997 79.193 35.2675 79.2083 35.5396C79.2283 35.8864 79.3778 36.2131 79.6272 36.4548C79.8766 36.6964 80.2076 36.8354 80.5547 36.8442C80.4868 37.0278 80.4579 37.2235 80.4699 37.4188C80.4899 37.7968 80.65 38.1537 80.919 38.4198C81.1879 38.6859 81.5463 38.8421 81.9242 38.8578C81.8707 39.0127 81.8485 39.1768 81.8589 39.3404C81.8728 39.6001 81.9597 39.8506 82.1095 40.0631C82.2593 40.2756 82.4661 40.4414 82.7059 40.5415C82.9458 40.6416 83.209 40.6719 83.4654 40.6289C83.7217 40.586 83.9607 40.4715 84.155 40.2986C84.2013 40.641 84.3749 40.9532 84.6412 41.1729C84.9075 41.3927 85.2469 41.5038 85.5915 41.4841C85.7873 41.4736 85.9785 41.4208 86.152 41.3293C86.1488 41.371 86.1491 41.4129 86.1529 41.4546C86.169 41.7464 86.277 42.0256 86.4616 42.252C86.6461 42.4784 86.8977 42.6404 87.1801 42.7148C87.4625 42.7891 87.7612 42.7719 88.0332 42.6656C88.3053 42.5594 88.5367 42.3695 88.6942 42.1234C88.7734 42.4288 88.9557 42.6973 89.2103 42.8833C89.4649 43.0693 89.776 43.1613 90.0908 43.1437C90.3375 43.1296 90.5759 43.0495 90.7813 42.912C90.9867 42.7744 91.1516 42.5844 91.2588 42.3615C91.5413 42.5599 91.8819 42.6582 92.2265 42.6408C92.4286 42.6311 92.6265 42.58 92.808 42.4908C92.9896 42.4016 93.151 42.2761 93.2823 42.1221C93.4779 42.2994 93.7163 42.4224 93.9741 42.4789C94.2318 42.5355 94.4999 42.5236 94.7516 42.4445C95.0034 42.3654 95.2302 42.2217 95.4094 42.0279C95.5887 41.834 95.7142 41.5967 95.7735 41.3393C95.9427 41.4035 96.1224 41.4352 96.3034 41.4328C96.6375 41.4156 96.954 41.2774 97.1938 41.0439C97.4336 40.8104 97.5803 40.4976 97.6066 40.1638C97.8142 40.2515 98.039 40.2911 98.2641 40.2798C98.6667 40.2589 99.0445 40.079 99.3145 39.7795C99.5846 39.4799 99.7248 39.0854 99.7042 38.6825C99.6951 38.5158 99.6572 38.352 99.5922 38.1983C99.6718 38.2119 99.7528 38.2162 99.8334 38.2112C100.199 38.1916 100.541 38.0282 100.786 37.7567C101.032 37.4851 101.159 37.1276 101.142 36.7621C101.125 36.5104 101.04 36.268 100.897 36.0601C101.271 36.0067 101.611 35.8152 101.851 35.5234C102.09 35.2315 102.212 34.8605 102.192 34.4834C102.18 34.198 102.089 33.9217 101.928 33.6858C102.215 33.5628 102.458 33.3543 102.622 33.0887C102.787 32.823 102.866 32.5131 102.848 32.2011C102.837 31.9698 102.772 31.7442 102.66 31.542C102.547 31.3399 102.389 31.1666 102.198 31.0356C102.334 30.8989 102.439 30.735 102.507 30.5547C102.576 30.3744 102.605 30.1818 102.594 29.9893C102.583 29.7968 102.532 29.6089 102.443 29.4377C102.355 29.2665 102.231 29.1159 102.08 28.9957C102.292 28.8158 102.45 28.5812 102.538 28.3175C102.625 28.0538 102.639 27.7712 102.577 27.5004C102.515 27.2296 102.38 26.981 102.187 26.7817C101.993 26.5824 101.749 26.44 101.48 26.3701C101.573 26.1684 101.615 25.9474 101.605 25.7257C101.594 25.5041 101.53 25.2883 101.418 25.0967C101.306 24.9051 101.15 24.7433 100.962 24.6249C100.775 24.5066 100.561 24.4352 100.34 24.4167C100.427 24.2152 100.465 23.9966 100.453 23.7778C100.443 23.5789 100.393 23.3839 100.308 23.2041C100.222 23.0243 100.102 22.8632 99.9537 22.73C99.8057 22.5968 99.6328 22.4941 99.4451 22.4279C99.2574 22.3617 99.0584 22.3331 98.8596 22.344C98.7436 22.3499 98.629 22.3718 98.519 22.4091C98.5294 22.3276 98.5318 22.2453 98.5261 22.1633C98.5053 21.7613 98.3258 21.3841 98.0271 21.1146C97.7284 20.8451 97.3349 20.7054 96.9332 20.7263C96.8058 20.7307 96.6797 20.754 96.559 20.7953C96.5968 20.6562 96.6111 20.5118 96.6014 20.368C96.5868 20.0635 96.481 19.7704 96.2976 19.527C96.1142 19.2835 95.8618 19.101 95.5732 19.0032C95.2847 18.9054 94.9734 18.8969 94.6799 18.9787C94.3863 19.0604 94.1242 19.2288 93.9276 19.4617C93.7835 19.2429 93.5846 19.0656 93.3508 18.9475C93.117 18.8295 92.8564 18.7747 92.5949 18.7887C92.2033 18.8091 91.8347 18.9801 91.5661 19.266C91.4818 19.0109 91.3248 18.786 91.1144 18.619C90.904 18.452 90.6494 18.3502 90.382 18.3261C90.1145 18.3021 89.8458 18.3568 89.609 18.4835C89.3721 18.6103 89.1774 18.8036 89.0488 19.0396C88.8818 18.8592 88.6695 18.7269 88.4341 18.6563C88.1987 18.5858 87.9487 18.5795 87.71 18.6382C87.4713 18.697 87.2526 18.8185 87.0767 18.9903C86.9007 19.1621 86.7739 19.3779 86.7094 19.6152C86.5609 19.4649 86.3821 19.3479 86.1849 19.2723C85.9877 19.1966 85.7766 19.1639 85.5657 19.1764C85.2162 19.1931 84.8833 19.3305 84.6235 19.5651C84.3637 19.7998 84.1931 20.1172 84.1408 20.4634C83.9793 20.4104 83.8094 20.3871 83.6395 20.3948C83.2743 20.415 82.932 20.5795 82.6878 20.8519C82.4435 21.1244 82.3172 21.4828 82.3366 21.8483C82.3455 22.0145 82.3848 22.1778 82.4525 22.3298L82.3635 22.3306C82.1638 22.3409 81.9682 22.3904 81.7876 22.4764C81.6071 22.5624 81.4453 22.6832 81.3115 22.8319C81.1777 22.9805 81.0745 23.1541 81.0078 23.3427C80.9411 23.5314 80.9122 23.7313 80.9228 23.9311C80.9298 24.0784 80.9597 24.2237 81.0114 24.3617C80.8911 24.3346 80.7676 24.325 80.6445 24.3333C80.3717 24.3469 80.1091 24.4417 79.8903 24.6054C79.6714 24.7691 79.5063 24.9943 79.4159 25.2524C79.3256 25.5104 79.3141 25.7895 79.383 26.0541C79.4519 26.3186 79.598 26.5566 79.8026 26.7376C79.6214 26.8497 79.4686 27.0024 79.3562 27.1836C79.2439 27.3648 79.1751 27.5696 79.1552 27.7819C79.1353 27.9942 79.1649 28.2082 79.2416 28.4071C79.3183 28.6059 79.4401 28.7843 79.5974 28.9281C79.2973 29.0368 79.0392 29.2376 78.86 29.5018C78.6807 29.7661 78.5895 30.0802 78.5992 30.3994C78.609 30.7186 78.7194 31.0265 78.9145 31.2791C79.1096 31.5317 79.3795 31.7162 79.6856 31.8061C79.4886 31.938 79.3299 32.1196 79.2253 32.3324C79.1207 32.5453 79.0741 32.782 79.09 33.0186C79.1082 33.285 79.2028 33.5404 79.3623 33.7544C79.5219 33.9683 79.7398 34.1316 79.9898 34.2247Z" fill="#393C47"/>
<path d="M88.8615 45.6916C88.6461 46.2037 85.3269 48.9387 83.0381 47.9949C81.4176 47.3303 83.0778 44.1678 83.0778 44.1678L82.8407 39.1851L89.5365 36.413C89.5365 36.413 88.9526 45.4737 88.8615 45.6916Z" fill="#FFC24D"/>
<path d="M89.3295 39.5845C88.6354 40.693 87.7212 41.6471 86.6435 42.3875C85.5658 43.1279 84.3476 43.6387 83.0645 43.8884L82.8398 39.1714L89.5357 36.3994C89.5357 36.3994 89.4437 37.8358 89.3295 39.5845Z" fill="#FFA801"/>
<path d="M78.0881 30.4678C74.4536 40.6517 78.0389 43.4058 82.7032 42.5042C87.3675 41.6026 90.0896 38.4094 92.1149 34.2172C94.2856 29.7242 92.3784 24.9603 88.9937 23.5499C85.609 22.1395 80.8463 22.7391 78.0881 30.4678Z" fill="#FFC24D"/>
<path d="M91.018 36.0738C89.7144 35.8143 90.334 32.8042 90.334 32.8042C90.334 32.8042 87.7431 32.0805 87.9414 28.1002C87.6997 29.2393 87.7962 30.4242 88.2191 31.509C88.2191 31.509 83.6275 29.9813 82.7824 25.6094C82.7824 25.6094 82.9994 27.7756 83.5259 28.6721C83.5259 28.6721 81.7414 27.5933 81.2658 25.7735C81.2658 25.7735 79.8402 27.7554 79.0522 28.1929C79.0522 28.1929 81.5008 20.2417 88.666 23.1883C88.666 23.1883 93.2184 24.8079 93.8472 28.9505C94.476 33.0931 91.018 36.0738 91.018 36.0738Z" fill="#393C47"/>
<path d="M91.5916 35.7728C91.0415 36.7463 94.758 32.5233 94.9529 31.754C95.1478 30.9846 94.7342 26.9096 92.0323 24.4634C89.7604 22.4159 86.2749 22.4172 85.6647 22.4249C84.9817 22.4289 84.3076 22.5797 83.6878 22.8669C83.6878 22.8669 88.2691 22.8479 91.5708 24.9156C93.1581 25.9367 93.6487 32.1136 91.5916 35.7728Z" fill="#A23EF0"/>
<path d="M93.4712 24.5124C93.4712 24.5124 93.2762 22.0537 91.481 20.8675C91.481 20.8675 90.5925 22.7893 90.9453 23.7376C91.1209 24.2165 92.5405 25.1059 92.8415 24.9481C93.0658 24.8249 93.2768 24.6789 93.4712 24.5124Z" fill="#A23EF0"/>
<path opacity="0.1" d="M93.4706 24.5145C93.2784 24.6822 93.0703 24.8309 92.8493 24.9583C92.8352 24.9661 92.8198 24.9712 92.8038 24.9733L92.7496 24.9638C92.7344 24.9629 92.7194 24.9602 92.7049 24.9559C92.4006 24.889 92.113 24.761 91.8596 24.5796C92.0448 24.323 92.2533 24.0841 92.4824 23.8659C92.7285 23.7054 93.0187 23.6263 93.3121 23.64C93.3918 23.926 93.4448 24.2187 93.4706 24.5145Z" fill="#050400"/>
<path d="M93.8056 25.0037C93.8056 25.0037 96.6571 25.9479 97.6361 27.1713C97.6361 27.1713 96.2409 28.1967 94.7403 27.8597C94.0687 27.7116 92.8852 25.744 93.1355 25.4818C93.3357 25.2922 93.5612 25.1313 93.8056 25.0037Z" fill="#A23EF0"/>
<path opacity="0.1" d="M94.4446 25.2418C94.3647 25.5674 94.1926 25.863 93.949 26.0932C93.7794 26.2181 93.5856 26.3062 93.38 26.3519C93.1596 25.9408 93.041 25.5872 93.1384 25.4825C93.3382 25.2948 93.5623 25.1349 93.8048 25.0071C93.8048 25.0071 94.0603 25.0884 94.4446 25.2418Z" fill="#050400"/>
<path d="M93.782 25.7567C93.6243 25.8662 93.4377 25.9266 93.2458 25.9303C93.0538 25.9339 92.8651 25.8806 92.7034 25.777C92.5417 25.6735 92.4143 25.5244 92.3372 25.3484C92.2601 25.1725 92.2367 24.9777 92.2701 24.7885C92.3035 24.5992 92.392 24.4241 92.5247 24.2852C92.6573 24.1462 92.8281 24.0497 93.0154 24.0077C93.2028 23.9657 93.3983 23.9801 93.5774 24.0492C93.7566 24.1183 93.9112 24.2388 94.022 24.3958C94.096 24.5007 94.1486 24.6192 94.1766 24.7446C94.2046 24.87 94.2075 24.9996 94.1852 25.1262C94.1629 25.2527 94.1158 25.3735 94.0466 25.4817C93.9774 25.59 93.8875 25.6834 93.782 25.7567Z" fill="#A23EF0"/>
<path d="M90.2239 35.6695C90.2239 35.6695 92.6006 33.651 93.5623 34.5617C94.524 35.4724 92.28 38.7165 90.8298 38.8594C90.6457 38.8911 90.4572 38.8851 90.2755 38.842C90.0938 38.7988 89.9227 38.7192 89.7726 38.6081C89.6224 38.497 89.4963 38.3567 89.4018 38.1955C89.3073 38.0343 89.2464 37.8556 89.2228 37.6702L90.2239 35.6695Z" fill="#FFC24D"/>
<path d="M95.9578 53.0101C103.355 69.2728 111.272 100.198 112.223 105.211C112.871 108.611 94.988 112.436 94.8971 110.059C94.7726 107.02 89.5345 67.5378 89.3234 53.472C89.2034 45.7073 94.031 48.7781 95.9578 53.0101Z" fill="#FFC24D"/>
<path d="M102.599 65.7613L88.7321 62.6372C88.7321 62.6372 88.5892 55.4928 89.0702 51.5258C89.7049 46.2733 91.8017 45.2803 95.4477 50.6359C97.8895 54.2204 102.599 65.7613 102.599 65.7613Z" fill="#A23EF0"/>
<path d="M94.84 54.4431C94.8131 54.6008 94.74 54.747 94.6301 54.8631C94.5201 54.9792 94.3781 55.06 94.2222 55.0953C94.0663 55.1306 93.9034 55.1188 93.7542 55.0614C93.605 55.0039 93.4763 54.9035 93.3842 54.7727C93.2922 54.6419 93.241 54.4867 93.2373 54.3268C93.2335 54.1668 93.2772 54.0094 93.3629 53.8743C93.4486 53.7393 93.5725 53.6327 93.7188 53.5681C93.865 53.5036 94.0271 53.4839 94.1846 53.5117C94.2889 53.5295 94.3886 53.5677 94.4781 53.6242C94.5675 53.6807 94.6449 53.7544 94.7058 53.8409C94.7668 53.9275 94.81 54.0253 94.833 54.1286C94.856 54.2319 94.8584 54.3388 94.84 54.4431ZM91.2315 47.0933C91.0741 47.0656 90.912 47.0852 90.7657 47.1498C90.6194 47.2143 90.4955 47.3209 90.4098 47.4559C90.3241 47.591 90.2804 47.7485 90.2842 47.9084C90.288 48.0683 90.3391 48.2235 90.4312 48.3543C90.5232 48.4851 90.652 48.5856 90.8011 48.643C90.9503 48.7004 91.1132 48.7123 91.2691 48.677C91.425 48.6417 91.567 48.5608 91.677 48.4447C91.787 48.3286 91.8601 48.1824 91.887 48.0247C91.9053 47.9204 91.903 47.8136 91.8799 47.7102C91.8569 47.6069 91.8137 47.5091 91.7528 47.4226C91.6919 47.336 91.6144 47.2624 91.525 47.2059C91.4355 47.1493 91.3358 47.1111 91.2315 47.0933ZM89.1832 58.7098C89.0256 58.6806 88.8627 58.7013 88.7174 58.7689C88.7161 59.2929 88.7106 59.7887 88.7129 60.2403C88.7731 60.2692 88.8369 60.2897 88.9026 60.3011C89.1134 60.3383 89.3304 60.2901 89.5058 60.1672C89.6812 60.0443 89.8007 59.8566 89.8379 59.6456C89.8751 59.4346 89.827 59.2175 89.7042 59.042C89.5815 58.8665 89.394 58.747 89.1832 58.7098ZM97.1065 60.1069C96.9492 60.0792 96.7873 60.0987 96.6412 60.1631C96.495 60.2275 96.3712 60.3338 96.2854 60.4685C96.1996 60.6033 96.1556 60.7605 96.1591 60.9203C96.1626 61.08 96.2133 61.2351 96.3048 61.366C96.3964 61.4969 96.5247 61.5977 96.6735 61.6555C96.8223 61.7134 96.9849 61.7259 97.1408 61.6913C97.2967 61.6567 97.4388 61.5766 97.5492 61.4611C97.6597 61.3457 97.7334 61.2001 97.7612 61.0427C97.7796 60.9382 97.7773 60.8311 97.7543 60.7276C97.7314 60.624 97.6883 60.5259 97.6275 60.439C97.5667 60.3521 97.4894 60.2781 97.4 60.2211C97.3106 60.1641 97.2109 60.1253 97.1065 60.1069Z" fill="white" fill-opacity="0.48"/>
<path d="M90.4224 63.0159C90.2777 62.9585 88.867 62.5912 88.7571 62.5946C88.7599 61.7519 88.776 60.9116 88.7745 60.0682C88.7711 59.6483 88.7589 59.2268 88.7459 58.8098C88.7329 58.3927 88.7295 57.8178 88.7158 57.4052C88.7191 57.399 88.721 57.392 88.7211 57.3849C88.7212 57.3778 88.7197 57.3708 88.7166 57.3644C88.7135 57.358 88.7089 57.3525 88.7033 57.3482C88.6976 57.3439 88.691 57.341 88.6841 57.3398C88.6771 57.3386 88.6699 57.339 88.6631 57.3411C88.6563 57.3432 88.6501 57.3469 88.6451 57.3518C88.64 57.3567 88.6361 57.3628 88.6338 57.3695C88.6315 57.3762 88.6309 57.3834 88.6319 57.3904C88.5965 57.9266 88.5898 58.3264 88.5633 58.7867C88.5368 59.2469 88.5266 59.6143 88.522 60.0282C88.5129 60.9062 88.4664 61.8415 88.5038 62.714C89.1341 62.871 89.7745 62.984 90.4205 63.052C90.4403 63.0692 90.4429 63.0286 90.4224 63.0159Z" fill="#5A0C98"/>
<path d="M101.489 64.1263C99.499 63.5296 97.5121 62.9697 95.4926 62.4907C94.487 62.2542 93.4745 62.0301 92.4634 61.8245C91.4523 61.6189 90.4144 61.5133 89.4071 61.2856C89.4009 61.2822 89.3939 61.2804 89.3868 61.2803C89.3798 61.2801 89.3727 61.2817 89.3664 61.2848C89.36 61.2879 89.3544 61.2924 89.3502 61.2981C89.3459 61.3038 89.343 61.3103 89.3418 61.3173C89.3406 61.3243 89.341 61.3315 89.3431 61.3383C89.3452 61.345 89.3488 61.3512 89.3537 61.3563C89.3587 61.3614 89.3647 61.3653 89.3715 61.3676C89.3782 61.3699 89.3853 61.3705 89.3923 61.3695C90.4082 61.5486 91.4118 61.8485 92.4206 62.0674C93.4294 62.2863 94.4395 62.5236 95.4459 62.7557C97.4581 63.2243 99.471 63.6886 101.475 64.2014C101.548 64.2279 101.563 64.1439 101.489 64.1263Z" fill="#5A0C98"/>
<path d="M124.579 64.7738C122.889 70.3116 117.356 74.3454 117.356 74.3454C117.356 74.3454 110.823 72.3111 107.447 67.6143C104.631 63.6949 105.208 58.8587 108.373 57.2997C112.916 55.0399 115.491 63.1816 115.491 63.1816C115.491 63.1816 115.364 54.6554 120.394 55.323C123.884 55.7649 125.984 60.1551 124.579 64.7738Z" fill="#F53B5D"/>
<path d="M131.24 45.2437C128.408 47.8914 123.851 48.3828 123.851 48.3828C123.851 48.3828 120.735 45.0113 120.352 41.1609C120.029 37.943 121.978 35.33 124.335 35.4856C127.718 35.7063 126.511 41.2907 126.511 41.2907C126.511 41.2907 129.284 36.2934 131.99 38.358C133.853 39.7865 133.605 43.0382 131.24 45.2437Z" fill="#F53B5D"/>
<path d="M38.4062 67.7606C37.3569 71.8475 33.4602 74.9676 33.4602 74.9676C33.4602 74.9676 28.634 73.6988 26.0238 70.3837C23.8454 67.6224 24.1056 64.0804 26.3614 62.8425C29.5975 61.0636 31.753 66.8974 31.753 66.8974C31.753 66.8974 31.3689 60.6907 35.0455 61.0015C37.6106 61.2233 39.2817 64.3504 38.4062 67.7606Z" fill="#F53B5D"/>
<g clip-path="url(#clip0)">
<rect x="55.5437" y="-0.833984" width="20.1346" height="25.0269" rx="2.28772" transform="rotate(10 55.5437 -0.833984)" fill="white"/>
<path d="M60.2087 12.1784C60.9979 10.4421 62.1775 7.86099 63.6332 5.90562C64.8733 6.26854 65.4379 6.07957 66.6451 6.62905C65.6822 11.2681 66.5544 16.1825 66.4429 20.9236C66.4651 21.0718 66.3303 21.2884 66.1347 21.302C64.7902 21.2573 63.3989 21.2043 62.0544 21.1596C61.8588 21.1732 61.6492 20.992 61.6903 20.7588C62.0686 18.6135 62.4937 16.4764 62.9739 14.3009C62.1823 16.3253 61.6635 18.4459 61.1915 20.5747C61.1504 20.8079 60.9384 20.9147 60.7124 20.8268C59.4033 20.3075 57.9569 20.2929 57.994 18.7125C58.0608 16.4161 59.3234 14.1862 60.2087 12.1784Z" fill="#393C47"/>
<path d="M63.3228 13.6902C65.4046 12.5666 73.9906 23.3134 76.4809 29.1864C81.0999 40.2436 72.7669 38.1972 71.3304 37.0303C69.8472 35.8551 59.0959 16.0225 63.3228 13.6902Z" fill="#FFD357"/>
<path d="M89.6976 39.6946C85.6029 35.7988 78.9136 32.6477 76.4338 29.1809C74.3787 26.318 69.3878 33.8052 69.769 34.9304C70.1501 36.0555 76.8191 44.2523 82.2486 46.6042C82.2955 46.6125 90.5275 40.4661 89.6976 39.6946Z" fill="#FFD357"/>
<path d="M43.4598 39.2342C43.4598 39.2342 51.9587 14.044 58.2417 12.6513C63.3733 11.4883 67.5298 13.6639 67.5317 18.8577C67.5139 23.6153 68.7491 30.8539 69.2747 33.351C69.7536 35.8398 71.5898 40.4915 71.5898 40.4915C71.5898 40.4915 54.8999 43.6558 43.4598 39.2342Z" fill="#FFD357"/>
<path d="M58.7428 12.5493C60.8211 13.637 57.8273 27.0546 53.9059 32.0376C49.9844 37.0205 42.4781 35.216 42.6665 33.3257C42.7998 31.4738 54.4458 10.3489 58.7428 12.5493Z" fill="#FFD357"/>
<path d="M65.9863 10.365C65.9863 10.365 64.6029 13.0064 64.4023 13.5961C64.3225 13.7744 61.7404 13.0787 61.4233 12.6862C61.8359 11.9895 62.6093 11.1641 63.0738 9.89957C63.5933 8.59663 65.9863 10.365 65.9863 10.365Z" fill="#FD88D0"/>
<path d="M62.5323 7.49232C62.5323 7.49232 63.0398 11.1884 65.3294 11.3517C67.6658 11.5232 66.3967 6.39445 66.0384 6.2351C65.7269 6.08401 63.4645 5.49273 62.5323 7.49232Z" fill="#FD88D0"/>
<path d="M64.8387 4.8204C66.2933 4.78836 67.9771 5.3738 67.9317 7.00078C67.9457 7.19559 67.8191 7.36562 67.6235 7.37922C66.4499 7.46082 65.2707 7.30097 64.1793 6.91618C64.1464 7.10273 64.0667 7.28103 64.0256 7.51421C63.8496 7.96407 63.6712 8.70202 63.2389 8.96241C62.3743 9.48318 61.8222 8.23172 61.7968 7.55401C61.6712 5.80071 63.2764 4.6411 64.8387 4.8204Z" fill="#393C47"/>
<path d="M53.9898 20.6023C53.9058 22.1744 55.344 22.2356 56.7081 22.7166C56.9341 22.8046 57.1462 22.6977 57.1873 22.4645C57.6592 20.3357 58.178 18.2151 58.9697 16.1907C58.5446 18.3278 58.0726 20.4566 57.6861 22.6486C57.645 22.8818 57.8627 23.0164 58.0501 23.0494C59.3946 23.0941 60.7859 23.1471 62.1304 23.1918C62.326 23.1782 62.4058 22.9999 62.4387 22.8134C62.5502 18.0724 62.3534 13.7098 63.3714 9.03236C63.396 8.89245 63.2769 8.19822 63.1915 8.13507C63.411 7.16393 63.9256 6.43716 63.809 5.45485C63.8033 5.2134 65.0262 4.85198 64.7919 4.81068C60.7002 4.18536 57.7663 10.6889 56.1963 14.1148C55.3578 16.1309 54.0952 18.3608 53.9898 20.6023Z" fill="#393C47"/>
<path d="M63.7151 8.17898C63.7151 8.17898 63.4004 7.49835 62.7586 7.57752C62.1167 7.6567 61.9004 9.15737 62.9778 9.34734C64.0634 9.49068 63.7151 8.17898 63.7151 8.17898Z" fill="#FD88D0"/>
<path d="M63.2693 9.06389C63.1921 8.9541 62.9801 9.06097 63.0491 9.2174C63.2118 9.39035 63.3638 9.89803 63.058 9.98839C62.7523 10.0787 62.3028 9.61478 62.6332 9.38451C62.7433 9.30776 62.5889 9.08817 62.4787 9.16492C62.0218 9.56523 62.4383 10.2157 62.9701 10.2133C63.6341 10.2823 63.5865 9.45643 63.2693 9.06389Z" fill="#FFD357"/>
<path d="M53.2212 20.8536L53.0338 20.8205C54.4941 14.7304 58.5046 7.59924 60.7952 5.83918C62.0231 4.90158 63.1194 4.71019 63.8467 4.69418C64.6209 4.68642 65.1033 4.96382 65.1033 4.96382L65.0318 5.09548C65.0318 5.09548 63.2099 4.19718 60.9193 5.95723C58.6286 7.71729 54.6732 14.8101 53.2212 20.8536Z" fill="#393C47"/>
<path fill-rule="evenodd" clip-rule="evenodd" d="M57.8561 23.6796C57.9118 23.6969 57.9429 23.7559 57.9255 23.8113C56.9272 27.0051 55.551 30.1431 54.0453 32.0587C54.0261 32.0846 54.0138 32.1047 54.0015 32.1252C56.9255 33.4537 60.3069 35.1075 63.0057 37.4414C63.0076 37.443 63.0094 37.4447 63.0111 37.4464C63.0968 37.5318 63.1096 37.6486 63.0888 37.7627C63.0681 37.8763 63.0117 38.0058 62.9319 38.1451C62.7717 38.4248 62.5005 38.7721 62.1598 39.1584C61.477 39.9325 60.4979 40.8815 59.5161 41.7908C59.4734 41.8303 59.4066 41.8279 59.3668 41.7853C59.3271 41.7427 59.3295 41.6762 59.3721 41.6367C60.3531 40.7281 61.3256 39.7851 62.001 39.0195C62.3394 38.6359 62.599 38.3014 62.7484 38.0406C62.8235 37.9096 62.8665 37.8042 62.881 37.7249C62.8948 37.6491 62.8801 37.6147 62.8639 37.5971C60.1531 35.254 56.7415 33.5981 53.791 32.2607C53.7565 32.245 53.733 32.2122 53.7295 32.1746C53.7259 32.137 53.7429 32.1004 53.774 32.0788C53.7845 32.0714 53.7913 32.064 53.805 32.042C53.8079 32.0373 53.8113 32.0318 53.815 32.0255C53.8289 32.0024 53.8486 31.9694 53.8763 31.9322L53.878 31.93L53.878 31.93C55.3605 30.0446 56.7279 26.9348 57.7239 23.7485C57.7412 23.6931 57.8004 23.6622 57.8561 23.6796Z" fill="white"/>
<path fill-rule="evenodd" clip-rule="evenodd" d="M67.5322 18.7511C67.5905 18.7514 67.6376 18.7988 67.6374 18.8568C67.6197 23.603 68.8529 30.8328 69.3782 33.3281C69.3902 33.385 69.3536 33.4407 69.2966 33.4525C69.2395 33.4644 69.1835 33.4279 69.1715 33.371C68.6455 30.8722 67.4084 23.6247 67.4262 18.8557C67.4264 18.7977 67.4739 18.7508 67.5322 18.7511Z" fill="white"/>
</g>
<path d="M59.8419 44.6882L34.7955 51.3147C28.0269 53.1054 27.6839 47.3999 27.8096 41.2837C27.9353 35.1675 28.059 25.91 34.112 24.3085L47.1212 20.8667C53.1704 19.2663 57.8515 27.2486 60.9752 32.5092C64.099 37.7698 66.6143 42.8965 59.8419 44.6882Z" fill="#F53B5D"/>
<path d="M29.31 50.2412L55.7086 43.257C63.3686 41.2304 60.5236 35.4319 56.9904 29.4818L56.9029 29.3344C55.4337 26.8598 53.6652 23.881 51.6123 21.3745C55.4841 23.2637 58.6035 28.5179 60.8974 32.3817L60.9748 32.512C64.0986 37.7727 66.6139 42.8993 59.8415 44.6911L34.7951 51.3175C32.0294 52.0493 30.3365 51.5294 29.31 50.2412Z" fill="#E0415E"/>
<path opacity="0.24" d="M35.029 29.4867C36.1744 29.1837 36.8577 28.0089 36.5552 26.8627C36.2528 25.7166 35.0791 25.0331 33.9338 25.3361C32.7885 25.6391 32.1052 26.8139 32.4076 27.9601C32.7101 29.1062 33.8837 29.7897 35.029 29.4867Z" fill="black"/>
<path opacity="0.24" d="M48.8717 25.8265C50.017 25.5235 50.7003 24.3487 50.3979 23.2026C50.0954 22.0564 48.9218 21.3729 47.7764 21.6759C46.6311 21.979 45.9478 23.1537 46.2503 24.2999C46.5527 25.4461 47.7264 26.1296 48.8717 25.8265Z" fill="black"/>
<path d="M34.8531 28.8206C35.6307 28.6149 36.0947 27.8172 35.8893 27.039C35.684 26.2608 34.8871 25.7967 34.1095 26.0025C33.3318 26.2082 32.8679 27.0059 33.0732 27.7841C33.2786 28.5623 34.0755 29.0263 34.8531 28.8206Z" fill="#263238"/>
<path d="M48.6959 25.1624C49.4735 24.9566 49.9375 24.159 49.7321 23.3808C49.5268 22.6026 48.7299 22.1385 47.9522 22.3443C47.1746 22.55 46.7107 23.3477 46.916 24.1259C47.1214 24.9041 47.9182 25.3681 48.6959 25.1624Z" fill="#263238"/>
<path d="M48.4041 24.0537C48.1941 24.1093 47.9706 24.0791 47.7828 23.9698C47.5951 23.8604 47.4584 23.6809 47.4029 23.4707C46.5833 20.9906 45.5276 18.595 44.2504 16.317C42.6715 13.5601 40.2638 10.4081 37.7729 11.0671C33.1815 12.2818 34.5183 24.3439 35.1438 26.7141C35.1992 26.9243 35.169 27.1479 35.0597 27.3359C34.9504 27.5238 34.7709 27.6606 34.5609 27.7162C34.3508 27.7718 34.1273 27.7416 33.9396 27.6322C33.7518 27.5229 33.6152 27.3434 33.5597 27.1331C33.5193 26.98 30.4177 11.3172 37.3546 9.48188C44.0849 7.70126 48.9466 22.8984 48.987 23.0516C49.015 23.1557 49.0221 23.2643 49.0079 23.3712C48.9937 23.4781 48.9585 23.5811 48.9043 23.6742C48.8501 23.7674 48.778 23.8489 48.6922 23.9141C48.6063 23.9792 48.5084 24.0267 48.4041 24.0537Z" fill="#F8778E"/>
<path fill-rule="evenodd" clip-rule="evenodd" d="M108.548 12.2306L110.461 9.92761L111.076 10.4391L109.455 12.3905L113.612 13.1231L112.756 10.7351L113.508 10.4646L114.519 13.2829L115.078 13.3815C115.201 13.4031 115.306 13.481 115.365 13.5913C115.422 13.7022 115.424 13.8334 115.371 13.946L113.556 17.7973C113.401 18.1237 113.047 18.3071 112.693 18.2448L108.568 17.5178C108.214 17.4553 107.943 17.1613 107.91 16.8028L107.521 12.5629C107.51 12.439 107.557 12.3164 107.648 12.2318C107.74 12.1476 107.866 12.1104 107.989 12.132L108.548 12.2306ZM109.944 16.5918L112.568 15.5301L110.465 13.6354L109.944 16.5918Z" fill="white"/>
<defs>
<clipPath id="clip0">
<rect x="55.5437" y="-0.833984" width="20.1346" height="25.0269" rx="2.28772" transform="rotate(10 55.5437 -0.833984)" fill="white"/>
</clipPath>
</defs>
</svg>
