<svg width="148" height="160" viewBox="0 0 148 160" fill="none" xmlns="http://www.w3.org/2000/svg">
<path d="M133.118 9.54377C133.124 4.75496 129.246 0.877292 124.457 0.882753L42.3139 0.976439C37.5251 0.981901 33.6385 4.86842 33.633 9.65723L33.4351 180.469C33.4295 185.258 37.3071 189.136 42.0959 189.13L124.239 189.036C129.028 189.031 132.915 185.144 132.92 180.356L133.118 9.54377ZM127.694 175.181C127.689 179.682 124.329 183.326 120.187 183.331L46.1665 183.415C42.015 183.42 38.6633 179.784 38.6685 175.282L38.853 16.0227C38.8637 6.85292 42.2201 6.40123 46.3716 6.39649L61.1948 6.37959C62.0574 6.3786 62.7633 7.36349 62.7618 8.58168L62.7612 9.10922C62.7579 11.9644 64.3129 11.9633 66.2275 11.9611L100.515 11.922C102.444 11.9198 103.984 11.9173 103.988 9.0622L103.988 8.53466C103.99 7.31647 104.687 6.32998 105.564 6.32898L120.392 6.31207C124.534 6.30735 127.888 7.52703 127.878 15.9211L127.694 175.181Z" fill="#393C47"/>
<path d="M87.9586 8.44505L78.5876 8.45228C78.5113 8.45298 78.4357 8.43837 78.3651 8.40932C78.2946 8.38026 78.2305 8.33733 78.1766 8.28303C78.1227 8.22874 78.0801 8.16416 78.0512 8.09307C78.0224 8.02197 78.0079 7.94578 78.0086 7.86894C78.0087 7.71411 78.0699 7.56558 78.1786 7.45601C78.2874 7.34645 78.4348 7.28483 78.5885 7.28471L87.9595 7.27748C88.1132 7.27736 88.2605 7.33875 88.3691 7.44815C88.4777 7.55755 88.5386 7.70599 88.5385 7.86082C88.539 7.93766 88.5244 8.01387 88.4955 8.08501C88.4665 8.15615 88.4238 8.22079 88.3698 8.27517C88.3159 8.32955 88.2517 8.37258 88.1811 8.40174C88.1105 8.43091 88.0348 8.44563 87.9586 8.44505Z" fill="#8C90A5"/>
<path d="M127.878 15.9239L127.695 175.178C127.689 179.68 124.326 183.324 120.184 183.328L46.1702 183.412C42.0191 183.417 38.6683 179.781 38.6735 175.279L38.8571 16.0249C38.8676 6.85549 42.2232 6.4044 46.3743 6.39969L61.1969 6.38287C62.0593 6.38189 62.7643 7.36608 62.7629 8.58423L62.7623 9.11241C62.759 11.9675 64.3133 11.9657 66.2277 11.9635L100.512 11.9246C102.441 11.9224 103.986 11.9207 103.989 9.06564L103.99 8.53745C103.991 7.3193 104.684 6.33352 105.561 6.33253L120.388 6.31571C124.53 6.31101 127.888 7.5301 127.878 15.9239Z" fill="white" fill-opacity="0.24"/>
<path d="M105.983 126.14L105.983 126.228C105.784 127.009 104.309 132.785 102.371 140.415L101.936 142.105C98.7058 154.789 94.4004 171.681 92.3681 179.67L88.001 179.675C88.0009 179.769 88.0008 179.868 88.0006 179.962C88.0008 179.863 88.0009 179.769 88.001 179.675L55.9348 179.713C59.2475 166.8 67.6829 133.051 69.1398 127.082L69.2221 126.759L69.3689 126.172L105.983 126.14Z" fill="#FFC24D"/>
<path d="M105.983 126.138L105.983 126.226L102.627 140.899L102.228 142.66L93.73 179.701L87.9773 179.708C87.9772 179.802 87.9771 179.902 87.977 179.996C87.9771 179.896 87.9772 179.802 87.9773 179.708L55.7356 179.746L69.1395 127.115L69.2217 126.792L69.3686 126.205L105.983 126.138Z" fill="#263238"/>
<path d="M124.538 179.691L88.0018 179.734C88.0017 179.828 88.0016 179.928 88.0014 180.021C88.0016 179.922 88.0017 179.828 88.0018 179.734C88.0025 179.147 87.9564 178.607 87.9395 178.067C87.9403 177.351 87.8886 176.624 87.8602 175.908C87.8605 175.638 87.8608 175.374 87.8261 175.11C87.8263 174.942 87.8265 174.772 87.8267 174.599C87.827 174.371 87.8272 174.148 87.8275 173.919C87.8278 173.69 87.8281 173.379 87.7934 173.121C87.7586 172.863 87.794 172.581 87.7943 172.317C87.7945 172.205 87.7946 172.094 87.7947 171.982C87.7953 171.513 87.7549 171.073 87.7379 170.65C87.7381 170.451 87.7383 170.257 87.7386 170.063C87.7387 169.981 87.7388 169.899 87.7388 169.817L87.7389 169.758C87.739 169.67 87.7391 169.582 87.7392 169.5C87.7422 169.451 87.7423 169.402 87.7394 169.353C87.7397 169.136 87.7399 168.931 87.7401 168.737C87.7432 168.688 87.7433 168.639 87.7403 168.591C87.7404 168.514 87.7405 168.438 87.7406 168.362C87.7409 168.109 87.7412 167.88 87.7122 167.669C87.6832 167.458 87.7125 167.411 87.7126 167.294C87.7128 167.176 87.7131 166.947 87.7132 166.812C87.7164 166.762 87.7165 166.711 87.7134 166.66C87.7166 166.613 87.7167 166.566 87.7136 166.519C87.7137 166.378 87.7138 166.308 87.7138 166.308L87.4042 166.126L86.9893 165.886L86.9601 165.886L86.9309 165.886L86.5453 165.652C85.961 165.318 85.4118 165.008 84.8801 164.715L84.3542 164.428L83.355 163.901C82.7065 163.562 82.0988 163.257 81.5378 162.982L80.7314 162.596L80.3575 162.42L80.2757 162.379L79.8841 162.198C79.5861 162.057 79.2998 161.94 79.0544 161.829L78.3706 161.554C77.9148 161.361 77.5583 161.22 77.3129 161.127L77.1785 161.074L77.0499 161.027L76.933 160.986L76.8804 160.986C76.8338 160.863 76.793 160.74 76.7522 160.617C76.7114 160.494 76.659 160.365 76.6182 160.236C76.4842 159.848 76.356 159.455 76.2279 159.062C76.0997 158.669 75.9366 158.118 75.7969 157.637C75.6979 157.314 75.6047 156.986 75.5116 156.657C75.4184 156.329 75.3369 156.071 75.2554 155.742C74.8654 154.34 74.5104 152.909 74.1847 151.471C74.1149 151.182 74.051 150.894 73.9928 150.609C73.9172 150.269 73.8416 149.928 73.7719 149.588C73.6323 148.925 73.4987 148.268 73.3708 147.611C73.3185 147.365 73.2662 147.124 73.2197 146.878C72.9118 145.235 72.6389 143.616 72.3835 142.055L72.3139 141.591L72.1225 140.324C72.0703 139.955 72.0123 139.585 71.9601 139.215C71.8442 138.359 71.7283 137.525 71.624 136.716L71.5545 136.129C71.4851 135.542 71.4156 134.956 71.3519 134.428C71.3172 134.152 71.2883 133.876 71.2593 133.612C71.2304 133.348 71.2072 133.172 71.1841 132.955L71.1321 132.474C71.1353 132.435 71.1353 132.395 71.1322 132.356C71.1033 132.086 71.0744 131.822 71.0513 131.57C70.9762 130.813 70.9127 130.121 70.855 129.505C70.8203 129.137 70.7915 128.797 70.7685 128.484C70.7717 128.47 70.7718 128.456 70.7686 128.443C70.7166 127.856 70.6822 127.345 70.6534 126.976C70.6537 126.723 70.6188 126.53 70.6132 126.389C70.6075 126.248 70.6133 126.225 70.6134 126.201L98.4905 126.168L120.503 126.142C120.503 126.142 120.636 127.903 120.883 130.995C120.883 131.306 120.929 131.635 120.952 131.975C121.096 133.794 121.263 135.983 121.453 138.476C121.482 138.817 121.511 139.169 121.54 139.521C121.632 140.782 121.735 142.12 121.851 143.522C121.908 144.35 121.977 145.195 122.041 146.051C122.04 146.374 122.092 146.691 122.115 147.014C122.265 148.909 122.415 150.892 122.57 152.952C122.985 158.368 123.434 164.282 123.9 170.396C123.9 170.49 123.9 170.584 123.9 170.678C124.009 172.245 124.13 173.823 124.251 175.407C124.348 176.827 124.452 178.247 124.538 179.691Z" fill="#FFC24D"/>
<path d="M126.253 179.691L88.0024 179.736C88.003 179.191 87.9569 178.633 87.9342 178.07C87.9351 177.354 87.8833 176.626 87.8549 175.91C87.8096 174.672 87.7643 173.451 87.7189 172.319C87.719 172.207 87.7192 172.096 87.7193 171.984C87.691 171.21 87.6626 170.482 87.6342 169.825L87.6342 169.76C87.6347 169.396 87.6059 169.056 87.5945 168.739C87.5976 168.69 87.5977 168.641 87.5947 168.593C87.5953 168.088 87.5608 167.648 87.5436 167.296C87.5439 167.114 87.5441 166.949 87.5442 166.814C87.5474 166.764 87.5475 166.713 87.5444 166.662C87.5476 166.615 87.5477 166.568 87.5446 166.521C87.5447 166.38 87.5448 166.31 87.5448 166.31L87.2351 166.128L86.8203 165.888L86.3762 165.63C85.7919 165.297 85.2427 164.986 84.711 164.693C84.1793 164.401 83.6709 164.108 83.1859 163.879C82.5373 163.54 81.9296 163.235 81.3686 162.96L80.5622 162.574L80.1882 162.398L80.1064 162.363L79.7148 162.188L78.885 161.819L78.3708 161.555C77.9149 161.362 77.5585 161.222 77.313 161.128L77.1786 161.076L77.05 161.029L76.9331 160.988L76.8805 160.988C76.8339 160.865 76.7931 160.742 76.7523 160.618C76.7115 160.495 76.6532 160.36 76.6124 160.231C76.4784 159.844 76.3503 159.451 76.2279 159.058C76.1056 158.665 75.9367 158.113 75.797 157.632C75.6979 157.31 75.6048 156.981 75.5116 156.653C75.4185 156.324 75.3369 156.066 75.2555 155.738C74.8654 154.335 74.5104 152.904 74.1847 151.467C74.1149 151.177 74.0509 150.89 73.9928 150.604C73.9172 150.264 73.8416 149.924 73.7718 149.583C73.6381 148.932 73.5044 148.275 73.3766 147.624C72.9698 145.57 72.6214 143.546 72.3196 141.604L72.1282 140.336C72.076 139.967 72.018 139.597 71.9658 139.228C71.8499 138.371 71.734 137.538 71.6297 136.728L71.5602 136.141C71.4908 135.554 71.4213 134.968 71.3576 134.44C71.3229 134.164 71.2939 133.888 71.265 133.624C71.2361 133.36 71.2129 133.184 71.1898 132.967L71.1378 132.486C71.141 132.447 71.141 132.407 71.1379 132.368C71.109 132.098 71.0859 131.834 71.057 131.582C70.9819 130.825 70.9184 130.133 70.8607 129.517C70.8319 129.147 70.7972 128.807 70.7742 128.496C70.7774 128.482 70.7774 128.468 70.7742 128.454C70.7281 127.868 70.6878 127.357 70.659 126.987C70.6593 126.735 70.6303 126.541 70.6188 126.401C70.6073 126.26 70.619 126.236 70.619 126.213L120.511 126.154C120.511 126.154 129.318 139.588 124.918 157.252C124.877 157.258 125.72 171.282 126.253 179.691Z" fill="#263238"/>
<path d="M92.1044 168.172C90.4266 166.999 88.5964 166.02 86.8423 165.011C85.0883 164.003 83.1763 162.994 81.2758 162.109C77.5407 160.454 73.6973 159.057 69.7722 157.927C69.6728 157.892 69.6083 158.056 69.7018 158.097C73.4561 159.715 77.0932 161.561 80.8123 163.22C82.6894 164.058 84.5783 164.855 86.4613 165.687C88.3443 166.52 90.1745 167.446 92.0692 168.249C92.116 168.266 92.1511 168.207 92.1044 168.172Z" fill="#455A64"/>
<path d="M81.846 149.793C81.8013 147.952 81.6749 146.105 81.5835 144.265C81.3781 139.915 81.2136 135.541 80.8158 131.203C80.8158 131.168 80.8017 131.133 80.7766 131.108C80.7514 131.083 80.7174 131.069 80.6818 131.069C80.6462 131.069 80.6121 131.083 80.5869 131.108C80.5617 131.134 80.5476 131.168 80.5475 131.204C80.4915 134.569 80.6163 137.946 80.6769 141.311C80.7102 142.993 80.7609 144.676 80.8 146.358C80.8915 147.965 80.9015 149.575 80.8299 151.183C80.7412 152.397 80.4705 154.754 78.8959 154.902C77.4147 155.044 76.6 153.433 76.2338 152.255C75.2923 149.26 74.9633 146.024 74.6633 142.912C74.4845 141.065 74.3057 139.224 74.1968 137.378C74.0308 135.487 73.9725 133.589 74.022 131.691C74.0221 131.574 73.8413 131.574 73.8354 131.691C73.7284 133.591 73.4699 135.479 73.4037 137.39C73.3376 139.302 73.3298 141.189 73.4503 143.083C73.5708 144.976 73.7147 146.723 73.9869 148.523C74.1696 150.17 74.5598 151.787 75.1481 153.335C75.6949 154.612 76.6325 155.784 78.0609 156.064C78.236 156.096 78.4134 156.113 78.5914 156.116C78.591 156.503 78.6606 156.896 78.6835 157.289C78.7295 157.875 78.8047 158.508 78.8857 159.112C78.9674 159.706 79.0895 160.293 79.2512 160.87C79.3795 161.456 79.5869 162.022 79.8676 162.552C79.879 162.568 79.8951 162.58 79.9137 162.586C79.9322 162.592 79.9523 162.593 79.971 162.587C79.9897 162.581 80.0062 162.569 80.018 162.554C80.0297 162.538 80.0363 162.519 80.0367 162.499C80.0546 161.909 80.0063 161.319 79.8928 160.74C79.8176 160.154 79.7307 159.568 79.6147 158.982C79.4987 158.396 79.3885 157.81 79.2725 157.253C79.1913 156.866 79.1392 156.467 79.0696 156.08C79.5292 156.001 79.962 155.807 80.3288 155.517C80.6956 155.227 80.9849 154.85 81.1706 154.419C81.7449 152.949 81.9759 151.366 81.846 149.793Z" fill="#455A64"/>
<path d="M121.693 148.708C119.062 148.893 116.465 149.236 113.822 148.922C111.335 148.673 108.965 147.744 106.971 146.236C102.63 142.86 100.736 137.333 99.5663 132.157C99.5588 132.136 99.5445 132.119 99.5258 132.108C99.507 132.097 99.4851 132.093 99.4637 132.097C99.4423 132.1 99.4227 132.111 99.4083 132.127C99.394 132.144 99.3857 132.165 99.385 132.186C99.8709 136.682 100.83 141.336 103.715 144.954C104.96 146.545 106.535 147.845 108.33 148.764C110.239 149.654 112.329 150.083 114.434 150.019C116.901 149.994 119.355 149.66 121.74 149.025C121.761 149.021 121.781 149.014 121.799 149.003C121.817 148.993 121.832 148.978 121.845 148.961C121.857 148.944 121.866 148.925 121.871 148.905C121.877 148.884 121.878 148.863 121.875 148.842C121.872 148.822 121.864 148.802 121.854 148.784C121.843 148.766 121.829 148.75 121.812 148.737C121.795 148.725 121.776 148.716 121.756 148.711C121.735 148.706 121.714 148.705 121.693 148.708Z" fill="#455A64"/>
<path d="M83.5654 85.3515C74.7088 100.862 60.7034 113.322 53.3417 113.607C47.6111 113.829 25.4564 106.238 17.7559 95.6304C16.0681 93.2819 34.9456 82.2994 36.4586 83.6595C40.9295 87.6569 53.6645 92.4115 54.5217 91.8814C55.6433 91.1917 70.0353 82.0398 79.6084 74.822C91.2511 66.1111 88.4186 76.8583 83.5654 85.3515Z" fill="#FFC24D"/>
<path d="M22.4821 100.513C21.3221 99.6934 11.9587 94.1399 8.54193 88.935C6.72792 86.1902 2.60057 78.0055 4.13672 76.7161C5.53613 75.5108 7.21207 77.4652 7.21207 77.4652C7.21207 77.4652 5.42408 73.8293 7.42147 72.12C9.41887 70.4108 12.0574 73.9092 12.0574 73.9092C12.0574 73.9092 10.4927 70.023 12.5712 68.5131C14.6498 67.0032 16.756 70.9187 16.756 70.9187C16.756 70.9187 15.1578 67.4327 17.3934 66.9101C20.0866 66.2887 22.2943 73.063 24.806 75.7091C25.3785 76.3105 37.2423 87.0702 37.2423 87.0702L22.4821 100.513Z" fill="#FFC24D"/>
<path d="M16.8636 70.9696C18.51 75.9374 20.0811 77.834 24.053 81.1054C24.1308 81.1618 24.0457 81.2924 23.9678 81.236C19.7831 78.4026 17.4727 76.3087 16.621 71.0318C16.5775 70.7804 16.7927 70.735 16.8636 70.9696Z" fill="#E69701"/>
<path d="M12.1734 73.9373C14.325 78.9509 16.0142 81.0125 19.9236 84.7454C19.9748 84.8009 19.9173 84.9057 19.8306 84.849C15.6923 81.5089 13.4277 79.381 11.9366 74.08C11.8658 73.8454 12.0759 73.7017 12.1734 73.9373Z" fill="#E69701"/>
<path d="M7.40064 77.6387C9.83152 82.3422 11.5722 84.6825 15.8522 87.823C15.8723 87.8376 15.8861 87.8593 15.8907 87.8838C15.8954 87.9082 15.8906 87.9336 15.8774 87.9547C15.8641 87.9758 15.8433 87.991 15.8193 87.9973C15.7952 88.0036 15.7697 88.0004 15.7479 87.9885C11.0891 85.2085 8.8545 82.3054 7.25504 77.7225C7.12479 77.4143 7.2434 77.3384 7.40064 77.6387Z" fill="#E69701"/>
<path d="M41.6208 87.015C41.6208 87.015 38.8489 79.6672 37.1558 77.2485C35.4627 74.8298 25.832 68.1875 24.277 70.1897C22.2717 72.7905 27.0683 77.7255 29.7342 79.8329C29.7342 79.8329 25.0526 85.812 27.7659 90.1156C30.4792 94.4192 41.6208 87.015 41.6208 87.015Z" fill="#FFC24D"/>
<path d="M23.9532 71.0919C23.8095 74.7689 27.4946 77.3152 29.9301 79.5558C29.9676 79.5863 29.9974 79.6251 30.0173 79.6692C30.0371 79.7133 30.0465 79.7614 30.0446 79.8098C30.0427 79.8582 30.0296 79.9054 30.0064 79.9479C29.9831 79.9904 29.9504 80.0268 29.9107 80.0544C28.1296 82.6621 26.3815 86.9295 27.5829 90.0598C27.5919 90.0689 27.5986 90.0799 27.6025 90.0921C27.6064 90.1043 27.6073 90.1172 27.6052 90.1299C27.603 90.1425 27.598 90.1544 27.5903 90.1647C27.5827 90.1749 27.5727 90.1832 27.5612 90.1888C27.5497 90.1944 27.5371 90.1971 27.5243 90.1968C27.5116 90.1965 27.4991 90.1931 27.4879 90.187C27.4767 90.1809 27.4672 90.1721 27.4601 90.1615C27.453 90.1509 27.4485 90.1388 27.447 90.1261C25.7059 86.9397 27.0821 82.6405 29.2158 79.8766C26.6833 77.6145 23.1113 74.903 23.9443 71.0915C23.9276 71.0641 23.9542 71.0652 23.9532 71.0919Z" fill="#E69701"/>
<path d="M78.2647 96.373L70.6879 79.4292C70.6879 79.4292 78.0227 73.6603 82.5313 71.0388C88.4901 67.5768 91.1649 68.9815 88.4381 77.0035C86.6085 82.4023 78.2647 96.373 78.2647 96.373Z" fill="#A23EF0"/>
<path d="M74.6508 79.2367C74.6517 79.4461 74.5906 79.6512 74.4752 79.8259C74.3598 80.0007 74.1954 80.1371 74.0027 80.218C73.8101 80.2989 73.598 80.3206 73.3934 80.2803C73.1887 80.2399 73.0008 80.1395 72.8535 79.9916C72.7061 79.8437 72.606 79.655 72.5658 79.4497C72.5256 79.2443 72.5472 79.0314 72.6278 78.838C72.7084 78.6447 72.8444 78.4797 73.0185 78.3638C73.1926 78.248 73.3969 78.1867 73.6056 78.1876C73.8831 78.1873 74.1492 78.2976 74.3452 78.4944C74.5412 78.6911 74.6512 78.9582 74.6508 79.2367ZM84.0941 78.1752C83.8855 78.1743 83.6811 78.2357 83.5071 78.3515C83.333 78.4673 83.197 78.6324 83.1164 78.8257C83.0358 79.019 83.0142 79.2319 83.0544 79.4373C83.0945 79.6427 83.1946 79.8313 83.342 79.9792C83.4893 80.1271 83.6773 80.2276 83.8819 80.2679C84.0865 80.3083 84.2986 80.2866 84.4913 80.2057C84.6839 80.1248 84.8484 79.9883 84.9638 79.8136C85.0791 79.6389 85.1403 79.4338 85.1394 79.2244C85.1397 78.9458 85.0298 78.6788 84.8337 78.482C84.6377 78.2853 84.3717 78.1749 84.0941 78.1752ZM89.3007 70.5819C89.0308 70.5913 88.7749 70.7057 88.587 70.9008C88.3991 71.0959 88.294 71.3565 88.2938 71.6275C88.2935 71.9077 88.4041 72.1762 88.6012 72.374C88.7983 72.5719 89.0658 72.6829 89.3449 72.6825C89.3857 72.6883 89.427 72.6882 89.4677 72.6824C89.5603 71.9779 89.5034 71.262 89.3007 70.5819ZM78.8405 86.0093C78.6321 86.0084 78.428 86.0696 78.254 86.1851C78.0801 86.3007 77.9441 86.4654 77.8633 86.6584C77.7825 86.8514 77.7606 87.0639 77.8003 87.2692C77.84 87.4744 77.9395 87.663 78.0863 87.8112C78.2331 87.9593 78.4204 88.0603 78.6247 88.1012C78.8289 88.1422 79.0408 88.1214 79.2336 88.0414C79.4263 87.9614 79.5912 87.8259 79.7073 87.6519C79.8234 87.4779 79.8855 87.2734 79.8857 87.0643C79.8861 86.7852 79.7763 86.5175 79.5805 86.3198C79.3846 86.1222 79.1186 86.0105 78.8405 86.0093Z" fill="white" fill-opacity="0.48"/>
<path d="M79.091 93.9149C78.1597 91.3768 77.1933 88.8505 76.1102 86.3712C75.5744 85.1365 75.0173 83.9057 74.4387 82.6788C73.8562 81.4597 73.1627 80.2994 72.6036 79.0744C72.5745 79.0041 72.4693 79.0746 72.5043 79.1273C73.1219 80.2994 73.5875 81.6066 74.1407 82.8374C74.694 84.0682 75.2473 85.2991 75.7889 86.5358C76.872 89.0033 77.9611 91.4768 78.9858 93.9678C79.0149 94.0382 79.1142 93.9853 79.091 93.9149Z" fill="#5A0C98"/>
<path opacity="0.1" d="M88.4332 77.005C86.6098 82.374 78.2673 96.373 78.2673 96.373L72.5155 83.5928L88.5763 69.6142C89.814 70.4457 89.8579 72.8271 88.4332 77.005Z" fill="black"/>
<path d="M69.3239 126.275L72.1586 107.138C72.1586 107.138 66.4091 99.9456 69.6736 92.8892C71.3206 89.3082 80.3566 75.92 85.922 70.8616C92.4763 64.9161 99.726 69.0852 102.709 72.3909C108.687 79.055 115.542 95.4522 120.393 126.215L69.3239 126.275Z" fill="#FFC24D"/>
<path d="M68.6398 120.989L72.1642 107.142C72.1642 107.142 66.414 99.9489 69.679 92.8918C71.3261 89.3104 80.3632 75.9207 85.9293 70.8618C92.4845 64.9157 100.49 68.7733 103.508 72.0734C108.868 77.9351 115.583 90.162 120.405 120.928L68.6398 120.989Z" fill="#A23EF0"/>
<path d="M85.1799 79.2206C85.1808 79.4301 85.1197 79.6351 85.0043 79.8099C84.8889 79.9846 84.7244 80.1211 84.5318 80.202C84.3392 80.2829 84.127 80.3045 83.9224 80.2642C83.7178 80.2239 83.5298 80.1234 83.3825 79.9755C83.2351 79.8276 83.135 79.639 83.0948 79.4336C83.0547 79.2282 83.0763 79.0153 83.1569 78.822C83.2375 78.6286 83.3735 78.4636 83.5475 78.3477C83.7216 78.2319 83.926 78.1706 84.1346 78.1715C84.4122 78.1712 84.6782 78.2815 84.8743 78.4783C85.0703 78.675 85.1802 78.9421 85.1799 79.2206ZM94.6175 78.1592C94.4091 78.1594 94.2053 78.2217 94.032 78.3383C93.8587 78.4548 93.7236 78.6203 93.6439 78.8137C93.5642 79.0072 93.5434 79.2199 93.5843 79.4249C93.6251 79.6299 93.7257 79.8179 93.8733 79.9652C94.0209 80.1126 94.2088 80.2125 94.4133 80.2523C94.6178 80.2922 94.8296 80.2702 95.0219 80.1891C95.2142 80.108 95.3783 79.9715 95.4934 79.7969C95.6085 79.6223 95.6695 79.4175 95.6686 79.2083C95.6688 79.0699 95.6417 78.9328 95.5889 78.8051C95.5361 78.6773 95.4586 78.5614 95.3609 78.4639C95.2632 78.3664 95.1473 78.2892 95.0197 78.237C94.8921 78.1847 94.7554 78.1582 94.6175 78.1592ZM105.106 78.1468C104.898 78.1471 104.694 78.2094 104.521 78.3259C104.347 78.4425 104.212 78.6079 104.133 78.8014C104.053 78.9948 104.032 79.2075 104.073 79.4125C104.114 79.6175 104.214 79.8056 104.362 79.9529C104.51 80.1002 104.698 80.2001 104.902 80.24C105.106 80.2798 105.318 80.2578 105.511 80.1767C105.703 80.0957 105.867 79.9592 105.982 79.7846C106.097 79.61 106.158 79.4051 106.157 79.196C106.158 79.0575 106.13 78.9205 106.078 78.7927C106.025 78.665 105.947 78.549 105.85 78.4515C105.752 78.354 105.636 78.2769 105.508 78.2246C105.381 78.1723 105.244 78.1459 105.106 78.1468ZM89.3881 70.5721C89.1794 70.5711 88.9751 70.6325 88.801 70.7483C88.6269 70.8641 88.4909 71.0292 88.4103 71.2225C88.3297 71.4159 88.3081 71.6288 88.3483 71.8341C88.3885 72.0395 88.4886 72.2282 88.6359 72.3761C88.7833 72.524 88.9712 72.6245 89.1758 72.6648C89.3805 72.7051 89.5926 72.6834 89.7852 72.6025C89.9778 72.5216 90.1423 72.3852 90.2577 72.2104C90.3731 72.0357 90.4342 71.8306 90.4333 71.6212C90.4337 71.3426 90.3237 71.0756 90.1277 70.8788C89.9317 70.6821 89.6656 70.5717 89.3881 70.5721ZM99.8709 70.5597C99.6625 70.56 99.4588 70.6223 99.2854 70.7388C99.1121 70.8554 98.977 71.0208 98.8973 71.2143C98.8176 71.4077 98.7969 71.6204 98.8377 71.8254C98.8785 72.0304 98.9791 72.2185 99.1267 72.3658C99.2743 72.5131 99.4623 72.613 99.6667 72.6529C99.8712 72.6927 100.083 72.6707 100.275 72.5896C100.468 72.5086 100.632 72.3721 100.747 72.1975C100.862 72.0229 100.923 71.818 100.922 71.6089C100.922 71.4704 100.895 71.3334 100.842 71.2056C100.79 71.0779 100.712 70.9619 100.614 70.8644C100.517 70.7669 100.401 70.6898 100.273 70.6375C100.146 70.5852 100.009 70.5588 99.8709 70.5597ZM73.6275 93.611C73.4188 93.61 73.2145 93.6714 73.0404 93.7872C72.8663 93.903 72.7303 94.0681 72.6497 94.2614C72.5691 94.4548 72.5475 94.6677 72.5877 94.873C72.6279 95.0784 72.728 95.2671 72.8753 95.415C73.0227 95.5629 73.2106 95.6633 73.4152 95.7037C73.6199 95.744 73.832 95.7223 74.0246 95.6414C74.2173 95.5605 74.3817 95.4241 74.4971 95.2493C74.6125 95.0746 74.6736 94.8695 74.6727 94.6601C74.6731 94.3815 74.5631 94.1145 74.3671 93.9177C74.1711 93.721 73.905 93.6106 73.6275 93.611ZM84.1162 93.5986C83.9075 93.5977 83.7032 93.659 83.5291 93.7749C83.355 93.8907 83.219 94.0558 83.1384 94.2491C83.0578 94.4424 83.0362 94.6553 83.0764 94.8607C83.1166 95.0661 83.2167 95.2547 83.364 95.4026C83.5114 95.5505 83.6993 95.651 83.904 95.6913C84.1086 95.7317 84.3207 95.71 84.5133 95.6291C84.706 95.5482 84.8704 95.4117 84.9858 95.237C85.1012 95.0623 85.1624 94.8572 85.1615 94.6478C85.1618 94.3692 85.0518 94.1021 84.8558 93.9054C84.6598 93.7086 84.3937 93.5983 84.1162 93.5986ZM94.5991 93.5863C94.3907 93.5865 94.1869 93.6489 94.0136 93.7654C93.8402 93.8819 93.7052 94.0474 93.6255 94.2408C93.5457 94.4343 93.525 94.647 93.5658 94.852C93.6067 95.057 93.7073 95.2451 93.8548 95.3924C94.0024 95.5397 94.1904 95.6396 94.3948 95.6794C94.5993 95.7193 94.8111 95.6973 95.0034 95.6162C95.1957 95.5351 95.3598 95.3986 95.475 95.224C95.5901 95.0494 95.6511 94.8446 95.6502 94.6354C95.6503 94.497 95.6233 94.3599 95.5704 94.2322C95.5176 94.1044 95.4402 93.9885 95.3425 93.891C95.2448 93.7935 95.1288 93.7164 95.0012 93.6641C94.8737 93.6118 94.737 93.5854 94.5991 93.5863ZM105.088 93.5739C104.879 93.5742 104.676 93.6365 104.502 93.753C104.329 93.8696 104.194 94.0351 104.114 94.2285C104.034 94.4219 104.014 94.6346 104.055 94.8396C104.095 95.0446 104.196 95.2327 104.344 95.38C104.491 95.5273 104.679 95.6272 104.884 95.6671C105.088 95.7069 105.3 95.6849 105.492 95.6039C105.684 95.5228 105.849 95.3863 105.964 95.2117C106.079 95.0371 106.14 94.8322 106.139 94.6231C106.139 94.4846 106.112 94.3476 106.059 94.2199C106.006 94.0921 105.929 93.9761 105.831 93.8786C105.734 93.7811 105.618 93.704 105.49 93.6517C105.362 93.5994 105.226 93.573 105.088 93.5739ZM114.588 94.2787C114.547 94.3856 114.527 94.499 114.529 94.6132C114.528 94.7729 114.564 94.9305 114.634 95.0738C114.704 95.2172 114.805 95.3425 114.931 95.4401C114.821 95.0471 114.704 94.66 114.588 94.2787ZM78.8809 86.0057C78.6725 86.0047 78.4684 86.0659 78.2944 86.1815C78.1205 86.2971 77.9845 86.4618 77.9037 86.6548C77.8229 86.8478 77.801 87.0603 77.8407 87.2656C77.8804 87.4708 77.9799 87.6594 78.1267 87.8076C78.2734 87.9557 78.4608 88.0567 78.6651 88.0977C78.8693 88.1387 79.0813 88.1178 79.274 88.0378C79.4667 87.9578 79.6316 87.8223 79.7477 87.6483C79.8638 87.4743 79.9259 87.2698 79.9262 87.0607C79.9265 86.7816 79.8168 86.5139 79.6209 86.3162C79.425 86.1185 79.159 86.0069 78.8809 86.0057ZM89.3696 85.9933C89.1612 85.9924 88.9571 86.0536 88.7832 86.1692C88.6092 86.2847 88.4732 86.4494 88.3924 86.6424C88.3116 86.8354 88.2897 87.048 88.3294 87.2532C88.3691 87.4585 88.4686 87.6471 88.6154 87.7952C88.7622 87.9434 88.9496 88.0443 89.1538 88.0853C89.3581 88.1263 89.57 88.1055 89.7627 88.0255C89.9554 87.9455 90.1203 87.8099 90.2364 87.636C90.3525 87.462 90.4146 87.2575 90.4149 87.0483C90.4152 86.7692 90.3055 86.5016 90.1096 86.3039C89.9138 86.1062 89.6477 85.9945 89.3696 85.9933ZM99.8525 85.981C99.6443 85.9812 99.4408 86.0434 99.2676 86.1597C99.0944 86.2759 98.9593 86.4411 98.8795 86.6342C98.7996 86.8273 98.7785 87.0397 98.8188 87.2445C98.8592 87.4494 98.9592 87.6374 99.1062 87.785C99.2532 87.9325 99.4406 88.0329 99.6447 88.0734C99.8488 88.1139 100.06 88.0928 100.253 88.0126C100.445 87.9324 100.61 87.7969 100.726 87.623C100.841 87.4492 100.903 87.2449 100.904 87.036C100.904 86.8973 100.877 86.76 100.824 86.6319C100.771 86.5038 100.694 86.3874 100.596 86.2895C100.499 86.1915 100.383 86.1138 100.255 86.0609C100.128 86.008 99.9907 85.9808 99.8525 85.981ZM110.341 85.9686C110.133 85.9689 109.93 86.0311 109.756 86.1473C109.583 86.2636 109.448 86.4287 109.368 86.6218C109.288 86.8149 109.267 87.0273 109.308 87.2322C109.348 87.437 109.448 87.6251 109.595 87.7726C109.742 87.9202 109.929 88.0206 110.133 88.0611C110.337 88.1016 110.549 88.0804 110.742 88.0003C110.934 87.9201 111.098 87.7845 111.214 87.6107C111.33 87.4368 111.392 87.2326 111.392 87.0236C111.393 86.8849 111.365 86.7476 111.313 86.6195C111.26 86.4914 111.183 86.3751 111.085 86.2771C110.987 86.1792 110.871 86.1015 110.744 86.0486C110.616 85.9956 110.479 85.9685 110.341 85.9686ZM73.609 109.032C73.4006 109.031 73.1965 109.092 73.0226 109.208C72.8486 109.324 72.7126 109.488 72.6318 109.681C72.551 109.874 72.5291 110.087 72.5688 110.292C72.6085 110.497 72.708 110.686 72.8548 110.834C73.0016 110.982 73.189 111.083 73.3932 111.124C73.5975 111.165 73.8094 111.144 74.0021 111.064C74.1948 110.984 74.3597 110.849 74.4758 110.675C74.5919 110.501 74.654 110.296 74.6543 110.087C74.6546 109.808 74.5449 109.54 74.349 109.343C74.1532 109.145 73.8871 109.033 73.609 109.032ZM84.0977 109.02C83.8894 109.019 83.6853 109.08 83.5113 109.196C83.3373 109.311 83.2013 109.476 83.1205 109.669C83.0398 109.862 83.0178 110.075 83.0575 110.28C83.0972 110.485 83.1968 110.674 83.3435 110.822C83.4903 110.97 83.6777 111.071 83.8819 111.112C84.0862 111.153 84.2981 111.132 84.4908 111.052C84.6836 110.972 84.8484 110.836 84.9645 110.663C85.0807 110.489 85.1428 110.284 85.143 110.075C85.1434 109.796 85.0336 109.528 84.8377 109.33C84.6419 109.133 84.3758 109.021 84.0977 109.02ZM94.5806 109.008C94.3725 109.008 94.1689 109.07 93.9957 109.186C93.8225 109.302 93.6874 109.468 93.6076 109.661C93.5277 109.854 93.5066 110.066 93.547 110.271C93.5873 110.476 93.6873 110.664 93.8343 110.812C93.9813 110.959 94.1687 111.059 94.3728 111.1C94.5769 111.14 94.7885 111.119 94.9809 111.039C95.1733 110.959 95.3378 110.823 95.4537 110.65C95.5695 110.476 95.6315 110.271 95.6317 110.063C95.6321 109.782 95.5215 109.514 95.3244 109.316C95.1273 109.118 94.8597 109.007 94.5806 109.008ZM105.069 108.995C104.861 108.995 104.658 109.058 104.484 109.174C104.311 109.29 104.176 109.455 104.096 109.648C104.016 109.841 103.995 110.054 104.036 110.259C104.076 110.464 104.176 110.652 104.323 110.799C104.47 110.947 104.657 111.047 104.862 111.088C105.066 111.128 105.277 111.107 105.47 111.027C105.662 110.947 105.827 110.811 105.942 110.637C106.058 110.463 106.12 110.259 106.12 110.05C106.121 109.911 106.094 109.774 106.041 109.646C105.988 109.518 105.911 109.402 105.813 109.304C105.716 109.206 105.6 109.128 105.472 109.075C105.344 109.022 105.208 108.995 105.069 108.995ZM115.558 108.983C115.35 108.983 115.146 109.045 114.973 109.162C114.8 109.278 114.665 109.443 114.585 109.636C114.505 109.829 114.484 110.042 114.524 110.246C114.565 110.451 114.665 110.639 114.812 110.787C114.959 110.934 115.146 111.035 115.35 111.075C115.554 111.116 115.766 111.095 115.958 111.014C116.151 110.934 116.315 110.799 116.431 110.625C116.547 110.451 116.609 110.247 116.609 110.038C116.61 109.758 116.499 109.489 116.302 109.291C116.105 109.093 115.837 108.983 115.558 108.983ZM78.8625 101.433C78.6541 101.432 78.45 101.493 78.276 101.609C78.102 101.724 77.966 101.889 77.8853 102.082C77.8045 102.275 77.7825 102.487 77.8222 102.693C77.8619 102.898 77.9615 103.087 78.1082 103.235C78.255 103.383 78.4424 103.484 78.6466 103.525C78.8509 103.566 79.0628 103.545 79.2555 103.465C79.4483 103.385 79.6132 103.249 79.7293 103.075C79.8454 102.901 79.9075 102.697 79.9077 102.488C79.9081 102.209 79.7983 101.941 79.6025 101.743C79.4066 101.546 79.1406 101.434 78.8625 101.433ZM89.3512 101.42C89.1428 101.42 88.9387 101.481 88.7647 101.596C88.5908 101.712 88.4548 101.877 88.374 102.07C88.2932 102.263 88.2713 102.475 88.311 102.68C88.3507 102.886 88.4502 103.074 88.597 103.222C88.7437 103.37 88.9311 103.471 89.1354 103.512C89.3396 103.553 89.5515 103.533 89.7443 103.453C89.937 103.373 90.1019 103.237 90.218 103.063C90.3341 102.889 90.3962 102.685 90.3965 102.475C90.3968 102.196 90.287 101.929 90.0912 101.731C89.8953 101.533 89.6293 101.422 89.3512 101.42ZM99.8341 101.408C99.6259 101.408 99.4224 101.471 99.2492 101.587C99.076 101.703 98.9409 101.868 98.861 102.061C98.7811 102.254 98.76 102.467 98.8004 102.672C98.8407 102.876 98.9407 103.065 99.0877 103.212C99.2348 103.36 99.4221 103.46 99.6262 103.501C99.8303 103.541 100.042 103.52 100.234 103.44C100.427 103.36 100.591 103.224 100.707 103.05C100.823 102.876 100.885 102.672 100.885 102.463C100.885 102.324 100.858 102.187 100.806 102.059C100.753 101.931 100.675 101.815 100.578 101.717C100.48 101.619 100.364 101.541 100.237 101.488C100.109 101.435 99.9723 101.408 99.8341 101.408ZM110.323 101.396C110.115 101.396 109.911 101.458 109.738 101.574C109.565 101.691 109.43 101.856 109.35 102.049C109.27 102.242 109.249 102.454 109.289 102.659C109.329 102.864 109.429 103.052 109.576 103.2C109.723 103.347 109.911 103.448 110.115 103.488C110.319 103.529 110.531 103.508 110.723 103.427C110.915 103.347 111.08 103.212 111.196 103.038C111.312 102.864 111.374 102.66 111.374 102.451C111.374 102.171 111.264 101.902 111.067 101.704C110.869 101.506 110.602 101.395 110.323 101.396ZM78.844 116.86C78.6356 116.859 78.4315 116.92 78.2576 117.036C78.0836 117.151 77.9476 117.316 77.8668 117.509C77.786 117.702 77.7641 117.915 77.8038 118.12C77.8435 118.325 77.943 118.514 78.0898 118.662C78.2366 118.81 78.424 118.911 78.6282 118.952C78.8325 118.993 79.0444 118.972 79.2371 118.892C79.4298 118.812 79.5947 118.677 79.7108 118.503C79.8269 118.329 79.889 118.124 79.8893 117.915C79.8902 117.776 79.8639 117.639 79.8118 117.511C79.7597 117.383 79.6829 117.267 79.5857 117.169C79.4886 117.071 79.3731 116.993 79.2458 116.94C79.1185 116.887 78.9819 116.86 78.844 116.86ZM89.3327 116.848C89.1244 116.847 88.9202 116.908 88.7463 117.023C88.5723 117.139 88.4363 117.304 88.3555 117.497C88.2748 117.69 88.2528 117.902 88.2925 118.107C88.3322 118.313 88.4318 118.501 88.5785 118.649C88.7253 118.798 88.9127 118.899 89.1169 118.94C89.3212 118.981 89.5331 118.96 89.7258 118.88C89.9186 118.8 90.0834 118.664 90.1995 118.49C90.3156 118.316 90.3778 118.112 90.378 117.903C90.379 117.764 90.3526 117.627 90.3005 117.499C90.2484 117.371 90.1716 117.254 90.0745 117.156C89.9773 117.058 89.8618 116.981 89.7345 116.928C89.6072 116.875 89.4707 116.847 89.3327 116.848ZM99.8156 116.835C99.6075 116.835 99.4039 116.898 99.2307 117.014C99.0575 117.13 98.9225 117.295 98.8426 117.488C98.7627 117.681 98.7416 117.894 98.7819 118.099C98.8223 118.304 98.9223 118.492 99.0693 118.639C99.2163 118.787 99.4037 118.887 99.6078 118.928C99.8119 118.968 100.024 118.947 100.216 118.867C100.408 118.787 100.573 118.651 100.689 118.477C100.805 118.303 100.866 118.099 100.867 117.89C100.868 117.751 100.841 117.614 100.789 117.485C100.736 117.357 100.659 117.24 100.561 117.142C100.463 117.044 100.347 116.966 100.219 116.914C100.091 116.861 99.954 116.834 99.8156 116.835ZM110.304 116.823C110.096 116.823 109.893 116.885 109.719 117.002C109.546 117.118 109.411 117.283 109.331 117.476C109.251 117.669 109.23 117.882 109.271 118.086C109.311 118.291 109.411 118.479 109.558 118.627C109.705 118.774 109.892 118.875 110.097 118.915C110.301 118.956 110.512 118.935 110.705 118.855C110.897 118.774 111.062 118.639 111.177 118.465C111.293 118.291 111.355 118.087 111.355 117.878C111.356 117.739 111.33 117.601 111.277 117.473C111.225 117.344 111.148 117.228 111.05 117.13C110.952 117.032 110.836 116.954 110.708 116.901C110.58 116.849 110.443 116.822 110.304 116.823ZM119.833 117.445C119.774 117.578 119.744 117.722 119.745 117.868C119.744 118.132 119.844 118.386 120.025 118.578L119.833 117.445Z" fill="white" fill-opacity="0.48"/>
<path d="M89.4065 105.134C86.9919 105.179 84.5835 105.401 82.2006 105.8C81.0297 106.02 79.8588 106.286 78.6879 106.582C78.1024 106.73 77.517 106.854 76.9316 106.984C76.3234 107.129 75.7005 107.201 75.0759 107.198C75.0173 107.198 75.0173 107.28 75.0758 107.286C75.6585 107.355 76.245 107.386 76.8317 107.379C77.4055 107.353 77.9768 107.286 78.541 107.177C79.7119 106.97 80.9296 106.709 82.1297 106.49C84.5475 106.046 86.9653 105.602 89.4122 105.34C89.5351 105.322 89.5177 105.134 89.4065 105.134Z" fill="#5A0C98"/>
<path d="M95.1848 107.704C93.2234 107.352 91.2437 107.11 89.2552 106.982C88.2542 106.923 87.2649 106.924 86.2697 106.948C85.7897 106.949 85.3155 106.978 84.8413 107.008C84.3671 107.038 83.7992 107.133 83.2782 107.157C83.2196 107.157 83.2137 107.246 83.2781 107.246C83.7698 107.245 84.2674 107.316 84.7591 107.339L86.246 107.409C87.2411 107.456 88.2304 107.514 89.2256 107.549C91.2159 107.624 93.1945 107.723 95.1789 107.87C95.2006 107.87 95.2218 107.863 95.2377 107.848C95.2536 107.833 95.263 107.812 95.2638 107.79C95.2646 107.768 95.2567 107.747 95.2419 107.731C95.2271 107.715 95.2066 107.705 95.1848 107.704Z" fill="#5A0C98"/>
<path d="M82.4852 56.6246C82.1952 56.8306 81.9729 57.1187 81.8469 57.452C81.7208 57.7852 81.6967 58.1484 81.7776 58.495C81.8813 58.9369 82.1469 59.3232 82.5216 59.5773C82.8964 59.8314 83.3529 59.9347 83.8007 59.8668C83.7548 60.1185 83.7617 60.377 83.8211 60.6257C83.9319 61.1076 84.2179 61.5304 84.6233 61.8114C85.0286 62.0925 85.5242 62.2117 86.0131 62.1457C85.9792 62.3573 85.9876 62.5735 86.0378 62.7817C86.1142 63.1128 86.2821 63.4153 86.5224 63.6546C86.7627 63.8938 87.0656 64.0601 87.3962 64.1342C87.7268 64.2082 88.0718 64.1872 88.3913 64.0734C88.7109 63.9596 88.9921 63.7577 89.2027 63.4909C89.3393 63.9209 89.6326 64.2831 90.0241 64.5052C90.4156 64.7272 90.8765 64.7928 91.3148 64.6887C91.5639 64.6305 91.7976 64.5189 91.9998 64.3616C92.0051 64.416 92.0149 64.4699 92.0292 64.5227C92.1155 64.8946 92.3172 65.2292 92.6052 65.4785C92.8932 65.7277 93.2528 65.8788 93.6322 65.91C94.0117 65.9412 94.3915 65.8509 94.717 65.6521C95.0425 65.4533 95.297 65.1561 95.4439 64.8034C95.6143 65.1784 95.909 65.4823 96.2778 65.6636C96.6467 65.8449 97.067 65.8923 97.4674 65.7979C97.7811 65.7233 98.0693 65.5659 98.3021 65.342C98.535 65.1181 98.704 64.8359 98.7915 64.5246C99.199 64.7155 99.6585 64.7643 100.097 64.6633C100.355 64.6046 100.597 64.4937 100.81 64.3375C101.024 64.1812 101.203 63.9829 101.337 63.7547C101.628 63.9382 101.962 64.0421 102.305 64.056C102.649 64.07 102.991 63.9936 103.296 63.8343C103.602 63.675 103.861 63.4384 104.047 63.1481C104.234 62.8577 104.342 62.5235 104.36 62.1788C104.592 62.2227 104.83 62.2225 105.062 62.1781C105.487 62.0799 105.862 61.8298 106.118 61.4745C106.373 61.1193 106.491 60.6832 106.45 60.2476C106.736 60.3131 107.034 60.3128 107.32 60.2468C107.833 60.1281 108.278 59.8103 108.557 59.3632C108.836 58.9161 108.928 58.3763 108.811 57.8625C108.761 57.6501 108.676 57.4479 108.558 57.265C108.663 57.2642 108.768 57.2513 108.87 57.2265C109.335 57.118 109.738 56.8295 109.992 56.4241C110.246 56.0187 110.329 55.5293 110.225 55.0629C110.146 54.743 109.982 54.4504 109.752 54.2153C110.22 54.0613 110.614 53.7372 110.856 53.307C111.098 52.8767 111.171 52.3715 111.061 51.8906C110.981 51.5261 110.801 51.1913 110.542 50.9244C110.883 50.7006 111.147 50.377 111.299 49.9976C111.45 49.6181 111.482 49.2013 111.389 48.8037C111.323 48.5086 111.189 48.233 110.998 47.9986C110.808 47.7641 110.566 47.5772 110.292 47.4522C110.435 47.2452 110.534 47.0102 110.581 46.7626C110.628 46.515 110.623 46.2603 110.565 46.0152C110.507 45.77 110.399 45.5399 110.247 45.3398C110.094 45.1397 109.902 44.9741 109.681 44.8538C109.912 44.5739 110.063 44.2359 110.116 43.8766C110.169 43.5173 110.123 43.1504 109.982 42.8161C109.842 42.4817 109.612 42.1925 109.319 41.9802C109.026 41.7678 108.68 41.6403 108.319 41.6116C108.393 41.3309 108.398 41.0367 108.334 40.7539C108.27 40.4712 108.139 40.2081 107.952 39.987C107.766 39.7659 107.528 39.5933 107.261 39.4838C106.993 39.3743 106.703 39.3311 106.415 39.3578C106.481 39.0789 106.481 38.7887 106.416 38.5099C106.358 38.2561 106.251 38.0165 106.1 37.8046C105.95 37.5928 105.759 37.4129 105.539 37.2753C105.319 37.1376 105.074 37.045 104.818 37.0026C104.562 36.9602 104.3 36.9689 104.047 37.0282C103.899 37.0623 103.757 37.1167 103.624 37.1897C103.619 37.0825 103.603 36.976 103.578 36.8718C103.46 36.3592 103.145 35.9147 102.701 35.636C102.256 35.3574 101.719 35.2674 101.208 35.3859C101.045 35.4207 100.889 35.4795 100.743 35.5602C100.76 35.3725 100.746 35.1834 100.701 35.0005C100.614 34.6119 100.412 34.2589 100.122 33.9875C99.8313 33.716 99.466 33.5388 99.0734 33.4788C98.6808 33.4188 98.279 33.4788 97.9204 33.651C97.5618 33.8232 97.263 34.0997 97.0629 34.4444C96.8286 34.1956 96.5332 34.0129 96.2064 33.9143C95.8795 33.8156 95.5324 33.8046 95.1996 33.8823C94.7013 33.9979 94.2664 34.3022 93.9858 34.7315C93.82 34.4223 93.5677 34.1687 93.2599 34.0018C92.9521 33.8349 92.6022 33.762 92.2532 33.7921C91.9042 33.8221 91.5714 33.9539 91.2958 34.1711C91.0201 34.3882 90.8135 34.6814 90.7016 35.0145C90.4464 34.8205 90.1439 34.6986 89.8257 34.6615C89.5074 34.6244 89.1849 34.6735 88.8915 34.8035C88.5982 34.9336 88.3447 35.1399 88.1574 35.4012C87.9701 35.6624 87.8558 35.969 87.8263 36.2892C87.6018 36.1296 87.3458 36.0199 87.0755 35.9675C86.8051 35.9151 86.5266 35.9212 86.2586 35.9855C85.8135 36.0867 85.4167 36.3395 85.1359 36.7007C84.8551 37.062 84.7075 37.5094 84.7182 37.967C84.4988 37.9355 84.2754 37.9444 84.0589 37.9931C83.5944 38.1024 83.1918 38.3921 82.9394 38.7986C82.687 39.205 82.6055 39.695 82.7127 40.1609C82.7616 40.3729 82.8488 40.574 82.97 40.7543L82.8558 40.7756C82.6017 40.8343 82.3615 40.9427 82.1491 41.0946C81.9366 41.2465 81.756 41.4389 81.6175 41.6607C81.4791 41.8826 81.3857 42.1296 81.3425 42.3875C81.2993 42.6455 81.3072 42.9094 81.3658 43.1641C81.4079 43.352 81.479 43.5322 81.5766 43.6981C81.416 43.6906 81.2551 43.7064 81.0989 43.7452C80.7516 43.825 80.4356 44.0069 80.1914 44.2675C79.9472 44.5282 79.7858 44.8557 79.7279 45.2084C79.6699 45.5611 79.718 45.9229 79.866 46.2477C80.0141 46.5724 80.2553 46.8454 80.5589 47.0316C80.3514 47.2173 80.1895 47.4486 80.086 47.7075C79.9825 47.9663 79.9403 48.2456 79.9625 48.5233C79.9848 48.8011 80.0709 49.0697 80.2143 49.3082C80.3576 49.5466 80.5542 49.7484 80.7886 49.8975C80.4276 50.1059 80.1414 50.4232 79.9706 50.8042C79.7999 51.1852 79.7534 51.6103 79.8378 52.0188C79.9223 52.4274 80.1333 52.7984 80.4408 53.079C80.7483 53.3596 81.1365 53.5354 81.5499 53.5813C81.3266 53.796 81.1636 54.0659 81.0772 54.3637C80.9909 54.6615 80.9842 54.9768 81.058 55.2777C81.1413 55.6163 81.3203 55.9235 81.5734 56.1624C81.8266 56.4013 82.1431 56.5618 82.4852 56.6246Z" fill="#393C47"/>
<path d="M96.4703 69.3364C96.3092 70.0443 92.6645 74.3197 89.5145 73.6276C87.285 73.1423 88.7041 68.6953 88.7041 68.6953L87.2784 62.3396L95.2487 57.2464C95.2487 57.2464 96.5382 69.0354 96.4703 69.3364Z" fill="#FFC24D"/>
<path d="M95.6952 61.3758C95.0536 62.9606 94.0944 64.3968 92.8773 65.5953C91.6601 66.7938 90.2109 67.729 88.6196 68.343L87.2692 62.325L95.2429 57.2306C95.2429 57.2306 95.4482 59.0998 95.6952 61.3758Z" fill="#FFA801"/>
<path d="M79.1959 52.2168C76.8218 66.1492 82.0453 68.8749 87.8313 66.6506C93.6174 64.4264 96.3938 59.6968 98.0506 53.8409C99.8264 47.5647 96.3052 41.8702 91.6417 40.8277C86.9781 39.7852 80.9977 41.6433 79.1959 52.2168Z" fill="#FFC24D"/>
<path d="M97.0597 56.4868C95.3265 56.4503 95.4446 52.4341 95.4446 52.4341C95.4446 52.4341 91.9532 52.094 91.3115 46.9251C91.2576 48.4466 91.6485 49.9498 92.436 51.2496C92.436 51.2496 86.1932 50.3312 84.123 44.8965C84.123 44.8965 84.8896 47.6353 85.7679 48.6692C85.7679 48.6692 83.2325 47.6878 82.2117 45.4539C82.2117 45.4539 80.8266 48.3305 79.9128 49.0735C79.9128 49.0735 81.2676 38.2794 91.1361 40.4369C91.1361 40.4369 97.3492 41.4826 99.0899 46.6716C100.831 51.8607 97.0597 56.4868 97.0597 56.4868Z" fill="#393C47"/>
<path d="M97.7302 55.9685C97.2428 57.347 101.066 51.0638 101.143 50.0292C101.22 48.9945 99.7709 43.8443 95.7497 41.3127C92.3705 39.196 87.8938 39.9932 87.1118 40.1423C86.2355 40.3034 85.4035 40.6512 84.672 41.1623C84.672 41.1623 90.5522 40.0924 95.2588 42C97.5275 42.9518 99.5485 50.7897 97.7302 55.9685Z" fill="#A23EF0"/>
<path d="M97.6038 41.0634C97.6038 41.0634 96.7999 37.9444 94.2279 36.8278C94.2279 36.8278 93.5197 39.5032 94.1861 40.6428C94.5194 41.219 96.5424 42.0394 96.8933 41.7678C97.1536 41.5581 97.3917 41.322 97.6038 41.0634Z" fill="#A23EF0"/>
<path opacity="0.1" d="M97.6093 41.063C97.3999 41.3225 97.1658 41.561 96.9104 41.7751C96.894 41.7884 96.8753 41.7984 96.8553 41.8048L96.7834 41.8049C96.7637 41.8072 96.7438 41.8072 96.7241 41.805C96.3177 41.7884 95.9191 41.6893 95.5523 41.5139C95.7326 41.1418 95.9468 40.7872 96.1923 40.4545C96.4726 40.1921 96.828 40.0243 97.2083 39.975C97.3753 40.3244 97.5095 40.6886 97.6093 41.063Z" fill="#050400"/>
<path d="M98.1532 41.6204C98.1532 41.6204 102.03 42.1853 103.564 43.5373C103.564 43.5373 102.002 45.1766 99.9977 45.0852C99.1013 45.0478 97.1373 42.7839 97.3998 42.3891C97.6143 42.0991 97.8679 41.8404 98.1532 41.6204Z" fill="#A23EF0"/>
<path opacity="0.1" d="M99.0275 41.7821C98.9981 42.2188 98.8434 42.6381 98.582 42.9895C98.3921 43.1887 98.1628 43.3461 97.9087 43.4517C97.5326 42.9735 97.3003 42.546 97.402 42.3892C97.6166 42.1024 97.8688 41.8458 98.1517 41.6262C98.1517 41.6262 98.4987 41.6725 99.0275 41.7821Z" fill="#050400"/>
<path d="M98.2902 42.5885C98.112 42.7653 97.8857 42.8855 97.6397 42.9339C97.3937 42.9823 97.139 42.9568 96.9078 42.8605C96.6765 42.7643 96.479 42.6016 96.3402 42.3931C96.2014 42.1845 96.1274 41.9393 96.1277 41.6885C96.1279 41.4376 96.2023 41.1923 96.3416 40.9835C96.4808 40.7747 96.6786 40.6116 96.9101 40.5149C97.1415 40.4182 97.3962 40.3922 97.6422 40.4402C97.8881 40.4881 98.1142 40.6079 98.2919 40.7843C98.4108 40.9023 98.5051 41.0427 98.5694 41.1975C98.6337 41.3523 98.6667 41.5183 98.6665 41.686C98.6664 41.8538 98.633 42.0198 98.5684 42.1747C98.5038 42.3296 98.4093 42.4702 98.2902 42.5885Z" fill="#A23EF0"/>
<path d="M95.9657 56.1442C95.9657 56.1442 98.5633 53.0046 100.003 53.957C101.443 54.9095 99.2921 59.5959 97.4619 60.1106C97.2327 60.1934 96.9892 60.2288 96.7462 60.2147C96.5031 60.2006 96.2655 60.1373 96.0477 60.0286C95.8299 59.9198 95.6363 59.768 95.4787 59.5821C95.3211 59.3963 95.2026 59.1803 95.1305 58.9471L95.9657 56.1442Z" fill="#FFC24D"/>
<path d="M107.335 77.121C120.478 96.354 137.582 134.332 139.929 140.563C141.525 144.79 119.442 153.794 118.791 150.757C117.949 146.875 102.359 97.2778 98.9278 79.2302C97.0295 69.2682 103.912 72.1165 107.335 77.121Z" fill="#FFC24D"/>
<path d="M110.011 120.92C110.801 122.585 111.324 124.365 111.563 126.195C110.766 124.533 110.242 122.751 110.011 120.92Z" fill="#E69701"/>
<path d="M124.308 161.065C128.806 166.579 130.804 167.298 132.14 173.96C133.011 178.347 136.177 179.663 137.485 175.192C139.632 167.886 135.318 159.545 132.989 157.09L124.308 161.065Z" fill="#FFC24D"/>
<path d="M116.824 142.181C116.824 142.181 118.099 152.227 122.319 158.608C125.238 163.001 132.642 171.855 148.344 170.968C152.07 170.758 157.237 167.812 151.034 165.935C146.627 164.602 143.433 165.099 141.008 163.851C141.008 163.851 147.136 159.319 146.79 155.586C146.49 152.318 145.957 149.076 145.193 145.886C144.579 145.896 143.966 145.944 143.357 146.029C143.357 146.029 142.706 142.573 138.464 139.332L116.824 142.181Z" fill="#FFC24D"/>
<path d="M125.784 162.34C128.45 163.064 134.122 164.502 139.17 164.056C144.785 163.562 155.462 161.101 155.069 156.939C154.775 153.893 150.616 154.479 150.616 154.479C150.616 154.479 154.817 152.525 153.955 149.831C153.174 147.378 149.98 148.021 149.98 148.021C149.98 148.021 152.321 146.398 151.119 144.181C149.66 141.517 144.982 145.362 141.177 143.946C140.317 143.63 125.784 162.34 125.784 162.34Z" fill="#FFC24D"/>
<path d="M137.672 158.196C140.288 158.464 146.398 157.54 150.55 154.582C150.644 154.517 150.644 154.406 150.551 154.453C146.421 156.203 142.097 157.442 137.672 158.143L137.672 158.196Z" fill="#E69701"/>
<path d="M137.344 152.505C139.626 152.503 145.883 151.267 150.006 148.129C150.099 148.059 150.094 147.953 150.006 148C145.967 149.96 141.722 151.454 137.35 152.453C137.303 152.458 137.315 152.505 137.344 152.505Z" fill="#E69701"/>
<path d="M118.666 92.0254L100.158 91.1729C100.158 91.1729 98.3679 82.0094 98.0935 76.7931C97.7276 69.8871 100.197 68.1297 106.083 74.1901C110.024 78.2461 118.666 92.0254 118.666 92.0254Z" fill="#A23EF0"/>
<path d="M106.151 79.226C106.152 79.4351 106.091 79.6399 105.976 79.8145C105.861 79.989 105.697 80.1255 105.505 80.2065C105.313 80.2875 105.101 80.3095 104.896 80.2697C104.692 80.2299 104.504 80.13 104.357 79.9827C104.209 79.8355 104.109 79.6474 104.068 79.4425C104.027 79.2376 104.048 79.0249 104.127 78.8316C104.207 78.6382 104.342 78.4728 104.515 78.3563C104.689 78.2398 104.892 78.1775 105.101 78.1772C105.238 78.1763 105.375 78.2027 105.503 78.255C105.63 78.3073 105.746 78.3844 105.844 78.4818C105.941 78.5793 106.019 78.6952 106.072 78.8229C106.124 78.9507 106.151 79.0877 106.151 79.226ZM99.8675 70.5925C99.6592 70.5928 99.4555 70.6551 99.2822 70.7716C99.109 70.8881 98.974 71.0535 98.8943 71.2469C98.8146 71.4403 98.7939 71.6529 98.8347 71.8578C98.8755 72.0628 98.9761 72.2508 99.1236 72.398C99.2711 72.5453 99.459 72.6452 99.6634 72.685C99.8678 72.7249 100.079 72.7029 100.272 72.6218C100.464 72.5408 100.628 72.4043 100.743 72.2298C100.858 72.0552 100.919 71.8504 100.918 71.6414C100.918 71.503 100.891 71.366 100.838 71.2383C100.786 71.1105 100.708 70.9946 100.611 70.8971C100.513 70.7997 100.397 70.7226 100.269 70.6703C100.142 70.618 100.005 70.5916 99.8675 70.5925ZM99.8492 86.0088C99.6403 86.0072 99.436 86.071 99.2646 86.1913C99.3806 86.8658 99.4851 87.5051 99.5896 88.0857C99.6732 88.1092 99.7598 88.121 99.8467 88.1206C100.126 88.1203 100.393 88.0087 100.591 87.8105C100.788 87.6122 100.9 87.3435 100.9 87.0635C100.9 86.7834 100.79 86.515 100.593 86.3172C100.396 86.1194 100.128 86.0085 99.8492 86.0088ZM110.333 85.9966C110.125 85.9968 109.922 86.059 109.749 86.1752C109.576 86.2914 109.441 86.4565 109.361 86.6495C109.281 86.8426 109.26 87.0549 109.3 87.2597C109.34 87.4645 109.44 87.6525 109.587 87.8C109.734 87.9475 109.922 88.0478 110.126 88.0883C110.33 88.1288 110.541 88.1077 110.733 88.0275C110.926 87.9474 111.09 87.8119 111.206 87.6381C111.322 87.4643 111.384 87.2601 111.384 87.0512C111.384 86.9126 111.357 86.7753 111.304 86.6473C111.252 86.5192 111.174 86.4029 111.077 86.305C110.979 86.207 110.863 86.1294 110.736 86.0765C110.608 86.0236 110.471 85.9964 110.333 85.9966Z" fill="white" fill-opacity="0.48"/>
<path d="M102.409 91.2567C102.21 91.2159 100.318 91.0656 100.178 91.0951C99.9924 90.0103 99.8242 88.9256 99.6327 87.8408C99.5341 87.3014 99.4237 86.762 99.3134 86.2284C99.203 85.6949 99.0695 84.9561 98.9592 84.4284C98.9621 84.4196 98.9629 84.4102 98.9614 84.4011C98.96 84.3919 98.9565 84.3832 98.9511 84.3757C98.9457 84.3682 98.9386 84.3621 98.9303 84.3579C98.9221 84.3537 98.913 84.3515 98.9038 84.3515C98.8946 84.3515 98.8855 84.3537 98.8772 84.3579C98.869 84.3622 98.8619 84.3683 98.8565 84.3758C98.851 84.3833 98.8475 84.392 98.846 84.4012C98.8446 84.4103 98.8453 84.4197 98.8482 84.4285C98.9233 85.1263 99.0045 85.6423 99.0739 86.2404C99.1433 86.8385 99.2128 87.3135 99.2998 87.8471C99.4854 88.9787 99.6359 90.1925 99.8799 91.3065C100.724 91.3646 101.571 91.3636 102.415 91.3036C102.444 91.3212 102.438 91.2684 102.409 91.2567Z" fill="#5A0C98"/>
<path d="M116.895 90.1724C114.203 89.8548 111.522 89.5845 108.817 89.4264C107.471 89.3504 106.118 89.2921 104.772 89.2574C103.426 89.2227 102.067 89.324 100.721 89.2597C100.712 89.2568 100.703 89.256 100.694 89.2575C100.684 89.2589 100.676 89.2626 100.668 89.268C100.661 89.2735 100.655 89.2807 100.65 89.289C100.646 89.2974 100.644 89.3066 100.644 89.3159C100.644 89.3253 100.646 89.3345 100.65 89.3428C100.655 89.3511 100.661 89.3583 100.668 89.3638C100.676 89.3693 100.684 89.3729 100.693 89.3743C100.703 89.3757 100.712 89.375 100.721 89.372C102.067 89.3712 103.425 89.53 104.772 89.5825C106.118 89.6349 107.47 89.7109 108.817 89.7811C111.51 89.9273 114.203 90.0676 116.895 90.2729C116.995 90.2906 116.995 90.1783 116.895 90.1724Z" fill="#5A0C98"/>
<path d="M146.715 85.7542C145.79 93.269 139.591 99.726 139.591 99.726C139.591 99.726 130.745 98.6002 125.353 93.3259C120.856 88.9241 120.51 82.5667 124.224 79.8367C129.549 75.8896 134.687 85.7815 134.687 85.7815C134.687 85.7815 132.606 74.8351 139.216 74.5449C143.797 74.3162 147.481 79.4875 146.715 85.7542Z" fill="#F53B5D"/>
<path d="M150.855 59.1436C147.813 63.199 142.071 64.8732 142.071 64.8732C142.071 64.8732 137.312 61.2452 135.954 56.3762C134.816 52.3077 136.732 48.4985 139.793 48.1602C144.188 47.671 143.893 55.1357 143.893 55.1357C143.893 55.1357 146.331 48.0689 150.27 50.1081C152.984 51.5213 153.395 55.764 150.855 59.1436Z" fill="#F53B5D"/>
<path d="M36.6226 109.133C36.1912 114.623 31.8783 119.521 31.8783 119.521C31.8783 119.521 25.3824 118.994 21.278 115.332C17.8538 112.283 17.3923 107.674 20.0168 105.568C23.7814 102.544 27.8667 109.545 27.8667 109.545C27.8667 109.545 25.977 101.66 30.7781 101.219C34.129 100.918 36.9825 104.553 36.6226 109.133Z" fill="#F53B5D"/>
<g clip-path="url(#clip0)">
<rect x="43.0976" y="17.0703" width="26.2868" height="32.674" rx="2.66798" fill="white"/>
<path d="M52.0455 32.7417C52.6665 30.3305 53.598 26.7445 55.0263 23.9004C56.7029 24.0859 57.386 23.7149 59.0627 24.1477C58.8764 30.3305 61.112 36.4514 62.0435 42.5723C62.1056 42.7578 61.9814 43.067 61.733 43.1288C59.9942 43.3761 58.1933 43.6234 56.4545 43.8707C56.2062 43.9325 55.8957 43.7471 55.8957 43.4379C55.8957 40.5939 55.9578 37.7498 56.082 34.8439C55.5231 37.6261 55.3368 40.4702 55.2126 43.3143C55.2126 43.6234 54.9642 43.8089 54.6537 43.7471C52.8528 43.3761 50.9898 43.6852 50.6793 41.6449C50.2446 38.6772 51.3624 35.524 52.0455 32.7417Z" fill="#393C47"/>
<path d="M56.3923 33.982C58.8142 32.0653 72.2898 43.9362 76.823 50.9228C85.2685 64.092 74.0907 63.3501 71.9793 62.1754C69.8058 61.0007 51.4865 37.939 56.3923 33.982Z" fill="#FFD357"/>
<path d="M96.1982 61.4356C90.0504 57.355 80.7355 54.8201 76.7611 50.9249C73.4698 47.7099 68.7503 58.4679 69.4955 59.8281C70.2407 61.1883 80.6734 70.2152 88.1874 72.0082C88.2495 72.0082 97.4402 62.2394 96.1982 61.4356Z" fill="#FFD357"/>
<path d="M36.6448 71.325C36.6448 71.325 41.8611 37.0107 49.6236 33.7956C55.9577 31.1371 61.795 32.9919 62.9749 39.6693C64.0306 45.7902 67.2598 54.817 68.5018 57.9084C69.6817 60.9998 73.0971 66.5643 73.0971 66.5643C73.0971 66.5643 52.3559 74.4164 36.6448 71.325Z" fill="#FFD357"/>
<path d="M50.2449 33.5518C53.1636 34.4792 52.3563 52.4093 48.444 59.7049C44.5317 67.0006 34.4716 66.3823 34.2853 63.9092C34.0369 61.4979 44.2212 31.697 50.2449 33.5518Z" fill="#FFD357"/>
<path d="M59.0627 29.101C59.0627 29.101 57.8828 32.8107 57.7586 33.6144C57.6965 33.8618 54.219 33.5526 53.7222 33.1198C54.0948 32.1306 54.9021 30.894 55.2126 29.1629C55.5851 27.3698 59.0627 29.101 59.0627 29.101Z" fill="#FD88D0"/>
<path d="M53.9707 26.191C53.9707 26.191 55.4611 30.8281 58.4419 30.5189C61.4847 30.2098 58.6903 23.9034 58.1935 23.7797C57.7588 23.656 54.7159 23.4087 53.9707 26.191Z" fill="#FD88D0"/>
<path d="M56.3304 22.234C58.1934 21.863 60.4911 22.234 60.8016 24.3361C60.8637 24.5835 60.7395 24.8308 60.4911 24.8926C59.0007 25.2636 57.4482 25.3254 55.9578 25.0781C55.9578 25.3254 55.8957 25.5727 55.8957 25.8818C55.7715 26.5001 55.7094 27.4894 55.2126 27.9221C54.219 28.7877 53.2254 27.3039 53.0391 26.4383C52.4802 24.2125 54.2811 22.3577 56.3304 22.234Z" fill="#393C47"/>
<path d="M45.9597 44.985C46.2081 47.0253 48.0711 46.778 49.9341 47.0871C50.2446 47.149 50.493 46.9635 50.493 46.6543C50.6172 43.8103 50.8035 40.9662 51.3624 38.184C51.3003 41.028 51.1761 43.8721 51.1761 46.778C51.1761 47.0871 51.4866 47.2108 51.7349 47.2108C53.4737 46.9635 55.2746 46.7162 57.0134 46.4689C57.2618 46.407 57.3239 46.1597 57.3239 45.9124C56.3924 39.7915 55.1504 34.227 55.3988 27.9824C55.3988 27.7969 55.0883 26.9313 54.9641 26.8695C55.0262 25.5711 55.523 24.52 55.1504 23.2835C55.0883 22.9744 56.5787 22.2324 56.2682 22.2324C50.8656 22.3561 48.5679 31.3829 47.3259 36.1436C46.7049 38.9259 45.5871 42.0791 45.9597 44.985Z" fill="#393C47"/>
<path d="M55.6472 26.8068C55.6472 26.8068 55.0884 26.0031 54.2811 26.2504C53.4738 26.4977 53.5359 28.4762 54.9642 28.4762C56.3924 28.4144 55.6472 26.8068 55.6472 26.8068Z" fill="#FD88D0"/>
<path d="M55.2747 28.0459C55.1505 27.9222 54.9021 28.1077 55.0263 28.2932C55.2747 28.4787 55.5852 29.097 55.2126 29.2825C54.84 29.4679 54.1569 28.9733 54.5295 28.6023C54.6537 28.4787 54.4053 28.2314 54.2811 28.355C53.7843 28.9733 54.4674 29.7152 55.1505 29.5916C56.0199 29.5298 55.7715 28.4787 55.2747 28.0459Z" fill="#FFD357"/>
<path d="M45.0284 45.4809H44.78C45.2768 37.3197 48.8164 27.2418 51.3625 24.4595C52.7287 22.9756 54.0949 22.481 55.0264 22.2955C56.02 22.1101 56.7031 22.3574 56.7031 22.3574L56.641 22.5429C56.641 22.5429 54.0949 21.8009 51.5488 24.5832C49.0027 27.3654 45.5252 37.3815 45.0284 45.4809Z" fill="#393C47"/>
<path fill-rule="evenodd" clip-rule="evenodd" d="M51.6282 48.0636C51.7038 48.0733 51.7571 48.1421 51.7474 48.2173C51.1879 52.5499 50.1299 56.8966 48.6282 59.7009C48.6094 59.7385 48.5982 59.7671 48.587 59.7962C52.6477 60.8415 57.3701 62.2012 61.3691 64.5901C61.3719 64.5917 61.3746 64.5935 61.3773 64.5953C61.5068 64.6856 61.5497 64.833 61.5489 64.9844C61.548 65.1351 61.5048 65.3144 61.4338 65.5115C61.2912 65.9075 61.0213 66.4156 60.6708 66.9895C59.9684 68.1395 58.9247 69.5816 57.8685 70.9733C57.8226 71.0338 57.7361 71.0458 57.6754 71.0001C57.6146 70.9544 57.6026 70.8683 57.6485 70.8078C58.7037 69.4173 59.7404 67.9844 60.4352 66.8468C60.7833 66.2769 61.0413 65.788 61.1742 65.4188C61.241 65.2334 61.2725 65.0881 61.2731 64.9828C61.2737 64.8823 61.247 64.8414 61.2221 64.8225C57.2056 62.4243 52.4438 61.0688 48.3471 60.0182C48.2992 60.0059 48.2615 59.9689 48.2485 59.9214C48.2354 59.8739 48.249 59.823 48.284 59.7881C48.2959 59.7763 48.303 59.7651 48.3156 59.7338C48.3182 59.7271 48.3213 59.7192 48.3246 59.7104C48.3372 59.6775 48.3552 59.6306 48.3824 59.5765L48.384 59.5733L48.384 59.5733C49.8626 56.813 50.9157 52.5047 51.4739 48.1823C51.4836 48.1071 51.5527 48.054 51.6282 48.0636Z" fill="white"/>
<path fill-rule="evenodd" clip-rule="evenodd" d="M62.9517 39.5333C63.0267 39.5204 63.098 39.5706 63.1109 39.6453C64.1641 45.7516 67.3888 54.7675 68.6299 57.8567C68.6582 57.9271 68.6238 58.007 68.5531 58.0352C68.4824 58.0633 68.4021 58.0291 68.3738 57.9587C67.131 54.8652 63.8973 45.8274 62.8391 39.6918C62.8262 39.6171 62.8766 39.5461 62.9517 39.5333Z" fill="white"/>
</g>
<path d="M58.9444 74.6245L28.2439 88.8225C19.9474 92.6593 18.2129 85.4015 16.9879 77.5092C15.763 69.617 13.8232 57.6863 21.2427 54.2551L37.1885 46.8806C44.6034 43.4515 52.4315 52.6532 57.6404 58.7087C62.8493 64.7642 67.2456 70.7854 58.9444 74.6245Z" fill="#F53B5D"/>
<path d="M20.9475 88.6859L53.3053 73.7215C62.6945 69.3793 57.722 62.5689 51.8305 55.7197L51.6845 55.55C49.2345 52.7015 46.2854 49.2725 43.0777 46.5152C48.484 48.0666 53.6859 54.1147 57.5112 58.5625L57.6403 58.7125C62.8492 64.768 67.2455 70.7892 58.9442 74.6283L28.2438 88.8263C24.8537 90.3941 22.5592 90.1094 20.9475 88.6859Z" fill="#E0415E"/>
<path opacity="0.24" d="M23.5961 60.7076C25 60.0583 25.6121 58.3929 24.9634 56.9879C24.3147 55.5828 22.6508 54.9701 21.2469 55.6194C19.843 56.2686 19.2308 57.934 19.8795 59.339C20.5282 60.7441 22.1922 61.3568 23.5961 60.7076Z" fill="black"/>
<path opacity="0.24" d="M40.5643 52.8638C41.9682 52.2146 42.5804 50.5492 41.9317 49.1441C41.283 47.7391 39.619 47.1264 38.2152 47.7756C36.8113 48.4249 36.1991 50.0902 36.8478 51.4953C37.4965 52.9003 39.1604 53.5131 40.5643 52.8638Z" fill="black"/>
<path d="M23.2187 59.8909C24.1719 59.4501 24.5876 58.3194 24.1471 57.3654C23.7067 56.4114 22.5769 55.9954 21.6237 56.4362C20.6705 56.877 20.2549 58.0077 20.6953 58.9617C21.1358 59.9157 22.2655 60.3317 23.2187 59.8909Z" fill="#263238"/>
<path d="M40.1872 52.0472C41.1404 51.6063 41.556 50.4756 41.1156 49.5216C40.6751 48.5676 39.5454 48.1516 38.5922 48.5925C37.639 49.0333 37.2233 50.164 37.6638 51.118C38.1042 52.072 39.234 52.488 40.1872 52.0472Z" fill="#263238"/>
<path d="M39.5608 50.6909C39.3034 50.81 39.0092 50.8218 38.743 50.7238C38.4768 50.6258 38.2604 50.4259 38.1414 50.1682C36.5254 47.1653 34.6249 44.3246 32.4663 41.6853C29.8113 38.4987 26.0011 34.9918 22.9479 36.4038C17.32 39.0066 21.7734 54.212 23.1148 57.1175C23.2338 57.3752 23.2456 57.6697 23.1477 57.9361C23.0497 58.2025 22.8501 58.4191 22.5926 58.5382C22.3351 58.6572 22.0409 58.6691 21.7747 58.5711C21.5085 58.473 21.2921 58.2732 21.1732 58.0155C21.0865 57.8277 13.5478 38.3929 22.0507 34.4606C30.3004 30.6454 39.9964 49.0825 40.0831 49.2703C40.1427 49.3978 40.1764 49.5358 40.1824 49.6764C40.1884 49.8171 40.1665 49.9575 40.1179 50.0896C40.0694 50.2217 39.9951 50.3428 39.8995 50.446C39.8039 50.5492 39.6888 50.6325 39.5608 50.6909Z" fill="#F8778E"/>
<path fill-rule="evenodd" clip-rule="evenodd" d="M114.208 21.8535L116.146 18.4587L117.053 18.977L115.411 21.8534L120.921 21.8529L119.279 18.9768L120.186 18.4584L122.124 21.8528L122.865 21.8527C123.028 21.8527 123.181 21.929 123.281 22.0576C123.38 22.1872 123.413 22.3554 123.37 22.5122L121.909 27.8754C121.785 28.3301 121.37 28.6463 120.901 28.6463L115.433 28.6468C114.963 28.6468 114.548 28.3302 114.425 27.8766L112.963 22.5136C112.92 22.3568 112.953 22.1886 113.052 22.059C113.151 21.9299 113.304 21.8536 113.467 21.8536L114.208 21.8535ZM116.992 27.1443L120.125 25.1844L116.992 23.225L116.992 27.1443Z" fill="white"/>
<defs>
<clipPath id="clip0">
<rect x="43.0976" y="17.0703" width="26.2868" height="32.674" rx="2.66798" fill="white"/>
</clipPath>
</defs>
</svg>
