<svg width="32" height="32" viewBox="0 0 32 32" fill="none" xmlns="http://www.w3.org/2000/svg">
<path fill-rule="evenodd" clip-rule="evenodd" d="M18.9629 13.7678C18.0858 14.3539 17.0547 14.6667 15.9998 14.6667C14.5853 14.6667 13.2288 14.1048 12.2286 13.1046C11.2284 12.1044 10.6665 10.7478 10.6665 9.33334C10.6665 8.2785 10.9793 7.24736 11.5653 6.37029C12.1514 5.49323 12.9843 4.80965 13.9589 4.40598C14.9334 4.00231 16.0058 3.89669 17.0403 4.10248C18.0749 4.30827 19.0252 4.81622 19.7711 5.5621C20.517 6.30798 21.0249 7.25829 21.2307 8.29285C21.4365 9.32742 21.3309 10.3998 20.9272 11.3743C20.5235 12.3489 19.8399 13.1818 18.9629 13.7678ZM17.4814 7.11608C17.0428 6.82307 16.5273 6.66667 15.9998 6.66667C15.2926 6.66667 14.6143 6.94762 14.1142 7.44772C13.6141 7.94781 13.3332 8.62609 13.3332 9.33334C13.3332 9.86075 13.4896 10.3763 13.7826 10.8149C14.0756 11.2534 14.4921 11.5952 14.9793 11.797C15.4666 11.9988 16.0028 12.0517 16.5201 11.9488C17.0374 11.8459 17.5125 11.5919 17.8855 11.219C18.2584 10.846 18.5124 10.3709 18.6153 9.85358C18.7182 9.33629 18.6653 8.80012 18.4635 8.31285C18.2617 7.82558 17.9199 7.4091 17.4814 7.11608Z" fill="#393C47"/>
<path d="M9.40017 20.067C11.1505 18.3167 13.5245 17.3333 15.9998 17.3333C18.4752 17.3333 20.8492 18.3167 22.5995 20.067C24.3498 21.8173 25.3332 24.1913 25.3332 26.6667C25.3332 27.0203 25.1927 27.3594 24.9426 27.6095C24.6926 27.8595 24.3535 28 23.9998 28C23.6462 28 23.3071 27.8595 23.057 27.6095C22.807 27.3594 22.6665 27.0203 22.6665 26.6667C22.6665 24.8986 21.9641 23.2029 20.7139 21.9526C19.4636 20.7024 17.7679 20 15.9998 20C14.2317 20 12.536 20.7024 11.2858 21.9526C10.0355 23.2029 9.33317 24.8986 9.33317 26.6667C9.33317 27.0203 9.19269 27.3594 8.94265 27.6095C8.6926 27.8595 8.35346 28 7.99984 28C7.64622 28 7.30708 27.8595 7.05703 27.6095C6.80698 27.3594 6.6665 27.0203 6.6665 26.6667C6.6665 24.1913 7.64983 21.8173 9.40017 20.067Z" fill="#393C47"/>
</svg>
