<svg xmlns="http://www.w3.org/2000/svg" width="16" height="16" fill="none" viewBox="0 0 16 16">
    <path fill="#48DB84" d="M13.658 11.426l-2.71-2.464c-.266-.242-.677-.23-.927.029l-1.596 1.64c-.384-.073-1.156-.313-1.95-1.106-.795-.795-1.036-1.57-1.107-1.95l1.64-1.597c.258-.25.27-.66.028-.927L4.573 2.34c-.242-.267-.654-.292-.928-.057L2.2 3.524c-.116.116-.184.27-.194.433-.01.167-.2 4.115 2.86 7.177C7.538 13.804 10.883 14 11.804 14c.135 0 .218-.004.24-.006.163-.01.316-.078.432-.194l1.24-1.447c.236-.274.21-.685-.057-.927z"/>
</svg>
