<svg width="28" height="28" viewBox="0 0 28 28" fill="none" xmlns="http://www.w3.org/2000/svg">
<path d="M27.3332 3.33341C27.3332 1.86275 26.1372 0.666748 24.6665 0.666748H8.66654C7.19588 0.666748 5.99988 1.86275 5.99988 3.33341H21.9999C23.4705 3.33341 24.6665 4.52941 24.6665 6.00008V16.6667C26.1372 16.6667 27.3332 15.4707 27.3332 14.0001V3.33341Z" fill="#393C47"/>
<path fill-rule="evenodd" clip-rule="evenodd" d="M0.666504 19.3333C0.666504 20.804 1.8625 22 3.33317 22H5.99984V27.4413L12.8012 22H19.3332C20.8038 22 21.9998 20.804 21.9998 19.3333V8.66667C21.9998 7.196 20.8038 6 19.3332 6H3.33317C1.8625 6 0.666504 7.196 0.666504 8.66667V19.3333ZM15.2 14L8.19995 18V10L15.2 14Z" fill="#393C47"/>
</svg>
