<svg xmlns="http://www.w3.org/2000/svg" width="41" height="40" fill="none" viewBox="0 0 41 40">
    <path fill="#fff" d="M32.97 13.62c-.643-2.715-2.14-5.148-4.27-6.938v.914l-.148 9.149c-.155 4.402-3.355 7.558-7.212 8.098-2.116.306-4.27-.213-6.018-1.45-1.75-1.237-2.962-3.1-3.39-5.206-.958-4.656 2.218-9.271 6.896-10.007 1.354-.22 2.74-.096 4.034.361.258.09.36.042.46-.21.466-1.168.954-2.328 1.43-3.49.046-.114.1-.225.161-.33-2.054-.739-4.26-.944-6.415-.597-7.504 1.172-12.288 8.788-10.233 16.14 1.28 4.58 2.413 9.2 3.57 13.813.524 2.094 2.841 3.058 4.635 1.862 1.003-.668 1.373-1.67 1.55-2.804.188-1.219.431-2.43.658-3.68.696.045 1.31.123 1.921.114.616-.017 1.23-.072 1.84-.165 7.292-1 12.282-8.382 10.532-15.575z"/>
</svg>
