<svg width="179" height="88" viewBox="0 0 179 88" fill="none" xmlns="http://www.w3.org/2000/svg">
<g clip-path="url(#clip0)">
<path d="M168.8 0.0151309C173.84 -0.054017 178.068 4.09992 178.095 9.12242C178.112 14.2073 173.965 18.4135 168.849 18.4945C163.873 18.5754 159.67 14.4468 159.491 9.48334C159.296 4.04764 164.095 -0.293505 168.8 0.0151309Z" fill="white"/>
<path d="M153.93 39.4649C153.485 52.0363 144.298 61.0525 133.226 62.6007C127.149 63.4744 120.968 61.9912 115.947 58.4546C110.927 54.918 107.446 49.5952 106.217 43.575C103.468 30.2699 112.583 17.0778 126.016 14.973C129.901 14.3377 133.883 14.6897 137.596 15.9967C138.337 16.2565 138.629 16.1131 138.917 15.393C139.798 13.1928 140.706 11.0036 141.614 8.81424L141.615 8.81136L141.617 8.80658C142.086 7.6773 142.554 6.54799 143.019 5.41711C143.872 3.34436 145.353 2.01368 147.569 1.53808C151.097 0.770709 154.442 3.56192 154.377 7.17111C154.352 8.53495 154.36 9.89879 154.369 11.2626L154.369 11.2675C154.373 11.9478 154.377 12.6281 154.377 13.3084L153.93 39.4649Z" fill="white"/>
<path d="M101.109 39.4041C101.308 51.9991 91.1398 63.5215 77.0721 63.5468C63.7358 63.5772 53.0081 52.7665 52.9744 39.5239C52.9407 26.2812 63.7594 15.3862 76.9525 15.366C80.1178 15.3493 83.2552 15.9587 86.1845 17.1591C89.1139 18.3595 91.7774 20.1273 94.022 22.361C96.2667 24.5946 98.0483 27.2501 99.2645 30.1749C100.481 33.0997 101.108 36.2361 101.109 39.4041Z" fill="white"/>
<path d="M159.505 37.7536C159.507 39.0466 159.508 40.339 159.508 41.6304L159.515 53.6014C159.476 55.9743 160.308 58.0285 161.886 59.7657C164.51 62.6547 168.52 63.6312 172.042 62.282C173.806 61.6179 175.325 60.4316 176.398 58.8814C177.47 57.3311 178.045 55.4905 178.046 53.6048C178.062 51.2266 178.057 48.8485 178.051 46.4708V46.4701C178.049 45.2817 178.046 44.0935 178.046 42.9054C178.046 41.458 178.045 40.0104 178.044 38.5627C178.042 35.6669 178.04 32.7705 178.046 29.8752C178.051 27.2662 177.136 25.0113 175.264 23.237C172.308 20.4357 168.778 19.7543 165.086 21.365C161.446 22.952 159.523 25.9203 159.508 29.9781C159.499 32.5665 159.502 35.1571 159.505 37.7455V37.7536Z" fill="white"/>
<path d="M20.169 65.4396L20.1689 65.4404C19.8644 67.0597 19.5642 68.6558 19.3153 70.2593C18.9782 72.3961 18.2856 74.28 16.3898 75.5381C13.0027 77.7846 8.62801 75.9733 7.6405 72.0369C7.38367 71.0137 7.12735 69.9903 6.87103 68.9669L6.87022 68.9636C4.95389 61.3124 3.03698 53.6588 0.899887 46.0643C-2.97597 32.2516 6.05478 17.9312 20.2202 15.7201C32.8588 13.7469 44.5033 21.5201 47.545 33.9701C50.8479 47.4877 41.4262 61.3611 27.6601 63.245C26.5092 63.4183 25.3488 63.5214 24.1854 63.5536C23.3846 63.5734 22.5838 63.5063 21.7341 63.4352C21.3537 63.4033 20.9634 63.3706 20.5589 63.3445C20.4306 64.0487 20.2994 64.7463 20.169 65.4396Z" fill="white"/>
<path d="M9.88512 84.0045C9.87518 82.9506 10.2817 81.9354 11.0162 81.1801C11.7507 80.4248 12.7536 79.9906 13.8065 79.9719C15.9567 79.9348 17.8508 81.7395 17.898 83.8595C17.9081 84.3982 17.811 84.9335 17.6125 85.4343C17.414 85.9352 17.1179 86.3915 16.7416 86.7768C16.3652 87.162 15.9161 87.4686 15.4203 87.6786C14.9246 87.8886 14.392 87.9978 13.8537 88C12.7995 87.992 11.7912 87.5677 11.048 86.8195C10.3048 86.0712 9.88687 85.0595 9.88512 84.0045Z" fill="white"/>
</g>
<defs>
<clipPath id="clip0">
<rect width="178.095" height="88" fill="white"/>
</clipPath>
</defs>
</svg>
