<svg width="72" height="44" viewBox="0 0 72 44" fill="none" xmlns="http://www.w3.org/2000/svg">
<path d="M68.2445 0.00561665C70.3001 -0.0331789 72 1.63503 72 3.61361C72 5.63098 70.3397 7.29919 68.2445 7.33798C66.2284 7.37678 64.5285 5.74736 64.4494 3.76879C64.4099 1.59624 66.347 -0.11077 68.2445 0.00561665Z" fill="white"/>
<path d="M62.2356 15.6405C62.0379 20.6451 58.322 24.2143 53.8549 24.835C48.7157 25.5334 43.9719 22.2357 42.9441 17.3087C41.8372 12.0325 45.5137 6.79508 50.9295 5.98038C52.5108 5.7476 54.0921 5.86399 55.5943 6.36833C55.9105 6.48472 56.0291 6.40713 56.1477 6.13556L57.808 2.17841C58.1638 1.3637 58.7568 0.820563 59.6265 0.626585C61.0496 0.316221 62.3937 1.44129 62.3937 2.87673V5.32085L62.2356 15.6405Z" fill="white"/>
<path d="M50.3366 27.8608C51.1272 27.8608 51.7202 28.4816 51.7202 29.2187C51.7202 29.9946 51.0877 30.6153 50.3366 30.6153C49.5459 30.6153 48.9134 29.9946 48.9134 29.2187C48.9134 28.4428 49.5064 27.8608 50.3366 27.8608Z" fill="white"/>
<path d="M51.5225 31.5464V40.4306H49.1506V31.5464H51.5225Z" fill="white"/>
<path fill-rule="evenodd" clip-rule="evenodd" d="M42.5093 31.43C40.0188 31.3524 37.805 33.5249 37.8445 36.0078C37.7655 38.452 39.9793 40.6245 42.5093 40.5469C45.0393 40.6245 47.2136 38.452 47.174 35.969V27.9771H44.8021V32.0895C44.1696 31.6627 43.379 31.43 42.5093 31.43ZM42.5093 38.3356C41.8373 38.3356 41.2838 38.1028 40.849 37.676C40.4141 37.2105 40.1769 36.6674 40.2165 36.0078C40.2165 35.3483 40.4141 34.7664 40.849 34.3396C41.2838 33.9129 41.8373 33.6801 42.5093 33.6801C43.1813 33.6801 43.7348 33.9129 44.1696 34.3396C44.6045 34.8052 44.8417 35.3483 44.8417 36.0078C44.8417 36.6674 44.6045 37.2493 44.1696 37.676C43.7348 38.1028 43.1813 38.3356 42.5093 38.3356Z" fill="white"/>
<path fill-rule="evenodd" clip-rule="evenodd" d="M36.6191 35.814C36.6191 36.2019 36.6191 36.551 36.54 36.9002H29.8196C30.0568 37.7537 30.8079 38.3356 31.8753 38.3356C32.6264 38.3356 33.0612 38.1028 33.417 37.8313H36.2238C35.4727 39.4607 33.8123 40.5858 31.9148 40.5858C29.3452 40.6246 27.171 38.4908 27.2501 36.0079C27.2105 33.5638 29.3452 31.3524 31.8357 31.3912C34.2076 31.3912 36.54 33.0983 36.6191 35.814ZM34.089 35.038C33.7333 34.1845 32.8636 33.6414 31.9543 33.6414C30.9265 33.6414 30.2149 34.1845 29.8196 35.038H34.089Z" fill="white"/>
<path fill-rule="evenodd" clip-rule="evenodd" d="M26.064 36.0081C26.1036 38.491 23.8898 40.6636 21.3993 40.586C20.5296 40.586 19.739 40.3532 19.1065 39.9265V44H16.7345V36.0081C16.695 33.5252 18.8693 31.3526 21.3993 31.4302C23.8898 31.3526 26.1036 33.5252 26.064 36.0081ZM23.0596 34.3399C22.6248 33.9132 22.0713 33.6804 21.3993 33.6804C20.7273 33.6804 20.1738 33.9132 19.739 34.3399C19.3041 34.7667 19.0669 35.3486 19.0669 36.0081C19.0669 36.6676 19.2646 37.2496 19.739 37.6763C20.1738 38.1031 20.7273 38.3358 21.3993 38.3358C22.0713 38.3358 22.6248 38.1031 23.0596 37.6763C23.4945 37.2496 23.6921 36.6676 23.6921 36.0081C23.7317 35.3486 23.4945 34.7667 23.0596 34.3399Z" fill="white"/>
<path d="M57.3337 31.5078C55.0013 31.5078 53.4596 32.9432 53.4596 35.7753V40.4308H55.8315V35.7365C55.8315 34.3787 56.3454 33.7579 57.3732 33.7579H57.4523V31.5078H57.3337Z" fill="white"/>
<path d="M8.05732 26.4838C8.14627 26.028 8.23521 25.5721 8.31427 25.1066C8.52776 25.1215 8.7236 25.1423 8.91088 25.1621C9.20908 25.1937 9.48556 25.223 9.77695 25.223C10.2513 25.223 10.7257 25.1842 11.2001 25.1066C16.7345 24.3695 20.5691 18.8605 19.225 13.5067C17.9996 8.54086 13.2953 5.47601 8.19568 6.25192C2.46357 7.10542 -1.21288 12.8084 0.368391 18.2786C1.35668 21.6926 2.22638 25.1066 3.09608 28.5594C3.4914 30.1112 5.2308 30.8483 6.61441 29.956C7.36551 29.4517 7.68177 28.7146 7.80036 27.8611C7.87943 27.3955 7.96837 26.9397 8.05732 26.4838Z" fill="white"/>
<path d="M40.8885 15.6404C40.9675 20.645 36.8562 25.1841 31.1637 25.2229C25.7873 25.2229 21.4388 20.9554 21.4388 15.6792C21.4388 10.4418 25.7873 6.09667 31.1241 6.09667C36.54 6.09667 40.8885 10.3254 40.8885 15.6404Z" fill="white"/>
<path d="M64.489 11.8773V21.227C64.4494 22.1581 64.8052 22.9728 65.4377 23.6712C66.5051 24.835 68.1259 25.223 69.549 24.6798C71.0117 24.1367 71.9605 22.7789 71.9605 21.227V11.8385C71.9605 10.791 71.6047 9.89872 70.8536 9.2004C69.6676 8.11413 68.2445 7.84256 66.7423 8.46329C65.2796 9.08402 64.489 10.2867 64.489 11.8773Z" fill="white"/>
<path d="M5.58666 31.7018C4.71696 31.7018 4.00539 32.4001 4.00539 33.2924C4.00539 34.1847 4.71696 34.883 5.62619 34.883C6.53542 34.883 7.24699 34.1459 7.24699 33.2536C7.20746 32.4001 6.45636 31.7018 5.58666 31.7018Z" fill="white"/>
</svg>
