<svg width="56" height="56" viewBox="0 0 56 56" fill="none" xmlns="http://www.w3.org/2000/svg">
<path d="M40.9231 30.1543C39.7335 30.1543 38.7692 31.1186 38.7692 32.3081V38.7697H32.3077C31.1182 38.7697 30.1538 39.734 30.1538 40.9235V43.0774C30.1538 44.2669 31.1181 45.2312 32.3077 45.2312H43.0769C44.2665 45.2312 45.2308 44.2669 45.2308 43.0774V32.3081C45.2308 31.1186 44.2665 30.1543 43.0769 30.1543H40.9231Z" fill="#A3EDC1"/>
<path d="M30.1538 32.3081C30.1538 31.1186 31.1182 30.1543 32.3077 30.1543H34.4615C35.6511 30.1543 36.6154 31.1186 36.6154 32.3081V34.462C36.6154 35.6515 35.6511 36.6158 34.4615 36.6158H32.3077C31.1181 36.6158 30.1538 35.6515 30.1538 34.462V32.3081Z" fill="#A3EDC1"/>
<path d="M12.9231 30.1543C11.7335 30.1543 10.7692 31.1186 10.7692 32.3081V43.0774C10.7692 44.2669 11.7335 45.2312 12.9231 45.2312H23.6923C24.8818 45.2312 25.8461 44.2669 25.8461 43.0774V32.3081C25.8461 31.1186 24.8818 30.1543 23.6923 30.1543H12.9231Z" fill="#48DB84"/>
<path d="M30.1538 12.9234C30.1538 11.7338 31.1182 10.7695 32.3077 10.7695H43.0769C44.2665 10.7695 45.2308 11.7338 45.2308 12.9234V23.6926C45.2308 24.8821 44.2665 25.8465 43.0769 25.8465H32.3077C31.1181 25.8465 30.1538 24.8821 30.1538 23.6926V12.9234Z" fill="#48DB84"/>
<path fill-rule="evenodd" clip-rule="evenodd" d="M12.9231 10.7695C11.7335 10.7695 10.7692 11.7338 10.7692 12.9234V23.6926C10.7692 24.8821 11.7335 25.8465 12.9231 25.8465H23.6923C24.8818 25.8465 25.8461 24.8821 25.8461 23.6926V12.9234C25.8461 11.7338 24.8818 10.7695 23.6923 10.7695H12.9231ZM16.1538 15.0772C15.5591 15.0772 15.0769 15.5594 15.0769 16.1541V20.4618C15.0769 21.0566 15.5591 21.5388 16.1538 21.5388H20.4615C21.0563 21.5388 21.5385 21.0566 21.5385 20.4618V16.1541C21.5385 15.5594 21.0563 15.0772 20.4615 15.0772H16.1538Z" fill="#A3EDC1"/>
<path d="M17.2308 2.15385C17.2308 0.964309 16.2665 0 15.0769 0H6.46154C2.89293 0 0 2.89293 0 6.46154V15.0769C0 16.2665 0.964312 17.2308 2.15385 17.2308H3.66154C4.85108 17.2308 5.81538 16.2665 5.81538 15.0769V6.46154C5.81538 6.10468 6.10468 5.81538 6.46154 5.81538H15.0769C16.2665 5.81538 17.2308 4.85107 17.2308 3.66154V2.15385Z" fill="#393C47"/>
<path d="M40.9231 5.81538C39.7335 5.81538 38.7692 4.85108 38.7692 3.66154V2.15385C38.7692 0.964312 39.7335 0 40.9231 0H49.5385C53.1071 0 56 2.89293 56 6.46154V15.0769C56 16.2665 55.0357 17.2308 53.8462 17.2308H52.3385C51.1489 17.2308 50.1846 16.2665 50.1846 15.0769V6.46154C50.1846 6.10468 49.8953 5.81538 49.5385 5.81538H40.9231Z" fill="#393C47"/>
<path d="M38.7692 52.3385C38.7692 51.1489 39.7335 50.1846 40.9231 50.1846H49.5385C49.8953 50.1846 50.1846 49.8953 50.1846 49.5385V40.9231C50.1846 39.7335 51.1489 38.7692 52.3385 38.7692H53.8462C55.0357 38.7692 56 39.7335 56 40.9231V49.5385C56 53.1071 53.1071 56 49.5385 56H40.9231C39.7335 56 38.7692 55.0357 38.7692 53.8462V52.3385Z" fill="#393C47"/>
<path d="M3.66154 38.7692C4.85107 38.7692 5.81538 39.7335 5.81538 40.9231V49.5385C5.81538 49.8953 6.10468 50.1846 6.46154 50.1846H15.0769C16.2665 50.1846 17.2308 51.1489 17.2308 52.3385V53.8462C17.2308 55.0357 16.2665 56 15.0769 56H6.46154C2.89293 56 0 53.1071 0 49.5385V40.9231C0 39.7335 0.964309 38.7692 2.15385 38.7692H3.66154Z" fill="#393C47"/>
</svg>
