<svg width="27" height="27" viewBox="0 0 27 27" fill="none" xmlns="http://www.w3.org/2000/svg">
<path fill-rule="evenodd" clip-rule="evenodd" d="M2.6875 1.28125L3.25 0.75L3.90625 1.15625L7.40625 3.25L7.90625 3.53125V5.78495L12.2301 10.1088C12.3497 9.98606 12.4609 9.87052 12.5697 9.75751C12.7619 9.55783 12.9465 9.36602 13.1562 9.15625C13.1427 9.07981 13.1282 9.00386 13.1137 8.92784C13.057 8.63088 13 8.33277 13 8C13 4.15625 16.1562 1 20 1C21.0469 1 21.9766 1.25 22.7812 1.59375L24.1562 2.15625L19.4062 6.90625L20.8125 8.375L25.4688 3.71875L26.1562 4.78125C26.7539 5.73828 27.0039 6.84375 26.9062 8V8.03125C26.9062 8.03762 26.9067 8.04441 26.9071 8.05134C26.908 8.06566 26.9089 8.08059 26.9062 8.09375H26.875C26.8242 11.6758 24.0742 14.6406 20.5625 14.9688L25.7812 20.1562L25.8125 20.1875C27.3906 21.668 27.375 24.2148 25.8438 25.7812H25.8125V25.8125C24.3477 27.375 21.8516 27.3555 20.2812 25.875L20.1875 25.8125L14 19.5938L7.84375 25.7812L7.8125 25.8125C6.32812 27.3945 3.78125 27.3555 2.21875 25.8125C0.617188 24.3203 0.621094 21.7539 2.1875 20.1875C2.34237 20.0326 6.59927 15.7611 10.112 12.2333L5.78491 7.90625H3.53125L3.25 7.40625L1.15625 3.90625L0.75 3.25L1.28125 2.6875L2.6875 1.28125ZM24.4062 21.5938L18.1875 15.4062L15.4062 18.1875L21.5938 24.4062C22.4219 25.2344 23.6641 25.2148 24.375 24.4375V24.4062H24.4062C25.2344 23.5781 25.2148 22.3359 24.4375 21.625H24.4062V21.5938Z" fill="#393C47"/>
</svg>
