<svg width="130" height="160" viewBox="0 0 130 160" fill="none" xmlns="http://www.w3.org/2000/svg">
<path d="M104.361 62.5794L89.4546 52.0469L95.776 45.3867L109.043 58.165L104.361 62.5794Z" fill="#FD88D0"/>
<path d="M2.52159 131.646L8.83887 139.324L28.3042 123.554L21.9869 115.876L2.52159 131.646Z" fill="#FD88D0"/>
<path d="M0.956543 132.896L11.9604 146.294C14.5358 144.203 14.926 140.408 12.8189 137.853L5.63905 129.102L0.956543 132.896Z" fill="#FFC24D"/>
<path d="M-5.5278e-06 133.658L11.0059 147.035L11.9126 146.301L0.906762 132.923L-5.5278e-06 133.658Z" fill="#333333"/>
<path d="M2.54405 131.62L8.86133 139.299L13.2743 135.724L6.957 128.045L2.54405 131.62Z" fill="#FFC24D"/>
<path fill-rule="evenodd" clip-rule="evenodd" d="M10.0568 133.767C10.1318 133.708 10.2408 133.72 10.3004 133.795L12.4084 136.428C12.468 136.502 12.4555 136.61 12.3805 136.669C12.3055 136.728 12.1964 136.716 12.1369 136.642L10.0288 134.008C9.96927 133.934 9.98179 133.826 10.0568 133.767Z" fill="black"/>
<path fill-rule="evenodd" clip-rule="evenodd" d="M9.03966 134.621C9.11377 134.561 9.223 134.572 9.28363 134.645L11.3917 137.201C11.4523 137.274 11.4414 137.383 11.3673 137.443C11.2932 137.503 11.184 137.492 11.1233 137.419L9.01527 134.863C8.95464 134.789 8.96556 134.681 9.03966 134.621Z" fill="black"/>
<path d="M60.7431 156.728L70.7324 156.728L70.7325 131.79L60.7432 131.79L60.7431 156.728Z" fill="#FD88D0"/>
<path d="M60.6577 158.763H78.0611C78.0611 155.433 75.3296 152.723 71.9738 152.723H60.6577V158.763Z" fill="#FFC24D"/>
<path d="M60.7285 159.999L78.1318 159.999L78.1318 158.837L60.7285 158.837L60.7285 159.999Z" fill="#333333"/>
<path d="M60.7435 156.737L70.7329 156.737L70.7329 151.084L60.7435 151.084L60.7435 156.737Z" fill="#FFC24D"/>
<path fill-rule="evenodd" clip-rule="evenodd" d="M67.1943 152.336C67.1943 152.241 67.2719 152.164 67.3676 152.164H70.7234C70.8191 152.164 70.8967 152.241 70.8967 152.336C70.8967 152.431 70.8191 152.508 70.7234 152.508H67.3676C67.2719 152.508 67.1943 152.431 67.1943 152.336Z" fill="black"/>
<path fill-rule="evenodd" clip-rule="evenodd" d="M67.1943 153.65C67.1943 153.556 67.2719 153.479 67.3676 153.479H70.7234C70.8191 153.479 70.8967 153.556 70.8967 153.65C70.8967 153.745 70.8191 153.822 70.7234 153.822H67.3676C67.2719 153.822 67.1943 153.745 67.1943 153.65Z" fill="black"/>
<path d="M53.1658 13.3216C53.9462 10.3013 55.1168 5.80951 56.9118 2.24707C59.0189 2.4794 59.8774 2.01474 61.9845 2.55685C61.7504 10.3013 64.5599 17.9683 65.7305 25.6353C65.8086 25.8676 65.6525 26.2548 65.3403 26.3323C63.1551 26.642 60.8919 26.9518 58.7068 27.2616C58.3946 27.339 58.0044 27.1067 58.0044 26.7195C58.0044 23.157 58.0824 19.5946 58.2385 15.9547C57.5361 19.4397 57.302 23.0021 57.1459 26.5646C57.1459 26.9518 56.8338 27.1841 56.4436 27.1067C54.1803 26.642 51.8391 27.0292 51.4489 24.4736C50.9026 20.7563 52.3073 16.8066 53.1658 13.3216Z" fill="black"/>
<path d="M116.38 70.4804H115.444V64.6721C115.444 60.7999 112.244 57.6246 108.342 57.6246C104.44 57.6246 101.24 60.7999 101.24 64.6721V70.4804H100.304V64.6721C100.304 60.2578 103.894 56.6953 108.342 56.6953C112.79 56.6953 116.38 60.2578 116.38 64.6721V70.4804Z" fill="#17171D"/>
<path d="M126.057 105.56H87.9727L93.4356 67.2246H120.594L126.057 105.56Z" fill="#FD88D0"/>
<path d="M129.649 105.56H91.6426L97.0275 67.2246H124.264L129.649 105.56Z" fill="#FD88D0"/>
<path d="M104.286 70.4767C104.286 69.7023 103.661 69.1602 102.959 69.1602C102.178 69.1602 101.631 69.7797 101.631 70.4767C101.631 71.2512 102.256 71.7933 102.959 71.7933C103.739 71.8707 104.286 71.2512 104.286 70.4767Z" fill="#17171D"/>
<path d="M119.035 70.4767C119.035 69.7023 118.41 69.1602 117.707 69.1602C116.926 69.1602 116.38 69.7797 116.38 70.4767C116.38 71.2512 117.004 71.7933 117.707 71.7933C118.41 71.8707 119.035 71.2512 119.035 70.4767Z" fill="#17171D"/>
<path d="M118.563 70.4804H117.627V64.6721C117.627 60.7999 114.427 57.6246 110.525 57.6246C106.623 57.6246 103.423 60.7999 103.423 64.6721V70.4804H102.487V64.6721C102.487 60.2578 106.077 56.6953 110.525 56.6953C114.974 56.6953 118.563 60.2578 118.563 64.6721V70.4804Z" fill="#17171D"/>
<path d="M48.0925 65.7531C47.9364 69.7802 48.4827 75.1239 49.3412 81.1645C51.9165 99.4414 47.9364 145.831 60.189 150.013C60.4231 150.09 71.2709 150.09 71.6611 149.935C87.0354 143.12 76.3436 111.987 75.9534 100.603C75.4852 86.4307 76.4217 53.5169 76.1095 53.4395C62.2181 56.2274 48.7949 51.5808 48.0925 65.7531Z" fill="black"/>
<path d="M58.6291 14.8711C61.6727 12.4703 78.6078 27.3396 84.3049 36.0908C94.9186 52.5864 80.871 51.6571 78.2176 50.1857C75.4861 48.7142 52.4638 19.8275 58.6291 14.8711Z" fill="#00A8FF"/>
<path d="M108.654 49.2598C100.928 44.1484 89.2214 40.9732 84.2267 36.0942C80.0905 32.0671 74.1593 45.5424 75.0958 47.2462C76.0323 48.95 89.1433 60.2569 98.5864 62.5027C98.6644 62.5027 110.215 50.2665 108.654 49.2598Z" fill="#00A8FF"/>
<path d="M51.6041 104.787C43.4878 104.555 36.2299 102.464 28.8159 99.2111C31.0791 90.6922 31.8595 80.9342 33.2643 74.1191C34.513 68.1559 35.7616 62.8897 37.3225 59.1724C42.7074 46.0068 49.1068 54.1385 63.0763 56.2295C64.481 63.2769 51.8383 104.013 51.6041 104.787Z" fill="#212121"/>
<path d="M32.4838 94.7197C37.4785 100.993 44.5022 100.838 51.526 104.787C44.8144 114.545 26.8648 138.631 15.0024 134.991C14.6122 134.913 7.97864 126.549 7.9006 126.24C6.0276 117.876 22.6505 105.175 32.4838 94.7197Z" fill="#212121"/>
<path fill-rule="evenodd" clip-rule="evenodd" d="M63.043 55.9808C63.1369 55.9625 63.2279 56.0233 63.2463 56.1165C63.4275 57.0357 63.3802 58.4749 63.1683 60.2731C62.9558 62.0771 62.5752 64.2611 62.0791 66.68C61.0867 71.518 59.6297 77.306 58.1221 82.8929C55.3005 93.35 52.2994 103.112 51.83 104.638C51.7978 104.743 51.7776 104.809 51.7701 104.834C51.7648 104.851 51.7569 104.868 51.7466 104.882C51.5708 105.134 51.3887 105.396 51.2006 105.667C49.8864 107.558 48.2706 109.882 46.356 112.325C46.2972 112.4 46.1884 112.413 46.1128 112.355C46.0373 112.297 46.0237 112.189 46.0824 112.114C47.9906 109.679 49.6005 107.363 50.9149 105.472C51.0977 105.209 51.2747 104.955 51.4461 104.709C51.4565 104.675 51.4741 104.618 51.4984 104.539C51.9687 103.009 54.9677 93.2538 57.7873 82.804C59.2942 77.2196 60.7491 71.4393 61.7395 66.6114C62.2347 64.1972 62.6132 62.0237 62.8241 60.2332C63.0357 58.4369 63.0761 57.0446 62.9062 56.1826C62.8878 56.0893 62.949 55.999 63.043 55.9808Z" fill="white"/>
<path d="M33.8101 61.6518C33.8101 61.6518 40.3656 18.6702 50.1208 14.6431C58.0811 11.313 65.417 13.6363 66.8998 22.0003C68.2265 29.6673 72.2847 40.9741 73.8455 44.8464C75.3283 48.7186 79.6206 55.6886 79.6206 55.6886C79.6206 55.6886 53.5546 65.524 33.8101 61.6518Z" fill="#00A8FF"/>
<path d="M50.9017 14.3296C54.5697 15.4913 53.5551 37.9501 48.6385 47.0886C43.7219 56.227 31.0791 55.4525 30.845 52.3548C30.5328 49.3344 43.3317 12.0063 50.9017 14.3296Z" fill="#00A8FF"/>
<path d="M72.4423 70.4033H71.5058V64.5949C71.5058 60.7227 68.3061 57.5475 64.404 57.5475C60.5019 57.5475 57.3022 60.7227 57.3022 64.5949V70.4033H56.3657V64.5949C56.3657 60.1806 59.9556 56.6182 64.404 56.6182C68.8524 56.6182 72.4423 60.1806 72.4423 64.5949V70.4033Z" fill="#17171D"/>
<path d="M82.1191 98.6686H44.0347L49.4976 67.0713H76.6561L82.1191 98.6686Z" fill="#FFC24D"/>
<path d="M85.71 98.6686H47.7036L53.0885 67.0713H80.3251L85.71 98.6686Z" fill="#FFC24D"/>
<path d="M60.3446 70.3996C60.3446 69.6251 59.7199 69.083 59.0172 69.083C58.2365 69.083 57.6899 69.7026 57.6899 70.3996C57.6899 71.174 58.3146 71.7161 59.0172 71.7161C59.798 71.7161 60.3446 71.0966 60.3446 70.3996Z" fill="#17171D"/>
<path d="M75.0965 70.3996C75.0965 69.6251 74.4719 69.083 73.7692 69.083C72.9884 69.083 72.4419 69.7026 72.4419 70.3996C72.4419 71.174 73.0665 71.7161 73.7692 71.7161C74.4719 71.7161 75.0965 71.0966 75.0965 70.3996Z" fill="#17171D"/>
<path d="M74.6255 70.4033H73.689V64.5949C73.689 60.7227 70.4892 57.5475 66.5871 57.5475C62.6851 57.5475 59.4853 60.7227 59.4853 64.5949V70.4033H58.5488V64.5949C58.5488 60.1806 62.1388 56.6182 66.5871 56.6182C71.0355 56.6182 74.6255 60.1806 74.6255 64.5949V70.4033Z" fill="#17171D"/>
<path d="M57.6143 58.7059L61.7505 53.9043L66.433 56.6148L68.5401 58.7059L62.4528 63.0427L57.6143 58.7059Z" fill="#FD88D0"/>
<path d="M62.4521 63.0432C62.4521 63.0432 63.1545 63.353 63.6228 63.1207C64.091 62.8109 64.013 62.1913 64.013 62.1913C64.013 62.1913 64.6373 62.5011 65.0275 62.1913C65.4177 61.8816 65.4958 61.1071 65.4958 61.1071C65.4958 61.1071 66.1201 61.4943 66.6664 61.1071C67.2127 60.7199 66.9786 60.1003 66.9786 60.1003C66.9786 60.1003 67.681 60.3327 68.1492 59.9455C68.5394 59.6357 68.8516 58.9387 68.5394 58.6289L63.9349 59.171L62.4521 63.0432Z" fill="#FD88D0"/>
<path d="M61.7495 53.9043L69.6317 55.1434C70.1 55.2209 70.4121 55.6081 70.2561 56.0727C70.178 56.46 69.7878 56.7697 69.3976 56.6923L65.4955 56.3051L61.7495 53.9043Z" fill="#FD88D0"/>
<path d="M64.7174 53.3612C56.7571 48.6371 46.2995 47.0882 40.8366 45.3069C35.2956 43.5257 30.1448 51.3476 31.2374 53.0514C32.252 54.6777 45.9093 65.365 55.4304 67.1462C55.4304 67.1462 66.3563 54.3679 64.7174 53.3612Z" fill="#00A8FF"/>
<path d="M61.984 8.75469C61.984 8.75469 60.5013 13.4013 60.3452 14.4081C60.2671 14.7179 55.8968 14.3307 55.2725 13.7886C55.7407 12.5495 56.7552 11.0006 57.1455 8.83213C57.6137 6.58624 61.984 8.75469 61.984 8.75469Z" fill="#FD88D0"/>
<path d="M55.5845 5.11573C55.5845 5.11573 57.4575 10.9241 61.2035 10.5368C65.0276 10.1496 61.5157 2.25029 60.8913 2.09541C60.345 1.94052 56.521 1.63074 55.5845 5.11573Z" fill="#FD88D0"/>
<path d="M58.55 0.158557C60.8912 -0.306109 63.7788 0.158559 64.169 2.79167C64.247 3.10144 64.0909 3.41122 63.7788 3.48866C61.9058 3.95333 59.9547 4.03078 58.0817 3.721C58.0817 4.03078 58.0037 4.34055 58.0037 4.72778C57.8476 5.50222 57.7695 6.74133 57.1452 7.28344C55.8965 8.36766 54.6479 6.50899 54.4137 5.42477C53.7114 2.63678 55.9746 0.313446 58.55 0.158557Z" fill="black"/>
<path d="M45.5192 28.6587C45.8314 31.2143 48.1726 30.9046 50.5139 31.2918C50.9041 31.3692 51.2163 31.1369 51.2163 30.7497C51.3723 27.1872 51.6065 23.6248 52.3088 20.1398C52.2308 23.7022 52.0747 27.2647 52.0747 30.9046C52.0747 31.2918 52.4649 31.4467 52.7771 31.4467C54.9623 31.1369 57.2255 30.8271 59.4106 30.5173C59.7228 30.4399 59.8009 30.1301 59.8009 29.8203C58.6302 22.1534 57.0694 15.1834 57.3816 7.3615C57.3816 7.12917 56.9914 6.04495 56.8353 5.9675C56.9133 4.34117 57.5376 3.02462 57.0694 1.47573C56.9914 1.08851 58.8644 0.15918 58.4741 0.15918C51.6845 0.314068 48.797 11.6209 47.2361 17.5842C46.4557 21.0691 45.0509 25.0188 45.5192 28.6587Z" fill="black"/>
<path d="M57.6928 5.89194C57.6928 5.89194 56.9901 4.88517 55.9751 5.19494C54.9601 5.50472 55.0381 7.98294 56.8339 7.98294C58.6297 7.9055 57.6928 5.89194 57.6928 5.89194Z" fill="#FD88D0"/>
<path d="M57.2244 7.43785C57.0682 7.28296 56.7559 7.51529 56.912 7.74762C57.2244 7.97996 57.6147 8.7544 57.1463 8.98674C56.6778 9.21907 55.819 8.59951 56.2874 8.13485C56.4436 7.97996 56.1313 7.67018 55.9751 7.82507C55.3505 8.59951 56.2094 9.52885 57.0682 9.37396C58.1613 9.29651 57.849 7.97996 57.2244 7.43785Z" fill="#FFC24D"/>
<path d="M44.3459 29.2804H44.0337C44.658 19.0577 49.1064 6.4343 52.3061 2.9493C54.023 1.09064 55.74 0.471082 56.9106 0.238749C58.1593 0.00641581 59.0177 0.316192 59.0177 0.316192L58.9397 0.548524C58.9397 0.548524 55.74 -0.380808 52.5403 3.10419C49.3405 6.58918 44.9702 19.1352 44.3459 29.2804Z" fill="black"/>
<path fill-rule="evenodd" clip-rule="evenodd" d="M52.6413 32.517C52.7362 32.5292 52.8032 32.6153 52.791 32.7095C52.0879 38.1365 50.7583 43.5811 48.8711 47.0937C48.8475 47.1408 48.8333 47.1766 48.8193 47.2131C53.9224 48.5224 59.8572 50.2255 64.8828 53.2178C64.8863 53.2199 64.8897 53.222 64.8931 53.2244C65.0559 53.3374 65.1098 53.522 65.1087 53.7117C65.1077 53.9005 65.0533 54.1251 64.9641 54.372C64.7849 54.868 64.4458 55.5044 64.0053 56.2232C63.1225 57.6638 61.8109 59.4701 60.4836 61.2133C60.4259 61.2891 60.3172 61.3041 60.2408 61.2469C60.1645 61.1896 60.1493 61.0818 60.207 61.006C61.5332 59.2643 62.8359 57.4694 63.7091 56.0445C64.1466 55.3307 64.4708 54.7183 64.6379 54.2559C64.7218 54.0236 64.7614 53.8416 64.7622 53.7097C64.7629 53.5839 64.7294 53.5326 64.6981 53.5089C59.6504 50.505 53.6662 48.8071 48.5178 47.4911C48.4575 47.4757 48.4102 47.4294 48.3938 47.3699C48.3774 47.3103 48.3945 47.2466 48.4385 47.203C48.4534 47.1881 48.4623 47.1742 48.4781 47.1349C48.4815 47.1265 48.4853 47.1167 48.4896 47.1056C48.5054 47.0644 48.528 47.0056 48.5621 46.9379L48.5641 46.9339L48.5642 46.9339C50.4224 43.4764 51.7458 38.0799 52.4473 32.6657C52.4595 32.5715 52.5463 32.5049 52.6413 32.517Z" fill="white"/>
<path fill-rule="evenodd" clip-rule="evenodd" d="M33.365 55.1168C33.425 55.0429 33.5341 55.0312 33.6087 55.0908C36.4126 57.3322 41.2423 60.8106 46.3029 63.5147C46.3872 63.5597 46.4187 63.664 46.3734 63.7477C46.328 63.8313 46.2229 63.8626 46.1386 63.8175C41.0539 61.1006 36.2063 57.6089 33.3912 55.3586C33.3167 55.299 33.305 55.1908 33.365 55.1168Z" fill="white"/>
<path fill-rule="evenodd" clip-rule="evenodd" d="M66.871 21.8248C66.9654 21.8087 67.055 21.8716 67.0712 21.9652C68.3947 29.6137 72.4472 40.907 74.007 44.7765C74.0425 44.8647 73.9993 44.9647 73.9104 45C73.8216 45.0353 73.7207 44.9924 73.6852 44.9042C72.1233 41.0293 68.0595 29.7088 66.7296 22.0234C66.7134 21.9298 66.7767 21.8408 66.871 21.8248Z" fill="white"/>
<path fill-rule="evenodd" clip-rule="evenodd" d="M52.9602 68.2203C53.0545 68.2364 53.1178 68.3254 53.1015 68.419L49.5116 89.0966C49.4953 89.1902 49.4057 89.253 49.3114 89.2369C49.2171 89.2208 49.1538 89.1318 49.17 89.0382L52.76 68.3606C52.7762 68.267 52.8658 68.2042 52.9602 68.2203Z" fill="white"/>
<path fill-rule="evenodd" clip-rule="evenodd" d="M95.7223 76.5818C95.8171 76.5949 95.8832 76.6818 95.8699 76.7759L91.8117 105.585C91.7985 105.679 91.7109 105.745 91.6161 105.732C91.5213 105.719 91.4552 105.632 91.4685 105.538L95.5267 76.7283C95.5399 76.6342 95.6275 76.5686 95.7223 76.5818Z" fill="white"/>
<path d="M107.328 63.7414C107.562 63.4316 107.484 62.9669 107.172 62.7346L104.362 60.721C104.05 60.4887 103.582 60.5661 103.348 60.8759C103.113 61.1857 103.191 61.6504 103.504 61.8827L106.313 63.8962C106.625 64.1286 107.094 64.0511 107.328 63.7414Z" fill="#FD88D0"/>
<path d="M108.343 62.5779C108.577 62.1907 108.499 61.726 108.187 61.4162L105.299 59.4027C104.909 59.1703 104.44 59.2478 104.128 59.5576C103.894 59.9448 103.972 60.4094 104.284 60.7192L107.172 62.7328C107.562 63.0426 108.108 62.9651 108.343 62.5779Z" fill="#FD88D0"/>
<path d="M110.213 59.9435C110.447 59.5563 110.369 59.0916 110.057 58.8593L107.325 56.9232C106.935 56.6908 106.467 56.7683 106.233 57.0781C105.999 57.4653 106.077 57.9299 106.389 58.1623L109.12 60.0984C109.511 60.4082 109.979 60.3307 110.213 59.9435Z" fill="#FD88D0"/>
<path d="M109.279 61.2621C109.514 60.8748 109.436 60.4102 109.123 60.1004L106.08 57.932C105.689 57.6996 105.221 57.7771 104.909 58.0869C104.675 58.4741 104.753 58.9387 105.065 59.2485L108.109 61.417C108.499 61.7267 109.045 61.6493 109.279 61.2621Z" fill="#FD88D0"/>
<path d="M105.221 55.375L111.465 55.8397C111.933 55.8397 112.245 56.2269 112.167 56.6916C112.167 57.0788 111.855 57.3885 111.465 57.3885L107.016 57.8532L105.221 55.375Z" fill="#FD88D0"/>
<path fill-rule="evenodd" clip-rule="evenodd" d="M104.386 60.5808C103.993 60.2898 103.418 60.3895 103.13 60.771C102.835 61.1605 102.936 61.7321 103.321 62.0185C103.397 62.0755 103.506 62.0601 103.563 61.9841C103.621 61.9082 103.605 61.8004 103.529 61.7434C103.289 61.5652 103.233 61.2074 103.407 60.9774C103.587 60.7397 103.947 60.6844 104.179 60.8569L106.445 62.4849C106.522 62.5406 106.631 62.5234 106.687 62.4465C106.743 62.3696 106.725 62.262 106.648 62.2063L104.386 60.5808Z" fill="#B74190"/>
<path fill-rule="evenodd" clip-rule="evenodd" d="M104.005 59.4332C104.369 59.0717 104.924 58.9767 105.388 59.2525C105.47 59.3013 105.497 59.407 105.447 59.4884C105.398 59.5698 105.292 59.5962 105.209 59.5474C104.898 59.3622 104.525 59.4161 104.265 59.6615C104.088 59.9726 104.151 60.3418 104.406 60.5949C104.474 60.662 104.474 60.7709 104.406 60.8381C104.339 60.9052 104.229 60.9052 104.161 60.8381C103.797 60.4765 103.701 59.926 103.979 59.4663C103.986 59.4543 103.995 59.4431 104.005 59.4332Z" fill="#B74190"/>
<path fill-rule="evenodd" clip-rule="evenodd" d="M106.097 56.9786C106.392 56.5876 106.963 56.509 107.417 56.7795C107.421 56.7818 107.425 56.7843 107.429 56.787L110.16 58.7231C110.238 58.7783 110.256 58.8857 110.201 58.963C110.145 59.0403 110.037 59.0582 109.959 59.003L107.233 57.071C106.912 56.8829 106.553 56.9562 106.379 57.1781C106.19 57.4999 106.267 57.8584 106.495 58.0284C106.572 58.0854 106.588 58.1932 106.53 58.2692C106.473 58.3452 106.364 58.3606 106.288 58.3036C105.894 58.0103 105.814 57.444 106.087 56.9933C106.09 56.9883 106.093 56.9834 106.097 56.9786Z" fill="#B74190"/>
<path fill-rule="evenodd" clip-rule="evenodd" d="M104.786 57.9645C105.15 57.6029 105.705 57.5079 106.168 57.7837C106.172 57.7861 106.176 57.7886 106.18 57.7912L108.365 59.3401C108.443 59.3953 108.461 59.5027 108.405 59.58C108.35 59.6573 108.242 59.6752 108.164 59.62L105.984 58.0753C105.675 57.8941 105.304 57.9489 105.047 58.1928C104.872 58.5 104.931 58.8639 105.178 59.1166L107.663 60.8893C107.741 60.9447 107.759 61.0522 107.703 61.1293C107.647 61.2064 107.539 61.224 107.461 61.1686L104.964 59.3874C104.956 59.3819 104.949 59.3759 104.942 59.3693C104.578 59.0078 104.482 58.4572 104.76 57.9976C104.767 57.9855 104.776 57.9744 104.786 57.9645Z" fill="#B74190"/>
<path fill-rule="evenodd" clip-rule="evenodd" d="M39.9887 64.2397L32.0972 99.4412L10.3736 124.721L10.1099 124.497L31.7775 99.283L39.6504 64.165L39.9887 64.2397Z" fill="#4C4C4C"/>
<path fill-rule="evenodd" clip-rule="evenodd" d="M54.8202 101.745L59.6588 146.43L59.3142 146.467L54.4756 101.782L54.8202 101.745Z" fill="#333333"/>
</svg>
