<svg width="128" height="31" viewBox="0 0 128 31" fill="none" xmlns="http://www.w3.org/2000/svg">
<path fill-rule="evenodd" clip-rule="evenodd" d="M125.146 1.75614H126.264C126.715 1.75614 126.861 1.96055 126.861 2.23551C126.861 2.46585 126.735 2.61007 126.569 2.66195V2.6661C126.78 2.71072 126.826 2.89437 126.826 3.14443C126.826 3.22847 126.829 3.42665 126.901 3.52314H126.5C126.473 3.47334 126.455 3.38411 126.455 3.25545C126.455 3.00331 126.421 2.82485 126.148 2.82485H125.516V3.52314H125.146V1.75614ZM126.157 2.54782C126.364 2.54782 126.475 2.48556 126.475 2.28842C126.475 2.10477 126.354 2.03318 126.157 2.03318H125.516V2.54782H126.157Z" fill="#71787C"/>
<path fill-rule="evenodd" clip-rule="evenodd" d="M123.981 2.56442C123.981 1.45525 124.881 0.555664 125.991 0.555664C127.1 0.555664 128 1.45525 128 2.56442C128 3.67463 127.1 4.57421 125.991 4.57421C124.881 4.57421 123.981 3.67463 123.981 2.56442ZM124.247 2.56442C124.247 3.52625 125.029 4.30859 125.991 4.30859C126.952 4.30859 127.734 3.52625 127.734 2.56442C127.734 1.60362 126.952 0.821284 125.991 0.821284C125.029 0.821284 124.247 1.60362 124.247 2.56442Z" fill="#71787C"/>
<path d="M52.5939 27.4497C52.486 26.2731 51.2398 26.16 50.6163 26.16C49.6306 26.16 48.8316 26.5118 48.8316 27.4145C48.8316 28.3514 49.7753 28.4842 50.6006 28.6004L50.6115 28.602L50.6192 28.6035L50.6301 28.6051C50.7497 28.6217 50.8662 28.6378 50.9769 28.657C51.1255 28.6824 51.2632 28.7119 51.3821 28.7514C51.6413 28.8375 51.8116 28.9703 51.8116 29.2105C51.8116 29.6535 51.3301 29.8071 50.8144 29.8071C50.1182 29.8071 49.6762 29.5508 49.6534 29.0175H48.7362C48.7465 29.8694 49.3307 30.4431 50.7864 30.4431C51.6476 30.4431 52.7298 30.1703 52.7298 29.1244C52.7298 28.1293 51.7363 28.0074 50.89 27.9037C50.5382 27.8601 50.2117 27.8201 49.9928 27.7221C49.8212 27.6448 49.7156 27.5317 49.7156 27.3532C49.7156 26.9724 50.0902 26.7961 50.6567 26.7961C51.3644 26.7961 51.6476 27.1364 51.6756 27.4497H52.5939Z" fill="#71787C"/>
<path d="M0.849778 26.2731H0V30.329H0.849778V29.0684L1.53562 28.4603L3.0536 30.329H4.20324L2.19863 27.9208L4.08391 26.2731H2.91767L0.849778 28.1532V26.2731Z" fill="#71787C"/>
<path d="M10.8147 26.2731H9.96492V28.5848C9.96492 29.2551 9.98774 30.4431 11.9415 30.4431C13.9015 30.4431 13.9243 29.2551 13.9243 28.5848V26.2731H13.0745V28.562C13.0745 29.1244 13.0528 29.8071 11.9415 29.8071C10.8375 29.8071 10.8147 29.1244 10.8147 28.562V26.2731Z" fill="#71787C"/>
<path fill-rule="evenodd" clip-rule="evenodd" d="M20.099 26.2731H22.28C23.8664 26.2731 24.2576 27.182 24.2576 28.341C24.2576 29.2157 23.8612 30.329 22.4844 30.329H20.099V26.2731ZM20.9498 29.6919H22.144C22.7562 29.6919 23.4078 29.4938 23.4078 28.3068C23.4078 26.989 22.5746 26.9092 22.0994 26.9092H20.9498V29.6919Z" fill="#71787C"/>
<path d="M33.8199 26.2731H30.3077V30.329H33.8656V29.6919H31.1575V28.5682H33.713V27.9322H31.1575V26.9092H33.8199V26.2731Z" fill="#71787C"/>
<path d="M39.8866 26.2731H40.7364V29.6587H43.1955V30.329H39.8866V26.2731Z" fill="#71787C"/>
<path d="M58.6264 26.2731H59.4762V28.1532L61.544 26.2731H62.7113L60.825 27.9208L62.8296 30.329H61.68L60.162 28.4603L59.4762 29.0684V30.329H58.6264V26.2731Z" fill="#71787C"/>
<path d="M69.4753 30.329H68.6255V26.2731H69.4753V30.329Z" fill="#71787C"/>
<path d="M87.3704 30.329H86.8724L86.7531 29.8009C86.4252 30.1983 85.8462 30.4431 85.2123 30.4431C83.5013 30.4431 82.8331 29.4429 82.8331 28.3016C82.8331 27.1592 83.5418 26.16 85.1895 26.16C86.419 26.16 87.2065 26.7846 87.2978 27.5794H86.3796C86.226 27.0295 85.7165 26.7961 85.1677 26.7961C84.1187 26.7961 83.7161 27.4373 83.7161 28.3296C83.7161 29.4087 84.4082 29.8071 85.122 29.8071C85.9884 29.8071 86.3848 29.4087 86.5207 28.7384H85.3762V28.1024H87.3704V30.329Z" fill="#71787C"/>
<path fill-rule="evenodd" clip-rule="evenodd" d="M96.1411 26.2731H93.5804V30.329H94.4291V28.727H95.8745C96.497 28.727 96.5769 29.1368 96.5769 29.7148C96.5769 30.0115 96.6163 30.2149 96.6786 30.329H97.5958C97.5059 30.2076 97.4635 30.0162 97.4434 29.8362C97.4269 29.6878 97.4256 29.5472 97.4256 29.4595C97.4256 28.8857 97.3188 28.4655 96.8363 28.3638V28.3524C97.216 28.2331 97.5055 27.9032 97.5055 27.375C97.5055 26.7452 97.1714 26.2731 96.1411 26.2731ZM96.6215 27.4943C96.6215 27.9488 96.3663 28.091 95.8962 28.091H94.4291V26.9092H95.8962C96.1777 26.9092 96.3917 26.9745 96.5119 27.127C96.5831 27.2173 96.6215 27.3382 96.6215 27.4943Z" fill="#71787C"/>
<path fill-rule="evenodd" clip-rule="evenodd" d="M103.352 28.3016C103.352 27.1592 104.02 26.16 105.731 26.16C107.442 26.16 108.11 27.1592 108.11 28.3016C108.11 29.4429 107.442 30.4431 105.731 30.4431C104.02 30.4431 103.352 29.4429 103.352 28.3016ZM107.227 28.3016C107.227 27.4093 106.683 26.7961 105.731 26.7961C104.779 26.7961 104.235 27.4093 104.235 28.3016C104.235 29.1929 104.779 29.8071 105.731 29.8071C106.683 29.8071 107.227 29.1929 107.227 28.3016Z" fill="#71787C"/>
<path d="M114.908 26.2731H114.058V28.5848C114.058 29.2551 114.081 30.4431 116.036 30.4431C117.996 30.4431 118.018 29.2551 118.018 28.5848V26.2731H117.169V28.562C117.169 29.1244 117.146 29.8071 116.036 29.8071C114.931 29.8071 114.908 29.1244 114.908 28.562V26.2731Z" fill="#71787C"/>
<path fill-rule="evenodd" clip-rule="evenodd" d="M124.193 26.2731H126.685C127.676 26.2731 128 26.8811 128 27.5338C128 28.1532 127.609 28.7841 126.697 28.7841H125.042V30.329H124.193V26.2731ZM125.042 28.148H126.407C126.89 28.148 127.15 28.0173 127.15 27.5338C127.15 27.2624 127.046 27.1011 126.899 27.0108C126.881 26.9999 126.862 26.9896 126.842 26.9807C126.827 26.9735 126.811 26.9667 126.796 26.961C126.76 26.9481 126.724 26.9377 126.686 26.9299C126.657 26.9237 126.626 26.919 126.596 26.9159C126.554 26.9112 126.512 26.9092 126.471 26.9092H125.042V28.148Z" fill="#71787C"/>
<path fill-rule="evenodd" clip-rule="evenodd" d="M55.909 0.59613L68.6048 0.656309C71.3232 0.656309 72.807 1.99894 72.807 4.9218V17.4028C72.807 20.3174 71.3232 21.6683 68.6048 21.6683L55.909 21.659C55.1484 21.659 54.5269 21.0385 54.5269 20.2769V1.98545C54.5269 1.21868 55.1484 0.59613 55.909 0.59613ZM65.4516 18.9748C66.3366 18.9748 66.6272 18.677 66.6272 17.7255V4.59081C66.6272 3.63831 66.3366 3.34883 65.4516 3.34883H60.7067V18.9748H65.4516Z" fill="#71787C"/>
<path d="M7.18939 3.25856C6.30122 3.25856 6.00136 3.55842 6.00136 4.51403V6.55495C6.00136 7.51471 6.30122 7.81457 7.18939 7.81457H13.3236C16.0607 7.81457 17.5444 9.1655 17.5444 12.0977V17.3759C17.5444 20.3081 16.0607 21.659 13.3236 21.659L1.39036 21.6465C0.628773 21.6465 0.0166013 21.0261 0.0166013 20.2676C0.0166013 19.5102 0.628773 18.8897 1.39036 18.8897L10.3592 18.9571C11.2463 18.9571 11.5462 18.6583 11.5462 17.7017V14.9282C11.5462 13.9757 11.2463 13.68 10.3592 13.68H4.21984C1.48166 13.68 0 12.3249 0 9.39584V4.84502C0 1.90763 1.48166 0.555664 4.21984 0.555664H15.544C16.2921 0.555664 16.8949 1.15954 16.8949 1.90763C16.8949 2.65573 16.2921 3.25856 15.544 3.25856H7.18939Z" fill="#71787C"/>
<path d="M92.2813 1.99894C92.2813 2.74703 92.8935 3.34883 93.6416 3.34883H98.2339V20.2863C98.2339 21.0479 98.8544 21.6683 99.616 21.6683H103.025C103.792 21.6683 104.403 21.0479 104.403 20.2863V3.34883H108.978C109.725 3.34883 110.328 2.74703 110.328 1.99894C110.328 1.2498 109.725 0.648009 108.978 0.648009H93.6416C92.8935 0.648009 92.2813 1.2498 92.2813 1.99894Z" fill="#71787C"/>
<path d="M45.1752 21.659C44.4105 21.659 43.7879 21.0385 43.7879 20.2769V1.97507C43.7879 1.20934 44.4105 0.588867 45.1752 0.588867H48.5753C49.3421 0.588867 49.9626 1.20934 49.9626 1.97507V20.2769C49.9626 21.0385 49.3421 21.659 48.5753 21.659H45.1752Z" fill="#71787C"/>
<path fill-rule="evenodd" clip-rule="evenodd" d="M86.8423 1.4127L95.1647 19.6969C95.2088 19.7846 95.2413 19.8811 95.2624 19.9818C95.2825 20.0772 95.2924 20.1768 95.2924 20.2769C95.2924 21.0385 94.6698 21.659 93.9031 21.659H90.092C89.5214 21.659 89.0264 21.3114 88.8127 20.8206L86.7728 15.6846H79.4942L77.2354 20.8538C77.1438 21.0743 76.9974 21.2652 76.8135 21.41C76.5786 21.5952 76.2825 21.7047 75.9612 21.7047C75.1955 21.7047 74.5792 21.0842 74.5792 20.3174C74.5792 20.1841 74.5975 20.0544 74.6326 19.9314C74.6559 19.85 74.6867 19.7716 74.7244 19.6969L83.024 1.44072C83.2513 0.972771 83.7213 0.648009 84.2743 0.648009H85.6034C86.1471 0.648009 86.613 0.96447 86.8423 1.4127ZM82.5758 8.87602L80.7393 13.0004H85.5682L83.7026 8.86668C83.6134 8.65294 83.3955 8.50352 83.1465 8.50352C82.8891 8.50352 82.6712 8.65294 82.5758 8.87602Z" fill="#71787C"/>
<path fill-rule="evenodd" clip-rule="evenodd" d="M127.873 19.6969L119.55 1.4127C119.331 0.96447 118.853 0.648009 118.307 0.648009H116.983C116.44 0.648009 115.964 0.972771 115.742 1.44072L107.428 19.6969C107.337 19.8837 107.287 20.0954 107.287 20.3174C107.287 21.0842 107.907 21.7047 108.671 21.7047C108.954 21.7047 109.216 21.6211 109.434 21.4769C109.662 21.3265 109.842 21.1101 109.948 20.8538L112.206 15.6846H119.483L121.532 20.8206C121.736 21.3114 122.229 21.659 122.796 21.659H126.623C127.389 21.659 128 21.0385 128 20.2769C128 20.0715 127.96 19.8681 127.873 19.6969ZM113.448 13.0004L115.284 8.87602C115.38 8.65294 115.597 8.50352 115.856 8.50352C116.108 8.50352 116.323 8.65294 116.422 8.86668L118.276 13.0004H113.448Z" fill="#71787C"/>
<path d="M26.7374 0.588867C27.5042 0.588867 28.1257 1.20934 28.1257 1.97507L28.1298 8.61247C28.1298 8.96214 28.4089 9.25162 28.7638 9.25162C28.9547 9.25162 29.1218 9.1655 29.2348 9.03892L36.362 0.918817C36.4999 0.760586 36.6866 0.649046 36.9011 0.607024C36.9627 0.595092 37.0267 0.588867 37.0924 0.588867H38.9777C39.5235 0.588867 39.9613 1.03191 39.9613 1.5756C39.9613 1.81217 39.8752 2.03422 39.7258 2.2023L33.8324 8.91233C33.6653 9.08872 33.5657 9.31906 33.5657 9.58261C33.5657 9.79635 33.6332 9.99971 33.7504 10.1585L40.9273 20.0954C41.0031 20.196 41.0592 20.3122 41.0911 20.4388C41.1109 20.5171 41.1214 20.5996 41.1214 20.6847C41.1214 21.2201 40.6783 21.659 40.1388 21.659H35.4686C35.1387 21.659 34.844 21.5013 34.6666 21.2512L29.2722 13.791C29.155 13.6354 28.9682 13.5368 28.7638 13.5368C28.4089 13.5368 28.1298 13.8211 28.1298 14.1791L28.1257 20.2769C28.1257 21.0385 27.5042 21.659 26.7374 21.659H23.3424C22.5757 21.659 21.9552 21.0385 21.9552 20.2769V1.97507C21.9552 1.20934 22.5757 0.588867 23.3424 0.588867H26.7374Z" fill="#71787C"/>
</svg>
