<svg width="360" height="760" viewBox="0 0 360 760" fill="none" xmlns="http://www.w3.org/2000/svg">
	<defs>
		<radialGradient id="paint0_radial" cx="0" cy="0" r="1" gradientUnits="userSpaceOnUse" gradientTransform="translate(180 380) rotate(90) scale(380 383.76)">
			<stop stop-color="#48DB84" />
			<stop offset="1" stop-color="#3FBF73" />
		</radialGradient>
		<radialGradient id="paint1_radial" cx="0" cy="0" r="1" gradientUnits="userSpaceOnUse" gradientTransform="translate(180 380) rotate(90) scale(380 810.16)">
			<stop stop-color="#48DB84" />
			<stop offset="1" stop-color="#3FBF73" />
		</radialGradient>
		<linearGradient id="paint2_linear" x1="97.9998" y1="59.3334" x2="77.9998" y2="151.333" gradientUnits="userSpaceOnUse">
			<stop stop-color="#4B4E5C" />
			<stop offset="1" stop-color="#4B4E5C" stop-opacity="0.32" />
		</linearGradient>
		<linearGradient id="paint3_linear" x1="44.7013" y1="477.891" x2="30.9177" y2="521.078" gradientUnits="userSpaceOnUse">
			<stop stop-color="#4B4E5C" />
			<stop offset="1" stop-color="#4B4E5C" stop-opacity="0.32" />
		</linearGradient>
		<linearGradient id="paint4_linear" x1="259.571" y1="196.286" x2="239.571" y2="256.286" gradientUnits="userSpaceOnUse">
			<stop stop-color="#4B4E5C" />
			<stop offset="1" stop-color="#4B4E5C" stop-opacity="0.4" />
		</linearGradient>
		<linearGradient id="paint5_linear" x1="66.2489" y1="247.549" x2="46.1896" y2="286.935" gradientUnits="userSpaceOnUse">
			<stop stop-color="#4B4E5C" />
			<stop offset="1" stop-color="#4B4E5C" stop-opacity="0.32" />
		</linearGradient>
		<linearGradient id="paint6_linear" x1="242.5" y1="540" x2="194.5" y2="584" gradientUnits="userSpaceOnUse">
			<stop stop-color="#4B4E5C" />
			<stop offset="1" stop-color="#4B4E5C" stop-opacity="0.4" />
		</linearGradient>
		<linearGradient id="paint7_linear" x1="271.258" y1="22.9745" x2="255.074" y2="77.6288" gradientUnits="userSpaceOnUse">
			<stop stop-color="#4B4E5C" />
			<stop offset="1" stop-color="#4B4E5C" stop-opacity="0.32" />
		</linearGradient>
		<linearGradient id="paint8_linear" x1="320" y1="641" x2="349.5" y2="701" gradientUnits="userSpaceOnUse">
			<stop stop-color="#4B4E5C" />
			<stop offset="1" stop-color="#4B4E5C" stop-opacity="0.4" />
		</linearGradient>
		<linearGradient id="paint9_linear" x1="332.123" y1="384.644" x2="350.335" y2="441.813" gradientUnits="userSpaceOnUse">
			<stop stop-color="#4B4E5C" />
			<stop offset="1" stop-color="#4B4E5C" stop-opacity="0.32" />
		</linearGradient>
		<linearGradient id="paint10_linear" x1="86.8584" y1="664.5" x2="113.358" y2="725" gradientUnits="userSpaceOnUse">
			<stop stop-color="#4B4E5C" stop-opacity="0.32" />
			<stop offset="1" stop-color="#4B4E5C" />
		</linearGradient>
		<linearGradient id="paint11_linear" x1="86.8584" y1="664.5" x2="113.358" y2="725" gradientUnits="userSpaceOnUse">
			<stop stop-color="#4B4E5C" stop-opacity="0.32" />
			<stop offset="1" stop-color="#4B4E5C" />
		</linearGradient>
		<clipPath id="clip0">
			<rect width="360" height="760" fill="white" />
		</clipPath>
		<clipPath id="clip1">
			<rect width="760" height="760" fill="white" transform="translate(-200)" />
		</clipPath>
		<clipPath id="clip2">
			<rect width="96" height="96" fill="white" transform="translate(24 80.6729) rotate(-23.756)" />
		</clipPath>
		<clipPath id="clip3">
			<rect width="64" height="64" fill="white" transform="translate(17.4595 458) rotate(17.7011)" />
		</clipPath>
		<clipPath id="clip4">
			<rect width="64" height="64" fill="white" transform="translate(207 206.652) rotate(-22.6553)" />
		</clipPath>
		<clipPath id="clip5">
			<rect width="64" height="64" fill="white" transform="translate(42.0454 224) rotate(26.99)" />
		</clipPath>
		<clipPath id="clip6">
			<rect width="68.1278" height="68.1278" fill="white" transform="translate(174 537.512) rotate(-21.0878)" />
		</clipPath>
		<clipPath id="clip7">
			<rect width="64" height="64" fill="white" transform="translate(316.764 629) rotate(21.7968)" />
		</clipPath>
		<clipPath id="clip8">
			<rect width="72" height="72" fill="white" transform="translate(296 389.854) rotate(-17.6698)" />
		</clipPath>
		<clipPath id="clip9">
			<rect width="64" height="64" fill="white" transform="translate(78.106 653) rotate(18.3099)" />
		</clipPath>
		<clipPath id="clip10">
			<rect width="178.095" height="88" fill="white" transform="translate(91 336)" />
		</clipPath>
	</defs>
	<g clip-path="url(#clip0)">
		<rect width="360" height="760" fill="url(#paint0_radial)" />
		<g clip-path="url(#clip1)">
			<rect x="-200" width="760" height="760" fill="url(#paint1_radial)" />
			<g style="mix-blend-mode:multiply" opacity="0.12" clip-path="url(#clip2)">
				<path d="M94.4497 141.442L81.5587 112.153L85.2198 110.542C91.2752 107.877 94.0341 100.78 91.3689 94.7245L80.0893 69.0969L72.7671 72.3197L84.0467 97.9472C84.9362 99.9681 84.0179 102.33 81.997 103.22L78.3359 104.831L65.445 75.5424L58.1228 78.7652L71.0138 108.054L67.3527 109.665C65.3318 110.555 62.9697 109.636 62.0803 107.615L50.8006 81.9879L43.4785 85.2106L54.7581 110.838C57.4233 116.894 64.52 119.653 70.5755 116.987L74.2365 115.376L87.1275 144.665L94.4497 141.442ZM131.06 125.328L103.667 63.0898C102.776 61.0652 100.419 60.149 98.3946 61.0401L94.7336 62.6514C90.4904 64.519 89.445 70.4945 92.2455 76.8574L103.525 102.485L110.847 99.2622L123.738 128.551L131.06 125.328Z" fill="url(#paint2_linear)" />
			</g>
			<g style="mix-blend-mode:multiply" opacity="0.12" clip-path="url(#clip3)">
				<path fill-rule="evenodd" clip-rule="evenodd" d="M61.8222 487.185L61.9954 500.64C63.5821 501.992 64.2928 504.211 63.6191 506.323L60.3758 516.484C59.7767 518.362 58.2339 519.652 56.4384 520.051L54.5922 525.835C54.1438 527.24 52.6459 528.013 51.241 527.565L48.7006 526.754C47.2957 526.306 46.5226 524.808 46.971 523.403L48.5926 518.322L18.1076 508.592L16.486 513.673C16.0376 515.078 14.5396 515.851 13.1348 515.403L10.5944 514.592C9.18951 514.143 8.41637 512.645 8.86474 511.241L10.7109 505.456C9.4782 504.091 8.96917 502.143 9.56754 500.268L12.8107 490.106C13.4845 487.995 15.3498 486.598 17.4238 486.414L25.3629 475.546C26.7163 473.691 29.0981 472.911 31.2905 473.611L58.1122 482.171C60.3046 482.871 61.7944 484.886 61.8222 487.185ZM20.5399 500.971L20.54 500.971L22.1616 495.89L17.0808 494.269L17.0807 494.269L17.0807 494.269L15.4591 499.349L20.5399 500.971L20.5399 500.971ZM29.6688 478.692L29.6689 478.692L56.4931 487.253L56.6388 498.496L56.6362 498.495L56.6362 498.496L54.6191 497.852L25.0537 488.416L23.0366 487.772L29.6688 478.692L29.6688 478.692ZM56.1057 512.322L56.1057 512.322L51.0249 510.701L52.6465 505.62L52.6466 505.62L52.6466 505.62L57.7274 507.241L56.1058 512.322L56.1057 512.322Z" fill="url(#paint3_linear)" />
			</g>
			<g style="mix-blend-mode:multiply" opacity="0.12" clip-path="url(#clip4)">
				<path fill-rule="evenodd" clip-rule="evenodd" d="M221.391 209.314C218.333 210.591 216.888 214.104 218.165 217.162L222.787 228.236C225.845 226.96 229.359 228.404 230.635 231.462C231.912 234.52 230.467 238.034 227.409 239.311L232.032 250.385C233.308 253.443 236.822 254.887 239.88 253.61L276.793 238.203C279.851 236.927 281.296 233.413 280.019 230.355L275.397 219.281C272.339 220.557 268.825 219.113 267.549 216.055C266.272 212.997 267.717 209.483 270.775 208.207L266.152 197.133C264.876 194.075 261.362 192.63 258.304 193.907L221.391 209.314ZM249.858 208.268L255.441 209.49L248.721 240.195L243.138 238.973L249.858 208.268ZM241.221 221.003C240.715 223.316 238.43 224.78 236.117 224.274C233.805 223.768 232.341 221.483 232.847 219.171C233.353 216.858 235.638 215.394 237.95 215.9C240.263 216.406 241.727 218.691 241.221 221.003ZM265.732 229.293C265.226 231.605 262.941 233.069 260.629 232.563C258.316 232.057 256.852 229.772 257.358 227.46C257.864 225.148 260.149 223.683 262.461 224.189C264.774 224.695 266.238 226.98 265.732 229.293Z" fill="url(#paint4_linear)" />
			</g>
			<g style="mix-blend-mode:multiply" opacity="0.12" clip-path="url(#clip5)">
				<path fill-rule="evenodd" clip-rule="evenodd" d="M87.0999 258.169L50.0311 239.289L47.7143 238.109L43.0807 235.75L40.7208 240.383L45.3544 242.743L46.0494 243.097L42.7813 269.685C42.5118 271.847 43.6391 273.965 45.5806 274.954L64.81 284.747L67.1699 280.114L47.9405 270.32L48.6138 264.827L69.5299 275.48C70.4566 275.952 71.5761 275.828 72.3741 275.16L87.5842 262.483C88.2569 261.924 88.6005 261.066 88.5034 260.197C88.4041 259.326 87.8783 258.565 87.0999 258.169ZM42.7142 285.165C44.6335 286.142 46.9819 285.379 47.9594 283.459C48.9369 281.54 48.1734 279.192 46.2541 278.214C44.3348 277.237 41.9865 278 41.009 279.92C40.0315 281.839 40.7949 284.187 42.7142 285.165ZM61.8602 290.539C60.8827 292.458 58.5344 293.222 56.6151 292.244C54.6958 291.267 53.9323 288.919 54.9098 286.999C55.8873 285.08 58.2356 284.317 60.1549 285.294C62.0742 286.272 62.8377 288.62 61.8602 290.539Z" fill="url(#paint5_linear)" />
			</g>
			<g style="mix-blend-mode:multiply" opacity="0.12" clip-path="url(#clip6)">
				<path fill-rule="evenodd" clip-rule="evenodd" d="M183.789 545.146C182.943 542.952 184.036 540.488 186.23 539.642L218.013 527.385C220.207 526.539 222.671 527.632 223.518 529.826L224.148 531.462L231.586 523.682C232.664 522.554 234.55 522.931 235.111 524.387L244.953 549.91C245.515 551.366 244.371 552.911 242.814 552.799L232.079 552.027L232.71 553.663C233.556 555.857 232.463 558.322 230.269 559.168L222.017 562.35L235.468 575.3C236.612 576.401 236.647 578.22 235.546 579.364C234.445 580.507 232.625 580.542 231.482 579.441L216.099 564.632L213.993 565.444L212.503 587.227C212.395 588.811 211.023 590.007 209.44 589.898C207.856 589.79 206.66 588.418 206.768 586.835L208.075 567.726L198.486 571.424C196.292 572.27 193.828 571.177 192.981 568.983L183.789 545.146ZM229.793 546.1L237.538 546.657L231.8 531.777L226.434 537.39L229.793 546.1Z" fill="url(#paint6_linear)" />
			</g>
			<g style="mix-blend-mode:multiply" opacity="0.12">
				<path d="M290.309 60.77C290.683 60.1926 291.047 59.6088 291.367 59.0028C291.39 58.9565 291.406 58.9113 291.432 58.8658C291.573 58.6009 291.685 58.3181 291.816 58.0469C292.021 57.6166 292.241 57.1934 292.418 56.7517C292.715 56.0259 292.981 55.2756 293.209 54.5047C295.09 48.1504 294.217 41.6341 291.288 36.2364C288.355 30.8406 283.365 26.5597 277.011 24.6781L270.196 47.6904L248.671 41.3165L247.907 34.8326L237.382 31.7159L235.678 37.469L242.412 39.463L244.037 53.2914C239.933 53.719 236.285 56.5526 235.043 60.7466C233.399 66.2983 236.578 72.1518 242.129 73.7957C247.189 75.294 252.461 72.7595 254.606 68.1039L260.652 69.8944C259.917 74.9673 262.958 79.9635 268.018 81.4618C273.57 83.1057 279.423 79.9268 281.067 74.3751C281.604 72.5629 281.58 70.7317 281.176 69.0102C281.332 68.928 281.498 68.8645 281.654 68.7795C282.997 68.0477 284.28 67.1822 285.473 66.2059C286.668 65.2143 287.77 64.1138 288.748 62.9236C288.825 62.8307 288.887 62.7271 288.962 62.6334L288.965 62.6343C288.994 62.5991 289.015 62.5614 289.044 62.5262C289.484 61.9684 289.903 61.4008 290.289 60.8049C290.295 60.7942 290.301 60.7836 290.309 60.77ZM243.833 68.0427C241.454 67.3382 240.091 64.8291 240.796 62.4502C241.5 60.0713 244.009 58.7086 246.388 59.413C248.767 60.1175 250.13 62.6266 249.425 65.0055C248.721 67.3844 246.212 68.7471 243.833 68.0427ZM269.722 75.7087C267.343 75.0043 265.98 72.4951 266.685 70.1162C267.389 67.7373 269.898 66.3747 272.277 67.0791C274.656 67.7835 276.019 70.2927 275.314 72.6716C274.61 75.0505 272.101 76.4131 269.722 75.7087Z" fill="url(#paint7_linear)" />
			</g>
			<g style="mix-blend-mode:multiply" opacity="0.12" clip-path="url(#clip7)">
				<path fill-rule="evenodd" clip-rule="evenodd" d="M324.43 642.835C321.353 641.605 317.861 643.102 316.631 646.179L312.918 655.464C315.994 656.694 317.491 660.186 316.261 663.263C315.03 666.339 311.539 667.836 308.462 666.606L304.749 675.891C303.518 678.968 305.015 682.459 308.092 683.69L345.232 698.542C348.309 699.773 351.801 698.276 353.031 695.199L356.744 685.914C353.667 684.684 352.171 681.192 353.401 678.115C354.631 675.038 358.123 673.542 361.2 674.772L364.913 665.487C366.144 662.41 364.647 658.919 361.57 657.688L324.43 642.835ZM326.424 675.943L321.41 673.938L318.44 681.366L323.454 683.371L326.424 675.943ZM325.866 662.796L330.88 664.801L327.909 672.229L322.895 670.224L325.866 662.796ZM335.336 653.659L330.322 651.654L327.351 659.082L332.365 661.087L335.336 653.659Z" fill="url(#paint8_linear)" />
			</g>
			<g style="mix-blend-mode:multiply" opacity="0.12" clip-path="url(#clip8)">
				<path d="M353.953 383.987L348.236 385.808L346.415 380.091L340.698 381.912L342.519 387.629L325.369 393.093L323.547 387.376L317.83 389.197L319.652 394.914L313.935 396.735C310.782 397.74 309.035 401.12 310.039 404.273L322.787 444.292C323.792 447.445 327.172 449.192 330.325 448.188L370.344 435.439C373.497 434.435 375.244 431.054 374.24 427.901L361.491 387.883C360.487 384.73 357.106 382.983 353.953 383.987ZM354.497 431.042L346.324 429.59L340.497 435.502L339.35 427.278L331.927 423.566L339.392 419.935L340.635 411.73L346.395 417.704L354.584 416.348L350.679 423.672L354.497 431.042ZM358.506 398.279L318.488 411.028L316.666 405.311L356.685 392.562L358.506 398.279Z" fill="url(#paint9_linear)" />
			</g>
			<g style="mix-blend-mode:multiply" opacity="0.12" clip-path="url(#clip9)">
				<path fill-rule="evenodd" clip-rule="evenodd" d="M76.9644 709.502L71.9011 707.827C69.1061 706.902 67.5884 703.883 68.5132 701.088L77.7285 673.239C78.1918 671.839 79.6979 671.082 81.0979 671.546L88.822 674.102C91.3399 668.632 97.5882 665.767 103.436 667.702C109.284 669.637 112.591 675.664 111.349 681.556L119.073 684.112C120.473 684.575 121.23 686.081 120.767 687.481L119.091 692.545L88.7113 682.492C87.3113 682.028 85.8051 682.785 85.3419 684.185L76.9644 709.502ZM106.288 679.881C106.656 676.801 104.817 673.777 101.761 672.765C98.7051 671.754 95.4252 673.084 93.8828 675.776L106.288 679.881Z" fill="url(#paint10_linear)" />
				<path fill-rule="evenodd" clip-rule="evenodd" d="M92.0991 689.23L122.479 699.283C123.879 699.747 124.636 701.253 124.173 702.653L117.471 722.906C116.546 725.701 113.527 727.219 110.732 726.294L85.4155 717.916C82.6206 716.991 81.1028 713.972 82.0277 711.178L88.7297 690.924C89.193 689.524 90.6991 688.767 92.0991 689.23ZM92.9553 695.131C90.6456 702.111 94.445 709.669 101.425 711.978C108.405 714.288 115.962 710.489 118.272 703.509L113.209 701.833C111.823 706.021 107.288 708.301 103.1 706.915C98.9129 705.529 96.6329 700.994 98.0186 696.807L92.9553 695.131Z" fill="url(#paint11_linear)" />
			</g>
		</g>
		<g clip-path="url(#clip10)">
			<path fill-rule="evenodd" clip-rule="evenodd" d="M259.8 336.015C264.84 335.946 269.068 340.1 269.095 345.122C269.112 350.207 264.965 354.414 259.849 354.495C254.873 354.575 250.67 350.447 250.491 345.483C250.296 340.048 255.095 335.707 259.8 336.015ZM244.93 375.465C244.485 388.036 235.298 397.053 224.226 398.601C218.149 399.474 211.968 397.991 206.947 394.455C201.927 390.918 198.446 385.595 197.217 379.575C194.468 366.27 203.583 353.078 217.016 350.973C220.9 350.338 224.883 350.69 228.596 351.997C229.337 352.256 229.629 352.113 229.917 351.393C230.798 349.192 231.707 347.002 232.615 344.812C233.084 343.681 233.553 342.55 234.019 341.417C234.872 339.344 236.353 338.014 238.569 337.538C242.097 336.771 245.442 339.562 245.377 343.171C245.352 344.535 245.36 345.899 245.368 347.263C245.373 347.945 245.377 348.627 245.377 349.308L244.93 375.465ZM192.109 375.404C192.308 387.999 182.14 399.522 168.072 399.547C154.736 399.577 144.008 388.767 143.974 375.524C143.941 362.281 154.759 351.386 167.952 351.366C171.118 351.349 174.255 351.959 177.185 353.159C180.114 354.36 182.777 356.127 185.022 358.361C187.267 360.595 189.048 363.25 190.265 366.175C191.481 369.1 192.108 372.236 192.109 375.404ZM250.505 373.75C250.507 375.044 250.508 376.338 250.508 377.63L250.515 389.389V389.601C250.476 391.974 251.308 394.029 252.886 395.766C255.509 398.655 259.52 399.631 263.042 398.282C264.805 397.618 266.325 396.432 267.397 394.881C268.47 393.331 269.045 391.49 269.046 389.605C269.062 387.228 269.057 384.852 269.051 382.476V382.471V382.471V382.47C269.049 381.282 269.046 380.093 269.046 378.905C269.046 377.458 269.045 376.01 269.044 374.563V374.563V374.562C269.042 371.667 269.039 368.771 269.046 365.875C269.051 363.266 268.136 361.011 266.264 359.237C263.308 356.436 259.778 355.754 256.086 357.365C252.446 358.952 250.523 361.92 250.508 365.978C250.499 368.568 250.502 371.16 250.505 373.75ZM111.169 401.439L111.169 401.44C110.864 403.06 110.564 404.656 110.315 406.259C109.978 408.396 109.286 410.28 107.39 411.538C104.003 413.785 99.628 411.973 98.6405 408.037C98.3834 407.013 98.1268 405.988 97.8702 404.964C95.9539 397.312 94.037 389.659 91.8998 382.064C88.024 368.252 97.0547 353.931 111.22 351.72C123.859 349.747 135.503 357.52 138.545 369.97C141.848 383.488 132.426 397.361 118.66 399.245C117.509 399.418 116.349 399.521 115.185 399.554C114.385 399.573 113.584 399.506 112.734 399.435C112.354 399.403 111.963 399.371 111.559 399.345C111.431 400.049 111.299 400.746 111.169 401.439ZM100.885 420.005C100.875 418.951 101.282 417.935 102.016 417.18C102.751 416.425 103.754 415.991 104.806 415.972C106.957 415.935 108.851 417.739 108.898 419.86C108.908 420.398 108.811 420.934 108.612 421.434C108.414 421.935 108.118 422.392 107.742 422.777C107.365 423.162 106.916 423.469 106.42 423.679C105.925 423.889 105.392 423.998 104.854 424C103.799 423.992 102.791 423.568 102.048 422.819C101.305 422.071 100.887 421.06 100.885 420.005Z" fill="white" />
		</g>
	</g>
</svg>
