<svg width="27" height="27" viewBox="0 0 27 27" fill="none" xmlns="http://www.w3.org/2000/svg">
<path fill-rule="evenodd" clip-rule="evenodd" d="M5.33333 24H2.66667C1.19467 24 0 22.8053 0 21.3333V6.66667C0 5.92933 0.596 5.33333 1.33333 5.33333H5.40133C5.73733 2.34133 8.25333 0 11.3333 0C14.4133 0 16.9293 2.34133 17.2653 5.33333H21.3333C22.0707 5.33333 22.6667 5.92933 22.6667 6.66667V9.33333H6.66667C5.92933 9.33333 5.33333 9.92933 5.33333 10.6667V24ZM14.6 5.33333C14.2907 3.81333 12.9427 2.66667 11.3333 2.66667C9.724 2.66667 8.376 3.81333 8.06667 5.33333H14.6Z" fill="#393C47"/>
<path fill-rule="evenodd" clip-rule="evenodd" d="M9.33333 12H25.3333C26.0707 12 26.6667 12.596 26.6667 13.3333V24C26.6667 25.472 25.472 26.6667 24 26.6667H10.6667C9.19467 26.6667 8 25.472 8 24V13.3333C8 12.596 8.596 12 9.33333 12ZM10.6667 14.6667C10.6667 18.3427 13.6573 21.3333 17.3333 21.3333C21.0093 21.3333 24 18.3427 24 14.6667H21.3333C21.3333 16.872 19.5387 18.6667 17.3333 18.6667C15.128 18.6667 13.3333 16.872 13.3333 14.6667H10.6667Z" fill="#393C47"/>
</svg>
