<svg width="20" height="18" viewBox="0 0 20 18" fill="none" xmlns="http://www.w3.org/2000/svg">
<path d="M17.5 10.035V15.6667H18.3333V17.3334H1.66668V15.6667H2.50001V10.035C1.98699 9.69259 1.56644 9.22881 1.27569 8.68482C0.984949 8.14084 0.833004 7.53349 0.833344 6.91669C0.833344 6.22752 1.02001 5.56335 1.36084 4.99752L3.62084 1.08335C3.69398 0.956674 3.79918 0.851478 3.92586 0.778338C4.05254 0.705198 4.19623 0.666691 4.34251 0.666687H15.6583C15.8046 0.666691 15.9483 0.705198 16.075 0.778338C16.2017 0.851478 16.3069 0.956674 16.38 1.08335L18.6317 4.98502C19.1288 5.81075 19.2886 6.7963 19.0779 7.7368C18.8671 8.67731 18.302 9.50041 17.5 10.035ZM15.8333 10.6434C15.2604 10.7076 14.6803 10.6388 14.1383 10.4422C13.5963 10.2457 13.1069 9.92664 12.7083 9.51002C12.3585 9.87591 11.9382 10.1671 11.4727 10.3661C11.0072 10.565 10.5062 10.6676 10 10.6675C9.49392 10.6678 8.99301 10.5655 8.52753 10.3668C8.06205 10.1682 7.64165 9.87728 7.29168 9.51169C6.89303 9.92816 6.40366 10.247 5.86164 10.4434C5.31962 10.6399 4.73958 10.7086 4.16668 10.6442V15.6667H15.8333V10.6442V10.6434ZM4.82418 2.33335L2.79668 5.84419C2.59966 6.33097 2.59374 6.87421 2.78012 7.36517C2.9665 7.85613 3.33141 8.2586 3.80183 8.49201C4.27225 8.72543 4.81346 8.77259 5.31716 8.62403C5.82086 8.47548 6.24987 8.14219 6.51834 7.69085C6.79751 6.99335 7.78501 6.99335 8.06501 7.69085C8.21943 8.07787 8.48634 8.40969 8.83128 8.64344C9.17622 8.87719 9.58333 9.00214 10 9.00214C10.4167 9.00214 10.8238 8.87719 11.1687 8.64344C11.5137 8.40969 11.7806 8.07787 11.935 7.69085C12.2142 6.99335 13.2017 6.99335 13.4817 7.69085C13.5898 7.95706 13.7519 8.19802 13.9576 8.39858C14.1634 8.59915 14.4084 8.75498 14.6773 8.85629C14.9462 8.95759 15.2331 9.00219 15.5201 8.98726C15.807 8.97233 16.0878 8.8982 16.3447 8.76954C16.6016 8.64088 16.8291 8.46046 17.013 8.23963C17.1968 8.0188 17.333 7.76233 17.4129 7.48633C17.4928 7.21034 17.5148 6.9208 17.4775 6.6359C17.4401 6.351 17.3442 6.07691 17.1958 5.83085L15.175 2.33335H4.82501H4.82418Z" fill="#393C47"/>
</svg>
