<svg width="24" height="24" viewBox="0 0 24 24" fill="none" xmlns="http://www.w3.org/2000/svg">
<path d="M10.9 2.1L20.799 3.515L22.213 13.415L13.021 22.607C12.8335 22.7945 12.5792 22.8998 12.314 22.8998C12.0488 22.8998 11.7945 22.7945 11.607 22.607L1.707 12.707C1.51953 12.5195 1.41422 12.2652 1.41422 12C1.41422 11.7348 1.51953 11.4805 1.707 11.293L10.9 2.1ZM13.728 10.586C13.9138 10.7717 14.1343 10.919 14.3769 11.0194C14.6196 11.1199 14.8797 11.1716 15.1424 11.1716C15.405 11.1715 15.6651 11.1197 15.9077 11.0192C16.1504 10.9186 16.3708 10.7713 16.5565 10.5855C16.7422 10.3997 16.8895 10.1792 16.9899 9.93656C17.0904 9.69388 17.1421 9.4338 17.1421 9.17114C17.142 8.90849 17.0902 8.64842 16.9897 8.40579C16.8891 8.16315 16.7418 7.94269 16.556 7.757C16.3702 7.57131 16.1497 7.42403 15.9071 7.32356C15.6644 7.22309 15.4043 7.1714 15.1416 7.17145C14.6112 7.17154 14.1025 7.38235 13.7275 7.7575C13.3525 8.13265 13.1419 8.64141 13.142 9.17185C13.142 9.7023 13.3529 10.211 13.728 10.586Z" fill="white"/>
</svg>
