<svg width="32" height="32" viewBox="0 0 32 32" fill="none" xmlns="http://www.w3.org/2000/svg">
<path d="M21.3332 12.6663C21.3332 11.93 20.7362 11.333 19.9998 11.333C19.2635 11.333 18.6665 11.93 18.6665 12.6663V13.9997C18.6665 14.7361 19.2635 15.333 19.9998 15.333C20.7362 15.333 21.3332 14.7361 21.3332 13.9997V12.6663Z" fill="#48A2F5"/>
<path d="M21.3332 17.9997C21.3332 17.2633 20.7362 16.6663 19.9998 16.6663C19.2635 16.6663 18.6665 17.2633 18.6665 17.9997V19.333C18.6665 20.0694 19.2635 20.6663 19.9998 20.6663C20.7362 20.6663 21.3332 20.0694 21.3332 19.333V17.9997Z" fill="#48A2F5"/>
<path fill-rule="evenodd" clip-rule="evenodd" d="M29.5077 24.6663V19.69C29.5077 18.7799 28.7846 18.1463 28.0162 18.0835C27.0419 18.004 26.275 17.1862 26.275 16.1907C26.275 15.1951 27.0419 14.3773 28.0162 14.2978C28.7846 14.2351 29.5077 13.6015 29.5077 12.6914V7.33301C29.5077 6.22844 28.6122 5.33301 27.5077 5.33301H4.6665C3.56194 5.33301 2.6665 6.22844 2.6665 7.33301V12.6914C2.6665 13.6015 3.38959 14.2351 4.15795 14.2978C5.13225 14.3773 5.89913 15.1951 5.89913 16.1907C5.89913 17.1862 5.13225 18.004 4.15795 18.0835C3.38959 18.1463 2.6665 18.7799 2.6665 19.69V24.6663C2.6665 25.7709 3.56193 26.6663 4.6665 26.6663H27.5077C28.6122 26.6663 29.5077 25.7709 29.5077 24.6663ZM23.6084 16.1907C23.6084 18.2487 24.9693 19.9879 26.841 20.5586V23.9997H21.3332V23.333C21.3332 22.5966 20.7362 21.9997 19.9998 21.9997C19.2635 21.9997 18.6665 22.5966 18.6665 23.333V23.9997H5.33317V20.5586C7.20483 19.9879 8.5658 18.2487 8.5658 16.1907C8.5658 14.1326 7.20483 12.3934 5.33317 11.8227V7.99967L18.6665 7.99968V8.66634C18.6665 9.40272 19.2635 9.99968 19.9998 9.99968C20.7362 9.99968 21.3332 9.40272 21.3332 8.66634V7.99968H26.841V11.8227C24.9693 12.3934 23.6084 14.1326 23.6084 16.1907Z" fill="#48A2F5"/>
</svg>
