<svg width="24" height="24" viewBox="0 0 24 24" fill="none" xmlns="http://www.w3.org/2000/svg">
<path d="M21.999 8C21.999 7.819 21.95 7.641 21.856 7.485L19.147 2.97C18.788 2.372 18.131 2 17.433 2H6.56502C5.86702 2 5.21002 2.372 4.85102 2.971L2.14202 7.485C2.04802 7.641 1.99902 7.819 1.99902 8C1.99902 9.005 2.38502 9.914 2.99902 10.618V11V13V20C2.99902 20.553 3.44602 21 3.99902 21H11.999C12.552 21 12.999 20.553 12.999 20V15H16.999V20C16.999 20.553 17.446 21 17.999 21H19.999C20.552 21 20.999 20.553 20.999 20V13V11V10.618C21.613 9.914 21.999 9.005 21.999 8ZM19.983 8.251C19.859 9.236 19.017 10 17.999 10C16.896 10 15.999 9.103 15.999 8C15.999 7.932 15.974 7.872 15.96 7.808L15.98 7.804L15.219 4H17.433L19.983 8.251ZM10.006 8.065L10.818 4H13.179L13.992 8.065C13.957 9.138 13.079 10 11.999 10C10.919 10 10.041 9.138 10.006 8.065ZM6.56502 4H8.77902L8.01902 7.804L8.03902 7.808C8.02402 7.872 7.99902 7.932 7.99902 8C7.99902 9.103 7.10202 10 5.99902 10C4.98102 10 4.13902 9.236 4.01502 8.251L6.56502 4ZM9.99902 16H5.99902V13H9.99902V16Z" fill="#8C90A5"/>
</svg>
