<svg width="12" height="12" viewBox="0 0 12 12" fill="none" xmlns="http://www.w3.org/2000/svg">
<path fill-rule="evenodd" clip-rule="evenodd" d="M2.20999 4.49995L4.06599 1.25195L4.93399 1.74795L3.36149 4.49995H8.63849L7.06599 1.74795L7.93399 1.25195L9.78999 4.49995H10.5C10.656 4.49995 10.8025 4.57295 10.898 4.69595C10.993 4.81995 11.024 4.98095 10.983 5.13095L9.58349 10.2625C9.46449 10.6975 9.06749 11 8.61849 11H3.38199C2.93199 11 2.53499 10.697 2.41699 10.263L1.01749 5.13145C0.976489 4.98145 1.00799 4.82045 1.10249 4.69645C1.19749 4.57295 1.34399 4.49995 1.49999 4.49995H2.20999ZM4.87503 9.56247L7.87503 7.68747L4.87503 5.81247V9.56247Z" fill="#32A461"/>
</svg>
