<svg width="16" height="16" viewBox="0 0 16 16" fill="none" xmlns="http://www.w3.org/2000/svg">
<path fill-rule="evenodd" clip-rule="evenodd" d="M12.8358 2.69417C11.4233 1.28 9.545 0.500833 7.54417 0.5C3.42083 0.5 0.0641667 3.85583 0.0625001 7.98083C0.0625001 9.29917 0.406667 10.5858 1.06083 11.7208L0 15.5967L3.96583 14.5558C5.05917 15.1517 6.28917 15.4658 7.54083 15.4667H7.54417C11.6667 15.4667 15.0233 12.1108 15.025 7.98583C15.025 5.9875 14.2483 4.10833 12.8358 2.69417ZM10.955 9.54667C10.7675 9.4525 9.84917 9.00083 9.6775 8.93833C9.50667 8.87583 9.3825 8.845 9.2575 9.03167C9.1325 9.21833 8.77417 9.63917 8.665 9.76417C8.55583 9.88917 8.44667 9.90417 8.26 9.81083C8.07333 9.7175 7.47083 9.52 6.75667 8.88333C6.20083 8.3875 5.82583 7.77583 5.71667 7.58833C5.6075 7.40083 5.705 7.3 5.79917 7.20667C5.88333 7.12333 5.98583 6.98833 6.07917 6.87917C6.1725 6.77 6.20333 6.6925 6.26583 6.5675C6.32833 6.4425 6.2975 6.33333 6.25 6.24C6.20333 6.14583 5.82917 5.22583 5.67333 4.85167C5.5225 4.48917 5.36833 4.5375 5.25333 4.5325C5.145 4.5275 5.02 4.52583 4.89583 4.52583C4.77083 4.52583 4.56833 4.5725 4.39667 4.75917C4.225 4.94667 3.7425 5.39833 3.7425 6.31833C3.7425 7.23833 4.4125 8.1275 4.50583 8.2525C4.59917 8.3775 5.82417 10.265 7.69917 11.075C8.14583 11.2675 8.49417 11.3825 8.765 11.4692C9.2125 11.6117 9.62 11.5908 9.9425 11.5433C10.3017 11.49 11.0483 11.0917 11.2042 10.655C11.36 10.2183 11.36 9.84417 11.3133 9.76583C11.2667 9.6875 11.1408 9.64 10.955 9.54667Z" fill="white"/>
</svg>
