<svg width="104" height="64" viewBox="0 0 104 64" fill="none" xmlns="http://www.w3.org/2000/svg">
<linearGradient id="paint0_linear" x1="34.6726" y1="21.337" x2="72.758" y2="83.2258" gradientUnits="userSpaceOnUse">
<stop stop-color="#FFDD00"/>
<stop offset="1" stop-color="#FF8200"/>
</linearGradient>
<rect width="104" height="64" rx="12" fill="url(#paint0_linear)"/>
<path d="M49.2129 23.3658C50.1989 24.6757 50.8023 26.2815 50.8726 28.0234V28.3233C50.8726 30.0205 50.3623 31.6024 49.478 32.918L42.4292 43.5289L42.2393 43.8148C42.2015 43.8717 42.15 43.9184 42.0893 43.9508C42.0287 43.9831 41.9608 44 41.8919 44H36.1491C35.8726 44 35.7067 43.6971 35.8583 43.4689L40.5334 36.4313C36.7911 35.5797 34 32.2741 34 28.3233L34.0078 28.0234C34.0701 26.2861 34.6708 24.6841 35.6524 23.3761C37.1893 21.3281 39.6552 20 42.4363 20C45.2128 20 47.6754 21.3236 49.2129 23.3658ZM44.9038 29.8523L45.1393 29.4978C45.392 29.0465 45.5238 28.539 45.5224 28.0234C45.5194 26.3443 44.139 24.9839 42.4363 24.9839C40.7336 24.9839 39.3533 26.3443 39.35 28.0287C39.35 29.7105 40.7318 31.0738 42.4363 31.0738C43.4467 31.0738 44.3407 30.5926 44.9038 29.8523ZM67.4171 23.3658C68.4032 24.6757 69.0066 26.2815 69.0769 28.0234V28.3233C69.0769 30.0205 68.5667 31.6024 67.6823 32.918L60.6334 43.5289L60.4435 43.8148C60.4057 43.8717 60.3542 43.9184 60.2936 43.9507C60.233 43.983 60.1651 44 60.0962 44H54.3532C54.0768 44 53.911 43.6971 54.0625 43.4689L58.7376 36.4313C54.9953 35.5797 52.2042 32.2741 52.2042 28.3233L52.2119 28.0234C52.2743 26.2861 52.875 24.6841 53.8565 23.3761C55.3935 21.3281 57.8597 20 60.6407 20C63.4172 20 65.8799 21.3236 67.4172 23.3658H67.4171ZM63.1081 29.8523L63.3436 29.4978C63.5962 29.0465 63.7281 28.539 63.7267 28.0234C63.7238 26.3443 62.3434 24.9839 60.6406 24.9839C58.9379 24.9839 57.5575 26.3443 57.5542 28.0287C57.5542 29.7105 58.9361 31.0738 60.6406 31.0738C61.651 31.0738 62.5451 30.5926 63.1081 29.8523Z" fill="black"/>
<defs>
</defs>
</svg>
