<svg width="104" height="64" viewBox="0 0 104 64" fill="none" xmlns="http://www.w3.org/2000/svg">
<rect width="104" height="64" rx="12" fill="#6E27FD"/>
<path d="M70.9843 36.6391H72.9472V27.2071L70.9843 27.3728V36.6391ZM71.9595 23.3728C71.2219 23.3728 70.6218 23.929 70.6218 24.6627C70.6218 25.3728 71.2219 25.929 71.9595 25.929C72.6971 25.929 73.2972 25.3728 73.2972 24.6627C73.2847 23.9527 72.6971 23.3728 71.9595 23.3728ZM87.9247 27.2071L85.0992 33.4201L82.0862 27.2071H78.173V26.3905C78.173 25.4201 78.6481 25.0178 79.6233 25.0178C79.9233 25.0178 80.2734 25.0651 80.6234 25.1479L81.061 23.6686C80.4734 23.4793 79.8483 23.3846 79.1357 23.3846C77.2354 23.3846 76.2102 24.5562 76.2102 26.2604V27.2071L74.5349 27.3373V28.8284H76.2102V36.6391H78.173V28.8166H80.736L84.1365 35.5266C83.849 36.1183 83.4989 36.7811 82.9488 37.1834C82.4612 37.5503 81.8361 37.5858 81.236 37.4675L80.7735 38.9941C81.6611 39.3018 82.7738 39.2663 83.5989 38.8402C84.4991 38.3669 85.0992 37.4793 85.4993 36.6036L90 27.1716H87.9121V27.2071H87.9247ZM64.4832 35.2308C62.8455 35.2189 61.4702 33.9408 61.4702 31.9172C61.4702 29.8817 62.833 28.6154 64.4832 28.5917C66.121 28.6035 67.4962 29.8817 67.4962 31.9172C67.4962 33.9408 66.121 35.2308 64.4832 35.2308ZM64.4832 26.9467C63.283 26.9467 62.2204 27.3846 61.4452 28.1183V23.645L59.6074 23.7988V36.6509H61.4452V35.7396C62.2204 36.4734 63.283 36.9112 64.4832 36.9112C67.2587 36.8994 69.3841 34.8284 69.3841 31.929C69.3841 29.0296 67.2462 26.9704 64.4832 26.9467ZM43.0172 28.6154C44.0924 28.6272 45.0675 29.2308 45.5926 30.1538L47.1804 29.2189C46.3302 27.8343 44.8175 26.9467 43.0172 26.9467C40.2292 26.9586 38.1164 29.0296 38.1164 31.929C38.1164 34.8284 40.2292 36.8876 43.0172 36.9112C44.8175 36.9112 46.3302 36.0355 47.1804 34.6391L45.5926 33.7041C45.0675 34.6391 44.0924 35.2426 43.0172 35.2426C41.3794 35.2308 40.0042 33.9527 40.0042 31.9172C40.0042 29.8817 41.3794 28.6272 43.0172 28.6154ZM52.8313 35.2308C51.1935 35.2189 49.8183 33.9408 49.8183 31.9172C49.8183 29.8817 51.181 28.6154 52.8313 28.5917C54.4691 28.6035 55.8443 29.8817 55.8443 31.9172C55.8318 33.9408 54.4691 35.2308 52.8313 35.2308ZM55.8693 28.1183C55.0942 27.3846 54.0315 26.9467 52.8313 26.9467C50.0558 26.9586 47.9305 29.0296 47.9305 31.929C47.9305 34.8284 50.0433 36.8876 52.8313 36.9112C54.0315 36.9112 55.0942 36.4734 55.8693 35.7396V36.6509H57.7071V27.1953L55.8693 27.3491V28.1183ZM21.7011 33.4556L25.3767 36.9823L29.0523 33.4556C29.7275 32.8166 30.8151 32.8166 31.4902 33.4556C32.1654 34.0947 32.1654 35.1479 31.4902 35.7988L25.3892 41.6568L19.2632 35.7988C17.713 34.2959 16.7378 32.2249 16.7378 29.9408C16.7378 25.3728 20.6009 21.6568 25.3642 21.6568C27.7521 21.6568 29.9025 22.5917 31.4652 24.0828C32.1404 24.7219 32.1404 25.7751 31.4652 26.426C30.7901 27.0651 29.7024 27.0651 29.0273 26.426C28.0897 25.5266 26.7895 24.9704 25.3517 24.9704C22.4887 24.9704 20.1634 27.1953 20.1634 29.9527C20.1884 31.3018 20.751 32.5562 21.7011 33.4556ZM25.3642 26.6154C26.3144 26.6154 27.177 26.9941 27.8021 27.5858C29.1399 28.8757 31.3277 28.8757 32.6904 27.5858C34.0282 26.2959 34.0282 24.2012 32.6904 22.8994C30.8151 21.1243 28.2272 20 25.3642 20C19.6508 20 15 24.4497 15 29.9408C15 32.6864 16.1627 35.1716 18.038 36.9704L25.3642 44L32.6904 36.9704C34.0282 35.6805 34.0282 33.5858 32.6904 32.284C31.3527 30.9941 29.1649 30.9941 27.8021 32.284L25.3642 34.6391L22.9263 32.284C22.3137 31.6923 21.9262 30.8639 21.9262 29.9408C21.9011 28.1065 23.4514 26.6154 25.3642 26.6154Z" fill="white"/>
</svg>
