<svg width="104" height="64" viewBox="0 0 104 64" fill="none" xmlns="http://www.w3.org/2000/svg">
<rect width="104" height="64" rx="12" fill="#010202"/>
<path d="M30.7168 37.3469C30.3467 36.9341 30.0571 36.4369 29.8479 35.8555C29.6387 35.2738 29.5342 34.6293 29.5342 33.9213V23H27V34.0732C27 35.118 27.1649 36.0661 27.4948 36.9171C27.8246 37.7683 28.2752 38.4972 28.8463 39.104C29.4175 39.7107 30.0933 40.1784 30.8737 40.507C31.654 40.8357 32.4947 41 33.3957 41C34.2807 41 35.1053 40.8314 35.8696 40.4945C36.6338 40.1573 37.2976 39.6768 37.8607 39.0534V40.6966H40.3707V23H37.8366V33.9213C37.8366 34.6293 37.732 35.2698 37.5229 35.8427C37.3137 36.4158 37.02 36.9088 36.6419 37.3216C36.2638 37.7345 35.8213 38.0549 35.3145 38.2823C34.8077 38.5098 34.2647 38.6238 33.6854 38.6238C33.09 38.6238 32.539 38.514 32.0321 38.2951C31.5253 38.0759 31.0869 37.7598 30.7168 37.3469Z" fill="white"/>
<path fill-rule="evenodd" clip-rule="evenodd" d="M44.739 29.4466V23H42.3014V40.6966H44.7148V39.0787C45.278 39.6686 45.9337 40.1363 46.6818 40.4817C47.43 40.8271 48.2385 41 49.1074 41C50.0084 41 50.8531 40.8229 51.6416 40.4692C52.4299 40.1152 53.1137 39.6348 53.693 39.0281C54.2723 38.4213 54.7308 37.7092 55.0688 36.8918C55.4066 36.0744 55.5756 35.2021 55.5756 34.2753C55.5756 33.3485 55.4066 32.4719 55.0688 31.646C54.7308 30.8201 54.2723 30.104 53.693 29.4972C53.1137 28.8905 52.4299 28.4101 51.6416 28.0561C50.8531 27.7021 50.0085 27.5253 49.1074 27.5253C48.2386 27.5253 47.4341 27.6979 46.6939 28.0436C45.9538 28.389 45.3021 28.8567 44.739 29.4466ZM45.9216 37.4354C45.5355 37.0308 45.2337 36.5591 45.0165 36.0195C44.7993 35.4805 44.6907 34.8988 44.6908 34.2753C44.6908 33.6518 44.8034 33.0661 45.0287 32.5183C45.2539 31.9704 45.5596 31.4945 45.9457 31.0899C46.3319 30.6854 46.7825 30.3695 47.2973 30.1418C47.8122 29.9143 48.3592 29.8006 48.9385 29.8006C49.5177 29.8006 50.0647 29.9143 50.5797 30.1418C51.0946 30.3695 51.541 30.6854 51.9191 31.0899C52.2972 31.4945 52.5989 31.9704 52.8242 32.5183C53.0494 33.0661 53.162 33.6518 53.162 34.2753C53.162 34.8988 53.0494 35.4805 52.8242 36.0195C52.5989 36.5591 52.2972 37.0311 51.9191 37.4354C51.5409 37.8399 51.0945 38.1601 50.5797 38.396C50.0647 38.632 49.5178 38.75 48.9385 38.75C48.3431 38.75 47.7881 38.632 47.2731 38.396C46.7583 38.1601 46.3078 37.8399 45.9216 37.4354Z" fill="white"/>
<path fill-rule="evenodd" clip-rule="evenodd" d="M56.951 31.6716C57.2728 30.8625 57.7153 30.1506 58.2784 29.5353C58.8415 28.9201 59.5093 28.4356 60.2816 28.0817C61.0539 27.7277 61.8906 27.5509 62.7916 27.5509C63.6766 27.5509 64.4972 27.7195 65.2534 28.0564C66.0097 28.3936 66.6613 28.8612 67.2083 29.4597C67.7554 30.0579 68.1819 30.7658 68.4875 31.5832C68.7932 32.4006 68.9461 33.2896 68.9461 34.2503V35.0847H58.9301C59.0105 35.607 59.1715 36.0917 59.4128 36.5381C59.6542 36.9847 59.9558 37.3725 60.3178 37.7012C60.6799 38.0298 61.0902 38.2868 61.5487 38.4722C62.0073 38.6576 62.494 38.7503 63.0089 38.7503C64.4731 38.7503 65.6557 38.1183 66.5568 36.8542L68.3186 38.2195C67.7072 39.0789 66.951 39.753 66.05 40.2417C65.1489 40.7305 64.1352 40.975 63.009 40.975C62.0918 40.975 61.2351 40.8064 60.4386 40.4695C59.6421 40.1323 58.9503 39.6603 58.363 39.0536C57.7757 38.4469 57.3131 37.7347 56.9753 36.9173C56.6374 36.1 56.4684 35.2109 56.4684 34.2503C56.4683 33.3402 56.6292 32.4805 56.951 31.6716ZM60.342 30.6729C59.6581 31.2713 59.2036 32.0676 58.9783 33.0621H66.4843C66.2751 32.0676 65.8286 31.2713 65.1449 30.6729C64.461 30.0747 63.6605 29.7756 62.7434 29.7756C61.8263 29.7756 61.0258 30.0747 60.342 30.6729Z" fill="white"/>
<path d="M72.7351 33.3655C72.7351 32.3542 72.9925 31.5536 73.5074 30.9637C74.0222 30.3738 74.6819 30.0789 75.4864 30.0789H76.5V27.7024H75.6553C74.9795 27.7024 74.3963 27.8542 73.9055 28.1576C73.4148 28.4609 73.0165 28.8738 72.7108 29.3963V27.8036H70.2974V40.6969H72.7351V33.3655Z" fill="white"/>
</svg>
