<svg width="32" height="32" viewBox="0 0 32 32" fill="none" xmlns="http://www.w3.org/2000/svg">
<path d="M10.8426 3.33862L5.89322 12H3.99989C3.58389 12 3.19322 12.1946 2.93989 12.524C2.68789 12.8546 2.60389 13.284 2.71322 13.684L6.44522 27.368C6.75989 28.5253 7.81855 29.3333 9.01855 29.3333H22.9826C24.1799 29.3333 25.2386 28.5266 25.5559 27.3666L29.2879 13.6826C29.3972 13.2826 29.3146 12.8533 29.0612 12.5226C28.8066 12.1946 28.4159 12 27.9999 12H26.1066L21.1572 3.33862L18.8426 4.66129L23.0359 12H8.96389L13.1572 4.66129L10.8426 3.33862ZM18.6666 17.3333H21.3332V24H18.6666V17.3333ZM10.6666 17.3333H13.3332V24H10.6666V17.3333Z" fill="#48DB84"/>
<path d="M18.6667 17.3333H21.3334V23.9999H18.6667V17.3333ZM10.6667 17.3333H13.3334V23.9999H10.6667V17.3333Z" fill="#DAF8E6"/>
</svg>
