<svg width="32" height="32" viewBox="0 0 32 32" fill="none" xmlns="http://www.w3.org/2000/svg">
<path d="M27.6997 5H6.89996H5.59997H3V7.59997H5.59997H5.98997L10.5672 20.1877C10.9377 21.2121 11.9205 21.8998 13.0099 21.8998H23.7998V19.2999H13.0099L12.0635 16.6999H23.7998C24.3198 16.6999 24.7904 16.3905 24.9945 15.9121L28.8944 6.81218C29.0673 6.41049 29.0257 5.95029 28.7852 5.58499C28.5434 5.2197 28.1365 5 27.6997 5Z" fill="#48DB84"/>
<path d="M14.0498 27.0997C15.1268 27.0997 15.9998 26.2266 15.9998 25.1497C15.9998 24.0727 15.1268 23.1997 14.0498 23.1997C12.9729 23.1997 12.0999 24.0727 12.0999 25.1497C12.0999 26.2266 12.9729 27.0997 14.0498 27.0997Z" fill="#A3EDC1"/>
<path d="M21.8499 27.0997C22.9268 27.0997 23.7999 26.2266 23.7999 25.1497C23.7999 24.0727 22.9268 23.1997 21.8499 23.1997C20.7729 23.1997 19.8999 24.0727 19.8999 25.1497C19.8999 26.2266 20.7729 27.0997 21.8499 27.0997Z" fill="#A3EDC1"/>
</svg>
