<svg width="32" height="32" viewBox="0 0 32 32" fill="none" xmlns="http://www.w3.org/2000/svg">
<path d="M3.12744 7C3.12744 5.34315 4.47059 4 6.12744 4H26.1274C27.7843 4 29.1274 5.34315 29.1274 7V13C27.4706 13 26.1274 14.3431 26.1274 16C26.1274 17.6569 27.4706 19 29.1274 19V25C29.1274 26.6569 27.7843 28 26.1274 28H6.12744C4.47059 28 3.12744 26.6569 3.12744 25V19C4.7843 19 6.12744 17.6569 6.12744 16C6.12744 14.3431 4.7843 13 3.12744 13V7Z" fill="#DAF8E6"/>
<path d="M19.9409 8L22.6159 9.87308L12.314 24.5858L9.63894 22.7127L19.9409 8Z" fill="#48DB84"/>
<path d="M12.5831 12.8145C11.8073 13.9226 10.2801 14.1918 9.17206 13.416C8.06402 12.6401 7.79473 11.1129 8.57059 10.0049C9.34644 8.89685 10.8736 8.62757 11.9817 9.40343C13.0897 10.1793 13.359 11.7065 12.5831 12.8145Z" fill="#48DB84"/>
<path d="M20.2732 23.1824C21.3812 23.9582 22.9084 23.689 23.6843 22.5809C24.4602 21.4729 24.1909 19.9457 23.0828 19.1698C21.9748 18.394 20.4476 18.6633 19.6717 19.7713C18.8959 20.8793 19.1652 22.4065 20.2732 23.1824Z" fill="#48DB84"/>
</svg>
