<svg width="32" height="32" viewBox="0 0 32 32" fill="none" xmlns="http://www.w3.org/2000/svg">
<path fill-rule="evenodd" clip-rule="evenodd" d="M23.3334 12.3333C25.3585 12.3333 27.0001 10.6917 27.0001 8.66667C27.0001 6.64162 25.3585 5 23.3334 5C21.3084 5 19.6667 6.64162 19.6667 8.66667C19.6667 10.6917 21.3084 12.3333 23.3334 12.3333ZM8.66667 27.0001C10.6917 27.0001 12.3333 25.3585 12.3333 23.3334C12.3333 21.3084 10.6917 19.6667 8.66667 19.6667C6.64162 19.6667 5 21.3084 5 23.3334C5 25.3585 6.64162 27.0001 8.66667 27.0001Z" fill="#A3EDC1"/>
<path fill-rule="evenodd" clip-rule="evenodd" d="M8.66667 12.3333C10.6917 12.3333 12.3333 10.6917 12.3333 8.66667C12.3333 6.64162 10.6917 5 8.66667 5C6.64162 5 5 6.64162 5 8.66667C5 10.6917 6.64162 12.3333 8.66667 12.3333ZM23.3334 27.0001C25.3585 27.0001 27.0001 25.3585 27.0001 23.3334C27.0001 21.3084 25.3585 19.6667 23.3334 19.6667C21.3084 19.6667 19.6667 21.3084 19.6667 23.3334C19.6667 25.3585 21.3084 27.0001 23.3334 27.0001Z" fill="#48DB84"/>
</svg>
