<svg width="32" height="32" viewBox="0 0 32 32" fill="none" xmlns="http://www.w3.org/2000/svg">
<path d="M16.9907 3.10804L28.9907 16.4414C29.344 16.8334 29.432 17.3947 29.2173 17.876C29.004 18.3574 28.5267 18.6667 28 18.6667H25.3333V28C25.3333 28.736 24.7373 29.3334 24 29.3334H7.99999C7.26266 29.3334 6.66666 28.736 6.66666 28V18.6667H3.99999C3.47333 18.6667 2.99599 18.3574 2.78266 17.876C2.56799 17.3947 2.65599 16.832 3.00933 16.4414L15.0093 3.10804C15.5147 2.54537 16.4853 2.54537 16.9907 3.10804Z" fill="#48DB84"/>
<path d="M13 22C13 21.4477 13.4477 21 14 21H18C18.5523 21 19 21.4477 19 22V29.33H13V22Z" fill="#ECFBF2"/>
</svg>
