<svg width="32" height="32" viewBox="0 0 32 32" fill="none" xmlns="http://www.w3.org/2000/svg">
<path d="M20.7941 15H5.46077C4.7244 15 4.12744 15.597 4.12744 16.3333C4.12744 17.0697 4.7244 17.6667 5.46078 17.6667H20.7941C21.5305 17.6667 22.1274 17.0697 22.1274 16.3333C22.1274 15.597 21.5305 15 20.7941 15Z" fill="#E1E3EE"/>
<path d="M26.7941 6H5.46077C4.7244 6 4.12744 6.59695 4.12744 7.33333C4.12744 8.06971 4.7244 8.66667 5.46078 8.66667H26.7941C27.5305 8.66667 28.1274 8.06971 28.1274 7.33333C28.1274 6.59695 27.5305 6 26.7941 6Z" fill="#8C90A5"/>
<path d="M26.7941 24H5.46077C4.7244 24 4.12744 24.597 4.12744 25.3333C4.12744 26.0697 4.7244 26.6667 5.46078 26.6667H26.7941C27.5305 26.6667 28.1274 26.0697 28.1274 25.3333C28.1274 24.597 27.5305 24 26.7941 24Z" fill="#8C90A5"/>
</svg>
