<svg width="32" height="32" viewBox="0 0 32 32" fill="none" xmlns="http://www.w3.org/2000/svg">
<circle cx="16" cy="25" r="4" fill="#8C90A5"/>
<path d="M25.3333 19.7813V13.6667C25.3333 9.37733 22.42 5.764 18.4733 4.67733C18.0827 3.69333 17.128 3 16 3C14.872 3 13.9173 3.69333 13.5267 4.67733C9.58 5.76533 6.66667 9.37733 6.66667 13.6667V19.7813L4.39067 22.0573C4.14 22.3067 4 22.6453 4 23V24.3333C4 25.0707 4.596 25.6667 5.33333 25.6667H26.6667C27.404 25.6667 28 25.0707 28 24.3333V23C28 22.6453 27.86 22.3067 27.6093 22.0573L25.3333 19.7813Z" fill="#E1E3EE"/>
</svg>
