<svg width="32" height="32" viewBox="0 0 32 32" fill="none" xmlns="http://www.w3.org/2000/svg">
<path fill-rule="evenodd" clip-rule="evenodd" d="M19.5433 6.7039C19.8448 7.43185 20 8.21207 20 9H24C24.5523 9 25 9.44772 25 10V13H10C8.89543 13 8 13.8954 8 15V26H6C4.34315 26 3 24.6569 3 23V10C3 9.44772 3.44772 9 4 9L8 9C8 8.21207 8.15519 7.43185 8.45672 6.7039C8.75825 5.97595 9.20021 5.31451 9.75736 4.75736C10.3145 4.20021 10.9759 3.75825 11.7039 3.45672C12.4319 3.15519 13.2121 3 14 3C14.7879 3 15.5681 3.15519 16.2961 3.45672C17.0241 3.75825 17.6855 4.20021 18.2426 4.75736C18.7998 5.31451 19.2417 5.97595 19.5433 6.7039ZM10.447 9L17.553 9C17.553 8.53342 17.4611 8.0714 17.2825 7.64033C17.104 7.20927 16.8423 6.81759 16.5123 6.48766C16.1824 6.15774 15.7907 5.89603 15.3597 5.71747C14.9286 5.53892 14.4666 5.44702 14 5.44702C13.5334 5.44702 13.0714 5.53892 12.6403 5.71747C12.2093 5.89603 11.8176 6.15774 11.4877 6.48766C11.1577 6.81759 10.896 7.20927 10.7175 7.64033C10.5389 8.0714 10.447 8.53342 10.447 9Z" fill="#BDC1D9"/>
<path fill-rule="evenodd" clip-rule="evenodd" d="M12 16C11.4477 16 11 16.4477 11 17V26C11 27.6569 12.3431 29 14 29H26C27.6569 29 29 27.6569 29 26V17C29 16.4477 28.5523 16 28 16H12ZM14.4567 20.2961C14.1552 19.5681 14 18.7879 14 18L16.447 18C16.447 18.4666 16.5389 18.9286 16.7175 19.3597C16.896 19.7907 17.1577 20.1824 17.4877 20.5123C17.8176 20.8423 18.2093 21.104 18.6403 21.2825C19.0714 21.4611 19.5334 21.553 20 21.553C20.4666 21.553 20.9286 21.4611 21.3597 21.2825C21.7907 21.104 22.1824 20.8423 22.5123 20.5123C22.8423 20.1824 23.104 19.7907 23.2825 19.3597C23.4611 18.9286 23.553 18.4666 23.553 18H26C26 18.7879 25.8448 19.5681 25.5433 20.2961C25.2417 21.0241 24.7998 21.6855 24.2426 22.2426C23.6855 22.7998 23.0241 23.2417 22.2961 23.5433C21.5681 23.8448 20.7879 24 20 24C19.2121 24 18.4319 23.8448 17.7039 23.5433C16.9759 23.2417 16.3145 22.7998 15.7574 22.2426C15.2002 21.6855 14.7583 21.0241 14.4567 20.2961Z" fill="#8C90A5"/>
</svg>
